%
M48
M72
T01C0.0100
T02C0.0295
T03C0.0330
T04C0.0400
T05C0.0600
T06C0.0787
T07C0.0984
T08C0.1250
%
T01
X3580Y2830
X4580Y2830
X5580Y2830
X6580Y2830
X7580Y2830
X8580Y2830
X9580Y2830
X10580Y2830
X11580Y2830
X12580Y2830
X13580Y2830
X14580Y2830
X15580Y2830
X16580Y2830
X17580Y2830
X18580Y2830
X19580Y2830
X20580Y2830
X21580Y2830
X22580Y2830
X23580Y2830
X24580Y2830
X25580Y2830
X26580Y2830
X27580Y2830
X28580Y2830
X29580Y2830
X30580Y2830
X31580Y2830
X32580Y2830
X33580Y2830
X34580Y2830
X35580Y2830
X36580Y2830
X37580Y2830
X38580Y2830
X39580Y2830
X40580Y2830
X41580Y2830
X42580Y2830
X43580Y2830
X44580Y2830
X45580Y2830
X46580Y2830
X47580Y2830
X48580Y2830
X49580Y2830
X50580Y2830
X51580Y2830
X52580Y2830
X53580Y2830
X54580Y2830
X55580Y2830
X56330Y3580
X56330Y4580
X56330Y5580
X56330Y6580
X56330Y7580
X56330Y8580
X56330Y9580
X56330Y10580
X56330Y11580
X56330Y12580
X56330Y13580
X56330Y14580
X56330Y15580
X56330Y16580
X56330Y17580
X56330Y18580
X56330Y19580
X56330Y20580
X56330Y21580
X56330Y22580
X56330Y23580
X56330Y24580
X56330Y25580
X56330Y26580
X56330Y27580
X56330Y28580
X56330Y29580
X56330Y30580
X56330Y31580
X55580Y32330
X54580Y32330
X53580Y32330
X52580Y32330
X51580Y32330
X50580Y32330
X45580Y32330
X44580Y32330
X43580Y32330
X40580Y32330
X39580Y32330
X37855Y32230
X36080Y32330
X34580Y32330
X33580Y32330
X32180Y32230
X31580Y32330
X30580Y32330
X29580Y32330
X28580Y32330
X27580Y32330
X26580Y32330
X25580Y32330
X25830Y31530
X25180Y31380
X25530Y31030
X26330Y30180
X27010Y29560
X27080Y29130
X25730Y28330
X25580Y28180
X26180Y27830
X25780Y27230
X25230Y27660
X24830Y27680
X24580Y28310
X23680Y29210
X24380Y29730
X23780Y30030
X23930Y30180
X23530Y30430
X22630Y30280
X22380Y30080
X22580Y29880
X22080Y29780
X22030Y30130
X22280Y30430
X22980Y31030
X20930Y31180
X20580Y32330
X19580Y32330
X18580Y32330
X17580Y32330
X16580Y32330
X15580Y32330
X14580Y32330
X13580Y32330
X13580Y30130
X13380Y30130
X13180Y30130
X13180Y29930
X13380Y29930
X13580Y29930
X13880Y29230
X14880Y28655
X15280Y28330
X13880Y28405
X13255Y28330
X13155Y27505
X12955Y27505
X12755Y27505
X12690Y27070
X12640Y26830
X11830Y27480
X10630Y27330
X10080Y27280
X10080Y27580
X10030Y26730
X10680Y26130
X10930Y26380
X11880Y25880
X12980Y26080
X12380Y25280
X11930Y24830
X11380Y25380
X10680Y24630
X10580Y24280
X10980Y24330
X10930Y23930
X11280Y23980
X11480Y23780
X12530Y23980
X13180Y24130
X13580Y23730
X14180Y23930
X14480Y24280
X14780Y24630
X15080Y24980
X15480Y25130
X15890Y24410
X15480Y23660
X15280Y23280
X15130Y23130
X15680Y22580
X15830Y22730
X15480Y22330
X15480Y21530
X15730Y21530
X15730Y21280
X15980Y21280
X15980Y20980
X16280Y21030
X16230Y20730
X16530Y20780
X16530Y20480
X16830Y20530
X16780Y20230
X17380Y20530
X17730Y20930
X18280Y20380
X18330Y19930
X19230Y20680
X20270Y20890
X20550Y20890
X20550Y20620
X20780Y20380
X21230Y20230
X21250Y19930
X21530Y19830
X21450Y19570
X21730Y19280
X22030Y19030
X22230Y18830
X22459Y18630
X21580Y18340
X21760Y18160
X22430Y17580
X23080Y17580
X24380Y18330
X24050Y19175
X23870Y19370
X23720Y18960
X23430Y19250
X23500Y19660
X23280Y19930
X24280Y20330
X24430Y20830
X24630Y21030
X24880Y21230
X25280Y21480
X24730Y21730
X25130Y22130
X25380Y21930
X25580Y22330
X25180Y22680
X24730Y22930
X24580Y24080
X23330Y24780
X21980Y25680
X21280Y25780
X21280Y25480
X21280Y25180
X21280Y26080
X21530Y26230
X20180Y26780
X19980Y26480
X19580Y27080
X19230Y27380
X18380Y28030
X17990Y27450
X17960Y27220
X16730Y27930
X17080Y28280
X16680Y28630
X17580Y28830
X19180Y29880
X19630Y29930
X21180Y29280
X21780Y29530
X22230Y29380
X22880Y28130
X22930Y27830
X22930Y27180
X23080Y26080
X25080Y25080
X26730Y24080
X26480Y23530
X27980Y23980
X28480Y24230
X28630Y23780
X29230Y23030
X28990Y22880
X30190Y22480
X30480Y22080
X29780Y22080
X29380Y21680
X29930Y21280
X31030Y20580
X31480Y20780
X32080Y20880
X32680Y20980
X30380Y20380
X29220Y19820
X28390Y20730
X27540Y21480
X26880Y22030
X25430Y20580
X26190Y20130
X25580Y19330
X26970Y19350
X27520Y18930
X26730Y18480
X26480Y18430
X26720Y17950
X26920Y17850
X26980Y18180
X25220Y17500
X26580Y16580
X28070Y16330
X28480Y16830
X29030Y16580
X30130Y16580
X30630Y16830
X31070Y16330
X32580Y16580
X34330Y16330
X35280Y16630
X35080Y17130
X35580Y17080
X36130Y17030
X36380Y16630
X37580Y17580
X39430Y17930
X41580Y18080
X40380Y20280
X39930Y20480
X40030Y21280
X40080Y22580
X37580Y22580
X32580Y22580
X30590Y22880
X29130Y24880
X28930Y25080
X28780Y24930
X28280Y25630
X27880Y26080
X27480Y26480
X27130Y26280
X27080Y26680
X27230Y26830
X26180Y26680
X27080Y25630
X27230Y25180
X29730Y26430
X30230Y26380
X30530Y26630
X29180Y27680
X28530Y28030
X29730Y28230
X30180Y28680
X32980Y30430
X32530Y30830
X32080Y31130
X29980Y30480
X29430Y30730
X28080Y30580
X26680Y31280
X24580Y32330
X23580Y32330
X22580Y32330
X21580Y32330
X20480Y28580
X20680Y27280
X18680Y26130
X18130Y26230
X18130Y25680
X18680Y25230
X17080Y24380
X16780Y24330
X17030Y24080
X17330Y24130
X17280Y23830
X17630Y23830
X17580Y23530
X17880Y23580
X17880Y23280
X18130Y23280
X18440Y23040
X19030Y23230
X18980Y23480
X18880Y23730
X19080Y22980
X19080Y22480
X19330Y22480
X19630Y22480
X19930Y22480
X20630Y23080
X21230Y23730
X21455Y22330
X21930Y22430
X22330Y22455
X22230Y22080
X22230Y21820
X22230Y21550
X22230Y21280
X22830Y22080
X23330Y21580
X23630Y21280
X20280Y21180
X18880Y22280
X18680Y22430
X17780Y22030
X17630Y22280
X18080Y21780
X15480Y20480
X15230Y20510
X14880Y20080
X16480Y19130
X15930Y18680
X16680Y18480
X16480Y17930
X15980Y17330
X16230Y17130
X15230Y16780
X15480Y16280
X16880Y15980
X16880Y15780
X15980Y14980
X15780Y14980
X17280Y14330
X17580Y14730
X18430Y15280
X18630Y15780
X18630Y16280
X19080Y16330
X19330Y16730
X20080Y16840
X20080Y17130
X20280Y17330
X20470Y17490
X21180Y17130
X21530Y16730
X21930Y16630
X20080Y16480
X18430Y16780
X18430Y17980
X17780Y17930
X17780Y18480
X18230Y18580
X20050Y18780
X20050Y19030
X19780Y19630
X20980Y18930
X16680Y19580
X12880Y19680
X12380Y20480
X12230Y20630
X10080Y20080
X8580Y18580
X7130Y19330
X6880Y19130
X6330Y19130
X6330Y18530
X5780Y18530
X5780Y17930
X6330Y17930
X6880Y17930
X6880Y18530
X6880Y19530
X7580Y20080
X7430Y20480
X7230Y20480
X7580Y22580
X9730Y23430
X10130Y23080
X10530Y22730
X12080Y22180
X12230Y22380
X12430Y22530
X12880Y24480
X13630Y24980
X14180Y25530
X15080Y26330
X15780Y26380
X15880Y26880
X16430Y26930
X16530Y27230
X14530Y27430
X14280Y27430
X14005Y27430
X11830Y28680
X11830Y28980
X12305Y28980
X11680Y29680
X11430Y29980
X10080Y30080
X10480Y29055
X7580Y30080
X7580Y32330
X6580Y32330
X5580Y32330
X4580Y32330
X3580Y32330
X2830Y31580
X2830Y30580
X2830Y29580
X2830Y28580
X2830Y27580
X2830Y26580
X2830Y25580
X2830Y24580
X2830Y23580
X2830Y22580
X2830Y21580
X2830Y20580
X2830Y19580
X2830Y18580
X2830Y17580
X2830Y16580
X2830Y15580
X2830Y14580
X2830Y13580
X2830Y12580
X2830Y11580
X2830Y10580
X2830Y9580
X2830Y8580
X2830Y7580
X2830Y6580
X2830Y5580
X2830Y4580
X2830Y3580
X8480Y6080
X9080Y6080
X9680Y6080
X9680Y6630
X9080Y6680
X8480Y6630
X7580Y7580
X6780Y8580
X6230Y8380
X5680Y8380
X6230Y8980
X6230Y9580
X5680Y9580
X6780Y9680
X5580Y10580
X5830Y11930
X6380Y11930
X6930Y11930
X6930Y12530
X6380Y12530
X5830Y12530
X5830Y13130
X6380Y13130
X6930Y13130
X8080Y13080
X7780Y14480
X6080Y14580
X7080Y15830
X7280Y15830
X9080Y17080
X11580Y16780
X14080Y17080
X12580Y15080
X16080Y13080
X17580Y12580
X20080Y12580
X21830Y10930
X22880Y11630
X23330Y12130
X22580Y12580
X25005Y11480
X25130Y11030
X25330Y11030
X25530Y9930
X24930Y9930
X24880Y9130
X24880Y8930
X25180Y8780
X25380Y8780
X24430Y8380
X23330Y8730
X22930Y8230
X23330Y7730
X22580Y7580
X22480Y7180
X22280Y7180
X22080Y7180
X21580Y6580
X20980Y6580
X20180Y6580
X19580Y6580
X19830Y5530
X21330Y5530
X24630Y6130
X25080Y5630
X26180Y6030
X26180Y6230
X25980Y6780
X25980Y6980
X25180Y7280
X25130Y7580
X25330Y7580
X24830Y6880
X27580Y5080
X30080Y7580
X30080Y9080
X29080Y9080
X28980Y10080
X28080Y10830
X28080Y11330
X28080Y11830
X29030Y12130
X30130Y12130
X30080Y11580
X28580Y12780
X29080Y13680
X30080Y13580
X29280Y14580
X28080Y15330
X28080Y15830
X25080Y15080
X27030Y13780
X22580Y15080
X20080Y15080
X14760Y11430
X14760Y10980
X14330Y11230
X13200Y11350
X12580Y12580
X10330Y11030
X10730Y10680
X10080Y10080
X9380Y8130
X9830Y7880
X11580Y6580
X12580Y7580
X12530Y7880
X12530Y8130
X15080Y7580
X15880Y6430
X16080Y6580
X17580Y7580
X17580Y5080
X15080Y5080
X12580Y5080
X9080Y5530
X14080Y10080
X15780Y10630
X16080Y10980
X20080Y10080
X21230Y9980
X21830Y8980
X23630Y9930
X23330Y11130
X27030Y10580
X27030Y10080
X32130Y10080
X32130Y10580
X33280Y10580
X33280Y10080
X34330Y10830
X34330Y11330
X34330Y11830
X35280Y12130
X34767Y12780
X35330Y13580
X36330Y13580
X35280Y14580
X34330Y15330
X34330Y15830
X33280Y15080
X33280Y14580
X32580Y15080
X32130Y15080
X32130Y14580
X32580Y12980
X32830Y12980
X36130Y12480
X36380Y12130
X37380Y11080
X37380Y10580
X38380Y10080
X39080Y10080
X39980Y10380
X39680Y10680
X40380Y10830
X41030Y10530
X41530Y10430
X41730Y10930
X41330Y11330
X39930Y11280
X38080Y12080
X35230Y10080
X35330Y9080
X36330Y9080
X35080Y7580
X37680Y7580
X39480Y6630
X39730Y7030
X40080Y6630
X40680Y6630
X40680Y6080
X40080Y6080
X39480Y6080
X39480Y5530
X38080Y6080
X40180Y7480
X40080Y8580
X40080Y9430
X41030Y9880
X42130Y8430
X41680Y8030
X42580Y7580
X44080Y6630
X44680Y6630
X45280Y6630
X46580Y6080
X47980Y5580
X48580Y5580
X49180Y5580
X50080Y7580
X51280Y7730
X51730Y8180
X51330Y8530
X50930Y8930
X50530Y8530
X51330Y9330
X52180Y9680
X52180Y10430
X52730Y10430
X53280Y10430
X52730Y11030
X52730Y11630
X52180Y11630
X53280Y11630
X50580Y13580
X52180Y14580
X52730Y14580
X53280Y14580
X53280Y15180
X52730Y15180
X52180Y15180
X52730Y13980
X53280Y13980
X52580Y17580
X50080Y17580
X47080Y16580
X42580Y15080
X39080Y14580
X38380Y14580
X38380Y15080
X34530Y16880
X43380Y20480
X45480Y22580
X45280Y22780
X45130Y23030
X48130Y23930
X48130Y24130
X49180Y23230
X49830Y23030
X50630Y22580
X49830Y21930
X49180Y21930
X48830Y22780
X49780Y24780
X49980Y24780
X47530Y25630
X46680Y26680
X47080Y27030
X45930Y26630
X44930Y26730
X44730Y26730
X44330Y27080
X44330Y27280
X43780Y26930
X43930Y26780
X43930Y26430
X43780Y26280
X44080Y25330
X44880Y25130
X48980Y26480
X49480Y26480
X49480Y27580
X48980Y27580
X45930Y29430
X45730Y29430
X45730Y29630
X45930Y29630
X44730Y29680
X44530Y29680
X43930Y29280
X43930Y29080
X43730Y29080
X43730Y29280
X43680Y28730
X43305Y28730
X43080Y28730
X42855Y28730
X43330Y27830
X43530Y27830
X43980Y27830
X44155Y27830
X45330Y27880
X45330Y28580
X43805Y29830
X43805Y30030
X42580Y30080
X41380Y29230
X40080Y29080
X38080Y29080
X37330Y30355
X36830Y30355
X36330Y30355
X35080Y30430
X34080Y29080
X34580Y26080
X39080Y26080
X52580Y27580
X54080Y26080
X54080Y25630
X54080Y25230
X54080Y24780
X54080Y24330
X54080Y23480
X54080Y23030
X52580Y22580
X52380Y20780
X52380Y20180
X52380Y19580
X46580Y13580
X46580Y10080
X52180Y8580
X52580Y7580
X42580Y5080
X7580Y25080
X5080Y25080
X5080Y22580
X10130Y25180
X5080Y27580
X8580Y32330
X15080Y30080
X16680Y25980
X5080Y17580
T02
X28330Y31330
X28830Y31330
X29330Y31330
X29830Y31330
X30330Y31330
X30330Y31830
X29830Y31830
X29330Y31826
X28830Y31830
X28330Y31830
T03
X12385Y30649
X10475Y30649
T04
X8080Y27580
X7080Y27580
X5080Y22080
X4080Y22080
X4080Y21080
X5080Y21080
X5080Y19080
X4080Y19080
X4080Y18080
X5080Y18080
X5080Y16080
X4080Y16080
X4080Y15080
X5080Y15080
X5080Y14080
X4080Y14080
X4080Y13080
X5080Y13080
X5080Y12080
X4080Y12080
X4080Y11080
X5080Y11080
X5080Y10080
X4080Y10080
X4080Y9080
X5080Y9080
X5080Y8080
X4080Y8080
X4080Y7080
X5080Y7080
X7080Y5080
X8080Y5080
X8080Y4080
X7080Y4080
X10080Y4080
X11080Y4080
X11080Y5080
X10080Y5080
X13080Y5080
X14080Y5080
X14080Y4080
X13080Y4080
X16080Y4080
X17080Y4080
X17080Y5080
X16080Y5080
X19080Y5080
X20080Y5080
X21080Y5080
X22080Y5080
X22080Y4080
X21080Y4080
X20080Y4080
X19080Y4080
X24080Y4080
X25080Y4080
X26080Y4080
X26080Y5080
X25080Y5080
X24080Y5080
X28080Y5080
X29080Y5080
X30080Y5080
X31080Y5080
X32080Y5080
X33080Y5080
X34080Y5080
X35080Y5080
X36080Y5080
X37080Y5080
X37080Y4080
X36080Y4080
X35080Y4080
X34080Y4080
X33080Y4080
X32080Y4080
X31080Y4080
X30080Y4080
X29080Y4080
X28080Y4080
X18730Y9980
X17730Y9980
X24630Y13280
X25630Y13280
X39080Y5080
X40080Y5080
X41080Y5080
X41080Y4080
X40080Y4080
X39080Y4080
X43080Y4080
X44080Y4080
X45080Y4080
X46080Y4080
X47080Y4080
X48080Y4080
X49080Y4080
X50080Y4080
X51080Y4080
X52080Y4080
X52080Y5080
X51080Y5080
X50080Y5080
X49080Y5080
X48080Y5080
X47080Y5080
X46080Y5080
X45080Y5080
X44080Y5080
X43080Y5080
X54080Y7080
X55080Y7080
X55080Y8080
X54080Y8080
X54080Y9080
X55080Y9080
X55080Y10080
X54080Y10080
X54080Y11080
X55080Y11080
X55080Y12080
X54080Y12080
X54080Y13080
X55080Y13080
X55080Y14080
X54080Y14080
X54080Y15080
X55080Y15080
X55080Y16080
X54080Y16080
X54080Y18080
X55080Y18080
X55080Y19080
X54080Y19080
X54080Y20080
X55080Y20080
X55080Y21080
X54080Y21080
X51580Y29080
X51580Y30080
X43880Y31330
X42880Y31330
X35580Y22580
X34580Y22580
X41330Y12180
X42330Y12180
T05
X12812Y31830
X10048Y31830
T06
X46773Y31438
X49687Y31438
X48230Y29391
X46931Y28525
X49529Y28525
T07
X48230Y31005
T08
X54580Y29580
X54580Y4580
X4580Y4580
X4580Y29580
M30
