G75*
%MOIN*%
%OFA0B0*%
%FSLAX24Y24*%
%IPPOS*%
%LPD*%
%AMOC8*
5,1,8,0,0,1.08239X$1,22.5*
%
%ADD10C,0.0000*%
D10*
X002580Y002580D02*
X056580Y002580D01*
X056580Y032580D01*
X002580Y032580D01*
X002580Y002580D01*
X003955Y004580D02*
X003957Y004630D01*
X003963Y004679D01*
X003973Y004728D01*
X003986Y004775D01*
X004004Y004822D01*
X004025Y004867D01*
X004049Y004910D01*
X004077Y004951D01*
X004108Y004990D01*
X004142Y005026D01*
X004179Y005060D01*
X004219Y005090D01*
X004260Y005117D01*
X004304Y005141D01*
X004349Y005161D01*
X004396Y005177D01*
X004444Y005190D01*
X004493Y005199D01*
X004543Y005204D01*
X004592Y005205D01*
X004642Y005202D01*
X004691Y005195D01*
X004740Y005184D01*
X004787Y005170D01*
X004833Y005151D01*
X004878Y005129D01*
X004921Y005104D01*
X004961Y005075D01*
X004999Y005043D01*
X005035Y005009D01*
X005068Y004971D01*
X005097Y004931D01*
X005123Y004889D01*
X005146Y004845D01*
X005165Y004799D01*
X005181Y004752D01*
X005193Y004703D01*
X005201Y004654D01*
X005205Y004605D01*
X005205Y004555D01*
X005201Y004506D01*
X005193Y004457D01*
X005181Y004408D01*
X005165Y004361D01*
X005146Y004315D01*
X005123Y004271D01*
X005097Y004229D01*
X005068Y004189D01*
X005035Y004151D01*
X004999Y004117D01*
X004961Y004085D01*
X004921Y004056D01*
X004878Y004031D01*
X004833Y004009D01*
X004787Y003990D01*
X004740Y003976D01*
X004691Y003965D01*
X004642Y003958D01*
X004592Y003955D01*
X004543Y003956D01*
X004493Y003961D01*
X004444Y003970D01*
X004396Y003983D01*
X004349Y003999D01*
X004304Y004019D01*
X004260Y004043D01*
X004219Y004070D01*
X004179Y004100D01*
X004142Y004134D01*
X004108Y004170D01*
X004077Y004209D01*
X004049Y004250D01*
X004025Y004293D01*
X004004Y004338D01*
X003986Y004385D01*
X003973Y004432D01*
X003963Y004481D01*
X003957Y004530D01*
X003955Y004580D01*
X003955Y029580D02*
X003957Y029630D01*
X003963Y029679D01*
X003973Y029728D01*
X003986Y029775D01*
X004004Y029822D01*
X004025Y029867D01*
X004049Y029910D01*
X004077Y029951D01*
X004108Y029990D01*
X004142Y030026D01*
X004179Y030060D01*
X004219Y030090D01*
X004260Y030117D01*
X004304Y030141D01*
X004349Y030161D01*
X004396Y030177D01*
X004444Y030190D01*
X004493Y030199D01*
X004543Y030204D01*
X004592Y030205D01*
X004642Y030202D01*
X004691Y030195D01*
X004740Y030184D01*
X004787Y030170D01*
X004833Y030151D01*
X004878Y030129D01*
X004921Y030104D01*
X004961Y030075D01*
X004999Y030043D01*
X005035Y030009D01*
X005068Y029971D01*
X005097Y029931D01*
X005123Y029889D01*
X005146Y029845D01*
X005165Y029799D01*
X005181Y029752D01*
X005193Y029703D01*
X005201Y029654D01*
X005205Y029605D01*
X005205Y029555D01*
X005201Y029506D01*
X005193Y029457D01*
X005181Y029408D01*
X005165Y029361D01*
X005146Y029315D01*
X005123Y029271D01*
X005097Y029229D01*
X005068Y029189D01*
X005035Y029151D01*
X004999Y029117D01*
X004961Y029085D01*
X004921Y029056D01*
X004878Y029031D01*
X004833Y029009D01*
X004787Y028990D01*
X004740Y028976D01*
X004691Y028965D01*
X004642Y028958D01*
X004592Y028955D01*
X004543Y028956D01*
X004493Y028961D01*
X004444Y028970D01*
X004396Y028983D01*
X004349Y028999D01*
X004304Y029019D01*
X004260Y029043D01*
X004219Y029070D01*
X004179Y029100D01*
X004142Y029134D01*
X004108Y029170D01*
X004077Y029209D01*
X004049Y029250D01*
X004025Y029293D01*
X004004Y029338D01*
X003986Y029385D01*
X003973Y029432D01*
X003963Y029481D01*
X003957Y029530D01*
X003955Y029580D01*
X047738Y031005D02*
X047740Y031049D01*
X047746Y031093D01*
X047756Y031136D01*
X047769Y031178D01*
X047787Y031218D01*
X047808Y031257D01*
X047832Y031294D01*
X047859Y031329D01*
X047890Y031361D01*
X047923Y031390D01*
X047959Y031416D01*
X047997Y031438D01*
X048037Y031457D01*
X048078Y031473D01*
X048121Y031485D01*
X048164Y031493D01*
X048208Y031497D01*
X048252Y031497D01*
X048296Y031493D01*
X048339Y031485D01*
X048382Y031473D01*
X048423Y031457D01*
X048463Y031438D01*
X048501Y031416D01*
X048537Y031390D01*
X048570Y031361D01*
X048601Y031329D01*
X048628Y031294D01*
X048652Y031257D01*
X048673Y031218D01*
X048691Y031178D01*
X048704Y031136D01*
X048714Y031093D01*
X048720Y031049D01*
X048722Y031005D01*
X048720Y030961D01*
X048714Y030917D01*
X048704Y030874D01*
X048691Y030832D01*
X048673Y030792D01*
X048652Y030753D01*
X048628Y030716D01*
X048601Y030681D01*
X048570Y030649D01*
X048537Y030620D01*
X048501Y030594D01*
X048463Y030572D01*
X048423Y030553D01*
X048382Y030537D01*
X048339Y030525D01*
X048296Y030517D01*
X048252Y030513D01*
X048208Y030513D01*
X048164Y030517D01*
X048121Y030525D01*
X048078Y030537D01*
X048037Y030553D01*
X047997Y030572D01*
X047959Y030594D01*
X047923Y030620D01*
X047890Y030649D01*
X047859Y030681D01*
X047832Y030716D01*
X047808Y030753D01*
X047787Y030792D01*
X047769Y030832D01*
X047756Y030874D01*
X047746Y030917D01*
X047740Y030961D01*
X047738Y031005D01*
X053955Y029580D02*
X053957Y029630D01*
X053963Y029679D01*
X053973Y029728D01*
X053986Y029775D01*
X054004Y029822D01*
X054025Y029867D01*
X054049Y029910D01*
X054077Y029951D01*
X054108Y029990D01*
X054142Y030026D01*
X054179Y030060D01*
X054219Y030090D01*
X054260Y030117D01*
X054304Y030141D01*
X054349Y030161D01*
X054396Y030177D01*
X054444Y030190D01*
X054493Y030199D01*
X054543Y030204D01*
X054592Y030205D01*
X054642Y030202D01*
X054691Y030195D01*
X054740Y030184D01*
X054787Y030170D01*
X054833Y030151D01*
X054878Y030129D01*
X054921Y030104D01*
X054961Y030075D01*
X054999Y030043D01*
X055035Y030009D01*
X055068Y029971D01*
X055097Y029931D01*
X055123Y029889D01*
X055146Y029845D01*
X055165Y029799D01*
X055181Y029752D01*
X055193Y029703D01*
X055201Y029654D01*
X055205Y029605D01*
X055205Y029555D01*
X055201Y029506D01*
X055193Y029457D01*
X055181Y029408D01*
X055165Y029361D01*
X055146Y029315D01*
X055123Y029271D01*
X055097Y029229D01*
X055068Y029189D01*
X055035Y029151D01*
X054999Y029117D01*
X054961Y029085D01*
X054921Y029056D01*
X054878Y029031D01*
X054833Y029009D01*
X054787Y028990D01*
X054740Y028976D01*
X054691Y028965D01*
X054642Y028958D01*
X054592Y028955D01*
X054543Y028956D01*
X054493Y028961D01*
X054444Y028970D01*
X054396Y028983D01*
X054349Y028999D01*
X054304Y029019D01*
X054260Y029043D01*
X054219Y029070D01*
X054179Y029100D01*
X054142Y029134D01*
X054108Y029170D01*
X054077Y029209D01*
X054049Y029250D01*
X054025Y029293D01*
X054004Y029338D01*
X053986Y029385D01*
X053973Y029432D01*
X053963Y029481D01*
X053957Y029530D01*
X053955Y029580D01*
X053955Y004580D02*
X053957Y004630D01*
X053963Y004679D01*
X053973Y004728D01*
X053986Y004775D01*
X054004Y004822D01*
X054025Y004867D01*
X054049Y004910D01*
X054077Y004951D01*
X054108Y004990D01*
X054142Y005026D01*
X054179Y005060D01*
X054219Y005090D01*
X054260Y005117D01*
X054304Y005141D01*
X054349Y005161D01*
X054396Y005177D01*
X054444Y005190D01*
X054493Y005199D01*
X054543Y005204D01*
X054592Y005205D01*
X054642Y005202D01*
X054691Y005195D01*
X054740Y005184D01*
X054787Y005170D01*
X054833Y005151D01*
X054878Y005129D01*
X054921Y005104D01*
X054961Y005075D01*
X054999Y005043D01*
X055035Y005009D01*
X055068Y004971D01*
X055097Y004931D01*
X055123Y004889D01*
X055146Y004845D01*
X055165Y004799D01*
X055181Y004752D01*
X055193Y004703D01*
X055201Y004654D01*
X055205Y004605D01*
X055205Y004555D01*
X055201Y004506D01*
X055193Y004457D01*
X055181Y004408D01*
X055165Y004361D01*
X055146Y004315D01*
X055123Y004271D01*
X055097Y004229D01*
X055068Y004189D01*
X055035Y004151D01*
X054999Y004117D01*
X054961Y004085D01*
X054921Y004056D01*
X054878Y004031D01*
X054833Y004009D01*
X054787Y003990D01*
X054740Y003976D01*
X054691Y003965D01*
X054642Y003958D01*
X054592Y003955D01*
X054543Y003956D01*
X054493Y003961D01*
X054444Y003970D01*
X054396Y003983D01*
X054349Y003999D01*
X054304Y004019D01*
X054260Y004043D01*
X054219Y004070D01*
X054179Y004100D01*
X054142Y004134D01*
X054108Y004170D01*
X054077Y004209D01*
X054049Y004250D01*
X054025Y004293D01*
X054004Y004338D01*
X053986Y004385D01*
X053973Y004432D01*
X053963Y004481D01*
X053957Y004530D01*
X053955Y004580D01*
M02*
