G75*
%MOIN*%
%OFA0B0*%
%FSLAX24Y24*%
%IPPOS*%
%LPD*%
%AMOC8*
5,1,8,0,0,1.08239X$1,22.5*
%
%ADD10C,0.1064*%
%ADD11C,0.1261*%
%ADD12OC8,0.0680*%
%ADD13C,0.0680*%
%ADD14C,0.0523*%
%ADD15C,0.0260*%
%ADD16C,0.0980*%
%ADD17C,0.0575*%
%ADD18C,0.1330*%
D10*
X048230Y031005D03*
D11*
X046773Y031438D03*
X049687Y031438D03*
X048230Y029391D03*
X046931Y028525D03*
X049529Y028525D03*
D12*
X007080Y004080D03*
X008080Y004080D03*
X008080Y005080D03*
X007080Y005080D03*
X005080Y007080D03*
X004080Y007080D03*
X004080Y008080D03*
X005080Y008080D03*
X005080Y009080D03*
X004080Y009080D03*
X004080Y010080D03*
X005080Y010080D03*
X005080Y011080D03*
X004080Y011080D03*
X004080Y012080D03*
X005080Y012080D03*
X005080Y013080D03*
X004080Y013080D03*
X004080Y014080D03*
X005080Y014080D03*
X005080Y015080D03*
X004080Y015080D03*
X004080Y016080D03*
X005080Y016080D03*
X005080Y018080D03*
X004080Y018080D03*
X004080Y019080D03*
X005080Y019080D03*
X005080Y021080D03*
X004080Y021080D03*
X004080Y022080D03*
X005080Y022080D03*
X010080Y005080D03*
X011080Y005080D03*
X011080Y004080D03*
X010080Y004080D03*
X013080Y004080D03*
X014080Y004080D03*
X014080Y005080D03*
X013080Y005080D03*
X016080Y005080D03*
X017080Y005080D03*
X017080Y004080D03*
X016080Y004080D03*
X019080Y004080D03*
X020080Y004080D03*
X021080Y004080D03*
X022080Y004080D03*
X022080Y005080D03*
X021080Y005080D03*
X020080Y005080D03*
X019080Y005080D03*
X024080Y005080D03*
X025080Y005080D03*
X026080Y005080D03*
X026080Y004080D03*
X025080Y004080D03*
X024080Y004080D03*
X028080Y004080D03*
X029080Y004080D03*
X030080Y004080D03*
X031080Y004080D03*
X032080Y004080D03*
X033080Y004080D03*
X034080Y004080D03*
X035080Y004080D03*
X036080Y004080D03*
X037080Y004080D03*
X037080Y005080D03*
X036080Y005080D03*
X035080Y005080D03*
X034080Y005080D03*
X033080Y005080D03*
X032080Y005080D03*
X031080Y005080D03*
X030080Y005080D03*
X029080Y005080D03*
X028080Y005080D03*
X039080Y005080D03*
X040080Y005080D03*
X041080Y005080D03*
X041080Y004080D03*
X040080Y004080D03*
X039080Y004080D03*
X043080Y004080D03*
X044080Y004080D03*
X045080Y004080D03*
X046080Y004080D03*
X047080Y004080D03*
X048080Y004080D03*
X049080Y004080D03*
X050080Y004080D03*
X051080Y004080D03*
X052080Y004080D03*
X052080Y005080D03*
X051080Y005080D03*
X050080Y005080D03*
X049080Y005080D03*
X048080Y005080D03*
X047080Y005080D03*
X046080Y005080D03*
X045080Y005080D03*
X044080Y005080D03*
X043080Y005080D03*
X054080Y007080D03*
X055080Y007080D03*
X055080Y008080D03*
X054080Y008080D03*
X054080Y009080D03*
X055080Y009080D03*
X055080Y010080D03*
X054080Y010080D03*
X054080Y011080D03*
X055080Y011080D03*
X055080Y012080D03*
X054080Y012080D03*
X054080Y013080D03*
X055080Y013080D03*
X055080Y014080D03*
X054080Y014080D03*
X054080Y015080D03*
X055080Y015080D03*
X055080Y016080D03*
X054080Y016080D03*
X054080Y018080D03*
X055080Y018080D03*
X055080Y019080D03*
X054080Y019080D03*
X054080Y020080D03*
X055080Y020080D03*
X055080Y021080D03*
X054080Y021080D03*
D13*
X051880Y029080D02*
X051280Y029080D01*
X051280Y030080D02*
X051880Y030080D01*
X043880Y031030D02*
X043880Y031630D01*
X042880Y031630D02*
X042880Y031030D01*
X035580Y022880D02*
X035580Y022280D01*
X034580Y022280D02*
X034580Y022880D01*
X025630Y013580D02*
X025630Y012980D01*
X024630Y012980D02*
X024630Y013580D01*
X018730Y010280D02*
X018730Y009680D01*
X017730Y009680D02*
X017730Y010280D01*
X041330Y011880D02*
X041330Y012480D01*
X042330Y012480D02*
X042330Y011880D01*
X008080Y027280D02*
X008080Y027880D01*
X007080Y027880D02*
X007080Y027280D01*
D14*
X028330Y031330D03*
X028830Y031330D03*
X029330Y031330D03*
X029830Y031330D03*
X030330Y031330D03*
X030330Y031830D03*
X029830Y031830D03*
X029330Y031826D03*
X028830Y031830D03*
X028330Y031830D03*
D15*
X026330Y030180D03*
X012305Y028980D03*
X025580Y019330D03*
X018630Y016280D03*
X018630Y015780D03*
X014760Y011430D03*
X014760Y010980D03*
X009380Y008130D03*
X009830Y007880D03*
X039930Y011280D03*
X040380Y010830D03*
D16*
X012812Y031830D03*
X010048Y031830D03*
D17*
X010475Y030649D03*
X012385Y030649D03*
D18*
X004580Y029580D03*
X004580Y004580D03*
X054580Y004580D03*
X054580Y029580D03*
M02*
