%
M48
M72
T01C0.0098
T02C0.0100
T03C0.0236
T04C0.0315
T05C0.0330
T06C0.0394
T07C0.0400
T08C0.0600
T09C0.0876
T10C0.0935
T11C0.0945
T12C0.1250
%
T01
X10840Y8463
X11529Y9231
X11785Y9310
X12533Y11081
X13005Y11199
X13438Y12381
X14245Y12381
X13330Y14457
X12710Y15432
X8556Y12282
X8891Y9566
X8694Y9349
X9107Y9231
X14816Y8955
X15800Y7262
X16351Y7066
X18674Y6869
X18281Y9093
X18103Y9310
X17966Y9526
X19777Y9172
X19875Y9408
X20033Y8975
X20977Y9546
X21548Y9546
X22946Y8877
X23143Y9073
X23399Y8877
X23655Y8818
X23536Y8424
X23930Y8345
X22611Y7262
X25997Y8188
X30367Y9566
X26115Y11633
X26115Y12420
X18970Y11199
X18084Y13818
X18261Y14152
X18261Y15097
X18615Y15885
X18517Y18818
X18379Y19054
X19186Y19054
X19442Y18818
X22848Y22577
X19383Y23995
X18379Y24605
X18241Y25314
X13930Y21455
X29383Y21514
X31214Y26199
X31371Y26829
X31292Y27420
X32355Y27597
X32533Y27853
X32710Y27597
X32710Y28109
X32355Y28109
X33950Y27656
X33950Y27420
X32926Y25924
X37651Y27814
X38517Y26711
X40210Y27892
X42769Y30570
X43517Y30235
X44422Y29388
X45249Y29979
X45170Y30766
X47099Y30136
X44344Y32873
X41194Y32873
X40800Y30924
X35485Y34192
X37651Y34782
X39599Y35018
X40013Y35018
X40426Y35018
X37848Y37971
X37178Y38129
X45092Y37459
X45446Y35333
X13044Y35806
T02
X505Y2105
X3911Y2105
X8123Y2085
X9659Y2125
X10682Y2125
X13162Y2125
X14186Y2125
X16194Y2144
X17218Y2144
X19166Y2125
X20190Y2125
X22159Y2144
X23182Y2125
X25151Y2125
X26174Y2125
X27533Y2105
X30485Y4625
X31470Y2105
X34875Y2125
X35899Y2125
X38871Y2125
X39895Y2125
X42355Y2125
X43379Y2125
X45859Y2125
X46883Y2125
X49363Y2125
X50387Y2125
X55092Y2105
X59029Y2105
X59029Y3522
X59029Y7459
X53281Y8306
X52257Y7774
X51844Y7558
X51332Y8010
X50879Y8050
X49462Y8719
X51036Y9625
X52296Y10097
X53025Y10136
X53517Y9861
X53320Y11003
X52296Y12302
X53025Y12932
X50662Y11948
X50466Y12459
X49698Y11948
X49501Y11948
X49580Y12932
X48635Y13837
X47572Y13385
X46863Y13168
X46863Y12892
X46017Y12696
X46056Y12302
X45899Y11948
X46312Y11770
X47001Y11495
X46686Y10530
X45899Y10865
X44540Y10058
X44285Y10058
X43773Y9841
X43517Y9841
X42552Y8975
X42277Y9192
X42788Y8542
X44895Y8759
X45308Y8542
X45879Y8719
X46332Y8975
X47218Y9192
X47474Y9408
X47631Y9644
X47926Y10117
X48320Y10136
X49855Y10589
X50643Y10944
X46529Y9841
X46903Y8207
X47651Y6849
X47966Y6849
X47985Y6573
X48556Y6475
X48792Y6259
X49009Y6062
X49285Y5885
X45603Y6750
X41036Y6869
X40426Y8325
X40407Y8759
X40210Y9408
X40662Y9644
X40800Y9841
X40170Y10530
X39186Y9999
X38143Y9152
X37867Y9152
X37592Y9152
X37316Y9152
X35741Y9487
X34737Y8424
X33359Y9388
X32985Y10097
X32375Y10215
X31627Y10215
X31627Y9467
X30072Y10235
X30072Y11180
X31056Y12794
X32139Y12833
X32139Y13050
X32139Y13286
X32985Y12833
X34580Y12853
X35170Y12715
X35170Y13070
X34934Y12282
X34934Y11948
X34934Y11455
X34934Y11101
X35367Y10727
X38044Y11731
X38261Y12262
X37670Y12814
X37414Y12932
X37178Y12794
X37690Y13345
X37690Y13601
X38517Y14467
X39048Y15294
X40111Y16259
X39481Y16337
X38517Y16593
X37867Y16337
X37651Y16908
X37651Y17223
X37946Y17125
X37257Y16908
X36785Y16081
X36785Y15806
X36804Y15294
X36785Y14585
X36627Y14428
X35348Y15077
X35348Y15392
X35111Y15668
X35111Y15963
X34698Y16259
X34934Y16534
X35603Y16514
X36332Y16475
X34481Y15825
X34225Y16259
X34245Y16692
X33753Y16692
X33005Y15963
X31096Y15944
X29639Y17203
X29206Y16770
X27611Y15412
X26391Y15491
X26194Y15215
X25958Y15018
X25505Y14605
X25722Y13621
X25348Y13168
X24048Y12656
X23005Y12656
X23005Y12184
X22198Y12125
X22159Y12617
X21745Y12833
X20741Y13266
X20722Y13778
X20741Y14034
X21883Y13837
X22966Y14566
X23123Y14349
X24029Y14940
X24836Y15609
X24974Y16022
X23891Y16672
X23655Y16377
X23517Y16731
X23123Y16810
X22907Y17125
X21765Y17341
X21706Y17715
X21371Y17361
X20977Y17440
X20682Y17774
X19619Y17479
X20466Y16829
X20662Y17046
X21036Y16869
X20761Y16318
X20151Y15885
X19639Y16278
X19009Y15885
X19009Y15294
X19265Y15314
X19599Y15136
X18832Y15058
X18615Y14467
X19344Y13581
X19708Y13650
X19727Y13906
X20918Y14979
X21765Y15196
X21922Y15451
X22198Y16259
X24029Y18050
X24580Y18562
X24718Y18857
X24914Y19152
X24344Y19093
X23615Y19172
X22592Y19703
X22710Y20491
X22985Y20491
X22434Y21042
X22099Y20865
X21942Y21554
X21450Y22164
X20741Y21633
X21076Y20865
X20544Y20471
X19560Y20353
X19265Y21003
X19009Y21259
X18162Y21003
X17493Y20432
X18182Y20018
X17493Y18916
X16548Y18916
X15722Y18818
X14737Y18759
X14816Y18365
X14659Y18129
X15052Y17932
X14265Y17597
X14009Y17420
X13832Y17203
X13517Y17538
X13320Y17381
X13950Y17735
X14166Y16849
X14127Y16554
X14796Y16318
X14836Y16829
X15682Y16711
X16686Y16554
X17493Y16554
X18182Y16278
X17178Y15609
X16686Y15570
X16076Y15688
X15466Y15688
X15288Y15451
X16135Y14566
X16686Y14172
X16863Y14861
X15997Y13247
X15840Y13050
X16194Y12912
X16194Y12636
X16706Y12223
X16725Y11869
X17178Y11672
X17769Y12302
X17769Y12636
X18694Y11396
X19225Y11199
X19501Y11140
X20662Y10412
X21096Y10747
X21292Y11357
X21942Y10766
X22395Y11337
X22710Y10885
X23418Y11337
X24462Y10668
X25702Y10373
X26844Y10196
X26844Y9408
X28497Y8109
X28596Y7656
X28930Y7656
X27848Y7873
X26174Y7479
X25682Y7735
X25111Y6869
X24816Y6751
X24580Y7715
X24088Y7755
X22749Y7066
X22474Y6869
X22375Y6633
X22139Y6514
X21292Y6396
X20525Y7538
X20722Y7755
X20190Y7499
X19737Y7735
X19324Y7302
X19540Y6593
X19147Y6278
X18891Y6593
X18025Y6495
X17670Y6495
X17159Y5747
X18222Y5648
X16115Y5806
X15249Y6318
X15564Y6436
X17710Y7459
X17788Y7735
X16745Y8857
X16036Y10196
X15722Y10707
X16312Y11003
X16568Y10589
X16903Y10806
X17887Y10058
X20367Y8975
X20702Y12518
X23143Y13207
X23871Y13522
X27729Y12991
X31135Y14546
X33005Y14585
X33753Y18660
X34363Y18660
X34698Y18621
X33930Y19408
X33714Y19408
X33497Y19408
X32119Y19073
X31765Y19073
X31391Y19073
X30544Y18818
X30013Y18916
X29816Y19192
X29619Y18916
X29344Y19408
X29107Y19408
X28517Y19034
X27926Y19625
X27946Y20314
X28182Y20786
X28182Y21062
X28497Y21062
X28497Y20786
X28812Y20786
X28812Y21062
X29048Y21337
X29048Y21652
X29560Y22007
X29993Y21810
X30269Y21810
X30544Y21810
X30859Y21810
X31135Y21810
X31411Y21810
X31725Y20668
X32040Y20668
X32355Y20668
X31529Y20353
X31253Y20353
X29403Y20471
X29088Y20471
X27788Y21062
X27434Y21062
X26647Y21455
X26647Y21711
X25466Y22361
X25466Y22617
X25151Y22282
X24481Y21948
X24265Y21475
X24540Y21278
X24521Y20747
X24698Y19959
X25249Y19920
X25800Y19133
X25722Y18837
X25544Y18385
X25820Y18188
X25426Y17971
X25210Y18010
X24836Y18345
X22848Y18542
X22513Y18778
X22198Y18778
X21706Y19034
X20977Y18916
X19718Y18877
X18399Y18581
X17966Y17794
X18182Y17617
X17788Y17223
X17592Y17400
X17277Y18168
X18753Y17420
X18615Y17046
X15485Y19861
X15761Y20136
X15190Y19526
X14540Y19192
X14265Y19487
X13674Y18798
X13359Y18601
X13300Y18916
X12375Y18837
X12178Y18483
X10682Y18601
X10525Y17971
X10722Y17735
X10977Y17282
X11017Y17007
X11765Y16475
X11903Y16042
X12552Y15944
X12316Y16652
X12474Y16829
X12178Y16849
X10525Y16278
X9245Y15274
X10662Y14999
X9481Y13227
X7651Y12125
X7198Y13030
X6292Y13207
X6096Y12912
X5879Y12262
X5682Y11908
X4954Y11633
X5249Y11259
X5485Y10648
X4678Y10255
X5879Y9664
X6096Y9369
X6292Y9192
X5682Y9073
X8241Y9428
X8596Y9743
X9678Y10629
X9678Y11121
X9225Y11908
X10249Y10176
X10584Y9762
X11725Y10353
X11981Y10353
X13674Y9762
X13871Y8621
X14442Y8739
X13182Y8562
X12493Y8385
X12198Y8266
X12670Y6199
X13103Y5806
X11253Y6003
X11214Y5530
X7729Y5963
X7513Y6160
X7769Y6357
X7552Y6554
X7887Y6751
X7178Y5727
X9363Y7951
X9678Y8168
X14639Y11790
X14639Y12302
X15111Y12755
X14107Y13877
X14462Y14192
X14304Y14408
X13911Y14448
X13773Y14703
X13399Y14940
X13162Y14684
X13596Y15432
X9737Y18483
X10170Y19526
X9678Y20117
X9875Y20491
X9481Y20825
X9403Y21593
X10525Y21416
X10820Y20983
X10977Y20825
X12040Y20491
X12257Y20668
X12887Y21318
X13162Y21593
X12395Y22184
X12099Y22026
X11706Y21944
X10977Y22932
X11214Y23247
X10643Y22696
X10387Y22459
X12592Y22951
X12690Y23385
X13379Y23542
X13517Y23168
X14540Y22892
X14383Y22577
X13832Y22322
X14501Y21731
X14501Y20845
X15288Y20727
X13379Y19900
X9245Y19723
X7139Y20255
X6529Y21022
X5997Y21259
X6922Y22262
X5997Y19310
X7198Y18404
X7237Y16928
X6745Y15825
X6844Y15491
X6056Y15648
X6056Y14802
X4954Y14467
X5249Y14251
X5485Y14034
X6962Y13916
X7119Y13719
X4678Y17302
X544Y16770
X505Y17853
X544Y18759
X544Y19782
X544Y21751
X544Y22774
X544Y25215
X544Y26239
X4580Y27420
X4777Y27814
X5170Y27420
X5367Y27814
X5761Y27420
X5958Y27814
X5702Y30235
X6548Y30451
X6863Y30451
X7178Y30451
X7887Y30451
X8911Y30786
X10111Y30865
X11548Y30491
X11962Y30215
X12316Y31259
X12198Y31888
X11922Y31888
X12454Y32046
X12808Y32046
X13418Y31790
X13792Y32125
X13950Y32440
X13832Y32755
X13418Y32755
X14422Y33050
X14068Y33404
X14816Y33680
X15033Y33404
X14816Y34152
X14678Y34703
X14796Y35156
X15485Y35629
X15820Y35629
X16036Y35924
X16194Y35786
X16194Y35570
X17001Y35589
X17907Y35510
X18162Y35176
X18576Y34782
X17848Y34507
X17611Y34270
X17375Y34388
X17414Y33798
X17710Y33818
X17021Y32774
X15407Y32814
X15840Y31514
X15525Y31357
X18162Y30491
X18576Y30215
X17887Y29073
X18773Y28562
X19068Y28148
X18851Y27873
X18576Y27892
X18182Y28109
X18911Y26770
X19029Y26475
X18871Y26318
X17926Y26239
X17316Y26770
X16903Y26751
X16666Y26751
X16371Y26101
X17375Y25806
X17769Y25589
X17729Y25274
X17099Y25018
X16863Y25136
X16903Y24822
X16706Y24566
X16548Y24329
X16411Y24743
X17099Y24369
X17533Y23640
X17493Y22932
X18635Y22105
X18812Y22361
X18162Y21652
X19501Y23404
X20013Y23601
X20210Y23424
X20033Y23227
X21332Y23936
X21922Y23995
X22651Y23562
X23103Y23365
X23714Y22656
X23123Y22499
X22336Y22656
X23517Y21731
X24068Y23424
X26115Y24467
X26450Y24467
X26804Y24467
X26804Y23995
X26804Y23385
X25525Y24743
X25131Y25156
X24934Y24940
X23615Y26180
X21509Y25373
X20997Y24684
X20407Y25451
X21056Y25825
X21096Y26967
X20859Y26967
X19698Y26140
X19225Y25629
X18497Y24999
X15958Y24093
X14659Y24448
X14068Y24743
X13773Y24644
X13576Y24900
X14481Y25255
X14678Y25491
X15170Y26810
X14068Y27184
X13241Y26810
X10111Y25688
X10977Y29133
X11233Y29388
X9265Y29782
X10623Y31967
X10584Y32991
X10584Y33345
X10977Y32991
X10210Y33759
X10466Y34211
X10722Y35235
X11115Y35255
X11607Y35255
X11962Y35255
X12316Y35747
X13832Y36534
X13635Y37085
X12729Y37459
X13103Y38148
X14206Y38148
X14206Y38955
X12336Y38955
X11233Y38050
X8399Y38955
X8162Y36633
X8773Y35825
X9166Y35825
X10348Y35727
X8812Y34369
X8399Y34231
X8241Y33837
X7887Y33483
X7533Y34270
X7060Y34310
X6548Y34270
X5072Y34959
X4974Y35924
X4462Y38955
X525Y38955
X505Y37538
X505Y33601
X5111Y31692
X505Y29664
X14540Y29369
X19855Y28404
X22237Y29526
X23497Y29526
X25505Y28070
X27001Y28581
X27218Y28837
X27533Y28719
X27828Y29054
X27414Y29251
X27985Y31219
X27670Y31298
X27237Y31455
X27237Y31888
X26765Y31888
X28044Y31613
X30092Y31140
X30525Y30825
X30525Y30570
X30525Y30294
X30525Y29940
X30525Y29625
X30525Y29349
X30741Y29211
X31036Y29211
X31233Y28857
X31489Y28857
X33477Y29034
X33753Y29034
X33950Y29467
X34245Y29467
X34540Y29467
X34855Y29467
X35131Y29467
X35426Y29467
X36588Y29192
X36942Y29566
X37848Y28522
X37533Y27479
X37533Y27184
X37533Y26849
X37533Y26475
X37533Y26140
X37533Y25648
X37533Y25333
X37533Y25018
X35682Y22361
X33733Y21554
X35544Y19802
X36745Y19782
X37592Y20766
X38930Y21298
X40702Y21298
X41647Y22558
X42670Y21298
X44639Y21298
X46489Y21455
X47237Y20373
X47552Y20255
X47533Y20648
X48025Y20648
X48025Y20451
X48773Y20491
X50662Y21337
X50544Y21829
X52907Y21377
X54599Y21692
X52552Y19507
X53005Y19310
X52572Y18719
X51155Y18148
X50564Y18385
X49855Y18680
X49501Y18955
X48596Y18247
X48123Y18660
X47552Y18621
X46804Y18227
X46351Y18207
X45918Y16829
X45918Y16318
X46312Y15845
X46804Y15412
X47178Y15806
X47592Y16357
X47592Y16849
X47139Y16869
X49501Y16357
X49698Y16357
X50643Y16337
X50387Y17479
X52651Y16810
X52670Y16357
X53517Y15412
X53005Y14566
X53261Y14448
X52690Y14349
X50603Y13975
X49895Y14270
X50033Y15156
X49501Y15353
X50662Y15353
X47572Y14585
X46863Y13837
X46017Y14073
X45879Y14940
X44796Y14290
X44462Y13719
X43930Y13975
X43714Y14664
X43202Y14270
X42867Y14093
X42769Y14467
X42887Y15412
X43989Y15353
X43970Y16337
X43025Y16357
X42828Y16357
X43733Y17853
X44462Y18168
X43911Y18385
X43202Y18699
X41981Y18306
X40899Y17676
X40859Y16849
X40485Y16908
X40859Y16337
X39619Y17577
X40151Y18247
X40485Y18621
X40111Y14172
X40879Y13365
X40603Y12499
X40820Y12341
X40820Y11948
X39954Y12381
X41627Y14192
X43655Y12951
X43950Y11928
X43005Y11948
X42808Y11948
X42887Y10944
X43950Y10944
X39383Y8148
X38812Y7400
X32907Y7440
X31903Y8089
X31391Y8129
X29659Y8759
X25682Y16357
X25603Y16711
X25840Y16908
X26588Y20077
X29836Y22400
X30249Y24605
X30485Y24605
X31017Y24940
X31824Y24940
X32119Y25392
X32296Y24546
X29166Y24723
X27474Y26455
X28694Y26731
X21155Y31514
X20918Y31948
X20918Y32538
X20367Y32892
X19974Y33640
X21725Y34762
X21725Y34999
X20052Y36357
X19619Y35648
X19147Y35648
X17907Y36357
X18162Y37302
X18694Y37479
X19048Y37164
X19324Y37558
X19757Y37558
X20210Y38955
X18812Y38975
X16076Y36731
X15761Y36711
X15407Y36711
X14934Y36711
X14698Y37381
X15918Y34507
X16312Y34507
X16312Y34113
X15918Y34113
X24147Y38955
X27021Y37656
X27631Y36101
X27946Y36101
X29403Y36573
X32533Y35845
X32533Y35255
X32533Y34625
X30879Y33995
X30485Y33995
X30092Y33995
X34147Y35707
X35662Y33109
X42119Y35136
X42414Y37007
X43832Y38955
X45544Y37046
X47769Y38955
X51706Y38955
X53025Y36219
X53418Y35038
X59029Y35018
X59029Y31081
X53458Y29369
X50584Y31022
X48930Y31022
X48025Y28640
X50328Y25471
X51332Y25609
X53418Y25196
X54481Y26514
X54993Y26357
X57218Y23975
X59029Y23207
X59029Y19270
X59029Y15333
X59029Y11396
X50682Y19113
X47513Y22873
X47040Y22656
X45879Y22892
X45111Y23345
X45111Y23739
X45111Y24152
X47395Y24920
X47572Y23759
X42159Y26298
X41450Y28601
X39895Y38955
X35958Y38955
X28084Y38955
X55643Y38955
X59029Y38955
X59029Y27144
X544Y15747
X544Y13778
X544Y12755
X544Y10766
X544Y9743
X505Y6042
T03
X7552Y7892
X12769Y12164
X19068Y11908
X30367Y8759
X32375Y7991
X36509Y12971
X33812Y14270
X34580Y15077
X39383Y14959
X39914Y14940
X39914Y15471
X31292Y20983
X29265Y22892
X26391Y23719
X24659Y23877
X28556Y28444
X29580Y31475
X29934Y31829
X23576Y30077
X19796Y34684
X13458Y34211
X11430Y31770
X4462Y33444
X8517Y18936
X28025Y19073
X34914Y23286
X34895Y25058
X50466Y23227
T04
X56048Y20109
X56048Y19109
X57048Y19109
X57048Y20109
X57048Y18109
X56048Y18109
X56048Y17109
X57048Y17109
X57048Y16109
X56048Y16109
X56048Y15109
X57048Y15109
X57048Y14109
X56048Y14109
X56048Y13109
X56048Y12109
X57048Y12109
X57048Y13109
X57048Y11109
X56048Y11109
X51875Y5085
X51875Y4085
X50875Y4085
X49875Y4085
X48875Y4085
X47875Y4085
X46875Y4085
X45875Y4085
X44875Y4085
X43875Y4085
X42875Y4085
X41875Y4085
X40875Y4085
X39875Y4085
X38875Y4085
X37875Y4085
X36875Y4085
X35875Y4085
X34875Y4085
X33875Y4085
X32875Y4085
X32875Y5085
X33875Y5085
X34875Y5085
X35875Y5085
X36875Y5085
X37875Y5085
X38875Y5085
X39875Y5085
X40875Y5085
X41875Y5085
X42875Y5085
X43875Y5085
X44875Y5085
X45875Y5085
X46875Y5085
X47875Y5085
X48875Y5085
X49875Y5085
X50875Y5085
X26678Y5085
X25678Y5085
X25678Y4085
X26678Y4085
X24678Y4085
X23678Y4085
X22678Y4085
X21678Y4085
X20678Y4085
X19678Y4085
X18678Y4085
X17678Y4085
X16678Y4085
X15678Y4085
X14678Y4085
X13678Y4085
X12678Y4085
X11678Y4085
X10678Y4085
X9678Y4085
X8678Y4085
X7678Y4085
X7678Y5085
X8678Y5085
X9678Y5085
X10678Y5085
X11678Y5085
X12678Y5085
X13678Y5085
X14678Y5085
X15678Y5085
X16678Y5085
X17678Y5085
X18678Y5085
X19678Y5085
X20678Y5085
X21678Y5085
X22678Y5085
X23678Y5085
X24678Y5085
X3505Y9259
X2505Y9259
X2505Y10259
X3505Y10259
X3505Y11259
X2505Y11259
X2505Y12259
X3505Y12259
X3505Y13259
X2505Y13259
X2505Y14259
X3505Y14259
X3505Y15259
X2505Y15259
X2505Y16259
X3505Y16259
X3505Y17259
X2505Y17259
X2505Y18259
X3505Y18259
X3505Y19259
X2505Y19259
X2505Y20259
X3505Y20259
X3505Y21259
X2505Y21259
X2505Y22259
X3505Y22259
X3505Y23259
X2505Y23259
X2505Y24259
X3505Y24259
X3505Y25259
X2505Y25259
X2505Y26259
X3505Y26259
X3505Y27259
X2505Y27259
X2505Y28259
X3505Y28259
T05
X15436Y37262
X17346Y37262
T06
X55387Y34605
X55387Y32833
X57946Y32833
X57946Y34605
X57946Y30274
X57946Y28503
X55387Y28503
X55387Y30274
T07
X27914Y16357
X26914Y16357
X39186Y11896
X39186Y10896
X24044Y32932
X23044Y32932
X22044Y32932
X22044Y33932
X23044Y33932
X24044Y33932
X23584Y37156
X22584Y37156
X22584Y38156
X23584Y38156
X4477Y31239
X3477Y31239
X2477Y31239
T08
X15009Y38444
X17773Y38444
T09
X29068Y35255
X30367Y36160
X31666Y35255
T10
X31824Y38168
X28911Y38168
T11
X30367Y37735
T12
X56942Y36869
X56942Y4192
X2611Y4192
X2611Y36869
M30
