G75*
%MOIN*%
%OFA0B0*%
%FSLAX25Y25*%
%IPPOS*%
%LPD*%
%AMOC8*
5,1,8,0,0,1.08239X$1,22.5*
%
%ADD10R,0.02835X0.03228*%
%ADD11C,0.02047*%
%ADD12R,0.03228X0.02835*%
%ADD13R,0.04291X0.03917*%
%ADD14R,0.04331X0.03937*%
%ADD15R,0.04311X0.03937*%
%ADD16R,0.05630X0.06693*%
%ADD17R,0.06706X0.06706*%
%ADD18R,0.03950X0.06706*%
%ADD19R,0.03950X0.06312*%
%ADD20R,0.03556X0.07690*%
%ADD21R,0.06706X0.04737*%
%ADD22R,0.04737X0.06706*%
%ADD23C,0.09800*%
%ADD24C,0.05750*%
%ADD25R,0.02375X0.06115*%
%ADD26C,0.13300*%
%ADD27R,0.09461X0.03162*%
%ADD28R,0.04737X0.07887*%
%ADD29R,0.06902X0.03162*%
%ADD30C,0.01575*%
%ADD31R,0.01575X0.00787*%
%ADD32R,0.00787X0.01575*%
%ADD33C,0.00394*%
%ADD34C,0.02584*%
%ADD35R,0.05524X0.05524*%
%ADD36C,0.05524*%
%ADD37R,0.05524X0.01981*%
%ADD38C,0.03937*%
%ADD39R,0.03162X0.09461*%
%ADD40R,0.01457X0.02756*%
%ADD41R,0.01457X0.02362*%
%ADD42R,0.01181X0.02067*%
%ADD43R,0.00886X0.00335*%
%ADD44R,0.00728X0.00354*%
%ADD45R,0.02559X0.02480*%
%ADD46R,0.05328X0.07887*%
%ADD47R,0.02700X0.02000*%
%ADD48R,0.02000X0.02700*%
%ADD49OC8,0.06800*%
%ADD50R,0.04737X0.11430*%
%ADD51R,0.05524X0.02965*%
%ADD52R,0.02244X0.02323*%
%ADD53R,0.02244X0.02165*%
%ADD54R,0.03543X0.02323*%
%ADD55R,0.03543X0.02165*%
%ADD56R,0.07493X0.10131*%
%ADD57R,0.01772X0.07087*%
%ADD58R,0.01575X0.07087*%
%ADD59C,0.06800*%
%ADD60R,0.06299X0.05512*%
%ADD61C,0.06800*%
%ADD62C,0.04737*%
%ADD63C,0.04343*%
%ADD64R,0.04528X0.03346*%
%ADD65R,0.03346X0.04528*%
%ADD66R,0.02756X0.01457*%
%ADD67R,0.02362X0.01457*%
%ADD68R,0.02067X0.01181*%
%ADD69R,0.00335X0.00886*%
%ADD70R,0.00354X0.00728*%
%ADD71R,0.02480X0.02559*%
%ADD72C,0.06706*%
%ADD73C,0.13560*%
%ADD74C,0.14150*%
%ADD75C,0.10249*%
%ADD76R,0.03800X0.05300*%
%ADD77R,0.03917X0.04291*%
%ADD78R,0.03937X0.04331*%
%ADD79R,0.03937X0.04311*%
%ADD80R,0.02283X0.03150*%
%ADD81R,0.02126X0.03150*%
%ADD82R,0.07099X0.11430*%
%ADD83R,0.09855X0.10643*%
%ADD84R,0.10249X0.03792*%
%ADD85R,0.07008X0.08740*%
%ADD86R,0.03950X0.03950*%
%ADD87R,0.03950X0.06509*%
%ADD88R,0.03162X0.06509*%
D10*
X0088318Y0122822D03*
X0092255Y0122822D03*
G36*
X0139525Y0152341D02*
X0141529Y0150337D01*
X0139247Y0148055D01*
X0137243Y0150059D01*
X0139525Y0152341D01*
G37*
G36*
X0142309Y0149557D02*
X0144313Y0147553D01*
X0142031Y0145271D01*
X0140027Y0147275D01*
X0142309Y0149557D01*
G37*
G36*
X0128038Y0163927D02*
X0130042Y0161923D01*
X0127760Y0159641D01*
X0125756Y0161645D01*
X0128038Y0163927D01*
G37*
G36*
X0125254Y0166711D02*
X0127258Y0164707D01*
X0124976Y0162425D01*
X0122972Y0164429D01*
X0125254Y0166711D01*
G37*
G36*
X0110026Y0182037D02*
X0112030Y0180033D01*
X0109748Y0177751D01*
X0107744Y0179755D01*
X0110026Y0182037D01*
G37*
G36*
X0107242Y0184821D02*
X0109246Y0182817D01*
X0106964Y0180535D01*
X0104960Y0182539D01*
X0107242Y0184821D01*
G37*
G36*
X0113183Y0210759D02*
X0111179Y0208755D01*
X0108897Y0211037D01*
X0110901Y0213041D01*
X0113183Y0210759D01*
G37*
G36*
X0115967Y0213543D02*
X0113963Y0211539D01*
X0111681Y0213821D01*
X0113685Y0215825D01*
X0115967Y0213543D01*
G37*
G36*
X0131195Y0230346D02*
X0129191Y0228342D01*
X0126909Y0230624D01*
X0128913Y0232628D01*
X0131195Y0230346D01*
G37*
G36*
X0133979Y0233130D02*
X0131975Y0231126D01*
X0129693Y0233408D01*
X0131697Y0235412D01*
X0133979Y0233130D01*
G37*
G36*
X0146549Y0246980D02*
X0144545Y0244976D01*
X0142263Y0247258D01*
X0144267Y0249262D01*
X0146549Y0246980D01*
G37*
G36*
X0149333Y0249763D02*
X0147329Y0247759D01*
X0145047Y0250041D01*
X0147051Y0252045D01*
X0149333Y0249763D01*
G37*
G36*
X0163478Y0262826D02*
X0161474Y0260822D01*
X0159192Y0263104D01*
X0161196Y0265108D01*
X0163478Y0262826D01*
G37*
G36*
X0166262Y0265610D02*
X0164258Y0263606D01*
X0161976Y0265888D01*
X0163980Y0267892D01*
X0166262Y0265610D01*
G37*
G36*
X0191789Y0263758D02*
X0193793Y0261754D01*
X0191511Y0259472D01*
X0189507Y0261476D01*
X0191789Y0263758D01*
G37*
G36*
X0194573Y0260974D02*
X0196577Y0258970D01*
X0194295Y0256688D01*
X0192291Y0258692D01*
X0194573Y0260974D01*
G37*
X0203278Y0258451D03*
X0207215Y0258451D03*
G36*
X0207751Y0242543D02*
X0205747Y0244547D01*
X0208029Y0246829D01*
X0210033Y0244825D01*
X0207751Y0242543D01*
G37*
G36*
X0210535Y0239759D02*
X0208531Y0241763D01*
X0210813Y0244045D01*
X0212817Y0242041D01*
X0210535Y0239759D01*
G37*
G36*
X0224287Y0230141D02*
X0222283Y0232145D01*
X0224565Y0234427D01*
X0226569Y0232423D01*
X0224287Y0230141D01*
G37*
G36*
X0227071Y0227357D02*
X0225067Y0229361D01*
X0227349Y0231643D01*
X0229353Y0229639D01*
X0227071Y0227357D01*
G37*
G36*
X0231239Y0229639D02*
X0233243Y0231643D01*
X0235525Y0229361D01*
X0233521Y0227357D01*
X0231239Y0229639D01*
G37*
G36*
X0234023Y0232423D02*
X0236027Y0234427D01*
X0238309Y0232145D01*
X0236305Y0230141D01*
X0234023Y0232423D01*
G37*
X0248554Y0215144D03*
X0252491Y0215144D03*
X0252491Y0210420D03*
X0248554Y0210420D03*
X0248554Y0205696D03*
X0252491Y0205696D03*
G36*
X0242917Y0207672D02*
X0240913Y0209676D01*
X0243195Y0211958D01*
X0245199Y0209954D01*
X0242917Y0207672D01*
G37*
G36*
X0240133Y0210456D02*
X0238129Y0212460D01*
X0240411Y0214742D01*
X0242415Y0212738D01*
X0240133Y0210456D01*
G37*
G36*
X0248152Y0180964D02*
X0246148Y0178960D01*
X0243866Y0181242D01*
X0245870Y0183246D01*
X0248152Y0180964D01*
G37*
G36*
X0251695Y0177421D02*
X0249691Y0175417D01*
X0247409Y0177699D01*
X0249413Y0179703D01*
X0251695Y0177421D01*
G37*
G36*
X0248911Y0174637D02*
X0246907Y0172633D01*
X0244625Y0174915D01*
X0246629Y0176919D01*
X0248911Y0174637D01*
G37*
G36*
X0244260Y0169431D02*
X0246264Y0171435D01*
X0248546Y0169153D01*
X0246542Y0167149D01*
X0244260Y0169431D01*
G37*
G36*
X0241476Y0166647D02*
X0243480Y0168651D01*
X0245762Y0166369D01*
X0243758Y0164365D01*
X0241476Y0166647D01*
G37*
G36*
X0237932Y0170191D02*
X0239936Y0172195D01*
X0242218Y0169913D01*
X0240214Y0167909D01*
X0237932Y0170191D01*
G37*
G36*
X0238900Y0173484D02*
X0236896Y0171480D01*
X0234614Y0173762D01*
X0236618Y0175766D01*
X0238900Y0173484D01*
G37*
G36*
X0240716Y0172975D02*
X0242720Y0174979D01*
X0245002Y0172697D01*
X0242998Y0170693D01*
X0240716Y0172975D01*
G37*
G36*
X0245368Y0178180D02*
X0243364Y0176176D01*
X0241082Y0178458D01*
X0243086Y0180462D01*
X0245368Y0178180D01*
G37*
G36*
X0236116Y0170700D02*
X0234112Y0168696D01*
X0231830Y0170978D01*
X0233834Y0172982D01*
X0236116Y0170700D01*
G37*
G36*
X0239821Y0163167D02*
X0241825Y0161163D01*
X0239543Y0158881D01*
X0237539Y0160885D01*
X0239821Y0163167D01*
G37*
G36*
X0245019Y0163104D02*
X0247023Y0165108D01*
X0249305Y0162826D01*
X0247301Y0160822D01*
X0245019Y0163104D01*
G37*
G36*
X0247803Y0165888D02*
X0249807Y0167892D01*
X0252089Y0165610D01*
X0250085Y0163606D01*
X0247803Y0165888D01*
G37*
G36*
X0242605Y0160384D02*
X0244609Y0158380D01*
X0242327Y0156098D01*
X0240323Y0158102D01*
X0242605Y0160384D01*
G37*
G36*
X0250451Y0152931D02*
X0252455Y0150927D01*
X0250173Y0148645D01*
X0248169Y0150649D01*
X0250451Y0152931D01*
G37*
G36*
X0253234Y0150147D02*
X0255238Y0148143D01*
X0252956Y0145861D01*
X0250952Y0147865D01*
X0253234Y0150147D01*
G37*
X0269026Y0154121D03*
X0272963Y0154121D03*
G36*
X0240805Y0135412D02*
X0242809Y0133408D01*
X0240527Y0131126D01*
X0238523Y0133130D01*
X0240805Y0135412D01*
G37*
G36*
X0237093Y0139911D02*
X0239097Y0137907D01*
X0236815Y0135625D01*
X0234811Y0137629D01*
X0237093Y0139911D01*
G37*
G36*
X0234309Y0142695D02*
X0236313Y0140691D01*
X0234031Y0138409D01*
X0232027Y0140413D01*
X0234309Y0142695D01*
G37*
G36*
X0231159Y0139545D02*
X0233163Y0137541D01*
X0230881Y0135259D01*
X0228877Y0137263D01*
X0231159Y0139545D01*
G37*
G36*
X0228153Y0137987D02*
X0226149Y0139991D01*
X0228431Y0142273D01*
X0230435Y0140269D01*
X0228153Y0137987D01*
G37*
G36*
X0225369Y0140771D02*
X0223365Y0142775D01*
X0225647Y0145057D01*
X0227651Y0143053D01*
X0225369Y0140771D01*
G37*
G36*
X0222920Y0147785D02*
X0224924Y0145781D01*
X0222642Y0143499D01*
X0220638Y0145503D01*
X0222920Y0147785D01*
G37*
G36*
X0220136Y0150569D02*
X0222140Y0148565D01*
X0219858Y0146283D01*
X0217854Y0148287D01*
X0220136Y0150569D01*
G37*
G36*
X0223007Y0149433D02*
X0221003Y0151437D01*
X0223285Y0153719D01*
X0225289Y0151715D01*
X0223007Y0149433D01*
G37*
G36*
X0225791Y0146649D02*
X0223787Y0148653D01*
X0226069Y0150935D01*
X0228073Y0148931D01*
X0225791Y0146649D01*
G37*
G36*
X0212342Y0154049D02*
X0214346Y0156053D01*
X0216628Y0153771D01*
X0214624Y0151767D01*
X0212342Y0154049D01*
G37*
G36*
X0215126Y0156833D02*
X0217130Y0158837D01*
X0219412Y0156555D01*
X0217408Y0154551D01*
X0215126Y0156833D01*
G37*
G36*
X0203315Y0142660D02*
X0205319Y0144664D01*
X0207601Y0142382D01*
X0205597Y0140378D01*
X0203315Y0142660D01*
G37*
G36*
X0200531Y0139876D02*
X0202535Y0141880D01*
X0204817Y0139598D01*
X0202813Y0137594D01*
X0200531Y0139876D01*
G37*
G36*
X0213872Y0134873D02*
X0211868Y0132869D01*
X0209586Y0135151D01*
X0211590Y0137155D01*
X0213872Y0134873D01*
G37*
G36*
X0216656Y0137657D02*
X0214652Y0135653D01*
X0212370Y0137935D01*
X0214374Y0139939D01*
X0216656Y0137657D01*
G37*
G36*
X0221380Y0123484D02*
X0219376Y0121480D01*
X0217094Y0123762D01*
X0219098Y0125766D01*
X0221380Y0123484D01*
G37*
G36*
X0218596Y0120700D02*
X0216592Y0118696D01*
X0214310Y0120978D01*
X0216314Y0122982D01*
X0218596Y0120700D01*
G37*
X0232806Y0121837D03*
X0236743Y0121837D03*
X0236743Y0126562D03*
X0232806Y0126562D03*
G36*
X0243589Y0132628D02*
X0245593Y0130624D01*
X0243311Y0128342D01*
X0241307Y0130346D01*
X0243589Y0132628D01*
G37*
G36*
X0233943Y0136762D02*
X0235947Y0134758D01*
X0233665Y0132476D01*
X0231661Y0134480D01*
X0233943Y0136762D01*
G37*
X0252885Y0086601D03*
X0256822Y0086601D03*
X0256822Y0081877D03*
X0252885Y0081877D03*
X0158003Y0126955D03*
X0154066Y0126955D03*
X0304459Y0209829D03*
X0308396Y0209829D03*
X0296585Y0233648D03*
X0292648Y0233648D03*
X0291270Y0251562D03*
X0287333Y0251562D03*
X0283396Y0251562D03*
X0283396Y0256286D03*
X0287333Y0256286D03*
X0291270Y0256286D03*
X0295207Y0256286D03*
X0295207Y0251562D03*
X0305641Y0264751D03*
X0309578Y0264751D03*
X0309578Y0269475D03*
X0305641Y0269475D03*
X0305641Y0274199D03*
X0309578Y0274199D03*
X0342255Y0271640D03*
X0346192Y0271640D03*
X0382019Y0285223D03*
X0385956Y0285223D03*
X0448554Y0293885D03*
X0452491Y0293885D03*
X0496389Y0254711D03*
X0500326Y0254711D03*
X0499932Y0214554D03*
X0495995Y0214554D03*
X0490877Y0214554D03*
X0486940Y0214554D03*
X0486940Y0209829D03*
X0490877Y0209829D03*
X0495995Y0209829D03*
X0499932Y0209829D03*
X0519026Y0187192D03*
X0522963Y0187192D03*
X0522963Y0182467D03*
X0519026Y0182467D03*
X0519026Y0177743D03*
X0522963Y0177743D03*
X0522963Y0173018D03*
X0519026Y0173018D03*
X0519026Y0168294D03*
X0522963Y0168294D03*
X0522963Y0163570D03*
X0519026Y0163570D03*
X0519026Y0158845D03*
X0522963Y0158845D03*
X0522963Y0154121D03*
X0526507Y0154121D03*
X0530444Y0154121D03*
X0530444Y0149396D03*
X0526507Y0149396D03*
X0522963Y0149396D03*
X0519026Y0149396D03*
X0519026Y0154121D03*
X0519420Y0143491D03*
X0523357Y0143491D03*
X0523357Y0138766D03*
X0519420Y0138766D03*
X0519420Y0134042D03*
X0523357Y0134042D03*
X0523357Y0129318D03*
X0527294Y0129318D03*
X0522963Y0119475D03*
X0519026Y0119475D03*
X0519026Y0114751D03*
X0522963Y0114751D03*
X0522963Y0110026D03*
X0526507Y0110026D03*
X0530444Y0110026D03*
X0530444Y0105302D03*
X0526507Y0105302D03*
X0522963Y0105302D03*
X0519026Y0105302D03*
X0519026Y0110026D03*
X0483200Y0110026D03*
X0479263Y0110026D03*
X0475719Y0110026D03*
X0471782Y0110026D03*
X0471782Y0105302D03*
X0475719Y0105302D03*
X0479263Y0105302D03*
X0483200Y0105302D03*
X0483200Y0114751D03*
X0479263Y0114751D03*
X0479263Y0119475D03*
X0483200Y0119475D03*
X0483200Y0124199D03*
X0479263Y0124199D03*
X0479263Y0128924D03*
X0475719Y0128924D03*
X0471782Y0128924D03*
X0479263Y0133648D03*
X0483200Y0133648D03*
X0483200Y0128924D03*
X0483200Y0138373D03*
X0479263Y0138373D03*
X0475719Y0138373D03*
X0471782Y0138373D03*
X0471782Y0149396D03*
X0475719Y0149396D03*
X0479263Y0149396D03*
X0483200Y0149396D03*
X0483200Y0154121D03*
X0479263Y0154121D03*
X0475719Y0154121D03*
X0471782Y0154121D03*
X0466074Y0149396D03*
X0462137Y0149396D03*
X0463121Y0154121D03*
X0459184Y0154121D03*
X0455641Y0154121D03*
X0451704Y0154121D03*
X0451704Y0158845D03*
X0455641Y0158845D03*
X0455641Y0163570D03*
X0451704Y0163570D03*
X0451704Y0168294D03*
X0455641Y0168294D03*
X0455641Y0173018D03*
X0451704Y0173018D03*
X0451704Y0177743D03*
X0455641Y0177743D03*
X0455641Y0182467D03*
X0451704Y0182467D03*
X0451704Y0187192D03*
X0455641Y0187192D03*
X0471782Y0182467D03*
X0475719Y0182467D03*
X0479263Y0182467D03*
X0483200Y0182467D03*
X0483200Y0177743D03*
X0479263Y0177743D03*
X0479263Y0173018D03*
X0475719Y0173018D03*
X0471782Y0173018D03*
X0479263Y0168294D03*
X0483200Y0168294D03*
X0483200Y0173018D03*
X0483200Y0163570D03*
X0479263Y0163570D03*
X0479263Y0158845D03*
X0483200Y0158845D03*
X0498948Y0139751D03*
X0502885Y0139751D03*
X0463121Y0114751D03*
X0459184Y0114751D03*
X0455641Y0114751D03*
X0451704Y0114751D03*
X0451704Y0110026D03*
X0455641Y0110026D03*
X0455641Y0105302D03*
X0459184Y0105302D03*
X0463121Y0105302D03*
X0451704Y0105302D03*
X0451704Y0119475D03*
X0455641Y0119475D03*
X0455641Y0124199D03*
X0451704Y0124199D03*
X0451704Y0128924D03*
X0455641Y0128924D03*
X0455641Y0133648D03*
X0451704Y0133648D03*
X0451704Y0138373D03*
X0455641Y0138373D03*
X0455641Y0143885D03*
X0451704Y0143885D03*
X0451704Y0149396D03*
X0455641Y0149396D03*
X0435956Y0139751D03*
X0432019Y0139751D03*
X0416270Y0138373D03*
X0412333Y0138373D03*
X0408790Y0138373D03*
X0404853Y0138373D03*
X0412333Y0133648D03*
X0416270Y0133648D03*
X0416270Y0128924D03*
X0412333Y0128924D03*
X0408790Y0128924D03*
X0404853Y0128924D03*
X0412333Y0124199D03*
X0416270Y0124199D03*
X0416270Y0119475D03*
X0412333Y0119475D03*
X0412333Y0114751D03*
X0416270Y0114751D03*
X0416270Y0110026D03*
X0412333Y0110026D03*
X0408396Y0110026D03*
X0404459Y0110026D03*
X0404459Y0105302D03*
X0408396Y0105302D03*
X0412333Y0105302D03*
X0416270Y0105302D03*
X0372963Y0133451D03*
X0369026Y0133451D03*
X0369026Y0138176D03*
X0372963Y0138176D03*
X0359184Y0128136D03*
X0355247Y0128136D03*
X0356822Y0152940D03*
X0360759Y0152940D03*
X0404853Y0154121D03*
X0408790Y0154121D03*
X0412333Y0154121D03*
X0416270Y0154121D03*
X0416270Y0158845D03*
X0412333Y0158845D03*
X0412333Y0163570D03*
X0416270Y0163570D03*
X0416270Y0168294D03*
X0412333Y0168294D03*
X0412333Y0173018D03*
X0408790Y0173018D03*
X0404853Y0173018D03*
X0412333Y0177743D03*
X0416270Y0177743D03*
X0416270Y0182467D03*
X0412333Y0182467D03*
X0408790Y0182467D03*
X0404853Y0182467D03*
X0416270Y0173018D03*
X0432019Y0183845D03*
X0435956Y0183845D03*
X0416270Y0149396D03*
X0412333Y0149396D03*
X0408790Y0149396D03*
X0404853Y0149396D03*
X0498554Y0183845D03*
X0502491Y0183845D03*
X0150916Y0330499D03*
X0146979Y0330499D03*
X0128081Y0324396D03*
X0124144Y0324396D03*
X0118239Y0323018D03*
X0114302Y0323018D03*
X0134184Y0353924D03*
X0138121Y0353924D03*
X0138121Y0358648D03*
X0134184Y0358648D03*
X0083593Y0358058D03*
X0079656Y0358058D03*
D11*
X0107097Y0357889D02*
X0111270Y0357889D01*
X0111270Y0358766D02*
X0107097Y0358766D01*
X0107097Y0355774D01*
X0111270Y0355774D01*
X0111270Y0358766D01*
X0111270Y0355844D02*
X0107097Y0355844D01*
X0115562Y0355844D02*
X0119735Y0355844D01*
X0119735Y0355774D02*
X0115562Y0355774D01*
X0115562Y0358766D01*
X0119735Y0358766D01*
X0119735Y0355774D01*
X0119735Y0357889D02*
X0115562Y0357889D01*
X0115562Y0362861D02*
X0119735Y0362861D01*
X0119735Y0365853D01*
X0115562Y0365853D01*
X0115562Y0362861D01*
X0115562Y0364027D02*
X0119735Y0364027D01*
X0111270Y0364027D02*
X0107097Y0364027D01*
X0107097Y0362861D02*
X0111270Y0362861D01*
X0111270Y0365853D01*
X0107097Y0365853D01*
X0107097Y0362861D01*
X0108475Y0347546D02*
X0108475Y0343373D01*
X0111467Y0343373D01*
X0111467Y0347546D01*
X0108475Y0347546D01*
X0108475Y0345615D02*
X0111467Y0345615D01*
X0111467Y0343569D02*
X0108475Y0343569D01*
X0115562Y0343569D02*
X0118554Y0343569D01*
X0118554Y0343373D02*
X0118554Y0347546D01*
X0115562Y0347546D01*
X0115562Y0343373D01*
X0118554Y0343373D01*
X0118554Y0345615D02*
X0115562Y0345615D01*
X0141940Y0326483D02*
X0141940Y0322310D01*
X0144932Y0322310D01*
X0144932Y0326483D01*
X0141940Y0326483D01*
X0141940Y0325157D02*
X0144932Y0325157D01*
X0144932Y0323112D02*
X0141940Y0323112D01*
X0149026Y0323112D02*
X0152019Y0323112D01*
X0152019Y0322310D02*
X0152019Y0326483D01*
X0149026Y0326483D01*
X0149026Y0322310D01*
X0152019Y0322310D01*
X0152019Y0325157D02*
X0149026Y0325157D01*
X0167881Y0358431D02*
X0169440Y0359990D01*
X0168327Y0361104D01*
X0166768Y0359545D01*
X0167881Y0358431D01*
X0167158Y0359935D02*
X0169385Y0359935D01*
X0164986Y0364445D02*
X0163427Y0362886D01*
X0162313Y0363999D01*
X0163872Y0365558D01*
X0164986Y0364445D01*
X0164568Y0364027D02*
X0162341Y0364027D01*
X0296861Y0289081D02*
X0301034Y0289081D01*
X0301034Y0286089D01*
X0296861Y0286089D01*
X0296861Y0289081D01*
X0296861Y0288334D02*
X0301034Y0288334D01*
X0301034Y0286288D02*
X0296861Y0286288D01*
X0296861Y0281995D02*
X0301034Y0281995D01*
X0301034Y0279003D01*
X0296861Y0279003D01*
X0296861Y0281995D01*
X0296861Y0280151D02*
X0301034Y0280151D01*
X0305129Y0280151D02*
X0309302Y0280151D01*
X0309302Y0279003D02*
X0309302Y0281995D01*
X0305129Y0281995D01*
X0305129Y0279003D01*
X0309302Y0279003D01*
X0309302Y0286089D02*
X0309302Y0289081D01*
X0305129Y0289081D01*
X0305129Y0286089D01*
X0309302Y0286089D01*
X0309302Y0286288D02*
X0305129Y0286288D01*
X0305129Y0288334D02*
X0309302Y0288334D01*
X0340562Y0288451D02*
X0344735Y0288451D01*
X0344735Y0291444D01*
X0340562Y0291444D01*
X0340562Y0288451D01*
X0340562Y0290379D02*
X0344735Y0290379D01*
X0348436Y0290379D02*
X0352609Y0290379D01*
X0352609Y0291444D02*
X0348436Y0291444D01*
X0348436Y0288451D01*
X0352609Y0288451D01*
X0352609Y0291444D01*
X0352609Y0284357D02*
X0348436Y0284357D01*
X0348436Y0281365D01*
X0352609Y0281365D01*
X0352609Y0284357D01*
X0352609Y0284242D02*
X0348436Y0284242D01*
X0348436Y0282196D02*
X0352609Y0282196D01*
X0344735Y0282196D02*
X0340562Y0282196D01*
X0340562Y0281365D02*
X0340562Y0284357D01*
X0344735Y0284357D01*
X0344735Y0281365D01*
X0340562Y0281365D01*
X0340562Y0284242D02*
X0344735Y0284242D01*
X0320326Y0246759D02*
X0316152Y0246759D01*
X0316152Y0243766D01*
X0320326Y0243766D01*
X0320326Y0246759D01*
X0320326Y0245373D02*
X0316152Y0245373D01*
X0312452Y0245373D02*
X0308278Y0245373D01*
X0308278Y0246759D02*
X0308278Y0243766D01*
X0312452Y0243766D01*
X0312452Y0246759D01*
X0308278Y0246759D01*
X0308278Y0239672D02*
X0312452Y0239672D01*
X0312452Y0236680D01*
X0308278Y0236680D01*
X0308278Y0239672D01*
X0308278Y0239236D02*
X0312452Y0239236D01*
X0312452Y0237190D02*
X0308278Y0237190D01*
X0316152Y0237190D02*
X0320326Y0237190D01*
X0320326Y0236680D02*
X0320326Y0239672D01*
X0316152Y0239672D01*
X0316152Y0236680D01*
X0320326Y0236680D01*
X0320326Y0239236D02*
X0316152Y0239236D01*
X0271507Y0247113D02*
X0271507Y0250105D01*
X0267333Y0250105D01*
X0267333Y0247113D01*
X0271507Y0247113D01*
X0271507Y0247419D02*
X0267333Y0247419D01*
X0267333Y0249464D02*
X0271507Y0249464D01*
X0271507Y0254199D02*
X0267333Y0254199D01*
X0267333Y0257192D01*
X0271507Y0257192D01*
X0271507Y0254199D01*
X0271507Y0255602D02*
X0267333Y0255602D01*
X0264814Y0255602D02*
X0260641Y0255602D01*
X0260641Y0254199D02*
X0260641Y0257192D01*
X0264814Y0257192D01*
X0264814Y0254199D01*
X0260641Y0254199D01*
X0260641Y0250105D02*
X0264814Y0250105D01*
X0264814Y0247113D01*
X0260641Y0247113D01*
X0260641Y0250105D01*
X0260641Y0249464D02*
X0264814Y0249464D01*
X0264814Y0247419D02*
X0260641Y0247419D01*
X0211861Y0262664D02*
X0211861Y0266837D01*
X0208869Y0266837D01*
X0208869Y0262664D01*
X0211861Y0262664D01*
X0211861Y0263785D02*
X0208869Y0263785D01*
X0208869Y0265830D02*
X0211861Y0265830D01*
X0204774Y0265830D02*
X0201782Y0265830D01*
X0201782Y0266837D02*
X0201782Y0262664D01*
X0204774Y0262664D01*
X0204774Y0266837D01*
X0201782Y0266837D01*
X0201782Y0263785D02*
X0204774Y0263785D01*
X0283081Y0204436D02*
X0287255Y0204436D01*
X0287255Y0201444D01*
X0283081Y0201444D01*
X0283081Y0204436D01*
X0283081Y0202412D02*
X0287255Y0202412D01*
X0287255Y0197349D02*
X0283081Y0197349D01*
X0283081Y0194357D01*
X0287255Y0194357D01*
X0287255Y0197349D01*
X0287255Y0196275D02*
X0283081Y0196275D01*
X0260286Y0175500D02*
X0257335Y0178451D01*
X0255219Y0176335D01*
X0258170Y0173384D01*
X0260286Y0175500D01*
X0259969Y0175817D02*
X0255737Y0175817D01*
X0256747Y0177863D02*
X0257923Y0177863D01*
X0257783Y0173771D02*
X0258557Y0173771D01*
X0255275Y0170489D02*
X0252324Y0173440D01*
X0250208Y0171324D01*
X0253159Y0168373D01*
X0255275Y0170489D01*
X0254466Y0169680D02*
X0251852Y0169680D01*
X0250609Y0171726D02*
X0254038Y0171726D01*
X0318515Y0193176D02*
X0322688Y0193176D01*
X0322688Y0196168D01*
X0318515Y0196168D01*
X0318515Y0193176D01*
X0318515Y0194229D02*
X0322688Y0194229D01*
X0322688Y0200262D02*
X0322688Y0203255D01*
X0318515Y0203255D01*
X0318515Y0200262D01*
X0322688Y0200262D01*
X0322688Y0200366D02*
X0318515Y0200366D01*
X0318515Y0202412D02*
X0322688Y0202412D01*
X0354538Y0161719D02*
X0354538Y0157546D01*
X0357530Y0157546D01*
X0357530Y0161719D01*
X0354538Y0161719D01*
X0354538Y0161497D02*
X0357530Y0161497D01*
X0357530Y0159451D02*
X0354538Y0159451D01*
X0361625Y0159451D02*
X0364617Y0159451D01*
X0364617Y0157546D02*
X0364617Y0161719D01*
X0361625Y0161719D01*
X0361625Y0157546D01*
X0364617Y0157546D01*
X0364617Y0161497D02*
X0361625Y0161497D01*
X0362255Y0123136D02*
X0359263Y0123136D01*
X0359263Y0118963D01*
X0362255Y0118963D01*
X0362255Y0123136D01*
X0362255Y0122627D02*
X0359263Y0122627D01*
X0359263Y0120582D02*
X0362255Y0120582D01*
X0355168Y0120582D02*
X0352176Y0120582D01*
X0352176Y0118963D02*
X0352176Y0123136D01*
X0355168Y0123136D01*
X0355168Y0118963D01*
X0352176Y0118963D01*
X0352176Y0122627D02*
X0355168Y0122627D01*
X0355168Y0114869D02*
X0352176Y0114869D01*
X0352176Y0110696D01*
X0355168Y0110696D01*
X0355168Y0114869D01*
X0355168Y0114444D02*
X0352176Y0114444D01*
X0352176Y0112399D02*
X0355168Y0112399D01*
X0359263Y0112399D02*
X0362255Y0112399D01*
X0362255Y0110696D02*
X0362255Y0114869D01*
X0359263Y0114869D01*
X0359263Y0110696D01*
X0362255Y0110696D01*
X0362255Y0114444D02*
X0359263Y0114444D01*
X0159499Y0118077D02*
X0159499Y0122251D01*
X0156507Y0122251D01*
X0156507Y0118077D01*
X0159499Y0118077D01*
X0159499Y0118536D02*
X0156507Y0118536D01*
X0156507Y0120582D02*
X0159499Y0120582D01*
X0152412Y0120582D02*
X0149420Y0120582D01*
X0149420Y0122251D02*
X0149420Y0118077D01*
X0152412Y0118077D01*
X0152412Y0122251D01*
X0149420Y0122251D01*
X0149420Y0118536D02*
X0152412Y0118536D01*
X0100641Y0214436D02*
X0096467Y0214436D01*
X0096467Y0217428D01*
X0100641Y0217428D01*
X0100641Y0214436D01*
X0100641Y0214686D02*
X0096467Y0214686D01*
X0096467Y0216732D02*
X0100641Y0216732D01*
X0100641Y0221522D02*
X0096467Y0221522D01*
X0096467Y0224514D01*
X0100641Y0224514D01*
X0100641Y0221522D01*
X0100641Y0222870D02*
X0096467Y0222870D01*
D12*
X0105247Y0221050D03*
X0105247Y0217113D03*
X0089105Y0297822D03*
X0089105Y0301759D03*
X0078869Y0301759D03*
X0078869Y0297822D03*
X0073751Y0297822D03*
X0073751Y0301759D03*
X0068633Y0301759D03*
X0068633Y0297822D03*
X0063515Y0297822D03*
X0063515Y0301759D03*
X0109971Y0333648D03*
X0109971Y0337585D03*
X0131625Y0335223D03*
X0131625Y0331286D03*
X0136349Y0331286D03*
X0136349Y0335223D03*
X0142452Y0337388D03*
X0142452Y0341325D03*
X0138121Y0345853D03*
X0138121Y0349790D03*
X0147767Y0359633D03*
X0147767Y0363570D03*
X0152491Y0363570D03*
X0152491Y0359633D03*
X0157215Y0359633D03*
X0157215Y0363570D03*
X0134381Y0363570D03*
X0134381Y0367507D03*
X0131034Y0374790D03*
X0131034Y0378727D03*
X0123160Y0378727D03*
X0123160Y0374790D03*
X0102491Y0373412D03*
X0102491Y0377349D03*
X0134184Y0324790D03*
X0134184Y0320853D03*
X0132412Y0312585D03*
X0132412Y0308648D03*
X0127688Y0308648D03*
X0127688Y0312585D03*
X0191467Y0362782D03*
X0191467Y0366719D03*
X0196192Y0366719D03*
X0196192Y0362782D03*
X0197767Y0379318D03*
X0197767Y0383255D03*
X0193042Y0383255D03*
X0193042Y0379318D03*
X0225719Y0299396D03*
X0225719Y0295459D03*
X0231231Y0295459D03*
X0231231Y0299396D03*
X0275719Y0251955D03*
X0275719Y0248018D03*
X0303278Y0242703D03*
X0303278Y0238766D03*
X0335956Y0263570D03*
X0335956Y0267507D03*
X0335956Y0271444D03*
X0335956Y0275381D03*
X0336743Y0282861D03*
X0336743Y0286798D03*
X0313908Y0285223D03*
X0313908Y0281286D03*
X0340680Y0267507D03*
X0340680Y0263570D03*
X0402097Y0282073D03*
X0402097Y0286010D03*
X0411940Y0309239D03*
X0411940Y0313176D03*
X0427688Y0313176D03*
X0427688Y0309239D03*
X0443436Y0309239D03*
X0443436Y0313176D03*
X0459184Y0311601D03*
X0459184Y0307664D03*
X0545404Y0343688D03*
X0545404Y0347625D03*
X0404853Y0373609D03*
X0404853Y0377546D03*
X0400129Y0377546D03*
X0400129Y0373609D03*
X0395404Y0373609D03*
X0395404Y0377546D03*
X0370601Y0319475D03*
X0370601Y0315538D03*
X0370601Y0310420D03*
X0370601Y0306483D03*
X0479066Y0241325D03*
X0479066Y0237388D03*
X0478869Y0232467D03*
X0478869Y0228530D03*
X0495995Y0246050D03*
X0495995Y0249987D03*
X0500719Y0249987D03*
X0500719Y0246050D03*
X0527294Y0182073D03*
X0527294Y0178136D03*
X0459971Y0178136D03*
X0459971Y0182073D03*
X0404853Y0162388D03*
X0404853Y0158451D03*
X0460168Y0134042D03*
X0460168Y0130105D03*
X0384381Y0098215D03*
X0384381Y0094278D03*
X0379656Y0094278D03*
X0379656Y0098215D03*
X0374932Y0098215D03*
X0374932Y0094278D03*
X0370207Y0094278D03*
X0370207Y0098215D03*
X0345798Y0142310D03*
X0345798Y0146247D03*
X0300719Y0109042D03*
X0300719Y0105105D03*
X0257019Y0106680D03*
X0257019Y0110617D03*
X0207019Y0118491D03*
X0207019Y0122428D03*
X0120601Y0110814D03*
X0120601Y0106877D03*
X0082412Y0106877D03*
X0082412Y0110814D03*
X0082412Y0101365D03*
X0082412Y0097428D03*
X0291074Y0197428D03*
X0291074Y0201365D03*
X0314499Y0200184D03*
X0314499Y0196247D03*
D13*
X0321389Y0266729D03*
X0369814Y0299603D03*
X0385956Y0299603D03*
X0402097Y0299603D03*
X0467058Y0293678D03*
X0200719Y0120056D03*
D14*
X0200700Y0127566D03*
X0321408Y0259219D03*
X0369833Y0292093D03*
X0385975Y0292093D03*
X0402117Y0292093D03*
X0467038Y0301188D03*
D15*
X0459174Y0297428D03*
X0409981Y0295853D03*
X0393839Y0295853D03*
X0377698Y0295853D03*
X0329272Y0262979D03*
X0192835Y0123806D03*
D16*
X0065365Y0310518D03*
D17*
X0056893Y0349534D03*
D18*
X0102562Y0319613D03*
D19*
X0055515Y0317054D03*
D20*
X0066538Y0350026D03*
X0070869Y0350026D03*
X0075200Y0350026D03*
X0079530Y0350026D03*
X0083861Y0350026D03*
X0088192Y0350026D03*
X0092522Y0350026D03*
X0096853Y0350026D03*
D21*
X0101184Y0313707D03*
D22*
X0057089Y0307507D03*
D23*
X0150089Y0384436D03*
X0177727Y0384436D03*
D24*
X0173456Y0372625D03*
X0154361Y0372625D03*
D25*
X0158790Y0373904D03*
X0161349Y0373904D03*
X0163908Y0373904D03*
X0166467Y0373904D03*
X0169026Y0373904D03*
D26*
X0026113Y0041916D03*
X0026113Y0368688D03*
X0569420Y0368688D03*
X0569420Y0041916D03*
D27*
X0111152Y0101345D03*
X0111152Y0106345D03*
X0111152Y0111345D03*
X0111152Y0116345D03*
X0090680Y0116345D03*
X0090680Y0111345D03*
X0090680Y0106345D03*
X0090680Y0101345D03*
D28*
G36*
X0216465Y0124725D02*
X0213116Y0121376D01*
X0207541Y0126951D01*
X0210890Y0130300D01*
X0216465Y0124725D01*
G37*
G36*
X0223425Y0131684D02*
X0220076Y0128335D01*
X0214501Y0133910D01*
X0217850Y0137259D01*
X0223425Y0131684D01*
G37*
D29*
X0423357Y0129475D03*
X0423357Y0124475D03*
X0423357Y0119475D03*
X0423357Y0114475D03*
X0423357Y0109475D03*
X0423357Y0104475D03*
X0444617Y0104475D03*
X0444617Y0109475D03*
X0444617Y0114475D03*
X0444617Y0119475D03*
X0444617Y0124475D03*
X0444617Y0129475D03*
X0444617Y0134475D03*
X0423357Y0134475D03*
X0423357Y0148570D03*
X0423357Y0153570D03*
X0423357Y0158570D03*
X0423357Y0163570D03*
X0423357Y0168570D03*
X0423357Y0173570D03*
X0423357Y0178570D03*
X0444617Y0178570D03*
X0444617Y0173570D03*
X0444617Y0168570D03*
X0444617Y0163570D03*
X0444617Y0158570D03*
X0444617Y0153570D03*
X0444617Y0148570D03*
X0490286Y0148570D03*
X0490286Y0153570D03*
X0490286Y0158570D03*
X0490286Y0163570D03*
X0490286Y0168570D03*
X0490286Y0173570D03*
X0490286Y0178570D03*
X0511546Y0178570D03*
X0511546Y0173570D03*
X0511546Y0168570D03*
X0511546Y0163570D03*
X0511546Y0158570D03*
X0511546Y0153570D03*
X0511546Y0148570D03*
X0511546Y0134475D03*
X0511546Y0129475D03*
X0511546Y0124475D03*
X0511546Y0119475D03*
X0511546Y0114475D03*
X0511546Y0109475D03*
X0511546Y0104475D03*
X0490286Y0104475D03*
X0490286Y0109475D03*
X0490286Y0114475D03*
X0490286Y0119475D03*
X0490286Y0124475D03*
X0490286Y0129475D03*
X0490286Y0134475D03*
D30*
X0332333Y0274593D02*
X0330011Y0274593D01*
X0330011Y0276562D02*
X0332333Y0276562D01*
X0332333Y0278530D02*
X0330011Y0278530D01*
X0330011Y0280499D02*
X0332333Y0280499D01*
X0332333Y0282467D02*
X0330011Y0282467D01*
X0320641Y0282467D02*
X0318318Y0282467D01*
X0318318Y0280499D02*
X0320641Y0280499D01*
X0320641Y0278530D02*
X0318318Y0278530D01*
X0318318Y0276562D02*
X0320641Y0276562D01*
X0320641Y0274593D02*
X0318318Y0274593D01*
X0171585Y0336207D02*
X0169617Y0336207D01*
X0169617Y0338176D02*
X0171585Y0338176D01*
X0171585Y0340144D02*
X0169617Y0340144D01*
X0169617Y0342113D02*
X0171585Y0342113D01*
X0171585Y0344081D02*
X0169617Y0344081D01*
X0169617Y0346050D02*
X0171585Y0346050D01*
X0171585Y0348018D02*
X0169617Y0348018D01*
X0169617Y0349987D02*
X0171585Y0349987D01*
X0168042Y0351562D02*
X0168042Y0353530D01*
X0166074Y0353530D02*
X0166074Y0351562D01*
X0164105Y0351562D02*
X0164105Y0353530D01*
X0162137Y0353530D02*
X0162137Y0351562D01*
X0160168Y0351562D02*
X0160168Y0353530D01*
X0158200Y0353530D02*
X0158200Y0351562D01*
X0156231Y0351562D02*
X0156231Y0353530D01*
X0154263Y0353530D02*
X0154263Y0351562D01*
X0152688Y0349987D02*
X0150719Y0349987D01*
X0150719Y0348018D02*
X0152688Y0348018D01*
X0152688Y0346050D02*
X0150719Y0346050D01*
X0150719Y0344081D02*
X0152688Y0344081D01*
X0152688Y0342113D02*
X0150719Y0342113D01*
X0150719Y0340144D02*
X0152688Y0340144D01*
X0152688Y0338176D02*
X0150719Y0338176D01*
X0150719Y0336207D02*
X0152688Y0336207D01*
X0154263Y0334633D02*
X0154263Y0332664D01*
X0156231Y0332664D02*
X0156231Y0334633D01*
X0158200Y0334633D02*
X0158200Y0332664D01*
X0160168Y0332664D02*
X0160168Y0334633D01*
X0162137Y0334633D02*
X0162137Y0332664D01*
X0164105Y0332664D02*
X0164105Y0334633D01*
X0166074Y0334633D02*
X0166074Y0332664D01*
X0168042Y0332664D02*
X0168042Y0334633D01*
D31*
X0168042Y0332270D03*
X0166074Y0332270D03*
X0164105Y0332270D03*
X0162137Y0332270D03*
X0160168Y0332270D03*
X0158200Y0332270D03*
X0156231Y0332270D03*
X0154263Y0332270D03*
X0154263Y0353924D03*
X0156231Y0353924D03*
X0158200Y0353924D03*
X0160168Y0353924D03*
X0162137Y0353924D03*
X0164105Y0353924D03*
X0166074Y0353924D03*
X0168042Y0353924D03*
D32*
X0171979Y0349987D03*
X0171979Y0348018D03*
X0171979Y0346050D03*
X0171979Y0344081D03*
X0171979Y0342113D03*
X0171979Y0340144D03*
X0171979Y0338176D03*
X0171979Y0336207D03*
X0150326Y0336207D03*
X0150326Y0338176D03*
X0150326Y0340144D03*
X0150326Y0342113D03*
X0150326Y0344081D03*
X0150326Y0346050D03*
X0150326Y0348018D03*
X0150326Y0349987D03*
D33*
X0154573Y0348640D02*
X0154538Y0348333D01*
X0154538Y0337861D01*
X0154573Y0337554D01*
X0154675Y0337263D01*
X0154839Y0337002D01*
X0155057Y0336784D01*
X0155318Y0336619D01*
X0155610Y0336517D01*
X0155916Y0336483D01*
X0166389Y0336483D01*
X0166695Y0336517D01*
X0166986Y0336619D01*
X0167248Y0336784D01*
X0167466Y0337002D01*
X0167630Y0337263D01*
X0167732Y0337554D01*
X0167767Y0337861D01*
X0167767Y0348333D01*
X0167732Y0348640D01*
X0167630Y0348931D01*
X0167466Y0349192D01*
X0167248Y0349411D01*
X0166986Y0349575D01*
X0166695Y0349677D01*
X0166389Y0349711D01*
X0155916Y0349711D01*
X0155610Y0349677D01*
X0155318Y0349575D01*
X0155057Y0349411D01*
X0154839Y0349192D01*
X0154675Y0348931D01*
X0154573Y0348640D01*
X0154561Y0348537D02*
X0167744Y0348537D01*
X0167767Y0348144D02*
X0154538Y0348144D01*
X0154538Y0347752D02*
X0167767Y0347752D01*
X0167767Y0347360D02*
X0154538Y0347360D01*
X0154538Y0346968D02*
X0167767Y0346968D01*
X0167767Y0346575D02*
X0154538Y0346575D01*
X0154538Y0346183D02*
X0167767Y0346183D01*
X0167767Y0345791D02*
X0154538Y0345791D01*
X0154538Y0345399D02*
X0167767Y0345399D01*
X0167767Y0345007D02*
X0154538Y0345007D01*
X0154538Y0344614D02*
X0167767Y0344614D01*
X0167767Y0344222D02*
X0154538Y0344222D01*
X0154538Y0343830D02*
X0167767Y0343830D01*
X0167767Y0343438D02*
X0154538Y0343438D01*
X0154538Y0343046D02*
X0167767Y0343046D01*
X0167767Y0342653D02*
X0154538Y0342653D01*
X0154538Y0342261D02*
X0167767Y0342261D01*
X0167767Y0341869D02*
X0154538Y0341869D01*
X0154538Y0341477D02*
X0167767Y0341477D01*
X0167767Y0341085D02*
X0154538Y0341085D01*
X0154538Y0340692D02*
X0167767Y0340692D01*
X0167767Y0340300D02*
X0154538Y0340300D01*
X0154538Y0339908D02*
X0167767Y0339908D01*
X0167767Y0339516D02*
X0154538Y0339516D01*
X0154538Y0339123D02*
X0167767Y0339123D01*
X0167767Y0338731D02*
X0154538Y0338731D01*
X0154538Y0338339D02*
X0167767Y0338339D01*
X0167767Y0337947D02*
X0154538Y0337947D01*
X0154573Y0337555D02*
X0167732Y0337555D01*
X0167567Y0337162D02*
X0154738Y0337162D01*
X0155078Y0336770D02*
X0167226Y0336770D01*
X0167631Y0348929D02*
X0154674Y0348929D01*
X0154967Y0349321D02*
X0167337Y0349321D01*
X0007589Y0260814D02*
X0007412Y0260991D01*
X0006920Y0260361D02*
X0006546Y0260735D01*
X0006625Y0260459D02*
X0006625Y0258648D01*
X0006526Y0258570D02*
X0006743Y0258570D01*
X0006920Y0258727D01*
X0006920Y0260361D01*
X0007688Y0258373D02*
X0007412Y0258097D01*
X0007412Y0256444D02*
X0007688Y0256168D01*
X0006920Y0255814D02*
X0006920Y0254180D01*
X0006546Y0253806D01*
X0006625Y0253963D02*
X0006625Y0255774D01*
X0006763Y0255971D02*
X0006920Y0255814D01*
X0006782Y0255971D02*
X0006467Y0255971D01*
X0007589Y0253727D02*
X0007412Y0253550D01*
X0007412Y0226345D02*
X0007589Y0226168D01*
X0006920Y0225715D02*
X0006546Y0226089D01*
X0006625Y0225814D02*
X0006625Y0224003D01*
X0006526Y0223924D02*
X0006743Y0223924D01*
X0006920Y0224081D01*
X0006920Y0225715D01*
X0007688Y0223727D02*
X0007412Y0223451D01*
X0007412Y0221798D02*
X0007688Y0221522D01*
X0006920Y0221168D02*
X0006920Y0219534D01*
X0006546Y0219160D01*
X0006625Y0219318D02*
X0006625Y0221129D01*
X0006763Y0221325D02*
X0006920Y0221168D01*
X0006782Y0221325D02*
X0006467Y0221325D01*
X0007589Y0219081D02*
X0007412Y0218904D01*
X0007412Y0196424D02*
X0007589Y0196247D01*
X0006920Y0195794D02*
X0006546Y0196168D01*
X0006625Y0195892D02*
X0006625Y0194081D01*
X0006526Y0194003D02*
X0006743Y0194003D01*
X0006920Y0194160D01*
X0006920Y0195794D01*
X0007688Y0193806D02*
X0007412Y0193530D01*
X0007412Y0191877D02*
X0007688Y0191601D01*
X0006920Y0191247D02*
X0006920Y0189613D01*
X0006546Y0189239D01*
X0006625Y0189396D02*
X0006625Y0191207D01*
X0006763Y0191404D02*
X0006920Y0191247D01*
X0006782Y0191404D02*
X0006467Y0191404D01*
X0007589Y0189160D02*
X0007412Y0188983D01*
X0007412Y0166306D02*
X0007589Y0166129D01*
X0006920Y0165676D02*
X0006546Y0166050D01*
X0006625Y0165774D02*
X0006625Y0163963D01*
X0006526Y0163885D02*
X0006743Y0163885D01*
X0006920Y0164042D01*
X0006920Y0165676D01*
X0007688Y0163688D02*
X0007412Y0163412D01*
X0007412Y0161759D02*
X0007688Y0161483D01*
X0006920Y0161129D02*
X0006920Y0159495D01*
X0006546Y0159121D01*
X0006625Y0159278D02*
X0006625Y0161089D01*
X0006763Y0161286D02*
X0006920Y0161129D01*
X0006782Y0161286D02*
X0006467Y0161286D01*
X0007589Y0159042D02*
X0007412Y0158865D01*
X0007412Y0136385D02*
X0007589Y0136207D01*
X0006920Y0135755D02*
X0006546Y0136129D01*
X0006625Y0135853D02*
X0006625Y0134042D01*
X0006526Y0133963D02*
X0006743Y0133963D01*
X0006920Y0134121D01*
X0006920Y0135755D01*
X0007688Y0133766D02*
X0007412Y0133491D01*
X0007412Y0131837D02*
X0007688Y0131562D01*
X0006920Y0131207D02*
X0006920Y0129573D01*
X0006546Y0129199D01*
X0006625Y0129357D02*
X0006625Y0131168D01*
X0006763Y0131365D02*
X0006920Y0131207D01*
X0006782Y0131365D02*
X0006467Y0131365D01*
X0007589Y0129121D02*
X0007412Y0128944D01*
X0007412Y0106266D02*
X0007589Y0106089D01*
X0006920Y0105636D02*
X0006546Y0106010D01*
X0006625Y0105735D02*
X0006625Y0103924D01*
X0006526Y0103845D02*
X0006743Y0103845D01*
X0006920Y0104003D01*
X0006920Y0105636D01*
X0007688Y0103648D02*
X0007412Y0103373D01*
X0007412Y0101719D02*
X0007688Y0101444D01*
X0006920Y0101089D02*
X0006920Y0099455D01*
X0006546Y0099081D01*
X0006625Y0099239D02*
X0006625Y0101050D01*
X0006763Y0101247D02*
X0006920Y0101089D01*
X0006782Y0101247D02*
X0006467Y0101247D01*
X0007589Y0099003D02*
X0007412Y0098825D01*
X0097983Y0023215D02*
X0098160Y0023392D01*
X0098613Y0022723D02*
X0098239Y0022349D01*
X0098515Y0022428D02*
X0100326Y0022428D01*
X0100404Y0022329D02*
X0100404Y0022546D01*
X0100247Y0022723D01*
X0098613Y0022723D01*
X0100601Y0023491D02*
X0100877Y0023215D01*
X0102530Y0023215D02*
X0102806Y0023491D01*
X0103160Y0022723D02*
X0104794Y0022723D01*
X0105168Y0022349D01*
X0105011Y0022428D02*
X0103200Y0022428D01*
X0103003Y0022566D02*
X0103160Y0022723D01*
X0103003Y0022585D02*
X0103003Y0022270D01*
X0105247Y0023392D02*
X0105424Y0023215D01*
X0133022Y0023215D02*
X0133200Y0023392D01*
X0133652Y0022723D02*
X0133278Y0022349D01*
X0133554Y0022428D02*
X0135365Y0022428D01*
X0135444Y0022329D02*
X0135444Y0022546D01*
X0135286Y0022723D01*
X0133652Y0022723D01*
X0135641Y0023491D02*
X0135916Y0023215D01*
X0137570Y0023215D02*
X0137845Y0023491D01*
X0138200Y0022723D02*
X0139833Y0022723D01*
X0140207Y0022349D01*
X0140050Y0022428D02*
X0138239Y0022428D01*
X0138042Y0022566D02*
X0138200Y0022723D01*
X0138042Y0022585D02*
X0138042Y0022270D01*
X0140286Y0023392D02*
X0140463Y0023215D01*
X0163337Y0023412D02*
X0163515Y0023589D01*
X0163967Y0022920D02*
X0163593Y0022546D01*
X0163869Y0022625D02*
X0165680Y0022625D01*
X0165759Y0022526D02*
X0165759Y0022743D01*
X0165601Y0022920D01*
X0163967Y0022920D01*
X0165956Y0023688D02*
X0166231Y0023412D01*
X0167885Y0023412D02*
X0168160Y0023688D01*
X0168515Y0022920D02*
X0170148Y0022920D01*
X0170522Y0022546D01*
X0170365Y0022625D02*
X0168554Y0022625D01*
X0168357Y0022762D02*
X0168515Y0022920D01*
X0168357Y0022782D02*
X0168357Y0022467D01*
X0170601Y0023589D02*
X0170778Y0023412D01*
X0193062Y0023215D02*
X0193239Y0023392D01*
X0193692Y0022723D02*
X0193318Y0022349D01*
X0193593Y0022428D02*
X0195404Y0022428D01*
X0195483Y0022329D02*
X0195483Y0022546D01*
X0195326Y0022723D01*
X0193692Y0022723D01*
X0195680Y0023491D02*
X0195956Y0023215D01*
X0197609Y0023215D02*
X0197885Y0023491D01*
X0198239Y0022723D02*
X0199873Y0022723D01*
X0200247Y0022349D01*
X0200089Y0022428D02*
X0198278Y0022428D01*
X0198081Y0022566D02*
X0198239Y0022723D01*
X0198081Y0022585D02*
X0198081Y0022270D01*
X0200326Y0023392D02*
X0200503Y0023215D01*
X0222983Y0023215D02*
X0223160Y0023392D01*
X0223613Y0022723D02*
X0223239Y0022349D01*
X0223515Y0022428D02*
X0225326Y0022428D01*
X0225404Y0022329D02*
X0225404Y0022546D01*
X0225247Y0022723D01*
X0223613Y0022723D01*
X0225601Y0023491D02*
X0225877Y0023215D01*
X0227530Y0023215D02*
X0227806Y0023491D01*
X0228160Y0022723D02*
X0229794Y0022723D01*
X0230168Y0022349D01*
X0230011Y0022428D02*
X0228200Y0022428D01*
X0228003Y0022566D02*
X0228160Y0022723D01*
X0228003Y0022585D02*
X0228003Y0022270D01*
X0230247Y0023392D02*
X0230424Y0023215D01*
X0252904Y0023215D02*
X0253081Y0023392D01*
X0253534Y0022723D02*
X0253160Y0022349D01*
X0253436Y0022428D02*
X0255247Y0022428D01*
X0255326Y0022329D02*
X0255326Y0022546D01*
X0255168Y0022723D01*
X0253534Y0022723D01*
X0255522Y0023491D02*
X0255798Y0023215D01*
X0257452Y0023215D02*
X0257727Y0023491D01*
X0258081Y0022723D02*
X0259715Y0022723D01*
X0260089Y0022349D01*
X0259932Y0022428D02*
X0258121Y0022428D01*
X0257924Y0022566D02*
X0258081Y0022723D01*
X0257924Y0022585D02*
X0257924Y0022270D01*
X0260168Y0023392D02*
X0260345Y0023215D01*
X0350148Y0023215D02*
X0350326Y0023392D01*
X0350778Y0022723D02*
X0350404Y0022349D01*
X0350680Y0022428D02*
X0352491Y0022428D01*
X0352570Y0022329D02*
X0352570Y0022546D01*
X0352412Y0022723D01*
X0350778Y0022723D01*
X0352767Y0023491D02*
X0353042Y0023215D01*
X0354696Y0023215D02*
X0354971Y0023491D01*
X0355326Y0022723D02*
X0356959Y0022723D01*
X0357333Y0022349D01*
X0357176Y0022428D02*
X0355365Y0022428D01*
X0355168Y0022566D02*
X0355326Y0022723D01*
X0355168Y0022585D02*
X0355168Y0022270D01*
X0357412Y0023392D02*
X0357589Y0023215D01*
X0390109Y0023215D02*
X0390286Y0023392D01*
X0390739Y0022723D02*
X0390365Y0022349D01*
X0390641Y0022428D02*
X0392452Y0022428D01*
X0392530Y0022329D02*
X0392530Y0022546D01*
X0392373Y0022723D01*
X0390739Y0022723D01*
X0392727Y0023491D02*
X0393003Y0023215D01*
X0394656Y0023215D02*
X0394932Y0023491D01*
X0395286Y0022723D02*
X0396920Y0022723D01*
X0397294Y0022349D01*
X0397137Y0022428D02*
X0395326Y0022428D01*
X0395129Y0022566D02*
X0395286Y0022723D01*
X0395129Y0022585D02*
X0395129Y0022270D01*
X0397373Y0023392D02*
X0397550Y0023215D01*
X0424952Y0023215D02*
X0425129Y0023392D01*
X0425581Y0022723D02*
X0425207Y0022349D01*
X0425483Y0022428D02*
X0427294Y0022428D01*
X0427373Y0022329D02*
X0427373Y0022546D01*
X0427215Y0022723D01*
X0425581Y0022723D01*
X0427570Y0023491D02*
X0427845Y0023215D01*
X0429499Y0023215D02*
X0429774Y0023491D01*
X0430129Y0022723D02*
X0431763Y0022723D01*
X0432137Y0022349D01*
X0431979Y0022428D02*
X0430168Y0022428D01*
X0429971Y0022566D02*
X0430129Y0022723D01*
X0429971Y0022585D02*
X0429971Y0022270D01*
X0432215Y0023392D02*
X0432393Y0023215D01*
X0459991Y0023215D02*
X0460168Y0023392D01*
X0460621Y0022723D02*
X0460247Y0022349D01*
X0460522Y0022428D02*
X0462333Y0022428D01*
X0462412Y0022329D02*
X0462412Y0022546D01*
X0462255Y0022723D01*
X0460621Y0022723D01*
X0462609Y0023491D02*
X0462885Y0023215D01*
X0464538Y0023215D02*
X0464814Y0023491D01*
X0465168Y0022723D02*
X0466802Y0022723D01*
X0467176Y0022349D01*
X0467019Y0022428D02*
X0465207Y0022428D01*
X0465011Y0022566D02*
X0465168Y0022723D01*
X0465011Y0022585D02*
X0465011Y0022270D01*
X0467255Y0023392D02*
X0467432Y0023215D01*
X0495030Y0023215D02*
X0495207Y0023392D01*
X0495660Y0022723D02*
X0495286Y0022349D01*
X0495562Y0022428D02*
X0497373Y0022428D01*
X0497452Y0022329D02*
X0497452Y0022546D01*
X0497294Y0022723D01*
X0495660Y0022723D01*
X0497648Y0023491D02*
X0497924Y0023215D01*
X0499578Y0023215D02*
X0499853Y0023491D01*
X0500207Y0022723D02*
X0501841Y0022723D01*
X0502215Y0022349D01*
X0502058Y0022428D02*
X0500247Y0022428D01*
X0500050Y0022566D02*
X0500207Y0022723D01*
X0500050Y0022585D02*
X0500050Y0022270D01*
X0502294Y0023392D02*
X0502471Y0023215D01*
D34*
X0293830Y0215144D03*
X0228475Y0225774D03*
X0313711Y0268294D03*
X0312924Y0274199D03*
X0376507Y0278136D03*
X0385168Y0267113D03*
X0376507Y0347822D03*
X0130444Y0358058D03*
D35*
X0025050Y0282585D03*
X0076782Y0040853D03*
X0328751Y0040853D03*
X0570483Y0111089D03*
D36*
X0560483Y0111089D03*
X0560483Y0121089D03*
X0570483Y0121089D03*
X0570483Y0131089D03*
X0560483Y0131089D03*
X0560483Y0141089D03*
X0570483Y0141089D03*
X0570483Y0151089D03*
X0560483Y0151089D03*
X0560483Y0161089D03*
X0570483Y0161089D03*
X0570483Y0171089D03*
X0560483Y0171089D03*
X0560483Y0181089D03*
X0570483Y0181089D03*
X0570483Y0191089D03*
X0560483Y0191089D03*
X0560483Y0201089D03*
X0570483Y0201089D03*
X0518751Y0050853D03*
X0518751Y0040853D03*
X0508751Y0040853D03*
X0508751Y0050853D03*
X0498751Y0050853D03*
X0488751Y0050853D03*
X0488751Y0040853D03*
X0498751Y0040853D03*
X0478751Y0040853D03*
X0478751Y0050853D03*
X0468751Y0050853D03*
X0458751Y0050853D03*
X0458751Y0040853D03*
X0468751Y0040853D03*
X0448751Y0040853D03*
X0448751Y0050853D03*
X0438751Y0050853D03*
X0428751Y0050853D03*
X0428751Y0040853D03*
X0438751Y0040853D03*
X0418751Y0040853D03*
X0408751Y0040853D03*
X0408751Y0050853D03*
X0418751Y0050853D03*
X0398751Y0050853D03*
X0398751Y0040853D03*
X0388751Y0040853D03*
X0378751Y0040853D03*
X0378751Y0050853D03*
X0388751Y0050853D03*
X0368751Y0050853D03*
X0368751Y0040853D03*
X0358751Y0040853D03*
X0348751Y0040853D03*
X0348751Y0050853D03*
X0358751Y0050853D03*
X0338751Y0050853D03*
X0338751Y0040853D03*
X0328751Y0050853D03*
X0266782Y0050853D03*
X0256782Y0050853D03*
X0246782Y0050853D03*
X0236782Y0050853D03*
X0226782Y0050853D03*
X0216782Y0050853D03*
X0206782Y0050853D03*
X0196782Y0050853D03*
X0186782Y0050853D03*
X0176782Y0050853D03*
X0166782Y0050853D03*
X0156782Y0050853D03*
X0146782Y0050853D03*
X0136782Y0050853D03*
X0126782Y0050853D03*
X0116782Y0050853D03*
X0106782Y0050853D03*
X0096782Y0050853D03*
X0086782Y0050853D03*
X0076782Y0050853D03*
X0086782Y0040853D03*
X0096782Y0040853D03*
X0106782Y0040853D03*
X0116782Y0040853D03*
X0126782Y0040853D03*
X0136782Y0040853D03*
X0146782Y0040853D03*
X0156782Y0040853D03*
X0166782Y0040853D03*
X0176782Y0040853D03*
X0186782Y0040853D03*
X0196782Y0040853D03*
X0206782Y0040853D03*
X0216782Y0040853D03*
X0226782Y0040853D03*
X0236782Y0040853D03*
X0246782Y0040853D03*
X0256782Y0040853D03*
X0266782Y0040853D03*
X0035050Y0092585D03*
X0025050Y0092585D03*
X0025050Y0102585D03*
X0035050Y0102585D03*
X0035050Y0112585D03*
X0025050Y0112585D03*
X0025050Y0122585D03*
X0035050Y0122585D03*
X0035050Y0132585D03*
X0025050Y0132585D03*
X0025050Y0142585D03*
X0035050Y0142585D03*
X0035050Y0152585D03*
X0025050Y0152585D03*
X0025050Y0162585D03*
X0035050Y0162585D03*
X0035050Y0172585D03*
X0025050Y0172585D03*
X0025050Y0182585D03*
X0035050Y0182585D03*
X0035050Y0192585D03*
X0025050Y0192585D03*
X0025050Y0202585D03*
X0035050Y0202585D03*
X0035050Y0212585D03*
X0025050Y0212585D03*
X0025050Y0222585D03*
X0035050Y0222585D03*
X0035050Y0232585D03*
X0025050Y0232585D03*
X0025050Y0242585D03*
X0035050Y0242585D03*
X0035050Y0252585D03*
X0025050Y0252585D03*
X0025050Y0262585D03*
X0035050Y0262585D03*
X0035050Y0272585D03*
X0025050Y0272585D03*
X0035050Y0282585D03*
D37*
G36*
X0129645Y0216469D02*
X0125740Y0220374D01*
X0127141Y0221775D01*
X0131046Y0217870D01*
X0129645Y0216469D01*
G37*
G36*
X0128253Y0215077D02*
X0124348Y0218982D01*
X0125749Y0220383D01*
X0129654Y0216478D01*
X0128253Y0215077D01*
G37*
G36*
X0126861Y0213685D02*
X0122956Y0217590D01*
X0124357Y0218991D01*
X0128262Y0215086D01*
X0126861Y0213685D01*
G37*
G36*
X0125469Y0212294D02*
X0121564Y0216199D01*
X0122965Y0217600D01*
X0126870Y0213695D01*
X0125469Y0212294D01*
G37*
G36*
X0124077Y0210902D02*
X0120172Y0214807D01*
X0121573Y0216208D01*
X0125478Y0212303D01*
X0124077Y0210902D01*
G37*
G36*
X0122686Y0209510D02*
X0118781Y0213415D01*
X0120182Y0214816D01*
X0124087Y0210911D01*
X0122686Y0209510D01*
G37*
G36*
X0121294Y0208118D02*
X0117389Y0212023D01*
X0118790Y0213424D01*
X0122695Y0209519D01*
X0121294Y0208118D01*
G37*
G36*
X0119902Y0206726D02*
X0115997Y0210631D01*
X0117398Y0212032D01*
X0121303Y0208127D01*
X0119902Y0206726D01*
G37*
G36*
X0118510Y0205334D02*
X0114605Y0209239D01*
X0116006Y0210640D01*
X0119911Y0206735D01*
X0118510Y0205334D01*
G37*
G36*
X0117118Y0203942D02*
X0113213Y0207847D01*
X0114614Y0209248D01*
X0118519Y0205343D01*
X0117118Y0203942D01*
G37*
G36*
X0115726Y0202550D02*
X0111821Y0206455D01*
X0113222Y0207856D01*
X0117127Y0203951D01*
X0115726Y0202550D01*
G37*
G36*
X0114334Y0201158D02*
X0110429Y0205063D01*
X0111830Y0206464D01*
X0115735Y0202559D01*
X0114334Y0201158D01*
G37*
G36*
X0112942Y0199766D02*
X0109037Y0203671D01*
X0110438Y0205072D01*
X0114343Y0201167D01*
X0112942Y0199766D01*
G37*
G36*
X0111550Y0198374D02*
X0107645Y0202279D01*
X0109046Y0203680D01*
X0112951Y0199775D01*
X0111550Y0198374D01*
G37*
G36*
X0112951Y0191144D02*
X0109046Y0187239D01*
X0107645Y0188640D01*
X0111550Y0192545D01*
X0112951Y0191144D01*
G37*
G36*
X0114343Y0189752D02*
X0110438Y0185847D01*
X0109037Y0187248D01*
X0112942Y0191153D01*
X0114343Y0189752D01*
G37*
G36*
X0115735Y0188360D02*
X0111830Y0184455D01*
X0110429Y0185856D01*
X0114334Y0189761D01*
X0115735Y0188360D01*
G37*
G36*
X0117127Y0186968D02*
X0113222Y0183063D01*
X0111821Y0184464D01*
X0115726Y0188369D01*
X0117127Y0186968D01*
G37*
G36*
X0118519Y0185576D02*
X0114614Y0181671D01*
X0113213Y0183072D01*
X0117118Y0186977D01*
X0118519Y0185576D01*
G37*
G36*
X0119911Y0184184D02*
X0116006Y0180279D01*
X0114605Y0181680D01*
X0118510Y0185585D01*
X0119911Y0184184D01*
G37*
G36*
X0121303Y0182792D02*
X0117398Y0178887D01*
X0115997Y0180288D01*
X0119902Y0184193D01*
X0121303Y0182792D01*
G37*
G36*
X0122695Y0181400D02*
X0118790Y0177495D01*
X0117389Y0178896D01*
X0121294Y0182801D01*
X0122695Y0181400D01*
G37*
G36*
X0124087Y0180008D02*
X0120182Y0176103D01*
X0118781Y0177504D01*
X0122686Y0181409D01*
X0124087Y0180008D01*
G37*
G36*
X0125478Y0178616D02*
X0121573Y0174711D01*
X0120172Y0176112D01*
X0124077Y0180017D01*
X0125478Y0178616D01*
G37*
G36*
X0126870Y0177224D02*
X0122965Y0173319D01*
X0121564Y0174720D01*
X0125469Y0178625D01*
X0126870Y0177224D01*
G37*
G36*
X0128262Y0175832D02*
X0124357Y0171927D01*
X0122956Y0173328D01*
X0126861Y0177233D01*
X0128262Y0175832D01*
G37*
G36*
X0129654Y0174440D02*
X0125749Y0170535D01*
X0124348Y0171936D01*
X0128253Y0175841D01*
X0129654Y0174440D01*
G37*
G36*
X0131046Y0173048D02*
X0127141Y0169143D01*
X0125740Y0170544D01*
X0129645Y0174449D01*
X0131046Y0173048D01*
G37*
G36*
X0132438Y0171656D02*
X0128533Y0167751D01*
X0127132Y0169152D01*
X0131037Y0173057D01*
X0132438Y0171656D01*
G37*
G36*
X0133830Y0170264D02*
X0129925Y0166359D01*
X0128524Y0167760D01*
X0132429Y0171665D01*
X0133830Y0170264D01*
G37*
G36*
X0135222Y0168872D02*
X0131317Y0164967D01*
X0129916Y0166368D01*
X0133821Y0170273D01*
X0135222Y0168872D01*
G37*
G36*
X0136614Y0167481D02*
X0132709Y0163576D01*
X0131308Y0164977D01*
X0135213Y0168882D01*
X0136614Y0167481D01*
G37*
G36*
X0138006Y0166089D02*
X0134101Y0162184D01*
X0132700Y0163585D01*
X0136605Y0167490D01*
X0138006Y0166089D01*
G37*
G36*
X0139398Y0164697D02*
X0135493Y0160792D01*
X0134092Y0162193D01*
X0137997Y0166098D01*
X0139398Y0164697D01*
G37*
G36*
X0140790Y0163305D02*
X0136885Y0159400D01*
X0135484Y0160801D01*
X0139389Y0164706D01*
X0140790Y0163305D01*
G37*
G36*
X0142182Y0161913D02*
X0138277Y0158008D01*
X0136876Y0159409D01*
X0140781Y0163314D01*
X0142182Y0161913D01*
G37*
G36*
X0143574Y0160521D02*
X0139669Y0156616D01*
X0138268Y0158017D01*
X0142173Y0161922D01*
X0143574Y0160521D01*
G37*
G36*
X0144966Y0159129D02*
X0141061Y0155224D01*
X0139660Y0156625D01*
X0143565Y0160530D01*
X0144966Y0159129D01*
G37*
G36*
X0146358Y0157737D02*
X0142453Y0153832D01*
X0141052Y0155233D01*
X0144957Y0159138D01*
X0146358Y0157737D01*
G37*
G36*
X0147750Y0156345D02*
X0143845Y0152440D01*
X0142444Y0153841D01*
X0146349Y0157746D01*
X0147750Y0156345D01*
G37*
G36*
X0149141Y0154953D02*
X0145236Y0151048D01*
X0143835Y0152449D01*
X0147740Y0156354D01*
X0149141Y0154953D01*
G37*
G36*
X0150533Y0153561D02*
X0146628Y0149656D01*
X0145227Y0151057D01*
X0149132Y0154962D01*
X0150533Y0153561D01*
G37*
G36*
X0151925Y0152169D02*
X0148020Y0148264D01*
X0146619Y0149665D01*
X0150524Y0153570D01*
X0151925Y0152169D01*
G37*
G36*
X0153317Y0150777D02*
X0149412Y0146872D01*
X0148011Y0148273D01*
X0151916Y0152178D01*
X0153317Y0150777D01*
G37*
G36*
X0154709Y0149385D02*
X0150804Y0145480D01*
X0149403Y0146881D01*
X0153308Y0150786D01*
X0154709Y0149385D01*
G37*
G36*
X0156101Y0147993D02*
X0152196Y0144088D01*
X0150795Y0145489D01*
X0154700Y0149394D01*
X0156101Y0147993D01*
G37*
G36*
X0157493Y0146601D02*
X0153588Y0142696D01*
X0152187Y0144097D01*
X0156092Y0148002D01*
X0157493Y0146601D01*
G37*
G36*
X0158885Y0145209D02*
X0154980Y0141304D01*
X0153579Y0142705D01*
X0157484Y0146610D01*
X0158885Y0145209D01*
G37*
G36*
X0160277Y0143817D02*
X0156372Y0139912D01*
X0154971Y0141313D01*
X0158876Y0145218D01*
X0160277Y0143817D01*
G37*
G36*
X0161669Y0142426D02*
X0157764Y0138521D01*
X0156363Y0139922D01*
X0160268Y0143827D01*
X0161669Y0142426D01*
G37*
G36*
X0163061Y0141034D02*
X0159156Y0137129D01*
X0157755Y0138530D01*
X0161660Y0142435D01*
X0163061Y0141034D01*
G37*
G36*
X0164453Y0139642D02*
X0160548Y0135737D01*
X0159147Y0137138D01*
X0163052Y0141043D01*
X0164453Y0139642D01*
G37*
G36*
X0165845Y0138250D02*
X0161940Y0134345D01*
X0160539Y0135746D01*
X0164444Y0139651D01*
X0165845Y0138250D01*
G37*
G36*
X0167237Y0136858D02*
X0163332Y0132953D01*
X0161931Y0134354D01*
X0165836Y0138259D01*
X0167237Y0136858D01*
G37*
G36*
X0168629Y0135466D02*
X0164724Y0131561D01*
X0163323Y0132962D01*
X0167228Y0136867D01*
X0168629Y0135466D01*
G37*
G36*
X0170021Y0134074D02*
X0166116Y0130169D01*
X0164715Y0131570D01*
X0168620Y0135475D01*
X0170021Y0134074D01*
G37*
G36*
X0171413Y0132682D02*
X0167508Y0128777D01*
X0166107Y0130178D01*
X0170012Y0134083D01*
X0171413Y0132682D01*
G37*
G36*
X0172805Y0131290D02*
X0168900Y0127385D01*
X0167499Y0128786D01*
X0171404Y0132691D01*
X0172805Y0131290D01*
G37*
G36*
X0180035Y0132691D02*
X0183940Y0128786D01*
X0182539Y0127385D01*
X0178634Y0131290D01*
X0180035Y0132691D01*
G37*
G36*
X0181427Y0134083D02*
X0185332Y0130178D01*
X0183931Y0128777D01*
X0180026Y0132682D01*
X0181427Y0134083D01*
G37*
G36*
X0182819Y0135475D02*
X0186724Y0131570D01*
X0185323Y0130169D01*
X0181418Y0134074D01*
X0182819Y0135475D01*
G37*
G36*
X0184211Y0136867D02*
X0188116Y0132962D01*
X0186715Y0131561D01*
X0182810Y0135466D01*
X0184211Y0136867D01*
G37*
G36*
X0185603Y0138259D02*
X0189508Y0134354D01*
X0188107Y0132953D01*
X0184202Y0136858D01*
X0185603Y0138259D01*
G37*
G36*
X0186995Y0139651D02*
X0190900Y0135746D01*
X0189499Y0134345D01*
X0185594Y0138250D01*
X0186995Y0139651D01*
G37*
G36*
X0188387Y0141043D02*
X0192292Y0137138D01*
X0190891Y0135737D01*
X0186986Y0139642D01*
X0188387Y0141043D01*
G37*
G36*
X0189779Y0142435D02*
X0193684Y0138530D01*
X0192283Y0137129D01*
X0188378Y0141034D01*
X0189779Y0142435D01*
G37*
G36*
X0191171Y0143827D02*
X0195076Y0139922D01*
X0193675Y0138521D01*
X0189770Y0142426D01*
X0191171Y0143827D01*
G37*
G36*
X0192563Y0145218D02*
X0196468Y0141313D01*
X0195067Y0139912D01*
X0191162Y0143817D01*
X0192563Y0145218D01*
G37*
G36*
X0193954Y0146610D02*
X0197859Y0142705D01*
X0196458Y0141304D01*
X0192553Y0145209D01*
X0193954Y0146610D01*
G37*
G36*
X0195346Y0148002D02*
X0199251Y0144097D01*
X0197850Y0142696D01*
X0193945Y0146601D01*
X0195346Y0148002D01*
G37*
G36*
X0196738Y0149394D02*
X0200643Y0145489D01*
X0199242Y0144088D01*
X0195337Y0147993D01*
X0196738Y0149394D01*
G37*
G36*
X0198130Y0150786D02*
X0202035Y0146881D01*
X0200634Y0145480D01*
X0196729Y0149385D01*
X0198130Y0150786D01*
G37*
G36*
X0199522Y0152178D02*
X0203427Y0148273D01*
X0202026Y0146872D01*
X0198121Y0150777D01*
X0199522Y0152178D01*
G37*
G36*
X0200914Y0153570D02*
X0204819Y0149665D01*
X0203418Y0148264D01*
X0199513Y0152169D01*
X0200914Y0153570D01*
G37*
G36*
X0202306Y0154962D02*
X0206211Y0151057D01*
X0204810Y0149656D01*
X0200905Y0153561D01*
X0202306Y0154962D01*
G37*
G36*
X0203698Y0156354D02*
X0207603Y0152449D01*
X0206202Y0151048D01*
X0202297Y0154953D01*
X0203698Y0156354D01*
G37*
G36*
X0205090Y0157746D02*
X0208995Y0153841D01*
X0207594Y0152440D01*
X0203689Y0156345D01*
X0205090Y0157746D01*
G37*
G36*
X0206482Y0159138D02*
X0210387Y0155233D01*
X0208986Y0153832D01*
X0205081Y0157737D01*
X0206482Y0159138D01*
G37*
G36*
X0207874Y0160530D02*
X0211779Y0156625D01*
X0210378Y0155224D01*
X0206473Y0159129D01*
X0207874Y0160530D01*
G37*
G36*
X0209266Y0161922D02*
X0213171Y0158017D01*
X0211770Y0156616D01*
X0207865Y0160521D01*
X0209266Y0161922D01*
G37*
G36*
X0210658Y0163314D02*
X0214563Y0159409D01*
X0213162Y0158008D01*
X0209257Y0161913D01*
X0210658Y0163314D01*
G37*
G36*
X0212050Y0164706D02*
X0215955Y0160801D01*
X0214554Y0159400D01*
X0210649Y0163305D01*
X0212050Y0164706D01*
G37*
G36*
X0213442Y0166098D02*
X0217347Y0162193D01*
X0215946Y0160792D01*
X0212041Y0164697D01*
X0213442Y0166098D01*
G37*
G36*
X0214834Y0167490D02*
X0218739Y0163585D01*
X0217338Y0162184D01*
X0213433Y0166089D01*
X0214834Y0167490D01*
G37*
G36*
X0216226Y0168882D02*
X0220131Y0164977D01*
X0218730Y0163576D01*
X0214825Y0167481D01*
X0216226Y0168882D01*
G37*
G36*
X0217618Y0170273D02*
X0221523Y0166368D01*
X0220122Y0164967D01*
X0216217Y0168872D01*
X0217618Y0170273D01*
G37*
G36*
X0219009Y0171665D02*
X0222914Y0167760D01*
X0221513Y0166359D01*
X0217608Y0170264D01*
X0219009Y0171665D01*
G37*
G36*
X0220401Y0173057D02*
X0224306Y0169152D01*
X0222905Y0167751D01*
X0219000Y0171656D01*
X0220401Y0173057D01*
G37*
G36*
X0221793Y0174449D02*
X0225698Y0170544D01*
X0224297Y0169143D01*
X0220392Y0173048D01*
X0221793Y0174449D01*
G37*
G36*
X0223185Y0175841D02*
X0227090Y0171936D01*
X0225689Y0170535D01*
X0221784Y0174440D01*
X0223185Y0175841D01*
G37*
G36*
X0224577Y0177233D02*
X0228482Y0173328D01*
X0227081Y0171927D01*
X0223176Y0175832D01*
X0224577Y0177233D01*
G37*
G36*
X0225969Y0178625D02*
X0229874Y0174720D01*
X0228473Y0173319D01*
X0224568Y0177224D01*
X0225969Y0178625D01*
G37*
G36*
X0227361Y0180017D02*
X0231266Y0176112D01*
X0229865Y0174711D01*
X0225960Y0178616D01*
X0227361Y0180017D01*
G37*
G36*
X0228753Y0181409D02*
X0232658Y0177504D01*
X0231257Y0176103D01*
X0227352Y0180008D01*
X0228753Y0181409D01*
G37*
G36*
X0230145Y0182801D02*
X0234050Y0178896D01*
X0232649Y0177495D01*
X0228744Y0181400D01*
X0230145Y0182801D01*
G37*
G36*
X0231537Y0184193D02*
X0235442Y0180288D01*
X0234041Y0178887D01*
X0230136Y0182792D01*
X0231537Y0184193D01*
G37*
G36*
X0232929Y0185585D02*
X0236834Y0181680D01*
X0235433Y0180279D01*
X0231528Y0184184D01*
X0232929Y0185585D01*
G37*
G36*
X0234321Y0186977D02*
X0238226Y0183072D01*
X0236825Y0181671D01*
X0232920Y0185576D01*
X0234321Y0186977D01*
G37*
G36*
X0235713Y0188369D02*
X0239618Y0184464D01*
X0238217Y0183063D01*
X0234312Y0186968D01*
X0235713Y0188369D01*
G37*
G36*
X0237105Y0189761D02*
X0241010Y0185856D01*
X0239609Y0184455D01*
X0235704Y0188360D01*
X0237105Y0189761D01*
G37*
G36*
X0238497Y0191153D02*
X0242402Y0187248D01*
X0241001Y0185847D01*
X0237096Y0189752D01*
X0238497Y0191153D01*
G37*
G36*
X0239889Y0192545D02*
X0243794Y0188640D01*
X0242393Y0187239D01*
X0238488Y0191144D01*
X0239889Y0192545D01*
G37*
G36*
X0238488Y0199775D02*
X0242393Y0203680D01*
X0243794Y0202279D01*
X0239889Y0198374D01*
X0238488Y0199775D01*
G37*
G36*
X0237096Y0201167D02*
X0241001Y0205072D01*
X0242402Y0203671D01*
X0238497Y0199766D01*
X0237096Y0201167D01*
G37*
G36*
X0235704Y0202559D02*
X0239609Y0206464D01*
X0241010Y0205063D01*
X0237105Y0201158D01*
X0235704Y0202559D01*
G37*
G36*
X0234312Y0203951D02*
X0238217Y0207856D01*
X0239618Y0206455D01*
X0235713Y0202550D01*
X0234312Y0203951D01*
G37*
G36*
X0232920Y0205343D02*
X0236825Y0209248D01*
X0238226Y0207847D01*
X0234321Y0203942D01*
X0232920Y0205343D01*
G37*
G36*
X0231528Y0206735D02*
X0235433Y0210640D01*
X0236834Y0209239D01*
X0232929Y0205334D01*
X0231528Y0206735D01*
G37*
G36*
X0230136Y0208127D02*
X0234041Y0212032D01*
X0235442Y0210631D01*
X0231537Y0206726D01*
X0230136Y0208127D01*
G37*
G36*
X0228744Y0209519D02*
X0232649Y0213424D01*
X0234050Y0212023D01*
X0230145Y0208118D01*
X0228744Y0209519D01*
G37*
G36*
X0227352Y0210911D02*
X0231257Y0214816D01*
X0232658Y0213415D01*
X0228753Y0209510D01*
X0227352Y0210911D01*
G37*
G36*
X0225960Y0212303D02*
X0229865Y0216208D01*
X0231266Y0214807D01*
X0227361Y0210902D01*
X0225960Y0212303D01*
G37*
G36*
X0224568Y0213695D02*
X0228473Y0217600D01*
X0229874Y0216199D01*
X0225969Y0212294D01*
X0224568Y0213695D01*
G37*
G36*
X0223176Y0215086D02*
X0227081Y0218991D01*
X0228482Y0217590D01*
X0224577Y0213685D01*
X0223176Y0215086D01*
G37*
G36*
X0221784Y0216478D02*
X0225689Y0220383D01*
X0227090Y0218982D01*
X0223185Y0215077D01*
X0221784Y0216478D01*
G37*
G36*
X0220392Y0217870D02*
X0224297Y0221775D01*
X0225698Y0220374D01*
X0221793Y0216469D01*
X0220392Y0217870D01*
G37*
G36*
X0219000Y0219262D02*
X0222905Y0223167D01*
X0224306Y0221766D01*
X0220401Y0217861D01*
X0219000Y0219262D01*
G37*
G36*
X0217608Y0220654D02*
X0221513Y0224559D01*
X0222914Y0223158D01*
X0219009Y0219253D01*
X0217608Y0220654D01*
G37*
G36*
X0216217Y0222046D02*
X0220122Y0225951D01*
X0221523Y0224550D01*
X0217618Y0220645D01*
X0216217Y0222046D01*
G37*
G36*
X0214825Y0223438D02*
X0218730Y0227343D01*
X0220131Y0225942D01*
X0216226Y0222037D01*
X0214825Y0223438D01*
G37*
G36*
X0213433Y0224830D02*
X0217338Y0228735D01*
X0218739Y0227334D01*
X0214834Y0223429D01*
X0213433Y0224830D01*
G37*
G36*
X0212041Y0226222D02*
X0215946Y0230127D01*
X0217347Y0228726D01*
X0213442Y0224821D01*
X0212041Y0226222D01*
G37*
G36*
X0210649Y0227614D02*
X0214554Y0231519D01*
X0215955Y0230118D01*
X0212050Y0226213D01*
X0210649Y0227614D01*
G37*
G36*
X0209257Y0229006D02*
X0213162Y0232911D01*
X0214563Y0231510D01*
X0210658Y0227605D01*
X0209257Y0229006D01*
G37*
G36*
X0207865Y0230398D02*
X0211770Y0234303D01*
X0213171Y0232902D01*
X0209266Y0228997D01*
X0207865Y0230398D01*
G37*
G36*
X0206473Y0231790D02*
X0210378Y0235695D01*
X0211779Y0234294D01*
X0207874Y0230389D01*
X0206473Y0231790D01*
G37*
G36*
X0205081Y0233182D02*
X0208986Y0237087D01*
X0210387Y0235686D01*
X0206482Y0231781D01*
X0205081Y0233182D01*
G37*
G36*
X0203689Y0234574D02*
X0207594Y0238479D01*
X0208995Y0237078D01*
X0205090Y0233173D01*
X0203689Y0234574D01*
G37*
G36*
X0202297Y0235966D02*
X0206202Y0239871D01*
X0207603Y0238470D01*
X0203698Y0234565D01*
X0202297Y0235966D01*
G37*
G36*
X0200905Y0237358D02*
X0204810Y0241263D01*
X0206211Y0239862D01*
X0202306Y0235957D01*
X0200905Y0237358D01*
G37*
G36*
X0199513Y0238749D02*
X0203418Y0242654D01*
X0204819Y0241253D01*
X0200914Y0237348D01*
X0199513Y0238749D01*
G37*
G36*
X0198121Y0240141D02*
X0202026Y0244046D01*
X0203427Y0242645D01*
X0199522Y0238740D01*
X0198121Y0240141D01*
G37*
G36*
X0196729Y0241533D02*
X0200634Y0245438D01*
X0202035Y0244037D01*
X0198130Y0240132D01*
X0196729Y0241533D01*
G37*
G36*
X0195337Y0242925D02*
X0199242Y0246830D01*
X0200643Y0245429D01*
X0196738Y0241524D01*
X0195337Y0242925D01*
G37*
G36*
X0193945Y0244317D02*
X0197850Y0248222D01*
X0199251Y0246821D01*
X0195346Y0242916D01*
X0193945Y0244317D01*
G37*
G36*
X0192553Y0245709D02*
X0196458Y0249614D01*
X0197859Y0248213D01*
X0193954Y0244308D01*
X0192553Y0245709D01*
G37*
G36*
X0191162Y0247101D02*
X0195067Y0251006D01*
X0196468Y0249605D01*
X0192563Y0245700D01*
X0191162Y0247101D01*
G37*
G36*
X0189770Y0248493D02*
X0193675Y0252398D01*
X0195076Y0250997D01*
X0191171Y0247092D01*
X0189770Y0248493D01*
G37*
G36*
X0188378Y0249885D02*
X0192283Y0253790D01*
X0193684Y0252389D01*
X0189779Y0248484D01*
X0188378Y0249885D01*
G37*
G36*
X0186986Y0251277D02*
X0190891Y0255182D01*
X0192292Y0253781D01*
X0188387Y0249876D01*
X0186986Y0251277D01*
G37*
G36*
X0185594Y0252669D02*
X0189499Y0256574D01*
X0190900Y0255173D01*
X0186995Y0251268D01*
X0185594Y0252669D01*
G37*
G36*
X0184202Y0254061D02*
X0188107Y0257966D01*
X0189508Y0256565D01*
X0185603Y0252660D01*
X0184202Y0254061D01*
G37*
G36*
X0182810Y0255453D02*
X0186715Y0259358D01*
X0188116Y0257957D01*
X0184211Y0254052D01*
X0182810Y0255453D01*
G37*
G36*
X0181418Y0256845D02*
X0185323Y0260750D01*
X0186724Y0259349D01*
X0182819Y0255444D01*
X0181418Y0256845D01*
G37*
G36*
X0180026Y0258237D02*
X0183931Y0262142D01*
X0185332Y0260741D01*
X0181427Y0256836D01*
X0180026Y0258237D01*
G37*
G36*
X0178634Y0259629D02*
X0182539Y0263534D01*
X0183940Y0262133D01*
X0180035Y0258228D01*
X0178634Y0259629D01*
G37*
G36*
X0171404Y0258228D02*
X0167499Y0262133D01*
X0168900Y0263534D01*
X0172805Y0259629D01*
X0171404Y0258228D01*
G37*
G36*
X0170012Y0256836D02*
X0166107Y0260741D01*
X0167508Y0262142D01*
X0171413Y0258237D01*
X0170012Y0256836D01*
G37*
G36*
X0168620Y0255444D02*
X0164715Y0259349D01*
X0166116Y0260750D01*
X0170021Y0256845D01*
X0168620Y0255444D01*
G37*
G36*
X0167228Y0254052D02*
X0163323Y0257957D01*
X0164724Y0259358D01*
X0168629Y0255453D01*
X0167228Y0254052D01*
G37*
G36*
X0165836Y0252660D02*
X0161931Y0256565D01*
X0163332Y0257966D01*
X0167237Y0254061D01*
X0165836Y0252660D01*
G37*
G36*
X0164444Y0251268D02*
X0160539Y0255173D01*
X0161940Y0256574D01*
X0165845Y0252669D01*
X0164444Y0251268D01*
G37*
G36*
X0163052Y0249876D02*
X0159147Y0253781D01*
X0160548Y0255182D01*
X0164453Y0251277D01*
X0163052Y0249876D01*
G37*
G36*
X0161660Y0248484D02*
X0157755Y0252389D01*
X0159156Y0253790D01*
X0163061Y0249885D01*
X0161660Y0248484D01*
G37*
G36*
X0160268Y0247092D02*
X0156363Y0250997D01*
X0157764Y0252398D01*
X0161669Y0248493D01*
X0160268Y0247092D01*
G37*
G36*
X0158876Y0245700D02*
X0154971Y0249605D01*
X0156372Y0251006D01*
X0160277Y0247101D01*
X0158876Y0245700D01*
G37*
G36*
X0157484Y0244308D02*
X0153579Y0248213D01*
X0154980Y0249614D01*
X0158885Y0245709D01*
X0157484Y0244308D01*
G37*
G36*
X0156092Y0242916D02*
X0152187Y0246821D01*
X0153588Y0248222D01*
X0157493Y0244317D01*
X0156092Y0242916D01*
G37*
G36*
X0154700Y0241524D02*
X0150795Y0245429D01*
X0152196Y0246830D01*
X0156101Y0242925D01*
X0154700Y0241524D01*
G37*
G36*
X0153308Y0240132D02*
X0149403Y0244037D01*
X0150804Y0245438D01*
X0154709Y0241533D01*
X0153308Y0240132D01*
G37*
G36*
X0151916Y0238740D02*
X0148011Y0242645D01*
X0149412Y0244046D01*
X0153317Y0240141D01*
X0151916Y0238740D01*
G37*
G36*
X0150524Y0237348D02*
X0146619Y0241253D01*
X0148020Y0242654D01*
X0151925Y0238749D01*
X0150524Y0237348D01*
G37*
G36*
X0149132Y0235957D02*
X0145227Y0239862D01*
X0146628Y0241263D01*
X0150533Y0237358D01*
X0149132Y0235957D01*
G37*
G36*
X0147740Y0234565D02*
X0143835Y0238470D01*
X0145236Y0239871D01*
X0149141Y0235966D01*
X0147740Y0234565D01*
G37*
G36*
X0146349Y0233173D02*
X0142444Y0237078D01*
X0143845Y0238479D01*
X0147750Y0234574D01*
X0146349Y0233173D01*
G37*
G36*
X0144957Y0231781D02*
X0141052Y0235686D01*
X0142453Y0237087D01*
X0146358Y0233182D01*
X0144957Y0231781D01*
G37*
G36*
X0143565Y0230389D02*
X0139660Y0234294D01*
X0141061Y0235695D01*
X0144966Y0231790D01*
X0143565Y0230389D01*
G37*
G36*
X0142173Y0228997D02*
X0138268Y0232902D01*
X0139669Y0234303D01*
X0143574Y0230398D01*
X0142173Y0228997D01*
G37*
G36*
X0140781Y0227605D02*
X0136876Y0231510D01*
X0138277Y0232911D01*
X0142182Y0229006D01*
X0140781Y0227605D01*
G37*
G36*
X0139389Y0226213D02*
X0135484Y0230118D01*
X0136885Y0231519D01*
X0140790Y0227614D01*
X0139389Y0226213D01*
G37*
G36*
X0137997Y0224821D02*
X0134092Y0228726D01*
X0135493Y0230127D01*
X0139398Y0226222D01*
X0137997Y0224821D01*
G37*
G36*
X0136605Y0223429D02*
X0132700Y0227334D01*
X0134101Y0228735D01*
X0138006Y0224830D01*
X0136605Y0223429D01*
G37*
G36*
X0135213Y0222037D02*
X0131308Y0225942D01*
X0132709Y0227343D01*
X0136614Y0223438D01*
X0135213Y0222037D01*
G37*
G36*
X0133821Y0220645D02*
X0129916Y0224550D01*
X0131317Y0225951D01*
X0135222Y0222046D01*
X0133821Y0220645D01*
G37*
G36*
X0132429Y0219253D02*
X0128524Y0223158D01*
X0129925Y0224559D01*
X0133830Y0220654D01*
X0132429Y0219253D01*
G37*
G36*
X0131037Y0217861D02*
X0127132Y0221766D01*
X0128533Y0223167D01*
X0132438Y0219262D01*
X0131037Y0217861D01*
G37*
D38*
X0020207Y0337192D02*
X0020209Y0337280D01*
X0020215Y0337368D01*
X0020225Y0337456D01*
X0020239Y0337544D01*
X0020256Y0337630D01*
X0020278Y0337716D01*
X0020303Y0337800D01*
X0020333Y0337884D01*
X0020365Y0337966D01*
X0020402Y0338046D01*
X0020442Y0338125D01*
X0020486Y0338202D01*
X0020533Y0338277D01*
X0020583Y0338349D01*
X0020637Y0338420D01*
X0020693Y0338487D01*
X0020753Y0338553D01*
X0020815Y0338615D01*
X0020881Y0338675D01*
X0020948Y0338731D01*
X0021019Y0338785D01*
X0021091Y0338835D01*
X0021166Y0338882D01*
X0021243Y0338926D01*
X0021322Y0338966D01*
X0021402Y0339003D01*
X0021484Y0339035D01*
X0021568Y0339065D01*
X0021652Y0339090D01*
X0021738Y0339112D01*
X0021824Y0339129D01*
X0021912Y0339143D01*
X0022000Y0339153D01*
X0022088Y0339159D01*
X0022176Y0339161D01*
X0022264Y0339159D01*
X0022352Y0339153D01*
X0022440Y0339143D01*
X0022528Y0339129D01*
X0022614Y0339112D01*
X0022700Y0339090D01*
X0022784Y0339065D01*
X0022868Y0339035D01*
X0022950Y0339003D01*
X0023030Y0338966D01*
X0023109Y0338926D01*
X0023186Y0338882D01*
X0023261Y0338835D01*
X0023333Y0338785D01*
X0023404Y0338731D01*
X0023471Y0338675D01*
X0023537Y0338615D01*
X0023599Y0338553D01*
X0023659Y0338487D01*
X0023715Y0338420D01*
X0023769Y0338349D01*
X0023819Y0338277D01*
X0023866Y0338202D01*
X0023910Y0338125D01*
X0023950Y0338046D01*
X0023987Y0337966D01*
X0024019Y0337884D01*
X0024049Y0337800D01*
X0024074Y0337716D01*
X0024096Y0337630D01*
X0024113Y0337544D01*
X0024127Y0337456D01*
X0024137Y0337368D01*
X0024143Y0337280D01*
X0024145Y0337192D01*
X0024143Y0337104D01*
X0024137Y0337016D01*
X0024127Y0336928D01*
X0024113Y0336840D01*
X0024096Y0336754D01*
X0024074Y0336668D01*
X0024049Y0336584D01*
X0024019Y0336500D01*
X0023987Y0336418D01*
X0023950Y0336338D01*
X0023910Y0336259D01*
X0023866Y0336182D01*
X0023819Y0336107D01*
X0023769Y0336035D01*
X0023715Y0335964D01*
X0023659Y0335897D01*
X0023599Y0335831D01*
X0023537Y0335769D01*
X0023471Y0335709D01*
X0023404Y0335653D01*
X0023333Y0335599D01*
X0023261Y0335549D01*
X0023186Y0335502D01*
X0023109Y0335458D01*
X0023030Y0335418D01*
X0022950Y0335381D01*
X0022868Y0335349D01*
X0022784Y0335319D01*
X0022700Y0335294D01*
X0022614Y0335272D01*
X0022528Y0335255D01*
X0022440Y0335241D01*
X0022352Y0335231D01*
X0022264Y0335225D01*
X0022176Y0335223D01*
X0022088Y0335225D01*
X0022000Y0335231D01*
X0021912Y0335241D01*
X0021824Y0335255D01*
X0021738Y0335272D01*
X0021652Y0335294D01*
X0021568Y0335319D01*
X0021484Y0335349D01*
X0021402Y0335381D01*
X0021322Y0335418D01*
X0021243Y0335458D01*
X0021166Y0335502D01*
X0021091Y0335549D01*
X0021019Y0335599D01*
X0020948Y0335653D01*
X0020881Y0335709D01*
X0020815Y0335769D01*
X0020753Y0335831D01*
X0020693Y0335897D01*
X0020637Y0335964D01*
X0020583Y0336035D01*
X0020533Y0336107D01*
X0020486Y0336182D01*
X0020442Y0336259D01*
X0020402Y0336338D01*
X0020365Y0336418D01*
X0020333Y0336500D01*
X0020303Y0336584D01*
X0020278Y0336668D01*
X0020256Y0336754D01*
X0020239Y0336840D01*
X0020225Y0336928D01*
X0020215Y0337016D01*
X0020209Y0337104D01*
X0020207Y0337192D01*
X0047766Y0065538D02*
X0047768Y0065626D01*
X0047774Y0065714D01*
X0047784Y0065802D01*
X0047798Y0065890D01*
X0047815Y0065976D01*
X0047837Y0066062D01*
X0047862Y0066146D01*
X0047892Y0066230D01*
X0047924Y0066312D01*
X0047961Y0066392D01*
X0048001Y0066471D01*
X0048045Y0066548D01*
X0048092Y0066623D01*
X0048142Y0066695D01*
X0048196Y0066766D01*
X0048252Y0066833D01*
X0048312Y0066899D01*
X0048374Y0066961D01*
X0048440Y0067021D01*
X0048507Y0067077D01*
X0048578Y0067131D01*
X0048650Y0067181D01*
X0048725Y0067228D01*
X0048802Y0067272D01*
X0048881Y0067312D01*
X0048961Y0067349D01*
X0049043Y0067381D01*
X0049127Y0067411D01*
X0049211Y0067436D01*
X0049297Y0067458D01*
X0049383Y0067475D01*
X0049471Y0067489D01*
X0049559Y0067499D01*
X0049647Y0067505D01*
X0049735Y0067507D01*
X0049823Y0067505D01*
X0049911Y0067499D01*
X0049999Y0067489D01*
X0050087Y0067475D01*
X0050173Y0067458D01*
X0050259Y0067436D01*
X0050343Y0067411D01*
X0050427Y0067381D01*
X0050509Y0067349D01*
X0050589Y0067312D01*
X0050668Y0067272D01*
X0050745Y0067228D01*
X0050820Y0067181D01*
X0050892Y0067131D01*
X0050963Y0067077D01*
X0051030Y0067021D01*
X0051096Y0066961D01*
X0051158Y0066899D01*
X0051218Y0066833D01*
X0051274Y0066766D01*
X0051328Y0066695D01*
X0051378Y0066623D01*
X0051425Y0066548D01*
X0051469Y0066471D01*
X0051509Y0066392D01*
X0051546Y0066312D01*
X0051578Y0066230D01*
X0051608Y0066146D01*
X0051633Y0066062D01*
X0051655Y0065976D01*
X0051672Y0065890D01*
X0051686Y0065802D01*
X0051696Y0065714D01*
X0051702Y0065626D01*
X0051704Y0065538D01*
X0051702Y0065450D01*
X0051696Y0065362D01*
X0051686Y0065274D01*
X0051672Y0065186D01*
X0051655Y0065100D01*
X0051633Y0065014D01*
X0051608Y0064930D01*
X0051578Y0064846D01*
X0051546Y0064764D01*
X0051509Y0064684D01*
X0051469Y0064605D01*
X0051425Y0064528D01*
X0051378Y0064453D01*
X0051328Y0064381D01*
X0051274Y0064310D01*
X0051218Y0064243D01*
X0051158Y0064177D01*
X0051096Y0064115D01*
X0051030Y0064055D01*
X0050963Y0063999D01*
X0050892Y0063945D01*
X0050820Y0063895D01*
X0050745Y0063848D01*
X0050668Y0063804D01*
X0050589Y0063764D01*
X0050509Y0063727D01*
X0050427Y0063695D01*
X0050343Y0063665D01*
X0050259Y0063640D01*
X0050173Y0063618D01*
X0050087Y0063601D01*
X0049999Y0063587D01*
X0049911Y0063577D01*
X0049823Y0063571D01*
X0049735Y0063569D01*
X0049647Y0063571D01*
X0049559Y0063577D01*
X0049471Y0063587D01*
X0049383Y0063601D01*
X0049297Y0063618D01*
X0049211Y0063640D01*
X0049127Y0063665D01*
X0049043Y0063695D01*
X0048961Y0063727D01*
X0048881Y0063764D01*
X0048802Y0063804D01*
X0048725Y0063848D01*
X0048650Y0063895D01*
X0048578Y0063945D01*
X0048507Y0063999D01*
X0048440Y0064055D01*
X0048374Y0064115D01*
X0048312Y0064177D01*
X0048252Y0064243D01*
X0048196Y0064310D01*
X0048142Y0064381D01*
X0048092Y0064453D01*
X0048045Y0064528D01*
X0048001Y0064605D01*
X0047961Y0064684D01*
X0047924Y0064764D01*
X0047892Y0064846D01*
X0047862Y0064930D01*
X0047837Y0065014D01*
X0047815Y0065100D01*
X0047798Y0065186D01*
X0047784Y0065274D01*
X0047774Y0065362D01*
X0047768Y0065450D01*
X0047766Y0065538D01*
X0543829Y0356877D02*
X0543831Y0356965D01*
X0543837Y0357053D01*
X0543847Y0357141D01*
X0543861Y0357229D01*
X0543878Y0357315D01*
X0543900Y0357401D01*
X0543925Y0357485D01*
X0543955Y0357569D01*
X0543987Y0357651D01*
X0544024Y0357731D01*
X0544064Y0357810D01*
X0544108Y0357887D01*
X0544155Y0357962D01*
X0544205Y0358034D01*
X0544259Y0358105D01*
X0544315Y0358172D01*
X0544375Y0358238D01*
X0544437Y0358300D01*
X0544503Y0358360D01*
X0544570Y0358416D01*
X0544641Y0358470D01*
X0544713Y0358520D01*
X0544788Y0358567D01*
X0544865Y0358611D01*
X0544944Y0358651D01*
X0545024Y0358688D01*
X0545106Y0358720D01*
X0545190Y0358750D01*
X0545274Y0358775D01*
X0545360Y0358797D01*
X0545446Y0358814D01*
X0545534Y0358828D01*
X0545622Y0358838D01*
X0545710Y0358844D01*
X0545798Y0358846D01*
X0545886Y0358844D01*
X0545974Y0358838D01*
X0546062Y0358828D01*
X0546150Y0358814D01*
X0546236Y0358797D01*
X0546322Y0358775D01*
X0546406Y0358750D01*
X0546490Y0358720D01*
X0546572Y0358688D01*
X0546652Y0358651D01*
X0546731Y0358611D01*
X0546808Y0358567D01*
X0546883Y0358520D01*
X0546955Y0358470D01*
X0547026Y0358416D01*
X0547093Y0358360D01*
X0547159Y0358300D01*
X0547221Y0358238D01*
X0547281Y0358172D01*
X0547337Y0358105D01*
X0547391Y0358034D01*
X0547441Y0357962D01*
X0547488Y0357887D01*
X0547532Y0357810D01*
X0547572Y0357731D01*
X0547609Y0357651D01*
X0547641Y0357569D01*
X0547671Y0357485D01*
X0547696Y0357401D01*
X0547718Y0357315D01*
X0547735Y0357229D01*
X0547749Y0357141D01*
X0547759Y0357053D01*
X0547765Y0356965D01*
X0547767Y0356877D01*
X0547765Y0356789D01*
X0547759Y0356701D01*
X0547749Y0356613D01*
X0547735Y0356525D01*
X0547718Y0356439D01*
X0547696Y0356353D01*
X0547671Y0356269D01*
X0547641Y0356185D01*
X0547609Y0356103D01*
X0547572Y0356023D01*
X0547532Y0355944D01*
X0547488Y0355867D01*
X0547441Y0355792D01*
X0547391Y0355720D01*
X0547337Y0355649D01*
X0547281Y0355582D01*
X0547221Y0355516D01*
X0547159Y0355454D01*
X0547093Y0355394D01*
X0547026Y0355338D01*
X0546955Y0355284D01*
X0546883Y0355234D01*
X0546808Y0355187D01*
X0546731Y0355143D01*
X0546652Y0355103D01*
X0546572Y0355066D01*
X0546490Y0355034D01*
X0546406Y0355004D01*
X0546322Y0354979D01*
X0546236Y0354957D01*
X0546150Y0354940D01*
X0546062Y0354926D01*
X0545974Y0354916D01*
X0545886Y0354910D01*
X0545798Y0354908D01*
X0545710Y0354910D01*
X0545622Y0354916D01*
X0545534Y0354926D01*
X0545446Y0354940D01*
X0545360Y0354957D01*
X0545274Y0354979D01*
X0545190Y0355004D01*
X0545106Y0355034D01*
X0545024Y0355066D01*
X0544944Y0355103D01*
X0544865Y0355143D01*
X0544788Y0355187D01*
X0544713Y0355234D01*
X0544641Y0355284D01*
X0544570Y0355338D01*
X0544503Y0355394D01*
X0544437Y0355454D01*
X0544375Y0355516D01*
X0544315Y0355582D01*
X0544259Y0355649D01*
X0544205Y0355720D01*
X0544155Y0355792D01*
X0544108Y0355867D01*
X0544064Y0355944D01*
X0544024Y0356023D01*
X0543987Y0356103D01*
X0543955Y0356185D01*
X0543925Y0356269D01*
X0543900Y0356353D01*
X0543878Y0356439D01*
X0543861Y0356525D01*
X0543847Y0356613D01*
X0543837Y0356701D01*
X0543831Y0356789D01*
X0543829Y0356877D01*
D39*
X0338751Y0108058D03*
X0333751Y0108058D03*
X0328751Y0108058D03*
X0323751Y0108058D03*
X0318751Y0108058D03*
X0313751Y0108058D03*
X0308751Y0108058D03*
X0293475Y0108058D03*
X0288475Y0108058D03*
X0283475Y0108058D03*
X0278475Y0108058D03*
X0273475Y0108058D03*
X0268475Y0108058D03*
X0263475Y0108058D03*
X0263475Y0087585D03*
X0268475Y0087585D03*
X0273475Y0087585D03*
X0278475Y0087585D03*
X0283475Y0087585D03*
X0288475Y0087585D03*
X0293475Y0087585D03*
X0308751Y0087585D03*
X0313751Y0087585D03*
X0318751Y0087585D03*
X0323751Y0087585D03*
X0328751Y0087585D03*
X0333751Y0087585D03*
X0338751Y0087585D03*
D40*
X0359519Y0024003D03*
X0399479Y0024003D03*
X0434322Y0024003D03*
X0469361Y0024003D03*
X0504400Y0024003D03*
X0262274Y0024003D03*
X0232353Y0024003D03*
X0202432Y0024003D03*
X0172707Y0024199D03*
X0142393Y0024003D03*
X0107353Y0024003D03*
D41*
X0096054Y0024199D03*
X0131093Y0024199D03*
X0161408Y0024396D03*
X0191133Y0024199D03*
X0221054Y0024199D03*
X0250975Y0024199D03*
X0348219Y0024199D03*
X0388180Y0024199D03*
X0423022Y0024199D03*
X0458062Y0024199D03*
X0493101Y0024199D03*
D42*
X0494814Y0024347D03*
X0496389Y0024347D03*
X0497963Y0024347D03*
X0499538Y0024347D03*
X0501113Y0024347D03*
X0502688Y0024347D03*
X0467648Y0024347D03*
X0466074Y0024347D03*
X0464499Y0024347D03*
X0462924Y0024347D03*
X0461349Y0024347D03*
X0459774Y0024347D03*
X0432609Y0024347D03*
X0431034Y0024347D03*
X0429459Y0024347D03*
X0427885Y0024347D03*
X0426310Y0024347D03*
X0424735Y0024347D03*
X0397767Y0024347D03*
X0396192Y0024347D03*
X0394617Y0024347D03*
X0393042Y0024347D03*
X0391467Y0024347D03*
X0389893Y0024347D03*
X0357806Y0024347D03*
X0356231Y0024347D03*
X0354656Y0024347D03*
X0353081Y0024347D03*
X0351507Y0024347D03*
X0349932Y0024347D03*
X0260562Y0024347D03*
X0258987Y0024347D03*
X0257412Y0024347D03*
X0255837Y0024347D03*
X0254263Y0024347D03*
X0252688Y0024347D03*
X0230641Y0024347D03*
X0229066Y0024347D03*
X0227491Y0024347D03*
X0225916Y0024347D03*
X0224341Y0024347D03*
X0222767Y0024347D03*
X0200719Y0024347D03*
X0199144Y0024347D03*
X0197570Y0024347D03*
X0195995Y0024347D03*
X0194420Y0024347D03*
X0192845Y0024347D03*
X0170995Y0024544D03*
X0169420Y0024544D03*
X0167845Y0024544D03*
X0166270Y0024544D03*
X0164696Y0024544D03*
X0163121Y0024544D03*
X0140680Y0024347D03*
X0139105Y0024347D03*
X0137530Y0024347D03*
X0135956Y0024347D03*
X0134381Y0024347D03*
X0132806Y0024347D03*
X0105641Y0024347D03*
X0104066Y0024347D03*
X0102491Y0024347D03*
X0100916Y0024347D03*
X0099341Y0024347D03*
X0097767Y0024347D03*
D43*
X0097619Y0023186D03*
X0105788Y0023186D03*
X0132658Y0023186D03*
X0140828Y0023186D03*
X0162973Y0023383D03*
X0171143Y0023383D03*
X0192698Y0023186D03*
X0200867Y0023186D03*
X0222619Y0023186D03*
X0230788Y0023186D03*
X0252540Y0023186D03*
X0260709Y0023186D03*
X0349784Y0023186D03*
X0357954Y0023186D03*
X0389745Y0023186D03*
X0397914Y0023186D03*
X0424587Y0023186D03*
X0432757Y0023186D03*
X0459627Y0023186D03*
X0467796Y0023186D03*
X0494666Y0023186D03*
X0502835Y0023186D03*
D44*
X0499312Y0023196D03*
X0498190Y0023196D03*
X0464272Y0023196D03*
X0463150Y0023196D03*
X0429233Y0023196D03*
X0428111Y0023196D03*
X0394391Y0023196D03*
X0393269Y0023196D03*
X0354430Y0023196D03*
X0353308Y0023196D03*
X0257186Y0023196D03*
X0256064Y0023196D03*
X0227265Y0023196D03*
X0226143Y0023196D03*
X0197343Y0023196D03*
X0196221Y0023196D03*
X0167619Y0023392D03*
X0166497Y0023392D03*
X0137304Y0023196D03*
X0136182Y0023196D03*
X0102265Y0023196D03*
X0101143Y0023196D03*
D45*
X0099322Y0021109D03*
X0104085Y0021109D03*
X0134361Y0021109D03*
X0139125Y0021109D03*
X0164676Y0021306D03*
X0169440Y0021306D03*
X0194400Y0021109D03*
X0199164Y0021109D03*
X0224322Y0021109D03*
X0229085Y0021109D03*
X0254243Y0021109D03*
X0259007Y0021109D03*
X0351487Y0021109D03*
X0356251Y0021109D03*
X0391448Y0021109D03*
X0396211Y0021109D03*
X0426290Y0021109D03*
X0431054Y0021109D03*
X0461330Y0021109D03*
X0466093Y0021109D03*
X0496369Y0021109D03*
X0501133Y0021109D03*
D46*
X0370601Y0252940D03*
X0358790Y0252940D03*
X0358790Y0262388D03*
X0358790Y0271837D03*
X0370601Y0271837D03*
X0370601Y0262388D03*
X0300522Y0296247D03*
X0300522Y0305696D03*
X0288711Y0305696D03*
X0288711Y0296247D03*
X0244617Y0309633D03*
X0232806Y0309633D03*
D47*
X0222963Y0347428D03*
D48*
X0186743Y0369475D03*
X0186546Y0381483D03*
X0278081Y0356089D03*
D49*
X0235837Y0371562D03*
X0225837Y0371562D03*
X0225837Y0381562D03*
X0235837Y0381562D03*
D50*
X0320995Y0295066D03*
X0329656Y0295066D03*
X0281428Y0238766D03*
X0272767Y0238766D03*
D51*
X0287530Y0238963D03*
X0297767Y0238963D03*
X0297767Y0242703D03*
X0297767Y0246444D03*
X0287530Y0246444D03*
D52*
X0256133Y0305715D03*
X0256133Y0313550D03*
D53*
X0256133Y0310912D03*
X0256133Y0308353D03*
D54*
X0267845Y0305715D03*
X0267845Y0313550D03*
D55*
X0267845Y0310912D03*
X0267845Y0308353D03*
D56*
X0260562Y0309633D03*
D57*
X0372078Y0122625D03*
X0380148Y0122625D03*
X0380148Y0105302D03*
X0372078Y0105302D03*
D58*
X0374144Y0105302D03*
X0376113Y0105302D03*
X0378081Y0105302D03*
X0378081Y0122625D03*
X0376113Y0122625D03*
X0374144Y0122625D03*
D59*
X0388861Y0118963D02*
X0394861Y0118963D01*
X0394861Y0108963D02*
X0388861Y0108963D01*
X0279144Y0160570D02*
X0279144Y0166570D01*
X0269144Y0166570D02*
X0269144Y0160570D01*
X0044774Y0309388D02*
X0044774Y0315388D01*
X0034774Y0315388D02*
X0034774Y0309388D01*
X0024774Y0309388D02*
X0024774Y0315388D01*
X0220444Y0323318D02*
X0220444Y0329318D01*
X0230444Y0329318D02*
X0230444Y0323318D01*
X0240444Y0323318D02*
X0240444Y0329318D01*
X0230444Y0339318D02*
X0230444Y0345318D01*
D60*
G36*
X0231833Y0164118D02*
X0236285Y0159666D01*
X0232387Y0155768D01*
X0227935Y0160220D01*
X0231833Y0164118D01*
G37*
G36*
X0227100Y0159385D02*
X0231552Y0154933D01*
X0227654Y0151035D01*
X0223202Y0155487D01*
X0227100Y0159385D01*
G37*
G36*
X0237957Y0157993D02*
X0242409Y0153541D01*
X0238511Y0149643D01*
X0234059Y0154095D01*
X0237957Y0157993D01*
G37*
G36*
X0233225Y0153261D02*
X0237677Y0148809D01*
X0233779Y0144911D01*
X0229327Y0149363D01*
X0233225Y0153261D01*
G37*
G36*
X0245219Y0150732D02*
X0249671Y0146280D01*
X0245773Y0142382D01*
X0241321Y0146834D01*
X0245219Y0150732D01*
G37*
G36*
X0240486Y0146000D02*
X0244938Y0141548D01*
X0241040Y0137650D01*
X0236588Y0142102D01*
X0240486Y0146000D01*
G37*
G36*
X0246611Y0139875D02*
X0251063Y0135423D01*
X0247165Y0131525D01*
X0242713Y0135977D01*
X0246611Y0139875D01*
G37*
G36*
X0251343Y0144608D02*
X0255795Y0140156D01*
X0251897Y0136258D01*
X0247445Y0140710D01*
X0251343Y0144608D01*
G37*
D61*
X0240444Y0339318D03*
X0220444Y0339318D03*
D62*
X0206625Y0362192D03*
D63*
X0197963Y0346837D03*
X0134578Y0342113D03*
X0114302Y0317703D03*
X0044617Y0334436D03*
X0235759Y0300774D03*
X0285562Y0284436D03*
X0295798Y0314751D03*
X0299341Y0318294D03*
X0348948Y0250577D03*
X0349144Y0232861D03*
X0312924Y0209829D03*
X0292648Y0228924D03*
X0263908Y0237192D03*
X0246585Y0238766D03*
X0280247Y0190735D03*
X0345798Y0150774D03*
X0338121Y0142703D03*
X0365089Y0129711D03*
X0393830Y0149593D03*
X0399144Y0149396D03*
X0399144Y0154711D03*
X0303672Y0087585D03*
X0323751Y0079908D03*
X0190680Y0119081D03*
X0127688Y0121640D03*
X0075522Y0078924D03*
X0085168Y0189357D03*
X0504656Y0232270D03*
D64*
X0308396Y0203530D03*
X0308396Y0199790D03*
X0308396Y0196050D03*
X0298160Y0196050D03*
X0298160Y0203530D03*
X0126113Y0329908D03*
X0126113Y0337388D03*
X0115877Y0337388D03*
X0115877Y0333648D03*
X0115877Y0329908D03*
D65*
X0353475Y0146247D03*
X0357215Y0146247D03*
X0360956Y0146247D03*
X0360956Y0136010D03*
X0353475Y0136010D03*
D66*
X0008200Y0127014D03*
X0008200Y0096896D03*
X0008200Y0156936D03*
X0008200Y0187054D03*
X0008200Y0216975D03*
X0008200Y0251621D03*
D67*
X0008396Y0262920D03*
X0008396Y0228274D03*
X0008396Y0198353D03*
X0008396Y0168235D03*
X0008396Y0138314D03*
X0008396Y0108196D03*
D68*
X0008544Y0106483D03*
X0008544Y0104908D03*
X0008544Y0103333D03*
X0008544Y0101759D03*
X0008544Y0100184D03*
X0008544Y0098609D03*
X0008544Y0128727D03*
X0008544Y0130302D03*
X0008544Y0131877D03*
X0008544Y0133451D03*
X0008544Y0135026D03*
X0008544Y0136601D03*
X0008544Y0158648D03*
X0008544Y0160223D03*
X0008544Y0161798D03*
X0008544Y0163373D03*
X0008544Y0164948D03*
X0008544Y0166522D03*
X0008544Y0188766D03*
X0008544Y0190341D03*
X0008544Y0191916D03*
X0008544Y0193491D03*
X0008544Y0195066D03*
X0008544Y0196640D03*
X0008544Y0218688D03*
X0008544Y0220262D03*
X0008544Y0221837D03*
X0008544Y0223412D03*
X0008544Y0224987D03*
X0008544Y0226562D03*
X0008544Y0253333D03*
X0008544Y0254908D03*
X0008544Y0256483D03*
X0008544Y0258058D03*
X0008544Y0259633D03*
X0008544Y0261207D03*
D69*
X0007383Y0261355D03*
X0007383Y0253186D03*
X0007383Y0226709D03*
X0007383Y0218540D03*
X0007383Y0196788D03*
X0007383Y0188619D03*
X0007383Y0166670D03*
X0007383Y0158501D03*
X0007383Y0136749D03*
X0007383Y0128579D03*
X0007383Y0106631D03*
X0007383Y0098461D03*
D70*
X0007393Y0101985D03*
X0007393Y0103107D03*
X0007393Y0132103D03*
X0007393Y0133225D03*
X0007393Y0162024D03*
X0007393Y0163146D03*
X0007393Y0192142D03*
X0007393Y0193264D03*
X0007393Y0222064D03*
X0007393Y0223186D03*
X0007393Y0256709D03*
X0007393Y0257831D03*
D71*
X0005306Y0259652D03*
X0005306Y0254888D03*
X0005306Y0225007D03*
X0005306Y0220243D03*
X0005306Y0195085D03*
X0005306Y0190322D03*
X0005306Y0164967D03*
X0005306Y0160203D03*
X0005306Y0135046D03*
X0005306Y0130282D03*
X0005306Y0104928D03*
X0005306Y0100164D03*
D72*
X0553869Y0285026D03*
X0553869Y0302743D03*
X0579459Y0302743D03*
X0579459Y0285026D03*
X0579459Y0328333D03*
X0579459Y0346050D03*
X0553869Y0346050D03*
X0553869Y0328333D03*
D73*
X0316664Y0352546D03*
X0303672Y0361601D03*
X0290680Y0352546D03*
D74*
X0289105Y0381680D03*
X0318239Y0381680D03*
D75*
X0303672Y0377349D03*
D76*
X0485739Y0241089D03*
X0490739Y0241089D03*
X0495739Y0241089D03*
X0500739Y0241089D03*
X0500739Y0221089D03*
X0495739Y0221089D03*
X0490739Y0221089D03*
X0485739Y0221089D03*
D77*
X0489902Y0257073D03*
X0474154Y0257073D03*
X0458406Y0257073D03*
X0116477Y0380499D03*
D78*
X0108967Y0380479D03*
X0450896Y0257054D03*
X0466644Y0257054D03*
X0482393Y0257054D03*
D79*
X0486152Y0249190D03*
X0470404Y0249190D03*
X0454656Y0249190D03*
X0112727Y0372615D03*
D80*
X0263830Y0211404D03*
X0269105Y0211404D03*
X0269105Y0203924D03*
X0263830Y0203924D03*
D81*
X0266467Y0203924D03*
X0266467Y0211404D03*
D82*
X0457215Y0237388D03*
X0468239Y0237388D03*
D83*
X0489302Y0286404D03*
X0505837Y0286404D03*
X0505837Y0303333D03*
X0489302Y0303333D03*
D84*
X0549932Y0259790D03*
X0549932Y0254790D03*
X0549932Y0249790D03*
X0549932Y0244790D03*
X0549932Y0239790D03*
X0565286Y0239790D03*
X0565286Y0244790D03*
X0565286Y0249790D03*
X0565286Y0254790D03*
X0565286Y0259790D03*
D85*
X0325326Y0278530D03*
D86*
X0380444Y0319672D03*
X0380444Y0325577D03*
X0396192Y0325577D03*
X0396192Y0319672D03*
X0411940Y0319672D03*
X0411940Y0325577D03*
X0427688Y0325577D03*
X0427688Y0319672D03*
X0443436Y0319672D03*
X0443436Y0325577D03*
X0459184Y0325577D03*
X0459184Y0319672D03*
D87*
X0404263Y0354810D03*
X0395995Y0354810D03*
X0395995Y0366818D03*
X0404263Y0366818D03*
D88*
X0400129Y0366818D03*
X0400129Y0354810D03*
M02*
