G75*
%MOIN*%
%OFA0B0*%
%FSLAX25Y25*%
%IPPOS*%
%LPD*%
%AMOC8*
5,1,8,0,0,1.08239X$1,22.5*
%
%ADD10C,0.00000*%
D10*
X0001457Y0063861D02*
X0036891Y0044176D01*
X0312481Y0044176D01*
X0312671Y0044178D01*
X0312861Y0044185D01*
X0313051Y0044197D01*
X0313241Y0044213D01*
X0313430Y0044233D01*
X0313619Y0044259D01*
X0313807Y0044288D01*
X0313994Y0044323D01*
X0314180Y0044362D01*
X0314365Y0044405D01*
X0314550Y0044453D01*
X0314733Y0044505D01*
X0314914Y0044561D01*
X0315094Y0044622D01*
X0315273Y0044688D01*
X0315450Y0044757D01*
X0315626Y0044831D01*
X0315799Y0044909D01*
X0315971Y0044992D01*
X0316140Y0045078D01*
X0316308Y0045168D01*
X0316473Y0045263D01*
X0316636Y0045361D01*
X0316796Y0045464D01*
X0316954Y0045570D01*
X0317109Y0045680D01*
X0317262Y0045793D01*
X0317412Y0045911D01*
X0317558Y0046032D01*
X0317702Y0046156D01*
X0317843Y0046284D01*
X0317981Y0046415D01*
X0318116Y0046550D01*
X0318247Y0046688D01*
X0318375Y0046829D01*
X0318499Y0046973D01*
X0318620Y0047119D01*
X0318738Y0047269D01*
X0318851Y0047422D01*
X0318961Y0047577D01*
X0319067Y0047735D01*
X0319170Y0047895D01*
X0319268Y0048058D01*
X0319363Y0048223D01*
X0319453Y0048391D01*
X0319539Y0048560D01*
X0319622Y0048732D01*
X0319700Y0048905D01*
X0319774Y0049081D01*
X0319843Y0049258D01*
X0319909Y0049437D01*
X0319970Y0049617D01*
X0320026Y0049798D01*
X0320078Y0049981D01*
X0320126Y0050166D01*
X0320169Y0050351D01*
X0320208Y0050537D01*
X0320243Y0050724D01*
X0320272Y0050912D01*
X0320298Y0051101D01*
X0320318Y0051290D01*
X0320334Y0051480D01*
X0320346Y0051670D01*
X0320353Y0051860D01*
X0320355Y0052050D01*
X0320355Y0099294D01*
X0320353Y0099484D01*
X0320346Y0099674D01*
X0320334Y0099864D01*
X0320318Y0100054D01*
X0320298Y0100243D01*
X0320272Y0100432D01*
X0320243Y0100620D01*
X0320208Y0100807D01*
X0320169Y0100993D01*
X0320126Y0101178D01*
X0320078Y0101363D01*
X0320026Y0101546D01*
X0319970Y0101727D01*
X0319909Y0101907D01*
X0319843Y0102086D01*
X0319774Y0102263D01*
X0319700Y0102439D01*
X0319622Y0102612D01*
X0319539Y0102784D01*
X0319453Y0102953D01*
X0319363Y0103121D01*
X0319268Y0103286D01*
X0319170Y0103449D01*
X0319067Y0103609D01*
X0318961Y0103767D01*
X0318851Y0103922D01*
X0318738Y0104075D01*
X0318620Y0104225D01*
X0318499Y0104371D01*
X0318375Y0104515D01*
X0318247Y0104656D01*
X0318116Y0104794D01*
X0317981Y0104929D01*
X0317843Y0105060D01*
X0317702Y0105188D01*
X0317558Y0105312D01*
X0317412Y0105433D01*
X0317262Y0105551D01*
X0317109Y0105664D01*
X0316954Y0105774D01*
X0316796Y0105880D01*
X0316636Y0105983D01*
X0316473Y0106081D01*
X0316308Y0106176D01*
X0316140Y0106266D01*
X0315971Y0106352D01*
X0315799Y0106435D01*
X0315626Y0106513D01*
X0315450Y0106587D01*
X0315273Y0106656D01*
X0315094Y0106722D01*
X0314914Y0106783D01*
X0314733Y0106839D01*
X0314550Y0106891D01*
X0314365Y0106939D01*
X0314180Y0106982D01*
X0313994Y0107021D01*
X0313807Y0107056D01*
X0313619Y0107085D01*
X0313430Y0107111D01*
X0313241Y0107131D01*
X0313051Y0107147D01*
X0312861Y0107159D01*
X0312671Y0107166D01*
X0312481Y0107168D01*
X0036891Y0107168D01*
X0001457Y0087483D01*
X0001457Y0063861D01*
X0111694Y0052050D02*
X0111696Y0052175D01*
X0111702Y0052300D01*
X0111712Y0052424D01*
X0111726Y0052548D01*
X0111743Y0052672D01*
X0111765Y0052795D01*
X0111791Y0052917D01*
X0111820Y0053039D01*
X0111853Y0053159D01*
X0111891Y0053278D01*
X0111931Y0053397D01*
X0111976Y0053513D01*
X0112024Y0053628D01*
X0112076Y0053742D01*
X0112132Y0053854D01*
X0112191Y0053964D01*
X0112253Y0054072D01*
X0112319Y0054179D01*
X0112388Y0054283D01*
X0112461Y0054384D01*
X0112536Y0054484D01*
X0112615Y0054581D01*
X0112697Y0054675D01*
X0112782Y0054767D01*
X0112869Y0054856D01*
X0112960Y0054942D01*
X0113053Y0055025D01*
X0113149Y0055106D01*
X0113247Y0055183D01*
X0113347Y0055257D01*
X0113450Y0055328D01*
X0113555Y0055395D01*
X0113663Y0055460D01*
X0113772Y0055520D01*
X0113883Y0055578D01*
X0113996Y0055631D01*
X0114110Y0055681D01*
X0114226Y0055728D01*
X0114343Y0055770D01*
X0114462Y0055809D01*
X0114582Y0055845D01*
X0114703Y0055876D01*
X0114825Y0055904D01*
X0114947Y0055927D01*
X0115071Y0055947D01*
X0115195Y0055963D01*
X0115319Y0055975D01*
X0115444Y0055983D01*
X0115569Y0055987D01*
X0115693Y0055987D01*
X0115818Y0055983D01*
X0115943Y0055975D01*
X0116067Y0055963D01*
X0116191Y0055947D01*
X0116315Y0055927D01*
X0116437Y0055904D01*
X0116559Y0055876D01*
X0116680Y0055845D01*
X0116800Y0055809D01*
X0116919Y0055770D01*
X0117036Y0055728D01*
X0117152Y0055681D01*
X0117266Y0055631D01*
X0117379Y0055578D01*
X0117490Y0055520D01*
X0117600Y0055460D01*
X0117707Y0055395D01*
X0117812Y0055328D01*
X0117915Y0055257D01*
X0118015Y0055183D01*
X0118113Y0055106D01*
X0118209Y0055025D01*
X0118302Y0054942D01*
X0118393Y0054856D01*
X0118480Y0054767D01*
X0118565Y0054675D01*
X0118647Y0054581D01*
X0118726Y0054484D01*
X0118801Y0054384D01*
X0118874Y0054283D01*
X0118943Y0054179D01*
X0119009Y0054072D01*
X0119071Y0053964D01*
X0119130Y0053854D01*
X0119186Y0053742D01*
X0119238Y0053628D01*
X0119286Y0053513D01*
X0119331Y0053397D01*
X0119371Y0053278D01*
X0119409Y0053159D01*
X0119442Y0053039D01*
X0119471Y0052917D01*
X0119497Y0052795D01*
X0119519Y0052672D01*
X0119536Y0052548D01*
X0119550Y0052424D01*
X0119560Y0052300D01*
X0119566Y0052175D01*
X0119568Y0052050D01*
X0119566Y0051925D01*
X0119560Y0051800D01*
X0119550Y0051676D01*
X0119536Y0051552D01*
X0119519Y0051428D01*
X0119497Y0051305D01*
X0119471Y0051183D01*
X0119442Y0051061D01*
X0119409Y0050941D01*
X0119371Y0050822D01*
X0119331Y0050703D01*
X0119286Y0050587D01*
X0119238Y0050472D01*
X0119186Y0050358D01*
X0119130Y0050246D01*
X0119071Y0050136D01*
X0119009Y0050028D01*
X0118943Y0049921D01*
X0118874Y0049817D01*
X0118801Y0049716D01*
X0118726Y0049616D01*
X0118647Y0049519D01*
X0118565Y0049425D01*
X0118480Y0049333D01*
X0118393Y0049244D01*
X0118302Y0049158D01*
X0118209Y0049075D01*
X0118113Y0048994D01*
X0118015Y0048917D01*
X0117915Y0048843D01*
X0117812Y0048772D01*
X0117707Y0048705D01*
X0117599Y0048640D01*
X0117490Y0048580D01*
X0117379Y0048522D01*
X0117266Y0048469D01*
X0117152Y0048419D01*
X0117036Y0048372D01*
X0116919Y0048330D01*
X0116800Y0048291D01*
X0116680Y0048255D01*
X0116559Y0048224D01*
X0116437Y0048196D01*
X0116315Y0048173D01*
X0116191Y0048153D01*
X0116067Y0048137D01*
X0115943Y0048125D01*
X0115818Y0048117D01*
X0115693Y0048113D01*
X0115569Y0048113D01*
X0115444Y0048117D01*
X0115319Y0048125D01*
X0115195Y0048137D01*
X0115071Y0048153D01*
X0114947Y0048173D01*
X0114825Y0048196D01*
X0114703Y0048224D01*
X0114582Y0048255D01*
X0114462Y0048291D01*
X0114343Y0048330D01*
X0114226Y0048372D01*
X0114110Y0048419D01*
X0113996Y0048469D01*
X0113883Y0048522D01*
X0113772Y0048580D01*
X0113662Y0048640D01*
X0113555Y0048705D01*
X0113450Y0048772D01*
X0113347Y0048843D01*
X0113247Y0048917D01*
X0113149Y0048994D01*
X0113053Y0049075D01*
X0112960Y0049158D01*
X0112869Y0049244D01*
X0112782Y0049333D01*
X0112697Y0049425D01*
X0112615Y0049519D01*
X0112536Y0049616D01*
X0112461Y0049716D01*
X0112388Y0049817D01*
X0112319Y0049921D01*
X0112253Y0050028D01*
X0112191Y0050136D01*
X0112132Y0050246D01*
X0112076Y0050358D01*
X0112024Y0050472D01*
X0111976Y0050587D01*
X0111931Y0050703D01*
X0111891Y0050822D01*
X0111853Y0050941D01*
X0111820Y0051061D01*
X0111791Y0051183D01*
X0111765Y0051305D01*
X0111743Y0051428D01*
X0111726Y0051552D01*
X0111712Y0051676D01*
X0111702Y0051800D01*
X0111696Y0051925D01*
X0111694Y0052050D01*
X0257363Y0052050D02*
X0257365Y0052175D01*
X0257371Y0052300D01*
X0257381Y0052424D01*
X0257395Y0052548D01*
X0257412Y0052672D01*
X0257434Y0052795D01*
X0257460Y0052917D01*
X0257489Y0053039D01*
X0257522Y0053159D01*
X0257560Y0053278D01*
X0257600Y0053397D01*
X0257645Y0053513D01*
X0257693Y0053628D01*
X0257745Y0053742D01*
X0257801Y0053854D01*
X0257860Y0053964D01*
X0257922Y0054072D01*
X0257988Y0054179D01*
X0258057Y0054283D01*
X0258130Y0054384D01*
X0258205Y0054484D01*
X0258284Y0054581D01*
X0258366Y0054675D01*
X0258451Y0054767D01*
X0258538Y0054856D01*
X0258629Y0054942D01*
X0258722Y0055025D01*
X0258818Y0055106D01*
X0258916Y0055183D01*
X0259016Y0055257D01*
X0259119Y0055328D01*
X0259224Y0055395D01*
X0259332Y0055460D01*
X0259441Y0055520D01*
X0259552Y0055578D01*
X0259665Y0055631D01*
X0259779Y0055681D01*
X0259895Y0055728D01*
X0260012Y0055770D01*
X0260131Y0055809D01*
X0260251Y0055845D01*
X0260372Y0055876D01*
X0260494Y0055904D01*
X0260616Y0055927D01*
X0260740Y0055947D01*
X0260864Y0055963D01*
X0260988Y0055975D01*
X0261113Y0055983D01*
X0261238Y0055987D01*
X0261362Y0055987D01*
X0261487Y0055983D01*
X0261612Y0055975D01*
X0261736Y0055963D01*
X0261860Y0055947D01*
X0261984Y0055927D01*
X0262106Y0055904D01*
X0262228Y0055876D01*
X0262349Y0055845D01*
X0262469Y0055809D01*
X0262588Y0055770D01*
X0262705Y0055728D01*
X0262821Y0055681D01*
X0262935Y0055631D01*
X0263048Y0055578D01*
X0263159Y0055520D01*
X0263269Y0055460D01*
X0263376Y0055395D01*
X0263481Y0055328D01*
X0263584Y0055257D01*
X0263684Y0055183D01*
X0263782Y0055106D01*
X0263878Y0055025D01*
X0263971Y0054942D01*
X0264062Y0054856D01*
X0264149Y0054767D01*
X0264234Y0054675D01*
X0264316Y0054581D01*
X0264395Y0054484D01*
X0264470Y0054384D01*
X0264543Y0054283D01*
X0264612Y0054179D01*
X0264678Y0054072D01*
X0264740Y0053964D01*
X0264799Y0053854D01*
X0264855Y0053742D01*
X0264907Y0053628D01*
X0264955Y0053513D01*
X0265000Y0053397D01*
X0265040Y0053278D01*
X0265078Y0053159D01*
X0265111Y0053039D01*
X0265140Y0052917D01*
X0265166Y0052795D01*
X0265188Y0052672D01*
X0265205Y0052548D01*
X0265219Y0052424D01*
X0265229Y0052300D01*
X0265235Y0052175D01*
X0265237Y0052050D01*
X0265235Y0051925D01*
X0265229Y0051800D01*
X0265219Y0051676D01*
X0265205Y0051552D01*
X0265188Y0051428D01*
X0265166Y0051305D01*
X0265140Y0051183D01*
X0265111Y0051061D01*
X0265078Y0050941D01*
X0265040Y0050822D01*
X0265000Y0050703D01*
X0264955Y0050587D01*
X0264907Y0050472D01*
X0264855Y0050358D01*
X0264799Y0050246D01*
X0264740Y0050136D01*
X0264678Y0050028D01*
X0264612Y0049921D01*
X0264543Y0049817D01*
X0264470Y0049716D01*
X0264395Y0049616D01*
X0264316Y0049519D01*
X0264234Y0049425D01*
X0264149Y0049333D01*
X0264062Y0049244D01*
X0263971Y0049158D01*
X0263878Y0049075D01*
X0263782Y0048994D01*
X0263684Y0048917D01*
X0263584Y0048843D01*
X0263481Y0048772D01*
X0263376Y0048705D01*
X0263268Y0048640D01*
X0263159Y0048580D01*
X0263048Y0048522D01*
X0262935Y0048469D01*
X0262821Y0048419D01*
X0262705Y0048372D01*
X0262588Y0048330D01*
X0262469Y0048291D01*
X0262349Y0048255D01*
X0262228Y0048224D01*
X0262106Y0048196D01*
X0261984Y0048173D01*
X0261860Y0048153D01*
X0261736Y0048137D01*
X0261612Y0048125D01*
X0261487Y0048117D01*
X0261362Y0048113D01*
X0261238Y0048113D01*
X0261113Y0048117D01*
X0260988Y0048125D01*
X0260864Y0048137D01*
X0260740Y0048153D01*
X0260616Y0048173D01*
X0260494Y0048196D01*
X0260372Y0048224D01*
X0260251Y0048255D01*
X0260131Y0048291D01*
X0260012Y0048330D01*
X0259895Y0048372D01*
X0259779Y0048419D01*
X0259665Y0048469D01*
X0259552Y0048522D01*
X0259441Y0048580D01*
X0259331Y0048640D01*
X0259224Y0048705D01*
X0259119Y0048772D01*
X0259016Y0048843D01*
X0258916Y0048917D01*
X0258818Y0048994D01*
X0258722Y0049075D01*
X0258629Y0049158D01*
X0258538Y0049244D01*
X0258451Y0049333D01*
X0258366Y0049425D01*
X0258284Y0049519D01*
X0258205Y0049616D01*
X0258130Y0049716D01*
X0258057Y0049817D01*
X0257988Y0049921D01*
X0257922Y0050028D01*
X0257860Y0050136D01*
X0257801Y0050246D01*
X0257745Y0050358D01*
X0257693Y0050472D01*
X0257645Y0050587D01*
X0257600Y0050703D01*
X0257560Y0050822D01*
X0257522Y0050941D01*
X0257489Y0051061D01*
X0257460Y0051183D01*
X0257434Y0051305D01*
X0257412Y0051428D01*
X0257395Y0051552D01*
X0257381Y0051676D01*
X0257371Y0051800D01*
X0257365Y0051925D01*
X0257363Y0052050D01*
X0257363Y0099294D02*
X0257365Y0099419D01*
X0257371Y0099544D01*
X0257381Y0099668D01*
X0257395Y0099792D01*
X0257412Y0099916D01*
X0257434Y0100039D01*
X0257460Y0100161D01*
X0257489Y0100283D01*
X0257522Y0100403D01*
X0257560Y0100522D01*
X0257600Y0100641D01*
X0257645Y0100757D01*
X0257693Y0100872D01*
X0257745Y0100986D01*
X0257801Y0101098D01*
X0257860Y0101208D01*
X0257922Y0101316D01*
X0257988Y0101423D01*
X0258057Y0101527D01*
X0258130Y0101628D01*
X0258205Y0101728D01*
X0258284Y0101825D01*
X0258366Y0101919D01*
X0258451Y0102011D01*
X0258538Y0102100D01*
X0258629Y0102186D01*
X0258722Y0102269D01*
X0258818Y0102350D01*
X0258916Y0102427D01*
X0259016Y0102501D01*
X0259119Y0102572D01*
X0259224Y0102639D01*
X0259332Y0102704D01*
X0259441Y0102764D01*
X0259552Y0102822D01*
X0259665Y0102875D01*
X0259779Y0102925D01*
X0259895Y0102972D01*
X0260012Y0103014D01*
X0260131Y0103053D01*
X0260251Y0103089D01*
X0260372Y0103120D01*
X0260494Y0103148D01*
X0260616Y0103171D01*
X0260740Y0103191D01*
X0260864Y0103207D01*
X0260988Y0103219D01*
X0261113Y0103227D01*
X0261238Y0103231D01*
X0261362Y0103231D01*
X0261487Y0103227D01*
X0261612Y0103219D01*
X0261736Y0103207D01*
X0261860Y0103191D01*
X0261984Y0103171D01*
X0262106Y0103148D01*
X0262228Y0103120D01*
X0262349Y0103089D01*
X0262469Y0103053D01*
X0262588Y0103014D01*
X0262705Y0102972D01*
X0262821Y0102925D01*
X0262935Y0102875D01*
X0263048Y0102822D01*
X0263159Y0102764D01*
X0263269Y0102704D01*
X0263376Y0102639D01*
X0263481Y0102572D01*
X0263584Y0102501D01*
X0263684Y0102427D01*
X0263782Y0102350D01*
X0263878Y0102269D01*
X0263971Y0102186D01*
X0264062Y0102100D01*
X0264149Y0102011D01*
X0264234Y0101919D01*
X0264316Y0101825D01*
X0264395Y0101728D01*
X0264470Y0101628D01*
X0264543Y0101527D01*
X0264612Y0101423D01*
X0264678Y0101316D01*
X0264740Y0101208D01*
X0264799Y0101098D01*
X0264855Y0100986D01*
X0264907Y0100872D01*
X0264955Y0100757D01*
X0265000Y0100641D01*
X0265040Y0100522D01*
X0265078Y0100403D01*
X0265111Y0100283D01*
X0265140Y0100161D01*
X0265166Y0100039D01*
X0265188Y0099916D01*
X0265205Y0099792D01*
X0265219Y0099668D01*
X0265229Y0099544D01*
X0265235Y0099419D01*
X0265237Y0099294D01*
X0265235Y0099169D01*
X0265229Y0099044D01*
X0265219Y0098920D01*
X0265205Y0098796D01*
X0265188Y0098672D01*
X0265166Y0098549D01*
X0265140Y0098427D01*
X0265111Y0098305D01*
X0265078Y0098185D01*
X0265040Y0098066D01*
X0265000Y0097947D01*
X0264955Y0097831D01*
X0264907Y0097716D01*
X0264855Y0097602D01*
X0264799Y0097490D01*
X0264740Y0097380D01*
X0264678Y0097272D01*
X0264612Y0097165D01*
X0264543Y0097061D01*
X0264470Y0096960D01*
X0264395Y0096860D01*
X0264316Y0096763D01*
X0264234Y0096669D01*
X0264149Y0096577D01*
X0264062Y0096488D01*
X0263971Y0096402D01*
X0263878Y0096319D01*
X0263782Y0096238D01*
X0263684Y0096161D01*
X0263584Y0096087D01*
X0263481Y0096016D01*
X0263376Y0095949D01*
X0263268Y0095884D01*
X0263159Y0095824D01*
X0263048Y0095766D01*
X0262935Y0095713D01*
X0262821Y0095663D01*
X0262705Y0095616D01*
X0262588Y0095574D01*
X0262469Y0095535D01*
X0262349Y0095499D01*
X0262228Y0095468D01*
X0262106Y0095440D01*
X0261984Y0095417D01*
X0261860Y0095397D01*
X0261736Y0095381D01*
X0261612Y0095369D01*
X0261487Y0095361D01*
X0261362Y0095357D01*
X0261238Y0095357D01*
X0261113Y0095361D01*
X0260988Y0095369D01*
X0260864Y0095381D01*
X0260740Y0095397D01*
X0260616Y0095417D01*
X0260494Y0095440D01*
X0260372Y0095468D01*
X0260251Y0095499D01*
X0260131Y0095535D01*
X0260012Y0095574D01*
X0259895Y0095616D01*
X0259779Y0095663D01*
X0259665Y0095713D01*
X0259552Y0095766D01*
X0259441Y0095824D01*
X0259331Y0095884D01*
X0259224Y0095949D01*
X0259119Y0096016D01*
X0259016Y0096087D01*
X0258916Y0096161D01*
X0258818Y0096238D01*
X0258722Y0096319D01*
X0258629Y0096402D01*
X0258538Y0096488D01*
X0258451Y0096577D01*
X0258366Y0096669D01*
X0258284Y0096763D01*
X0258205Y0096860D01*
X0258130Y0096960D01*
X0258057Y0097061D01*
X0257988Y0097165D01*
X0257922Y0097272D01*
X0257860Y0097380D01*
X0257801Y0097490D01*
X0257745Y0097602D01*
X0257693Y0097716D01*
X0257645Y0097831D01*
X0257600Y0097947D01*
X0257560Y0098066D01*
X0257522Y0098185D01*
X0257489Y0098305D01*
X0257460Y0098427D01*
X0257434Y0098549D01*
X0257412Y0098672D01*
X0257395Y0098796D01*
X0257381Y0098920D01*
X0257371Y0099044D01*
X0257365Y0099169D01*
X0257363Y0099294D01*
X0111694Y0099294D02*
X0111696Y0099419D01*
X0111702Y0099544D01*
X0111712Y0099668D01*
X0111726Y0099792D01*
X0111743Y0099916D01*
X0111765Y0100039D01*
X0111791Y0100161D01*
X0111820Y0100283D01*
X0111853Y0100403D01*
X0111891Y0100522D01*
X0111931Y0100641D01*
X0111976Y0100757D01*
X0112024Y0100872D01*
X0112076Y0100986D01*
X0112132Y0101098D01*
X0112191Y0101208D01*
X0112253Y0101316D01*
X0112319Y0101423D01*
X0112388Y0101527D01*
X0112461Y0101628D01*
X0112536Y0101728D01*
X0112615Y0101825D01*
X0112697Y0101919D01*
X0112782Y0102011D01*
X0112869Y0102100D01*
X0112960Y0102186D01*
X0113053Y0102269D01*
X0113149Y0102350D01*
X0113247Y0102427D01*
X0113347Y0102501D01*
X0113450Y0102572D01*
X0113555Y0102639D01*
X0113663Y0102704D01*
X0113772Y0102764D01*
X0113883Y0102822D01*
X0113996Y0102875D01*
X0114110Y0102925D01*
X0114226Y0102972D01*
X0114343Y0103014D01*
X0114462Y0103053D01*
X0114582Y0103089D01*
X0114703Y0103120D01*
X0114825Y0103148D01*
X0114947Y0103171D01*
X0115071Y0103191D01*
X0115195Y0103207D01*
X0115319Y0103219D01*
X0115444Y0103227D01*
X0115569Y0103231D01*
X0115693Y0103231D01*
X0115818Y0103227D01*
X0115943Y0103219D01*
X0116067Y0103207D01*
X0116191Y0103191D01*
X0116315Y0103171D01*
X0116437Y0103148D01*
X0116559Y0103120D01*
X0116680Y0103089D01*
X0116800Y0103053D01*
X0116919Y0103014D01*
X0117036Y0102972D01*
X0117152Y0102925D01*
X0117266Y0102875D01*
X0117379Y0102822D01*
X0117490Y0102764D01*
X0117600Y0102704D01*
X0117707Y0102639D01*
X0117812Y0102572D01*
X0117915Y0102501D01*
X0118015Y0102427D01*
X0118113Y0102350D01*
X0118209Y0102269D01*
X0118302Y0102186D01*
X0118393Y0102100D01*
X0118480Y0102011D01*
X0118565Y0101919D01*
X0118647Y0101825D01*
X0118726Y0101728D01*
X0118801Y0101628D01*
X0118874Y0101527D01*
X0118943Y0101423D01*
X0119009Y0101316D01*
X0119071Y0101208D01*
X0119130Y0101098D01*
X0119186Y0100986D01*
X0119238Y0100872D01*
X0119286Y0100757D01*
X0119331Y0100641D01*
X0119371Y0100522D01*
X0119409Y0100403D01*
X0119442Y0100283D01*
X0119471Y0100161D01*
X0119497Y0100039D01*
X0119519Y0099916D01*
X0119536Y0099792D01*
X0119550Y0099668D01*
X0119560Y0099544D01*
X0119566Y0099419D01*
X0119568Y0099294D01*
X0119566Y0099169D01*
X0119560Y0099044D01*
X0119550Y0098920D01*
X0119536Y0098796D01*
X0119519Y0098672D01*
X0119497Y0098549D01*
X0119471Y0098427D01*
X0119442Y0098305D01*
X0119409Y0098185D01*
X0119371Y0098066D01*
X0119331Y0097947D01*
X0119286Y0097831D01*
X0119238Y0097716D01*
X0119186Y0097602D01*
X0119130Y0097490D01*
X0119071Y0097380D01*
X0119009Y0097272D01*
X0118943Y0097165D01*
X0118874Y0097061D01*
X0118801Y0096960D01*
X0118726Y0096860D01*
X0118647Y0096763D01*
X0118565Y0096669D01*
X0118480Y0096577D01*
X0118393Y0096488D01*
X0118302Y0096402D01*
X0118209Y0096319D01*
X0118113Y0096238D01*
X0118015Y0096161D01*
X0117915Y0096087D01*
X0117812Y0096016D01*
X0117707Y0095949D01*
X0117599Y0095884D01*
X0117490Y0095824D01*
X0117379Y0095766D01*
X0117266Y0095713D01*
X0117152Y0095663D01*
X0117036Y0095616D01*
X0116919Y0095574D01*
X0116800Y0095535D01*
X0116680Y0095499D01*
X0116559Y0095468D01*
X0116437Y0095440D01*
X0116315Y0095417D01*
X0116191Y0095397D01*
X0116067Y0095381D01*
X0115943Y0095369D01*
X0115818Y0095361D01*
X0115693Y0095357D01*
X0115569Y0095357D01*
X0115444Y0095361D01*
X0115319Y0095369D01*
X0115195Y0095381D01*
X0115071Y0095397D01*
X0114947Y0095417D01*
X0114825Y0095440D01*
X0114703Y0095468D01*
X0114582Y0095499D01*
X0114462Y0095535D01*
X0114343Y0095574D01*
X0114226Y0095616D01*
X0114110Y0095663D01*
X0113996Y0095713D01*
X0113883Y0095766D01*
X0113772Y0095824D01*
X0113662Y0095884D01*
X0113555Y0095949D01*
X0113450Y0096016D01*
X0113347Y0096087D01*
X0113247Y0096161D01*
X0113149Y0096238D01*
X0113053Y0096319D01*
X0112960Y0096402D01*
X0112869Y0096488D01*
X0112782Y0096577D01*
X0112697Y0096669D01*
X0112615Y0096763D01*
X0112536Y0096860D01*
X0112461Y0096960D01*
X0112388Y0097061D01*
X0112319Y0097165D01*
X0112253Y0097272D01*
X0112191Y0097380D01*
X0112132Y0097490D01*
X0112076Y0097602D01*
X0112024Y0097716D01*
X0111976Y0097831D01*
X0111931Y0097947D01*
X0111891Y0098066D01*
X0111853Y0098185D01*
X0111820Y0098305D01*
X0111791Y0098427D01*
X0111765Y0098549D01*
X0111743Y0098672D01*
X0111726Y0098796D01*
X0111712Y0098920D01*
X0111702Y0099044D01*
X0111696Y0099169D01*
X0111694Y0099294D01*
M02*
