G75*
%MOIN*%
%OFA0B0*%
%FSLAX25Y25*%
%IPPOS*%
%LPD*%
%AMOC8*
5,1,8,0,0,1.08239X$1,22.5*
%
%ADD10OC8,0.06000*%
%ADD11C,0.03543*%
%ADD12C,0.01784*%
%ADD13C,0.03937*%
%ADD14C,0.00787*%
%ADD15C,0.01800*%
%ADD16C,0.06496*%
D10*
X0006300Y0027890D03*
X0016300Y0027890D03*
X0016300Y0037890D03*
X0006300Y0037890D03*
X0191851Y0018205D03*
X0201851Y0018205D03*
X0211851Y0018205D03*
X0211851Y0008205D03*
X0201851Y0008205D03*
X0191851Y0008205D03*
X0295355Y0007890D03*
X0305355Y0007890D03*
X0305355Y0017890D03*
X0295355Y0017890D03*
X0295355Y0027890D03*
X0305355Y0027890D03*
X0305355Y0037890D03*
X0295355Y0037890D03*
X0295355Y0047890D03*
X0305355Y0047890D03*
X0305355Y0057890D03*
X0295355Y0057890D03*
D11*
X0236694Y0052969D03*
D12*
X0205001Y0046079D03*
X0192796Y0056512D03*
X0107166Y0043126D03*
X0087481Y0014583D03*
D13*
X0044765Y0032890D03*
X0229804Y0044701D03*
X0267206Y0022850D03*
D14*
X0109977Y0007681D02*
X0029473Y0007681D01*
X0030887Y0006895D02*
X0110302Y0006895D01*
X0110628Y0006109D02*
X0032302Y0006109D01*
X0033717Y0005323D02*
X0111329Y0005323D01*
X0110688Y0005965D02*
X0112328Y0004325D01*
X0114471Y0003437D01*
X0116791Y0003437D01*
X0118934Y0004325D01*
X0120574Y0005965D01*
X0121461Y0008108D01*
X0121461Y0010428D01*
X0120574Y0012571D01*
X0118934Y0014211D01*
X0116791Y0015098D01*
X0114471Y0015098D01*
X0112328Y0014211D01*
X0110688Y0012571D01*
X0109800Y0010428D01*
X0109800Y0008108D01*
X0110688Y0005965D01*
X0112115Y0004537D02*
X0035131Y0004537D01*
X0036546Y0003751D02*
X0113712Y0003751D01*
X0117550Y0003751D02*
X0259381Y0003751D01*
X0260140Y0003437D02*
X0262460Y0003437D01*
X0264603Y0004325D01*
X0266243Y0005965D01*
X0267131Y0008108D01*
X0267131Y0010428D01*
X0266243Y0012571D01*
X0264603Y0014211D01*
X0262460Y0015098D01*
X0260140Y0015098D01*
X0257997Y0014211D01*
X0256357Y0012571D01*
X0255469Y0010428D01*
X0255469Y0008108D01*
X0256357Y0005965D01*
X0257997Y0004325D01*
X0260140Y0003437D01*
X0257784Y0004537D02*
X0214397Y0004537D01*
X0213671Y0003811D02*
X0216245Y0006385D01*
X0216245Y0007811D01*
X0212245Y0007811D01*
X0212245Y0008598D01*
X0216245Y0008598D01*
X0216245Y0010025D01*
X0213671Y0012598D01*
X0212245Y0012598D01*
X0212245Y0008598D01*
X0211457Y0008598D01*
X0211457Y0007811D01*
X0207457Y0007811D01*
X0207457Y0006385D01*
X0210031Y0003811D01*
X0211457Y0003811D01*
X0211457Y0007811D01*
X0212245Y0007811D01*
X0212245Y0003811D01*
X0213671Y0003811D01*
X0212245Y0004537D02*
X0211457Y0004537D01*
X0211457Y0005323D02*
X0212245Y0005323D01*
X0212245Y0006109D02*
X0211457Y0006109D01*
X0211457Y0006895D02*
X0212245Y0006895D01*
X0212245Y0007681D02*
X0211457Y0007681D01*
X0211457Y0008467D02*
X0202245Y0008467D01*
X0202245Y0008598D02*
X0206245Y0008598D01*
X0206245Y0010025D01*
X0203671Y0012598D01*
X0202245Y0012598D01*
X0202245Y0008598D01*
X0202245Y0007811D01*
X0206245Y0007811D01*
X0206245Y0006385D01*
X0203671Y0003811D01*
X0202245Y0003811D01*
X0202245Y0007811D01*
X0201457Y0007811D01*
X0197457Y0007811D01*
X0197457Y0006385D01*
X0200031Y0003811D01*
X0201457Y0003811D01*
X0201457Y0007811D01*
X0201457Y0008598D01*
X0197457Y0008598D01*
X0197457Y0010025D01*
X0200031Y0012598D01*
X0201457Y0012598D01*
X0201457Y0008598D01*
X0202245Y0008598D01*
X0202245Y0009253D02*
X0201457Y0009253D01*
X0201457Y0010039D02*
X0202245Y0010039D01*
X0202245Y0010825D02*
X0201457Y0010825D01*
X0201457Y0011611D02*
X0202245Y0011611D01*
X0202245Y0012396D02*
X0201457Y0012396D01*
X0199829Y0012396D02*
X0193873Y0012396D01*
X0193671Y0012598D02*
X0192245Y0012598D01*
X0192245Y0008598D01*
X0196245Y0008598D01*
X0196245Y0010025D01*
X0193671Y0012598D01*
X0194659Y0011611D02*
X0199043Y0011611D01*
X0198257Y0010825D02*
X0195445Y0010825D01*
X0196231Y0010039D02*
X0197472Y0010039D01*
X0197457Y0009253D02*
X0196245Y0009253D01*
X0196245Y0007811D02*
X0192245Y0007811D01*
X0192245Y0008598D01*
X0191457Y0008598D01*
X0191457Y0007811D01*
X0187457Y0007811D01*
X0187457Y0006385D01*
X0190031Y0003811D01*
X0191457Y0003811D01*
X0191457Y0007811D01*
X0192245Y0007811D01*
X0192245Y0003811D01*
X0193671Y0003811D01*
X0196245Y0006385D01*
X0196245Y0007811D01*
X0196245Y0007681D02*
X0197457Y0007681D01*
X0197457Y0006895D02*
X0196245Y0006895D01*
X0195969Y0006109D02*
X0197733Y0006109D01*
X0198519Y0005323D02*
X0195183Y0005323D01*
X0194397Y0004537D02*
X0199305Y0004537D01*
X0201457Y0004537D02*
X0202245Y0004537D01*
X0202245Y0005323D02*
X0201457Y0005323D01*
X0201457Y0006109D02*
X0202245Y0006109D01*
X0202245Y0006895D02*
X0201457Y0006895D01*
X0201457Y0007681D02*
X0202245Y0007681D01*
X0201457Y0008467D02*
X0192245Y0008467D01*
X0192245Y0009253D02*
X0191457Y0009253D01*
X0191457Y0008598D02*
X0191457Y0012598D01*
X0190031Y0012598D01*
X0187457Y0010025D01*
X0187457Y0008598D01*
X0191457Y0008598D01*
X0191457Y0008467D02*
X0121461Y0008467D01*
X0121461Y0009253D02*
X0187457Y0009253D01*
X0187472Y0010039D02*
X0121461Y0010039D01*
X0121297Y0010825D02*
X0188257Y0010825D01*
X0189043Y0011611D02*
X0120971Y0011611D01*
X0120646Y0012396D02*
X0189829Y0012396D01*
X0191457Y0012396D02*
X0192245Y0012396D01*
X0192245Y0011611D02*
X0191457Y0011611D01*
X0191457Y0010825D02*
X0192245Y0010825D01*
X0192245Y0010039D02*
X0191457Y0010039D01*
X0191457Y0007681D02*
X0192245Y0007681D01*
X0192245Y0006895D02*
X0191457Y0006895D01*
X0191457Y0006109D02*
X0192245Y0006109D01*
X0192245Y0005323D02*
X0191457Y0005323D01*
X0191457Y0004537D02*
X0192245Y0004537D01*
X0189305Y0004537D02*
X0119146Y0004537D01*
X0119932Y0005323D02*
X0188519Y0005323D01*
X0187733Y0006109D02*
X0120634Y0006109D01*
X0120959Y0006895D02*
X0187457Y0006895D01*
X0187457Y0007681D02*
X0121285Y0007681D01*
X0109800Y0008467D02*
X0028058Y0008467D01*
X0026643Y0009253D02*
X0109800Y0009253D01*
X0109800Y0010039D02*
X0025229Y0010039D01*
X0023814Y0010825D02*
X0109965Y0010825D01*
X0110290Y0011611D02*
X0022400Y0011611D01*
X0020985Y0012396D02*
X0099636Y0012396D01*
X0099145Y0012599D02*
X0100773Y0011925D01*
X0102535Y0011925D01*
X0104163Y0012599D01*
X0105409Y0013845D01*
X0106083Y0015473D01*
X0106083Y0017235D01*
X0105409Y0018863D01*
X0104163Y0020109D01*
X0102535Y0020783D01*
X0100773Y0020783D01*
X0099145Y0020109D01*
X0097899Y0018863D01*
X0097225Y0017235D01*
X0097225Y0015473D01*
X0097899Y0013845D01*
X0099145Y0012599D01*
X0098563Y0013182D02*
X0089013Y0013182D01*
X0089554Y0013724D02*
X0088340Y0012509D01*
X0086622Y0012509D01*
X0085408Y0013724D01*
X0085408Y0015441D01*
X0086622Y0016656D01*
X0088340Y0016656D01*
X0089554Y0015441D01*
X0089554Y0013724D01*
X0089554Y0013968D02*
X0097849Y0013968D01*
X0097523Y0014754D02*
X0089554Y0014754D01*
X0089456Y0015540D02*
X0097225Y0015540D01*
X0097225Y0016326D02*
X0088670Y0016326D01*
X0086292Y0016326D02*
X0013912Y0016326D01*
X0015326Y0015540D02*
X0085507Y0015540D01*
X0085408Y0014754D02*
X0016741Y0014754D01*
X0018156Y0013968D02*
X0085408Y0013968D01*
X0085949Y0013182D02*
X0019570Y0013182D01*
X0012497Y0017112D02*
X0097225Y0017112D01*
X0097500Y0017898D02*
X0011082Y0017898D01*
X0009668Y0018684D02*
X0097825Y0018684D01*
X0098506Y0019470D02*
X0008253Y0019470D01*
X0006838Y0020256D02*
X0099499Y0020256D01*
X0103810Y0020256D02*
X0142769Y0020256D01*
X0142978Y0019751D02*
X0144224Y0018505D01*
X0145852Y0017831D01*
X0147614Y0017831D01*
X0149242Y0018505D01*
X0150488Y0019751D01*
X0151162Y0021379D01*
X0151162Y0023141D01*
X0150488Y0024769D01*
X0149242Y0026015D01*
X0147614Y0026689D01*
X0145852Y0026689D01*
X0144224Y0026015D01*
X0142978Y0024769D01*
X0142304Y0023141D01*
X0142304Y0021379D01*
X0142978Y0019751D01*
X0143259Y0019470D02*
X0104803Y0019470D01*
X0105483Y0018684D02*
X0144045Y0018684D01*
X0145690Y0017898D02*
X0105809Y0017898D01*
X0106083Y0017112D02*
X0187670Y0017112D01*
X0187670Y0016473D02*
X0190119Y0014024D01*
X0193583Y0014024D01*
X0196032Y0016473D01*
X0196032Y0019937D01*
X0193583Y0022386D01*
X0190119Y0022386D01*
X0187670Y0019937D01*
X0187670Y0016473D01*
X0187817Y0016326D02*
X0106083Y0016326D01*
X0106083Y0015540D02*
X0188603Y0015540D01*
X0189389Y0014754D02*
X0117621Y0014754D01*
X0119176Y0013968D02*
X0243274Y0013968D01*
X0243274Y0013721D02*
X0244493Y0012502D01*
X0246217Y0012502D01*
X0247436Y0013721D01*
X0247436Y0015445D01*
X0246822Y0016059D01*
X0247043Y0016280D01*
X0247043Y0018004D01*
X0245823Y0019223D01*
X0244099Y0019223D01*
X0242880Y0018004D01*
X0242880Y0016280D01*
X0243495Y0015665D01*
X0243274Y0015445D01*
X0243274Y0013721D01*
X0243812Y0013182D02*
X0119962Y0013182D01*
X0113640Y0014754D02*
X0105786Y0014754D01*
X0105460Y0013968D02*
X0112085Y0013968D01*
X0111300Y0013182D02*
X0104746Y0013182D01*
X0103673Y0012396D02*
X0110616Y0012396D01*
X0142444Y0021042D02*
X0005424Y0021042D01*
X0004009Y0021827D02*
X0142304Y0021827D01*
X0142304Y0022613D02*
X0003351Y0022613D01*
X0003351Y0022193D02*
X0003351Y0024926D01*
X0004568Y0023709D01*
X0008032Y0023709D01*
X0010481Y0026158D01*
X0010481Y0029622D01*
X0008032Y0032071D01*
X0004568Y0032071D01*
X0003351Y0030854D01*
X0003351Y0034926D01*
X0004568Y0033709D01*
X0008032Y0033709D01*
X0010481Y0036158D01*
X0010481Y0039622D01*
X0008032Y0042071D01*
X0004568Y0042071D01*
X0003351Y0040854D01*
X0003351Y0043587D01*
X0037381Y0062492D01*
X0289154Y0062492D01*
X0289154Y0012872D01*
X0289904Y0012122D01*
X0293374Y0012122D01*
X0290961Y0009710D01*
X0290961Y0008283D01*
X0294961Y0008283D01*
X0294961Y0007496D01*
X0290961Y0007496D01*
X0290961Y0006070D01*
X0293535Y0003496D01*
X0294961Y0003496D01*
X0294961Y0007496D01*
X0295749Y0007496D01*
X0295749Y0008283D01*
X0299749Y0008283D01*
X0299749Y0009710D01*
X0297336Y0012122D01*
X0303374Y0012122D01*
X0300961Y0009710D01*
X0300961Y0008283D01*
X0304961Y0008283D01*
X0304961Y0007496D01*
X0300961Y0007496D01*
X0300961Y0006070D01*
X0303535Y0003496D01*
X0304961Y0003496D01*
X0304961Y0007496D01*
X0305749Y0007496D01*
X0305749Y0008283D01*
X0309749Y0008283D01*
X0309749Y0009710D01*
X0307336Y0012122D01*
X0318461Y0012122D01*
X0318461Y0009268D01*
X0318388Y0008332D01*
X0317810Y0006553D01*
X0316710Y0005039D01*
X0315196Y0003939D01*
X0313417Y0003361D01*
X0312481Y0003287D01*
X0290631Y0003287D01*
X0290631Y0011236D01*
X0313072Y0011236D01*
X0313072Y0003334D01*
X0312481Y0003287D01*
X0037381Y0003287D01*
X0003351Y0022193D01*
X0003351Y0023399D02*
X0142411Y0023399D01*
X0142737Y0024185D02*
X0018508Y0024185D01*
X0018032Y0023709D02*
X0020481Y0026158D01*
X0020481Y0029622D01*
X0018032Y0032071D01*
X0014568Y0032071D01*
X0012119Y0029622D01*
X0012119Y0026158D01*
X0014568Y0023709D01*
X0018032Y0023709D01*
X0019294Y0024971D02*
X0143181Y0024971D01*
X0143966Y0025757D02*
X0020080Y0025757D01*
X0020481Y0026543D02*
X0145499Y0026543D01*
X0147967Y0026543D02*
X0289154Y0026543D01*
X0289154Y0027329D02*
X0020481Y0027329D01*
X0020481Y0028115D02*
X0289154Y0028115D01*
X0289154Y0028901D02*
X0020481Y0028901D01*
X0020416Y0029687D02*
X0289154Y0029687D01*
X0289154Y0030472D02*
X0194700Y0030472D01*
X0194445Y0030218D02*
X0195665Y0031437D01*
X0195665Y0033161D01*
X0194445Y0034380D01*
X0192721Y0034380D01*
X0191502Y0033161D01*
X0191502Y0031437D01*
X0192721Y0030218D01*
X0194445Y0030218D01*
X0195486Y0031258D02*
X0289154Y0031258D01*
X0289154Y0032044D02*
X0195665Y0032044D01*
X0195665Y0032830D02*
X0289154Y0032830D01*
X0289154Y0033616D02*
X0195210Y0033616D01*
X0191957Y0033616D02*
X0097178Y0033616D01*
X0097633Y0033161D02*
X0096414Y0034380D01*
X0094690Y0034380D01*
X0093471Y0033161D01*
X0093471Y0031437D01*
X0094690Y0030218D01*
X0096414Y0030218D01*
X0097633Y0031437D01*
X0097633Y0033161D01*
X0097633Y0032830D02*
X0191502Y0032830D01*
X0191502Y0032044D02*
X0097633Y0032044D01*
X0097454Y0031258D02*
X0191681Y0031258D01*
X0192467Y0030472D02*
X0096668Y0030472D01*
X0094436Y0030472D02*
X0046801Y0030472D01*
X0046549Y0030220D02*
X0047435Y0031106D01*
X0047914Y0032263D01*
X0047914Y0033516D01*
X0047435Y0034674D01*
X0046549Y0035560D01*
X0045391Y0036039D01*
X0044138Y0036039D01*
X0042980Y0035560D01*
X0042094Y0034674D01*
X0041615Y0033516D01*
X0041615Y0032263D01*
X0042094Y0031106D01*
X0042980Y0030220D01*
X0044138Y0029740D01*
X0045391Y0029740D01*
X0046549Y0030220D01*
X0047498Y0031258D02*
X0093650Y0031258D01*
X0093471Y0032044D02*
X0047823Y0032044D01*
X0047914Y0032830D02*
X0093471Y0032830D01*
X0093926Y0033616D02*
X0047873Y0033616D01*
X0047547Y0034402D02*
X0085585Y0034402D01*
X0085635Y0034352D02*
X0087359Y0034352D01*
X0088578Y0035571D01*
X0088578Y0036555D01*
X0089759Y0037736D01*
X0089759Y0039460D01*
X0088540Y0040680D01*
X0086816Y0040680D01*
X0086497Y0040360D01*
X0086178Y0040680D01*
X0084454Y0040680D01*
X0083235Y0039460D01*
X0083235Y0037736D01*
X0084416Y0036555D01*
X0084416Y0035571D01*
X0085635Y0034352D01*
X0084799Y0035188D02*
X0046921Y0035188D01*
X0045549Y0035974D02*
X0084416Y0035974D01*
X0084211Y0036760D02*
X0020481Y0036760D01*
X0020481Y0036158D02*
X0018032Y0033709D01*
X0014568Y0033709D01*
X0012119Y0036158D01*
X0012119Y0039622D01*
X0014568Y0042071D01*
X0018032Y0042071D01*
X0020481Y0039622D01*
X0020481Y0036158D01*
X0020297Y0035974D02*
X0043980Y0035974D01*
X0042609Y0035188D02*
X0019511Y0035188D01*
X0018725Y0034402D02*
X0041982Y0034402D01*
X0041656Y0033616D02*
X0003351Y0033616D01*
X0003351Y0032830D02*
X0041615Y0032830D01*
X0041706Y0032044D02*
X0018058Y0032044D01*
X0018844Y0031258D02*
X0042031Y0031258D01*
X0042728Y0030472D02*
X0019630Y0030472D01*
X0014542Y0032044D02*
X0008058Y0032044D01*
X0008844Y0031258D02*
X0013756Y0031258D01*
X0012970Y0030472D02*
X0009630Y0030472D01*
X0010416Y0029687D02*
X0012184Y0029687D01*
X0012119Y0028901D02*
X0010481Y0028901D01*
X0010481Y0028115D02*
X0012119Y0028115D01*
X0012119Y0027329D02*
X0010481Y0027329D01*
X0010481Y0026543D02*
X0012119Y0026543D01*
X0012520Y0025757D02*
X0010080Y0025757D01*
X0009294Y0024971D02*
X0013306Y0024971D01*
X0014092Y0024185D02*
X0008508Y0024185D01*
X0004092Y0024185D02*
X0003351Y0024185D01*
X0003351Y0031258D02*
X0003756Y0031258D01*
X0003351Y0032044D02*
X0004542Y0032044D01*
X0003875Y0034402D02*
X0003351Y0034402D01*
X0008725Y0034402D02*
X0013875Y0034402D01*
X0013089Y0035188D02*
X0009511Y0035188D01*
X0010297Y0035974D02*
X0012303Y0035974D01*
X0012119Y0036760D02*
X0010481Y0036760D01*
X0010481Y0037546D02*
X0012119Y0037546D01*
X0012119Y0038332D02*
X0010481Y0038332D01*
X0010481Y0039118D02*
X0012119Y0039118D01*
X0012401Y0039903D02*
X0010199Y0039903D01*
X0009413Y0040689D02*
X0013187Y0040689D01*
X0013973Y0041475D02*
X0008627Y0041475D01*
X0003973Y0041475D02*
X0003351Y0041475D01*
X0003351Y0042261D02*
X0105099Y0042261D01*
X0105093Y0042267D02*
X0106307Y0041053D01*
X0108025Y0041053D01*
X0109239Y0042267D01*
X0109239Y0043985D01*
X0108025Y0045199D01*
X0106307Y0045199D01*
X0105093Y0043985D01*
X0105093Y0042267D01*
X0105093Y0043047D02*
X0003351Y0043047D01*
X0003795Y0043833D02*
X0105093Y0043833D01*
X0105727Y0044619D02*
X0005209Y0044619D01*
X0006624Y0045405D02*
X0202928Y0045405D01*
X0202928Y0045220D02*
X0204142Y0044006D01*
X0205860Y0044006D01*
X0207074Y0045220D01*
X0207074Y0046937D01*
X0205860Y0048152D01*
X0204142Y0048152D01*
X0202928Y0046937D01*
X0202928Y0045220D01*
X0203529Y0044619D02*
X0181845Y0044619D01*
X0181650Y0044813D02*
X0179926Y0044813D01*
X0178707Y0043594D01*
X0178707Y0041870D01*
X0179926Y0040651D01*
X0181650Y0040651D01*
X0182869Y0041870D01*
X0182869Y0043594D01*
X0181650Y0044813D01*
X0182631Y0043833D02*
X0211975Y0043833D01*
X0211975Y0044382D02*
X0211975Y0042658D01*
X0213194Y0041439D01*
X0214918Y0041439D01*
X0216137Y0042658D01*
X0216137Y0044382D01*
X0215916Y0044602D01*
X0216137Y0044823D01*
X0216137Y0046547D01*
X0215916Y0046768D01*
X0216137Y0046988D01*
X0216137Y0048712D01*
X0214918Y0049931D01*
X0213194Y0049931D01*
X0211975Y0048712D01*
X0211975Y0046988D01*
X0212195Y0046768D01*
X0211975Y0046547D01*
X0211975Y0044823D01*
X0212195Y0044602D01*
X0211975Y0044382D01*
X0212179Y0044619D02*
X0206473Y0044619D01*
X0207074Y0045405D02*
X0211975Y0045405D01*
X0211975Y0046191D02*
X0207074Y0046191D01*
X0207035Y0046977D02*
X0211987Y0046977D01*
X0211975Y0047763D02*
X0206249Y0047763D01*
X0203753Y0047763D02*
X0089943Y0047763D01*
X0089956Y0047776D02*
X0089956Y0049500D01*
X0088775Y0050681D01*
X0088775Y0051271D01*
X0087556Y0052491D01*
X0085832Y0052491D01*
X0084613Y0051271D01*
X0084613Y0050681D01*
X0083431Y0049500D01*
X0083431Y0047776D01*
X0084651Y0046557D01*
X0086375Y0046557D01*
X0086694Y0046876D01*
X0087013Y0046557D01*
X0088737Y0046557D01*
X0089956Y0047776D01*
X0089956Y0048548D02*
X0211975Y0048548D01*
X0212597Y0049334D02*
X0089956Y0049334D01*
X0089335Y0050120D02*
X0235854Y0050120D01*
X0236106Y0050016D02*
X0237281Y0050016D01*
X0238366Y0050465D01*
X0239197Y0051296D01*
X0239646Y0052381D01*
X0239646Y0053556D01*
X0239197Y0054641D01*
X0238366Y0055472D01*
X0237281Y0055921D01*
X0236106Y0055921D01*
X0235021Y0055472D01*
X0234190Y0054641D01*
X0233741Y0053556D01*
X0233741Y0052381D01*
X0234190Y0051296D01*
X0235021Y0050465D01*
X0236106Y0050016D01*
X0237533Y0050120D02*
X0282268Y0050120D01*
X0282682Y0049706D02*
X0284406Y0049706D01*
X0285625Y0050925D01*
X0285625Y0052649D01*
X0284406Y0053868D01*
X0282682Y0053868D01*
X0281463Y0052649D01*
X0281463Y0050925D01*
X0282682Y0049706D01*
X0281482Y0050906D02*
X0263003Y0050906D01*
X0262460Y0050681D02*
X0264603Y0051569D01*
X0266243Y0053209D01*
X0267131Y0055352D01*
X0267131Y0057672D01*
X0266243Y0059815D01*
X0264603Y0061455D01*
X0262460Y0062343D01*
X0260140Y0062343D01*
X0257997Y0061455D01*
X0256357Y0059815D01*
X0255469Y0057672D01*
X0255469Y0055352D01*
X0256357Y0053209D01*
X0257997Y0051569D01*
X0260140Y0050681D01*
X0262460Y0050681D01*
X0264726Y0051692D02*
X0281463Y0051692D01*
X0281463Y0052478D02*
X0265512Y0052478D01*
X0266266Y0053264D02*
X0282078Y0053264D01*
X0285011Y0053264D02*
X0289154Y0053264D01*
X0289154Y0054050D02*
X0266591Y0054050D01*
X0266917Y0054836D02*
X0289154Y0054836D01*
X0289154Y0055622D02*
X0267131Y0055622D01*
X0267131Y0056408D02*
X0289154Y0056408D01*
X0289154Y0057194D02*
X0267131Y0057194D01*
X0267003Y0057979D02*
X0289154Y0057979D01*
X0289154Y0058765D02*
X0266678Y0058765D01*
X0266352Y0059551D02*
X0289154Y0059551D01*
X0289154Y0060337D02*
X0265720Y0060337D01*
X0264935Y0061123D02*
X0289154Y0061123D01*
X0289154Y0061909D02*
X0263506Y0061909D01*
X0259094Y0061909D02*
X0117837Y0061909D01*
X0116791Y0062343D02*
X0118934Y0061455D01*
X0120574Y0059815D01*
X0121461Y0057672D01*
X0121461Y0055352D01*
X0120574Y0053209D01*
X0118934Y0051569D01*
X0116791Y0050681D01*
X0114471Y0050681D01*
X0112328Y0051569D01*
X0110688Y0053209D01*
X0109800Y0055352D01*
X0109800Y0057672D01*
X0110688Y0059815D01*
X0112328Y0061455D01*
X0114471Y0062343D01*
X0116791Y0062343D01*
X0113424Y0061909D02*
X0036332Y0061909D01*
X0034917Y0061123D02*
X0111996Y0061123D01*
X0111210Y0060337D02*
X0033502Y0060337D01*
X0032088Y0059551D02*
X0110579Y0059551D01*
X0110253Y0058765D02*
X0030673Y0058765D01*
X0029258Y0057979D02*
X0109928Y0057979D01*
X0109800Y0057194D02*
X0027844Y0057194D01*
X0026429Y0056408D02*
X0109800Y0056408D01*
X0109800Y0055622D02*
X0025014Y0055622D01*
X0023600Y0054836D02*
X0110014Y0054836D01*
X0110339Y0054050D02*
X0022185Y0054050D01*
X0020771Y0053264D02*
X0110665Y0053264D01*
X0111419Y0052478D02*
X0087568Y0052478D01*
X0088354Y0051692D02*
X0112205Y0051692D01*
X0113927Y0050906D02*
X0088775Y0050906D01*
X0085033Y0051692D02*
X0017941Y0051692D01*
X0016527Y0050906D02*
X0079523Y0050906D01*
X0079926Y0051309D02*
X0078707Y0050090D01*
X0078707Y0048366D01*
X0079926Y0047147D01*
X0081650Y0047147D01*
X0082869Y0048366D01*
X0082869Y0050090D01*
X0081650Y0051309D01*
X0079926Y0051309D01*
X0082053Y0050906D02*
X0084613Y0050906D01*
X0084052Y0050120D02*
X0082839Y0050120D01*
X0082869Y0049334D02*
X0083431Y0049334D01*
X0083431Y0048548D02*
X0082869Y0048548D01*
X0083445Y0047763D02*
X0082266Y0047763D01*
X0084231Y0046977D02*
X0009453Y0046977D01*
X0008039Y0046191D02*
X0202928Y0046191D01*
X0202967Y0046977D02*
X0089157Y0046977D01*
X0079311Y0047763D02*
X0010868Y0047763D01*
X0012283Y0048548D02*
X0078707Y0048548D01*
X0078707Y0049334D02*
X0013697Y0049334D01*
X0015112Y0050120D02*
X0078737Y0050120D01*
X0085819Y0052478D02*
X0019356Y0052478D01*
X0018627Y0041475D02*
X0105885Y0041475D01*
X0108447Y0041475D02*
X0150362Y0041475D01*
X0150361Y0041477D02*
X0151580Y0040257D01*
X0153304Y0040257D01*
X0154523Y0041477D01*
X0154523Y0043201D01*
X0153304Y0044420D01*
X0151580Y0044420D01*
X0150361Y0043201D01*
X0150361Y0041477D01*
X0150361Y0042261D02*
X0109233Y0042261D01*
X0109239Y0043047D02*
X0150361Y0043047D01*
X0150993Y0043833D02*
X0109239Y0043833D01*
X0108605Y0044619D02*
X0179732Y0044619D01*
X0178946Y0043833D02*
X0153890Y0043833D01*
X0154523Y0043047D02*
X0178707Y0043047D01*
X0178707Y0042261D02*
X0154523Y0042261D01*
X0154522Y0041475D02*
X0179102Y0041475D01*
X0179888Y0040689D02*
X0166286Y0040689D01*
X0165705Y0041270D02*
X0166924Y0040051D01*
X0166924Y0038327D01*
X0165705Y0037108D01*
X0163981Y0037108D01*
X0163761Y0037329D01*
X0163540Y0037108D01*
X0161816Y0037108D01*
X0161595Y0037329D01*
X0161375Y0037108D01*
X0159651Y0037108D01*
X0158431Y0038327D01*
X0158431Y0040051D01*
X0159651Y0041270D01*
X0161375Y0041270D01*
X0161595Y0041049D01*
X0161816Y0041270D01*
X0163540Y0041270D01*
X0163761Y0041049D01*
X0163981Y0041270D01*
X0165705Y0041270D01*
X0166924Y0039903D02*
X0211630Y0039903D01*
X0211187Y0039460D02*
X0211187Y0037736D01*
X0212406Y0036517D01*
X0214131Y0036517D01*
X0214351Y0036738D01*
X0214572Y0036517D01*
X0216296Y0036517D01*
X0216615Y0036836D01*
X0216934Y0036517D01*
X0218658Y0036517D01*
X0219877Y0037736D01*
X0219877Y0039460D01*
X0218658Y0040680D01*
X0216934Y0040680D01*
X0216615Y0040360D01*
X0216296Y0040680D01*
X0214572Y0040680D01*
X0214351Y0040459D01*
X0214131Y0040680D01*
X0212406Y0040680D01*
X0211187Y0039460D01*
X0211187Y0039118D02*
X0166924Y0039118D01*
X0166924Y0038332D02*
X0211187Y0038332D01*
X0211378Y0037546D02*
X0166143Y0037546D01*
X0159213Y0037546D02*
X0129075Y0037546D01*
X0129326Y0037295D02*
X0128107Y0038514D01*
X0126383Y0038514D01*
X0126064Y0038195D01*
X0125745Y0038514D01*
X0124021Y0038514D01*
X0122802Y0037295D01*
X0122802Y0035571D01*
X0124021Y0034352D01*
X0125745Y0034352D01*
X0126064Y0034671D01*
X0126383Y0034352D01*
X0128107Y0034352D01*
X0129326Y0035571D01*
X0129326Y0037295D01*
X0129326Y0036760D02*
X0212164Y0036760D01*
X0216538Y0036760D02*
X0216692Y0036760D01*
X0218901Y0036760D02*
X0289154Y0036760D01*
X0289154Y0037546D02*
X0219686Y0037546D01*
X0219877Y0038332D02*
X0289154Y0038332D01*
X0289154Y0039118D02*
X0219877Y0039118D01*
X0219434Y0039903D02*
X0289154Y0039903D01*
X0289154Y0040689D02*
X0287200Y0040689D01*
X0287162Y0040651D02*
X0288381Y0041870D01*
X0288381Y0043594D01*
X0287162Y0044813D01*
X0285438Y0044813D01*
X0284219Y0043594D01*
X0284219Y0041870D01*
X0285438Y0040651D01*
X0287162Y0040651D01*
X0287986Y0041475D02*
X0289154Y0041475D01*
X0289154Y0042261D02*
X0288381Y0042261D01*
X0288381Y0043047D02*
X0289154Y0043047D01*
X0289154Y0043833D02*
X0288142Y0043833D01*
X0287356Y0044619D02*
X0289154Y0044619D01*
X0289154Y0045405D02*
X0232921Y0045405D01*
X0232954Y0045327D02*
X0232474Y0046485D01*
X0231588Y0047371D01*
X0230430Y0047850D01*
X0229177Y0047850D01*
X0228020Y0047371D01*
X0227134Y0046485D01*
X0226654Y0045327D01*
X0226654Y0044074D01*
X0227134Y0042917D01*
X0228020Y0042031D01*
X0229177Y0041551D01*
X0230430Y0041551D01*
X0231588Y0042031D01*
X0232474Y0042917D01*
X0232954Y0044074D01*
X0232954Y0045327D01*
X0232954Y0044619D02*
X0285244Y0044619D01*
X0284458Y0043833D02*
X0232854Y0043833D01*
X0232528Y0043047D02*
X0284219Y0043047D01*
X0284219Y0042261D02*
X0231819Y0042261D01*
X0227789Y0042261D02*
X0215741Y0042261D01*
X0216137Y0043047D02*
X0227080Y0043047D01*
X0226754Y0043833D02*
X0216137Y0043833D01*
X0215933Y0044619D02*
X0226654Y0044619D01*
X0226686Y0045405D02*
X0216137Y0045405D01*
X0216137Y0046191D02*
X0227012Y0046191D01*
X0227626Y0046977D02*
X0216125Y0046977D01*
X0216137Y0047763D02*
X0228965Y0047763D01*
X0230642Y0047763D02*
X0289154Y0047763D01*
X0289154Y0048548D02*
X0216137Y0048548D01*
X0215515Y0049334D02*
X0289154Y0049334D01*
X0289154Y0050120D02*
X0284820Y0050120D01*
X0285606Y0050906D02*
X0289154Y0050906D01*
X0289154Y0051692D02*
X0285625Y0051692D01*
X0285625Y0052478D02*
X0289154Y0052478D01*
X0291910Y0050803D02*
X0318461Y0050803D01*
X0318461Y0044898D01*
X0291910Y0044898D01*
X0291910Y0050803D01*
X0291910Y0050120D02*
X0318461Y0050120D01*
X0318461Y0049334D02*
X0291910Y0049334D01*
X0291910Y0048548D02*
X0318461Y0048548D01*
X0318461Y0047763D02*
X0291910Y0047763D01*
X0291910Y0046977D02*
X0318461Y0046977D01*
X0318461Y0046191D02*
X0291910Y0046191D01*
X0291910Y0045405D02*
X0318461Y0045405D01*
X0318461Y0040764D02*
X0291910Y0040764D01*
X0291910Y0035252D01*
X0318461Y0035252D01*
X0318461Y0040764D01*
X0318461Y0040689D02*
X0291910Y0040689D01*
X0291910Y0039903D02*
X0318461Y0039903D01*
X0318461Y0039118D02*
X0291910Y0039118D01*
X0291910Y0038332D02*
X0318461Y0038332D01*
X0318461Y0037546D02*
X0291910Y0037546D01*
X0291910Y0036760D02*
X0318461Y0036760D01*
X0318461Y0035974D02*
X0291910Y0035974D01*
X0289154Y0035974D02*
X0129326Y0035974D01*
X0128943Y0035188D02*
X0289154Y0035188D01*
X0289154Y0034402D02*
X0128157Y0034402D01*
X0126333Y0034402D02*
X0125795Y0034402D01*
X0123971Y0034402D02*
X0087409Y0034402D01*
X0088195Y0035188D02*
X0123185Y0035188D01*
X0122802Y0035974D02*
X0088578Y0035974D01*
X0088782Y0036760D02*
X0122802Y0036760D01*
X0123052Y0037546D02*
X0089568Y0037546D01*
X0089759Y0038332D02*
X0123838Y0038332D01*
X0125927Y0038332D02*
X0126200Y0038332D01*
X0128289Y0038332D02*
X0158431Y0038332D01*
X0158431Y0039118D02*
X0089759Y0039118D01*
X0089316Y0039903D02*
X0158431Y0039903D01*
X0159070Y0040689D02*
X0153736Y0040689D01*
X0151148Y0040689D02*
X0019413Y0040689D01*
X0020199Y0039903D02*
X0083678Y0039903D01*
X0083235Y0039118D02*
X0020481Y0039118D01*
X0020481Y0038332D02*
X0083235Y0038332D01*
X0083425Y0037546D02*
X0020481Y0037546D01*
X0117334Y0050906D02*
X0234580Y0050906D01*
X0234026Y0051692D02*
X0119057Y0051692D01*
X0119843Y0052478D02*
X0233741Y0052478D01*
X0233741Y0053264D02*
X0120597Y0053264D01*
X0120922Y0054050D02*
X0233946Y0054050D01*
X0234385Y0054836D02*
X0121248Y0054836D01*
X0121461Y0055622D02*
X0235383Y0055622D01*
X0238004Y0055622D02*
X0255469Y0055622D01*
X0255469Y0056408D02*
X0121461Y0056408D01*
X0121461Y0057194D02*
X0255469Y0057194D01*
X0255597Y0057979D02*
X0121334Y0057979D01*
X0121008Y0058765D02*
X0255922Y0058765D01*
X0256248Y0059551D02*
X0120683Y0059551D01*
X0120051Y0060337D02*
X0256879Y0060337D01*
X0257665Y0061123D02*
X0119265Y0061123D01*
X0182869Y0043047D02*
X0211975Y0043047D01*
X0212371Y0042261D02*
X0182869Y0042261D01*
X0182474Y0041475D02*
X0213157Y0041475D01*
X0214955Y0041475D02*
X0284614Y0041475D01*
X0285400Y0040689D02*
X0181688Y0040689D01*
X0231982Y0046977D02*
X0289154Y0046977D01*
X0289154Y0046191D02*
X0232596Y0046191D01*
X0238807Y0050906D02*
X0259597Y0050906D01*
X0257874Y0051692D02*
X0239361Y0051692D01*
X0239646Y0052478D02*
X0257088Y0052478D01*
X0256334Y0053264D02*
X0239646Y0053264D01*
X0239442Y0054050D02*
X0256009Y0054050D01*
X0255683Y0054836D02*
X0239002Y0054836D01*
X0291910Y0054836D02*
X0318461Y0054836D01*
X0318461Y0054740D02*
X0291910Y0054740D01*
X0291910Y0061630D01*
X0315486Y0061630D01*
X0316710Y0060741D01*
X0317810Y0059227D01*
X0318388Y0057447D01*
X0318461Y0056512D01*
X0318461Y0054740D01*
X0318461Y0055622D02*
X0291910Y0055622D01*
X0291910Y0056408D02*
X0318461Y0056408D01*
X0318408Y0057194D02*
X0291910Y0057194D01*
X0291910Y0057979D02*
X0318215Y0057979D01*
X0317960Y0058765D02*
X0291910Y0058765D01*
X0291910Y0059551D02*
X0317574Y0059551D01*
X0317003Y0060337D02*
X0291910Y0060337D01*
X0291910Y0061123D02*
X0316183Y0061123D01*
X0318461Y0030921D02*
X0291910Y0030921D01*
X0291910Y0024819D01*
X0318461Y0024819D01*
X0318461Y0030921D01*
X0318461Y0030472D02*
X0291910Y0030472D01*
X0291910Y0029687D02*
X0318461Y0029687D01*
X0318461Y0028901D02*
X0291910Y0028901D01*
X0291910Y0028115D02*
X0318461Y0028115D01*
X0318461Y0027329D02*
X0291910Y0027329D01*
X0291910Y0026543D02*
X0318461Y0026543D01*
X0318461Y0025757D02*
X0291910Y0025757D01*
X0291910Y0024971D02*
X0318461Y0024971D01*
X0318461Y0020882D02*
X0291910Y0020882D01*
X0291910Y0014878D01*
X0318461Y0014878D01*
X0318461Y0020882D01*
X0318461Y0020256D02*
X0291910Y0020256D01*
X0291910Y0019470D02*
X0318461Y0019470D01*
X0318461Y0018684D02*
X0291910Y0018684D01*
X0291910Y0017898D02*
X0318461Y0017898D01*
X0318461Y0017112D02*
X0291910Y0017112D01*
X0291910Y0016326D02*
X0318461Y0016326D01*
X0318461Y0015540D02*
X0291910Y0015540D01*
X0289154Y0015540D02*
X0247341Y0015540D01*
X0247436Y0014754D02*
X0259309Y0014754D01*
X0257755Y0013968D02*
X0247436Y0013968D01*
X0246898Y0013182D02*
X0256969Y0013182D01*
X0256285Y0012396D02*
X0213873Y0012396D01*
X0214659Y0011611D02*
X0255959Y0011611D01*
X0255634Y0010825D02*
X0215445Y0010825D01*
X0216231Y0010039D02*
X0255469Y0010039D01*
X0255469Y0009253D02*
X0216245Y0009253D01*
X0216245Y0007681D02*
X0255646Y0007681D01*
X0255469Y0008467D02*
X0212245Y0008467D01*
X0212245Y0009253D02*
X0211457Y0009253D01*
X0211457Y0008598D02*
X0211457Y0012598D01*
X0210031Y0012598D01*
X0207457Y0010025D01*
X0207457Y0008598D01*
X0211457Y0008598D01*
X0211457Y0010039D02*
X0212245Y0010039D01*
X0212245Y0010825D02*
X0211457Y0010825D01*
X0211457Y0011611D02*
X0212245Y0011611D01*
X0212245Y0012396D02*
X0211457Y0012396D01*
X0209829Y0012396D02*
X0203873Y0012396D01*
X0204659Y0011611D02*
X0209043Y0011611D01*
X0208257Y0010825D02*
X0205445Y0010825D01*
X0206231Y0010039D02*
X0207472Y0010039D01*
X0207457Y0009253D02*
X0206245Y0009253D01*
X0206245Y0007681D02*
X0207457Y0007681D01*
X0207457Y0006895D02*
X0206245Y0006895D01*
X0205969Y0006109D02*
X0207733Y0006109D01*
X0208519Y0005323D02*
X0205183Y0005323D01*
X0204397Y0004537D02*
X0209305Y0004537D01*
X0215183Y0005323D02*
X0256999Y0005323D01*
X0256297Y0006109D02*
X0215969Y0006109D01*
X0216245Y0006895D02*
X0255972Y0006895D01*
X0265601Y0005323D02*
X0291708Y0005323D01*
X0290631Y0005323D02*
X0313072Y0005323D01*
X0313072Y0004537D02*
X0290631Y0004537D01*
X0290631Y0003751D02*
X0313072Y0003751D01*
X0314618Y0003751D02*
X0307430Y0003751D01*
X0307175Y0003496D02*
X0309749Y0006070D01*
X0309749Y0007496D01*
X0305749Y0007496D01*
X0305749Y0003496D01*
X0307175Y0003496D01*
X0305749Y0003751D02*
X0304961Y0003751D01*
X0304961Y0004537D02*
X0305749Y0004537D01*
X0305749Y0005323D02*
X0304961Y0005323D01*
X0304961Y0006109D02*
X0305749Y0006109D01*
X0305749Y0006895D02*
X0304961Y0006895D01*
X0304961Y0007681D02*
X0295749Y0007681D01*
X0295749Y0007496D02*
X0299749Y0007496D01*
X0299749Y0006070D01*
X0297175Y0003496D01*
X0295749Y0003496D01*
X0295749Y0007496D01*
X0295749Y0006895D02*
X0294961Y0006895D01*
X0294961Y0006109D02*
X0295749Y0006109D01*
X0295749Y0005323D02*
X0294961Y0005323D01*
X0294961Y0004537D02*
X0295749Y0004537D01*
X0295749Y0003751D02*
X0294961Y0003751D01*
X0293280Y0003751D02*
X0263219Y0003751D01*
X0264816Y0004537D02*
X0292494Y0004537D01*
X0297430Y0003751D02*
X0303280Y0003751D01*
X0302494Y0004537D02*
X0298216Y0004537D01*
X0299002Y0005323D02*
X0301708Y0005323D01*
X0300961Y0006109D02*
X0299749Y0006109D01*
X0299749Y0006895D02*
X0300961Y0006895D01*
X0294961Y0007681D02*
X0266954Y0007681D01*
X0267131Y0008467D02*
X0290961Y0008467D01*
X0290631Y0008467D02*
X0313072Y0008467D01*
X0313072Y0009253D02*
X0290631Y0009253D01*
X0290961Y0009253D02*
X0267131Y0009253D01*
X0267131Y0010039D02*
X0291290Y0010039D01*
X0290631Y0010039D02*
X0313072Y0010039D01*
X0313072Y0010825D02*
X0290631Y0010825D01*
X0292076Y0010825D02*
X0266966Y0010825D01*
X0266641Y0011611D02*
X0292862Y0011611D01*
X0289629Y0012396D02*
X0266315Y0012396D01*
X0265631Y0013182D02*
X0289154Y0013182D01*
X0289154Y0013968D02*
X0264845Y0013968D01*
X0263291Y0014754D02*
X0289154Y0014754D01*
X0289154Y0016326D02*
X0252207Y0016326D01*
X0252123Y0016242D02*
X0253342Y0017461D01*
X0253342Y0019185D01*
X0252924Y0019602D01*
X0253539Y0020217D01*
X0253539Y0021941D01*
X0252320Y0023160D01*
X0251373Y0023160D01*
X0251373Y0023319D01*
X0250154Y0024538D01*
X0248430Y0024538D01*
X0247211Y0023319D01*
X0247211Y0021595D01*
X0247727Y0021079D01*
X0247211Y0020563D01*
X0247211Y0018839D01*
X0248430Y0017620D01*
X0249180Y0017620D01*
X0249180Y0017461D01*
X0250399Y0016242D01*
X0252123Y0016242D01*
X0252993Y0017112D02*
X0289154Y0017112D01*
X0289154Y0017898D02*
X0253342Y0017898D01*
X0253342Y0018684D02*
X0289154Y0018684D01*
X0289154Y0019470D02*
X0253057Y0019470D01*
X0253539Y0020256D02*
X0265346Y0020256D01*
X0265421Y0020180D02*
X0266579Y0019701D01*
X0267832Y0019701D01*
X0268990Y0020180D01*
X0269876Y0021066D01*
X0270355Y0022224D01*
X0270355Y0023477D01*
X0269876Y0024634D01*
X0268990Y0025520D01*
X0267832Y0026000D01*
X0266579Y0026000D01*
X0265421Y0025520D01*
X0264535Y0024634D01*
X0264056Y0023477D01*
X0264056Y0022224D01*
X0264535Y0021066D01*
X0265421Y0020180D01*
X0264560Y0021042D02*
X0253539Y0021042D01*
X0253539Y0021827D02*
X0264220Y0021827D01*
X0264056Y0022613D02*
X0252866Y0022613D01*
X0251293Y0023399D02*
X0264056Y0023399D01*
X0264349Y0024185D02*
X0250507Y0024185D01*
X0248077Y0024185D02*
X0150730Y0024185D01*
X0151055Y0023399D02*
X0247292Y0023399D01*
X0247211Y0022613D02*
X0151162Y0022613D01*
X0151162Y0021827D02*
X0189561Y0021827D01*
X0188775Y0021042D02*
X0151022Y0021042D01*
X0150697Y0020256D02*
X0187989Y0020256D01*
X0187670Y0019470D02*
X0150207Y0019470D01*
X0149421Y0018684D02*
X0187670Y0018684D01*
X0187670Y0017898D02*
X0147776Y0017898D01*
X0150286Y0024971D02*
X0264872Y0024971D01*
X0265992Y0025757D02*
X0149500Y0025757D01*
X0194141Y0021827D02*
X0199561Y0021827D01*
X0200119Y0022386D02*
X0197670Y0019937D01*
X0197670Y0016473D01*
X0200119Y0014024D01*
X0203583Y0014024D01*
X0206032Y0016473D01*
X0206032Y0019937D01*
X0203583Y0022386D01*
X0200119Y0022386D01*
X0204141Y0021827D02*
X0209561Y0021827D01*
X0210119Y0022386D02*
X0207670Y0019937D01*
X0207670Y0016473D01*
X0210119Y0014024D01*
X0213583Y0014024D01*
X0216032Y0016473D01*
X0216032Y0019937D01*
X0213583Y0022386D01*
X0210119Y0022386D01*
X0208775Y0021042D02*
X0204927Y0021042D01*
X0205713Y0020256D02*
X0207989Y0020256D01*
X0207670Y0019470D02*
X0206032Y0019470D01*
X0206032Y0018684D02*
X0207670Y0018684D01*
X0207670Y0017898D02*
X0206032Y0017898D01*
X0206032Y0017112D02*
X0207670Y0017112D01*
X0207817Y0016326D02*
X0205885Y0016326D01*
X0205100Y0015540D02*
X0208603Y0015540D01*
X0209389Y0014754D02*
X0204314Y0014754D01*
X0199389Y0014754D02*
X0194314Y0014754D01*
X0195100Y0015540D02*
X0198603Y0015540D01*
X0197817Y0016326D02*
X0195885Y0016326D01*
X0196032Y0017112D02*
X0197670Y0017112D01*
X0197670Y0017898D02*
X0196032Y0017898D01*
X0196032Y0018684D02*
X0197670Y0018684D01*
X0197670Y0019470D02*
X0196032Y0019470D01*
X0195713Y0020256D02*
X0197989Y0020256D01*
X0198775Y0021042D02*
X0194927Y0021042D01*
X0214141Y0021827D02*
X0247211Y0021827D01*
X0247690Y0021042D02*
X0214927Y0021042D01*
X0215713Y0020256D02*
X0247211Y0020256D01*
X0247211Y0019470D02*
X0216032Y0019470D01*
X0216032Y0018684D02*
X0243560Y0018684D01*
X0242880Y0017898D02*
X0216032Y0017898D01*
X0216032Y0017112D02*
X0242880Y0017112D01*
X0242880Y0016326D02*
X0215885Y0016326D01*
X0215100Y0015540D02*
X0243369Y0015540D01*
X0243274Y0014754D02*
X0214314Y0014754D01*
X0246362Y0018684D02*
X0247366Y0018684D01*
X0247043Y0017898D02*
X0248152Y0017898D01*
X0247043Y0017112D02*
X0249528Y0017112D01*
X0250314Y0016326D02*
X0247043Y0016326D01*
X0269065Y0020256D02*
X0289154Y0020256D01*
X0289154Y0021042D02*
X0269851Y0021042D01*
X0270191Y0021827D02*
X0289154Y0021827D01*
X0289154Y0022613D02*
X0270355Y0022613D01*
X0270355Y0023399D02*
X0289154Y0023399D01*
X0289154Y0024185D02*
X0270062Y0024185D01*
X0269539Y0024971D02*
X0289154Y0024971D01*
X0289154Y0025757D02*
X0268419Y0025757D01*
X0297848Y0011611D02*
X0302862Y0011611D01*
X0302076Y0010825D02*
X0298634Y0010825D01*
X0299420Y0010039D02*
X0301290Y0010039D01*
X0300961Y0009253D02*
X0299749Y0009253D01*
X0299749Y0008467D02*
X0300961Y0008467D01*
X0305749Y0007681D02*
X0318176Y0007681D01*
X0318398Y0008467D02*
X0309749Y0008467D01*
X0309749Y0009253D02*
X0318460Y0009253D01*
X0318461Y0010039D02*
X0309420Y0010039D01*
X0308634Y0010825D02*
X0318461Y0010825D01*
X0318461Y0011611D02*
X0307848Y0011611D01*
X0313072Y0007681D02*
X0290631Y0007681D01*
X0290631Y0006895D02*
X0313072Y0006895D01*
X0313072Y0006109D02*
X0290631Y0006109D01*
X0290961Y0006109D02*
X0266303Y0006109D01*
X0266628Y0006895D02*
X0290961Y0006895D01*
X0308216Y0004537D02*
X0316019Y0004537D01*
X0316916Y0005323D02*
X0309002Y0005323D01*
X0309749Y0006109D02*
X0317487Y0006109D01*
X0317921Y0006895D02*
X0309749Y0006895D01*
D15*
X0279213Y0013008D03*
X0270749Y0005724D03*
X0249489Y0005528D03*
X0237875Y0005331D03*
X0225670Y0005331D03*
X0224489Y0014189D03*
X0244961Y0017142D03*
X0251261Y0018323D03*
X0249292Y0019701D03*
X0251457Y0021079D03*
X0249292Y0022457D03*
X0264843Y0028165D03*
X0252048Y0028953D03*
X0245552Y0028953D03*
X0230198Y0031512D03*
X0218583Y0028362D03*
X0213859Y0028362D03*
X0210513Y0031315D03*
X0203623Y0030528D03*
X0195355Y0026984D03*
X0184135Y0026787D03*
X0168780Y0026197D03*
X0163269Y0027378D03*
X0160513Y0027378D03*
X0157757Y0027378D03*
X0152048Y0025606D03*
X0147324Y0029150D03*
X0147324Y0031512D03*
X0127245Y0036433D03*
X0124883Y0036433D03*
X0135513Y0039976D03*
X0126457Y0040173D03*
X0129607Y0043520D03*
X0113662Y0039976D03*
X0111694Y0043323D03*
X0087875Y0048638D03*
X0085513Y0048638D03*
X0080788Y0049228D03*
X0086694Y0050409D03*
X0066615Y0050606D03*
X0055001Y0051000D03*
X0058741Y0056315D03*
X0062481Y0056315D03*
X0060513Y0060449D03*
X0080001Y0060449D03*
X0103623Y0060646D03*
X0133347Y0060449D03*
X0162875Y0060449D03*
X0198308Y0060449D03*
X0204017Y0054346D03*
X0206969Y0051000D03*
X0214056Y0047850D03*
X0214056Y0045685D03*
X0214056Y0043520D03*
X0213269Y0038598D03*
X0215434Y0038598D03*
X0217796Y0038598D03*
X0196733Y0038402D03*
X0180788Y0042732D03*
X0188662Y0045882D03*
X0196339Y0046866D03*
X0170355Y0046669D03*
X0166615Y0049819D03*
X0161891Y0049819D03*
X0158150Y0046866D03*
X0152442Y0042339D03*
X0160513Y0039189D03*
X0162678Y0039189D03*
X0164843Y0039189D03*
X0193583Y0032299D03*
X0227639Y0021866D03*
X0245355Y0014583D03*
X0273308Y0022457D03*
X0276064Y0034071D03*
X0266418Y0034661D03*
X0264646Y0039189D03*
X0253623Y0039189D03*
X0244371Y0039189D03*
X0261300Y0044701D03*
X0266221Y0047457D03*
X0277245Y0052378D03*
X0283544Y0051787D03*
X0251851Y0060449D03*
X0245552Y0060449D03*
X0230394Y0054346D03*
X0230394Y0051394D03*
X0241024Y0051197D03*
X0243780Y0051197D03*
X0243977Y0047654D03*
X0275867Y0042339D03*
X0286300Y0042732D03*
X0226064Y0057299D03*
X0221930Y0060449D03*
X0113662Y0032890D03*
X0113662Y0030528D03*
X0113662Y0028362D03*
X0108347Y0026197D03*
X0105591Y0022654D03*
X0095158Y0021866D03*
X0083347Y0017142D03*
X0080394Y0017142D03*
X0081772Y0014780D03*
X0066812Y0014583D03*
X0055001Y0014583D03*
X0058347Y0009268D03*
X0063662Y0009268D03*
X0060513Y0005331D03*
X0080394Y0005331D03*
X0096143Y0005331D03*
X0103820Y0005331D03*
X0100080Y0009858D03*
X0127442Y0005528D03*
X0139056Y0005331D03*
X0151064Y0005528D03*
X0161300Y0005331D03*
X0174686Y0005331D03*
X0121930Y0021276D03*
X0117796Y0021276D03*
X0129213Y0021472D03*
X0134331Y0023835D03*
X0136891Y0023835D03*
X0095552Y0032299D03*
X0093977Y0028756D03*
X0090040Y0028756D03*
X0082954Y0027378D03*
X0080198Y0027378D03*
X0060513Y0032890D03*
X0085316Y0038598D03*
X0087678Y0038598D03*
X0086497Y0036433D03*
X0025276Y0048638D03*
X0017402Y0048638D03*
X0038465Y0060449D03*
X0025080Y0017142D03*
X0017206Y0017142D03*
X0038662Y0005331D03*
D16*
X0101654Y0016354D03*
X0146733Y0022260D03*
M02*
