G75*
%MOIN*%
%OFA0B0*%
%FSLAX25Y25*%
%IPPOS*%
%LPD*%
%AMOC8*
5,1,8,0,0,1.08239X$1,22.5*
%
%ADD10R,0.04803X0.01575*%
%ADD11C,0.01382*%
%ADD12C,0.00402*%
%ADD13C,0.01585*%
%ADD14OC8,0.06000*%
%ADD15R,0.03000X0.05681*%
%ADD16R,0.07087X0.07087*%
%ADD17R,0.04134X0.02362*%
%ADD18R,0.04724X0.01575*%
%ADD19C,0.01181*%
%ADD20R,0.01969X0.00984*%
%ADD21R,0.01575X0.00984*%
%ADD22R,0.02559X0.01732*%
%ADD23C,0.03543*%
%ADD24C,0.03937*%
%ADD25C,0.01784*%
%ADD26C,0.01575*%
%ADD27R,0.04331X0.03150*%
%ADD28C,0.00787*%
%ADD29C,0.01800*%
%ADD30C,0.00591*%
%ADD31C,0.01378*%
%ADD32C,0.06496*%
%ADD33C,0.00984*%
%ADD34C,0.01969*%
%ADD35C,0.02362*%
D10*
X0225828Y0071833D03*
X0225828Y0074392D03*
X0225828Y0076951D03*
X0225828Y0079510D03*
X0236143Y0079510D03*
X0236143Y0076951D03*
X0236143Y0074392D03*
X0236143Y0071833D03*
D11*
X0063266Y0067402D02*
X0063266Y0063470D01*
X0058546Y0063470D01*
X0058546Y0067402D01*
X0063266Y0067402D01*
X0063266Y0064851D02*
X0058546Y0064851D01*
X0058546Y0066232D02*
X0063266Y0066232D01*
X0063266Y0059528D02*
X0063266Y0055596D01*
X0058546Y0055596D01*
X0058546Y0059528D01*
X0063266Y0059528D01*
X0063266Y0056977D02*
X0058546Y0056977D01*
X0058546Y0058358D02*
X0063266Y0058358D01*
X0058546Y0083745D02*
X0058546Y0087677D01*
X0063266Y0087677D01*
X0063266Y0083745D01*
X0058546Y0083745D01*
X0058546Y0085126D02*
X0063266Y0085126D01*
X0063266Y0086507D02*
X0058546Y0086507D01*
X0058546Y0091619D02*
X0058546Y0095551D01*
X0063266Y0095551D01*
X0063266Y0091619D01*
X0058546Y0091619D01*
X0058546Y0093000D02*
X0063266Y0093000D01*
X0063266Y0094381D02*
X0058546Y0094381D01*
D12*
X0097722Y0085510D02*
X0099682Y0085510D01*
X0099682Y0083156D01*
X0097722Y0083156D01*
X0097722Y0085510D01*
X0097722Y0083557D02*
X0099682Y0083557D01*
X0099682Y0083958D02*
X0097722Y0083958D01*
X0097722Y0084359D02*
X0099682Y0084359D01*
X0099682Y0084760D02*
X0097722Y0084760D01*
X0097722Y0085161D02*
X0099682Y0085161D01*
X0101659Y0085510D02*
X0103619Y0085510D01*
X0103619Y0083156D01*
X0101659Y0083156D01*
X0101659Y0085510D01*
X0101659Y0083557D02*
X0103619Y0083557D01*
X0103619Y0083958D02*
X0101659Y0083958D01*
X0101659Y0084359D02*
X0103619Y0084359D01*
X0103619Y0084760D02*
X0101659Y0084760D01*
X0101659Y0085161D02*
X0103619Y0085161D01*
X0113863Y0085125D02*
X0115823Y0085125D01*
X0113863Y0085125D02*
X0113863Y0087479D01*
X0115823Y0087479D01*
X0115823Y0085125D01*
X0115823Y0085526D02*
X0113863Y0085526D01*
X0113863Y0085927D02*
X0115823Y0085927D01*
X0115823Y0086328D02*
X0113863Y0086328D01*
X0113863Y0086729D02*
X0115823Y0086729D01*
X0115823Y0087130D02*
X0113863Y0087130D01*
X0117800Y0085125D02*
X0119760Y0085125D01*
X0117800Y0085125D02*
X0117800Y0087479D01*
X0119760Y0087479D01*
X0119760Y0085125D01*
X0119760Y0085526D02*
X0117800Y0085526D01*
X0117800Y0085927D02*
X0119760Y0085927D01*
X0119760Y0086328D02*
X0117800Y0086328D01*
X0117800Y0086729D02*
X0119760Y0086729D01*
X0119760Y0087130D02*
X0117800Y0087130D01*
X0121344Y0087479D02*
X0123304Y0087479D01*
X0123304Y0085125D01*
X0121344Y0085125D01*
X0121344Y0087479D01*
X0121344Y0085526D02*
X0123304Y0085526D01*
X0123304Y0085927D02*
X0121344Y0085927D01*
X0121344Y0086328D02*
X0123304Y0086328D01*
X0123304Y0086729D02*
X0121344Y0086729D01*
X0121344Y0087130D02*
X0123304Y0087130D01*
X0125281Y0087479D02*
X0127241Y0087479D01*
X0127241Y0085125D01*
X0125281Y0085125D01*
X0125281Y0087479D01*
X0125281Y0085526D02*
X0127241Y0085526D01*
X0127241Y0085927D02*
X0125281Y0085927D01*
X0125281Y0086328D02*
X0127241Y0086328D01*
X0127241Y0086729D02*
X0125281Y0086729D01*
X0125281Y0087130D02*
X0127241Y0087130D01*
X0139257Y0082557D02*
X0139257Y0080597D01*
X0139257Y0082557D02*
X0141611Y0082557D01*
X0141611Y0080597D01*
X0139257Y0080597D01*
X0139257Y0080998D02*
X0141611Y0080998D01*
X0141611Y0081399D02*
X0139257Y0081399D01*
X0139257Y0081800D02*
X0141611Y0081800D01*
X0141611Y0082201D02*
X0139257Y0082201D01*
X0146335Y0082557D02*
X0146335Y0080597D01*
X0143981Y0080597D01*
X0143981Y0082557D01*
X0146335Y0082557D01*
X0146335Y0080998D02*
X0143981Y0080998D01*
X0143981Y0081399D02*
X0146335Y0081399D01*
X0146335Y0081800D02*
X0143981Y0081800D01*
X0143981Y0082201D02*
X0146335Y0082201D01*
X0146335Y0078620D02*
X0146335Y0076660D01*
X0143981Y0076660D01*
X0143981Y0078620D01*
X0146335Y0078620D01*
X0146335Y0077061D02*
X0143981Y0077061D01*
X0143981Y0077462D02*
X0146335Y0077462D01*
X0146335Y0077863D02*
X0143981Y0077863D01*
X0143981Y0078264D02*
X0146335Y0078264D01*
X0139257Y0078620D02*
X0139257Y0076660D01*
X0139257Y0078620D02*
X0141611Y0078620D01*
X0141611Y0076660D01*
X0139257Y0076660D01*
X0139257Y0077061D02*
X0141611Y0077061D01*
X0141611Y0077462D02*
X0139257Y0077462D01*
X0139257Y0077863D02*
X0141611Y0077863D01*
X0141611Y0078264D02*
X0139257Y0078264D01*
X0136689Y0078817D02*
X0134729Y0078817D01*
X0136689Y0078817D02*
X0136689Y0076463D01*
X0134729Y0076463D01*
X0134729Y0078817D01*
X0134729Y0076864D02*
X0136689Y0076864D01*
X0136689Y0077265D02*
X0134729Y0077265D01*
X0134729Y0077666D02*
X0136689Y0077666D01*
X0136689Y0078067D02*
X0134729Y0078067D01*
X0134729Y0078468D02*
X0136689Y0078468D01*
X0132752Y0078817D02*
X0130792Y0078817D01*
X0132752Y0078817D02*
X0132752Y0076463D01*
X0130792Y0076463D01*
X0130792Y0078817D01*
X0130792Y0076864D02*
X0132752Y0076864D01*
X0132752Y0077265D02*
X0130792Y0077265D01*
X0130792Y0077666D02*
X0132752Y0077666D01*
X0132752Y0078067D02*
X0130792Y0078067D01*
X0130792Y0078468D02*
X0132752Y0078468D01*
X0127044Y0077046D02*
X0127044Y0075086D01*
X0124690Y0075086D01*
X0124690Y0077046D01*
X0127044Y0077046D01*
X0127044Y0075487D02*
X0124690Y0075487D01*
X0124690Y0075888D02*
X0127044Y0075888D01*
X0127044Y0076289D02*
X0124690Y0076289D01*
X0124690Y0076690D02*
X0127044Y0076690D01*
X0136886Y0074683D02*
X0136886Y0072723D01*
X0134532Y0072723D01*
X0134532Y0074683D01*
X0136886Y0074683D01*
X0136886Y0073124D02*
X0134532Y0073124D01*
X0134532Y0073525D02*
X0136886Y0073525D01*
X0136886Y0073926D02*
X0134532Y0073926D01*
X0134532Y0074327D02*
X0136886Y0074327D01*
X0141611Y0074683D02*
X0141611Y0072723D01*
X0139257Y0072723D01*
X0139257Y0074683D01*
X0141611Y0074683D01*
X0141611Y0073124D02*
X0139257Y0073124D01*
X0139257Y0073525D02*
X0141611Y0073525D01*
X0141611Y0073926D02*
X0139257Y0073926D01*
X0139257Y0074327D02*
X0141611Y0074327D01*
X0141611Y0070746D02*
X0141611Y0068786D01*
X0139257Y0068786D01*
X0139257Y0070746D01*
X0141611Y0070746D01*
X0141611Y0069187D02*
X0139257Y0069187D01*
X0139257Y0069588D02*
X0141611Y0069588D01*
X0141611Y0069989D02*
X0139257Y0069989D01*
X0139257Y0070390D02*
X0141611Y0070390D01*
X0136886Y0070746D02*
X0136886Y0068786D01*
X0134532Y0068786D01*
X0134532Y0070746D01*
X0136886Y0070746D01*
X0136886Y0069187D02*
X0134532Y0069187D01*
X0134532Y0069588D02*
X0136886Y0069588D01*
X0136886Y0069989D02*
X0134532Y0069989D01*
X0134532Y0070390D02*
X0136886Y0070390D01*
X0127044Y0071149D02*
X0127044Y0073109D01*
X0127044Y0071149D02*
X0124690Y0071149D01*
X0124690Y0073109D01*
X0127044Y0073109D01*
X0127044Y0071550D02*
X0124690Y0071550D01*
X0124690Y0071951D02*
X0127044Y0071951D01*
X0127044Y0072352D02*
X0124690Y0072352D01*
X0124690Y0072753D02*
X0127044Y0072753D01*
X0127044Y0069172D02*
X0127044Y0067212D01*
X0124690Y0067212D01*
X0124690Y0069172D01*
X0127044Y0069172D01*
X0127044Y0067613D02*
X0124690Y0067613D01*
X0124690Y0068014D02*
X0127044Y0068014D01*
X0127044Y0068415D02*
X0124690Y0068415D01*
X0124690Y0068816D02*
X0127044Y0068816D01*
X0127044Y0065235D02*
X0127044Y0063275D01*
X0124690Y0063275D01*
X0124690Y0065235D01*
X0127044Y0065235D01*
X0127044Y0063676D02*
X0124690Y0063676D01*
X0124690Y0064077D02*
X0127044Y0064077D01*
X0127044Y0064478D02*
X0124690Y0064478D01*
X0124690Y0064879D02*
X0127044Y0064879D01*
X0103619Y0066613D02*
X0101659Y0066613D01*
X0103619Y0066613D02*
X0103619Y0064259D01*
X0101659Y0064259D01*
X0101659Y0066613D01*
X0101659Y0064660D02*
X0103619Y0064660D01*
X0103619Y0065061D02*
X0101659Y0065061D01*
X0101659Y0065462D02*
X0103619Y0065462D01*
X0103619Y0065863D02*
X0101659Y0065863D01*
X0101659Y0066264D02*
X0103619Y0066264D01*
X0099682Y0066613D02*
X0097722Y0066613D01*
X0099682Y0066613D02*
X0099682Y0064259D01*
X0097722Y0064259D01*
X0097722Y0066613D01*
X0097722Y0064660D02*
X0099682Y0064660D01*
X0099682Y0065061D02*
X0097722Y0065061D01*
X0097722Y0065462D02*
X0099682Y0065462D01*
X0099682Y0065863D02*
X0097722Y0065863D01*
X0097722Y0066264D02*
X0099682Y0066264D01*
X0099682Y0071337D02*
X0097722Y0071337D01*
X0099682Y0071337D02*
X0099682Y0068983D01*
X0097722Y0068983D01*
X0097722Y0071337D01*
X0097722Y0069384D02*
X0099682Y0069384D01*
X0099682Y0069785D02*
X0097722Y0069785D01*
X0097722Y0070186D02*
X0099682Y0070186D01*
X0099682Y0070587D02*
X0097722Y0070587D01*
X0097722Y0070988D02*
X0099682Y0070988D01*
X0101659Y0071337D02*
X0103619Y0071337D01*
X0103619Y0068983D01*
X0101659Y0068983D01*
X0101659Y0071337D01*
X0101659Y0069384D02*
X0103619Y0069384D01*
X0103619Y0069785D02*
X0101659Y0069785D01*
X0101659Y0070186D02*
X0103619Y0070186D01*
X0103619Y0070587D02*
X0101659Y0070587D01*
X0101659Y0070988D02*
X0103619Y0070988D01*
X0103619Y0076062D02*
X0101659Y0076062D01*
X0103619Y0076062D02*
X0103619Y0073708D01*
X0101659Y0073708D01*
X0101659Y0076062D01*
X0101659Y0074109D02*
X0103619Y0074109D01*
X0103619Y0074510D02*
X0101659Y0074510D01*
X0101659Y0074911D02*
X0103619Y0074911D01*
X0103619Y0075312D02*
X0101659Y0075312D01*
X0101659Y0075713D02*
X0103619Y0075713D01*
X0099682Y0076062D02*
X0097722Y0076062D01*
X0099682Y0076062D02*
X0099682Y0073708D01*
X0097722Y0073708D01*
X0097722Y0076062D01*
X0097722Y0074109D02*
X0099682Y0074109D01*
X0099682Y0074510D02*
X0097722Y0074510D01*
X0097722Y0074911D02*
X0099682Y0074911D01*
X0099682Y0075312D02*
X0097722Y0075312D01*
X0097722Y0075713D02*
X0099682Y0075713D01*
X0099682Y0080786D02*
X0097722Y0080786D01*
X0099682Y0080786D02*
X0099682Y0078432D01*
X0097722Y0078432D01*
X0097722Y0080786D01*
X0097722Y0078833D02*
X0099682Y0078833D01*
X0099682Y0079234D02*
X0097722Y0079234D01*
X0097722Y0079635D02*
X0099682Y0079635D01*
X0099682Y0080036D02*
X0097722Y0080036D01*
X0097722Y0080437D02*
X0099682Y0080437D01*
X0101659Y0080786D02*
X0103619Y0080786D01*
X0103619Y0078432D01*
X0101659Y0078432D01*
X0101659Y0080786D01*
X0101659Y0078833D02*
X0103619Y0078833D01*
X0103619Y0079234D02*
X0101659Y0079234D01*
X0101659Y0079635D02*
X0103619Y0079635D01*
X0103619Y0080036D02*
X0101659Y0080036D01*
X0101659Y0080437D02*
X0103619Y0080437D01*
X0068784Y0078620D02*
X0068784Y0076660D01*
X0068784Y0078620D02*
X0071138Y0078620D01*
X0071138Y0076660D01*
X0068784Y0076660D01*
X0068784Y0077061D02*
X0071138Y0077061D01*
X0071138Y0077462D02*
X0068784Y0077462D01*
X0068784Y0077863D02*
X0071138Y0077863D01*
X0071138Y0078264D02*
X0068784Y0078264D01*
X0064060Y0078620D02*
X0064060Y0076660D01*
X0064060Y0078620D02*
X0066414Y0078620D01*
X0066414Y0076660D01*
X0064060Y0076660D01*
X0064060Y0077061D02*
X0066414Y0077061D01*
X0066414Y0077462D02*
X0064060Y0077462D01*
X0064060Y0077863D02*
X0066414Y0077863D01*
X0066414Y0078264D02*
X0064060Y0078264D01*
X0064060Y0074683D02*
X0064060Y0072723D01*
X0064060Y0074683D02*
X0066414Y0074683D01*
X0066414Y0072723D01*
X0064060Y0072723D01*
X0064060Y0073124D02*
X0066414Y0073124D01*
X0066414Y0073525D02*
X0064060Y0073525D01*
X0064060Y0073926D02*
X0066414Y0073926D01*
X0066414Y0074327D02*
X0064060Y0074327D01*
X0068784Y0074683D02*
X0068784Y0072723D01*
X0068784Y0074683D02*
X0071138Y0074683D01*
X0071138Y0072723D01*
X0068784Y0072723D01*
X0068784Y0073124D02*
X0071138Y0073124D01*
X0071138Y0073525D02*
X0068784Y0073525D01*
X0068784Y0073926D02*
X0071138Y0073926D01*
X0071138Y0074327D02*
X0068784Y0074327D01*
X0091422Y0056188D02*
X0093382Y0056188D01*
X0091422Y0056188D02*
X0091422Y0058542D01*
X0093382Y0058542D01*
X0093382Y0056188D01*
X0093382Y0056589D02*
X0091422Y0056589D01*
X0091422Y0056990D02*
X0093382Y0056990D01*
X0093382Y0057391D02*
X0091422Y0057391D01*
X0091422Y0057792D02*
X0093382Y0057792D01*
X0093382Y0058193D02*
X0091422Y0058193D01*
X0095359Y0056188D02*
X0097319Y0056188D01*
X0095359Y0056188D02*
X0095359Y0058542D01*
X0097319Y0058542D01*
X0097319Y0056188D01*
X0097319Y0056589D02*
X0095359Y0056589D01*
X0095359Y0056990D02*
X0097319Y0056990D01*
X0097319Y0057391D02*
X0095359Y0057391D01*
X0095359Y0057792D02*
X0097319Y0057792D01*
X0097319Y0058193D02*
X0095359Y0058193D01*
X0095359Y0051463D02*
X0097319Y0051463D01*
X0095359Y0051463D02*
X0095359Y0053817D01*
X0097319Y0053817D01*
X0097319Y0051463D01*
X0097319Y0051864D02*
X0095359Y0051864D01*
X0095359Y0052265D02*
X0097319Y0052265D01*
X0097319Y0052666D02*
X0095359Y0052666D01*
X0095359Y0053067D02*
X0097319Y0053067D01*
X0097319Y0053468D02*
X0095359Y0053468D01*
X0093382Y0051463D02*
X0091422Y0051463D01*
X0091422Y0053817D01*
X0093382Y0053817D01*
X0093382Y0051463D01*
X0093382Y0051864D02*
X0091422Y0051864D01*
X0091422Y0052265D02*
X0093382Y0052265D01*
X0093382Y0052666D02*
X0091422Y0052666D01*
X0091422Y0053067D02*
X0093382Y0053067D01*
X0093382Y0053468D02*
X0091422Y0053468D01*
X0154611Y0063865D02*
X0156571Y0063865D01*
X0154611Y0063865D02*
X0154611Y0066219D01*
X0156571Y0066219D01*
X0156571Y0063865D01*
X0156571Y0064266D02*
X0154611Y0064266D01*
X0154611Y0064667D02*
X0156571Y0064667D01*
X0156571Y0065068D02*
X0154611Y0065068D01*
X0154611Y0065469D02*
X0156571Y0065469D01*
X0156571Y0065870D02*
X0154611Y0065870D01*
X0158548Y0063865D02*
X0160508Y0063865D01*
X0158548Y0063865D02*
X0158548Y0066219D01*
X0160508Y0066219D01*
X0160508Y0063865D01*
X0160508Y0064266D02*
X0158548Y0064266D01*
X0158548Y0064667D02*
X0160508Y0064667D01*
X0160508Y0065068D02*
X0158548Y0065068D01*
X0158548Y0065469D02*
X0160508Y0065469D01*
X0160508Y0065870D02*
X0158548Y0065870D01*
X0176650Y0072723D02*
X0176650Y0074683D01*
X0176650Y0072723D02*
X0174296Y0072723D01*
X0174296Y0074683D01*
X0176650Y0074683D01*
X0176650Y0073124D02*
X0174296Y0073124D01*
X0174296Y0073525D02*
X0176650Y0073525D01*
X0176650Y0073926D02*
X0174296Y0073926D01*
X0174296Y0074327D02*
X0176650Y0074327D01*
X0185115Y0074683D02*
X0185115Y0072723D01*
X0182761Y0072723D01*
X0182761Y0074683D01*
X0185115Y0074683D01*
X0185115Y0073124D02*
X0182761Y0073124D01*
X0182761Y0073525D02*
X0185115Y0073525D01*
X0185115Y0073926D02*
X0182761Y0073926D01*
X0182761Y0074327D02*
X0185115Y0074327D01*
X0185115Y0076660D02*
X0185115Y0078620D01*
X0185115Y0076660D02*
X0182761Y0076660D01*
X0182761Y0078620D01*
X0185115Y0078620D01*
X0185115Y0077061D02*
X0182761Y0077061D01*
X0182761Y0077462D02*
X0185115Y0077462D01*
X0185115Y0077863D02*
X0182761Y0077863D01*
X0182761Y0078264D02*
X0185115Y0078264D01*
X0176650Y0078620D02*
X0176650Y0076660D01*
X0174296Y0076660D01*
X0174296Y0078620D01*
X0176650Y0078620D01*
X0176650Y0077061D02*
X0174296Y0077061D01*
X0174296Y0077462D02*
X0176650Y0077462D01*
X0176650Y0077863D02*
X0174296Y0077863D01*
X0174296Y0078264D02*
X0176650Y0078264D01*
X0176453Y0081188D02*
X0174493Y0081188D01*
X0174493Y0083542D01*
X0176453Y0083542D01*
X0176453Y0081188D01*
X0176453Y0081589D02*
X0174493Y0081589D01*
X0174493Y0081990D02*
X0176453Y0081990D01*
X0176453Y0082391D02*
X0174493Y0082391D01*
X0174493Y0082792D02*
X0176453Y0082792D01*
X0176453Y0083193D02*
X0174493Y0083193D01*
X0178430Y0081188D02*
X0180390Y0081188D01*
X0178430Y0081188D02*
X0178430Y0083542D01*
X0180390Y0083542D01*
X0180390Y0081188D01*
X0180390Y0081589D02*
X0178430Y0081589D01*
X0178430Y0081990D02*
X0180390Y0081990D01*
X0180390Y0082391D02*
X0178430Y0082391D01*
X0178430Y0082792D02*
X0180390Y0082792D01*
X0180390Y0083193D02*
X0178430Y0083193D01*
X0185115Y0082557D02*
X0185115Y0080597D01*
X0182761Y0080597D01*
X0182761Y0082557D01*
X0185115Y0082557D01*
X0185115Y0080998D02*
X0182761Y0080998D01*
X0182761Y0081399D02*
X0185115Y0081399D01*
X0185115Y0081800D02*
X0182761Y0081800D01*
X0182761Y0082201D02*
X0185115Y0082201D01*
X0187485Y0082557D02*
X0187485Y0080597D01*
X0187485Y0082557D02*
X0189839Y0082557D01*
X0189839Y0080597D01*
X0187485Y0080597D01*
X0187485Y0080998D02*
X0189839Y0080998D01*
X0189839Y0081399D02*
X0187485Y0081399D01*
X0187485Y0081800D02*
X0189839Y0081800D01*
X0189839Y0082201D02*
X0187485Y0082201D01*
X0187485Y0084534D02*
X0187485Y0086494D01*
X0189839Y0086494D01*
X0189839Y0084534D01*
X0187485Y0084534D01*
X0187485Y0084935D02*
X0189839Y0084935D01*
X0189839Y0085336D02*
X0187485Y0085336D01*
X0187485Y0085737D02*
X0189839Y0085737D01*
X0189839Y0086138D02*
X0187485Y0086138D01*
X0185115Y0086494D02*
X0185115Y0084534D01*
X0182761Y0084534D01*
X0182761Y0086494D01*
X0185115Y0086494D01*
X0185115Y0084935D02*
X0182761Y0084935D01*
X0182761Y0085336D02*
X0185115Y0085336D01*
X0185115Y0085737D02*
X0182761Y0085737D01*
X0182761Y0086138D02*
X0185115Y0086138D01*
X0174296Y0085716D02*
X0174296Y0087676D01*
X0176650Y0087676D01*
X0176650Y0085716D01*
X0174296Y0085716D01*
X0174296Y0086117D02*
X0176650Y0086117D01*
X0176650Y0086518D02*
X0174296Y0086518D01*
X0174296Y0086919D02*
X0176650Y0086919D01*
X0176650Y0087320D02*
X0174296Y0087320D01*
X0167792Y0088471D02*
X0167792Y0090431D01*
X0167792Y0088471D02*
X0165438Y0088471D01*
X0165438Y0090431D01*
X0167792Y0090431D01*
X0167792Y0088872D02*
X0165438Y0088872D01*
X0165438Y0089273D02*
X0167792Y0089273D01*
X0167792Y0089674D02*
X0165438Y0089674D01*
X0165438Y0090075D02*
X0167792Y0090075D01*
X0163068Y0090431D02*
X0163068Y0088471D01*
X0160714Y0088471D01*
X0160714Y0090431D01*
X0163068Y0090431D01*
X0163068Y0088872D02*
X0160714Y0088872D01*
X0160714Y0089273D02*
X0163068Y0089273D01*
X0163068Y0089674D02*
X0160714Y0089674D01*
X0160714Y0090075D02*
X0163068Y0090075D01*
X0174296Y0089653D02*
X0174296Y0091613D01*
X0176650Y0091613D01*
X0176650Y0089653D01*
X0174296Y0089653D01*
X0174296Y0090054D02*
X0176650Y0090054D01*
X0176650Y0090455D02*
X0174296Y0090455D01*
X0174296Y0090856D02*
X0176650Y0090856D01*
X0176650Y0091257D02*
X0174296Y0091257D01*
X0179021Y0091810D02*
X0180981Y0091810D01*
X0180981Y0089456D01*
X0179021Y0089456D01*
X0179021Y0091810D01*
X0179021Y0089857D02*
X0180981Y0089857D01*
X0180981Y0090258D02*
X0179021Y0090258D01*
X0179021Y0090659D02*
X0180981Y0090659D01*
X0180981Y0091060D02*
X0179021Y0091060D01*
X0179021Y0091461D02*
X0180981Y0091461D01*
X0182958Y0091810D02*
X0184918Y0091810D01*
X0184918Y0089456D01*
X0182958Y0089456D01*
X0182958Y0091810D01*
X0182958Y0089857D02*
X0184918Y0089857D01*
X0184918Y0090258D02*
X0182958Y0090258D01*
X0182958Y0090659D02*
X0184918Y0090659D01*
X0184918Y0091060D02*
X0182958Y0091060D01*
X0182958Y0091461D02*
X0184918Y0091461D01*
X0199100Y0094959D02*
X0201060Y0094959D01*
X0201060Y0092605D01*
X0199100Y0092605D01*
X0199100Y0094959D01*
X0199100Y0093006D02*
X0201060Y0093006D01*
X0201060Y0093407D02*
X0199100Y0093407D01*
X0199100Y0093808D02*
X0201060Y0093808D01*
X0201060Y0094209D02*
X0199100Y0094209D01*
X0199100Y0094610D02*
X0201060Y0094610D01*
X0203037Y0094959D02*
X0204997Y0094959D01*
X0204997Y0092605D01*
X0203037Y0092605D01*
X0203037Y0094959D01*
X0203037Y0093006D02*
X0204997Y0093006D01*
X0204997Y0093407D02*
X0203037Y0093407D01*
X0203037Y0093808D02*
X0204997Y0093808D01*
X0204997Y0094209D02*
X0203037Y0094209D01*
X0203037Y0094610D02*
X0204997Y0094610D01*
X0201257Y0089841D02*
X0201257Y0087881D01*
X0198903Y0087881D01*
X0198903Y0089841D01*
X0201257Y0089841D01*
X0201257Y0088282D02*
X0198903Y0088282D01*
X0198903Y0088683D02*
X0201257Y0088683D01*
X0201257Y0089084D02*
X0198903Y0089084D01*
X0198903Y0089485D02*
X0201257Y0089485D01*
X0201257Y0085904D02*
X0201257Y0083944D01*
X0198903Y0083944D01*
X0198903Y0085904D01*
X0201257Y0085904D01*
X0201257Y0084345D02*
X0198903Y0084345D01*
X0198903Y0084746D02*
X0201257Y0084746D01*
X0201257Y0085147D02*
X0198903Y0085147D01*
X0198903Y0085548D02*
X0201257Y0085548D01*
X0212682Y0079014D02*
X0212682Y0077054D01*
X0212682Y0079014D02*
X0215036Y0079014D01*
X0215036Y0077054D01*
X0212682Y0077054D01*
X0212682Y0077455D02*
X0215036Y0077455D01*
X0215036Y0077856D02*
X0212682Y0077856D01*
X0212682Y0078257D02*
X0215036Y0078257D01*
X0215036Y0078658D02*
X0212682Y0078658D01*
X0217406Y0079014D02*
X0217406Y0077054D01*
X0217406Y0079014D02*
X0219760Y0079014D01*
X0219760Y0077054D01*
X0217406Y0077054D01*
X0217406Y0077455D02*
X0219760Y0077455D01*
X0219760Y0077856D02*
X0217406Y0077856D01*
X0217406Y0078257D02*
X0219760Y0078257D01*
X0219760Y0078658D02*
X0217406Y0078658D01*
X0217406Y0075077D02*
X0217406Y0073117D01*
X0217406Y0075077D02*
X0219760Y0075077D01*
X0219760Y0073117D01*
X0217406Y0073117D01*
X0217406Y0073518D02*
X0219760Y0073518D01*
X0219760Y0073919D02*
X0217406Y0073919D01*
X0217406Y0074320D02*
X0219760Y0074320D01*
X0219760Y0074721D02*
X0217406Y0074721D01*
X0212682Y0075077D02*
X0212682Y0073117D01*
X0212682Y0075077D02*
X0215036Y0075077D01*
X0215036Y0073117D01*
X0212682Y0073117D01*
X0212682Y0073518D02*
X0215036Y0073518D01*
X0215036Y0073919D02*
X0212682Y0073919D01*
X0212682Y0074320D02*
X0215036Y0074320D01*
X0215036Y0074721D02*
X0212682Y0074721D01*
X0233737Y0085716D02*
X0233737Y0087676D01*
X0233737Y0085716D02*
X0231383Y0085716D01*
X0231383Y0087676D01*
X0233737Y0087676D01*
X0233737Y0086117D02*
X0231383Y0086117D01*
X0231383Y0086518D02*
X0233737Y0086518D01*
X0233737Y0086919D02*
X0231383Y0086919D01*
X0231383Y0087320D02*
X0233737Y0087320D01*
X0233737Y0089653D02*
X0233737Y0091613D01*
X0233737Y0089653D02*
X0231383Y0089653D01*
X0231383Y0091613D01*
X0233737Y0091613D01*
X0233737Y0090054D02*
X0231383Y0090054D01*
X0231383Y0090455D02*
X0233737Y0090455D01*
X0233737Y0090856D02*
X0231383Y0090856D01*
X0231383Y0091257D02*
X0233737Y0091257D01*
X0236107Y0091613D02*
X0238067Y0091613D01*
X0238067Y0089259D01*
X0236107Y0089259D01*
X0236107Y0091613D01*
X0236107Y0089660D02*
X0238067Y0089660D01*
X0238067Y0090061D02*
X0236107Y0090061D01*
X0236107Y0090462D02*
X0238067Y0090462D01*
X0238067Y0090863D02*
X0236107Y0090863D01*
X0236107Y0091264D02*
X0238067Y0091264D01*
X0240044Y0091613D02*
X0242004Y0091613D01*
X0242004Y0089259D01*
X0240044Y0089259D01*
X0240044Y0091613D01*
X0240044Y0089660D02*
X0242004Y0089660D01*
X0242004Y0090061D02*
X0240044Y0090061D01*
X0240044Y0090462D02*
X0242004Y0090462D01*
X0242004Y0090863D02*
X0240044Y0090863D01*
X0240044Y0091264D02*
X0242004Y0091264D01*
X0167792Y0086494D02*
X0167792Y0084534D01*
X0165438Y0084534D01*
X0165438Y0086494D01*
X0167792Y0086494D01*
X0167792Y0084935D02*
X0165438Y0084935D01*
X0165438Y0085336D02*
X0167792Y0085336D01*
X0167792Y0085737D02*
X0165438Y0085737D01*
X0165438Y0086138D02*
X0167792Y0086138D01*
X0163068Y0086494D02*
X0163068Y0084534D01*
X0160714Y0084534D01*
X0160714Y0086494D01*
X0163068Y0086494D01*
X0163068Y0084935D02*
X0160714Y0084935D01*
X0160714Y0085336D02*
X0163068Y0085336D01*
X0163068Y0085737D02*
X0160714Y0085737D01*
X0160714Y0086138D02*
X0163068Y0086138D01*
X0255202Y0064456D02*
X0257162Y0064456D01*
X0255202Y0064456D02*
X0255202Y0066810D01*
X0257162Y0066810D01*
X0257162Y0064456D01*
X0257162Y0064857D02*
X0255202Y0064857D01*
X0255202Y0065258D02*
X0257162Y0065258D01*
X0257162Y0065659D02*
X0255202Y0065659D01*
X0255202Y0066060D02*
X0257162Y0066060D01*
X0257162Y0066461D02*
X0255202Y0066461D01*
X0259139Y0064456D02*
X0261099Y0064456D01*
X0259139Y0064456D02*
X0259139Y0066810D01*
X0261099Y0066810D01*
X0261099Y0064456D01*
X0261099Y0064857D02*
X0259139Y0064857D01*
X0259139Y0065258D02*
X0261099Y0065258D01*
X0261099Y0065659D02*
X0259139Y0065659D01*
X0259139Y0066060D02*
X0261099Y0066060D01*
X0261099Y0066461D02*
X0259139Y0066461D01*
X0247328Y0058542D02*
X0247328Y0056582D01*
X0247328Y0058542D02*
X0249682Y0058542D01*
X0249682Y0056582D01*
X0247328Y0056582D01*
X0247328Y0056983D02*
X0249682Y0056983D01*
X0249682Y0057384D02*
X0247328Y0057384D01*
X0247328Y0057785D02*
X0249682Y0057785D01*
X0249682Y0058186D02*
X0247328Y0058186D01*
X0243382Y0059132D02*
X0241422Y0059132D01*
X0243382Y0059132D02*
X0243382Y0056778D01*
X0241422Y0056778D01*
X0241422Y0059132D01*
X0241422Y0057179D02*
X0243382Y0057179D01*
X0243382Y0057580D02*
X0241422Y0057580D01*
X0241422Y0057981D02*
X0243382Y0057981D01*
X0243382Y0058382D02*
X0241422Y0058382D01*
X0241422Y0058783D02*
X0243382Y0058783D01*
X0239445Y0059132D02*
X0237485Y0059132D01*
X0239445Y0059132D02*
X0239445Y0056778D01*
X0237485Y0056778D01*
X0237485Y0059132D01*
X0237485Y0057179D02*
X0239445Y0057179D01*
X0239445Y0057580D02*
X0237485Y0057580D01*
X0237485Y0057981D02*
X0239445Y0057981D01*
X0239445Y0058382D02*
X0237485Y0058382D01*
X0237485Y0058783D02*
X0239445Y0058783D01*
X0247328Y0054605D02*
X0247328Y0052645D01*
X0247328Y0054605D02*
X0249682Y0054605D01*
X0249682Y0052645D01*
X0247328Y0052645D01*
X0247328Y0053046D02*
X0249682Y0053046D01*
X0249682Y0053447D02*
X0247328Y0053447D01*
X0247328Y0053848D02*
X0249682Y0053848D01*
X0249682Y0054249D02*
X0247328Y0054249D01*
D13*
X0227339Y0092901D02*
X0224395Y0092901D01*
X0224395Y0097025D01*
X0227339Y0097025D01*
X0227339Y0092901D01*
X0227339Y0094485D02*
X0224395Y0094485D01*
X0224395Y0096069D02*
X0227339Y0096069D01*
X0220252Y0092901D02*
X0217308Y0092901D01*
X0217308Y0097025D01*
X0220252Y0097025D01*
X0220252Y0092901D01*
X0220252Y0094485D02*
X0217308Y0094485D01*
X0217308Y0096069D02*
X0220252Y0096069D01*
D14*
X0295355Y0100672D03*
X0305355Y0100672D03*
X0305355Y0090672D03*
X0295355Y0090672D03*
X0295355Y0080672D03*
X0305355Y0080672D03*
X0305355Y0070672D03*
X0295355Y0070672D03*
X0295355Y0060672D03*
X0305355Y0060672D03*
X0305355Y0050672D03*
X0295355Y0050672D03*
X0211851Y0050987D03*
X0201851Y0050987D03*
X0191851Y0050987D03*
X0191851Y0060987D03*
X0201851Y0060987D03*
X0211851Y0060987D03*
X0016300Y0070672D03*
X0006300Y0070672D03*
X0006300Y0080672D03*
X0016300Y0080672D03*
D15*
X0076635Y0086262D03*
X0081635Y0086262D03*
X0086635Y0086262D03*
X0091635Y0086262D03*
X0091635Y0065081D03*
X0086635Y0065081D03*
X0081635Y0065081D03*
X0076635Y0065081D03*
D16*
X0051457Y0070948D03*
X0041615Y0068979D03*
X0032166Y0068979D03*
X0051457Y0080396D03*
X0041615Y0082365D03*
X0032166Y0082365D03*
D17*
X0108347Y0079412D03*
X0118977Y0079412D03*
X0118977Y0075672D03*
X0108347Y0075672D03*
X0108347Y0071932D03*
X0118977Y0071932D03*
D18*
X0152442Y0071833D03*
X0152442Y0074392D03*
X0152442Y0076951D03*
X0152442Y0079510D03*
X0168583Y0079510D03*
X0168583Y0076951D03*
X0168583Y0074392D03*
X0168583Y0071833D03*
D19*
X0159528Y0065042D02*
X0155591Y0065042D01*
X0096339Y0057365D02*
X0092402Y0057365D01*
X0175473Y0086696D02*
X0175473Y0090633D01*
X0180001Y0090633D02*
X0183938Y0090633D01*
X0200080Y0088861D02*
X0200080Y0084924D01*
X0232560Y0086696D02*
X0232560Y0090633D01*
D20*
X0282363Y0074097D03*
D21*
X0282560Y0075672D03*
X0282560Y0077247D03*
X0282560Y0078822D03*
X0282560Y0080396D03*
X0282560Y0081971D03*
X0282560Y0083546D03*
X0282560Y0085121D03*
D22*
X0279902Y0081951D03*
X0279902Y0077266D03*
D23*
X0236694Y0095751D03*
D24*
X0273111Y0099294D03*
X0171733Y0094963D03*
X0148898Y0085908D03*
X0267206Y0065633D03*
X0072324Y0052050D03*
D25*
X0087481Y0057365D03*
X0107166Y0085908D03*
X0192796Y0099294D03*
X0205001Y0088861D03*
D26*
X0217599Y0088566D02*
X0219961Y0088566D01*
X0219961Y0086006D01*
X0217599Y0086006D01*
X0217599Y0088566D01*
X0217599Y0087580D02*
X0219961Y0087580D01*
X0224686Y0088566D02*
X0227048Y0088566D01*
X0227048Y0086006D01*
X0224686Y0086006D01*
X0224686Y0088566D01*
X0224686Y0087580D02*
X0227048Y0087580D01*
X0236497Y0062778D02*
X0238859Y0062778D01*
X0236497Y0062778D02*
X0236497Y0065338D01*
X0238859Y0065338D01*
X0238859Y0062778D01*
X0238859Y0064352D02*
X0236497Y0064352D01*
X0243584Y0062778D02*
X0245946Y0062778D01*
X0243584Y0062778D02*
X0243584Y0065338D01*
X0245946Y0065338D01*
X0245946Y0062778D01*
X0245946Y0064352D02*
X0243584Y0064352D01*
D27*
X0241221Y0064058D03*
X0222324Y0087286D03*
D28*
X0037381Y0046070D02*
X0006720Y0063104D01*
X0035714Y0063270D01*
X0036362Y0063270D01*
X0036365Y0063274D01*
X0036371Y0063274D01*
X0036694Y0063601D01*
X0036694Y0062027D01*
X0037616Y0061105D01*
X0057175Y0061105D01*
X0056878Y0060808D01*
X0056603Y0060333D01*
X0056461Y0059803D01*
X0056461Y0057955D01*
X0060513Y0057955D01*
X0060513Y0057168D01*
X0061300Y0057168D01*
X0061300Y0057955D01*
X0065351Y0057955D01*
X0065351Y0059803D01*
X0065209Y0060333D01*
X0064935Y0060808D01*
X0064638Y0061105D01*
X0074600Y0061105D01*
X0074645Y0061060D01*
X0078624Y0061060D01*
X0079316Y0061752D01*
X0079316Y0061933D01*
X0079410Y0062027D01*
X0079410Y0068844D01*
X0078488Y0069766D01*
X0078451Y0069766D01*
X0078426Y0071735D01*
X0063072Y0071735D01*
X0063072Y0075413D01*
X0063404Y0075081D01*
X0084528Y0075081D01*
X0084528Y0068986D01*
X0083954Y0068411D01*
X0083954Y0061752D01*
X0084528Y0061177D01*
X0084528Y0056184D01*
X0078623Y0056184D01*
X0078561Y0061060D01*
X0078624Y0061060D01*
X0078994Y0061430D01*
X0079019Y0061385D01*
X0079279Y0061126D01*
X0079597Y0060942D01*
X0079951Y0060847D01*
X0081278Y0060847D01*
X0081278Y0064725D01*
X0081991Y0064725D01*
X0081991Y0060847D01*
X0083318Y0060847D01*
X0083673Y0060942D01*
X0083990Y0061126D01*
X0084250Y0061385D01*
X0084276Y0061430D01*
X0084528Y0061177D01*
X0084528Y0057255D01*
X0085797Y0055987D01*
X0086584Y0055199D01*
X0090237Y0055199D01*
X0090237Y0054587D01*
X0090040Y0054390D01*
X0090040Y0050891D01*
X0090850Y0050081D01*
X0093955Y0050081D01*
X0094221Y0050347D01*
X0094380Y0050187D01*
X0094744Y0049977D01*
X0095149Y0049869D01*
X0096142Y0049869D01*
X0096142Y0052443D01*
X0096536Y0052443D01*
X0096536Y0049869D01*
X0097530Y0049869D01*
X0097935Y0049977D01*
X0098299Y0050187D01*
X0098596Y0050484D01*
X0098805Y0050848D01*
X0098914Y0051253D01*
X0098914Y0052444D01*
X0096536Y0052444D01*
X0096536Y0052837D01*
X0098914Y0052837D01*
X0098914Y0054027D01*
X0098805Y0054433D01*
X0098596Y0054797D01*
X0098299Y0055093D01*
X0098223Y0055137D01*
X0098581Y0055495D01*
X0099032Y0055495D01*
X0099145Y0055382D01*
X0100773Y0054707D01*
X0102535Y0054707D01*
X0104163Y0055382D01*
X0105409Y0056628D01*
X0106083Y0058255D01*
X0106083Y0059038D01*
X0121488Y0059038D01*
X0122791Y0058387D01*
X0123124Y0058054D01*
X0123457Y0058054D01*
X0123755Y0057905D01*
X0124202Y0058054D01*
X0151051Y0058054D01*
X0152232Y0059235D01*
X0164043Y0059235D01*
X0164634Y0059825D01*
X0177848Y0059825D01*
X0182461Y0055212D01*
X0183557Y0054117D01*
X0188767Y0054117D01*
X0187457Y0052807D01*
X0187457Y0051381D01*
X0191457Y0051381D01*
X0191457Y0050593D01*
X0187457Y0050593D01*
X0187457Y0049167D01*
X0190031Y0046593D01*
X0191457Y0046593D01*
X0191457Y0050593D01*
X0192245Y0050593D01*
X0192245Y0051381D01*
X0196245Y0051381D01*
X0196245Y0052807D01*
X0194935Y0054117D01*
X0198767Y0054117D01*
X0197457Y0052807D01*
X0197457Y0051381D01*
X0201457Y0051381D01*
X0201457Y0050593D01*
X0197457Y0050593D01*
X0197457Y0049167D01*
X0200031Y0046593D01*
X0201457Y0046593D01*
X0201457Y0050593D01*
X0202245Y0050593D01*
X0202245Y0051381D01*
X0206245Y0051381D01*
X0206245Y0052807D01*
X0204935Y0054117D01*
X0207626Y0054117D01*
X0210315Y0056806D01*
X0213583Y0056806D01*
X0216032Y0059255D01*
X0216032Y0062719D01*
X0213583Y0065168D01*
X0210119Y0065168D01*
X0207670Y0062719D01*
X0207670Y0059450D01*
X0206077Y0057857D01*
X0204634Y0057857D01*
X0206032Y0059255D01*
X0206032Y0062719D01*
X0203583Y0065168D01*
X0200315Y0065168D01*
X0197586Y0067896D01*
X0188205Y0067896D01*
X0187569Y0067987D01*
X0187448Y0067896D01*
X0187297Y0067896D01*
X0186843Y0067443D01*
X0186297Y0067033D01*
X0186055Y0066912D01*
X0161770Y0066912D01*
X0161081Y0067601D01*
X0157976Y0067601D01*
X0157560Y0067185D01*
X0157144Y0067601D01*
X0154039Y0067601D01*
X0153350Y0066912D01*
X0150752Y0066912D01*
X0150488Y0067551D01*
X0149242Y0068797D01*
X0147614Y0069471D01*
X0145933Y0069471D01*
X0146635Y0070173D01*
X0146635Y0074983D01*
X0148686Y0074983D01*
X0148686Y0074392D01*
X0148686Y0073421D01*
X0148769Y0073113D01*
X0148686Y0072804D01*
X0148686Y0071833D01*
X0148686Y0070862D01*
X0148781Y0070508D01*
X0148964Y0070190D01*
X0149224Y0069931D01*
X0149542Y0069747D01*
X0149896Y0069652D01*
X0152442Y0069652D01*
X0154987Y0069652D01*
X0155342Y0069747D01*
X0155660Y0069931D01*
X0155919Y0070190D01*
X0156103Y0070508D01*
X0156198Y0070862D01*
X0156198Y0071833D01*
X0152442Y0071833D01*
X0152442Y0071833D01*
X0152442Y0069652D01*
X0152442Y0071833D01*
X0152442Y0071833D01*
X0156198Y0071833D01*
X0156198Y0072804D01*
X0156115Y0073113D01*
X0156198Y0073421D01*
X0156198Y0074392D01*
X0152442Y0074392D01*
X0152442Y0071833D01*
X0148686Y0071833D01*
X0152442Y0071833D01*
X0152442Y0071833D01*
X0152442Y0071833D01*
X0152442Y0072211D01*
X0152442Y0074392D01*
X0152442Y0074392D01*
X0152442Y0074392D01*
X0156198Y0074392D01*
X0156198Y0075363D01*
X0156103Y0075718D01*
X0155985Y0075921D01*
X0155985Y0078228D01*
X0155982Y0078231D01*
X0155985Y0078234D01*
X0155985Y0080787D01*
X0155293Y0081479D01*
X0154312Y0081479D01*
X0154312Y0084048D01*
X0154523Y0084259D01*
X0154523Y0085983D01*
X0153304Y0087202D01*
X0152834Y0087202D01*
X0152707Y0087304D01*
X0152232Y0087778D01*
X0152113Y0087778D01*
X0152021Y0087852D01*
X0151470Y0087791D01*
X0150683Y0088578D01*
X0149525Y0089058D01*
X0148272Y0089058D01*
X0147114Y0088578D01*
X0146228Y0087692D01*
X0145749Y0086535D01*
X0145749Y0085282D01*
X0146228Y0084124D01*
X0146413Y0083940D01*
X0143409Y0083940D01*
X0142917Y0083447D01*
X0142676Y0083447D01*
X0142183Y0083940D01*
X0138684Y0083940D01*
X0137875Y0083130D01*
X0137875Y0080025D01*
X0138291Y0079609D01*
X0138192Y0079510D01*
X0137951Y0079510D01*
X0137262Y0080199D01*
X0134220Y0080199D01*
X0134233Y0080212D01*
X0134233Y0090423D01*
X0133138Y0091518D01*
X0104423Y0091518D01*
X0103242Y0090337D01*
X0093519Y0090337D01*
X0093481Y0090372D01*
X0092752Y0090337D01*
X0092021Y0090337D01*
X0092000Y0090315D01*
X0091489Y0090394D01*
X0091339Y0090284D01*
X0090631Y0090284D01*
X0090631Y0095025D01*
X0089708Y0095947D01*
X0088404Y0095947D01*
X0085181Y0095947D01*
X0083876Y0095947D01*
X0082954Y0095025D01*
X0082954Y0092490D01*
X0082869Y0092574D01*
X0082869Y0092873D01*
X0081650Y0094092D01*
X0079926Y0094092D01*
X0078707Y0092873D01*
X0078707Y0091148D01*
X0079608Y0090247D01*
X0079135Y0089773D01*
X0078624Y0090284D01*
X0074645Y0090284D01*
X0074600Y0090239D01*
X0064835Y0090239D01*
X0064935Y0090339D01*
X0065209Y0090814D01*
X0065351Y0091344D01*
X0065351Y0093192D01*
X0061300Y0093192D01*
X0061300Y0093979D01*
X0060513Y0093979D01*
X0060513Y0097636D01*
X0058272Y0097636D01*
X0057741Y0097494D01*
X0057266Y0097220D01*
X0056878Y0096832D01*
X0022185Y0096832D01*
X0020771Y0096046D02*
X0056520Y0096046D01*
X0056461Y0095826D02*
X0056461Y0093979D01*
X0060513Y0093979D01*
X0060513Y0093192D01*
X0056461Y0093192D01*
X0056461Y0091344D01*
X0056603Y0090814D01*
X0056878Y0090339D01*
X0056978Y0090239D01*
X0037813Y0090239D01*
X0036891Y0089316D01*
X0036891Y0088855D01*
X0036688Y0089058D01*
X0008191Y0089058D01*
X0037381Y0105274D01*
X0312481Y0105274D01*
X0313417Y0105201D01*
X0315196Y0104622D01*
X0316710Y0103523D01*
X0317810Y0102009D01*
X0318388Y0100229D01*
X0318461Y0099294D01*
X0318461Y0052050D01*
X0318388Y0051114D01*
X0317810Y0049335D01*
X0316710Y0047821D01*
X0315196Y0046721D01*
X0313417Y0046143D01*
X0312481Y0046070D01*
X0037381Y0046070D01*
X0036546Y0046534D02*
X0113712Y0046534D01*
X0114471Y0046219D02*
X0116791Y0046219D01*
X0118934Y0047107D01*
X0120574Y0048747D01*
X0121461Y0050890D01*
X0121461Y0053210D01*
X0120574Y0055353D01*
X0118934Y0056993D01*
X0116791Y0057881D01*
X0114471Y0057881D01*
X0112328Y0056993D01*
X0110688Y0055353D01*
X0109800Y0053210D01*
X0109800Y0050890D01*
X0110688Y0048747D01*
X0112328Y0047107D01*
X0114471Y0046219D01*
X0112115Y0047320D02*
X0035131Y0047320D01*
X0033717Y0048105D02*
X0111329Y0048105D01*
X0110628Y0048891D02*
X0032302Y0048891D01*
X0030887Y0049677D02*
X0070242Y0049677D01*
X0070540Y0049380D02*
X0071697Y0048900D01*
X0072950Y0048900D01*
X0074108Y0049380D01*
X0074994Y0050266D01*
X0075473Y0051423D01*
X0075473Y0052676D01*
X0074994Y0053834D01*
X0074108Y0054720D01*
X0072950Y0055199D01*
X0071697Y0055199D01*
X0070540Y0054720D01*
X0069654Y0053834D01*
X0069174Y0052676D01*
X0069174Y0051423D01*
X0069654Y0050266D01*
X0070540Y0049380D01*
X0069572Y0050463D02*
X0029473Y0050463D01*
X0028058Y0051249D02*
X0069246Y0051249D01*
X0069174Y0052035D02*
X0026643Y0052035D01*
X0025229Y0052821D02*
X0069234Y0052821D01*
X0069559Y0053607D02*
X0063900Y0053607D01*
X0064071Y0053653D02*
X0064547Y0053927D01*
X0064935Y0054315D01*
X0065209Y0054790D01*
X0065351Y0055321D01*
X0065351Y0057168D01*
X0061300Y0057168D01*
X0061300Y0053510D01*
X0063541Y0053510D01*
X0064071Y0053653D01*
X0064979Y0054393D02*
X0070212Y0054393D01*
X0071647Y0055179D02*
X0065313Y0055179D01*
X0065351Y0055965D02*
X0085819Y0055965D01*
X0085797Y0055987D02*
X0085797Y0055987D01*
X0085033Y0056750D02*
X0065351Y0056750D01*
X0065351Y0058322D02*
X0084528Y0058322D01*
X0078596Y0058322D01*
X0078606Y0057536D02*
X0084528Y0057536D01*
X0061300Y0057536D01*
X0061300Y0056750D02*
X0060513Y0056750D01*
X0060513Y0057168D02*
X0060513Y0053510D01*
X0058272Y0053510D01*
X0057741Y0053653D01*
X0057266Y0053927D01*
X0056878Y0054315D01*
X0056603Y0054790D01*
X0056461Y0055321D01*
X0056461Y0057168D01*
X0060513Y0057168D01*
X0060513Y0057536D02*
X0016741Y0057536D01*
X0018156Y0056750D02*
X0056461Y0056750D01*
X0056461Y0055965D02*
X0019570Y0055965D01*
X0020985Y0055179D02*
X0056499Y0055179D01*
X0056833Y0054393D02*
X0022400Y0054393D01*
X0023814Y0053607D02*
X0057912Y0053607D01*
X0060513Y0053607D02*
X0061300Y0053607D01*
X0061300Y0054393D02*
X0060513Y0054393D01*
X0060513Y0055179D02*
X0061300Y0055179D01*
X0061300Y0055965D02*
X0060513Y0055965D01*
X0056461Y0058322D02*
X0015326Y0058322D01*
X0013912Y0059108D02*
X0056461Y0059108D01*
X0056486Y0059894D02*
X0012497Y0059894D01*
X0011082Y0060680D02*
X0056804Y0060680D01*
X0065009Y0060680D02*
X0084528Y0060680D01*
X0078566Y0060680D01*
X0078576Y0059894D02*
X0084528Y0059894D01*
X0065327Y0059894D01*
X0065351Y0059108D02*
X0084528Y0059108D01*
X0078586Y0059108D01*
X0078616Y0056750D02*
X0084528Y0056750D01*
X0090237Y0055179D02*
X0073000Y0055179D01*
X0074435Y0054393D02*
X0090043Y0054393D01*
X0090040Y0053607D02*
X0075088Y0053607D01*
X0075413Y0052821D02*
X0090040Y0052821D01*
X0090040Y0052035D02*
X0075473Y0052035D01*
X0075401Y0051249D02*
X0090040Y0051249D01*
X0090468Y0050463D02*
X0075075Y0050463D01*
X0074405Y0049677D02*
X0110302Y0049677D01*
X0109977Y0050463D02*
X0098575Y0050463D01*
X0098913Y0051249D02*
X0109800Y0051249D01*
X0109800Y0052035D02*
X0098914Y0052035D01*
X0098914Y0053607D02*
X0109965Y0053607D01*
X0109800Y0052821D02*
X0096536Y0052821D01*
X0096536Y0052035D02*
X0096142Y0052035D01*
X0096142Y0051249D02*
X0096536Y0051249D01*
X0096536Y0050463D02*
X0096142Y0050463D01*
X0098816Y0054393D02*
X0110290Y0054393D01*
X0110616Y0055179D02*
X0103673Y0055179D01*
X0104746Y0055965D02*
X0111300Y0055965D01*
X0112085Y0056750D02*
X0105460Y0056750D01*
X0105786Y0057536D02*
X0113640Y0057536D01*
X0117621Y0057536D02*
X0180137Y0057536D01*
X0180923Y0056750D02*
X0119176Y0056750D01*
X0119962Y0055965D02*
X0181709Y0055965D01*
X0182495Y0055179D02*
X0120646Y0055179D01*
X0120971Y0054393D02*
X0183281Y0054393D01*
X0188258Y0053607D02*
X0121297Y0053607D01*
X0121461Y0052821D02*
X0187472Y0052821D01*
X0187457Y0052035D02*
X0121461Y0052035D01*
X0121461Y0051249D02*
X0191457Y0051249D01*
X0191457Y0050463D02*
X0192245Y0050463D01*
X0192245Y0050593D02*
X0192245Y0046593D01*
X0193671Y0046593D01*
X0196245Y0049167D01*
X0196245Y0050593D01*
X0192245Y0050593D01*
X0192245Y0051249D02*
X0201457Y0051249D01*
X0201457Y0050463D02*
X0202245Y0050463D01*
X0202245Y0050593D02*
X0202245Y0046593D01*
X0203671Y0046593D01*
X0206245Y0049167D01*
X0206245Y0050593D01*
X0202245Y0050593D01*
X0202245Y0051249D02*
X0211457Y0051249D01*
X0211457Y0051381D02*
X0211457Y0050593D01*
X0207457Y0050593D01*
X0207457Y0049167D01*
X0210031Y0046593D01*
X0211457Y0046593D01*
X0211457Y0050593D01*
X0212245Y0050593D01*
X0212245Y0051381D01*
X0211457Y0051381D01*
X0211457Y0055381D01*
X0210031Y0055381D01*
X0207457Y0052807D01*
X0207457Y0051381D01*
X0211457Y0051381D01*
X0211457Y0052035D02*
X0212245Y0052035D01*
X0212245Y0051381D02*
X0212245Y0055381D01*
X0213671Y0055381D01*
X0216245Y0052807D01*
X0216245Y0051381D01*
X0212245Y0051381D01*
X0212245Y0051249D02*
X0246555Y0051249D01*
X0246712Y0051159D02*
X0247118Y0051050D01*
X0248308Y0051050D01*
X0248308Y0053428D01*
X0245733Y0053428D01*
X0245733Y0052434D01*
X0245842Y0052029D01*
X0246052Y0051665D01*
X0246349Y0051368D01*
X0246712Y0051159D01*
X0245840Y0052035D02*
X0216245Y0052035D01*
X0216231Y0052821D02*
X0245733Y0052821D01*
X0245733Y0053822D02*
X0248308Y0053822D01*
X0248308Y0053428D01*
X0248702Y0053428D01*
X0248702Y0053822D01*
X0251276Y0053822D01*
X0251276Y0054528D01*
X0256042Y0054591D01*
X0255469Y0053210D01*
X0255469Y0050890D01*
X0256357Y0048747D01*
X0257997Y0047107D01*
X0260140Y0046219D01*
X0262460Y0046219D01*
X0264603Y0047107D01*
X0266243Y0048747D01*
X0267131Y0050890D01*
X0267131Y0053210D01*
X0266243Y0055353D01*
X0264603Y0056993D01*
X0262460Y0057881D01*
X0260140Y0057881D01*
X0259135Y0057464D01*
X0259135Y0062861D01*
X0259922Y0062861D01*
X0259922Y0065436D01*
X0260316Y0065436D01*
X0260316Y0065829D01*
X0262694Y0065829D01*
X0262694Y0067020D01*
X0262585Y0067425D01*
X0262375Y0067789D01*
X0262078Y0068086D01*
X0261715Y0068296D01*
X0261309Y0068404D01*
X0260316Y0068404D01*
X0260316Y0065829D01*
X0259922Y0065829D01*
X0259922Y0068404D01*
X0258929Y0068404D01*
X0258887Y0068393D01*
X0258607Y0068665D01*
X0258097Y0069176D01*
X0258083Y0069176D01*
X0258073Y0069185D01*
X0257352Y0069176D01*
X0256629Y0069176D01*
X0256619Y0069166D01*
X0242587Y0068979D01*
X0241865Y0068979D01*
X0241856Y0068969D01*
X0241842Y0068969D01*
X0241338Y0068452D01*
X0241221Y0068335D01*
X0241221Y0072898D01*
X0242951Y0072839D01*
X0242972Y0072818D01*
X0243558Y0072818D01*
X0244144Y0072797D01*
X0244165Y0072818D01*
X0252315Y0072818D01*
X0257438Y0071934D01*
X0257539Y0071833D01*
X0258024Y0071833D01*
X0258502Y0071751D01*
X0258619Y0071833D01*
X0281597Y0071833D01*
X0282187Y0072424D01*
X0283836Y0072424D01*
X0283875Y0072462D01*
X0291174Y0062122D01*
X0291174Y0058940D01*
X0293623Y0056491D01*
X0297087Y0056491D01*
X0299536Y0058940D01*
X0299536Y0059196D01*
X0301174Y0059196D01*
X0301174Y0058940D01*
X0303623Y0056491D01*
X0307087Y0056491D01*
X0309536Y0058940D01*
X0309536Y0062404D01*
X0307087Y0064853D01*
X0303623Y0064853D01*
X0301174Y0062404D01*
X0301174Y0062148D01*
X0299536Y0062148D01*
X0299536Y0062404D01*
X0297087Y0064853D01*
X0293623Y0064853D01*
X0293176Y0064406D01*
X0286266Y0074196D01*
X0287339Y0074196D01*
X0290335Y0070253D01*
X0290335Y0070139D01*
X0290697Y0069778D01*
X0291006Y0069370D01*
X0291120Y0069355D01*
X0291174Y0069301D01*
X0291174Y0068940D01*
X0293623Y0066491D01*
X0297087Y0066491D01*
X0299536Y0068940D01*
X0299536Y0069196D01*
X0301174Y0069196D01*
X0301174Y0068940D01*
X0303623Y0066491D01*
X0307087Y0066491D01*
X0309536Y0068940D01*
X0309536Y0072404D01*
X0307087Y0074853D01*
X0303623Y0074853D01*
X0301174Y0072404D01*
X0301174Y0072148D01*
X0299536Y0072148D01*
X0299536Y0072404D01*
X0297087Y0074853D01*
X0293623Y0074853D01*
X0291876Y0073106D01*
X0289548Y0076169D01*
X0289548Y0076283D01*
X0289186Y0076645D01*
X0288877Y0077052D01*
X0288764Y0077068D01*
X0288683Y0077148D01*
X0288172Y0077148D01*
X0287665Y0077217D01*
X0287574Y0077148D01*
X0284741Y0077148D01*
X0284741Y0077247D01*
X0284741Y0077345D01*
X0287116Y0077345D01*
X0287335Y0077230D01*
X0287705Y0077345D01*
X0288093Y0077345D01*
X0288267Y0077520D01*
X0291570Y0078545D01*
X0293623Y0076491D01*
X0297087Y0076491D01*
X0299536Y0078940D01*
X0299536Y0079196D01*
X0301174Y0079196D01*
X0301174Y0078940D01*
X0303623Y0076491D01*
X0307087Y0076491D01*
X0309536Y0078940D01*
X0309536Y0082404D01*
X0307087Y0084853D01*
X0303623Y0084853D01*
X0301174Y0082404D01*
X0301174Y0082148D01*
X0299536Y0082148D01*
X0299536Y0082404D01*
X0297087Y0084853D01*
X0293623Y0084853D01*
X0291174Y0082404D01*
X0291174Y0081513D01*
X0287257Y0080298D01*
X0284528Y0080298D01*
X0284528Y0080737D01*
X0284646Y0080941D01*
X0284741Y0081296D01*
X0284741Y0081971D01*
X0283935Y0081971D01*
X0283935Y0081971D01*
X0283935Y0081971D01*
X0284741Y0081971D01*
X0284741Y0082062D01*
X0284807Y0082070D01*
X0285337Y0082070D01*
X0285403Y0082136D01*
X0285496Y0082146D01*
X0285827Y0082560D01*
X0286202Y0082934D01*
X0286202Y0083028D01*
X0286526Y0083433D01*
X0287162Y0083433D01*
X0288381Y0084652D01*
X0288381Y0086376D01*
X0287162Y0087596D01*
X0285438Y0087596D01*
X0284236Y0086394D01*
X0284036Y0086594D01*
X0284036Y0091912D01*
X0284276Y0092488D01*
X0284406Y0092488D01*
X0285625Y0093708D01*
X0285625Y0095432D01*
X0284406Y0096651D01*
X0282682Y0096651D01*
X0281463Y0095432D01*
X0281463Y0093708D01*
X0281549Y0093621D01*
X0281309Y0093045D01*
X0281083Y0092819D01*
X0281083Y0092503D01*
X0280962Y0092211D01*
X0281083Y0091915D01*
X0281083Y0086594D01*
X0280591Y0086102D01*
X0280591Y0084211D01*
X0279942Y0084211D01*
X0279942Y0081991D01*
X0279863Y0081991D01*
X0279863Y0084211D01*
X0278439Y0084211D01*
X0278085Y0084116D01*
X0277767Y0083933D01*
X0277508Y0083673D01*
X0277324Y0083356D01*
X0277229Y0083001D01*
X0277229Y0081991D01*
X0279863Y0081991D01*
X0279863Y0081912D01*
X0277229Y0081912D01*
X0277229Y0081085D01*
X0268784Y0081085D01*
X0268772Y0081097D01*
X0268175Y0081085D01*
X0267578Y0081085D01*
X0267566Y0081073D01*
X0263155Y0080987D01*
X0239525Y0080987D01*
X0239033Y0081479D01*
X0233252Y0081479D01*
X0232956Y0081184D01*
X0232461Y0081184D01*
X0232461Y0081590D01*
X0233334Y0082463D01*
X0234430Y0083559D01*
X0234430Y0084454D01*
X0235119Y0085143D01*
X0235119Y0088248D01*
X0234802Y0088566D01*
X0234846Y0088566D01*
X0235535Y0087877D01*
X0238640Y0087877D01*
X0238906Y0088142D01*
X0239065Y0087983D01*
X0239429Y0087773D01*
X0239834Y0087664D01*
X0240828Y0087664D01*
X0240828Y0090239D01*
X0241221Y0090239D01*
X0241221Y0087664D01*
X0242215Y0087664D01*
X0242620Y0087773D01*
X0242984Y0087983D01*
X0243281Y0088279D01*
X0243491Y0088643D01*
X0243599Y0089049D01*
X0243599Y0090239D01*
X0241221Y0090239D01*
X0241221Y0090633D01*
X0240828Y0090633D01*
X0240828Y0093207D01*
X0239834Y0093207D01*
X0239429Y0093099D01*
X0239065Y0092889D01*
X0238957Y0092781D01*
X0238957Y0093839D01*
X0239197Y0094078D01*
X0239646Y0095163D01*
X0239646Y0096338D01*
X0239197Y0097423D01*
X0238366Y0098254D01*
X0237281Y0098703D01*
X0236106Y0098703D01*
X0235021Y0098254D01*
X0234190Y0097423D01*
X0233741Y0096338D01*
X0233741Y0095163D01*
X0234190Y0094078D01*
X0235021Y0093247D01*
X0235217Y0093166D01*
X0235217Y0092677D01*
X0234922Y0092382D01*
X0234309Y0092995D01*
X0230810Y0092995D01*
X0230001Y0092185D01*
X0230001Y0089080D01*
X0230417Y0088664D01*
X0230001Y0088248D01*
X0230001Y0085143D01*
X0230363Y0084781D01*
X0228721Y0083139D01*
X0228721Y0081476D01*
X0228718Y0081479D01*
X0227737Y0081479D01*
X0227737Y0084038D01*
X0227863Y0084038D01*
X0229017Y0085191D01*
X0229017Y0089381D01*
X0227863Y0090534D01*
X0223870Y0090534D01*
X0223378Y0090042D01*
X0222028Y0090042D01*
X0222028Y0091887D01*
X0222225Y0092084D01*
X0222225Y0092555D01*
X0222358Y0092057D01*
X0222646Y0091559D01*
X0223053Y0091152D01*
X0223552Y0090864D01*
X0224108Y0090715D01*
X0225473Y0090715D01*
X0225473Y0094570D01*
X0226261Y0094570D01*
X0226261Y0095357D01*
X0229524Y0095357D01*
X0229524Y0097313D01*
X0229375Y0097869D01*
X0229088Y0098367D01*
X0228681Y0098775D01*
X0228182Y0099062D01*
X0227626Y0099211D01*
X0226261Y0099211D01*
X0226261Y0095357D01*
X0225473Y0095357D01*
X0225473Y0099211D01*
X0224108Y0099211D01*
X0223552Y0099062D01*
X0223053Y0098775D01*
X0222646Y0098367D01*
X0222358Y0097869D01*
X0222225Y0097372D01*
X0222225Y0097843D01*
X0222028Y0098040D01*
X0222028Y0098215D01*
X0221048Y0099196D01*
X0210607Y0099196D01*
X0209627Y0098215D01*
X0209627Y0076554D01*
X0210607Y0075573D01*
X0221048Y0075573D01*
X0221147Y0075672D01*
X0222248Y0075672D01*
X0222937Y0074983D01*
X0228718Y0074983D01*
X0228817Y0075081D01*
X0230677Y0075081D01*
X0230985Y0075389D01*
X0230985Y0069963D01*
X0228817Y0069963D01*
X0229410Y0070557D01*
X0229410Y0073110D01*
X0228718Y0073802D01*
X0225777Y0073802D01*
X0225587Y0073894D01*
X0225324Y0073802D01*
X0225045Y0073802D01*
X0224910Y0073817D01*
X0224891Y0073802D01*
X0222937Y0073802D01*
X0222245Y0073110D01*
X0222245Y0070557D01*
X0222740Y0070062D01*
X0209725Y0070062D01*
X0209725Y0075672D01*
X0210509Y0075672D01*
X0210607Y0075573D01*
X0211164Y0075573D01*
X0211087Y0075287D01*
X0211087Y0074294D01*
X0213662Y0074294D01*
X0213662Y0073900D01*
X0214056Y0073900D01*
X0214056Y0071522D01*
X0215246Y0071522D01*
X0215652Y0071631D01*
X0216015Y0071841D01*
X0216221Y0072047D01*
X0216427Y0071841D01*
X0216791Y0071631D01*
X0217196Y0071522D01*
X0218387Y0071522D01*
X0218387Y0073900D01*
X0218780Y0073900D01*
X0218780Y0071522D01*
X0219971Y0071522D01*
X0220376Y0071631D01*
X0220740Y0071841D01*
X0221037Y0072138D01*
X0221246Y0072501D01*
X0221355Y0072907D01*
X0221355Y0073900D01*
X0218780Y0073900D01*
X0218780Y0074294D01*
X0221355Y0074294D01*
X0221355Y0075287D01*
X0221246Y0075693D01*
X0221218Y0075743D01*
X0222028Y0076554D01*
X0222028Y0084530D01*
X0223378Y0084530D01*
X0223870Y0084038D01*
X0223997Y0084038D01*
X0223997Y0081479D01*
X0222937Y0081479D01*
X0222245Y0080787D01*
X0222245Y0078234D01*
X0222248Y0078231D01*
X0222245Y0078228D01*
X0222245Y0075921D01*
X0222127Y0075718D01*
X0222032Y0075363D01*
X0222032Y0074392D01*
X0222032Y0073421D01*
X0222127Y0073067D01*
X0222245Y0072863D01*
X0222245Y0070557D01*
X0222740Y0070062D01*
X0204201Y0070062D01*
X0201950Y0072313D01*
X0201950Y0082682D01*
X0202639Y0083371D01*
X0202639Y0086477D01*
X0202223Y0086892D01*
X0202321Y0086991D01*
X0203939Y0086991D01*
X0204142Y0086788D01*
X0205860Y0086788D01*
X0207074Y0088002D01*
X0207074Y0089720D01*
X0205860Y0090934D01*
X0204142Y0090934D01*
X0203939Y0090731D01*
X0202321Y0090731D01*
X0201950Y0091103D01*
X0201950Y0091437D01*
X0202057Y0091329D01*
X0202421Y0091119D01*
X0202826Y0091010D01*
X0203820Y0091010D01*
X0203820Y0093585D01*
X0204213Y0093585D01*
X0204213Y0091010D01*
X0205207Y0091010D01*
X0205612Y0091119D01*
X0205976Y0091329D01*
X0206273Y0091626D01*
X0206483Y0091990D01*
X0206591Y0092395D01*
X0206591Y0093585D01*
X0204213Y0093585D01*
X0204213Y0093979D01*
X0203820Y0093979D01*
X0203820Y0096554D01*
X0202826Y0096554D01*
X0202421Y0096445D01*
X0202057Y0096235D01*
X0201898Y0096076D01*
X0201632Y0096341D01*
X0198527Y0096341D01*
X0197838Y0095652D01*
X0179226Y0095652D01*
X0178131Y0094557D01*
X0178131Y0092874D01*
X0177759Y0092503D01*
X0177715Y0092503D01*
X0177223Y0092995D01*
X0174219Y0092995D01*
X0174403Y0093179D01*
X0174883Y0094337D01*
X0174883Y0095590D01*
X0174403Y0096747D01*
X0173517Y0097633D01*
X0172360Y0098113D01*
X0171107Y0098113D01*
X0169949Y0097633D01*
X0169063Y0096747D01*
X0168583Y0095590D01*
X0168583Y0094337D01*
X0169063Y0093179D01*
X0169949Y0092293D01*
X0170873Y0091910D01*
X0170946Y0091620D01*
X0170946Y0086634D01*
X0171536Y0086043D01*
X0172459Y0085121D01*
X0172936Y0085121D01*
X0173527Y0084530D01*
X0173111Y0084114D01*
X0173111Y0080615D01*
X0173603Y0080123D01*
X0173603Y0079882D01*
X0172914Y0079193D01*
X0172914Y0079117D01*
X0172730Y0079117D01*
X0172435Y0078822D01*
X0172324Y0078822D01*
X0172324Y0083214D01*
X0171401Y0084136D01*
X0170552Y0084986D01*
X0170552Y0087938D01*
X0169629Y0088861D01*
X0169387Y0088861D01*
X0169387Y0089255D01*
X0166812Y0089255D01*
X0166812Y0089648D01*
X0169387Y0089648D01*
X0169387Y0090642D01*
X0169278Y0091047D01*
X0169068Y0091411D01*
X0168771Y0091708D01*
X0168408Y0091918D01*
X0168002Y0092026D01*
X0166812Y0092026D01*
X0166812Y0089648D01*
X0166418Y0089648D01*
X0166418Y0089255D01*
X0162087Y0089255D01*
X0162087Y0089648D01*
X0161694Y0089648D01*
X0161694Y0092026D01*
X0160503Y0092026D01*
X0160098Y0091918D01*
X0159734Y0091708D01*
X0159437Y0091411D01*
X0159228Y0091047D01*
X0159119Y0090642D01*
X0159119Y0089648D01*
X0161694Y0089648D01*
X0161694Y0089255D01*
X0159119Y0089255D01*
X0159119Y0088870D01*
X0158911Y0088875D01*
X0158896Y0088861D01*
X0158876Y0088861D01*
X0158427Y0088412D01*
X0157968Y0087973D01*
X0157968Y0087953D01*
X0157954Y0087938D01*
X0157954Y0087303D01*
X0157771Y0079095D01*
X0157757Y0079080D01*
X0157757Y0078445D01*
X0157743Y0077811D01*
X0157757Y0077796D01*
X0157757Y0077776D01*
X0158206Y0077327D01*
X0158644Y0076868D01*
X0158665Y0076867D01*
X0158679Y0076853D01*
X0159314Y0076853D01*
X0159949Y0076839D01*
X0159963Y0076853D01*
X0165040Y0076853D01*
X0165040Y0075675D01*
X0165043Y0075672D01*
X0165040Y0075669D01*
X0165040Y0073362D01*
X0164923Y0073159D01*
X0164828Y0072804D01*
X0164828Y0071833D01*
X0164828Y0070862D01*
X0164923Y0070508D01*
X0165106Y0070190D01*
X0165366Y0069931D01*
X0165683Y0069747D01*
X0166038Y0069652D01*
X0168583Y0069652D01*
X0168583Y0071833D01*
X0164828Y0071833D01*
X0168583Y0071833D01*
X0168583Y0071833D01*
X0168584Y0071833D01*
X0168584Y0071833D01*
X0172339Y0071833D01*
X0172339Y0070862D01*
X0172244Y0070508D01*
X0172061Y0070190D01*
X0171801Y0069931D01*
X0171484Y0069747D01*
X0171129Y0069652D01*
X0168584Y0069652D01*
X0168584Y0071833D01*
X0172339Y0071833D01*
X0172339Y0072522D01*
X0172829Y0072522D01*
X0172914Y0072437D01*
X0172914Y0072151D01*
X0173724Y0071341D01*
X0177223Y0071341D01*
X0177715Y0071833D01*
X0181696Y0071833D01*
X0182188Y0071341D01*
X0185687Y0071341D01*
X0186497Y0072151D01*
X0186497Y0075256D01*
X0186081Y0075672D01*
X0186497Y0076088D01*
X0186497Y0079193D01*
X0186081Y0079609D01*
X0186179Y0079707D01*
X0186421Y0079707D01*
X0186913Y0079215D01*
X0190412Y0079215D01*
X0191221Y0080025D01*
X0191221Y0083130D01*
X0190956Y0083396D01*
X0191115Y0083555D01*
X0191325Y0083919D01*
X0191434Y0084324D01*
X0191434Y0085318D01*
X0188859Y0085318D01*
X0188859Y0085711D01*
X0191434Y0085711D01*
X0191434Y0086705D01*
X0191325Y0087110D01*
X0191115Y0087474D01*
X0190818Y0087771D01*
X0190455Y0087981D01*
X0190049Y0088089D01*
X0188859Y0088089D01*
X0188859Y0085711D01*
X0188465Y0085711D01*
X0188465Y0088089D01*
X0187275Y0088089D01*
X0186870Y0087981D01*
X0186506Y0087771D01*
X0186209Y0087474D01*
X0186166Y0087398D01*
X0185687Y0087877D01*
X0182188Y0087877D01*
X0181779Y0087467D01*
X0181650Y0087596D01*
X0179926Y0087596D01*
X0178707Y0086376D01*
X0178707Y0084924D01*
X0177858Y0084924D01*
X0177442Y0084508D01*
X0177420Y0084530D01*
X0178032Y0085143D01*
X0178032Y0088248D01*
X0177616Y0088664D01*
X0177715Y0088762D01*
X0177759Y0088762D01*
X0178448Y0088073D01*
X0181553Y0088073D01*
X0181969Y0088489D01*
X0182385Y0088073D01*
X0185491Y0088073D01*
X0186300Y0088883D01*
X0186300Y0089353D01*
X0191713Y0089353D01*
X0191713Y0076154D01*
X0191502Y0075943D01*
X0191502Y0074219D01*
X0192721Y0073000D01*
X0194445Y0073000D01*
X0195665Y0074219D01*
X0195665Y0075943D01*
X0195454Y0076154D01*
X0195454Y0091604D01*
X0195145Y0091912D01*
X0197838Y0091912D01*
X0198209Y0091540D01*
X0198209Y0091103D01*
X0197520Y0090414D01*
X0197520Y0087308D01*
X0197936Y0086892D01*
X0197520Y0086477D01*
X0197520Y0083371D01*
X0198209Y0082682D01*
X0198209Y0070763D01*
X0201556Y0067417D01*
X0202651Y0066322D01*
X0225657Y0066322D01*
X0226445Y0067109D01*
X0227540Y0068204D01*
X0227540Y0069865D01*
X0228718Y0069865D01*
X0229410Y0070557D01*
X0229410Y0072863D01*
X0229528Y0073067D01*
X0229623Y0073421D01*
X0229623Y0074392D01*
X0225828Y0074392D01*
X0225828Y0074392D01*
X0229623Y0074392D01*
X0229623Y0075081D01*
X0230677Y0075081D01*
X0230985Y0075389D01*
X0230985Y0057303D01*
X0231908Y0056381D01*
X0236103Y0056381D01*
X0236103Y0056206D01*
X0236913Y0055396D01*
X0240018Y0055396D01*
X0240434Y0055812D01*
X0240850Y0055396D01*
X0240868Y0055396D01*
X0241355Y0054923D01*
X0241865Y0054412D01*
X0241879Y0054412D01*
X0241889Y0054402D01*
X0242611Y0054412D01*
X0243333Y0054412D01*
X0243343Y0054422D01*
X0245733Y0054454D01*
X0245733Y0053822D01*
X0245733Y0054393D02*
X0214659Y0054393D01*
X0213873Y0055179D02*
X0241092Y0055179D01*
X0242599Y0056184D02*
X0257363Y0056381D01*
X0257363Y0067404D01*
X0242599Y0067207D01*
X0242599Y0067010D01*
X0243957Y0067010D01*
X0244765Y0066203D01*
X0244765Y0061912D01*
X0243957Y0061105D01*
X0242599Y0061105D01*
X0242599Y0056184D01*
X0242599Y0056750D02*
X0257363Y0056750D01*
X0257363Y0057536D02*
X0242599Y0057536D01*
X0242599Y0058322D02*
X0257363Y0058322D01*
X0257363Y0059108D02*
X0242599Y0059108D01*
X0242599Y0059894D02*
X0257363Y0059894D01*
X0257363Y0060680D02*
X0242599Y0060680D01*
X0244318Y0061466D02*
X0257363Y0061466D01*
X0257363Y0062252D02*
X0244765Y0062252D01*
X0244765Y0063038D02*
X0257363Y0063038D01*
X0257363Y0063824D02*
X0244765Y0063824D01*
X0244765Y0064610D02*
X0257363Y0064610D01*
X0257363Y0065395D02*
X0244765Y0065395D01*
X0244765Y0066181D02*
X0257363Y0066181D01*
X0257363Y0066967D02*
X0244001Y0066967D01*
X0241423Y0068539D02*
X0241221Y0068539D01*
X0241221Y0069325D02*
X0286090Y0069325D01*
X0286644Y0068539D02*
X0268419Y0068539D01*
X0268990Y0068303D02*
X0267832Y0068782D01*
X0266579Y0068782D01*
X0265421Y0068303D01*
X0264535Y0067417D01*
X0264056Y0066259D01*
X0264056Y0065006D01*
X0264535Y0063848D01*
X0265421Y0062962D01*
X0266579Y0062483D01*
X0267832Y0062483D01*
X0268990Y0062962D01*
X0269876Y0063848D01*
X0270355Y0065006D01*
X0270355Y0066259D01*
X0269876Y0067417D01*
X0268990Y0068303D01*
X0269539Y0067753D02*
X0287199Y0067753D01*
X0287754Y0066967D02*
X0270062Y0066967D01*
X0270355Y0066181D02*
X0288309Y0066181D01*
X0288864Y0065395D02*
X0270355Y0065395D01*
X0270191Y0064610D02*
X0289418Y0064610D01*
X0289973Y0063824D02*
X0269851Y0063824D01*
X0269065Y0063038D02*
X0290528Y0063038D01*
X0291083Y0062252D02*
X0259135Y0062252D01*
X0259135Y0061466D02*
X0291174Y0061466D01*
X0291174Y0060680D02*
X0259135Y0060680D01*
X0259135Y0059894D02*
X0291174Y0059894D01*
X0291174Y0059108D02*
X0259135Y0059108D01*
X0259135Y0058322D02*
X0291792Y0058322D01*
X0292578Y0057536D02*
X0263291Y0057536D01*
X0264845Y0056750D02*
X0293364Y0056750D01*
X0293535Y0055066D02*
X0290961Y0052492D01*
X0290961Y0051066D01*
X0294961Y0051066D01*
X0294961Y0050278D01*
X0290961Y0050278D01*
X0290961Y0048852D01*
X0293535Y0046278D01*
X0294961Y0046278D01*
X0294961Y0050278D01*
X0295749Y0050278D01*
X0295749Y0051066D01*
X0294961Y0051066D01*
X0294961Y0055066D01*
X0293535Y0055066D01*
X0292862Y0054393D02*
X0266641Y0054393D01*
X0266315Y0055179D02*
X0318461Y0055179D01*
X0318461Y0055965D02*
X0265631Y0055965D01*
X0259309Y0057536D02*
X0259135Y0057536D01*
X0255959Y0054393D02*
X0251276Y0054393D01*
X0251276Y0053428D02*
X0248702Y0053428D01*
X0248702Y0051050D01*
X0249892Y0051050D01*
X0250297Y0051159D01*
X0250661Y0051368D01*
X0250958Y0051665D01*
X0251168Y0052029D01*
X0251276Y0052434D01*
X0251276Y0053428D01*
X0251276Y0052821D02*
X0255469Y0052821D01*
X0255469Y0052035D02*
X0251169Y0052035D01*
X0250454Y0051249D02*
X0255469Y0051249D01*
X0255646Y0050463D02*
X0216245Y0050463D01*
X0216245Y0050593D02*
X0212245Y0050593D01*
X0212245Y0046593D01*
X0213671Y0046593D01*
X0216245Y0049167D01*
X0216245Y0050593D01*
X0216245Y0049677D02*
X0255972Y0049677D01*
X0256297Y0048891D02*
X0215969Y0048891D01*
X0215183Y0048105D02*
X0256999Y0048105D01*
X0257784Y0047320D02*
X0214397Y0047320D01*
X0212245Y0047320D02*
X0211457Y0047320D01*
X0211457Y0048105D02*
X0212245Y0048105D01*
X0212245Y0048891D02*
X0211457Y0048891D01*
X0211457Y0049677D02*
X0212245Y0049677D01*
X0212245Y0050463D02*
X0211457Y0050463D01*
X0211457Y0052821D02*
X0212245Y0052821D01*
X0212245Y0053607D02*
X0211457Y0053607D01*
X0211457Y0054393D02*
X0212245Y0054393D01*
X0212245Y0055179D02*
X0211457Y0055179D01*
X0209829Y0055179D02*
X0208688Y0055179D01*
X0209043Y0054393D02*
X0207902Y0054393D01*
X0208257Y0053607D02*
X0205445Y0053607D01*
X0206231Y0052821D02*
X0207472Y0052821D01*
X0207457Y0052035D02*
X0206245Y0052035D01*
X0206245Y0050463D02*
X0207457Y0050463D01*
X0207457Y0049677D02*
X0206245Y0049677D01*
X0205969Y0048891D02*
X0207733Y0048891D01*
X0208519Y0048105D02*
X0205183Y0048105D01*
X0204397Y0047320D02*
X0209305Y0047320D01*
X0202245Y0047320D02*
X0201457Y0047320D01*
X0201457Y0048105D02*
X0202245Y0048105D01*
X0202245Y0048891D02*
X0201457Y0048891D01*
X0201457Y0049677D02*
X0202245Y0049677D01*
X0198519Y0048105D02*
X0195183Y0048105D01*
X0194397Y0047320D02*
X0199305Y0047320D01*
X0197733Y0048891D02*
X0195969Y0048891D01*
X0196245Y0049677D02*
X0197457Y0049677D01*
X0197457Y0050463D02*
X0196245Y0050463D01*
X0196245Y0052035D02*
X0197457Y0052035D01*
X0197472Y0052821D02*
X0196231Y0052821D01*
X0195445Y0053607D02*
X0198258Y0053607D01*
X0187457Y0050463D02*
X0121285Y0050463D01*
X0120959Y0049677D02*
X0187457Y0049677D01*
X0187733Y0048891D02*
X0120634Y0048891D01*
X0119932Y0048105D02*
X0188519Y0048105D01*
X0189305Y0047320D02*
X0119146Y0047320D01*
X0117550Y0046534D02*
X0259381Y0046534D01*
X0263219Y0046534D02*
X0293280Y0046534D01*
X0292494Y0047320D02*
X0264816Y0047320D01*
X0265601Y0048105D02*
X0291708Y0048105D01*
X0290961Y0048891D02*
X0266303Y0048891D01*
X0266628Y0049677D02*
X0290961Y0049677D01*
X0290961Y0051249D02*
X0267131Y0051249D01*
X0267131Y0052035D02*
X0290961Y0052035D01*
X0291290Y0052821D02*
X0267131Y0052821D01*
X0266966Y0053607D02*
X0292076Y0053607D01*
X0294961Y0053607D02*
X0295749Y0053607D01*
X0295749Y0054393D02*
X0294961Y0054393D01*
X0295749Y0055066D02*
X0295749Y0051066D01*
X0299749Y0051066D01*
X0299749Y0052492D01*
X0297175Y0055066D01*
X0295749Y0055066D01*
X0297848Y0054393D02*
X0302862Y0054393D01*
X0303535Y0055066D02*
X0300961Y0052492D01*
X0300961Y0051066D01*
X0304961Y0051066D01*
X0304961Y0050278D01*
X0300961Y0050278D01*
X0300961Y0048852D01*
X0303535Y0046278D01*
X0304961Y0046278D01*
X0304961Y0050278D01*
X0305749Y0050278D01*
X0305749Y0051066D01*
X0304961Y0051066D01*
X0304961Y0055066D01*
X0303535Y0055066D01*
X0304961Y0054393D02*
X0305749Y0054393D01*
X0305749Y0055066D02*
X0305749Y0051066D01*
X0309749Y0051066D01*
X0309749Y0052492D01*
X0307175Y0055066D01*
X0305749Y0055066D01*
X0305749Y0053607D02*
X0304961Y0053607D01*
X0304961Y0052821D02*
X0305749Y0052821D01*
X0305749Y0052035D02*
X0304961Y0052035D01*
X0304961Y0051249D02*
X0305749Y0051249D01*
X0305749Y0050463D02*
X0318176Y0050463D01*
X0318398Y0051249D02*
X0309749Y0051249D01*
X0309749Y0052035D02*
X0318460Y0052035D01*
X0318461Y0052821D02*
X0309420Y0052821D01*
X0308634Y0053607D02*
X0318461Y0053607D01*
X0318461Y0054393D02*
X0307848Y0054393D01*
X0307347Y0056750D02*
X0318461Y0056750D01*
X0318461Y0057536D02*
X0308133Y0057536D01*
X0308918Y0058322D02*
X0318461Y0058322D01*
X0318461Y0059108D02*
X0309536Y0059108D01*
X0309536Y0059894D02*
X0318461Y0059894D01*
X0318461Y0060680D02*
X0309536Y0060680D01*
X0309536Y0061466D02*
X0318461Y0061466D01*
X0318461Y0062252D02*
X0309536Y0062252D01*
X0308902Y0063038D02*
X0318461Y0063038D01*
X0318461Y0063824D02*
X0308116Y0063824D01*
X0307330Y0064610D02*
X0318461Y0064610D01*
X0318461Y0065395D02*
X0292478Y0065395D01*
X0293033Y0064610D02*
X0293380Y0064610D01*
X0291923Y0066181D02*
X0318461Y0066181D01*
X0318461Y0066967D02*
X0307563Y0066967D01*
X0308349Y0067753D02*
X0318461Y0067753D01*
X0318461Y0068539D02*
X0309135Y0068539D01*
X0309536Y0069325D02*
X0318461Y0069325D01*
X0318461Y0070111D02*
X0309536Y0070111D01*
X0309536Y0070897D02*
X0318461Y0070897D01*
X0318461Y0071683D02*
X0309536Y0071683D01*
X0309471Y0072469D02*
X0318461Y0072469D01*
X0318461Y0073255D02*
X0308685Y0073255D01*
X0307899Y0074041D02*
X0318461Y0074041D01*
X0318461Y0074826D02*
X0307114Y0074826D01*
X0307780Y0077184D02*
X0318461Y0077184D01*
X0318461Y0076398D02*
X0289433Y0076398D01*
X0289971Y0075612D02*
X0318461Y0075612D01*
X0318461Y0077970D02*
X0308566Y0077970D01*
X0309352Y0078756D02*
X0318461Y0078756D01*
X0318461Y0079542D02*
X0309536Y0079542D01*
X0309536Y0080328D02*
X0318461Y0080328D01*
X0318461Y0081114D02*
X0309536Y0081114D01*
X0309536Y0081900D02*
X0318461Y0081900D01*
X0318461Y0082686D02*
X0309254Y0082686D01*
X0308468Y0083471D02*
X0318461Y0083471D01*
X0318461Y0084257D02*
X0307683Y0084257D01*
X0307087Y0086491D02*
X0303623Y0086491D01*
X0301174Y0088940D01*
X0301174Y0092404D01*
X0303623Y0094853D01*
X0307087Y0094853D01*
X0309536Y0092404D01*
X0309536Y0088940D01*
X0307087Y0086491D01*
X0307211Y0086615D02*
X0318461Y0086615D01*
X0318461Y0085829D02*
X0288381Y0085829D01*
X0288381Y0085043D02*
X0318461Y0085043D01*
X0318461Y0087401D02*
X0307997Y0087401D01*
X0308783Y0088187D02*
X0318461Y0088187D01*
X0318461Y0088973D02*
X0309536Y0088973D01*
X0309536Y0089759D02*
X0318461Y0089759D01*
X0318461Y0090545D02*
X0309536Y0090545D01*
X0309536Y0091331D02*
X0318461Y0091331D01*
X0318461Y0092117D02*
X0309536Y0092117D01*
X0309038Y0092902D02*
X0318461Y0092902D01*
X0318461Y0093688D02*
X0308252Y0093688D01*
X0307466Y0094474D02*
X0318461Y0094474D01*
X0318461Y0095260D02*
X0285625Y0095260D01*
X0285625Y0094474D02*
X0293245Y0094474D01*
X0293623Y0094853D02*
X0291174Y0092404D01*
X0291174Y0088940D01*
X0293623Y0086491D01*
X0297087Y0086491D01*
X0299536Y0088940D01*
X0299536Y0092404D01*
X0297087Y0094853D01*
X0293623Y0094853D01*
X0292459Y0093688D02*
X0285606Y0093688D01*
X0284820Y0092902D02*
X0291673Y0092902D01*
X0291174Y0092117D02*
X0284121Y0092117D01*
X0284036Y0091331D02*
X0291174Y0091331D01*
X0291174Y0090545D02*
X0284036Y0090545D01*
X0284036Y0089759D02*
X0291174Y0089759D01*
X0291174Y0088973D02*
X0284036Y0088973D01*
X0284036Y0088187D02*
X0291927Y0088187D01*
X0292713Y0087401D02*
X0287356Y0087401D01*
X0288142Y0086615D02*
X0293499Y0086615D01*
X0293028Y0084257D02*
X0287986Y0084257D01*
X0287200Y0083471D02*
X0292242Y0083471D01*
X0291456Y0082686D02*
X0285953Y0082686D01*
X0284741Y0081900D02*
X0291174Y0081900D01*
X0289886Y0081114D02*
X0284692Y0081114D01*
X0284528Y0080328D02*
X0287354Y0080328D01*
X0289719Y0077970D02*
X0292144Y0077970D01*
X0292930Y0077184D02*
X0287908Y0077184D01*
X0287622Y0077184D02*
X0284741Y0077184D01*
X0284741Y0077247D02*
X0283935Y0077247D01*
X0284741Y0077247D01*
X0283935Y0077247D02*
X0283935Y0077247D01*
X0283935Y0077247D01*
X0279863Y0077227D02*
X0277229Y0077227D01*
X0277229Y0076361D01*
X0263438Y0076361D01*
X0256243Y0078034D01*
X0262362Y0078034D01*
X0262460Y0077936D01*
X0263683Y0077936D01*
X0263794Y0078046D01*
X0268204Y0078133D01*
X0277229Y0078133D01*
X0277229Y0077306D01*
X0279863Y0077306D01*
X0279863Y0077227D01*
X0277229Y0077184D02*
X0259898Y0077184D01*
X0262426Y0077970D02*
X0256518Y0077970D01*
X0263277Y0076398D02*
X0277229Y0076398D01*
X0277229Y0077970D02*
X0263718Y0077970D01*
X0277229Y0081114D02*
X0239399Y0081114D01*
X0236143Y0079609D02*
X0236143Y0079510D01*
X0236143Y0079609D02*
X0232560Y0079609D01*
X0232560Y0057955D01*
X0238465Y0057955D01*
X0236344Y0055965D02*
X0209474Y0055965D01*
X0210259Y0056750D02*
X0231538Y0056750D01*
X0230985Y0057536D02*
X0214314Y0057536D01*
X0215100Y0058322D02*
X0230985Y0058322D01*
X0230985Y0059108D02*
X0215885Y0059108D01*
X0216032Y0059894D02*
X0230985Y0059894D01*
X0230985Y0060680D02*
X0216032Y0060680D01*
X0216032Y0061466D02*
X0230985Y0061466D01*
X0230985Y0062252D02*
X0216032Y0062252D01*
X0215713Y0063038D02*
X0230985Y0063038D01*
X0230985Y0063824D02*
X0214927Y0063824D01*
X0214141Y0064610D02*
X0230985Y0064610D01*
X0230985Y0065395D02*
X0200087Y0065395D01*
X0199301Y0066181D02*
X0230985Y0066181D01*
X0230985Y0066967D02*
X0226303Y0066967D01*
X0227089Y0067753D02*
X0230985Y0067753D01*
X0230985Y0068539D02*
X0227540Y0068539D01*
X0227540Y0069325D02*
X0230985Y0069325D01*
X0230985Y0070111D02*
X0228964Y0070111D01*
X0228965Y0070111D02*
X0230985Y0070111D01*
X0230985Y0070897D02*
X0229410Y0070897D01*
X0230985Y0070897D01*
X0230985Y0071683D02*
X0229410Y0071683D01*
X0230985Y0071683D01*
X0230985Y0072469D02*
X0229410Y0072469D01*
X0230985Y0072469D01*
X0230985Y0073255D02*
X0229266Y0073255D01*
X0229578Y0073255D02*
X0230985Y0073255D01*
X0230985Y0074041D02*
X0209725Y0074041D01*
X0209725Y0074826D02*
X0230985Y0074826D01*
X0229623Y0074826D01*
X0229623Y0074041D02*
X0230985Y0074041D01*
X0234331Y0072227D02*
X0239115Y0072227D01*
X0239450Y0072562D01*
X0239450Y0067010D01*
X0238485Y0067010D01*
X0237678Y0066203D01*
X0237678Y0061912D01*
X0238485Y0061105D01*
X0239450Y0061105D01*
X0239450Y0060711D01*
X0234331Y0060711D01*
X0234331Y0072227D01*
X0234331Y0071683D02*
X0239450Y0071683D01*
X0239450Y0072469D02*
X0239357Y0072469D01*
X0239450Y0070897D02*
X0234331Y0070897D01*
X0234331Y0070111D02*
X0239450Y0070111D01*
X0239450Y0069325D02*
X0234331Y0069325D01*
X0234331Y0068539D02*
X0239450Y0068539D01*
X0239450Y0067753D02*
X0234331Y0067753D01*
X0234331Y0066967D02*
X0238442Y0066967D01*
X0237678Y0066181D02*
X0234331Y0066181D01*
X0234331Y0065395D02*
X0237678Y0065395D01*
X0237678Y0064610D02*
X0234331Y0064610D01*
X0234331Y0063824D02*
X0237678Y0063824D01*
X0237678Y0063038D02*
X0234331Y0063038D01*
X0234331Y0062252D02*
X0237678Y0062252D01*
X0238124Y0061466D02*
X0234331Y0061466D01*
X0209561Y0064610D02*
X0204141Y0064610D01*
X0204927Y0063824D02*
X0208775Y0063824D01*
X0207989Y0063038D02*
X0205713Y0063038D01*
X0206032Y0062252D02*
X0207670Y0062252D01*
X0207670Y0061466D02*
X0206032Y0061466D01*
X0206032Y0060680D02*
X0207670Y0060680D01*
X0207670Y0059894D02*
X0206032Y0059894D01*
X0205885Y0059108D02*
X0207328Y0059108D01*
X0206542Y0058322D02*
X0205100Y0058322D01*
X0215445Y0053607D02*
X0248308Y0053607D01*
X0248702Y0053607D02*
X0255634Y0053607D01*
X0248702Y0052821D02*
X0248308Y0052821D01*
X0248308Y0052035D02*
X0248702Y0052035D01*
X0248702Y0051249D02*
X0248308Y0051249D01*
X0266954Y0050463D02*
X0294961Y0050463D01*
X0294961Y0049677D02*
X0295749Y0049677D01*
X0295749Y0050278D02*
X0295749Y0046278D01*
X0297175Y0046278D01*
X0299749Y0048852D01*
X0299749Y0050278D01*
X0295749Y0050278D01*
X0295749Y0050463D02*
X0304961Y0050463D01*
X0304961Y0049677D02*
X0305749Y0049677D01*
X0305749Y0050278D02*
X0305749Y0046278D01*
X0307175Y0046278D01*
X0309749Y0048852D01*
X0309749Y0050278D01*
X0305749Y0050278D01*
X0309749Y0049677D02*
X0317921Y0049677D01*
X0317487Y0048891D02*
X0309749Y0048891D01*
X0309002Y0048105D02*
X0316916Y0048105D01*
X0316019Y0047320D02*
X0308216Y0047320D01*
X0307430Y0046534D02*
X0314618Y0046534D01*
X0305749Y0046534D02*
X0304961Y0046534D01*
X0304961Y0047320D02*
X0305749Y0047320D01*
X0305749Y0048105D02*
X0304961Y0048105D01*
X0304961Y0048891D02*
X0305749Y0048891D01*
X0303280Y0046534D02*
X0297430Y0046534D01*
X0298216Y0047320D02*
X0302494Y0047320D01*
X0301708Y0048105D02*
X0299002Y0048105D01*
X0299749Y0048891D02*
X0300961Y0048891D01*
X0300961Y0049677D02*
X0299749Y0049677D01*
X0299749Y0051249D02*
X0300961Y0051249D01*
X0300961Y0052035D02*
X0299749Y0052035D01*
X0299420Y0052821D02*
X0301290Y0052821D01*
X0302076Y0053607D02*
X0298634Y0053607D01*
X0295749Y0052821D02*
X0294961Y0052821D01*
X0294961Y0052035D02*
X0295749Y0052035D01*
X0295749Y0051249D02*
X0294961Y0051249D01*
X0294961Y0048891D02*
X0295749Y0048891D01*
X0295749Y0048105D02*
X0294961Y0048105D01*
X0294961Y0047320D02*
X0295749Y0047320D01*
X0295749Y0046534D02*
X0294961Y0046534D01*
X0297347Y0056750D02*
X0303364Y0056750D01*
X0302578Y0057536D02*
X0298133Y0057536D01*
X0298918Y0058322D02*
X0301792Y0058322D01*
X0301174Y0059108D02*
X0299536Y0059108D01*
X0299536Y0062252D02*
X0301174Y0062252D01*
X0301808Y0063038D02*
X0298902Y0063038D01*
X0298116Y0063824D02*
X0302594Y0063824D01*
X0303380Y0064610D02*
X0297330Y0064610D01*
X0297563Y0066967D02*
X0303147Y0066967D01*
X0302361Y0067753D02*
X0298349Y0067753D01*
X0299135Y0068539D02*
X0301575Y0068539D01*
X0293147Y0066967D02*
X0291368Y0066967D01*
X0290813Y0067753D02*
X0292361Y0067753D01*
X0291575Y0068539D02*
X0290259Y0068539D01*
X0289704Y0069325D02*
X0291149Y0069325D01*
X0290364Y0070111D02*
X0289149Y0070111D01*
X0288594Y0070897D02*
X0289846Y0070897D01*
X0289249Y0071683D02*
X0288040Y0071683D01*
X0287485Y0072469D02*
X0288652Y0072469D01*
X0288054Y0073255D02*
X0286930Y0073255D01*
X0287457Y0074041D02*
X0286375Y0074041D01*
X0290569Y0074826D02*
X0293597Y0074826D01*
X0292811Y0074041D02*
X0291166Y0074041D01*
X0291763Y0073255D02*
X0292025Y0073255D01*
X0297899Y0074041D02*
X0302811Y0074041D01*
X0303597Y0074826D02*
X0297114Y0074826D01*
X0297780Y0077184D02*
X0302930Y0077184D01*
X0302144Y0077970D02*
X0298566Y0077970D01*
X0299352Y0078756D02*
X0301358Y0078756D01*
X0301456Y0082686D02*
X0299254Y0082686D01*
X0298468Y0083471D02*
X0302242Y0083471D01*
X0303028Y0084257D02*
X0297683Y0084257D01*
X0297211Y0086615D02*
X0303499Y0086615D01*
X0302713Y0087401D02*
X0297997Y0087401D01*
X0298783Y0088187D02*
X0301927Y0088187D01*
X0301174Y0088973D02*
X0299536Y0088973D01*
X0299536Y0089759D02*
X0301174Y0089759D01*
X0301174Y0090545D02*
X0299536Y0090545D01*
X0299536Y0091331D02*
X0301174Y0091331D01*
X0301174Y0092117D02*
X0299536Y0092117D01*
X0299038Y0092902D02*
X0301673Y0092902D01*
X0302459Y0093688D02*
X0298252Y0093688D01*
X0297466Y0094474D02*
X0303245Y0094474D01*
X0303623Y0096491D02*
X0307087Y0096491D01*
X0309536Y0098940D01*
X0309536Y0102404D01*
X0307087Y0104853D01*
X0303623Y0104853D01*
X0301174Y0102404D01*
X0301174Y0098940D01*
X0303623Y0096491D01*
X0303282Y0096832D02*
X0297428Y0096832D01*
X0297087Y0096491D02*
X0299536Y0098940D01*
X0299536Y0102404D01*
X0297087Y0104853D01*
X0293623Y0104853D01*
X0291174Y0102404D01*
X0291174Y0098940D01*
X0293623Y0096491D01*
X0297087Y0096491D01*
X0298214Y0097618D02*
X0302496Y0097618D01*
X0301710Y0098404D02*
X0299000Y0098404D01*
X0299536Y0099190D02*
X0301174Y0099190D01*
X0301174Y0099976D02*
X0299536Y0099976D01*
X0299536Y0100762D02*
X0301174Y0100762D01*
X0301174Y0101547D02*
X0299536Y0101547D01*
X0299536Y0102333D02*
X0301174Y0102333D01*
X0301890Y0103119D02*
X0298821Y0103119D01*
X0298035Y0103905D02*
X0302675Y0103905D01*
X0303461Y0104691D02*
X0297249Y0104691D01*
X0293461Y0104691D02*
X0263506Y0104691D01*
X0262460Y0105125D02*
X0264603Y0104237D01*
X0266243Y0102597D01*
X0267131Y0100454D01*
X0267131Y0098134D01*
X0266243Y0095991D01*
X0264603Y0094351D01*
X0262460Y0093463D01*
X0260140Y0093463D01*
X0257997Y0094351D01*
X0256357Y0095991D01*
X0255469Y0098134D01*
X0255469Y0100454D01*
X0256357Y0102597D01*
X0257997Y0104237D01*
X0260140Y0105125D01*
X0262460Y0105125D01*
X0264935Y0103905D02*
X0292675Y0103905D01*
X0291890Y0103119D02*
X0265720Y0103119D01*
X0266352Y0102333D02*
X0272219Y0102333D01*
X0272485Y0102444D02*
X0271327Y0101964D01*
X0270441Y0101078D01*
X0269961Y0099920D01*
X0269961Y0098667D01*
X0270441Y0097510D01*
X0271327Y0096624D01*
X0272485Y0096144D01*
X0273738Y0096144D01*
X0274895Y0096624D01*
X0275781Y0097510D01*
X0276261Y0098667D01*
X0276261Y0099920D01*
X0275781Y0101078D01*
X0274895Y0101964D01*
X0273738Y0102444D01*
X0272485Y0102444D01*
X0274003Y0102333D02*
X0291174Y0102333D01*
X0291174Y0101547D02*
X0275312Y0101547D01*
X0275912Y0100762D02*
X0291174Y0100762D01*
X0291174Y0099976D02*
X0276238Y0099976D01*
X0276261Y0099190D02*
X0291174Y0099190D01*
X0291710Y0098404D02*
X0276151Y0098404D01*
X0275826Y0097618D02*
X0292496Y0097618D01*
X0293282Y0096832D02*
X0275103Y0096832D01*
X0271119Y0096832D02*
X0266591Y0096832D01*
X0266266Y0096046D02*
X0282078Y0096046D01*
X0281463Y0095260D02*
X0265512Y0095260D01*
X0264726Y0094474D02*
X0281463Y0094474D01*
X0281482Y0093688D02*
X0263003Y0093688D01*
X0259597Y0093688D02*
X0238957Y0093688D01*
X0238957Y0092902D02*
X0239089Y0092902D01*
X0239361Y0094474D02*
X0257874Y0094474D01*
X0257088Y0095260D02*
X0239646Y0095260D01*
X0239646Y0096046D02*
X0256334Y0096046D01*
X0256009Y0096832D02*
X0239442Y0096832D01*
X0239002Y0097618D02*
X0255683Y0097618D01*
X0255469Y0098404D02*
X0238004Y0098404D01*
X0235383Y0098404D02*
X0229051Y0098404D01*
X0229443Y0097618D02*
X0234385Y0097618D01*
X0233946Y0096832D02*
X0229524Y0096832D01*
X0229524Y0096046D02*
X0233741Y0096046D01*
X0233741Y0095260D02*
X0226261Y0095260D01*
X0226261Y0094570D02*
X0229524Y0094570D01*
X0229524Y0092613D01*
X0229375Y0092057D01*
X0229088Y0091559D01*
X0228681Y0091152D01*
X0228182Y0090864D01*
X0227626Y0090715D01*
X0226261Y0090715D01*
X0226261Y0094570D01*
X0226261Y0094474D02*
X0225473Y0094474D01*
X0225473Y0093688D02*
X0226261Y0093688D01*
X0226261Y0092902D02*
X0225473Y0092902D01*
X0225473Y0092117D02*
X0226261Y0092117D01*
X0226261Y0091331D02*
X0225473Y0091331D01*
X0222875Y0091331D02*
X0222028Y0091331D01*
X0222028Y0090545D02*
X0230001Y0090545D01*
X0230001Y0091331D02*
X0228859Y0091331D01*
X0229391Y0092117D02*
X0230001Y0092117D01*
X0229524Y0092902D02*
X0230718Y0092902D01*
X0229524Y0093688D02*
X0234580Y0093688D01*
X0234402Y0092902D02*
X0235217Y0092902D01*
X0234026Y0094474D02*
X0229524Y0094474D01*
X0226261Y0096046D02*
X0225473Y0096046D01*
X0225473Y0096832D02*
X0226261Y0096832D01*
X0226261Y0097618D02*
X0225473Y0097618D01*
X0225473Y0098404D02*
X0226261Y0098404D01*
X0226261Y0099190D02*
X0225473Y0099190D01*
X0224027Y0099190D02*
X0221054Y0099190D01*
X0221840Y0098404D02*
X0222683Y0098404D01*
X0222291Y0097618D02*
X0222225Y0097618D01*
X0227706Y0099190D02*
X0255469Y0099190D01*
X0255469Y0099976D02*
X0121461Y0099976D01*
X0121461Y0100454D02*
X0120574Y0102597D01*
X0118934Y0104237D01*
X0116791Y0105125D01*
X0114471Y0105125D01*
X0112328Y0104237D01*
X0110688Y0102597D01*
X0109800Y0100454D01*
X0109800Y0098134D01*
X0110688Y0095991D01*
X0112328Y0094351D01*
X0114471Y0093463D01*
X0116791Y0093463D01*
X0118934Y0094351D01*
X0120574Y0095991D01*
X0121461Y0098134D01*
X0121461Y0100454D01*
X0121334Y0100762D02*
X0255597Y0100762D01*
X0255922Y0101547D02*
X0121008Y0101547D01*
X0120683Y0102333D02*
X0256248Y0102333D01*
X0256879Y0103119D02*
X0120051Y0103119D01*
X0119265Y0103905D02*
X0257665Y0103905D01*
X0259094Y0104691D02*
X0117837Y0104691D01*
X0113424Y0104691D02*
X0036332Y0104691D01*
X0034917Y0103905D02*
X0111996Y0103905D01*
X0111210Y0103119D02*
X0033502Y0103119D01*
X0032088Y0102333D02*
X0110579Y0102333D01*
X0110253Y0101547D02*
X0030673Y0101547D01*
X0029258Y0100762D02*
X0109928Y0100762D01*
X0109800Y0099976D02*
X0027844Y0099976D01*
X0026429Y0099190D02*
X0109800Y0099190D01*
X0109800Y0098404D02*
X0025014Y0098404D01*
X0023600Y0097618D02*
X0058202Y0097618D01*
X0056878Y0096832D02*
X0056603Y0096356D01*
X0056461Y0095826D01*
X0056461Y0095260D02*
X0019356Y0095260D01*
X0017941Y0094474D02*
X0056461Y0094474D01*
X0056461Y0092902D02*
X0015112Y0092902D01*
X0013697Y0092117D02*
X0056461Y0092117D01*
X0056465Y0091331D02*
X0012283Y0091331D01*
X0010868Y0090545D02*
X0056759Y0090545D01*
X0060513Y0093688D02*
X0016527Y0093688D01*
X0009453Y0089759D02*
X0037333Y0089759D01*
X0036891Y0088973D02*
X0036773Y0088973D01*
X0038465Y0088664D02*
X0077835Y0088664D01*
X0077835Y0083349D01*
X0057166Y0083349D01*
X0055985Y0082168D01*
X0055985Y0077247D01*
X0038465Y0077247D01*
X0038465Y0088664D01*
X0038465Y0088187D02*
X0077835Y0088187D01*
X0077835Y0087401D02*
X0038465Y0087401D01*
X0038465Y0086615D02*
X0077835Y0086615D01*
X0077835Y0085829D02*
X0038465Y0085829D01*
X0038465Y0085043D02*
X0077835Y0085043D01*
X0077835Y0084257D02*
X0038465Y0084257D01*
X0038465Y0083471D02*
X0077835Y0083471D01*
X0083347Y0080790D02*
X0064056Y0080790D01*
X0064056Y0076656D01*
X0089056Y0076656D01*
X0089056Y0082830D01*
X0088954Y0082933D01*
X0088954Y0089592D01*
X0089056Y0089695D01*
X0089056Y0094373D01*
X0084528Y0094373D01*
X0084528Y0081971D01*
X0083347Y0080790D01*
X0083671Y0081114D02*
X0089056Y0081114D01*
X0089056Y0081900D02*
X0084457Y0081900D01*
X0084528Y0082686D02*
X0089056Y0082686D01*
X0088954Y0083471D02*
X0084528Y0083471D01*
X0084528Y0084257D02*
X0088954Y0084257D01*
X0088954Y0085043D02*
X0084528Y0085043D01*
X0084528Y0085829D02*
X0088954Y0085829D01*
X0088954Y0086615D02*
X0084528Y0086615D01*
X0084528Y0087401D02*
X0088954Y0087401D01*
X0088954Y0088187D02*
X0084528Y0088187D01*
X0084528Y0088973D02*
X0088954Y0088973D01*
X0089056Y0089759D02*
X0084528Y0089759D01*
X0084528Y0090545D02*
X0089056Y0090545D01*
X0089056Y0091331D02*
X0084528Y0091331D01*
X0084528Y0092117D02*
X0089056Y0092117D01*
X0089056Y0092902D02*
X0084528Y0092902D01*
X0084528Y0093688D02*
X0089056Y0093688D01*
X0090631Y0093688D02*
X0113927Y0093688D01*
X0112205Y0094474D02*
X0090631Y0094474D01*
X0090396Y0095260D02*
X0111419Y0095260D01*
X0110665Y0096046D02*
X0065292Y0096046D01*
X0065351Y0095826D02*
X0065209Y0096356D01*
X0064935Y0096832D01*
X0064547Y0097220D01*
X0064071Y0097494D01*
X0063541Y0097636D01*
X0061300Y0097636D01*
X0061300Y0093979D01*
X0065351Y0093979D01*
X0065351Y0095826D01*
X0065351Y0095260D02*
X0083189Y0095260D01*
X0082954Y0094474D02*
X0065351Y0094474D01*
X0065351Y0092902D02*
X0078737Y0092902D01*
X0078707Y0092117D02*
X0065351Y0092117D01*
X0065348Y0091331D02*
X0078707Y0091331D01*
X0079311Y0090545D02*
X0065054Y0090545D01*
X0061300Y0093688D02*
X0079523Y0093688D01*
X0082053Y0093688D02*
X0082954Y0093688D01*
X0082954Y0092902D02*
X0082839Y0092902D01*
X0090631Y0092902D02*
X0169340Y0092902D01*
X0168852Y0093688D02*
X0117334Y0093688D01*
X0119057Y0094474D02*
X0168583Y0094474D01*
X0168583Y0095260D02*
X0119843Y0095260D01*
X0120597Y0096046D02*
X0168773Y0096046D01*
X0169148Y0096832D02*
X0120922Y0096832D01*
X0121248Y0097618D02*
X0169934Y0097618D01*
X0173533Y0097618D02*
X0209627Y0097618D01*
X0209627Y0096832D02*
X0174319Y0096832D01*
X0174694Y0096046D02*
X0198232Y0096046D01*
X0203820Y0096046D02*
X0204213Y0096046D01*
X0204213Y0096554D02*
X0204213Y0093979D01*
X0206591Y0093979D01*
X0206591Y0095169D01*
X0206483Y0095575D01*
X0206273Y0095938D01*
X0205976Y0096235D01*
X0205612Y0096445D01*
X0205207Y0096554D01*
X0204213Y0096554D01*
X0204213Y0095260D02*
X0203820Y0095260D01*
X0203820Y0094474D02*
X0204213Y0094474D01*
X0204213Y0093688D02*
X0209627Y0093688D01*
X0209627Y0092902D02*
X0206591Y0092902D01*
X0206517Y0092117D02*
X0209627Y0092117D01*
X0209627Y0091331D02*
X0205977Y0091331D01*
X0206249Y0090545D02*
X0209627Y0090545D01*
X0209627Y0089759D02*
X0207035Y0089759D01*
X0207074Y0088973D02*
X0209627Y0088973D01*
X0209627Y0088187D02*
X0207074Y0088187D01*
X0206473Y0087401D02*
X0209627Y0087401D01*
X0209627Y0086615D02*
X0202500Y0086615D01*
X0202639Y0085829D02*
X0209627Y0085829D01*
X0209627Y0085043D02*
X0202639Y0085043D01*
X0202639Y0084257D02*
X0209627Y0084257D01*
X0209627Y0083471D02*
X0202639Y0083471D01*
X0201953Y0082686D02*
X0209627Y0082686D01*
X0209627Y0081900D02*
X0201950Y0081900D01*
X0201950Y0081114D02*
X0209627Y0081114D01*
X0209627Y0080328D02*
X0201950Y0080328D01*
X0201950Y0079542D02*
X0209627Y0079542D01*
X0209627Y0078756D02*
X0201950Y0078756D01*
X0201950Y0077970D02*
X0209627Y0077970D01*
X0209627Y0077184D02*
X0201950Y0077184D01*
X0201950Y0076398D02*
X0209782Y0076398D01*
X0209725Y0075612D02*
X0210568Y0075612D01*
X0201950Y0075612D01*
X0201950Y0074826D02*
X0211087Y0074826D01*
X0211087Y0073900D02*
X0211087Y0072907D01*
X0211196Y0072501D01*
X0211406Y0072138D01*
X0211703Y0071841D01*
X0212066Y0071631D01*
X0212472Y0071522D01*
X0213662Y0071522D01*
X0213662Y0073900D01*
X0211087Y0073900D01*
X0211087Y0073255D02*
X0201950Y0073255D01*
X0201950Y0074041D02*
X0213662Y0074041D01*
X0214056Y0074041D02*
X0218387Y0074041D01*
X0218387Y0073900D02*
X0214056Y0073900D01*
X0214056Y0074294D01*
X0216631Y0074294D01*
X0218387Y0074294D01*
X0218387Y0073900D01*
X0218780Y0074041D02*
X0222032Y0074041D01*
X0222032Y0074392D02*
X0225827Y0074392D01*
X0225827Y0074392D01*
X0222032Y0074392D01*
X0222032Y0074826D02*
X0221355Y0074826D01*
X0221268Y0075612D02*
X0222099Y0075612D01*
X0222307Y0075612D02*
X0221087Y0075612D01*
X0221873Y0076398D02*
X0222245Y0076398D01*
X0222245Y0077184D02*
X0222028Y0077184D01*
X0222028Y0077970D02*
X0222245Y0077970D01*
X0222245Y0078756D02*
X0222028Y0078756D01*
X0222028Y0079542D02*
X0222245Y0079542D01*
X0222245Y0080328D02*
X0222028Y0080328D01*
X0222028Y0081114D02*
X0222572Y0081114D01*
X0222028Y0081900D02*
X0223997Y0081900D01*
X0223997Y0082686D02*
X0222028Y0082686D01*
X0222028Y0083471D02*
X0223997Y0083471D01*
X0223651Y0084257D02*
X0222028Y0084257D01*
X0227737Y0083471D02*
X0229053Y0083471D01*
X0228721Y0082686D02*
X0227737Y0082686D01*
X0227737Y0081900D02*
X0228721Y0081900D01*
X0232771Y0081900D02*
X0277229Y0081900D01*
X0277229Y0082686D02*
X0233557Y0082686D01*
X0234343Y0083471D02*
X0277391Y0083471D01*
X0279863Y0083471D02*
X0279942Y0083471D01*
X0279942Y0082686D02*
X0279863Y0082686D01*
X0280591Y0084257D02*
X0234430Y0084257D01*
X0235019Y0085043D02*
X0280591Y0085043D01*
X0280591Y0085829D02*
X0235119Y0085829D01*
X0235119Y0086615D02*
X0281083Y0086615D01*
X0281083Y0087401D02*
X0235119Y0087401D01*
X0235119Y0088187D02*
X0235224Y0088187D01*
X0230108Y0088973D02*
X0229017Y0088973D01*
X0229017Y0088187D02*
X0230001Y0088187D01*
X0230001Y0087401D02*
X0229017Y0087401D01*
X0229017Y0086615D02*
X0230001Y0086615D01*
X0230001Y0085829D02*
X0229017Y0085829D01*
X0228869Y0085043D02*
X0230100Y0085043D01*
X0229839Y0084257D02*
X0228083Y0084257D01*
X0240828Y0088187D02*
X0241221Y0088187D01*
X0241221Y0088973D02*
X0240828Y0088973D01*
X0240828Y0089759D02*
X0241221Y0089759D01*
X0241221Y0090545D02*
X0281083Y0090545D01*
X0281083Y0091331D02*
X0243599Y0091331D01*
X0243599Y0091823D02*
X0243491Y0092228D01*
X0243281Y0092592D01*
X0242984Y0092889D01*
X0242620Y0093099D01*
X0242215Y0093207D01*
X0241221Y0093207D01*
X0241221Y0090633D01*
X0243599Y0090633D01*
X0243599Y0091823D01*
X0243520Y0092117D02*
X0281001Y0092117D01*
X0281167Y0092902D02*
X0242960Y0092902D01*
X0241221Y0092902D02*
X0240828Y0092902D01*
X0240828Y0092117D02*
X0241221Y0092117D01*
X0241221Y0091331D02*
X0240828Y0091331D01*
X0243599Y0089759D02*
X0281083Y0089759D01*
X0281083Y0088973D02*
X0243579Y0088973D01*
X0243188Y0088187D02*
X0281083Y0088187D01*
X0284036Y0087401D02*
X0285244Y0087401D01*
X0284458Y0086615D02*
X0284036Y0086615D01*
X0285011Y0096046D02*
X0318461Y0096046D01*
X0318461Y0096832D02*
X0307428Y0096832D01*
X0308214Y0097618D02*
X0318461Y0097618D01*
X0318461Y0098404D02*
X0309000Y0098404D01*
X0309536Y0099190D02*
X0318461Y0099190D01*
X0318408Y0099976D02*
X0309536Y0099976D01*
X0309536Y0100762D02*
X0318215Y0100762D01*
X0317960Y0101547D02*
X0309536Y0101547D01*
X0309536Y0102333D02*
X0317574Y0102333D01*
X0317003Y0103119D02*
X0308821Y0103119D01*
X0308035Y0103905D02*
X0316183Y0103905D01*
X0314985Y0104691D02*
X0307249Y0104691D01*
X0270910Y0101547D02*
X0266678Y0101547D01*
X0267003Y0100762D02*
X0270310Y0100762D01*
X0269984Y0099976D02*
X0267131Y0099976D01*
X0267131Y0099190D02*
X0269961Y0099190D01*
X0270071Y0098404D02*
X0267131Y0098404D01*
X0266917Y0097618D02*
X0270396Y0097618D01*
X0230001Y0089759D02*
X0228639Y0089759D01*
X0222343Y0092117D02*
X0222225Y0092117D01*
X0209627Y0094474D02*
X0206591Y0094474D01*
X0206567Y0095260D02*
X0209627Y0095260D01*
X0209627Y0096046D02*
X0206165Y0096046D01*
X0204213Y0092902D02*
X0203820Y0092902D01*
X0203820Y0092117D02*
X0204213Y0092117D01*
X0204213Y0091331D02*
X0203820Y0091331D01*
X0202056Y0091331D02*
X0201950Y0091331D01*
X0198209Y0091331D02*
X0195454Y0091331D01*
X0195454Y0090545D02*
X0197652Y0090545D01*
X0197520Y0089759D02*
X0195454Y0089759D01*
X0195454Y0088973D02*
X0197520Y0088973D01*
X0197520Y0088187D02*
X0195454Y0088187D01*
X0195454Y0087401D02*
X0197520Y0087401D01*
X0197659Y0086615D02*
X0195454Y0086615D01*
X0195454Y0085829D02*
X0197520Y0085829D01*
X0197520Y0085043D02*
X0195454Y0085043D01*
X0195454Y0084257D02*
X0197520Y0084257D01*
X0197520Y0083471D02*
X0195454Y0083471D01*
X0195454Y0082686D02*
X0198206Y0082686D01*
X0198209Y0081900D02*
X0195454Y0081900D01*
X0195454Y0081114D02*
X0198209Y0081114D01*
X0198209Y0080328D02*
X0195454Y0080328D01*
X0195454Y0079542D02*
X0198209Y0079542D01*
X0198209Y0078756D02*
X0195454Y0078756D01*
X0195454Y0077970D02*
X0198209Y0077970D01*
X0198209Y0077184D02*
X0195454Y0077184D01*
X0195454Y0076398D02*
X0198209Y0076398D01*
X0198209Y0075612D02*
X0195665Y0075612D01*
X0195665Y0074826D02*
X0198209Y0074826D01*
X0198209Y0074041D02*
X0195486Y0074041D01*
X0194700Y0073255D02*
X0198209Y0073255D01*
X0198209Y0072469D02*
X0186497Y0072469D01*
X0186497Y0073255D02*
X0192467Y0073255D01*
X0191681Y0074041D02*
X0186497Y0074041D01*
X0186497Y0074826D02*
X0191502Y0074826D01*
X0191502Y0075612D02*
X0186141Y0075612D01*
X0186497Y0076398D02*
X0191713Y0076398D01*
X0191713Y0077184D02*
X0186497Y0077184D01*
X0186497Y0077970D02*
X0191713Y0077970D01*
X0191713Y0078756D02*
X0186497Y0078756D01*
X0186586Y0079542D02*
X0186148Y0079542D01*
X0190738Y0079542D02*
X0191713Y0079542D01*
X0191713Y0080328D02*
X0191221Y0080328D01*
X0191221Y0081114D02*
X0191713Y0081114D01*
X0191713Y0081900D02*
X0191221Y0081900D01*
X0191221Y0082686D02*
X0191713Y0082686D01*
X0191713Y0083471D02*
X0191032Y0083471D01*
X0191416Y0084257D02*
X0191713Y0084257D01*
X0191713Y0085043D02*
X0191434Y0085043D01*
X0191434Y0085829D02*
X0191713Y0085829D01*
X0191713Y0086615D02*
X0191434Y0086615D01*
X0191157Y0087401D02*
X0191713Y0087401D01*
X0191713Y0088187D02*
X0185604Y0088187D01*
X0186163Y0087401D02*
X0186167Y0087401D01*
X0186300Y0088973D02*
X0191713Y0088973D01*
X0188859Y0087401D02*
X0188465Y0087401D01*
X0188465Y0086615D02*
X0188859Y0086615D01*
X0188859Y0085829D02*
X0188465Y0085829D01*
X0182272Y0088187D02*
X0181667Y0088187D01*
X0179732Y0087401D02*
X0178032Y0087401D01*
X0178032Y0086615D02*
X0178946Y0086615D01*
X0178707Y0085829D02*
X0178032Y0085829D01*
X0177933Y0085043D02*
X0178707Y0085043D01*
X0175473Y0086302D02*
X0175080Y0086696D01*
X0173111Y0086696D01*
X0172520Y0087286D01*
X0172520Y0091814D01*
X0171733Y0094963D01*
X0174614Y0093688D02*
X0178131Y0093688D01*
X0178131Y0092902D02*
X0177315Y0092902D01*
X0178131Y0094474D02*
X0174883Y0094474D01*
X0174883Y0095260D02*
X0178834Y0095260D01*
X0170946Y0091331D02*
X0169114Y0091331D01*
X0169387Y0090545D02*
X0170946Y0090545D01*
X0170946Y0089759D02*
X0169387Y0089759D01*
X0169387Y0088973D02*
X0170946Y0088973D01*
X0170946Y0088187D02*
X0170303Y0088187D01*
X0170552Y0087401D02*
X0170946Y0087401D01*
X0170964Y0086615D02*
X0170552Y0086615D01*
X0170552Y0085829D02*
X0171750Y0085829D01*
X0170552Y0085043D02*
X0173014Y0085043D01*
X0173254Y0084257D02*
X0171280Y0084257D01*
X0172066Y0083471D02*
X0173111Y0083471D01*
X0173111Y0082686D02*
X0172324Y0082686D01*
X0172324Y0081900D02*
X0173111Y0081900D01*
X0173111Y0081114D02*
X0172324Y0081114D01*
X0172324Y0080328D02*
X0173398Y0080328D01*
X0173263Y0079542D02*
X0172324Y0079542D01*
X0170749Y0079542D02*
X0159356Y0079542D01*
X0159374Y0080328D02*
X0170749Y0080328D01*
X0170749Y0081114D02*
X0159391Y0081114D01*
X0159409Y0081900D02*
X0170749Y0081900D01*
X0170749Y0082562D02*
X0170749Y0078920D01*
X0165732Y0078920D01*
X0165240Y0078428D01*
X0159331Y0078428D01*
X0159528Y0087286D01*
X0159944Y0087286D01*
X0160141Y0087089D01*
X0163640Y0087089D01*
X0163837Y0087286D01*
X0164669Y0087286D01*
X0164865Y0087089D01*
X0168365Y0087089D01*
X0168561Y0087286D01*
X0168977Y0087286D01*
X0168977Y0084333D01*
X0170749Y0082562D01*
X0170625Y0082686D02*
X0159426Y0082686D01*
X0159444Y0083471D02*
X0169839Y0083471D01*
X0169053Y0084257D02*
X0159461Y0084257D01*
X0159479Y0085043D02*
X0168977Y0085043D01*
X0168977Y0085829D02*
X0159496Y0085829D01*
X0159513Y0086615D02*
X0168977Y0086615D01*
X0178032Y0088187D02*
X0178335Y0088187D01*
X0166812Y0089759D02*
X0166418Y0089759D01*
X0166418Y0089648D02*
X0166418Y0092026D01*
X0165228Y0092026D01*
X0164822Y0091918D01*
X0164459Y0091708D01*
X0164253Y0091502D01*
X0164047Y0091708D01*
X0163683Y0091918D01*
X0163278Y0092026D01*
X0162087Y0092026D01*
X0162087Y0089648D01*
X0164662Y0089648D01*
X0166418Y0089648D01*
X0166418Y0090545D02*
X0166812Y0090545D01*
X0166812Y0091331D02*
X0166418Y0091331D01*
X0170375Y0092117D02*
X0090631Y0092117D01*
X0090631Y0091331D02*
X0104235Y0091331D01*
X0103449Y0090545D02*
X0090631Y0090545D01*
X0094316Y0086597D02*
X0096854Y0086597D01*
X0096339Y0086083D01*
X0096339Y0082584D01*
X0096831Y0082092D01*
X0096831Y0081851D01*
X0096339Y0081358D01*
X0096339Y0077859D01*
X0096831Y0077367D01*
X0096831Y0077126D01*
X0096641Y0076936D01*
X0096414Y0077162D01*
X0094690Y0077162D01*
X0093471Y0075943D01*
X0093471Y0074219D01*
X0094690Y0073000D01*
X0096414Y0073000D01*
X0096428Y0073014D01*
X0096460Y0073014D01*
X0096831Y0072643D01*
X0096831Y0072402D01*
X0096339Y0071910D01*
X0096339Y0068411D01*
X0096831Y0067918D01*
X0096831Y0067677D01*
X0096339Y0067185D01*
X0096339Y0063686D01*
X0096831Y0063194D01*
X0096831Y0062316D01*
X0096807Y0061572D01*
X0096831Y0061547D01*
X0096831Y0061511D01*
X0097358Y0060985D01*
X0097544Y0060787D01*
X0097225Y0060017D01*
X0097225Y0059924D01*
X0094787Y0059924D01*
X0094371Y0059508D01*
X0093955Y0059924D01*
X0090850Y0059924D01*
X0090456Y0059530D01*
X0088859Y0059530D01*
X0088859Y0061295D01*
X0089135Y0061570D01*
X0089645Y0061060D01*
X0093624Y0061060D01*
X0094316Y0061752D01*
X0094316Y0068411D01*
X0093624Y0069103D01*
X0089645Y0069103D01*
X0089135Y0068592D01*
X0088624Y0069103D01*
X0084645Y0069103D01*
X0084276Y0068733D01*
X0084250Y0068778D01*
X0083990Y0069037D01*
X0083673Y0069221D01*
X0083318Y0069316D01*
X0081991Y0069316D01*
X0081991Y0065438D01*
X0081278Y0065438D01*
X0081278Y0069316D01*
X0079951Y0069316D01*
X0079597Y0069221D01*
X0079279Y0069037D01*
X0079248Y0069006D01*
X0078488Y0069766D01*
X0058212Y0069766D01*
X0057560Y0070419D01*
X0057560Y0074946D01*
X0056736Y0075770D01*
X0057560Y0076594D01*
X0057560Y0081516D01*
X0057818Y0081774D01*
X0062813Y0081774D01*
X0062481Y0081442D01*
X0062481Y0076004D01*
X0062803Y0075682D01*
X0062784Y0075663D01*
X0062574Y0075299D01*
X0062465Y0074894D01*
X0062465Y0073900D01*
X0065040Y0073900D01*
X0065040Y0073507D01*
X0062465Y0073507D01*
X0062465Y0072513D01*
X0062574Y0072108D01*
X0062784Y0071744D01*
X0063081Y0071447D01*
X0063444Y0071237D01*
X0063850Y0071129D01*
X0065040Y0071129D01*
X0065040Y0073506D01*
X0065434Y0073506D01*
X0065434Y0071129D01*
X0066624Y0071129D01*
X0067030Y0071237D01*
X0067393Y0071447D01*
X0067599Y0071653D01*
X0067805Y0071447D01*
X0068169Y0071237D01*
X0068574Y0071129D01*
X0069765Y0071129D01*
X0069765Y0073506D01*
X0070158Y0073506D01*
X0070158Y0071129D01*
X0071348Y0071129D01*
X0071754Y0071237D01*
X0072118Y0071447D01*
X0072414Y0071744D01*
X0072624Y0072108D01*
X0072733Y0072513D01*
X0072733Y0073507D01*
X0070158Y0073507D01*
X0070158Y0073900D01*
X0072733Y0073900D01*
X0072733Y0074894D01*
X0072683Y0075081D01*
X0089708Y0075081D01*
X0090631Y0076004D01*
X0090631Y0082241D01*
X0093624Y0082241D01*
X0094316Y0082933D01*
X0094316Y0086597D01*
X0094316Y0085829D02*
X0096339Y0085829D01*
X0096339Y0085043D02*
X0094316Y0085043D01*
X0094316Y0084257D02*
X0096339Y0084257D01*
X0096339Y0083471D02*
X0094316Y0083471D01*
X0094069Y0082686D02*
X0096339Y0082686D01*
X0096831Y0081900D02*
X0090631Y0081900D01*
X0090631Y0081114D02*
X0096339Y0081114D01*
X0096339Y0080328D02*
X0090631Y0080328D01*
X0090631Y0079542D02*
X0096339Y0079542D01*
X0096339Y0078756D02*
X0090631Y0078756D01*
X0090631Y0077970D02*
X0096339Y0077970D01*
X0096831Y0077184D02*
X0090631Y0077184D01*
X0090631Y0076398D02*
X0093926Y0076398D01*
X0093471Y0075612D02*
X0090239Y0075612D01*
X0089056Y0077184D02*
X0064056Y0077184D01*
X0064056Y0077970D02*
X0089056Y0077970D01*
X0089056Y0078756D02*
X0064056Y0078756D01*
X0064056Y0079542D02*
X0089056Y0079542D01*
X0089056Y0080328D02*
X0064056Y0080328D01*
X0062481Y0080328D02*
X0057560Y0080328D01*
X0057560Y0081114D02*
X0062481Y0081114D01*
X0062481Y0079542D02*
X0057560Y0079542D01*
X0057560Y0078756D02*
X0062481Y0078756D01*
X0062481Y0077970D02*
X0057560Y0077970D01*
X0057560Y0077184D02*
X0062481Y0077184D01*
X0062481Y0076398D02*
X0057364Y0076398D01*
X0056894Y0075612D02*
X0062755Y0075612D01*
X0062465Y0074826D02*
X0057560Y0074826D01*
X0057560Y0074041D02*
X0062465Y0074041D01*
X0063072Y0074041D02*
X0084528Y0074041D01*
X0084528Y0074826D02*
X0063072Y0074826D01*
X0065434Y0073900D02*
X0068009Y0073900D01*
X0069764Y0073900D01*
X0069764Y0073507D01*
X0065434Y0073507D01*
X0065434Y0073900D01*
X0065434Y0073255D02*
X0065040Y0073255D01*
X0065040Y0072469D02*
X0065434Y0072469D01*
X0065434Y0071683D02*
X0065040Y0071683D01*
X0063072Y0072469D02*
X0084528Y0072469D01*
X0084528Y0073255D02*
X0063072Y0073255D01*
X0062465Y0073255D02*
X0057560Y0073255D01*
X0057560Y0072469D02*
X0062477Y0072469D01*
X0062845Y0071683D02*
X0057560Y0071683D01*
X0057560Y0070897D02*
X0096339Y0070897D01*
X0096339Y0071683D02*
X0072353Y0071683D01*
X0072721Y0072469D02*
X0096831Y0072469D01*
X0094436Y0073255D02*
X0072733Y0073255D01*
X0072733Y0074041D02*
X0093650Y0074041D01*
X0093471Y0074826D02*
X0072733Y0074826D01*
X0070158Y0073255D02*
X0069765Y0073255D01*
X0069765Y0072469D02*
X0070158Y0072469D01*
X0070158Y0071683D02*
X0069765Y0071683D01*
X0078427Y0071683D02*
X0084528Y0071683D01*
X0084528Y0070897D02*
X0078437Y0070897D01*
X0078447Y0070111D02*
X0084528Y0070111D01*
X0084528Y0069325D02*
X0078929Y0069325D01*
X0096339Y0069325D01*
X0096339Y0068539D02*
X0094188Y0068539D01*
X0094316Y0067753D02*
X0096831Y0067753D01*
X0096339Y0066967D02*
X0094316Y0066967D01*
X0094316Y0066181D02*
X0096339Y0066181D01*
X0096339Y0065395D02*
X0094316Y0065395D01*
X0094316Y0064610D02*
X0096339Y0064610D01*
X0096339Y0063824D02*
X0094316Y0063824D01*
X0094316Y0063038D02*
X0096831Y0063038D01*
X0096829Y0062252D02*
X0094316Y0062252D01*
X0094030Y0061466D02*
X0096877Y0061466D01*
X0097500Y0060680D02*
X0088859Y0060680D01*
X0088859Y0059894D02*
X0090820Y0059894D01*
X0089239Y0061466D02*
X0089030Y0061466D01*
X0084239Y0061466D02*
X0079030Y0061466D01*
X0079410Y0062252D02*
X0083954Y0062252D01*
X0083954Y0063038D02*
X0079410Y0063038D01*
X0079410Y0063824D02*
X0083954Y0063824D01*
X0083954Y0064610D02*
X0079410Y0064610D01*
X0079410Y0065395D02*
X0083954Y0065395D01*
X0083954Y0066181D02*
X0079410Y0066181D01*
X0079410Y0066967D02*
X0083954Y0066967D01*
X0083954Y0067753D02*
X0079410Y0067753D01*
X0079410Y0068539D02*
X0084082Y0068539D01*
X0081991Y0068539D02*
X0081278Y0068539D01*
X0081278Y0067753D02*
X0081991Y0067753D01*
X0081991Y0066967D02*
X0081278Y0066967D01*
X0081278Y0066181D02*
X0081991Y0066181D01*
X0081991Y0064610D02*
X0081278Y0064610D01*
X0081278Y0063824D02*
X0081991Y0063824D01*
X0081991Y0063038D02*
X0081278Y0063038D01*
X0081278Y0062252D02*
X0081991Y0062252D01*
X0081991Y0061466D02*
X0081278Y0061466D01*
X0077835Y0062680D02*
X0038269Y0062680D01*
X0038269Y0074294D01*
X0055985Y0074294D01*
X0055985Y0069766D01*
X0057560Y0068192D01*
X0077835Y0068192D01*
X0077835Y0062680D01*
X0077835Y0063038D02*
X0038269Y0063038D01*
X0038269Y0063824D02*
X0077835Y0063824D01*
X0077835Y0064610D02*
X0038269Y0064610D01*
X0038269Y0065395D02*
X0077835Y0065395D01*
X0077835Y0066181D02*
X0038269Y0066181D01*
X0038269Y0066967D02*
X0077835Y0066967D01*
X0077835Y0067753D02*
X0038269Y0067753D01*
X0038269Y0068539D02*
X0057212Y0068539D01*
X0056426Y0069325D02*
X0038269Y0069325D01*
X0038269Y0070111D02*
X0055985Y0070111D01*
X0055985Y0070897D02*
X0038269Y0070897D01*
X0038269Y0071683D02*
X0055985Y0071683D01*
X0055985Y0072469D02*
X0038269Y0072469D01*
X0038269Y0073255D02*
X0055985Y0073255D01*
X0055985Y0074041D02*
X0038269Y0074041D01*
X0035709Y0074041D02*
X0003351Y0074041D01*
X0003351Y0074108D02*
X0035709Y0074294D01*
X0035709Y0064845D01*
X0003914Y0064662D01*
X0003351Y0064975D01*
X0003351Y0074108D01*
X0003351Y0073255D02*
X0035709Y0073255D01*
X0035709Y0072469D02*
X0003351Y0072469D01*
X0003351Y0071683D02*
X0035709Y0071683D01*
X0035709Y0070897D02*
X0003351Y0070897D01*
X0003351Y0070111D02*
X0035709Y0070111D01*
X0035709Y0069325D02*
X0003351Y0069325D01*
X0003351Y0068539D02*
X0035709Y0068539D01*
X0035709Y0067753D02*
X0003351Y0067753D01*
X0003351Y0066967D02*
X0035709Y0066967D01*
X0035709Y0066181D02*
X0003351Y0066181D01*
X0003351Y0065395D02*
X0035709Y0065395D01*
X0036694Y0063038D02*
X0006838Y0063038D01*
X0008253Y0062252D02*
X0036694Y0062252D01*
X0037255Y0061466D02*
X0009668Y0061466D01*
X0057868Y0070111D02*
X0096339Y0070111D01*
X0102442Y0069963D02*
X0102835Y0069963D01*
X0102835Y0068207D01*
X0102835Y0065633D01*
X0102442Y0065633D01*
X0102442Y0069963D01*
X0102442Y0070357D02*
X0102442Y0072932D01*
X0102442Y0074688D01*
X0102835Y0074688D01*
X0102835Y0070357D01*
X0102442Y0070357D01*
X0102442Y0070897D02*
X0102835Y0070897D01*
X0102835Y0071683D02*
X0102442Y0071683D01*
X0102442Y0072469D02*
X0102835Y0072469D01*
X0102835Y0073255D02*
X0102442Y0073255D01*
X0102442Y0074041D02*
X0102835Y0074041D01*
X0108150Y0074041D02*
X0108544Y0074041D01*
X0108544Y0074826D02*
X0108150Y0074826D01*
X0108150Y0075475D02*
X0108544Y0075475D01*
X0108544Y0073097D01*
X0108544Y0072129D01*
X0108150Y0072129D01*
X0108150Y0075475D01*
X0108544Y0075475D02*
X0108544Y0075869D01*
X0111808Y0075869D01*
X0111808Y0077036D01*
X0111713Y0077391D01*
X0111541Y0077688D01*
X0111595Y0077742D01*
X0111595Y0081082D01*
X0110903Y0081774D01*
X0105791Y0081774D01*
X0105299Y0081282D01*
X0105001Y0081282D01*
X0105001Y0081358D01*
X0104388Y0081971D01*
X0104880Y0082463D01*
X0105382Y0082463D01*
X0106477Y0083559D01*
X0106753Y0083835D01*
X0108025Y0083835D01*
X0109239Y0085049D01*
X0109239Y0086767D01*
X0108228Y0087778D01*
X0112292Y0087778D01*
X0112269Y0087689D01*
X0112269Y0086499D01*
X0114646Y0086499D01*
X0114646Y0086105D01*
X0112269Y0086105D01*
X0112269Y0084915D01*
X0112377Y0084509D01*
X0112587Y0084146D01*
X0112884Y0083849D01*
X0113248Y0083639D01*
X0113653Y0083530D01*
X0114646Y0083530D01*
X0114646Y0086105D01*
X0115040Y0086105D01*
X0115040Y0083530D01*
X0116034Y0083530D01*
X0116439Y0083639D01*
X0116803Y0083849D01*
X0116812Y0083858D01*
X0116812Y0082660D01*
X0116037Y0082660D01*
X0114942Y0081565D01*
X0114942Y0080015D01*
X0114942Y0079202D01*
X0114942Y0077653D01*
X0115525Y0077070D01*
X0115517Y0077036D01*
X0115517Y0075869D01*
X0118780Y0075869D01*
X0118780Y0075475D01*
X0115517Y0075475D01*
X0115517Y0074307D01*
X0115612Y0073953D01*
X0115783Y0073656D01*
X0115729Y0073602D01*
X0115729Y0070261D01*
X0116421Y0069570D01*
X0121533Y0069570D01*
X0122025Y0070062D01*
X0123625Y0070062D01*
X0123308Y0069744D01*
X0123308Y0066639D01*
X0123573Y0066373D01*
X0123414Y0066214D01*
X0123204Y0065850D01*
X0123095Y0065445D01*
X0123095Y0064451D01*
X0125670Y0064451D01*
X0125670Y0064058D01*
X0123095Y0064058D01*
X0123095Y0063064D01*
X0123204Y0062659D01*
X0123414Y0062295D01*
X0123490Y0062219D01*
X0123038Y0062445D01*
X0122705Y0062778D01*
X0122371Y0062778D01*
X0122073Y0062927D01*
X0121626Y0062778D01*
X0104276Y0062778D01*
X0104264Y0062790D01*
X0104598Y0062983D01*
X0104895Y0063279D01*
X0105105Y0063643D01*
X0105213Y0064049D01*
X0105213Y0065239D01*
X0102836Y0065239D01*
X0102836Y0065633D01*
X0105213Y0065633D01*
X0105213Y0066823D01*
X0105105Y0067228D01*
X0104895Y0067592D01*
X0104689Y0067798D01*
X0104895Y0068004D01*
X0105105Y0068367D01*
X0105213Y0068773D01*
X0105213Y0069847D01*
X0105425Y0069635D01*
X0105742Y0069452D01*
X0106097Y0069357D01*
X0108150Y0069357D01*
X0108150Y0071735D01*
X0108544Y0071735D01*
X0108544Y0072129D01*
X0111808Y0072129D01*
X0111808Y0073296D01*
X0111713Y0073651D01*
X0111626Y0073802D01*
X0111713Y0073953D01*
X0111808Y0074307D01*
X0111808Y0075475D01*
X0108544Y0075475D01*
X0108544Y0075612D02*
X0118780Y0075612D01*
X0115517Y0074826D02*
X0111808Y0074826D01*
X0111736Y0074041D02*
X0115588Y0074041D01*
X0115729Y0073255D02*
X0111808Y0073255D01*
X0111808Y0072469D02*
X0115729Y0072469D01*
X0115729Y0071683D02*
X0111808Y0071683D01*
X0111808Y0071735D02*
X0108544Y0071735D01*
X0108544Y0069357D01*
X0110598Y0069357D01*
X0110952Y0069452D01*
X0111270Y0069635D01*
X0111529Y0069895D01*
X0111713Y0070213D01*
X0111808Y0070567D01*
X0111808Y0071735D01*
X0111808Y0070897D02*
X0115729Y0070897D01*
X0115880Y0070111D02*
X0111654Y0070111D01*
X0108544Y0070111D02*
X0108150Y0070111D01*
X0108150Y0070897D02*
X0108544Y0070897D01*
X0108544Y0071683D02*
X0108150Y0071683D01*
X0108150Y0072469D02*
X0108544Y0072469D01*
X0108544Y0073255D02*
X0108150Y0073255D01*
X0105213Y0069325D02*
X0123308Y0069325D01*
X0123308Y0068539D02*
X0105151Y0068539D01*
X0104733Y0067753D02*
X0123308Y0067753D01*
X0123308Y0066967D02*
X0105175Y0066967D01*
X0105213Y0066181D02*
X0123395Y0066181D01*
X0123095Y0065395D02*
X0102836Y0065395D01*
X0102835Y0066181D02*
X0102442Y0066181D01*
X0102442Y0066967D02*
X0102835Y0066967D01*
X0102835Y0067753D02*
X0102442Y0067753D01*
X0102442Y0068539D02*
X0102835Y0068539D01*
X0102835Y0069325D02*
X0102442Y0069325D01*
X0105213Y0064610D02*
X0123095Y0064610D01*
X0123095Y0063824D02*
X0105153Y0063824D01*
X0104653Y0063038D02*
X0123102Y0063038D01*
X0123424Y0062252D02*
X0123457Y0062252D01*
X0127669Y0061794D02*
X0128023Y0061998D01*
X0128320Y0062295D01*
X0128530Y0062659D01*
X0128639Y0063064D01*
X0128639Y0064058D01*
X0126064Y0064058D01*
X0126064Y0064451D01*
X0128639Y0064451D01*
X0128639Y0065445D01*
X0128530Y0065850D01*
X0128320Y0066214D01*
X0128161Y0066373D01*
X0128426Y0066639D01*
X0128426Y0069744D01*
X0128010Y0070160D01*
X0128426Y0070576D01*
X0128426Y0073014D01*
X0129004Y0073014D01*
X0129902Y0073913D01*
X0129902Y0066210D01*
X0129902Y0064661D01*
X0131280Y0063283D01*
X0132376Y0062188D01*
X0143324Y0062188D01*
X0143717Y0061794D01*
X0127669Y0061794D01*
X0128277Y0062252D02*
X0132312Y0062252D01*
X0131526Y0063038D02*
X0128631Y0063038D01*
X0128639Y0063824D02*
X0130740Y0063824D01*
X0129954Y0064610D02*
X0128639Y0064610D01*
X0128639Y0065395D02*
X0129902Y0065395D01*
X0129902Y0066181D02*
X0128339Y0066181D01*
X0128426Y0066967D02*
X0129902Y0066967D01*
X0129902Y0067753D02*
X0128426Y0067753D01*
X0128426Y0068539D02*
X0129902Y0068539D01*
X0129902Y0069325D02*
X0128426Y0069325D01*
X0128059Y0070111D02*
X0129902Y0070111D01*
X0129902Y0070897D02*
X0128426Y0070897D01*
X0128426Y0071683D02*
X0129902Y0071683D01*
X0129902Y0072469D02*
X0128426Y0072469D01*
X0129244Y0073255D02*
X0129902Y0073255D01*
X0135513Y0069569D02*
X0135906Y0069569D01*
X0135906Y0067192D01*
X0137097Y0067192D01*
X0137502Y0067300D01*
X0137866Y0067510D01*
X0138163Y0067807D01*
X0138206Y0067882D01*
X0138684Y0067404D01*
X0142183Y0067404D01*
X0142676Y0067896D01*
X0143324Y0067896D01*
X0142978Y0067551D01*
X0142306Y0065928D01*
X0133925Y0065928D01*
X0133643Y0066210D01*
X0133643Y0067459D01*
X0133917Y0067300D01*
X0134322Y0067192D01*
X0135513Y0067192D01*
X0135513Y0069569D01*
X0135513Y0069325D02*
X0135906Y0069325D01*
X0135906Y0068539D02*
X0135513Y0068539D01*
X0135513Y0067753D02*
X0135906Y0067753D01*
X0138109Y0067753D02*
X0138335Y0067753D01*
X0142532Y0067753D02*
X0143181Y0067753D01*
X0142737Y0066967D02*
X0133643Y0066967D01*
X0133671Y0066181D02*
X0142411Y0066181D01*
X0150286Y0067753D02*
X0187154Y0067753D01*
X0186166Y0066967D02*
X0161715Y0066967D01*
X0165185Y0070111D02*
X0155840Y0070111D01*
X0156198Y0070897D02*
X0164828Y0070897D01*
X0164828Y0071683D02*
X0156198Y0071683D01*
X0156198Y0072469D02*
X0164828Y0072469D01*
X0164978Y0073255D02*
X0156153Y0073255D01*
X0156198Y0074041D02*
X0165040Y0074041D01*
X0165040Y0074826D02*
X0156198Y0074826D01*
X0156131Y0075612D02*
X0165040Y0075612D01*
X0165040Y0076398D02*
X0155985Y0076398D01*
X0155985Y0077184D02*
X0158342Y0077184D01*
X0157746Y0077970D02*
X0155985Y0077970D01*
X0155985Y0078756D02*
X0157757Y0078756D01*
X0157781Y0079542D02*
X0155985Y0079542D01*
X0155985Y0080328D02*
X0157799Y0080328D01*
X0157816Y0081114D02*
X0155658Y0081114D01*
X0154312Y0081900D02*
X0157833Y0081900D01*
X0157851Y0082686D02*
X0154312Y0082686D01*
X0154312Y0083471D02*
X0157868Y0083471D01*
X0157886Y0084257D02*
X0154522Y0084257D01*
X0154523Y0085043D02*
X0157903Y0085043D01*
X0157921Y0085829D02*
X0154523Y0085829D01*
X0153890Y0086615D02*
X0157938Y0086615D01*
X0157954Y0087401D02*
X0152609Y0087401D01*
X0151074Y0088187D02*
X0158192Y0088187D01*
X0159119Y0088973D02*
X0149730Y0088973D01*
X0148067Y0088973D02*
X0134233Y0088973D01*
X0134233Y0089759D02*
X0159119Y0089759D01*
X0159119Y0090545D02*
X0134111Y0090545D01*
X0133325Y0091331D02*
X0159391Y0091331D01*
X0161694Y0091331D02*
X0162087Y0091331D01*
X0162087Y0090545D02*
X0161694Y0090545D01*
X0161694Y0089759D02*
X0162087Y0089759D01*
X0146723Y0088187D02*
X0134233Y0088187D01*
X0134233Y0087401D02*
X0146108Y0087401D01*
X0145782Y0086615D02*
X0134233Y0086615D01*
X0134233Y0085829D02*
X0145749Y0085829D01*
X0145848Y0085043D02*
X0134233Y0085043D01*
X0134233Y0084257D02*
X0146173Y0084257D01*
X0142941Y0083471D02*
X0142652Y0083471D01*
X0138216Y0083471D02*
X0134233Y0083471D01*
X0134233Y0082686D02*
X0137875Y0082686D01*
X0137875Y0081900D02*
X0134233Y0081900D01*
X0134233Y0081114D02*
X0137875Y0081114D01*
X0137875Y0080328D02*
X0134233Y0080328D01*
X0137920Y0079542D02*
X0138224Y0079542D01*
X0130493Y0081761D02*
X0130099Y0081368D01*
X0130099Y0081565D01*
X0129004Y0082660D01*
X0121143Y0082660D01*
X0121143Y0083743D01*
X0123876Y0083743D01*
X0124142Y0084008D01*
X0124301Y0083849D01*
X0124665Y0083639D01*
X0125070Y0083530D01*
X0126064Y0083530D01*
X0126064Y0086105D01*
X0126457Y0086105D01*
X0126457Y0083530D01*
X0127451Y0083530D01*
X0127856Y0083639D01*
X0128220Y0083849D01*
X0128517Y0084146D01*
X0128727Y0084509D01*
X0128835Y0084915D01*
X0128835Y0086105D01*
X0126458Y0086105D01*
X0126458Y0086499D01*
X0128835Y0086499D01*
X0128835Y0087689D01*
X0128811Y0087778D01*
X0130493Y0087778D01*
X0130493Y0081761D01*
X0130493Y0081900D02*
X0129764Y0081900D01*
X0130493Y0082686D02*
X0121143Y0082686D01*
X0121143Y0083471D02*
X0130493Y0083471D01*
X0130493Y0084257D02*
X0128581Y0084257D01*
X0128835Y0085043D02*
X0130493Y0085043D01*
X0130493Y0085829D02*
X0128835Y0085829D01*
X0128835Y0086615D02*
X0130493Y0086615D01*
X0130493Y0087401D02*
X0128835Y0087401D01*
X0126457Y0085829D02*
X0126064Y0085829D01*
X0126064Y0085043D02*
X0126457Y0085043D01*
X0126457Y0084257D02*
X0126064Y0084257D01*
X0116812Y0083471D02*
X0106390Y0083471D01*
X0105604Y0082686D02*
X0116812Y0082686D01*
X0115277Y0081900D02*
X0104460Y0081900D01*
X0111564Y0081114D02*
X0114942Y0081114D01*
X0114942Y0080328D02*
X0111595Y0080328D01*
X0111595Y0079542D02*
X0114942Y0079542D01*
X0114942Y0078756D02*
X0111595Y0078756D01*
X0111595Y0077970D02*
X0114942Y0077970D01*
X0115411Y0077184D02*
X0111768Y0077184D01*
X0111808Y0076398D02*
X0115517Y0076398D01*
X0115040Y0084257D02*
X0114646Y0084257D01*
X0114646Y0085043D02*
X0115040Y0085043D01*
X0115040Y0085829D02*
X0114646Y0085829D01*
X0112269Y0085829D02*
X0109239Y0085829D01*
X0109233Y0085043D02*
X0112269Y0085043D01*
X0112523Y0084257D02*
X0108447Y0084257D01*
X0109239Y0086615D02*
X0112269Y0086615D01*
X0112269Y0087401D02*
X0108605Y0087401D01*
X0110339Y0096832D02*
X0064934Y0096832D01*
X0063610Y0097618D02*
X0110014Y0097618D01*
X0121461Y0098404D02*
X0209815Y0098404D01*
X0210601Y0099190D02*
X0121461Y0099190D01*
X0061300Y0097618D02*
X0060513Y0097618D01*
X0060513Y0096832D02*
X0061300Y0096832D01*
X0061300Y0096046D02*
X0060513Y0096046D01*
X0060513Y0095260D02*
X0061300Y0095260D01*
X0061300Y0094474D02*
X0060513Y0094474D01*
X0035709Y0086696D02*
X0035709Y0077247D01*
X0003426Y0077247D01*
X0003426Y0086325D01*
X0004094Y0086696D01*
X0035709Y0086696D01*
X0035709Y0086615D02*
X0003949Y0086615D01*
X0003426Y0085829D02*
X0035709Y0085829D01*
X0035709Y0085043D02*
X0003426Y0085043D01*
X0003426Y0084257D02*
X0035709Y0084257D01*
X0035709Y0083471D02*
X0003426Y0083471D01*
X0003426Y0082686D02*
X0035709Y0082686D01*
X0035709Y0081900D02*
X0003426Y0081900D01*
X0003426Y0081114D02*
X0035709Y0081114D01*
X0035709Y0080328D02*
X0003426Y0080328D01*
X0003426Y0079542D02*
X0035709Y0079542D01*
X0035709Y0078756D02*
X0003426Y0078756D01*
X0003426Y0077970D02*
X0035709Y0077970D01*
X0038465Y0077970D02*
X0055985Y0077970D01*
X0055985Y0078756D02*
X0038465Y0078756D01*
X0038465Y0079542D02*
X0055985Y0079542D01*
X0055985Y0080328D02*
X0038465Y0080328D01*
X0038465Y0081114D02*
X0055985Y0081114D01*
X0055985Y0081900D02*
X0038465Y0081900D01*
X0038465Y0082686D02*
X0056503Y0082686D01*
X0093985Y0059894D02*
X0094757Y0059894D01*
X0106083Y0058322D02*
X0122855Y0058322D01*
X0099636Y0055179D02*
X0098265Y0055179D01*
X0149500Y0068539D02*
X0200434Y0068539D01*
X0201220Y0067753D02*
X0197729Y0067753D01*
X0198515Y0066967D02*
X0202006Y0066967D01*
X0199648Y0069325D02*
X0147967Y0069325D01*
X0149043Y0070111D02*
X0146573Y0070111D01*
X0146635Y0070897D02*
X0148686Y0070897D01*
X0148686Y0071683D02*
X0146635Y0071683D01*
X0146635Y0072469D02*
X0148686Y0072469D01*
X0148731Y0073255D02*
X0146635Y0073255D01*
X0146635Y0074041D02*
X0148686Y0074041D01*
X0148686Y0074392D02*
X0152442Y0074392D01*
X0152442Y0074392D01*
X0148686Y0074392D01*
X0148686Y0074826D02*
X0146635Y0074826D01*
X0152442Y0074041D02*
X0152442Y0074041D01*
X0152442Y0073255D02*
X0152442Y0073255D01*
X0152442Y0072469D02*
X0152442Y0072469D01*
X0152442Y0071683D02*
X0152442Y0071683D01*
X0152442Y0070897D02*
X0152442Y0070897D01*
X0152442Y0070111D02*
X0152442Y0070111D01*
X0153405Y0066967D02*
X0150730Y0066967D01*
X0168583Y0070111D02*
X0168584Y0070111D01*
X0168583Y0070897D02*
X0168584Y0070897D01*
X0168583Y0071683D02*
X0168584Y0071683D01*
X0171982Y0070111D02*
X0198862Y0070111D01*
X0198209Y0070897D02*
X0172339Y0070897D01*
X0172339Y0071683D02*
X0173382Y0071683D01*
X0172882Y0072469D02*
X0172339Y0072469D01*
X0177564Y0071683D02*
X0181847Y0071683D01*
X0186029Y0071683D02*
X0198209Y0071683D01*
X0201950Y0072469D02*
X0211215Y0072469D01*
X0211977Y0071683D02*
X0202579Y0071683D01*
X0203365Y0070897D02*
X0222245Y0070897D01*
X0209725Y0070897D01*
X0209725Y0071683D02*
X0222245Y0071683D01*
X0220466Y0071683D01*
X0221228Y0072469D02*
X0222245Y0072469D01*
X0209725Y0072469D01*
X0209725Y0073255D02*
X0222390Y0073255D01*
X0222077Y0073255D02*
X0221355Y0073255D01*
X0218780Y0073255D02*
X0218387Y0073255D01*
X0218387Y0072469D02*
X0218780Y0072469D01*
X0218780Y0071683D02*
X0218387Y0071683D01*
X0216701Y0071683D02*
X0215741Y0071683D01*
X0214056Y0071683D02*
X0213662Y0071683D01*
X0213662Y0072469D02*
X0214056Y0072469D01*
X0214056Y0073255D02*
X0213662Y0073255D01*
X0209725Y0070111D02*
X0222691Y0070111D01*
X0204151Y0070111D01*
X0165568Y0078756D02*
X0159339Y0078756D01*
X0152105Y0059108D02*
X0178565Y0059108D01*
X0179351Y0058322D02*
X0151319Y0058322D01*
X0191457Y0049677D02*
X0192245Y0049677D01*
X0192245Y0048891D02*
X0191457Y0048891D01*
X0191457Y0048105D02*
X0192245Y0048105D01*
X0192245Y0047320D02*
X0191457Y0047320D01*
X0259922Y0063038D02*
X0260316Y0063038D01*
X0260316Y0062861D02*
X0261309Y0062861D01*
X0261715Y0062970D01*
X0262078Y0063179D01*
X0262375Y0063476D01*
X0262585Y0063840D01*
X0262694Y0064245D01*
X0262694Y0065436D01*
X0260316Y0065436D01*
X0260316Y0062861D01*
X0260316Y0063824D02*
X0259922Y0063824D01*
X0259922Y0064610D02*
X0260316Y0064610D01*
X0260316Y0065395D02*
X0259922Y0065395D01*
X0259922Y0066181D02*
X0260316Y0066181D01*
X0260316Y0066967D02*
X0259922Y0066967D01*
X0259922Y0067753D02*
X0260316Y0067753D01*
X0258737Y0068539D02*
X0265992Y0068539D01*
X0264872Y0067753D02*
X0262396Y0067753D01*
X0262694Y0066967D02*
X0264349Y0066967D01*
X0264056Y0066181D02*
X0262694Y0066181D01*
X0262694Y0065395D02*
X0264056Y0065395D01*
X0264220Y0064610D02*
X0262694Y0064610D01*
X0262576Y0063824D02*
X0264560Y0063824D01*
X0265346Y0063038D02*
X0261833Y0063038D01*
X0241221Y0070111D02*
X0285535Y0070111D01*
X0284980Y0070897D02*
X0241221Y0070897D01*
X0241221Y0071683D02*
X0284425Y0071683D01*
X0298685Y0073255D02*
X0302025Y0073255D01*
X0301239Y0072469D02*
X0299471Y0072469D01*
X0254339Y0072469D02*
X0241221Y0072469D01*
D29*
X0245552Y0071735D03*
X0252048Y0071735D03*
X0264843Y0070948D03*
X0273308Y0065239D03*
X0251457Y0063861D03*
X0249292Y0065239D03*
X0249292Y0062483D03*
X0251261Y0061105D03*
X0244961Y0059924D03*
X0245355Y0057365D03*
X0224489Y0056971D03*
X0227639Y0064648D03*
X0218583Y0071144D03*
X0213859Y0071144D03*
X0210513Y0074097D03*
X0203623Y0073310D03*
X0195355Y0069766D03*
X0184135Y0069570D03*
X0168780Y0068979D03*
X0163269Y0070160D03*
X0160513Y0070160D03*
X0157757Y0070160D03*
X0152048Y0068388D03*
X0147324Y0071932D03*
X0147324Y0074294D03*
X0127245Y0079215D03*
X0124883Y0079215D03*
X0135513Y0082759D03*
X0126457Y0082955D03*
X0129607Y0086302D03*
X0113662Y0082759D03*
X0111694Y0086105D03*
X0087875Y0091420D03*
X0086694Y0093192D03*
X0085513Y0091420D03*
X0080788Y0092010D03*
X0066615Y0093388D03*
X0055001Y0093782D03*
X0058741Y0099097D03*
X0062481Y0099097D03*
X0060513Y0103231D03*
X0080001Y0103231D03*
X0103623Y0103428D03*
X0133347Y0103231D03*
X0162875Y0103231D03*
X0198308Y0103231D03*
X0204017Y0097129D03*
X0206969Y0093782D03*
X0214056Y0090633D03*
X0214056Y0088467D03*
X0214056Y0086302D03*
X0196339Y0089648D03*
X0188662Y0088664D03*
X0180788Y0085514D03*
X0170355Y0089451D03*
X0166615Y0092601D03*
X0161891Y0092601D03*
X0158150Y0089648D03*
X0152442Y0085121D03*
X0160513Y0081971D03*
X0162678Y0081971D03*
X0164843Y0081971D03*
X0193583Y0075081D03*
X0196733Y0081184D03*
X0213269Y0081381D03*
X0215434Y0081381D03*
X0217796Y0081381D03*
X0230198Y0074294D03*
X0244371Y0081971D03*
X0253623Y0081971D03*
X0264646Y0081971D03*
X0275867Y0085121D03*
X0286300Y0085514D03*
X0266221Y0090239D03*
X0261300Y0087483D03*
X0243977Y0090436D03*
X0243780Y0093979D03*
X0241024Y0093979D03*
X0230394Y0094176D03*
X0230394Y0097129D03*
X0226064Y0100081D03*
X0221930Y0103231D03*
X0245552Y0103231D03*
X0251851Y0103231D03*
X0277245Y0095160D03*
X0283544Y0094570D03*
X0266418Y0077444D03*
X0276064Y0076853D03*
X0279213Y0055790D03*
X0270749Y0048507D03*
X0249489Y0048310D03*
X0237875Y0048113D03*
X0225670Y0048113D03*
X0174686Y0048113D03*
X0161300Y0048113D03*
X0151064Y0048310D03*
X0139056Y0048113D03*
X0127442Y0048310D03*
X0103820Y0048113D03*
X0096143Y0048113D03*
X0100080Y0052640D03*
X0081772Y0057562D03*
X0080394Y0059924D03*
X0083347Y0059924D03*
X0095158Y0064648D03*
X0105591Y0065436D03*
X0108347Y0068979D03*
X0113662Y0071144D03*
X0113662Y0073310D03*
X0113662Y0075672D03*
X0095552Y0075081D03*
X0093977Y0071538D03*
X0090040Y0071538D03*
X0082954Y0070160D03*
X0080198Y0070160D03*
X0060513Y0075672D03*
X0085316Y0081381D03*
X0087678Y0081381D03*
X0086497Y0079215D03*
X0134331Y0066617D03*
X0136891Y0066617D03*
X0129213Y0064255D03*
X0121930Y0064058D03*
X0117796Y0064058D03*
X0066812Y0057365D03*
X0055001Y0057365D03*
X0058347Y0052050D03*
X0063662Y0052050D03*
X0060513Y0048113D03*
X0080394Y0048113D03*
X0038662Y0048113D03*
X0025080Y0059924D03*
X0017206Y0059924D03*
X0017402Y0091420D03*
X0025276Y0091420D03*
X0038465Y0103231D03*
D30*
X0236143Y0079510D02*
X0263170Y0079510D01*
X0268190Y0079609D01*
X0279804Y0079609D01*
X0281576Y0079018D01*
X0281969Y0079018D01*
X0282166Y0078822D01*
X0282560Y0078822D01*
X0287481Y0078822D01*
X0293190Y0080593D01*
X0295276Y0080593D01*
X0295355Y0080672D01*
X0305355Y0080672D01*
X0288859Y0080698D02*
X0284392Y0080698D01*
X0284384Y0080684D02*
X0284554Y0080979D01*
X0284643Y0081308D01*
X0284642Y0081971D01*
X0282560Y0081971D01*
X0282560Y0081971D01*
X0284643Y0081971D01*
X0284643Y0082339D01*
X0284791Y0082355D01*
X0285218Y0082355D01*
X0285272Y0082409D01*
X0285347Y0082417D01*
X0285614Y0082751D01*
X0285916Y0083053D01*
X0285916Y0083128D01*
X0286388Y0083719D01*
X0287044Y0083719D01*
X0288095Y0084771D01*
X0288095Y0086258D01*
X0287044Y0087310D01*
X0285556Y0087310D01*
X0284505Y0086258D01*
X0284505Y0085176D01*
X0284243Y0084848D01*
X0284243Y0085984D01*
X0283750Y0086476D01*
X0283750Y0091420D01*
X0288859Y0091420D01*
X0288859Y0080496D01*
X0287301Y0080012D01*
X0284243Y0080012D01*
X0284243Y0080542D01*
X0284384Y0080684D01*
X0284243Y0080109D02*
X0287612Y0080109D01*
X0288859Y0081287D02*
X0284637Y0081287D01*
X0284643Y0081876D02*
X0288859Y0081876D01*
X0288859Y0082465D02*
X0285385Y0082465D01*
X0285916Y0083054D02*
X0288859Y0083054D01*
X0288859Y0083643D02*
X0286328Y0083643D01*
X0287557Y0084232D02*
X0288859Y0084232D01*
X0288859Y0084821D02*
X0288095Y0084821D01*
X0288095Y0085410D02*
X0288859Y0085410D01*
X0288859Y0085999D02*
X0288095Y0085999D01*
X0287765Y0086588D02*
X0288859Y0086588D01*
X0288859Y0087177D02*
X0287176Y0087177D01*
X0285424Y0087177D02*
X0283750Y0087177D01*
X0283750Y0086588D02*
X0284835Y0086588D01*
X0284505Y0085999D02*
X0284227Y0085999D01*
X0284243Y0085410D02*
X0284505Y0085410D01*
X0286300Y0085514D02*
X0284725Y0083546D01*
X0282560Y0083546D01*
X0282560Y0085121D02*
X0282560Y0092207D01*
X0283544Y0094570D01*
X0283750Y0091301D02*
X0288859Y0091301D01*
X0288859Y0090712D02*
X0283750Y0090712D01*
X0283750Y0090123D02*
X0288859Y0090123D01*
X0288859Y0089534D02*
X0283750Y0089534D01*
X0283750Y0088945D02*
X0288859Y0088945D01*
X0288859Y0088356D02*
X0283750Y0088356D01*
X0283750Y0087766D02*
X0288859Y0087766D01*
X0281369Y0087766D02*
X0273111Y0087766D01*
X0273111Y0087177D02*
X0281369Y0087177D01*
X0281369Y0086588D02*
X0273111Y0086588D01*
X0273111Y0085999D02*
X0280893Y0085999D01*
X0280877Y0085984D02*
X0281369Y0086476D01*
X0281369Y0091420D01*
X0273111Y0091420D01*
X0273111Y0080799D01*
X0277358Y0080799D01*
X0277328Y0080915D01*
X0277328Y0081814D01*
X0279764Y0081814D01*
X0279764Y0082089D01*
X0277328Y0082089D01*
X0277328Y0082988D01*
X0277416Y0083318D01*
X0277586Y0083613D01*
X0277828Y0083854D01*
X0278123Y0084025D01*
X0278452Y0084113D01*
X0279765Y0084113D01*
X0279765Y0082089D01*
X0280040Y0082089D01*
X0280477Y0082089D01*
X0280477Y0081971D01*
X0280477Y0081814D01*
X0280040Y0081814D01*
X0280040Y0082089D01*
X0280040Y0084113D01*
X0280877Y0084113D01*
X0280877Y0085984D01*
X0280877Y0085410D02*
X0273111Y0085410D01*
X0273111Y0084821D02*
X0280877Y0084821D01*
X0280877Y0084232D02*
X0273111Y0084232D01*
X0273111Y0083643D02*
X0277616Y0083643D01*
X0277345Y0083054D02*
X0273111Y0083054D01*
X0273111Y0082465D02*
X0277328Y0082465D01*
X0277328Y0081287D02*
X0273111Y0081287D01*
X0273111Y0081876D02*
X0279764Y0081876D01*
X0280040Y0081876D02*
X0280477Y0081876D01*
X0280477Y0081971D02*
X0282560Y0081971D01*
X0282560Y0081971D01*
X0280477Y0081971D01*
X0280040Y0082465D02*
X0279765Y0082465D01*
X0279765Y0083054D02*
X0280040Y0083054D01*
X0280040Y0083643D02*
X0279765Y0083643D01*
X0263170Y0079510D02*
X0263072Y0079412D01*
X0263269Y0074885D02*
X0254804Y0076853D01*
X0254017Y0076853D01*
X0248311Y0076942D01*
X0250769Y0076951D01*
X0236143Y0076951D01*
X0236143Y0074392D02*
X0240729Y0074392D01*
X0243583Y0074294D01*
X0252442Y0074294D01*
X0258150Y0073310D01*
X0280985Y0073310D01*
X0281772Y0074097D01*
X0282363Y0074097D01*
X0284528Y0074097D01*
X0293977Y0060711D01*
X0295316Y0060711D01*
X0295355Y0060672D01*
X0305355Y0060672D01*
X0305355Y0070672D02*
X0295355Y0070672D01*
X0295276Y0070751D01*
X0291812Y0070751D01*
X0288072Y0075672D01*
X0282560Y0075672D01*
X0282363Y0075475D01*
X0280985Y0075475D01*
X0280001Y0074885D01*
X0263269Y0074885D01*
X0273111Y0076075D02*
X0273111Y0078418D01*
X0277358Y0078418D01*
X0277328Y0078303D01*
X0277328Y0077404D01*
X0279764Y0077404D01*
X0279764Y0077129D01*
X0277328Y0077129D01*
X0277328Y0076230D01*
X0277369Y0076075D01*
X0273111Y0076075D01*
X0273111Y0076574D02*
X0277328Y0076574D01*
X0277328Y0077752D02*
X0273111Y0077752D01*
X0273111Y0077163D02*
X0279764Y0077163D01*
X0280040Y0077163D02*
X0280477Y0077163D01*
X0280477Y0077129D02*
X0280040Y0077129D01*
X0280040Y0077404D01*
X0280477Y0077404D01*
X0280477Y0077247D01*
X0282560Y0077247D01*
X0284643Y0077247D01*
X0284643Y0077631D01*
X0287187Y0077631D01*
X0287363Y0077538D01*
X0287662Y0077631D01*
X0287974Y0077631D01*
X0288115Y0077772D01*
X0288859Y0078003D01*
X0288859Y0076603D01*
X0288721Y0076785D01*
X0288630Y0076797D01*
X0288565Y0076862D01*
X0288152Y0076862D01*
X0287744Y0076918D01*
X0287671Y0076862D01*
X0284642Y0076862D01*
X0284642Y0077247D01*
X0282560Y0077247D01*
X0282560Y0077247D01*
X0282560Y0077247D01*
X0280477Y0077247D01*
X0280477Y0077129D01*
X0277338Y0078341D02*
X0273111Y0078341D01*
X0284642Y0077163D02*
X0288859Y0077163D01*
X0288859Y0077752D02*
X0288096Y0077752D01*
X0281369Y0088356D02*
X0273111Y0088356D01*
X0273111Y0088945D02*
X0281369Y0088945D01*
X0281369Y0089534D02*
X0273111Y0089534D01*
X0273111Y0090123D02*
X0281369Y0090123D01*
X0281369Y0090712D02*
X0273111Y0090712D01*
X0273111Y0091301D02*
X0281369Y0091301D01*
D31*
X0237087Y0090436D02*
X0237087Y0095357D01*
X0236694Y0095751D01*
X0237087Y0090436D02*
X0232757Y0090436D01*
X0232560Y0090633D01*
X0225867Y0087286D02*
X0225867Y0079510D01*
X0225828Y0079510D01*
X0229902Y0076951D02*
X0230591Y0077640D01*
X0230591Y0082365D01*
X0232560Y0084333D01*
X0232560Y0086696D01*
X0205001Y0088861D02*
X0200080Y0088861D01*
X0200080Y0071538D01*
X0203426Y0068192D01*
X0224883Y0068192D01*
X0225670Y0068979D01*
X0225670Y0071676D01*
X0225828Y0071833D01*
X0225473Y0071873D01*
X0225080Y0071735D01*
X0225828Y0076951D02*
X0229902Y0076951D01*
X0201851Y0060987D02*
X0196812Y0066026D01*
X0188072Y0066026D01*
X0187284Y0065436D01*
X0186497Y0065042D01*
X0159528Y0065042D01*
X0155591Y0065042D02*
X0146733Y0065042D01*
X0146143Y0064648D01*
X0144568Y0064058D01*
X0133150Y0064058D01*
X0131772Y0065436D01*
X0131772Y0077640D01*
X0131772Y0080396D01*
X0132363Y0080987D01*
X0132363Y0089648D01*
X0105198Y0089648D01*
X0104017Y0088467D01*
X0092796Y0088467D01*
X0091969Y0088428D01*
X0091635Y0086262D01*
X0098702Y0084333D02*
X0098702Y0079609D01*
X0098702Y0074885D01*
X0095749Y0074885D01*
X0095552Y0075081D01*
X0098702Y0074885D02*
X0098702Y0070160D01*
X0098702Y0065436D01*
X0098702Y0062286D01*
X0101654Y0059136D01*
X0099883Y0057365D01*
X0096339Y0057365D01*
X0101654Y0059136D02*
X0101654Y0059333D01*
X0103229Y0060908D01*
X0121930Y0060908D01*
X0123898Y0059924D01*
X0150276Y0059924D01*
X0151457Y0061105D01*
X0163269Y0061105D01*
X0163859Y0061696D01*
X0178623Y0061696D01*
X0184331Y0055987D01*
X0206851Y0055987D01*
X0211851Y0060987D01*
X0183938Y0073703D02*
X0175473Y0073703D01*
X0175080Y0074097D01*
X0173898Y0074097D01*
X0173603Y0074392D01*
X0168583Y0074392D01*
X0168583Y0076951D02*
X0173209Y0076951D01*
X0173505Y0077247D01*
X0175080Y0077247D01*
X0175473Y0077640D01*
X0175473Y0082365D01*
X0175473Y0086302D01*
X0175473Y0086696D01*
X0180788Y0085514D02*
X0183938Y0085514D01*
X0183741Y0081774D02*
X0179804Y0081774D01*
X0179410Y0082168D01*
X0179410Y0082365D01*
X0183741Y0081774D02*
X0183938Y0081577D01*
X0188662Y0081577D01*
X0183938Y0081577D02*
X0183938Y0077640D01*
X0193583Y0075081D02*
X0193583Y0090829D01*
X0193190Y0091223D01*
X0184528Y0091223D01*
X0183938Y0090633D01*
X0180001Y0090633D02*
X0180001Y0093782D01*
X0200080Y0093782D01*
X0200080Y0088861D01*
X0180001Y0090633D02*
X0175473Y0090633D01*
X0152442Y0085121D02*
X0151457Y0085908D01*
X0148898Y0085908D01*
X0152442Y0085121D02*
X0152442Y0081577D01*
X0145158Y0081577D01*
X0140434Y0081577D01*
X0128229Y0080790D02*
X0127653Y0080790D01*
X0127442Y0080579D01*
X0125473Y0080579D01*
X0125262Y0080790D01*
X0122733Y0080790D01*
X0122733Y0079412D01*
X0118977Y0079412D01*
X0118977Y0079412D01*
X0122733Y0079412D01*
X0122733Y0078412D01*
X0123090Y0078055D01*
X0123178Y0078206D01*
X0123529Y0078558D01*
X0123960Y0078807D01*
X0124441Y0078936D01*
X0125867Y0078936D01*
X0125867Y0076066D01*
X0125867Y0076066D01*
X0125867Y0078936D01*
X0127293Y0078936D01*
X0127774Y0078807D01*
X0128204Y0078558D01*
X0128229Y0078533D01*
X0128229Y0080790D01*
X0128229Y0079964D02*
X0122733Y0079964D01*
X0122733Y0078587D02*
X0123580Y0078587D01*
X0125867Y0078587D02*
X0125867Y0078587D01*
X0125867Y0077211D02*
X0125867Y0077211D01*
X0128154Y0078587D02*
X0128229Y0078587D01*
X0135709Y0077640D02*
X0140434Y0077640D01*
X0140434Y0073703D01*
X0135709Y0073703D02*
X0135709Y0077640D01*
X0144765Y0077247D02*
X0145158Y0077640D01*
X0145158Y0076853D01*
X0152343Y0076853D01*
X0152442Y0076951D01*
X0152442Y0079510D02*
X0152442Y0081577D01*
X0144765Y0077247D02*
X0144765Y0070948D01*
X0143583Y0069766D01*
X0140434Y0069766D01*
X0125867Y0072129D02*
X0125670Y0071932D01*
X0118977Y0071932D01*
X0108347Y0079412D02*
X0102835Y0079412D01*
X0102639Y0079609D01*
X0102639Y0084333D02*
X0104607Y0084333D01*
X0106182Y0085908D01*
X0107166Y0085908D01*
X0118780Y0086302D02*
X0118977Y0086105D01*
X0081772Y0086696D02*
X0081635Y0086558D01*
X0081635Y0086262D01*
X0081772Y0086696D02*
X0081576Y0086892D01*
X0081576Y0091223D01*
X0080788Y0092010D01*
X0086635Y0065081D02*
X0086595Y0065042D01*
X0086497Y0065042D01*
D32*
X0101654Y0059136D03*
X0146733Y0065042D03*
D33*
X0125867Y0068192D02*
X0125867Y0072129D01*
X0211300Y0077247D02*
X0211300Y0097522D01*
X0220355Y0097522D01*
X0220355Y0090140D01*
X0219628Y0090140D01*
X0218879Y0089391D01*
X0218879Y0085181D01*
X0219628Y0084432D01*
X0220355Y0084432D01*
X0220355Y0077247D01*
X0211300Y0077247D01*
X0211300Y0077590D02*
X0220355Y0077590D01*
X0220355Y0078573D02*
X0211300Y0078573D01*
X0211300Y0079555D02*
X0220355Y0079555D01*
X0220355Y0080538D02*
X0211300Y0080538D01*
X0211300Y0081521D02*
X0220355Y0081521D01*
X0220355Y0082504D02*
X0211300Y0082504D01*
X0211300Y0083486D02*
X0220355Y0083486D01*
X0219591Y0084469D02*
X0211300Y0084469D01*
X0211300Y0085452D02*
X0218879Y0085452D01*
X0218879Y0086435D02*
X0211300Y0086435D01*
X0211300Y0087417D02*
X0218879Y0087417D01*
X0218879Y0088400D02*
X0211300Y0088400D01*
X0211300Y0089383D02*
X0218879Y0089383D01*
X0220355Y0090366D02*
X0211300Y0090366D01*
X0211300Y0091348D02*
X0220355Y0091348D01*
X0220355Y0092331D02*
X0211300Y0092331D01*
X0211300Y0093314D02*
X0220355Y0093314D01*
X0220355Y0094297D02*
X0211300Y0094297D01*
X0211300Y0095280D02*
X0220355Y0095280D01*
X0220355Y0096262D02*
X0211300Y0096262D01*
X0211300Y0097245D02*
X0220355Y0097245D01*
D34*
X0122324Y0086302D02*
X0118780Y0086302D01*
X0118977Y0086105D02*
X0118977Y0079412D01*
X0081772Y0086262D02*
X0081635Y0086262D01*
X0086497Y0065042D02*
X0086694Y0064451D01*
X0086694Y0058152D01*
X0087481Y0057365D01*
X0092402Y0057365D01*
X0092402Y0052640D01*
D35*
X0086497Y0086125D02*
X0086635Y0086262D01*
X0086891Y0086518D01*
X0086635Y0086262D02*
X0086694Y0086203D01*
M02*
