G75*
%MOIN*%
%OFA0B0*%
%FSLAX25Y25*%
%IPPOS*%
%LPD*%
%AMOC8*
5,1,8,0,0,1.08239X$1,22.5*
%
%ADD10C,0.06000*%
%ADD11C,0.03543*%
%ADD12C,0.01784*%
%ADD13C,0.01800*%
%ADD14C,0.00787*%
%ADD15C,0.06496*%
%ADD16C,0.01378*%
%ADD17C,0.00984*%
D10*
X0006300Y0027890D03*
X0016300Y0027890D03*
X0016300Y0037890D03*
X0006300Y0037890D03*
X0191851Y0018205D03*
X0201851Y0018205D03*
X0211851Y0018205D03*
X0211851Y0008205D03*
X0201851Y0008205D03*
X0191851Y0008205D03*
X0295355Y0007890D03*
X0305355Y0007890D03*
X0305355Y0017890D03*
X0295355Y0017890D03*
X0295355Y0027890D03*
X0305355Y0027890D03*
X0305355Y0037890D03*
X0295355Y0037890D03*
X0295355Y0047890D03*
X0305355Y0047890D03*
X0305355Y0057890D03*
X0295355Y0057890D03*
D11*
X0236694Y0052969D03*
D12*
X0205001Y0046079D03*
X0192796Y0056512D03*
X0107166Y0043126D03*
X0087481Y0014583D03*
D13*
X0081772Y0014780D03*
X0080394Y0017142D03*
X0083347Y0017142D03*
X0066812Y0014583D03*
X0055001Y0014583D03*
X0058347Y0009268D03*
X0063662Y0009268D03*
X0060513Y0005331D03*
X0080394Y0005331D03*
X0096143Y0005331D03*
X0103820Y0005331D03*
X0100080Y0009858D03*
X0127442Y0005528D03*
X0139056Y0005331D03*
X0151064Y0005528D03*
X0161300Y0005331D03*
X0174686Y0005331D03*
X0224489Y0014189D03*
X0244961Y0017142D03*
X0251261Y0018323D03*
X0249292Y0019701D03*
X0251457Y0021079D03*
X0249292Y0022457D03*
X0264843Y0028165D03*
X0252048Y0028953D03*
X0245552Y0028953D03*
X0230198Y0031512D03*
X0218583Y0028362D03*
X0213859Y0028362D03*
X0210513Y0031315D03*
X0203623Y0030528D03*
X0195355Y0026984D03*
X0184135Y0026787D03*
X0168780Y0026197D03*
X0163269Y0027378D03*
X0160513Y0027378D03*
X0157757Y0027378D03*
X0152048Y0025606D03*
X0147324Y0029150D03*
X0147324Y0031512D03*
X0127245Y0036433D03*
X0124883Y0036433D03*
X0135513Y0039976D03*
X0126457Y0040173D03*
X0129607Y0043520D03*
X0113662Y0039976D03*
X0111694Y0043323D03*
X0087875Y0048638D03*
X0085513Y0048638D03*
X0080788Y0049228D03*
X0086694Y0050409D03*
X0066615Y0050606D03*
X0055001Y0051000D03*
X0058741Y0056315D03*
X0062481Y0056315D03*
X0060513Y0060449D03*
X0080001Y0060449D03*
X0103623Y0060646D03*
X0133347Y0060449D03*
X0162875Y0060449D03*
X0198308Y0060449D03*
X0204017Y0054346D03*
X0206969Y0051000D03*
X0214056Y0047850D03*
X0214056Y0045685D03*
X0214056Y0043520D03*
X0213269Y0038598D03*
X0215434Y0038598D03*
X0217796Y0038598D03*
X0196733Y0038402D03*
X0180788Y0042732D03*
X0188662Y0045882D03*
X0196339Y0046866D03*
X0170355Y0046669D03*
X0166615Y0049819D03*
X0161891Y0049819D03*
X0158150Y0046866D03*
X0152442Y0042339D03*
X0160513Y0039189D03*
X0162678Y0039189D03*
X0164843Y0039189D03*
X0193583Y0032299D03*
X0227639Y0021866D03*
X0245355Y0014583D03*
X0270749Y0005724D03*
X0249489Y0005528D03*
X0237875Y0005331D03*
X0225670Y0005331D03*
X0279213Y0013008D03*
X0273308Y0022457D03*
X0276064Y0034071D03*
X0266418Y0034661D03*
X0264646Y0039189D03*
X0253623Y0039189D03*
X0244371Y0039189D03*
X0261300Y0044701D03*
X0266221Y0047457D03*
X0277245Y0052378D03*
X0283544Y0051787D03*
X0251851Y0060449D03*
X0245552Y0060449D03*
X0230394Y0054346D03*
X0230394Y0051394D03*
X0241024Y0051197D03*
X0243780Y0051197D03*
X0243977Y0047654D03*
X0275867Y0042339D03*
X0286300Y0042732D03*
X0226064Y0057299D03*
X0221930Y0060449D03*
X0113662Y0032890D03*
X0113662Y0030528D03*
X0113662Y0028362D03*
X0108347Y0026197D03*
X0105591Y0022654D03*
X0095158Y0021866D03*
X0082954Y0027378D03*
X0080198Y0027378D03*
X0090040Y0028756D03*
X0093977Y0028756D03*
X0095552Y0032299D03*
X0086497Y0036433D03*
X0087678Y0038598D03*
X0085316Y0038598D03*
X0060513Y0032890D03*
X0117796Y0021276D03*
X0121930Y0021276D03*
X0129213Y0021472D03*
X0134331Y0023835D03*
X0136891Y0023835D03*
X0038662Y0005331D03*
X0025080Y0017142D03*
X0017206Y0017142D03*
X0017402Y0048638D03*
X0025276Y0048638D03*
X0038465Y0060449D03*
D14*
X0029473Y0007681D02*
X0109977Y0007681D01*
X0109800Y0008108D02*
X0110688Y0005965D01*
X0112328Y0004325D01*
X0114471Y0003437D01*
X0116791Y0003437D01*
X0118934Y0004325D01*
X0120574Y0005965D01*
X0121461Y0008108D01*
X0121461Y0010428D01*
X0120574Y0012571D01*
X0118934Y0014211D01*
X0116791Y0015098D01*
X0114471Y0015098D01*
X0112328Y0014211D01*
X0110688Y0012571D01*
X0109800Y0010428D01*
X0109800Y0008108D01*
X0109800Y0008467D02*
X0028058Y0008467D01*
X0026643Y0009253D02*
X0109800Y0009253D01*
X0109800Y0010039D02*
X0025229Y0010039D01*
X0023814Y0010825D02*
X0109965Y0010825D01*
X0110290Y0011611D02*
X0022400Y0011611D01*
X0020985Y0012396D02*
X0099636Y0012396D01*
X0099145Y0012599D02*
X0100773Y0011925D01*
X0102535Y0011925D01*
X0104163Y0012599D01*
X0105409Y0013845D01*
X0106083Y0015473D01*
X0106083Y0017235D01*
X0105409Y0018863D01*
X0104163Y0020109D01*
X0102535Y0020783D01*
X0100773Y0020783D01*
X0099145Y0020109D01*
X0097899Y0018863D01*
X0097225Y0017235D01*
X0097225Y0015473D01*
X0097899Y0013845D01*
X0099145Y0012599D01*
X0098563Y0013182D02*
X0089013Y0013182D01*
X0089554Y0013724D02*
X0088340Y0012509D01*
X0086622Y0012509D01*
X0085408Y0013724D01*
X0085408Y0015441D01*
X0086622Y0016656D01*
X0088340Y0016656D01*
X0089554Y0015441D01*
X0089554Y0013724D01*
X0089554Y0013968D02*
X0097849Y0013968D01*
X0097523Y0014754D02*
X0089554Y0014754D01*
X0089456Y0015540D02*
X0097225Y0015540D01*
X0097225Y0016326D02*
X0088670Y0016326D01*
X0086292Y0016326D02*
X0013912Y0016326D01*
X0015326Y0015540D02*
X0085507Y0015540D01*
X0085408Y0014754D02*
X0016741Y0014754D01*
X0018156Y0013968D02*
X0085408Y0013968D01*
X0085949Y0013182D02*
X0019570Y0013182D01*
X0012497Y0017112D02*
X0097225Y0017112D01*
X0097500Y0017898D02*
X0011082Y0017898D01*
X0009668Y0018684D02*
X0097825Y0018684D01*
X0098506Y0019470D02*
X0008253Y0019470D01*
X0006838Y0020256D02*
X0099499Y0020256D01*
X0103810Y0020256D02*
X0142769Y0020256D01*
X0142978Y0019751D02*
X0144224Y0018505D01*
X0145852Y0017831D01*
X0147614Y0017831D01*
X0149242Y0018505D01*
X0150488Y0019751D01*
X0151162Y0021379D01*
X0151162Y0023141D01*
X0150488Y0024769D01*
X0149242Y0026015D01*
X0147614Y0026689D01*
X0145852Y0026689D01*
X0144224Y0026015D01*
X0142978Y0024769D01*
X0142304Y0023141D01*
X0142304Y0021379D01*
X0142978Y0019751D01*
X0143259Y0019470D02*
X0104803Y0019470D01*
X0105483Y0018684D02*
X0144045Y0018684D01*
X0145690Y0017898D02*
X0105809Y0017898D01*
X0106083Y0017112D02*
X0187778Y0017112D01*
X0187670Y0017373D02*
X0188307Y0015836D01*
X0189483Y0014660D01*
X0191020Y0014024D01*
X0192683Y0014024D01*
X0194220Y0014660D01*
X0195396Y0015836D01*
X0196032Y0017373D01*
X0196032Y0019036D01*
X0195396Y0020573D01*
X0194220Y0021749D01*
X0193721Y0021956D01*
X0193721Y0029792D01*
X0194147Y0030218D01*
X0194445Y0030218D01*
X0195665Y0031437D01*
X0195665Y0033161D01*
X0195247Y0033579D01*
X0271942Y0033579D01*
X0272032Y0033508D01*
X0272620Y0033579D01*
X0273214Y0033579D01*
X0273294Y0033660D01*
X0273408Y0033673D01*
X0273774Y0034140D01*
X0274194Y0034559D01*
X0274194Y0034673D01*
X0288491Y0052870D01*
X0309237Y0052870D01*
X0310217Y0053850D01*
X0310217Y0055236D01*
X0310217Y0060149D01*
X0310217Y0061536D01*
X0309261Y0062492D01*
X0312481Y0062492D01*
X0313417Y0062419D01*
X0315196Y0061840D01*
X0316710Y0060741D01*
X0317810Y0059227D01*
X0318388Y0057447D01*
X0318461Y0056512D01*
X0318461Y0009268D01*
X0318388Y0008332D01*
X0317810Y0006553D01*
X0316710Y0005039D01*
X0315196Y0003939D01*
X0313417Y0003361D01*
X0312481Y0003287D01*
X0037381Y0003287D01*
X0003351Y0022193D01*
X0003351Y0024926D01*
X0003932Y0024345D01*
X0005468Y0023709D01*
X0007132Y0023709D01*
X0008668Y0024345D01*
X0009845Y0025521D01*
X0010481Y0027058D01*
X0010481Y0028721D01*
X0009845Y0030258D01*
X0008668Y0031434D01*
X0007132Y0032071D01*
X0005468Y0032071D01*
X0003932Y0031434D01*
X0003351Y0030854D01*
X0003351Y0034926D01*
X0003932Y0034345D01*
X0005468Y0033709D01*
X0007132Y0033709D01*
X0008668Y0034345D01*
X0009845Y0035521D01*
X0010481Y0037058D01*
X0010481Y0038721D01*
X0009845Y0040258D01*
X0008668Y0041434D01*
X0007132Y0042071D01*
X0005468Y0042071D01*
X0003932Y0041434D01*
X0003351Y0040854D01*
X0003351Y0043587D01*
X0037381Y0062492D01*
X0280662Y0062492D01*
X0280290Y0062120D01*
X0275128Y0058382D01*
X0266836Y0058382D01*
X0266243Y0059815D01*
X0264603Y0061455D01*
X0262460Y0062343D01*
X0260140Y0062343D01*
X0257997Y0061455D01*
X0256357Y0059815D01*
X0255763Y0058382D01*
X0121167Y0058382D01*
X0120574Y0059815D01*
X0118934Y0061455D01*
X0116791Y0062343D01*
X0114471Y0062343D01*
X0112328Y0061455D01*
X0110688Y0059815D01*
X0110094Y0058382D01*
X0084819Y0058382D01*
X0084812Y0058388D01*
X0084127Y0058382D01*
X0083442Y0058382D01*
X0083435Y0058376D01*
X0083426Y0058375D01*
X0082946Y0057887D01*
X0082461Y0057402D01*
X0082461Y0057393D01*
X0082455Y0057386D01*
X0082461Y0056701D01*
X0082461Y0056016D01*
X0082468Y0056009D01*
X0082519Y0050441D01*
X0081650Y0051309D01*
X0079926Y0051309D01*
X0078707Y0050090D01*
X0078707Y0048366D01*
X0078918Y0048155D01*
X0078918Y0035068D01*
X0080014Y0033972D01*
X0083557Y0030429D01*
X0094479Y0030429D01*
X0094690Y0030218D01*
X0096414Y0030218D01*
X0097633Y0031437D01*
X0097633Y0033161D01*
X0097216Y0033579D01*
X0191920Y0033579D01*
X0191502Y0033161D01*
X0191502Y0032863D01*
X0189981Y0031342D01*
X0189981Y0021956D01*
X0189483Y0021749D01*
X0188307Y0020573D01*
X0187670Y0019036D01*
X0187670Y0017373D01*
X0187670Y0017898D02*
X0147776Y0017898D01*
X0149421Y0018684D02*
X0187670Y0018684D01*
X0187850Y0019470D02*
X0150207Y0019470D01*
X0150697Y0020256D02*
X0188175Y0020256D01*
X0188775Y0021042D02*
X0151022Y0021042D01*
X0151162Y0021827D02*
X0189671Y0021827D01*
X0189981Y0022613D02*
X0151162Y0022613D01*
X0151055Y0023399D02*
X0189981Y0023399D01*
X0189981Y0024185D02*
X0150730Y0024185D01*
X0150286Y0024971D02*
X0189981Y0024971D01*
X0189981Y0025757D02*
X0149500Y0025757D01*
X0147967Y0026543D02*
X0189981Y0026543D01*
X0189981Y0027329D02*
X0020481Y0027329D01*
X0020481Y0027058D02*
X0019845Y0025521D01*
X0018668Y0024345D01*
X0017132Y0023709D01*
X0015468Y0023709D01*
X0013932Y0024345D01*
X0012755Y0025521D01*
X0012119Y0027058D01*
X0012119Y0028721D01*
X0012755Y0030258D01*
X0013932Y0031434D01*
X0015468Y0032071D01*
X0017132Y0032071D01*
X0018668Y0031434D01*
X0019845Y0030258D01*
X0020481Y0028721D01*
X0020481Y0027058D01*
X0020268Y0026543D02*
X0145499Y0026543D01*
X0143966Y0025757D02*
X0019942Y0025757D01*
X0019294Y0024971D02*
X0143181Y0024971D01*
X0142737Y0024185D02*
X0018282Y0024185D01*
X0014318Y0024185D02*
X0008282Y0024185D01*
X0009294Y0024971D02*
X0013306Y0024971D01*
X0012658Y0025757D02*
X0009942Y0025757D01*
X0010268Y0026543D02*
X0012332Y0026543D01*
X0012119Y0027329D02*
X0010481Y0027329D01*
X0010481Y0028115D02*
X0012119Y0028115D01*
X0012193Y0028901D02*
X0010407Y0028901D01*
X0010081Y0029687D02*
X0012519Y0029687D01*
X0012970Y0030472D02*
X0009630Y0030472D01*
X0008844Y0031258D02*
X0013756Y0031258D01*
X0015404Y0032044D02*
X0007196Y0032044D01*
X0005404Y0032044D02*
X0003351Y0032044D01*
X0003351Y0031258D02*
X0003756Y0031258D01*
X0003351Y0032830D02*
X0081156Y0032830D01*
X0081942Y0032044D02*
X0017196Y0032044D01*
X0018844Y0031258D02*
X0082728Y0031258D01*
X0083514Y0030472D02*
X0019630Y0030472D01*
X0020081Y0029687D02*
X0189981Y0029687D01*
X0189981Y0030472D02*
X0096668Y0030472D01*
X0097454Y0031258D02*
X0189981Y0031258D01*
X0190684Y0032044D02*
X0097633Y0032044D01*
X0097633Y0032830D02*
X0191470Y0032830D01*
X0195665Y0032830D02*
X0274142Y0032830D01*
X0273562Y0032044D02*
X0195665Y0032044D01*
X0195486Y0031258D02*
X0272981Y0031258D01*
X0272400Y0030472D02*
X0194700Y0030472D01*
X0193721Y0029687D02*
X0271820Y0029687D01*
X0271239Y0028901D02*
X0193721Y0028901D01*
X0193721Y0028115D02*
X0270658Y0028115D01*
X0270078Y0027329D02*
X0193721Y0027329D01*
X0193721Y0026543D02*
X0269497Y0026543D01*
X0269314Y0026295D02*
X0239741Y0026295D01*
X0238761Y0025315D01*
X0238761Y0012816D01*
X0238756Y0012128D01*
X0238761Y0012124D01*
X0238761Y0012118D01*
X0239247Y0011631D01*
X0239730Y0011142D01*
X0239736Y0011142D01*
X0239741Y0011138D01*
X0240429Y0011138D01*
X0255724Y0011042D01*
X0255469Y0010428D01*
X0255469Y0008108D01*
X0256357Y0005965D01*
X0257997Y0004325D01*
X0260140Y0003437D01*
X0262460Y0003437D01*
X0264603Y0004325D01*
X0266243Y0005965D01*
X0267131Y0008108D01*
X0267131Y0010428D01*
X0266905Y0010972D01*
X0271437Y0010944D01*
X0271614Y0010831D01*
X0272107Y0010940D01*
X0272613Y0010937D01*
X0272762Y0011084D01*
X0272968Y0011130D01*
X0273239Y0011556D01*
X0273599Y0011911D01*
X0273600Y0012121D01*
X0293320Y0043028D01*
X0309237Y0043028D01*
X0310217Y0044008D01*
X0310217Y0051693D01*
X0309237Y0052673D01*
X0290198Y0052673D01*
X0290083Y0052758D01*
X0289521Y0052673D01*
X0288953Y0052673D01*
X0288853Y0052573D01*
X0288713Y0052552D01*
X0288375Y0052095D01*
X0287973Y0051693D01*
X0287973Y0051551D01*
X0269314Y0026295D01*
X0280295Y0022613D02*
X0318461Y0022613D01*
X0318461Y0021827D02*
X0306774Y0021827D01*
X0306187Y0022071D02*
X0304523Y0022071D01*
X0302987Y0021434D01*
X0301811Y0020258D01*
X0301174Y0018721D01*
X0301174Y0017058D01*
X0301811Y0015521D01*
X0302987Y0014345D01*
X0304523Y0013709D01*
X0306187Y0013709D01*
X0307724Y0014345D01*
X0308900Y0015521D01*
X0309536Y0017058D01*
X0309536Y0018721D01*
X0308900Y0020258D01*
X0307724Y0021434D01*
X0306187Y0022071D01*
X0308116Y0021042D02*
X0318461Y0021042D01*
X0318461Y0020256D02*
X0308901Y0020256D01*
X0309226Y0019470D02*
X0318461Y0019470D01*
X0318461Y0018684D02*
X0309536Y0018684D01*
X0309536Y0017898D02*
X0318461Y0017898D01*
X0318461Y0017112D02*
X0309536Y0017112D01*
X0309233Y0016326D02*
X0318461Y0016326D01*
X0318461Y0015540D02*
X0308907Y0015540D01*
X0308133Y0014754D02*
X0318461Y0014754D01*
X0318461Y0013968D02*
X0306814Y0013968D01*
X0303897Y0013968D02*
X0296814Y0013968D01*
X0296187Y0013709D02*
X0297724Y0014345D01*
X0298900Y0015521D01*
X0299536Y0017058D01*
X0299536Y0018721D01*
X0298900Y0020258D01*
X0297724Y0021434D01*
X0296187Y0022071D01*
X0294523Y0022071D01*
X0292987Y0021434D01*
X0291811Y0020258D01*
X0291174Y0018721D01*
X0291174Y0017058D01*
X0291811Y0015521D01*
X0292987Y0014345D01*
X0294523Y0013709D01*
X0296187Y0013709D01*
X0298133Y0014754D02*
X0302578Y0014754D01*
X0301803Y0015540D02*
X0298907Y0015540D01*
X0299233Y0016326D02*
X0301477Y0016326D01*
X0301174Y0017112D02*
X0299536Y0017112D01*
X0299536Y0017898D02*
X0301174Y0017898D01*
X0301174Y0018684D02*
X0299536Y0018684D01*
X0299226Y0019470D02*
X0301484Y0019470D01*
X0301809Y0020256D02*
X0298901Y0020256D01*
X0298116Y0021042D02*
X0302594Y0021042D01*
X0303936Y0021827D02*
X0296774Y0021827D01*
X0293936Y0021827D02*
X0279793Y0021827D01*
X0279292Y0021042D02*
X0292594Y0021042D01*
X0291809Y0020256D02*
X0278790Y0020256D01*
X0278289Y0019470D02*
X0291484Y0019470D01*
X0291174Y0018684D02*
X0277787Y0018684D01*
X0277286Y0017898D02*
X0291174Y0017898D01*
X0291174Y0017112D02*
X0276784Y0017112D01*
X0276283Y0016326D02*
X0291477Y0016326D01*
X0291803Y0015540D02*
X0275782Y0015540D01*
X0275280Y0014754D02*
X0292578Y0014754D01*
X0293897Y0013968D02*
X0274779Y0013968D01*
X0274277Y0013182D02*
X0318461Y0013182D01*
X0318461Y0012396D02*
X0273776Y0012396D01*
X0273295Y0011611D02*
X0318461Y0011611D01*
X0318461Y0010825D02*
X0266966Y0010825D01*
X0267131Y0010039D02*
X0318461Y0010039D01*
X0318460Y0009253D02*
X0267131Y0009253D01*
X0267131Y0008467D02*
X0318398Y0008467D01*
X0318176Y0007681D02*
X0266954Y0007681D01*
X0266628Y0006895D02*
X0317921Y0006895D01*
X0317487Y0006109D02*
X0266303Y0006109D01*
X0265601Y0005323D02*
X0316916Y0005323D01*
X0316019Y0004537D02*
X0264816Y0004537D01*
X0263219Y0003751D02*
X0314618Y0003751D01*
X0259381Y0003751D02*
X0117550Y0003751D01*
X0119146Y0004537D02*
X0257784Y0004537D01*
X0256999Y0005323D02*
X0119932Y0005323D01*
X0120634Y0006109D02*
X0256297Y0006109D01*
X0255972Y0006895D02*
X0120959Y0006895D01*
X0121285Y0007681D02*
X0255646Y0007681D01*
X0255469Y0008467D02*
X0121461Y0008467D01*
X0121461Y0009253D02*
X0255469Y0009253D01*
X0255469Y0010039D02*
X0121461Y0010039D01*
X0121297Y0010825D02*
X0255634Y0010825D01*
X0239268Y0011611D02*
X0120971Y0011611D01*
X0120646Y0012396D02*
X0238758Y0012396D01*
X0238761Y0013182D02*
X0119962Y0013182D01*
X0119176Y0013968D02*
X0238761Y0013968D01*
X0238761Y0014754D02*
X0214314Y0014754D01*
X0214220Y0014660D02*
X0215396Y0015836D01*
X0216032Y0017373D01*
X0216032Y0019036D01*
X0215396Y0020573D01*
X0214220Y0021749D01*
X0212683Y0022386D01*
X0211020Y0022386D01*
X0209483Y0021749D01*
X0208307Y0020573D01*
X0207670Y0019036D01*
X0207670Y0017373D01*
X0208307Y0015836D01*
X0209483Y0014660D01*
X0211020Y0014024D01*
X0212683Y0014024D01*
X0214220Y0014660D01*
X0215100Y0015540D02*
X0238761Y0015540D01*
X0238761Y0016326D02*
X0215599Y0016326D01*
X0215924Y0017112D02*
X0238761Y0017112D01*
X0238761Y0017898D02*
X0216032Y0017898D01*
X0216032Y0018684D02*
X0238761Y0018684D01*
X0238761Y0019470D02*
X0215853Y0019470D01*
X0215527Y0020256D02*
X0238761Y0020256D01*
X0238761Y0021042D02*
X0214927Y0021042D01*
X0214031Y0021827D02*
X0238761Y0021827D01*
X0238761Y0022613D02*
X0193721Y0022613D01*
X0193721Y0023399D02*
X0238761Y0023399D01*
X0238761Y0024185D02*
X0193721Y0024185D01*
X0193721Y0024971D02*
X0238761Y0024971D01*
X0239203Y0025757D02*
X0193721Y0025757D01*
X0189981Y0028115D02*
X0020481Y0028115D01*
X0020407Y0028901D02*
X0189981Y0028901D01*
X0199483Y0021749D02*
X0201020Y0022386D01*
X0202683Y0022386D01*
X0204220Y0021749D01*
X0205396Y0020573D01*
X0206032Y0019036D01*
X0206032Y0017373D01*
X0205396Y0015836D01*
X0204220Y0014660D01*
X0202683Y0014024D01*
X0201020Y0014024D01*
X0199483Y0014660D01*
X0198307Y0015836D01*
X0197670Y0017373D01*
X0197670Y0019036D01*
X0198307Y0020573D01*
X0199483Y0021749D01*
X0199671Y0021827D02*
X0194031Y0021827D01*
X0194927Y0021042D02*
X0198775Y0021042D01*
X0198175Y0020256D02*
X0195527Y0020256D01*
X0195853Y0019470D02*
X0197850Y0019470D01*
X0197670Y0018684D02*
X0196032Y0018684D01*
X0196032Y0017898D02*
X0197670Y0017898D01*
X0197778Y0017112D02*
X0195924Y0017112D01*
X0195599Y0016326D02*
X0198104Y0016326D01*
X0198603Y0015540D02*
X0195100Y0015540D01*
X0194314Y0014754D02*
X0199389Y0014754D01*
X0204314Y0014754D02*
X0209389Y0014754D01*
X0208603Y0015540D02*
X0205100Y0015540D01*
X0205599Y0016326D02*
X0208104Y0016326D01*
X0207778Y0017112D02*
X0205924Y0017112D01*
X0206032Y0017898D02*
X0207670Y0017898D01*
X0207670Y0018684D02*
X0206032Y0018684D01*
X0205853Y0019470D02*
X0207850Y0019470D01*
X0208175Y0020256D02*
X0205527Y0020256D01*
X0204927Y0021042D02*
X0208775Y0021042D01*
X0209671Y0021827D02*
X0204031Y0021827D01*
X0188104Y0016326D02*
X0106083Y0016326D01*
X0106083Y0015540D02*
X0188603Y0015540D01*
X0189389Y0014754D02*
X0117621Y0014754D01*
X0113640Y0014754D02*
X0105786Y0014754D01*
X0105460Y0013968D02*
X0112085Y0013968D01*
X0111300Y0013182D02*
X0104746Y0013182D01*
X0103673Y0012396D02*
X0110616Y0012396D01*
X0110302Y0006895D02*
X0030887Y0006895D01*
X0032302Y0006109D02*
X0110628Y0006109D01*
X0111329Y0005323D02*
X0033717Y0005323D01*
X0035131Y0004537D02*
X0112115Y0004537D01*
X0113712Y0003751D02*
X0036546Y0003751D01*
X0005424Y0021042D02*
X0142444Y0021042D01*
X0142304Y0021827D02*
X0004009Y0021827D01*
X0003351Y0022613D02*
X0142304Y0022613D01*
X0142411Y0023399D02*
X0003351Y0023399D01*
X0003351Y0024185D02*
X0004318Y0024185D01*
X0003351Y0033616D02*
X0080370Y0033616D01*
X0079584Y0034402D02*
X0018725Y0034402D01*
X0018668Y0034345D02*
X0019845Y0035521D01*
X0020481Y0037058D01*
X0020481Y0038721D01*
X0019845Y0040258D01*
X0018668Y0041434D01*
X0017132Y0042071D01*
X0015468Y0042071D01*
X0013932Y0041434D01*
X0012755Y0040258D01*
X0012119Y0038721D01*
X0012119Y0037058D01*
X0012755Y0035521D01*
X0013932Y0034345D01*
X0015468Y0033709D01*
X0017132Y0033709D01*
X0018668Y0034345D01*
X0019511Y0035188D02*
X0078918Y0035188D01*
X0078918Y0035974D02*
X0020032Y0035974D01*
X0020358Y0036760D02*
X0078918Y0036760D01*
X0078918Y0037546D02*
X0020481Y0037546D01*
X0020481Y0038332D02*
X0078918Y0038332D01*
X0078918Y0039118D02*
X0020317Y0039118D01*
X0019991Y0039903D02*
X0078918Y0039903D01*
X0078918Y0040689D02*
X0019413Y0040689D01*
X0018570Y0041475D02*
X0078918Y0041475D01*
X0078918Y0042261D02*
X0003351Y0042261D01*
X0003351Y0041475D02*
X0004030Y0041475D01*
X0008570Y0041475D02*
X0014030Y0041475D01*
X0013187Y0040689D02*
X0009413Y0040689D01*
X0009991Y0039903D02*
X0012609Y0039903D01*
X0012283Y0039118D02*
X0010317Y0039118D01*
X0010481Y0038332D02*
X0012119Y0038332D01*
X0012119Y0037546D02*
X0010481Y0037546D01*
X0010358Y0036760D02*
X0012242Y0036760D01*
X0012568Y0035974D02*
X0010032Y0035974D01*
X0009511Y0035188D02*
X0013089Y0035188D01*
X0013875Y0034402D02*
X0008725Y0034402D01*
X0003875Y0034402D02*
X0003351Y0034402D01*
X0003351Y0043047D02*
X0078918Y0043047D01*
X0078918Y0043833D02*
X0003795Y0043833D01*
X0005209Y0044619D02*
X0078918Y0044619D01*
X0078918Y0045405D02*
X0006624Y0045405D01*
X0008039Y0046191D02*
X0078918Y0046191D01*
X0078918Y0046977D02*
X0009453Y0046977D01*
X0010868Y0047763D02*
X0078918Y0047763D01*
X0078707Y0048548D02*
X0012283Y0048548D01*
X0013697Y0049334D02*
X0078707Y0049334D01*
X0078737Y0050120D02*
X0015112Y0050120D01*
X0016527Y0050906D02*
X0079523Y0050906D01*
X0082053Y0050906D02*
X0082515Y0050906D01*
X0082507Y0051692D02*
X0017941Y0051692D01*
X0019356Y0052478D02*
X0082500Y0052478D01*
X0082493Y0053264D02*
X0020771Y0053264D01*
X0022185Y0054050D02*
X0082486Y0054050D01*
X0082479Y0054836D02*
X0023600Y0054836D01*
X0025014Y0055622D02*
X0082471Y0055622D01*
X0082461Y0056408D02*
X0026429Y0056408D01*
X0027844Y0057194D02*
X0082457Y0057194D01*
X0083037Y0057979D02*
X0029258Y0057979D01*
X0030673Y0058765D02*
X0110253Y0058765D01*
X0110579Y0059551D02*
X0032088Y0059551D01*
X0033502Y0060337D02*
X0111210Y0060337D01*
X0111996Y0061123D02*
X0034917Y0061123D01*
X0036332Y0061909D02*
X0113424Y0061909D01*
X0117837Y0061909D02*
X0259094Y0061909D01*
X0257665Y0061123D02*
X0119265Y0061123D01*
X0120051Y0060337D02*
X0256879Y0060337D01*
X0256248Y0059551D02*
X0120683Y0059551D01*
X0121008Y0058765D02*
X0255922Y0058765D01*
X0264935Y0061123D02*
X0278913Y0061123D01*
X0277828Y0060337D02*
X0265720Y0060337D01*
X0266352Y0059551D02*
X0276743Y0059551D01*
X0275657Y0058765D02*
X0266678Y0058765D01*
X0263506Y0061909D02*
X0279999Y0061909D01*
X0309844Y0061909D02*
X0314985Y0061909D01*
X0316183Y0061123D02*
X0310217Y0061123D01*
X0310217Y0060337D02*
X0317003Y0060337D01*
X0317574Y0059551D02*
X0310217Y0059551D01*
X0310217Y0058765D02*
X0317960Y0058765D01*
X0318215Y0057979D02*
X0310217Y0057979D01*
X0310217Y0057194D02*
X0318408Y0057194D01*
X0318461Y0056408D02*
X0310217Y0056408D01*
X0310217Y0055622D02*
X0318461Y0055622D01*
X0318461Y0054836D02*
X0310217Y0054836D01*
X0310217Y0054050D02*
X0318461Y0054050D01*
X0318461Y0053264D02*
X0309631Y0053264D01*
X0309432Y0052478D02*
X0318461Y0052478D01*
X0318461Y0051692D02*
X0310217Y0051692D01*
X0310217Y0050906D02*
X0318461Y0050906D01*
X0318461Y0050120D02*
X0310217Y0050120D01*
X0310217Y0049334D02*
X0318461Y0049334D01*
X0318461Y0048548D02*
X0310217Y0048548D01*
X0310217Y0047763D02*
X0318461Y0047763D01*
X0318461Y0046977D02*
X0310217Y0046977D01*
X0310217Y0046191D02*
X0318461Y0046191D01*
X0318461Y0045405D02*
X0310217Y0045405D01*
X0310217Y0044619D02*
X0318461Y0044619D01*
X0318461Y0043833D02*
X0310043Y0043833D01*
X0309257Y0043047D02*
X0318461Y0043047D01*
X0318461Y0042261D02*
X0292831Y0042261D01*
X0293086Y0041475D02*
X0292329Y0041475D01*
X0292987Y0041434D02*
X0291811Y0040258D01*
X0291174Y0038721D01*
X0291174Y0037058D01*
X0291811Y0035521D01*
X0292987Y0034345D01*
X0294523Y0033709D01*
X0296187Y0033709D01*
X0297724Y0034345D01*
X0298900Y0035521D01*
X0299536Y0037058D01*
X0299536Y0038721D01*
X0298900Y0040258D01*
X0297724Y0041434D01*
X0296187Y0042071D01*
X0294523Y0042071D01*
X0292987Y0041434D01*
X0292242Y0040689D02*
X0291828Y0040689D01*
X0291664Y0039903D02*
X0291326Y0039903D01*
X0291338Y0039118D02*
X0290825Y0039118D01*
X0291174Y0038332D02*
X0290323Y0038332D01*
X0289822Y0037546D02*
X0291174Y0037546D01*
X0291298Y0036760D02*
X0289320Y0036760D01*
X0288819Y0035974D02*
X0291623Y0035974D01*
X0292144Y0035188D02*
X0288318Y0035188D01*
X0287816Y0034402D02*
X0292930Y0034402D01*
X0297780Y0034402D02*
X0302930Y0034402D01*
X0302987Y0034345D02*
X0304523Y0033709D01*
X0306187Y0033709D01*
X0307724Y0034345D01*
X0308900Y0035521D01*
X0309536Y0037058D01*
X0309536Y0038721D01*
X0308900Y0040258D01*
X0307724Y0041434D01*
X0306187Y0042071D01*
X0304523Y0042071D01*
X0302987Y0041434D01*
X0301811Y0040258D01*
X0301174Y0038721D01*
X0301174Y0037058D01*
X0301811Y0035521D01*
X0302987Y0034345D01*
X0302144Y0035188D02*
X0298566Y0035188D01*
X0299087Y0035974D02*
X0301623Y0035974D01*
X0301298Y0036760D02*
X0299413Y0036760D01*
X0299536Y0037546D02*
X0301174Y0037546D01*
X0301174Y0038332D02*
X0299536Y0038332D01*
X0299372Y0039118D02*
X0301338Y0039118D01*
X0301664Y0039903D02*
X0299047Y0039903D01*
X0298468Y0040689D02*
X0302242Y0040689D01*
X0303086Y0041475D02*
X0297625Y0041475D01*
X0307625Y0041475D02*
X0318461Y0041475D01*
X0318461Y0040689D02*
X0308468Y0040689D01*
X0309047Y0039903D02*
X0318461Y0039903D01*
X0318461Y0039118D02*
X0309372Y0039118D01*
X0309536Y0038332D02*
X0318461Y0038332D01*
X0318461Y0037546D02*
X0309536Y0037546D01*
X0309413Y0036760D02*
X0318461Y0036760D01*
X0318461Y0035974D02*
X0309087Y0035974D01*
X0308566Y0035188D02*
X0318461Y0035188D01*
X0318461Y0034402D02*
X0307780Y0034402D01*
X0306251Y0032044D02*
X0318461Y0032044D01*
X0318461Y0031258D02*
X0307899Y0031258D01*
X0307724Y0031434D02*
X0306187Y0032071D01*
X0304523Y0032071D01*
X0302987Y0031434D01*
X0301811Y0030258D01*
X0301174Y0028721D01*
X0301174Y0027058D01*
X0301811Y0025521D01*
X0302987Y0024345D01*
X0304523Y0023709D01*
X0306187Y0023709D01*
X0307724Y0024345D01*
X0308900Y0025521D01*
X0309536Y0027058D01*
X0309536Y0028721D01*
X0308900Y0030258D01*
X0307724Y0031434D01*
X0308685Y0030472D02*
X0318461Y0030472D01*
X0318461Y0029687D02*
X0309136Y0029687D01*
X0309462Y0028901D02*
X0318461Y0028901D01*
X0318461Y0028115D02*
X0309536Y0028115D01*
X0309536Y0027329D02*
X0318461Y0027329D01*
X0318461Y0026543D02*
X0309323Y0026543D01*
X0308997Y0025757D02*
X0318461Y0025757D01*
X0318461Y0024971D02*
X0308349Y0024971D01*
X0307337Y0024185D02*
X0318461Y0024185D01*
X0318461Y0023399D02*
X0280796Y0023399D01*
X0281297Y0024185D02*
X0293373Y0024185D01*
X0292987Y0024345D02*
X0294523Y0023709D01*
X0296187Y0023709D01*
X0297724Y0024345D01*
X0298900Y0025521D01*
X0299536Y0027058D01*
X0299536Y0028721D01*
X0298900Y0030258D01*
X0297724Y0031434D01*
X0296187Y0032071D01*
X0294523Y0032071D01*
X0292987Y0031434D01*
X0291811Y0030258D01*
X0291174Y0028721D01*
X0291174Y0027058D01*
X0291811Y0025521D01*
X0292987Y0024345D01*
X0292361Y0024971D02*
X0281799Y0024971D01*
X0282300Y0025757D02*
X0291713Y0025757D01*
X0291387Y0026543D02*
X0282802Y0026543D01*
X0283303Y0027329D02*
X0291174Y0027329D01*
X0291174Y0028115D02*
X0283805Y0028115D01*
X0284306Y0028901D02*
X0291248Y0028901D01*
X0291574Y0029687D02*
X0284808Y0029687D01*
X0285309Y0030472D02*
X0292025Y0030472D01*
X0292811Y0031258D02*
X0285810Y0031258D01*
X0286312Y0032044D02*
X0294459Y0032044D01*
X0296251Y0032044D02*
X0304459Y0032044D01*
X0302811Y0031258D02*
X0297899Y0031258D01*
X0298685Y0030472D02*
X0302025Y0030472D01*
X0301574Y0029687D02*
X0299136Y0029687D01*
X0299462Y0028901D02*
X0301248Y0028901D01*
X0301174Y0028115D02*
X0299536Y0028115D01*
X0299536Y0027329D02*
X0301174Y0027329D01*
X0301387Y0026543D02*
X0299323Y0026543D01*
X0298997Y0025757D02*
X0301713Y0025757D01*
X0302361Y0024971D02*
X0298349Y0024971D01*
X0297337Y0024185D02*
X0303373Y0024185D01*
X0318461Y0032830D02*
X0286813Y0032830D01*
X0287315Y0033616D02*
X0318461Y0033616D01*
X0281690Y0043047D02*
X0280773Y0043047D01*
X0281110Y0042261D02*
X0280156Y0042261D01*
X0280529Y0041475D02*
X0279538Y0041475D01*
X0279949Y0040689D02*
X0278921Y0040689D01*
X0279368Y0039903D02*
X0278303Y0039903D01*
X0278787Y0039118D02*
X0277686Y0039118D01*
X0278207Y0038332D02*
X0277068Y0038332D01*
X0277626Y0037546D02*
X0276451Y0037546D01*
X0277045Y0036760D02*
X0275833Y0036760D01*
X0275216Y0035974D02*
X0276465Y0035974D01*
X0275884Y0035188D02*
X0274598Y0035188D01*
X0274037Y0034402D02*
X0275303Y0034402D01*
X0274723Y0033616D02*
X0273251Y0033616D01*
X0281391Y0043833D02*
X0282271Y0043833D01*
X0282008Y0044619D02*
X0282852Y0044619D01*
X0282626Y0045405D02*
X0283432Y0045405D01*
X0283243Y0046191D02*
X0284013Y0046191D01*
X0283861Y0046977D02*
X0284594Y0046977D01*
X0284478Y0047763D02*
X0285174Y0047763D01*
X0285096Y0048548D02*
X0285755Y0048548D01*
X0285713Y0049334D02*
X0286336Y0049334D01*
X0286331Y0050120D02*
X0286916Y0050120D01*
X0286948Y0050906D02*
X0287497Y0050906D01*
X0287566Y0051692D02*
X0287973Y0051692D01*
X0288183Y0052478D02*
X0288658Y0052478D01*
D15*
X0146733Y0022260D03*
X0101654Y0016354D03*
D16*
X0095552Y0032299D02*
X0084331Y0032299D01*
X0080788Y0035843D01*
X0080788Y0049228D01*
X0152442Y0042339D02*
X0157363Y0042339D01*
X0158150Y0043126D01*
X0168387Y0043126D01*
X0169174Y0042339D01*
X0179804Y0042339D01*
X0180788Y0042732D01*
X0191851Y0030567D02*
X0193583Y0032299D01*
X0191851Y0030567D02*
X0191851Y0018205D01*
D17*
X0240434Y0018101D02*
X0275431Y0018101D01*
X0276058Y0019083D02*
X0240434Y0019083D01*
X0240434Y0020066D02*
X0276685Y0020066D01*
X0277312Y0021049D02*
X0274982Y0021049D01*
X0275487Y0021554D02*
X0274211Y0020277D01*
X0272405Y0020277D01*
X0271128Y0021554D01*
X0271128Y0023359D01*
X0272405Y0024636D01*
X0274211Y0024636D01*
X0275487Y0023359D01*
X0275487Y0021554D01*
X0275487Y0022032D02*
X0277939Y0022032D01*
X0278566Y0023014D02*
X0275487Y0023014D01*
X0274850Y0023997D02*
X0279193Y0023997D01*
X0279820Y0024980D02*
X0270423Y0024980D01*
X0270158Y0024622D02*
X0275529Y0031891D01*
X0276967Y0031891D01*
X0278243Y0033168D01*
X0278243Y0034974D01*
X0277992Y0035225D01*
X0289646Y0051000D01*
X0308544Y0051000D01*
X0308544Y0044701D01*
X0292402Y0044701D01*
X0271930Y0012614D01*
X0266303Y0012649D01*
X0264659Y0014294D01*
X0262479Y0015197D01*
X0260121Y0015197D01*
X0257941Y0014294D01*
X0256359Y0012711D01*
X0240434Y0012811D01*
X0240434Y0024622D01*
X0270158Y0024622D01*
X0271149Y0025963D02*
X0280447Y0025963D01*
X0281074Y0026946D02*
X0271875Y0026946D01*
X0272601Y0027928D02*
X0281701Y0027928D01*
X0282328Y0028911D02*
X0273327Y0028911D01*
X0274053Y0029894D02*
X0282955Y0029894D01*
X0283582Y0030877D02*
X0274779Y0030877D01*
X0275505Y0031859D02*
X0284209Y0031859D01*
X0284836Y0032842D02*
X0277917Y0032842D01*
X0278243Y0033825D02*
X0285463Y0033825D01*
X0286090Y0034808D02*
X0278243Y0034808D01*
X0278410Y0035790D02*
X0286717Y0035790D01*
X0287344Y0036773D02*
X0279136Y0036773D01*
X0279862Y0037756D02*
X0287971Y0037756D01*
X0288598Y0038739D02*
X0280588Y0038739D01*
X0281314Y0039721D02*
X0289225Y0039721D01*
X0289852Y0040704D02*
X0282040Y0040704D01*
X0282766Y0041687D02*
X0290479Y0041687D01*
X0291106Y0042670D02*
X0283492Y0042670D01*
X0284218Y0043653D02*
X0291734Y0043653D01*
X0292361Y0044635D02*
X0284944Y0044635D01*
X0285670Y0045618D02*
X0308544Y0045618D01*
X0308544Y0046601D02*
X0286396Y0046601D01*
X0287122Y0047584D02*
X0308544Y0047584D01*
X0308544Y0048566D02*
X0287848Y0048566D01*
X0288575Y0049549D02*
X0308544Y0049549D01*
X0308544Y0050532D02*
X0289301Y0050532D01*
X0285298Y0051515D02*
X0279424Y0051515D01*
X0279424Y0051475D02*
X0278148Y0050198D01*
X0276342Y0050198D01*
X0275065Y0051475D01*
X0275065Y0053281D01*
X0276342Y0054557D01*
X0278148Y0054557D01*
X0279424Y0053281D01*
X0279424Y0051475D01*
X0279424Y0052497D02*
X0286070Y0052497D01*
X0286843Y0053480D02*
X0279225Y0053480D01*
X0278242Y0054463D02*
X0287615Y0054463D01*
X0287678Y0054543D02*
X0278046Y0042285D01*
X0278046Y0043241D01*
X0276770Y0044518D01*
X0274964Y0044518D01*
X0273687Y0043241D01*
X0273687Y0041436D01*
X0274964Y0040159D01*
X0276376Y0040159D01*
X0272520Y0035252D01*
X0268598Y0035252D01*
X0268598Y0035564D01*
X0267321Y0036841D01*
X0265515Y0036841D01*
X0264239Y0035564D01*
X0264239Y0035252D01*
X0084331Y0035252D01*
X0084135Y0056709D01*
X0109702Y0056709D01*
X0109702Y0055332D01*
X0110604Y0053153D01*
X0112272Y0051485D01*
X0114451Y0050583D01*
X0116810Y0050583D01*
X0118989Y0051485D01*
X0120657Y0053153D01*
X0121560Y0055332D01*
X0121560Y0056709D01*
X0190624Y0056709D01*
X0190624Y0055612D01*
X0191897Y0054340D01*
X0193696Y0054340D01*
X0194968Y0055612D01*
X0194968Y0056709D01*
X0223884Y0056709D01*
X0223884Y0056396D01*
X0225161Y0055120D01*
X0226967Y0055120D01*
X0228243Y0056396D01*
X0228243Y0056709D01*
X0255371Y0056709D01*
X0255371Y0055332D01*
X0256274Y0053153D01*
X0257941Y0051485D01*
X0260121Y0050583D01*
X0262479Y0050583D01*
X0264659Y0051485D01*
X0266326Y0053153D01*
X0267229Y0055332D01*
X0267229Y0056709D01*
X0275670Y0056709D01*
X0281379Y0060843D01*
X0308544Y0060843D01*
X0308544Y0054543D01*
X0287678Y0054543D01*
X0284526Y0050532D02*
X0278481Y0050532D01*
X0276009Y0050532D02*
X0245960Y0050532D01*
X0245960Y0050294D02*
X0245960Y0052100D01*
X0244683Y0053376D01*
X0242878Y0053376D01*
X0242402Y0052901D01*
X0241927Y0053376D01*
X0240122Y0053376D01*
X0239745Y0053000D01*
X0239745Y0053575D01*
X0239280Y0054697D01*
X0238422Y0055555D01*
X0237301Y0056020D01*
X0236087Y0056020D01*
X0234965Y0055555D01*
X0234107Y0054697D01*
X0233643Y0053575D01*
X0233643Y0052362D01*
X0234107Y0051240D01*
X0234965Y0050382D01*
X0236087Y0049917D01*
X0237301Y0049917D01*
X0238422Y0050382D01*
X0238845Y0050805D01*
X0238845Y0050294D01*
X0240122Y0049017D01*
X0241927Y0049017D01*
X0242402Y0049492D01*
X0242568Y0049327D01*
X0241798Y0048556D01*
X0241798Y0046751D01*
X0243074Y0045474D01*
X0244880Y0045474D01*
X0246157Y0046751D01*
X0246157Y0048556D01*
X0245189Y0049524D01*
X0245960Y0050294D01*
X0245215Y0049549D02*
X0265231Y0049549D01*
X0265318Y0049636D02*
X0264042Y0048359D01*
X0264042Y0046554D01*
X0265318Y0045277D01*
X0267124Y0045277D01*
X0268401Y0046554D01*
X0268401Y0048359D01*
X0267124Y0049636D01*
X0265318Y0049636D01*
X0264249Y0048566D02*
X0246147Y0048566D01*
X0246157Y0047584D02*
X0264042Y0047584D01*
X0264042Y0046601D02*
X0262482Y0046601D01*
X0262203Y0046880D02*
X0260397Y0046880D01*
X0259120Y0045604D01*
X0259120Y0043798D01*
X0260397Y0042521D01*
X0262203Y0042521D01*
X0263480Y0043798D01*
X0263480Y0045604D01*
X0262203Y0046880D01*
X0263465Y0045618D02*
X0264978Y0045618D01*
X0267465Y0045618D02*
X0280665Y0045618D01*
X0281437Y0046601D02*
X0268401Y0046601D01*
X0268401Y0047584D02*
X0282210Y0047584D01*
X0282982Y0048566D02*
X0268194Y0048566D01*
X0267211Y0049549D02*
X0283754Y0049549D01*
X0275065Y0051515D02*
X0264688Y0051515D01*
X0265671Y0052497D02*
X0275065Y0052497D01*
X0275265Y0053480D02*
X0266462Y0053480D01*
X0266869Y0054463D02*
X0276248Y0054463D01*
X0267229Y0055446D02*
X0308544Y0055446D01*
X0308544Y0056428D02*
X0267229Y0056428D01*
X0276640Y0057411D02*
X0308544Y0057411D01*
X0308544Y0058394D02*
X0277997Y0058394D01*
X0279355Y0059377D02*
X0308544Y0059377D01*
X0308544Y0060359D02*
X0280712Y0060359D01*
X0256138Y0053480D02*
X0239745Y0053480D01*
X0239377Y0054463D02*
X0255731Y0054463D01*
X0255371Y0055446D02*
X0238532Y0055446D01*
X0234856Y0055446D02*
X0232378Y0055446D01*
X0232574Y0055249D02*
X0231297Y0056526D01*
X0229492Y0056526D01*
X0228215Y0055249D01*
X0228215Y0053444D01*
X0228789Y0052870D01*
X0228215Y0052296D01*
X0228215Y0050491D01*
X0229492Y0049214D01*
X0231297Y0049214D01*
X0232574Y0050491D01*
X0232574Y0052296D01*
X0232000Y0052870D01*
X0232574Y0053444D01*
X0232574Y0055249D01*
X0232574Y0054463D02*
X0234010Y0054463D01*
X0233643Y0053480D02*
X0232574Y0053480D01*
X0232373Y0052497D02*
X0233643Y0052497D01*
X0233993Y0051515D02*
X0232574Y0051515D01*
X0232574Y0050532D02*
X0234815Y0050532D01*
X0231632Y0049549D02*
X0239590Y0049549D01*
X0238845Y0050532D02*
X0238572Y0050532D01*
X0241808Y0048566D02*
X0197721Y0048566D01*
X0197242Y0049046D02*
X0195437Y0049046D01*
X0194160Y0047769D01*
X0194160Y0045963D01*
X0195437Y0044687D01*
X0197242Y0044687D01*
X0198519Y0045963D01*
X0198519Y0047769D01*
X0197242Y0049046D01*
X0198519Y0047584D02*
X0203434Y0047584D01*
X0202829Y0046978D02*
X0204101Y0048250D01*
X0205900Y0048250D01*
X0207172Y0046978D01*
X0207172Y0045179D01*
X0205900Y0043907D01*
X0204101Y0043907D01*
X0202829Y0045179D01*
X0202829Y0046978D01*
X0202829Y0046601D02*
X0198519Y0046601D01*
X0198174Y0045618D02*
X0202829Y0045618D01*
X0203373Y0044635D02*
X0190498Y0044635D01*
X0190842Y0044979D02*
X0189565Y0043702D01*
X0187759Y0043702D01*
X0186483Y0044979D01*
X0186483Y0046785D01*
X0187759Y0048061D01*
X0189565Y0048061D01*
X0190842Y0046785D01*
X0190842Y0044979D01*
X0190842Y0045618D02*
X0194505Y0045618D01*
X0194160Y0046601D02*
X0190842Y0046601D01*
X0190043Y0047584D02*
X0194160Y0047584D01*
X0194957Y0048566D02*
X0171540Y0048566D01*
X0171258Y0048849D02*
X0169452Y0048849D01*
X0168176Y0047572D01*
X0168176Y0045766D01*
X0168848Y0045094D01*
X0159461Y0045094D01*
X0160330Y0045963D01*
X0160330Y0047769D01*
X0159053Y0049046D01*
X0157248Y0049046D01*
X0155971Y0047769D01*
X0155971Y0045963D01*
X0157087Y0044847D01*
X0156548Y0044307D01*
X0153556Y0044307D01*
X0153345Y0044518D01*
X0151539Y0044518D01*
X0150262Y0043241D01*
X0150262Y0041436D01*
X0151539Y0040159D01*
X0153345Y0040159D01*
X0153556Y0040370D01*
X0158178Y0040370D01*
X0158966Y0041157D01*
X0167571Y0041157D01*
X0168359Y0040370D01*
X0179400Y0040370D01*
X0179778Y0040208D01*
X0180183Y0040370D01*
X0180619Y0040370D01*
X0180802Y0040553D01*
X0181691Y0040553D01*
X0182968Y0041829D01*
X0182968Y0043635D01*
X0181691Y0044912D01*
X0179885Y0044912D01*
X0179281Y0044307D01*
X0169989Y0044307D01*
X0169807Y0044490D01*
X0171258Y0044490D01*
X0172535Y0045766D01*
X0172535Y0047572D01*
X0171258Y0048849D01*
X0172523Y0047584D02*
X0187282Y0047584D01*
X0186483Y0046601D02*
X0172535Y0046601D01*
X0172386Y0045618D02*
X0186483Y0045618D01*
X0186826Y0044635D02*
X0181967Y0044635D01*
X0182950Y0043653D02*
X0259266Y0043653D01*
X0259120Y0044635D02*
X0206629Y0044635D01*
X0207172Y0045618D02*
X0242930Y0045618D01*
X0241948Y0046601D02*
X0207172Y0046601D01*
X0206567Y0047584D02*
X0241798Y0047584D01*
X0246007Y0046601D02*
X0260118Y0046601D01*
X0259135Y0045618D02*
X0245024Y0045618D01*
X0229157Y0049549D02*
X0208601Y0049549D01*
X0209149Y0050097D02*
X0207872Y0048820D01*
X0206066Y0048820D01*
X0204790Y0050097D01*
X0204790Y0051903D01*
X0206066Y0053180D01*
X0207872Y0053180D01*
X0209149Y0051903D01*
X0209149Y0050097D01*
X0209149Y0050532D02*
X0228215Y0050532D01*
X0228215Y0051515D02*
X0209149Y0051515D01*
X0208554Y0052497D02*
X0228416Y0052497D01*
X0228215Y0053480D02*
X0206196Y0053480D01*
X0206196Y0053444D02*
X0204919Y0052167D01*
X0203114Y0052167D01*
X0201837Y0053444D01*
X0201837Y0055249D01*
X0203114Y0056526D01*
X0204919Y0056526D01*
X0206196Y0055249D01*
X0206196Y0053444D01*
X0206196Y0054463D02*
X0228215Y0054463D01*
X0228411Y0055446D02*
X0227293Y0055446D01*
X0228243Y0056428D02*
X0229394Y0056428D01*
X0231395Y0056428D02*
X0255371Y0056428D01*
X0256929Y0052497D02*
X0245562Y0052497D01*
X0245960Y0051515D02*
X0257912Y0051515D01*
X0263480Y0044635D02*
X0279893Y0044635D01*
X0279121Y0043653D02*
X0277635Y0043653D01*
X0278046Y0042670D02*
X0278349Y0042670D01*
X0274099Y0043653D02*
X0263334Y0043653D01*
X0262351Y0042670D02*
X0273687Y0042670D01*
X0273687Y0041687D02*
X0182825Y0041687D01*
X0182968Y0042670D02*
X0260249Y0042670D01*
X0262467Y0040092D02*
X0263744Y0041368D01*
X0265549Y0041368D01*
X0266826Y0040092D01*
X0266826Y0038286D01*
X0265549Y0037009D01*
X0263744Y0037009D01*
X0262467Y0038286D01*
X0262467Y0040092D01*
X0262467Y0039721D02*
X0255802Y0039721D01*
X0255802Y0040092D02*
X0255802Y0038286D01*
X0254526Y0037009D01*
X0252720Y0037009D01*
X0251443Y0038286D01*
X0251443Y0040092D01*
X0252720Y0041368D01*
X0254526Y0041368D01*
X0255802Y0040092D01*
X0255190Y0040704D02*
X0263079Y0040704D01*
X0266213Y0040704D02*
X0274419Y0040704D01*
X0276032Y0039721D02*
X0266826Y0039721D01*
X0266826Y0038739D02*
X0275260Y0038739D01*
X0274488Y0037756D02*
X0266296Y0037756D01*
X0265448Y0036773D02*
X0198187Y0036773D01*
X0197636Y0036222D02*
X0195830Y0036222D01*
X0194554Y0037499D01*
X0194554Y0039304D01*
X0195830Y0040581D01*
X0197636Y0040581D01*
X0198913Y0039304D01*
X0198913Y0037499D01*
X0197636Y0036222D01*
X0195279Y0036773D02*
X0084318Y0036773D01*
X0084327Y0035790D02*
X0264465Y0035790D01*
X0267389Y0036773D02*
X0273716Y0036773D01*
X0272944Y0035790D02*
X0268371Y0035790D01*
X0262997Y0037756D02*
X0255272Y0037756D01*
X0255802Y0038739D02*
X0262467Y0038739D01*
X0251974Y0037756D02*
X0246020Y0037756D01*
X0246550Y0038286D02*
X0245274Y0037009D01*
X0243468Y0037009D01*
X0242191Y0038286D01*
X0242191Y0040092D01*
X0243468Y0041368D01*
X0245274Y0041368D01*
X0246550Y0040092D01*
X0246550Y0038286D01*
X0246550Y0038739D02*
X0251443Y0038739D01*
X0251443Y0039721D02*
X0246550Y0039721D01*
X0245938Y0040704D02*
X0252056Y0040704D01*
X0242804Y0040704D02*
X0181842Y0040704D01*
X0179609Y0044635D02*
X0171403Y0044635D01*
X0168324Y0045618D02*
X0159985Y0045618D01*
X0160330Y0046601D02*
X0168176Y0046601D01*
X0168187Y0047584D02*
X0160330Y0047584D01*
X0160988Y0047639D02*
X0162793Y0047639D01*
X0164070Y0048916D01*
X0164070Y0050722D01*
X0162793Y0051998D01*
X0160988Y0051998D01*
X0159711Y0050722D01*
X0159711Y0048916D01*
X0160988Y0047639D01*
X0160061Y0048566D02*
X0159532Y0048566D01*
X0159711Y0049549D02*
X0084200Y0049549D01*
X0084209Y0048566D02*
X0156768Y0048566D01*
X0155971Y0047584D02*
X0084218Y0047584D01*
X0084227Y0046601D02*
X0155971Y0046601D01*
X0156316Y0045618D02*
X0130591Y0045618D01*
X0130510Y0045699D02*
X0128704Y0045699D01*
X0127428Y0044422D01*
X0127428Y0042617D01*
X0128704Y0041340D01*
X0130510Y0041340D01*
X0131787Y0042617D01*
X0131787Y0044422D01*
X0130510Y0045699D01*
X0128623Y0045618D02*
X0084236Y0045618D01*
X0084245Y0044635D02*
X0105604Y0044635D01*
X0104994Y0044026D02*
X0106267Y0045298D01*
X0108066Y0045298D01*
X0109338Y0044026D01*
X0109338Y0042226D01*
X0108066Y0040954D01*
X0106267Y0040954D01*
X0104994Y0042226D01*
X0104994Y0044026D01*
X0104994Y0043653D02*
X0084254Y0043653D01*
X0084263Y0042670D02*
X0104994Y0042670D01*
X0105534Y0041687D02*
X0084272Y0041687D01*
X0084281Y0040704D02*
X0111483Y0040704D01*
X0111483Y0040879D02*
X0111483Y0039074D01*
X0112759Y0037797D01*
X0114565Y0037797D01*
X0115842Y0039074D01*
X0115842Y0040879D01*
X0114565Y0042156D01*
X0113609Y0042156D01*
X0113873Y0042420D01*
X0113873Y0044226D01*
X0112596Y0045502D01*
X0110791Y0045502D01*
X0109514Y0044226D01*
X0109514Y0042420D01*
X0110791Y0041143D01*
X0111747Y0041143D01*
X0111483Y0040879D01*
X0111483Y0039721D02*
X0084291Y0039721D01*
X0084300Y0038739D02*
X0111818Y0038739D01*
X0115507Y0038739D02*
X0124810Y0038739D01*
X0124278Y0039270D02*
X0125555Y0037994D01*
X0127360Y0037994D01*
X0128637Y0039270D01*
X0128637Y0041076D01*
X0127360Y0042353D01*
X0125555Y0042353D01*
X0124278Y0041076D01*
X0124278Y0039270D01*
X0124278Y0039721D02*
X0115842Y0039721D01*
X0115842Y0040704D02*
X0124278Y0040704D01*
X0124889Y0041687D02*
X0115034Y0041687D01*
X0113873Y0042670D02*
X0127428Y0042670D01*
X0127428Y0043653D02*
X0113873Y0043653D01*
X0113464Y0044635D02*
X0127640Y0044635D01*
X0131574Y0044635D02*
X0156876Y0044635D01*
X0150673Y0043653D02*
X0131787Y0043653D01*
X0131787Y0042670D02*
X0150262Y0042670D01*
X0150262Y0041687D02*
X0136884Y0041687D01*
X0136415Y0042156D02*
X0134610Y0042156D01*
X0133333Y0040879D01*
X0133333Y0039074D01*
X0134610Y0037797D01*
X0136415Y0037797D01*
X0137692Y0039074D01*
X0137692Y0040879D01*
X0136415Y0042156D01*
X0134141Y0041687D02*
X0130857Y0041687D01*
X0128637Y0040704D02*
X0133333Y0040704D01*
X0133333Y0039721D02*
X0128637Y0039721D01*
X0128105Y0038739D02*
X0133668Y0038739D01*
X0137357Y0038739D02*
X0194554Y0038739D01*
X0194554Y0037756D02*
X0084309Y0037756D01*
X0108798Y0041687D02*
X0110247Y0041687D01*
X0109514Y0042670D02*
X0109338Y0042670D01*
X0109338Y0043653D02*
X0109514Y0043653D01*
X0109924Y0044635D02*
X0108728Y0044635D01*
X0128026Y0041687D02*
X0128357Y0041687D01*
X0137692Y0040704D02*
X0150994Y0040704D01*
X0158513Y0040704D02*
X0168024Y0040704D01*
X0167518Y0047639D02*
X0168794Y0048916D01*
X0168794Y0050722D01*
X0167518Y0051998D01*
X0165712Y0051998D01*
X0164435Y0050722D01*
X0164435Y0048916D01*
X0165712Y0047639D01*
X0167518Y0047639D01*
X0168445Y0048566D02*
X0169170Y0048566D01*
X0168794Y0049549D02*
X0205338Y0049549D01*
X0204790Y0050532D02*
X0168794Y0050532D01*
X0168002Y0051515D02*
X0204790Y0051515D01*
X0205250Y0052497D02*
X0205384Y0052497D01*
X0202783Y0052497D02*
X0120001Y0052497D01*
X0120793Y0053480D02*
X0201837Y0053480D01*
X0201837Y0054463D02*
X0193818Y0054463D01*
X0194801Y0055446D02*
X0202033Y0055446D01*
X0203016Y0056428D02*
X0194968Y0056428D01*
X0190791Y0055446D02*
X0121560Y0055446D01*
X0121560Y0056428D02*
X0190624Y0056428D01*
X0191774Y0054463D02*
X0121200Y0054463D01*
X0119019Y0051515D02*
X0160504Y0051515D01*
X0159711Y0050532D02*
X0084191Y0050532D01*
X0084182Y0051515D02*
X0112243Y0051515D01*
X0111260Y0052497D02*
X0084173Y0052497D01*
X0084164Y0053480D02*
X0110469Y0053480D01*
X0110062Y0054463D02*
X0084155Y0054463D01*
X0084146Y0055446D02*
X0109702Y0055446D01*
X0109702Y0056428D02*
X0084137Y0056428D01*
X0137692Y0039721D02*
X0194971Y0039721D01*
X0198495Y0039721D02*
X0242191Y0039721D01*
X0242191Y0038739D02*
X0198913Y0038739D01*
X0198913Y0037756D02*
X0242722Y0037756D01*
X0240434Y0023997D02*
X0271766Y0023997D01*
X0271128Y0023014D02*
X0240434Y0023014D01*
X0240434Y0022032D02*
X0271128Y0022032D01*
X0271633Y0021049D02*
X0240434Y0021049D01*
X0240434Y0017118D02*
X0274803Y0017118D01*
X0274176Y0016135D02*
X0240434Y0016135D01*
X0240434Y0015152D02*
X0260013Y0015152D01*
X0257817Y0014170D02*
X0240434Y0014170D01*
X0240434Y0013187D02*
X0256834Y0013187D01*
X0262587Y0015152D02*
X0273549Y0015152D01*
X0272922Y0014170D02*
X0264783Y0014170D01*
X0265766Y0013187D02*
X0272295Y0013187D01*
X0164785Y0048566D02*
X0163720Y0048566D01*
X0164070Y0049549D02*
X0164435Y0049549D01*
X0164435Y0050532D02*
X0164070Y0050532D01*
X0163277Y0051515D02*
X0165228Y0051515D01*
X0205017Y0056428D02*
X0223884Y0056428D01*
X0224835Y0055446D02*
X0206000Y0055446D01*
M02*
