G75*
%MOIN*%
%OFA0B0*%
%FSLAX25Y25*%
%IPPOS*%
%LPD*%
%AMOC8*
5,1,8,0,0,1.08239X$1,22.5*
%
%ADD10R,0.42126X0.11811*%
%ADD11R,0.39370X0.15748*%
%ADD12R,0.28465X0.06772*%
%ADD13OC8,0.06800*%
%ADD14C,0.04343*%
%ADD15C,0.02584*%
%ADD16C,0.04921*%
%ADD17C,0.08674*%
%ADD18C,0.02600*%
%ADD19C,0.07296*%
D10*
X0152442Y0007299D03*
D11*
X0147127Y0056512D03*
D12*
X0306753Y0057850D03*
X0306753Y0047850D03*
X0306753Y0037850D03*
X0306753Y0027850D03*
X0306753Y0017850D03*
X0306753Y0007850D03*
D13*
X0305355Y0007890D03*
X0295355Y0007890D03*
X0295355Y0017890D03*
X0305355Y0017890D03*
X0305355Y0027890D03*
X0295355Y0027890D03*
X0295355Y0037890D03*
X0305355Y0037890D03*
X0305355Y0047890D03*
X0295355Y0047890D03*
X0295355Y0057890D03*
X0305355Y0057890D03*
X0211851Y0018205D03*
X0201851Y0018205D03*
X0191851Y0018205D03*
X0191851Y0008205D03*
X0201851Y0008205D03*
X0211851Y0008205D03*
X0016300Y0027890D03*
X0006300Y0027890D03*
X0006300Y0037890D03*
X0016300Y0037890D03*
D14*
X0236694Y0052969D03*
D15*
X0205001Y0046079D03*
X0192796Y0056512D03*
X0107166Y0043126D03*
X0087481Y0014583D03*
D16*
X0042304Y0032890D02*
X0042306Y0032989D01*
X0042312Y0033088D01*
X0042322Y0033187D01*
X0042336Y0033285D01*
X0042354Y0033382D01*
X0042376Y0033479D01*
X0042401Y0033575D01*
X0042431Y0033669D01*
X0042464Y0033763D01*
X0042501Y0033855D01*
X0042542Y0033945D01*
X0042586Y0034034D01*
X0042634Y0034120D01*
X0042685Y0034205D01*
X0042740Y0034288D01*
X0042798Y0034368D01*
X0042859Y0034446D01*
X0042923Y0034522D01*
X0042990Y0034595D01*
X0043060Y0034665D01*
X0043133Y0034732D01*
X0043209Y0034796D01*
X0043287Y0034857D01*
X0043367Y0034915D01*
X0043450Y0034970D01*
X0043534Y0035021D01*
X0043621Y0035069D01*
X0043710Y0035113D01*
X0043800Y0035154D01*
X0043892Y0035191D01*
X0043986Y0035224D01*
X0044080Y0035254D01*
X0044176Y0035279D01*
X0044273Y0035301D01*
X0044370Y0035319D01*
X0044468Y0035333D01*
X0044567Y0035343D01*
X0044666Y0035349D01*
X0044765Y0035351D01*
X0044864Y0035349D01*
X0044963Y0035343D01*
X0045062Y0035333D01*
X0045160Y0035319D01*
X0045257Y0035301D01*
X0045354Y0035279D01*
X0045450Y0035254D01*
X0045544Y0035224D01*
X0045638Y0035191D01*
X0045730Y0035154D01*
X0045820Y0035113D01*
X0045909Y0035069D01*
X0045995Y0035021D01*
X0046080Y0034970D01*
X0046163Y0034915D01*
X0046243Y0034857D01*
X0046321Y0034796D01*
X0046397Y0034732D01*
X0046470Y0034665D01*
X0046540Y0034595D01*
X0046607Y0034522D01*
X0046671Y0034446D01*
X0046732Y0034368D01*
X0046790Y0034288D01*
X0046845Y0034205D01*
X0046896Y0034121D01*
X0046944Y0034034D01*
X0046988Y0033945D01*
X0047029Y0033855D01*
X0047066Y0033763D01*
X0047099Y0033669D01*
X0047129Y0033575D01*
X0047154Y0033479D01*
X0047176Y0033382D01*
X0047194Y0033285D01*
X0047208Y0033187D01*
X0047218Y0033088D01*
X0047224Y0032989D01*
X0047226Y0032890D01*
X0047224Y0032791D01*
X0047218Y0032692D01*
X0047208Y0032593D01*
X0047194Y0032495D01*
X0047176Y0032398D01*
X0047154Y0032301D01*
X0047129Y0032205D01*
X0047099Y0032111D01*
X0047066Y0032017D01*
X0047029Y0031925D01*
X0046988Y0031835D01*
X0046944Y0031746D01*
X0046896Y0031660D01*
X0046845Y0031575D01*
X0046790Y0031492D01*
X0046732Y0031412D01*
X0046671Y0031334D01*
X0046607Y0031258D01*
X0046540Y0031185D01*
X0046470Y0031115D01*
X0046397Y0031048D01*
X0046321Y0030984D01*
X0046243Y0030923D01*
X0046163Y0030865D01*
X0046080Y0030810D01*
X0045996Y0030759D01*
X0045909Y0030711D01*
X0045820Y0030667D01*
X0045730Y0030626D01*
X0045638Y0030589D01*
X0045544Y0030556D01*
X0045450Y0030526D01*
X0045354Y0030501D01*
X0045257Y0030479D01*
X0045160Y0030461D01*
X0045062Y0030447D01*
X0044963Y0030437D01*
X0044864Y0030431D01*
X0044765Y0030429D01*
X0044666Y0030431D01*
X0044567Y0030437D01*
X0044468Y0030447D01*
X0044370Y0030461D01*
X0044273Y0030479D01*
X0044176Y0030501D01*
X0044080Y0030526D01*
X0043986Y0030556D01*
X0043892Y0030589D01*
X0043800Y0030626D01*
X0043710Y0030667D01*
X0043621Y0030711D01*
X0043535Y0030759D01*
X0043450Y0030810D01*
X0043367Y0030865D01*
X0043287Y0030923D01*
X0043209Y0030984D01*
X0043133Y0031048D01*
X0043060Y0031115D01*
X0042990Y0031185D01*
X0042923Y0031258D01*
X0042859Y0031334D01*
X0042798Y0031412D01*
X0042740Y0031492D01*
X0042685Y0031575D01*
X0042634Y0031659D01*
X0042586Y0031746D01*
X0042542Y0031835D01*
X0042501Y0031925D01*
X0042464Y0032017D01*
X0042431Y0032111D01*
X0042401Y0032205D01*
X0042376Y0032301D01*
X0042354Y0032398D01*
X0042336Y0032495D01*
X0042322Y0032593D01*
X0042312Y0032692D01*
X0042306Y0032791D01*
X0042304Y0032890D01*
X0227343Y0044701D02*
X0227345Y0044800D01*
X0227351Y0044899D01*
X0227361Y0044998D01*
X0227375Y0045096D01*
X0227393Y0045193D01*
X0227415Y0045290D01*
X0227440Y0045386D01*
X0227470Y0045480D01*
X0227503Y0045574D01*
X0227540Y0045666D01*
X0227581Y0045756D01*
X0227625Y0045845D01*
X0227673Y0045931D01*
X0227724Y0046016D01*
X0227779Y0046099D01*
X0227837Y0046179D01*
X0227898Y0046257D01*
X0227962Y0046333D01*
X0228029Y0046406D01*
X0228099Y0046476D01*
X0228172Y0046543D01*
X0228248Y0046607D01*
X0228326Y0046668D01*
X0228406Y0046726D01*
X0228489Y0046781D01*
X0228573Y0046832D01*
X0228660Y0046880D01*
X0228749Y0046924D01*
X0228839Y0046965D01*
X0228931Y0047002D01*
X0229025Y0047035D01*
X0229119Y0047065D01*
X0229215Y0047090D01*
X0229312Y0047112D01*
X0229409Y0047130D01*
X0229507Y0047144D01*
X0229606Y0047154D01*
X0229705Y0047160D01*
X0229804Y0047162D01*
X0229903Y0047160D01*
X0230002Y0047154D01*
X0230101Y0047144D01*
X0230199Y0047130D01*
X0230296Y0047112D01*
X0230393Y0047090D01*
X0230489Y0047065D01*
X0230583Y0047035D01*
X0230677Y0047002D01*
X0230769Y0046965D01*
X0230859Y0046924D01*
X0230948Y0046880D01*
X0231034Y0046832D01*
X0231119Y0046781D01*
X0231202Y0046726D01*
X0231282Y0046668D01*
X0231360Y0046607D01*
X0231436Y0046543D01*
X0231509Y0046476D01*
X0231579Y0046406D01*
X0231646Y0046333D01*
X0231710Y0046257D01*
X0231771Y0046179D01*
X0231829Y0046099D01*
X0231884Y0046016D01*
X0231935Y0045932D01*
X0231983Y0045845D01*
X0232027Y0045756D01*
X0232068Y0045666D01*
X0232105Y0045574D01*
X0232138Y0045480D01*
X0232168Y0045386D01*
X0232193Y0045290D01*
X0232215Y0045193D01*
X0232233Y0045096D01*
X0232247Y0044998D01*
X0232257Y0044899D01*
X0232263Y0044800D01*
X0232265Y0044701D01*
X0232263Y0044602D01*
X0232257Y0044503D01*
X0232247Y0044404D01*
X0232233Y0044306D01*
X0232215Y0044209D01*
X0232193Y0044112D01*
X0232168Y0044016D01*
X0232138Y0043922D01*
X0232105Y0043828D01*
X0232068Y0043736D01*
X0232027Y0043646D01*
X0231983Y0043557D01*
X0231935Y0043471D01*
X0231884Y0043386D01*
X0231829Y0043303D01*
X0231771Y0043223D01*
X0231710Y0043145D01*
X0231646Y0043069D01*
X0231579Y0042996D01*
X0231509Y0042926D01*
X0231436Y0042859D01*
X0231360Y0042795D01*
X0231282Y0042734D01*
X0231202Y0042676D01*
X0231119Y0042621D01*
X0231035Y0042570D01*
X0230948Y0042522D01*
X0230859Y0042478D01*
X0230769Y0042437D01*
X0230677Y0042400D01*
X0230583Y0042367D01*
X0230489Y0042337D01*
X0230393Y0042312D01*
X0230296Y0042290D01*
X0230199Y0042272D01*
X0230101Y0042258D01*
X0230002Y0042248D01*
X0229903Y0042242D01*
X0229804Y0042240D01*
X0229705Y0042242D01*
X0229606Y0042248D01*
X0229507Y0042258D01*
X0229409Y0042272D01*
X0229312Y0042290D01*
X0229215Y0042312D01*
X0229119Y0042337D01*
X0229025Y0042367D01*
X0228931Y0042400D01*
X0228839Y0042437D01*
X0228749Y0042478D01*
X0228660Y0042522D01*
X0228574Y0042570D01*
X0228489Y0042621D01*
X0228406Y0042676D01*
X0228326Y0042734D01*
X0228248Y0042795D01*
X0228172Y0042859D01*
X0228099Y0042926D01*
X0228029Y0042996D01*
X0227962Y0043069D01*
X0227898Y0043145D01*
X0227837Y0043223D01*
X0227779Y0043303D01*
X0227724Y0043386D01*
X0227673Y0043470D01*
X0227625Y0043557D01*
X0227581Y0043646D01*
X0227540Y0043736D01*
X0227503Y0043828D01*
X0227470Y0043922D01*
X0227440Y0044016D01*
X0227415Y0044112D01*
X0227393Y0044209D01*
X0227375Y0044306D01*
X0227361Y0044404D01*
X0227351Y0044503D01*
X0227345Y0044602D01*
X0227343Y0044701D01*
X0264745Y0022850D02*
X0264747Y0022949D01*
X0264753Y0023048D01*
X0264763Y0023147D01*
X0264777Y0023245D01*
X0264795Y0023342D01*
X0264817Y0023439D01*
X0264842Y0023535D01*
X0264872Y0023629D01*
X0264905Y0023723D01*
X0264942Y0023815D01*
X0264983Y0023905D01*
X0265027Y0023994D01*
X0265075Y0024080D01*
X0265126Y0024165D01*
X0265181Y0024248D01*
X0265239Y0024328D01*
X0265300Y0024406D01*
X0265364Y0024482D01*
X0265431Y0024555D01*
X0265501Y0024625D01*
X0265574Y0024692D01*
X0265650Y0024756D01*
X0265728Y0024817D01*
X0265808Y0024875D01*
X0265891Y0024930D01*
X0265975Y0024981D01*
X0266062Y0025029D01*
X0266151Y0025073D01*
X0266241Y0025114D01*
X0266333Y0025151D01*
X0266427Y0025184D01*
X0266521Y0025214D01*
X0266617Y0025239D01*
X0266714Y0025261D01*
X0266811Y0025279D01*
X0266909Y0025293D01*
X0267008Y0025303D01*
X0267107Y0025309D01*
X0267206Y0025311D01*
X0267305Y0025309D01*
X0267404Y0025303D01*
X0267503Y0025293D01*
X0267601Y0025279D01*
X0267698Y0025261D01*
X0267795Y0025239D01*
X0267891Y0025214D01*
X0267985Y0025184D01*
X0268079Y0025151D01*
X0268171Y0025114D01*
X0268261Y0025073D01*
X0268350Y0025029D01*
X0268436Y0024981D01*
X0268521Y0024930D01*
X0268604Y0024875D01*
X0268684Y0024817D01*
X0268762Y0024756D01*
X0268838Y0024692D01*
X0268911Y0024625D01*
X0268981Y0024555D01*
X0269048Y0024482D01*
X0269112Y0024406D01*
X0269173Y0024328D01*
X0269231Y0024248D01*
X0269286Y0024165D01*
X0269337Y0024081D01*
X0269385Y0023994D01*
X0269429Y0023905D01*
X0269470Y0023815D01*
X0269507Y0023723D01*
X0269540Y0023629D01*
X0269570Y0023535D01*
X0269595Y0023439D01*
X0269617Y0023342D01*
X0269635Y0023245D01*
X0269649Y0023147D01*
X0269659Y0023048D01*
X0269665Y0022949D01*
X0269667Y0022850D01*
X0269665Y0022751D01*
X0269659Y0022652D01*
X0269649Y0022553D01*
X0269635Y0022455D01*
X0269617Y0022358D01*
X0269595Y0022261D01*
X0269570Y0022165D01*
X0269540Y0022071D01*
X0269507Y0021977D01*
X0269470Y0021885D01*
X0269429Y0021795D01*
X0269385Y0021706D01*
X0269337Y0021620D01*
X0269286Y0021535D01*
X0269231Y0021452D01*
X0269173Y0021372D01*
X0269112Y0021294D01*
X0269048Y0021218D01*
X0268981Y0021145D01*
X0268911Y0021075D01*
X0268838Y0021008D01*
X0268762Y0020944D01*
X0268684Y0020883D01*
X0268604Y0020825D01*
X0268521Y0020770D01*
X0268437Y0020719D01*
X0268350Y0020671D01*
X0268261Y0020627D01*
X0268171Y0020586D01*
X0268079Y0020549D01*
X0267985Y0020516D01*
X0267891Y0020486D01*
X0267795Y0020461D01*
X0267698Y0020439D01*
X0267601Y0020421D01*
X0267503Y0020407D01*
X0267404Y0020397D01*
X0267305Y0020391D01*
X0267206Y0020389D01*
X0267107Y0020391D01*
X0267008Y0020397D01*
X0266909Y0020407D01*
X0266811Y0020421D01*
X0266714Y0020439D01*
X0266617Y0020461D01*
X0266521Y0020486D01*
X0266427Y0020516D01*
X0266333Y0020549D01*
X0266241Y0020586D01*
X0266151Y0020627D01*
X0266062Y0020671D01*
X0265976Y0020719D01*
X0265891Y0020770D01*
X0265808Y0020825D01*
X0265728Y0020883D01*
X0265650Y0020944D01*
X0265574Y0021008D01*
X0265501Y0021075D01*
X0265431Y0021145D01*
X0265364Y0021218D01*
X0265300Y0021294D01*
X0265239Y0021372D01*
X0265181Y0021452D01*
X0265126Y0021535D01*
X0265075Y0021619D01*
X0265027Y0021706D01*
X0264983Y0021795D01*
X0264942Y0021885D01*
X0264905Y0021977D01*
X0264872Y0022071D01*
X0264842Y0022165D01*
X0264817Y0022261D01*
X0264795Y0022358D01*
X0264777Y0022455D01*
X0264763Y0022553D01*
X0264753Y0022652D01*
X0264747Y0022751D01*
X0264745Y0022850D01*
D17*
X0261300Y0009268D03*
X0115631Y0009268D03*
X0115631Y0056512D03*
X0261300Y0056512D03*
D18*
X0038662Y0005331D03*
X0058347Y0009268D03*
X0063662Y0009268D03*
X0060513Y0005331D03*
X0080394Y0005331D03*
X0096143Y0005331D03*
X0103820Y0005331D03*
X0100080Y0009858D03*
X0081772Y0014780D03*
X0080394Y0017142D03*
X0083347Y0017142D03*
X0066812Y0014583D03*
X0055001Y0014583D03*
X0025080Y0017142D03*
X0017206Y0017142D03*
X0060513Y0032890D03*
X0080198Y0027378D03*
X0082954Y0027378D03*
X0090040Y0028756D03*
X0093977Y0028756D03*
X0095552Y0032299D03*
X0086497Y0036433D03*
X0087678Y0038598D03*
X0085316Y0038598D03*
X0111694Y0043323D03*
X0113662Y0039976D03*
X0124883Y0036433D03*
X0127245Y0036433D03*
X0135513Y0039976D03*
X0126457Y0040173D03*
X0129607Y0043520D03*
X0152442Y0042339D03*
X0160513Y0039189D03*
X0162678Y0039189D03*
X0164843Y0039189D03*
X0180788Y0042732D03*
X0188662Y0045882D03*
X0196339Y0046866D03*
X0206969Y0051000D03*
X0214056Y0047850D03*
X0214056Y0045685D03*
X0214056Y0043520D03*
X0213269Y0038598D03*
X0215434Y0038598D03*
X0217796Y0038598D03*
X0196733Y0038402D03*
X0193583Y0032299D03*
X0203623Y0030528D03*
X0210513Y0031315D03*
X0213859Y0028362D03*
X0218583Y0028362D03*
X0230198Y0031512D03*
X0245552Y0028953D03*
X0252048Y0028953D03*
X0264843Y0028165D03*
X0273308Y0022457D03*
X0251457Y0021079D03*
X0249292Y0019701D03*
X0251261Y0018323D03*
X0244961Y0017142D03*
X0245355Y0014583D03*
X0224489Y0014189D03*
X0227639Y0021866D03*
X0249292Y0022457D03*
X0279213Y0013008D03*
X0270749Y0005724D03*
X0249489Y0005528D03*
X0237875Y0005331D03*
X0225670Y0005331D03*
X0174686Y0005331D03*
X0161300Y0005331D03*
X0151064Y0005528D03*
X0139056Y0005331D03*
X0127442Y0005528D03*
X0121930Y0021276D03*
X0117796Y0021276D03*
X0129213Y0021472D03*
X0134331Y0023835D03*
X0136891Y0023835D03*
X0152048Y0025606D03*
X0157757Y0027378D03*
X0160513Y0027378D03*
X0163269Y0027378D03*
X0168780Y0026197D03*
X0184135Y0026787D03*
X0195355Y0026984D03*
X0147324Y0029150D03*
X0147324Y0031512D03*
X0113662Y0030528D03*
X0113662Y0028362D03*
X0108347Y0026197D03*
X0105591Y0022654D03*
X0095158Y0021866D03*
X0113662Y0032890D03*
X0158150Y0046866D03*
X0161891Y0049819D03*
X0166615Y0049819D03*
X0170355Y0046669D03*
X0204017Y0054346D03*
X0198308Y0060449D03*
X0221930Y0060449D03*
X0226064Y0057299D03*
X0230394Y0054346D03*
X0230394Y0051394D03*
X0241024Y0051197D03*
X0243780Y0051197D03*
X0243977Y0047654D03*
X0261300Y0044701D03*
X0266221Y0047457D03*
X0277245Y0052378D03*
X0283544Y0051787D03*
X0251851Y0060449D03*
X0245552Y0060449D03*
X0275867Y0042339D03*
X0286300Y0042732D03*
X0264646Y0039189D03*
X0253623Y0039189D03*
X0244371Y0039189D03*
X0266418Y0034661D03*
X0276064Y0034071D03*
X0162875Y0060449D03*
X0133347Y0060449D03*
X0103623Y0060646D03*
X0080001Y0060449D03*
X0062481Y0056315D03*
X0058741Y0056315D03*
X0060513Y0060449D03*
X0038465Y0060449D03*
X0055001Y0051000D03*
X0066615Y0050606D03*
X0080788Y0049228D03*
X0085513Y0048638D03*
X0087875Y0048638D03*
X0086694Y0050409D03*
X0025276Y0048638D03*
X0017402Y0048638D03*
D19*
X0101654Y0016354D03*
X0146733Y0022260D03*
M02*
