G75*
%MOIN*%
%OFA0B0*%
%FSLAX25Y25*%
%IPPOS*%
%LPD*%
%AMOC8*
5,1,8,0,0,1.08239X$1,22.5*
%
%ADD10R,0.42126X0.11614*%
%ADD11R,0.28465X0.06772*%
%ADD12R,0.39370X0.15748*%
%ADD13R,0.05591X0.02165*%
%ADD14C,0.02047*%
%ADD15R,0.03228X0.02835*%
%ADD16R,0.02835X0.03228*%
%ADD17OC8,0.06800*%
%ADD18R,0.03800X0.06481*%
%ADD19R,0.07887X0.07887*%
%ADD20R,0.04934X0.03162*%
%ADD21R,0.05512X0.02165*%
%ADD22C,0.00394*%
%ADD23R,0.02756X0.01457*%
%ADD24R,0.02362X0.01457*%
%ADD25R,0.02067X0.01181*%
%ADD26R,0.00335X0.00886*%
%ADD27R,0.00354X0.00728*%
%ADD28R,0.02480X0.02559*%
%ADD29C,0.04343*%
%ADD30C,0.04737*%
%ADD31C,0.02584*%
%ADD32C,0.04921*%
%ADD33C,0.08674*%
%ADD34C,0.02600*%
%ADD35C,0.07296*%
D10*
X0152442Y0049983D03*
D11*
X0306162Y0050633D03*
X0306162Y0060633D03*
X0306162Y0070633D03*
X0306162Y0080633D03*
X0306162Y0090633D03*
X0306162Y0100633D03*
D12*
X0147127Y0099294D03*
D13*
X0225828Y0079510D03*
X0225828Y0076951D03*
X0225828Y0074392D03*
X0225828Y0071833D03*
X0236143Y0071833D03*
X0236143Y0074392D03*
X0236143Y0076951D03*
X0236143Y0079510D03*
D14*
X0227048Y0085987D02*
X0227048Y0088585D01*
X0224686Y0088585D01*
X0224686Y0085987D01*
X0227048Y0085987D01*
X0227048Y0087137D02*
X0224686Y0087137D01*
X0219961Y0087137D02*
X0217599Y0087137D01*
X0217599Y0085987D02*
X0217599Y0088585D01*
X0219961Y0088585D01*
X0219961Y0085987D01*
X0217599Y0085987D01*
X0217284Y0092877D02*
X0220276Y0092877D01*
X0220276Y0097050D01*
X0217284Y0097050D01*
X0217284Y0092877D01*
X0217284Y0093274D02*
X0220276Y0093274D01*
X0224371Y0093274D02*
X0227363Y0093274D01*
X0227363Y0092877D02*
X0227363Y0097050D01*
X0224371Y0097050D01*
X0224371Y0092877D01*
X0227363Y0092877D01*
X0227363Y0095320D02*
X0224371Y0095320D01*
X0220276Y0095320D02*
X0217284Y0095320D01*
X0236497Y0065357D02*
X0236497Y0062759D01*
X0238859Y0062759D01*
X0238859Y0065357D01*
X0236497Y0065357D01*
X0236497Y0064633D02*
X0238859Y0064633D01*
X0243583Y0064633D02*
X0245946Y0064633D01*
X0245946Y0065357D02*
X0245946Y0062759D01*
X0243583Y0062759D01*
X0243583Y0065357D01*
X0245946Y0065357D01*
X0063190Y0064633D02*
X0058623Y0064633D01*
X0058623Y0063546D02*
X0063190Y0063546D01*
X0063190Y0067325D01*
X0058623Y0067325D01*
X0058623Y0063546D01*
X0058623Y0066679D02*
X0063190Y0066679D01*
X0063190Y0059451D02*
X0058623Y0059451D01*
X0058623Y0055672D01*
X0063190Y0055672D01*
X0063190Y0059451D01*
X0063190Y0058496D02*
X0058623Y0058496D01*
X0058623Y0056450D02*
X0063190Y0056450D01*
X0063190Y0083822D02*
X0058623Y0083822D01*
X0058623Y0087601D01*
X0063190Y0087601D01*
X0063190Y0083822D01*
X0063190Y0085091D02*
X0058623Y0085091D01*
X0058623Y0087137D02*
X0063190Y0087137D01*
X0063190Y0091696D02*
X0058623Y0091696D01*
X0058623Y0095475D01*
X0063190Y0095475D01*
X0063190Y0091696D01*
X0063190Y0093274D02*
X0058623Y0093274D01*
X0058623Y0095320D02*
X0063190Y0095320D01*
D15*
X0065237Y0077640D03*
X0069961Y0077640D03*
X0069961Y0073703D03*
X0065237Y0073703D03*
X0125867Y0072129D03*
X0135709Y0073703D03*
X0140434Y0073703D03*
X0140434Y0069766D03*
X0135709Y0069766D03*
X0125867Y0068192D03*
X0125867Y0064255D03*
X0125867Y0076066D03*
X0140434Y0077640D03*
X0145158Y0077640D03*
X0145158Y0081577D03*
X0140434Y0081577D03*
X0161891Y0085514D03*
X0166615Y0085514D03*
X0175473Y0086696D03*
X0183938Y0085514D03*
X0188662Y0085514D03*
X0188662Y0081577D03*
X0183938Y0081577D03*
X0183938Y0077640D03*
X0175473Y0077640D03*
X0175473Y0073703D03*
X0183938Y0073703D03*
X0213859Y0074097D03*
X0218583Y0074097D03*
X0218583Y0078034D03*
X0213859Y0078034D03*
X0200080Y0084924D03*
X0200080Y0088861D03*
X0175473Y0090633D03*
X0166615Y0089451D03*
X0161891Y0089451D03*
X0232560Y0090633D03*
X0232560Y0086696D03*
X0248505Y0057562D03*
X0248505Y0053625D03*
D16*
X0242402Y0057955D03*
X0238465Y0057955D03*
X0256182Y0065633D03*
X0260119Y0065633D03*
X0179410Y0082365D03*
X0175473Y0082365D03*
X0180001Y0090633D03*
X0183938Y0090633D03*
X0200080Y0093782D03*
X0204017Y0093782D03*
X0237087Y0090436D03*
X0241024Y0090436D03*
X0159528Y0065042D03*
X0155591Y0065042D03*
X0135709Y0077640D03*
X0131772Y0077640D03*
X0126261Y0086302D03*
X0122324Y0086302D03*
X0118780Y0086302D03*
X0114843Y0086302D03*
X0102639Y0084333D03*
X0098702Y0084333D03*
X0098702Y0079609D03*
X0102639Y0079609D03*
X0102639Y0074885D03*
X0098702Y0074885D03*
X0098702Y0070160D03*
X0102639Y0070160D03*
X0102639Y0065436D03*
X0098702Y0065436D03*
X0096339Y0057365D03*
X0092402Y0057365D03*
X0092402Y0052640D03*
X0096339Y0052640D03*
D17*
X0016300Y0070672D03*
X0006300Y0070672D03*
X0006300Y0080672D03*
X0016300Y0080672D03*
X0191851Y0060987D03*
X0201851Y0060987D03*
X0211851Y0060987D03*
X0211851Y0050987D03*
X0201851Y0050987D03*
X0191851Y0050987D03*
X0295355Y0050672D03*
X0305355Y0050672D03*
X0305355Y0060672D03*
X0295355Y0060672D03*
X0295355Y0070672D03*
X0305355Y0070672D03*
X0305355Y0080672D03*
X0295355Y0080672D03*
X0295355Y0090672D03*
X0305355Y0090672D03*
X0305355Y0100672D03*
X0295355Y0100672D03*
D18*
X0091635Y0086262D03*
X0086635Y0086262D03*
X0081635Y0086262D03*
X0076635Y0086262D03*
X0076635Y0065081D03*
X0081635Y0065081D03*
X0086635Y0065081D03*
X0091635Y0065081D03*
D19*
X0051457Y0070948D03*
X0041615Y0068979D03*
X0032166Y0068979D03*
X0051457Y0080396D03*
X0041615Y0082365D03*
X0032166Y0082365D03*
D20*
X0108347Y0079412D03*
X0118977Y0079412D03*
X0118977Y0075672D03*
X0108347Y0075672D03*
X0108347Y0071932D03*
X0118977Y0071932D03*
D21*
X0152442Y0071833D03*
X0152442Y0074392D03*
X0152442Y0076951D03*
X0152442Y0079510D03*
X0168583Y0079510D03*
X0168583Y0076951D03*
X0168583Y0074392D03*
X0168583Y0071833D03*
D22*
X0280709Y0076144D02*
X0281083Y0076518D01*
X0281083Y0078152D01*
X0280926Y0078310D01*
X0280946Y0078310D02*
X0280631Y0078310D01*
X0280788Y0078113D02*
X0280788Y0076302D01*
X0281576Y0075888D02*
X0281753Y0076066D01*
X0281851Y0078507D02*
X0281576Y0078782D01*
X0281576Y0080436D02*
X0281851Y0080711D01*
X0281083Y0081066D02*
X0281083Y0082699D01*
X0280709Y0083073D01*
X0280788Y0082798D02*
X0280788Y0080987D01*
X0280690Y0080908D02*
X0280906Y0080908D01*
X0281083Y0081066D01*
X0281753Y0083152D02*
X0281576Y0083329D01*
D23*
X0282363Y0073959D03*
D24*
X0282560Y0085259D03*
D25*
X0282707Y0083546D03*
X0282707Y0081971D03*
X0282707Y0080396D03*
X0282707Y0078822D03*
X0282707Y0077247D03*
X0282707Y0075672D03*
D26*
X0281546Y0075524D03*
X0281546Y0083694D03*
D27*
X0281556Y0080170D03*
X0281556Y0079048D03*
D28*
X0279469Y0077227D03*
X0279469Y0081991D03*
D29*
X0236694Y0095751D03*
D30*
X0171733Y0094963D03*
X0148898Y0085908D03*
D31*
X0107166Y0085908D03*
X0192796Y0099294D03*
X0205001Y0088861D03*
X0087481Y0057365D03*
D32*
X0069863Y0052050D02*
X0069865Y0052149D01*
X0069871Y0052248D01*
X0069881Y0052347D01*
X0069895Y0052445D01*
X0069913Y0052542D01*
X0069935Y0052639D01*
X0069960Y0052735D01*
X0069990Y0052829D01*
X0070023Y0052923D01*
X0070060Y0053015D01*
X0070101Y0053105D01*
X0070145Y0053194D01*
X0070193Y0053280D01*
X0070244Y0053365D01*
X0070299Y0053448D01*
X0070357Y0053528D01*
X0070418Y0053606D01*
X0070482Y0053682D01*
X0070549Y0053755D01*
X0070619Y0053825D01*
X0070692Y0053892D01*
X0070768Y0053956D01*
X0070846Y0054017D01*
X0070926Y0054075D01*
X0071009Y0054130D01*
X0071093Y0054181D01*
X0071180Y0054229D01*
X0071269Y0054273D01*
X0071359Y0054314D01*
X0071451Y0054351D01*
X0071545Y0054384D01*
X0071639Y0054414D01*
X0071735Y0054439D01*
X0071832Y0054461D01*
X0071929Y0054479D01*
X0072027Y0054493D01*
X0072126Y0054503D01*
X0072225Y0054509D01*
X0072324Y0054511D01*
X0072423Y0054509D01*
X0072522Y0054503D01*
X0072621Y0054493D01*
X0072719Y0054479D01*
X0072816Y0054461D01*
X0072913Y0054439D01*
X0073009Y0054414D01*
X0073103Y0054384D01*
X0073197Y0054351D01*
X0073289Y0054314D01*
X0073379Y0054273D01*
X0073468Y0054229D01*
X0073554Y0054181D01*
X0073639Y0054130D01*
X0073722Y0054075D01*
X0073802Y0054017D01*
X0073880Y0053956D01*
X0073956Y0053892D01*
X0074029Y0053825D01*
X0074099Y0053755D01*
X0074166Y0053682D01*
X0074230Y0053606D01*
X0074291Y0053528D01*
X0074349Y0053448D01*
X0074404Y0053365D01*
X0074455Y0053281D01*
X0074503Y0053194D01*
X0074547Y0053105D01*
X0074588Y0053015D01*
X0074625Y0052923D01*
X0074658Y0052829D01*
X0074688Y0052735D01*
X0074713Y0052639D01*
X0074735Y0052542D01*
X0074753Y0052445D01*
X0074767Y0052347D01*
X0074777Y0052248D01*
X0074783Y0052149D01*
X0074785Y0052050D01*
X0074783Y0051951D01*
X0074777Y0051852D01*
X0074767Y0051753D01*
X0074753Y0051655D01*
X0074735Y0051558D01*
X0074713Y0051461D01*
X0074688Y0051365D01*
X0074658Y0051271D01*
X0074625Y0051177D01*
X0074588Y0051085D01*
X0074547Y0050995D01*
X0074503Y0050906D01*
X0074455Y0050820D01*
X0074404Y0050735D01*
X0074349Y0050652D01*
X0074291Y0050572D01*
X0074230Y0050494D01*
X0074166Y0050418D01*
X0074099Y0050345D01*
X0074029Y0050275D01*
X0073956Y0050208D01*
X0073880Y0050144D01*
X0073802Y0050083D01*
X0073722Y0050025D01*
X0073639Y0049970D01*
X0073555Y0049919D01*
X0073468Y0049871D01*
X0073379Y0049827D01*
X0073289Y0049786D01*
X0073197Y0049749D01*
X0073103Y0049716D01*
X0073009Y0049686D01*
X0072913Y0049661D01*
X0072816Y0049639D01*
X0072719Y0049621D01*
X0072621Y0049607D01*
X0072522Y0049597D01*
X0072423Y0049591D01*
X0072324Y0049589D01*
X0072225Y0049591D01*
X0072126Y0049597D01*
X0072027Y0049607D01*
X0071929Y0049621D01*
X0071832Y0049639D01*
X0071735Y0049661D01*
X0071639Y0049686D01*
X0071545Y0049716D01*
X0071451Y0049749D01*
X0071359Y0049786D01*
X0071269Y0049827D01*
X0071180Y0049871D01*
X0071094Y0049919D01*
X0071009Y0049970D01*
X0070926Y0050025D01*
X0070846Y0050083D01*
X0070768Y0050144D01*
X0070692Y0050208D01*
X0070619Y0050275D01*
X0070549Y0050345D01*
X0070482Y0050418D01*
X0070418Y0050494D01*
X0070357Y0050572D01*
X0070299Y0050652D01*
X0070244Y0050735D01*
X0070193Y0050819D01*
X0070145Y0050906D01*
X0070101Y0050995D01*
X0070060Y0051085D01*
X0070023Y0051177D01*
X0069990Y0051271D01*
X0069960Y0051365D01*
X0069935Y0051461D01*
X0069913Y0051558D01*
X0069895Y0051655D01*
X0069881Y0051753D01*
X0069871Y0051852D01*
X0069865Y0051951D01*
X0069863Y0052050D01*
X0264745Y0065633D02*
X0264747Y0065732D01*
X0264753Y0065831D01*
X0264763Y0065930D01*
X0264777Y0066028D01*
X0264795Y0066125D01*
X0264817Y0066222D01*
X0264842Y0066318D01*
X0264872Y0066412D01*
X0264905Y0066506D01*
X0264942Y0066598D01*
X0264983Y0066688D01*
X0265027Y0066777D01*
X0265075Y0066863D01*
X0265126Y0066948D01*
X0265181Y0067031D01*
X0265239Y0067111D01*
X0265300Y0067189D01*
X0265364Y0067265D01*
X0265431Y0067338D01*
X0265501Y0067408D01*
X0265574Y0067475D01*
X0265650Y0067539D01*
X0265728Y0067600D01*
X0265808Y0067658D01*
X0265891Y0067713D01*
X0265975Y0067764D01*
X0266062Y0067812D01*
X0266151Y0067856D01*
X0266241Y0067897D01*
X0266333Y0067934D01*
X0266427Y0067967D01*
X0266521Y0067997D01*
X0266617Y0068022D01*
X0266714Y0068044D01*
X0266811Y0068062D01*
X0266909Y0068076D01*
X0267008Y0068086D01*
X0267107Y0068092D01*
X0267206Y0068094D01*
X0267305Y0068092D01*
X0267404Y0068086D01*
X0267503Y0068076D01*
X0267601Y0068062D01*
X0267698Y0068044D01*
X0267795Y0068022D01*
X0267891Y0067997D01*
X0267985Y0067967D01*
X0268079Y0067934D01*
X0268171Y0067897D01*
X0268261Y0067856D01*
X0268350Y0067812D01*
X0268436Y0067764D01*
X0268521Y0067713D01*
X0268604Y0067658D01*
X0268684Y0067600D01*
X0268762Y0067539D01*
X0268838Y0067475D01*
X0268911Y0067408D01*
X0268981Y0067338D01*
X0269048Y0067265D01*
X0269112Y0067189D01*
X0269173Y0067111D01*
X0269231Y0067031D01*
X0269286Y0066948D01*
X0269337Y0066864D01*
X0269385Y0066777D01*
X0269429Y0066688D01*
X0269470Y0066598D01*
X0269507Y0066506D01*
X0269540Y0066412D01*
X0269570Y0066318D01*
X0269595Y0066222D01*
X0269617Y0066125D01*
X0269635Y0066028D01*
X0269649Y0065930D01*
X0269659Y0065831D01*
X0269665Y0065732D01*
X0269667Y0065633D01*
X0269665Y0065534D01*
X0269659Y0065435D01*
X0269649Y0065336D01*
X0269635Y0065238D01*
X0269617Y0065141D01*
X0269595Y0065044D01*
X0269570Y0064948D01*
X0269540Y0064854D01*
X0269507Y0064760D01*
X0269470Y0064668D01*
X0269429Y0064578D01*
X0269385Y0064489D01*
X0269337Y0064403D01*
X0269286Y0064318D01*
X0269231Y0064235D01*
X0269173Y0064155D01*
X0269112Y0064077D01*
X0269048Y0064001D01*
X0268981Y0063928D01*
X0268911Y0063858D01*
X0268838Y0063791D01*
X0268762Y0063727D01*
X0268684Y0063666D01*
X0268604Y0063608D01*
X0268521Y0063553D01*
X0268437Y0063502D01*
X0268350Y0063454D01*
X0268261Y0063410D01*
X0268171Y0063369D01*
X0268079Y0063332D01*
X0267985Y0063299D01*
X0267891Y0063269D01*
X0267795Y0063244D01*
X0267698Y0063222D01*
X0267601Y0063204D01*
X0267503Y0063190D01*
X0267404Y0063180D01*
X0267305Y0063174D01*
X0267206Y0063172D01*
X0267107Y0063174D01*
X0267008Y0063180D01*
X0266909Y0063190D01*
X0266811Y0063204D01*
X0266714Y0063222D01*
X0266617Y0063244D01*
X0266521Y0063269D01*
X0266427Y0063299D01*
X0266333Y0063332D01*
X0266241Y0063369D01*
X0266151Y0063410D01*
X0266062Y0063454D01*
X0265976Y0063502D01*
X0265891Y0063553D01*
X0265808Y0063608D01*
X0265728Y0063666D01*
X0265650Y0063727D01*
X0265574Y0063791D01*
X0265501Y0063858D01*
X0265431Y0063928D01*
X0265364Y0064001D01*
X0265300Y0064077D01*
X0265239Y0064155D01*
X0265181Y0064235D01*
X0265126Y0064318D01*
X0265075Y0064402D01*
X0265027Y0064489D01*
X0264983Y0064578D01*
X0264942Y0064668D01*
X0264905Y0064760D01*
X0264872Y0064854D01*
X0264842Y0064948D01*
X0264817Y0065044D01*
X0264795Y0065141D01*
X0264777Y0065238D01*
X0264763Y0065336D01*
X0264753Y0065435D01*
X0264747Y0065534D01*
X0264745Y0065633D01*
X0270650Y0099294D02*
X0270652Y0099393D01*
X0270658Y0099492D01*
X0270668Y0099591D01*
X0270682Y0099689D01*
X0270700Y0099786D01*
X0270722Y0099883D01*
X0270747Y0099979D01*
X0270777Y0100073D01*
X0270810Y0100167D01*
X0270847Y0100259D01*
X0270888Y0100349D01*
X0270932Y0100438D01*
X0270980Y0100524D01*
X0271031Y0100609D01*
X0271086Y0100692D01*
X0271144Y0100772D01*
X0271205Y0100850D01*
X0271269Y0100926D01*
X0271336Y0100999D01*
X0271406Y0101069D01*
X0271479Y0101136D01*
X0271555Y0101200D01*
X0271633Y0101261D01*
X0271713Y0101319D01*
X0271796Y0101374D01*
X0271880Y0101425D01*
X0271967Y0101473D01*
X0272056Y0101517D01*
X0272146Y0101558D01*
X0272238Y0101595D01*
X0272332Y0101628D01*
X0272426Y0101658D01*
X0272522Y0101683D01*
X0272619Y0101705D01*
X0272716Y0101723D01*
X0272814Y0101737D01*
X0272913Y0101747D01*
X0273012Y0101753D01*
X0273111Y0101755D01*
X0273210Y0101753D01*
X0273309Y0101747D01*
X0273408Y0101737D01*
X0273506Y0101723D01*
X0273603Y0101705D01*
X0273700Y0101683D01*
X0273796Y0101658D01*
X0273890Y0101628D01*
X0273984Y0101595D01*
X0274076Y0101558D01*
X0274166Y0101517D01*
X0274255Y0101473D01*
X0274341Y0101425D01*
X0274426Y0101374D01*
X0274509Y0101319D01*
X0274589Y0101261D01*
X0274667Y0101200D01*
X0274743Y0101136D01*
X0274816Y0101069D01*
X0274886Y0100999D01*
X0274953Y0100926D01*
X0275017Y0100850D01*
X0275078Y0100772D01*
X0275136Y0100692D01*
X0275191Y0100609D01*
X0275242Y0100525D01*
X0275290Y0100438D01*
X0275334Y0100349D01*
X0275375Y0100259D01*
X0275412Y0100167D01*
X0275445Y0100073D01*
X0275475Y0099979D01*
X0275500Y0099883D01*
X0275522Y0099786D01*
X0275540Y0099689D01*
X0275554Y0099591D01*
X0275564Y0099492D01*
X0275570Y0099393D01*
X0275572Y0099294D01*
X0275570Y0099195D01*
X0275564Y0099096D01*
X0275554Y0098997D01*
X0275540Y0098899D01*
X0275522Y0098802D01*
X0275500Y0098705D01*
X0275475Y0098609D01*
X0275445Y0098515D01*
X0275412Y0098421D01*
X0275375Y0098329D01*
X0275334Y0098239D01*
X0275290Y0098150D01*
X0275242Y0098064D01*
X0275191Y0097979D01*
X0275136Y0097896D01*
X0275078Y0097816D01*
X0275017Y0097738D01*
X0274953Y0097662D01*
X0274886Y0097589D01*
X0274816Y0097519D01*
X0274743Y0097452D01*
X0274667Y0097388D01*
X0274589Y0097327D01*
X0274509Y0097269D01*
X0274426Y0097214D01*
X0274342Y0097163D01*
X0274255Y0097115D01*
X0274166Y0097071D01*
X0274076Y0097030D01*
X0273984Y0096993D01*
X0273890Y0096960D01*
X0273796Y0096930D01*
X0273700Y0096905D01*
X0273603Y0096883D01*
X0273506Y0096865D01*
X0273408Y0096851D01*
X0273309Y0096841D01*
X0273210Y0096835D01*
X0273111Y0096833D01*
X0273012Y0096835D01*
X0272913Y0096841D01*
X0272814Y0096851D01*
X0272716Y0096865D01*
X0272619Y0096883D01*
X0272522Y0096905D01*
X0272426Y0096930D01*
X0272332Y0096960D01*
X0272238Y0096993D01*
X0272146Y0097030D01*
X0272056Y0097071D01*
X0271967Y0097115D01*
X0271881Y0097163D01*
X0271796Y0097214D01*
X0271713Y0097269D01*
X0271633Y0097327D01*
X0271555Y0097388D01*
X0271479Y0097452D01*
X0271406Y0097519D01*
X0271336Y0097589D01*
X0271269Y0097662D01*
X0271205Y0097738D01*
X0271144Y0097816D01*
X0271086Y0097896D01*
X0271031Y0097979D01*
X0270980Y0098063D01*
X0270932Y0098150D01*
X0270888Y0098239D01*
X0270847Y0098329D01*
X0270810Y0098421D01*
X0270777Y0098515D01*
X0270747Y0098609D01*
X0270722Y0098705D01*
X0270700Y0098802D01*
X0270682Y0098899D01*
X0270668Y0098997D01*
X0270658Y0099096D01*
X0270652Y0099195D01*
X0270650Y0099294D01*
D33*
X0261300Y0099294D03*
X0115631Y0099294D03*
X0115631Y0052050D03*
X0261300Y0052050D03*
D34*
X0038662Y0048113D03*
X0058347Y0052050D03*
X0063662Y0052050D03*
X0060513Y0048113D03*
X0080394Y0048113D03*
X0096143Y0048113D03*
X0103820Y0048113D03*
X0100080Y0052640D03*
X0081772Y0057562D03*
X0080394Y0059924D03*
X0083347Y0059924D03*
X0095158Y0064648D03*
X0105591Y0065436D03*
X0108347Y0068979D03*
X0113662Y0071144D03*
X0113662Y0073310D03*
X0113662Y0075672D03*
X0124883Y0079215D03*
X0127245Y0079215D03*
X0135513Y0082759D03*
X0126457Y0082955D03*
X0129607Y0086302D03*
X0113662Y0082759D03*
X0111694Y0086105D03*
X0087875Y0091420D03*
X0086694Y0093192D03*
X0085513Y0091420D03*
X0080788Y0092010D03*
X0066615Y0093388D03*
X0055001Y0093782D03*
X0058741Y0099097D03*
X0062481Y0099097D03*
X0060513Y0103231D03*
X0080001Y0103231D03*
X0103623Y0103428D03*
X0133347Y0103231D03*
X0162875Y0103231D03*
X0198308Y0103231D03*
X0204017Y0097129D03*
X0206969Y0093782D03*
X0214056Y0090633D03*
X0214056Y0088467D03*
X0214056Y0086302D03*
X0196339Y0089648D03*
X0188662Y0088664D03*
X0180788Y0085514D03*
X0170355Y0089451D03*
X0166615Y0092601D03*
X0161891Y0092601D03*
X0158150Y0089648D03*
X0152442Y0085121D03*
X0160513Y0081971D03*
X0162678Y0081971D03*
X0164843Y0081971D03*
X0147324Y0074294D03*
X0147324Y0071932D03*
X0152048Y0068388D03*
X0157757Y0070160D03*
X0160513Y0070160D03*
X0163269Y0070160D03*
X0168780Y0068979D03*
X0184135Y0069570D03*
X0195355Y0069766D03*
X0203623Y0073310D03*
X0210513Y0074097D03*
X0213859Y0071144D03*
X0218583Y0071144D03*
X0230198Y0074294D03*
X0245552Y0071735D03*
X0252048Y0071735D03*
X0264843Y0070948D03*
X0273308Y0065239D03*
X0251457Y0063861D03*
X0249292Y0065239D03*
X0249292Y0062483D03*
X0251261Y0061105D03*
X0244961Y0059924D03*
X0245355Y0057365D03*
X0224489Y0056971D03*
X0227639Y0064648D03*
X0193583Y0075081D03*
X0196733Y0081184D03*
X0213269Y0081381D03*
X0215434Y0081381D03*
X0217796Y0081381D03*
X0244371Y0081971D03*
X0253623Y0081971D03*
X0264646Y0081971D03*
X0275867Y0085121D03*
X0286300Y0085514D03*
X0266221Y0090239D03*
X0261300Y0087483D03*
X0243977Y0090436D03*
X0243780Y0093979D03*
X0241024Y0093979D03*
X0230394Y0094176D03*
X0230394Y0097129D03*
X0226064Y0100081D03*
X0221930Y0103231D03*
X0245552Y0103231D03*
X0251851Y0103231D03*
X0277245Y0095160D03*
X0283544Y0094570D03*
X0266418Y0077444D03*
X0276064Y0076853D03*
X0279213Y0055790D03*
X0270749Y0048507D03*
X0249489Y0048310D03*
X0237875Y0048113D03*
X0225670Y0048113D03*
X0174686Y0048113D03*
X0161300Y0048113D03*
X0151064Y0048310D03*
X0139056Y0048113D03*
X0127442Y0048310D03*
X0129213Y0064255D03*
X0121930Y0064058D03*
X0117796Y0064058D03*
X0134331Y0066617D03*
X0136891Y0066617D03*
X0095552Y0075081D03*
X0093977Y0071538D03*
X0090040Y0071538D03*
X0082954Y0070160D03*
X0080198Y0070160D03*
X0060513Y0075672D03*
X0085316Y0081381D03*
X0087678Y0081381D03*
X0086497Y0079215D03*
X0025276Y0091420D03*
X0017402Y0091420D03*
X0038465Y0103231D03*
X0025080Y0059924D03*
X0017206Y0059924D03*
X0055001Y0057365D03*
X0066812Y0057365D03*
D35*
X0101654Y0059136D03*
X0146733Y0065042D03*
M02*
