%
M48
M72
T01C0.0098
T02C0.0100
T03C0.0236
T04C0.0400
T05C0.0433
T06C0.0787
%
T01
X8748Y5736
X10717Y8591
X19280Y9929
X20500Y8886
T02
X3866Y4811
X5835Y5205
X6366Y5205
X6051Y4811
X8039Y4811
X9614Y4811
X10382Y4811
X10008Y5264
X8177Y5756
X8039Y5992
X8335Y5992
X9516Y6465
X10559Y6544
X10835Y6898
X11366Y7114
X11366Y7331
X11366Y7567
X12488Y7922
X12724Y7922
X13551Y8276
X12646Y8296
X12961Y8630
X11366Y8276
X11169Y8610
X8787Y9142
X8669Y9319
X8551Y9142
X8079Y9201
X6661Y9339
X5500Y9378
X5874Y9910
X6248Y9910
X6051Y10323
X8000Y10323
X10362Y10343
X13335Y10323
X16287Y10323
X19831Y10323
X20402Y9713
X20697Y9378
X21406Y9063
X21406Y8847
X21406Y8630
X19634Y8965
X18866Y8866
X18079Y8551
X17036Y8945
X16661Y9260
X16189Y9260
X15815Y8965
X15244Y8512
X16051Y8197
X16268Y8197
X16484Y8197
X14732Y7429
X14732Y7193
X15205Y6839
X15776Y7016
X16051Y7016
X16327Y7016
X16878Y6898
X18413Y6957
X19536Y6977
X20362Y7331
X21051Y7410
X21386Y7114
X21858Y7114
X23020Y7429
X24555Y7173
X25205Y7173
X26484Y7095
X27331Y6524
X25146Y6386
X24929Y6248
X25126Y6110
X24496Y5992
X24536Y5736
X22449Y5697
X22764Y6465
X24929Y6524
X27921Y5579
X27075Y4851
X24949Y4831
X23787Y4811
X22567Y4811
X17469Y4811
X16130Y4811
X15106Y4831
X13906Y4811
X12744Y4831
X12921Y6425
X12193Y6406
X11780Y6406
X13433Y6662
X13689Y6662
X9555Y7508
X9398Y7154
X9004Y7154
X8295Y7016
X8020Y7016
X6051Y7567
X8532Y8138
X8768Y8138
X8650Y7922
X2528Y9142
X1740Y9142
X3847Y10323
X2508Y5992
X1721Y5992
X5500Y5736
X6681Y5736
X19358Y7508
X19673Y8118
X21327Y8138
X21543Y8138
X21780Y8138
X24437Y8197
X25362Y8197
X26465Y8197
X27587Y8512
X28630Y8551
X26622Y9024
X26130Y8748
X24398Y9044
X24378Y9398
X24102Y9398
X23039Y9418
X23039Y9713
X22606Y10008
X22193Y10323
X24555Y10323
X25185Y10323
X27724Y9516
X28354Y9457
X26642Y7744
X27606Y7685
T03
X23669Y9575
T04
X29536Y10067
X30536Y10067
X30536Y9067
X29536Y9067
X29536Y8067
X30536Y8067
X30536Y7067
X29536Y7067
X29536Y6067
X30536Y6067
X30536Y5067
X29536Y5067
X21185Y5099
X20185Y5099
X19185Y5099
X19185Y6099
X20185Y6099
X21185Y6099
X1630Y7067
X630Y7067
X630Y8067
X1630Y8067
T05
X10165Y5914
X14673Y6504
T06
X11563Y5205
X26130Y5205
X26130Y9929
X11563Y9929
M30
