%
M48
M72
T01C0.0098
T02C0.0100
T03C0.0236
T04C0.0400
T05C0.0433
T06C0.0787
%
T01
X8748Y1458
X10717Y4313
X19280Y5651
X20500Y4608
T02
X3866Y533
X5835Y927
X6366Y927
X6051Y533
X8039Y533
X9614Y533
X10382Y533
X10008Y986
X8177Y1478
X8039Y1714
X8335Y1714
X6681Y1458
X5500Y1458
X2508Y1714
X1721Y1714
X6051Y3289
X8020Y2738
X8295Y2738
X9004Y2876
X9398Y2876
X9555Y3230
X8650Y3643
X8768Y3860
X8532Y3860
X11169Y4332
X11366Y3998
X12488Y3643
X12724Y3643
X13551Y3998
X12646Y4017
X12961Y4352
X15244Y4234
X16051Y3919
X16268Y3919
X16484Y3919
X18079Y4273
X18866Y4588
X19634Y4687
X20697Y5100
X21406Y4785
X21406Y4569
X21406Y4352
X21327Y3860
X21543Y3860
X21780Y3860
X19673Y3840
X19358Y3230
X20362Y3053
X21051Y3131
X21386Y2836
X21858Y2836
X23020Y3151
X24555Y2895
X25205Y2895
X26484Y2817
X27331Y2246
X25146Y2108
X24929Y1970
X25126Y1832
X24496Y1714
X24536Y1458
X22449Y1419
X22764Y2187
X24929Y2246
X27921Y1301
X27075Y572
X24949Y553
X23787Y533
X22567Y533
X17469Y533
X16130Y533
X15106Y553
X13906Y533
X12744Y553
X12193Y2128
X11780Y2128
X12921Y2147
X13433Y2383
X13689Y2383
X15205Y2561
X15776Y2738
X16051Y2738
X16327Y2738
X16878Y2620
X18413Y2679
X19536Y2698
X14732Y2915
X14732Y3151
X11366Y3053
X11366Y2836
X10835Y2620
X10559Y2265
X9516Y2187
X11366Y3289
X15815Y4687
X16189Y4982
X16661Y4982
X17036Y4667
X20402Y5435
X19831Y6045
X22193Y6045
X22606Y5730
X23039Y5435
X23039Y5139
X24102Y5120
X24378Y5120
X24398Y4765
X26130Y4470
X26622Y4746
X27724Y5238
X28354Y5179
X25185Y6045
X24555Y6045
X27587Y4234
X28630Y4273
X26465Y3919
X25362Y3919
X24437Y3919
X26642Y3466
X27606Y3407
X16287Y6045
X13335Y6045
X10362Y6065
X8000Y6045
X6248Y5631
X5874Y5631
X6051Y6045
X3847Y6045
X5500Y5100
X6661Y5061
X8079Y4923
X8551Y4864
X8787Y4864
X8669Y5041
X2528Y4864
X1740Y4864
T03
X23669Y5297
T04
X29536Y5789
X30536Y5789
X30536Y4789
X29536Y4789
X29536Y3789
X30536Y3789
X30536Y2789
X29536Y2789
X29536Y1789
X30536Y1789
X30536Y789
X29536Y789
X21185Y820
X20185Y820
X19185Y820
X19185Y1820
X20185Y1820
X21185Y1820
X1630Y2789
X630Y2789
X630Y3789
X1630Y3789
T05
X10165Y1635
X14673Y2226
T06
X11563Y927
X26130Y927
X26130Y5651
X11563Y5651
M30
