G75*
%MOIN*%
%OFA0B0*%
%FSLAX25Y25*%
%IPPOS*%
%LPD*%
%AMOC8*
5,1,8,0,0,1.08239X$1,22.5*
%
%ADD10C,0.00000*%
D10*
X0001457Y0021079D02*
X0036891Y0001394D01*
X0312481Y0001394D01*
X0312671Y0001396D01*
X0312861Y0001403D01*
X0313051Y0001415D01*
X0313241Y0001431D01*
X0313430Y0001451D01*
X0313619Y0001477D01*
X0313807Y0001506D01*
X0313994Y0001541D01*
X0314180Y0001580D01*
X0314365Y0001623D01*
X0314550Y0001671D01*
X0314733Y0001723D01*
X0314914Y0001779D01*
X0315094Y0001840D01*
X0315273Y0001906D01*
X0315450Y0001975D01*
X0315626Y0002049D01*
X0315799Y0002127D01*
X0315971Y0002210D01*
X0316140Y0002296D01*
X0316308Y0002386D01*
X0316473Y0002481D01*
X0316636Y0002579D01*
X0316796Y0002682D01*
X0316954Y0002788D01*
X0317109Y0002898D01*
X0317262Y0003011D01*
X0317412Y0003129D01*
X0317558Y0003250D01*
X0317702Y0003374D01*
X0317843Y0003502D01*
X0317981Y0003633D01*
X0318116Y0003768D01*
X0318247Y0003906D01*
X0318375Y0004047D01*
X0318499Y0004191D01*
X0318620Y0004337D01*
X0318738Y0004487D01*
X0318851Y0004640D01*
X0318961Y0004795D01*
X0319067Y0004953D01*
X0319170Y0005113D01*
X0319268Y0005276D01*
X0319363Y0005441D01*
X0319453Y0005609D01*
X0319539Y0005778D01*
X0319622Y0005950D01*
X0319700Y0006123D01*
X0319774Y0006299D01*
X0319843Y0006476D01*
X0319909Y0006655D01*
X0319970Y0006835D01*
X0320026Y0007016D01*
X0320078Y0007199D01*
X0320126Y0007384D01*
X0320169Y0007569D01*
X0320208Y0007755D01*
X0320243Y0007942D01*
X0320272Y0008130D01*
X0320298Y0008319D01*
X0320318Y0008508D01*
X0320334Y0008698D01*
X0320346Y0008888D01*
X0320353Y0009078D01*
X0320355Y0009268D01*
X0320355Y0056512D01*
X0320353Y0056702D01*
X0320346Y0056892D01*
X0320334Y0057082D01*
X0320318Y0057272D01*
X0320298Y0057461D01*
X0320272Y0057650D01*
X0320243Y0057838D01*
X0320208Y0058025D01*
X0320169Y0058211D01*
X0320126Y0058396D01*
X0320078Y0058581D01*
X0320026Y0058764D01*
X0319970Y0058945D01*
X0319909Y0059125D01*
X0319843Y0059304D01*
X0319774Y0059481D01*
X0319700Y0059657D01*
X0319622Y0059830D01*
X0319539Y0060002D01*
X0319453Y0060171D01*
X0319363Y0060339D01*
X0319268Y0060504D01*
X0319170Y0060667D01*
X0319067Y0060827D01*
X0318961Y0060985D01*
X0318851Y0061140D01*
X0318738Y0061293D01*
X0318620Y0061443D01*
X0318499Y0061589D01*
X0318375Y0061733D01*
X0318247Y0061874D01*
X0318116Y0062012D01*
X0317981Y0062147D01*
X0317843Y0062278D01*
X0317702Y0062406D01*
X0317558Y0062530D01*
X0317412Y0062651D01*
X0317262Y0062769D01*
X0317109Y0062882D01*
X0316954Y0062992D01*
X0316796Y0063098D01*
X0316636Y0063201D01*
X0316473Y0063299D01*
X0316308Y0063394D01*
X0316140Y0063484D01*
X0315971Y0063570D01*
X0315799Y0063653D01*
X0315626Y0063731D01*
X0315450Y0063805D01*
X0315273Y0063874D01*
X0315094Y0063940D01*
X0314914Y0064001D01*
X0314733Y0064057D01*
X0314550Y0064109D01*
X0314365Y0064157D01*
X0314180Y0064200D01*
X0313994Y0064239D01*
X0313807Y0064274D01*
X0313619Y0064303D01*
X0313430Y0064329D01*
X0313241Y0064349D01*
X0313051Y0064365D01*
X0312861Y0064377D01*
X0312671Y0064384D01*
X0312481Y0064386D01*
X0036891Y0064386D01*
X0001457Y0044701D01*
X0001457Y0021079D01*
X0111694Y0009268D02*
X0111696Y0009393D01*
X0111702Y0009518D01*
X0111712Y0009642D01*
X0111726Y0009766D01*
X0111743Y0009890D01*
X0111765Y0010013D01*
X0111791Y0010135D01*
X0111820Y0010257D01*
X0111853Y0010377D01*
X0111891Y0010496D01*
X0111931Y0010615D01*
X0111976Y0010731D01*
X0112024Y0010846D01*
X0112076Y0010960D01*
X0112132Y0011072D01*
X0112191Y0011182D01*
X0112253Y0011290D01*
X0112319Y0011397D01*
X0112388Y0011501D01*
X0112461Y0011602D01*
X0112536Y0011702D01*
X0112615Y0011799D01*
X0112697Y0011893D01*
X0112782Y0011985D01*
X0112869Y0012074D01*
X0112960Y0012160D01*
X0113053Y0012243D01*
X0113149Y0012324D01*
X0113247Y0012401D01*
X0113347Y0012475D01*
X0113450Y0012546D01*
X0113555Y0012613D01*
X0113663Y0012678D01*
X0113772Y0012738D01*
X0113883Y0012796D01*
X0113996Y0012849D01*
X0114110Y0012899D01*
X0114226Y0012946D01*
X0114343Y0012988D01*
X0114462Y0013027D01*
X0114582Y0013063D01*
X0114703Y0013094D01*
X0114825Y0013122D01*
X0114947Y0013145D01*
X0115071Y0013165D01*
X0115195Y0013181D01*
X0115319Y0013193D01*
X0115444Y0013201D01*
X0115569Y0013205D01*
X0115693Y0013205D01*
X0115818Y0013201D01*
X0115943Y0013193D01*
X0116067Y0013181D01*
X0116191Y0013165D01*
X0116315Y0013145D01*
X0116437Y0013122D01*
X0116559Y0013094D01*
X0116680Y0013063D01*
X0116800Y0013027D01*
X0116919Y0012988D01*
X0117036Y0012946D01*
X0117152Y0012899D01*
X0117266Y0012849D01*
X0117379Y0012796D01*
X0117490Y0012738D01*
X0117600Y0012678D01*
X0117707Y0012613D01*
X0117812Y0012546D01*
X0117915Y0012475D01*
X0118015Y0012401D01*
X0118113Y0012324D01*
X0118209Y0012243D01*
X0118302Y0012160D01*
X0118393Y0012074D01*
X0118480Y0011985D01*
X0118565Y0011893D01*
X0118647Y0011799D01*
X0118726Y0011702D01*
X0118801Y0011602D01*
X0118874Y0011501D01*
X0118943Y0011397D01*
X0119009Y0011290D01*
X0119071Y0011182D01*
X0119130Y0011072D01*
X0119186Y0010960D01*
X0119238Y0010846D01*
X0119286Y0010731D01*
X0119331Y0010615D01*
X0119371Y0010496D01*
X0119409Y0010377D01*
X0119442Y0010257D01*
X0119471Y0010135D01*
X0119497Y0010013D01*
X0119519Y0009890D01*
X0119536Y0009766D01*
X0119550Y0009642D01*
X0119560Y0009518D01*
X0119566Y0009393D01*
X0119568Y0009268D01*
X0119566Y0009143D01*
X0119560Y0009018D01*
X0119550Y0008894D01*
X0119536Y0008770D01*
X0119519Y0008646D01*
X0119497Y0008523D01*
X0119471Y0008401D01*
X0119442Y0008279D01*
X0119409Y0008159D01*
X0119371Y0008040D01*
X0119331Y0007921D01*
X0119286Y0007805D01*
X0119238Y0007690D01*
X0119186Y0007576D01*
X0119130Y0007464D01*
X0119071Y0007354D01*
X0119009Y0007246D01*
X0118943Y0007139D01*
X0118874Y0007035D01*
X0118801Y0006934D01*
X0118726Y0006834D01*
X0118647Y0006737D01*
X0118565Y0006643D01*
X0118480Y0006551D01*
X0118393Y0006462D01*
X0118302Y0006376D01*
X0118209Y0006293D01*
X0118113Y0006212D01*
X0118015Y0006135D01*
X0117915Y0006061D01*
X0117812Y0005990D01*
X0117707Y0005923D01*
X0117599Y0005858D01*
X0117490Y0005798D01*
X0117379Y0005740D01*
X0117266Y0005687D01*
X0117152Y0005637D01*
X0117036Y0005590D01*
X0116919Y0005548D01*
X0116800Y0005509D01*
X0116680Y0005473D01*
X0116559Y0005442D01*
X0116437Y0005414D01*
X0116315Y0005391D01*
X0116191Y0005371D01*
X0116067Y0005355D01*
X0115943Y0005343D01*
X0115818Y0005335D01*
X0115693Y0005331D01*
X0115569Y0005331D01*
X0115444Y0005335D01*
X0115319Y0005343D01*
X0115195Y0005355D01*
X0115071Y0005371D01*
X0114947Y0005391D01*
X0114825Y0005414D01*
X0114703Y0005442D01*
X0114582Y0005473D01*
X0114462Y0005509D01*
X0114343Y0005548D01*
X0114226Y0005590D01*
X0114110Y0005637D01*
X0113996Y0005687D01*
X0113883Y0005740D01*
X0113772Y0005798D01*
X0113662Y0005858D01*
X0113555Y0005923D01*
X0113450Y0005990D01*
X0113347Y0006061D01*
X0113247Y0006135D01*
X0113149Y0006212D01*
X0113053Y0006293D01*
X0112960Y0006376D01*
X0112869Y0006462D01*
X0112782Y0006551D01*
X0112697Y0006643D01*
X0112615Y0006737D01*
X0112536Y0006834D01*
X0112461Y0006934D01*
X0112388Y0007035D01*
X0112319Y0007139D01*
X0112253Y0007246D01*
X0112191Y0007354D01*
X0112132Y0007464D01*
X0112076Y0007576D01*
X0112024Y0007690D01*
X0111976Y0007805D01*
X0111931Y0007921D01*
X0111891Y0008040D01*
X0111853Y0008159D01*
X0111820Y0008279D01*
X0111791Y0008401D01*
X0111765Y0008523D01*
X0111743Y0008646D01*
X0111726Y0008770D01*
X0111712Y0008894D01*
X0111702Y0009018D01*
X0111696Y0009143D01*
X0111694Y0009268D01*
X0257363Y0009268D02*
X0257365Y0009393D01*
X0257371Y0009518D01*
X0257381Y0009642D01*
X0257395Y0009766D01*
X0257412Y0009890D01*
X0257434Y0010013D01*
X0257460Y0010135D01*
X0257489Y0010257D01*
X0257522Y0010377D01*
X0257560Y0010496D01*
X0257600Y0010615D01*
X0257645Y0010731D01*
X0257693Y0010846D01*
X0257745Y0010960D01*
X0257801Y0011072D01*
X0257860Y0011182D01*
X0257922Y0011290D01*
X0257988Y0011397D01*
X0258057Y0011501D01*
X0258130Y0011602D01*
X0258205Y0011702D01*
X0258284Y0011799D01*
X0258366Y0011893D01*
X0258451Y0011985D01*
X0258538Y0012074D01*
X0258629Y0012160D01*
X0258722Y0012243D01*
X0258818Y0012324D01*
X0258916Y0012401D01*
X0259016Y0012475D01*
X0259119Y0012546D01*
X0259224Y0012613D01*
X0259332Y0012678D01*
X0259441Y0012738D01*
X0259552Y0012796D01*
X0259665Y0012849D01*
X0259779Y0012899D01*
X0259895Y0012946D01*
X0260012Y0012988D01*
X0260131Y0013027D01*
X0260251Y0013063D01*
X0260372Y0013094D01*
X0260494Y0013122D01*
X0260616Y0013145D01*
X0260740Y0013165D01*
X0260864Y0013181D01*
X0260988Y0013193D01*
X0261113Y0013201D01*
X0261238Y0013205D01*
X0261362Y0013205D01*
X0261487Y0013201D01*
X0261612Y0013193D01*
X0261736Y0013181D01*
X0261860Y0013165D01*
X0261984Y0013145D01*
X0262106Y0013122D01*
X0262228Y0013094D01*
X0262349Y0013063D01*
X0262469Y0013027D01*
X0262588Y0012988D01*
X0262705Y0012946D01*
X0262821Y0012899D01*
X0262935Y0012849D01*
X0263048Y0012796D01*
X0263159Y0012738D01*
X0263269Y0012678D01*
X0263376Y0012613D01*
X0263481Y0012546D01*
X0263584Y0012475D01*
X0263684Y0012401D01*
X0263782Y0012324D01*
X0263878Y0012243D01*
X0263971Y0012160D01*
X0264062Y0012074D01*
X0264149Y0011985D01*
X0264234Y0011893D01*
X0264316Y0011799D01*
X0264395Y0011702D01*
X0264470Y0011602D01*
X0264543Y0011501D01*
X0264612Y0011397D01*
X0264678Y0011290D01*
X0264740Y0011182D01*
X0264799Y0011072D01*
X0264855Y0010960D01*
X0264907Y0010846D01*
X0264955Y0010731D01*
X0265000Y0010615D01*
X0265040Y0010496D01*
X0265078Y0010377D01*
X0265111Y0010257D01*
X0265140Y0010135D01*
X0265166Y0010013D01*
X0265188Y0009890D01*
X0265205Y0009766D01*
X0265219Y0009642D01*
X0265229Y0009518D01*
X0265235Y0009393D01*
X0265237Y0009268D01*
X0265235Y0009143D01*
X0265229Y0009018D01*
X0265219Y0008894D01*
X0265205Y0008770D01*
X0265188Y0008646D01*
X0265166Y0008523D01*
X0265140Y0008401D01*
X0265111Y0008279D01*
X0265078Y0008159D01*
X0265040Y0008040D01*
X0265000Y0007921D01*
X0264955Y0007805D01*
X0264907Y0007690D01*
X0264855Y0007576D01*
X0264799Y0007464D01*
X0264740Y0007354D01*
X0264678Y0007246D01*
X0264612Y0007139D01*
X0264543Y0007035D01*
X0264470Y0006934D01*
X0264395Y0006834D01*
X0264316Y0006737D01*
X0264234Y0006643D01*
X0264149Y0006551D01*
X0264062Y0006462D01*
X0263971Y0006376D01*
X0263878Y0006293D01*
X0263782Y0006212D01*
X0263684Y0006135D01*
X0263584Y0006061D01*
X0263481Y0005990D01*
X0263376Y0005923D01*
X0263268Y0005858D01*
X0263159Y0005798D01*
X0263048Y0005740D01*
X0262935Y0005687D01*
X0262821Y0005637D01*
X0262705Y0005590D01*
X0262588Y0005548D01*
X0262469Y0005509D01*
X0262349Y0005473D01*
X0262228Y0005442D01*
X0262106Y0005414D01*
X0261984Y0005391D01*
X0261860Y0005371D01*
X0261736Y0005355D01*
X0261612Y0005343D01*
X0261487Y0005335D01*
X0261362Y0005331D01*
X0261238Y0005331D01*
X0261113Y0005335D01*
X0260988Y0005343D01*
X0260864Y0005355D01*
X0260740Y0005371D01*
X0260616Y0005391D01*
X0260494Y0005414D01*
X0260372Y0005442D01*
X0260251Y0005473D01*
X0260131Y0005509D01*
X0260012Y0005548D01*
X0259895Y0005590D01*
X0259779Y0005637D01*
X0259665Y0005687D01*
X0259552Y0005740D01*
X0259441Y0005798D01*
X0259331Y0005858D01*
X0259224Y0005923D01*
X0259119Y0005990D01*
X0259016Y0006061D01*
X0258916Y0006135D01*
X0258818Y0006212D01*
X0258722Y0006293D01*
X0258629Y0006376D01*
X0258538Y0006462D01*
X0258451Y0006551D01*
X0258366Y0006643D01*
X0258284Y0006737D01*
X0258205Y0006834D01*
X0258130Y0006934D01*
X0258057Y0007035D01*
X0257988Y0007139D01*
X0257922Y0007246D01*
X0257860Y0007354D01*
X0257801Y0007464D01*
X0257745Y0007576D01*
X0257693Y0007690D01*
X0257645Y0007805D01*
X0257600Y0007921D01*
X0257560Y0008040D01*
X0257522Y0008159D01*
X0257489Y0008279D01*
X0257460Y0008401D01*
X0257434Y0008523D01*
X0257412Y0008646D01*
X0257395Y0008770D01*
X0257381Y0008894D01*
X0257371Y0009018D01*
X0257365Y0009143D01*
X0257363Y0009268D01*
X0257363Y0056512D02*
X0257365Y0056637D01*
X0257371Y0056762D01*
X0257381Y0056886D01*
X0257395Y0057010D01*
X0257412Y0057134D01*
X0257434Y0057257D01*
X0257460Y0057379D01*
X0257489Y0057501D01*
X0257522Y0057621D01*
X0257560Y0057740D01*
X0257600Y0057859D01*
X0257645Y0057975D01*
X0257693Y0058090D01*
X0257745Y0058204D01*
X0257801Y0058316D01*
X0257860Y0058426D01*
X0257922Y0058534D01*
X0257988Y0058641D01*
X0258057Y0058745D01*
X0258130Y0058846D01*
X0258205Y0058946D01*
X0258284Y0059043D01*
X0258366Y0059137D01*
X0258451Y0059229D01*
X0258538Y0059318D01*
X0258629Y0059404D01*
X0258722Y0059487D01*
X0258818Y0059568D01*
X0258916Y0059645D01*
X0259016Y0059719D01*
X0259119Y0059790D01*
X0259224Y0059857D01*
X0259332Y0059922D01*
X0259441Y0059982D01*
X0259552Y0060040D01*
X0259665Y0060093D01*
X0259779Y0060143D01*
X0259895Y0060190D01*
X0260012Y0060232D01*
X0260131Y0060271D01*
X0260251Y0060307D01*
X0260372Y0060338D01*
X0260494Y0060366D01*
X0260616Y0060389D01*
X0260740Y0060409D01*
X0260864Y0060425D01*
X0260988Y0060437D01*
X0261113Y0060445D01*
X0261238Y0060449D01*
X0261362Y0060449D01*
X0261487Y0060445D01*
X0261612Y0060437D01*
X0261736Y0060425D01*
X0261860Y0060409D01*
X0261984Y0060389D01*
X0262106Y0060366D01*
X0262228Y0060338D01*
X0262349Y0060307D01*
X0262469Y0060271D01*
X0262588Y0060232D01*
X0262705Y0060190D01*
X0262821Y0060143D01*
X0262935Y0060093D01*
X0263048Y0060040D01*
X0263159Y0059982D01*
X0263269Y0059922D01*
X0263376Y0059857D01*
X0263481Y0059790D01*
X0263584Y0059719D01*
X0263684Y0059645D01*
X0263782Y0059568D01*
X0263878Y0059487D01*
X0263971Y0059404D01*
X0264062Y0059318D01*
X0264149Y0059229D01*
X0264234Y0059137D01*
X0264316Y0059043D01*
X0264395Y0058946D01*
X0264470Y0058846D01*
X0264543Y0058745D01*
X0264612Y0058641D01*
X0264678Y0058534D01*
X0264740Y0058426D01*
X0264799Y0058316D01*
X0264855Y0058204D01*
X0264907Y0058090D01*
X0264955Y0057975D01*
X0265000Y0057859D01*
X0265040Y0057740D01*
X0265078Y0057621D01*
X0265111Y0057501D01*
X0265140Y0057379D01*
X0265166Y0057257D01*
X0265188Y0057134D01*
X0265205Y0057010D01*
X0265219Y0056886D01*
X0265229Y0056762D01*
X0265235Y0056637D01*
X0265237Y0056512D01*
X0265235Y0056387D01*
X0265229Y0056262D01*
X0265219Y0056138D01*
X0265205Y0056014D01*
X0265188Y0055890D01*
X0265166Y0055767D01*
X0265140Y0055645D01*
X0265111Y0055523D01*
X0265078Y0055403D01*
X0265040Y0055284D01*
X0265000Y0055165D01*
X0264955Y0055049D01*
X0264907Y0054934D01*
X0264855Y0054820D01*
X0264799Y0054708D01*
X0264740Y0054598D01*
X0264678Y0054490D01*
X0264612Y0054383D01*
X0264543Y0054279D01*
X0264470Y0054178D01*
X0264395Y0054078D01*
X0264316Y0053981D01*
X0264234Y0053887D01*
X0264149Y0053795D01*
X0264062Y0053706D01*
X0263971Y0053620D01*
X0263878Y0053537D01*
X0263782Y0053456D01*
X0263684Y0053379D01*
X0263584Y0053305D01*
X0263481Y0053234D01*
X0263376Y0053167D01*
X0263268Y0053102D01*
X0263159Y0053042D01*
X0263048Y0052984D01*
X0262935Y0052931D01*
X0262821Y0052881D01*
X0262705Y0052834D01*
X0262588Y0052792D01*
X0262469Y0052753D01*
X0262349Y0052717D01*
X0262228Y0052686D01*
X0262106Y0052658D01*
X0261984Y0052635D01*
X0261860Y0052615D01*
X0261736Y0052599D01*
X0261612Y0052587D01*
X0261487Y0052579D01*
X0261362Y0052575D01*
X0261238Y0052575D01*
X0261113Y0052579D01*
X0260988Y0052587D01*
X0260864Y0052599D01*
X0260740Y0052615D01*
X0260616Y0052635D01*
X0260494Y0052658D01*
X0260372Y0052686D01*
X0260251Y0052717D01*
X0260131Y0052753D01*
X0260012Y0052792D01*
X0259895Y0052834D01*
X0259779Y0052881D01*
X0259665Y0052931D01*
X0259552Y0052984D01*
X0259441Y0053042D01*
X0259331Y0053102D01*
X0259224Y0053167D01*
X0259119Y0053234D01*
X0259016Y0053305D01*
X0258916Y0053379D01*
X0258818Y0053456D01*
X0258722Y0053537D01*
X0258629Y0053620D01*
X0258538Y0053706D01*
X0258451Y0053795D01*
X0258366Y0053887D01*
X0258284Y0053981D01*
X0258205Y0054078D01*
X0258130Y0054178D01*
X0258057Y0054279D01*
X0257988Y0054383D01*
X0257922Y0054490D01*
X0257860Y0054598D01*
X0257801Y0054708D01*
X0257745Y0054820D01*
X0257693Y0054934D01*
X0257645Y0055049D01*
X0257600Y0055165D01*
X0257560Y0055284D01*
X0257522Y0055403D01*
X0257489Y0055523D01*
X0257460Y0055645D01*
X0257434Y0055767D01*
X0257412Y0055890D01*
X0257395Y0056014D01*
X0257381Y0056138D01*
X0257371Y0056262D01*
X0257365Y0056387D01*
X0257363Y0056512D01*
X0111694Y0056512D02*
X0111696Y0056637D01*
X0111702Y0056762D01*
X0111712Y0056886D01*
X0111726Y0057010D01*
X0111743Y0057134D01*
X0111765Y0057257D01*
X0111791Y0057379D01*
X0111820Y0057501D01*
X0111853Y0057621D01*
X0111891Y0057740D01*
X0111931Y0057859D01*
X0111976Y0057975D01*
X0112024Y0058090D01*
X0112076Y0058204D01*
X0112132Y0058316D01*
X0112191Y0058426D01*
X0112253Y0058534D01*
X0112319Y0058641D01*
X0112388Y0058745D01*
X0112461Y0058846D01*
X0112536Y0058946D01*
X0112615Y0059043D01*
X0112697Y0059137D01*
X0112782Y0059229D01*
X0112869Y0059318D01*
X0112960Y0059404D01*
X0113053Y0059487D01*
X0113149Y0059568D01*
X0113247Y0059645D01*
X0113347Y0059719D01*
X0113450Y0059790D01*
X0113555Y0059857D01*
X0113663Y0059922D01*
X0113772Y0059982D01*
X0113883Y0060040D01*
X0113996Y0060093D01*
X0114110Y0060143D01*
X0114226Y0060190D01*
X0114343Y0060232D01*
X0114462Y0060271D01*
X0114582Y0060307D01*
X0114703Y0060338D01*
X0114825Y0060366D01*
X0114947Y0060389D01*
X0115071Y0060409D01*
X0115195Y0060425D01*
X0115319Y0060437D01*
X0115444Y0060445D01*
X0115569Y0060449D01*
X0115693Y0060449D01*
X0115818Y0060445D01*
X0115943Y0060437D01*
X0116067Y0060425D01*
X0116191Y0060409D01*
X0116315Y0060389D01*
X0116437Y0060366D01*
X0116559Y0060338D01*
X0116680Y0060307D01*
X0116800Y0060271D01*
X0116919Y0060232D01*
X0117036Y0060190D01*
X0117152Y0060143D01*
X0117266Y0060093D01*
X0117379Y0060040D01*
X0117490Y0059982D01*
X0117600Y0059922D01*
X0117707Y0059857D01*
X0117812Y0059790D01*
X0117915Y0059719D01*
X0118015Y0059645D01*
X0118113Y0059568D01*
X0118209Y0059487D01*
X0118302Y0059404D01*
X0118393Y0059318D01*
X0118480Y0059229D01*
X0118565Y0059137D01*
X0118647Y0059043D01*
X0118726Y0058946D01*
X0118801Y0058846D01*
X0118874Y0058745D01*
X0118943Y0058641D01*
X0119009Y0058534D01*
X0119071Y0058426D01*
X0119130Y0058316D01*
X0119186Y0058204D01*
X0119238Y0058090D01*
X0119286Y0057975D01*
X0119331Y0057859D01*
X0119371Y0057740D01*
X0119409Y0057621D01*
X0119442Y0057501D01*
X0119471Y0057379D01*
X0119497Y0057257D01*
X0119519Y0057134D01*
X0119536Y0057010D01*
X0119550Y0056886D01*
X0119560Y0056762D01*
X0119566Y0056637D01*
X0119568Y0056512D01*
X0119566Y0056387D01*
X0119560Y0056262D01*
X0119550Y0056138D01*
X0119536Y0056014D01*
X0119519Y0055890D01*
X0119497Y0055767D01*
X0119471Y0055645D01*
X0119442Y0055523D01*
X0119409Y0055403D01*
X0119371Y0055284D01*
X0119331Y0055165D01*
X0119286Y0055049D01*
X0119238Y0054934D01*
X0119186Y0054820D01*
X0119130Y0054708D01*
X0119071Y0054598D01*
X0119009Y0054490D01*
X0118943Y0054383D01*
X0118874Y0054279D01*
X0118801Y0054178D01*
X0118726Y0054078D01*
X0118647Y0053981D01*
X0118565Y0053887D01*
X0118480Y0053795D01*
X0118393Y0053706D01*
X0118302Y0053620D01*
X0118209Y0053537D01*
X0118113Y0053456D01*
X0118015Y0053379D01*
X0117915Y0053305D01*
X0117812Y0053234D01*
X0117707Y0053167D01*
X0117599Y0053102D01*
X0117490Y0053042D01*
X0117379Y0052984D01*
X0117266Y0052931D01*
X0117152Y0052881D01*
X0117036Y0052834D01*
X0116919Y0052792D01*
X0116800Y0052753D01*
X0116680Y0052717D01*
X0116559Y0052686D01*
X0116437Y0052658D01*
X0116315Y0052635D01*
X0116191Y0052615D01*
X0116067Y0052599D01*
X0115943Y0052587D01*
X0115818Y0052579D01*
X0115693Y0052575D01*
X0115569Y0052575D01*
X0115444Y0052579D01*
X0115319Y0052587D01*
X0115195Y0052599D01*
X0115071Y0052615D01*
X0114947Y0052635D01*
X0114825Y0052658D01*
X0114703Y0052686D01*
X0114582Y0052717D01*
X0114462Y0052753D01*
X0114343Y0052792D01*
X0114226Y0052834D01*
X0114110Y0052881D01*
X0113996Y0052931D01*
X0113883Y0052984D01*
X0113772Y0053042D01*
X0113662Y0053102D01*
X0113555Y0053167D01*
X0113450Y0053234D01*
X0113347Y0053305D01*
X0113247Y0053379D01*
X0113149Y0053456D01*
X0113053Y0053537D01*
X0112960Y0053620D01*
X0112869Y0053706D01*
X0112782Y0053795D01*
X0112697Y0053887D01*
X0112615Y0053981D01*
X0112536Y0054078D01*
X0112461Y0054178D01*
X0112388Y0054279D01*
X0112319Y0054383D01*
X0112253Y0054490D01*
X0112191Y0054598D01*
X0112132Y0054708D01*
X0112076Y0054820D01*
X0112024Y0054934D01*
X0111976Y0055049D01*
X0111931Y0055165D01*
X0111891Y0055284D01*
X0111853Y0055403D01*
X0111820Y0055523D01*
X0111791Y0055645D01*
X0111765Y0055767D01*
X0111743Y0055890D01*
X0111726Y0056014D01*
X0111712Y0056138D01*
X0111702Y0056262D01*
X0111696Y0056387D01*
X0111694Y0056512D01*
M02*
