G75*
%MOIN*%
%OFA0B0*%
%FSLAX25Y25*%
%IPPOS*%
%LPD*%
%AMOC8*
5,1,8,0,0,1.08239X$1,22.5*
%
%ADD10R,0.42126X0.11614*%
%ADD11R,0.28465X0.06772*%
%ADD12R,0.39370X0.15748*%
%ADD13R,0.05591X0.02165*%
%ADD14C,0.02047*%
%ADD15R,0.03228X0.02835*%
%ADD16R,0.02835X0.03228*%
%ADD17OC8,0.06800*%
%ADD18R,0.03800X0.06481*%
%ADD19R,0.07887X0.07887*%
%ADD20R,0.04934X0.03162*%
%ADD21R,0.05512X0.02165*%
%ADD22C,0.00394*%
%ADD23R,0.02756X0.01457*%
%ADD24R,0.02362X0.01457*%
%ADD25R,0.02067X0.01181*%
%ADD26R,0.00335X0.00886*%
%ADD27R,0.00354X0.00728*%
%ADD28R,0.02480X0.02559*%
%ADD29C,0.04343*%
%ADD30C,0.04737*%
%ADD31C,0.02584*%
%ADD32C,0.04921*%
%ADD33C,0.08674*%
%ADD34C,0.02600*%
%ADD35C,0.07296*%
D10*
X0152442Y0007201D03*
D11*
X0306162Y0007850D03*
X0306162Y0017850D03*
X0306162Y0027850D03*
X0306162Y0037850D03*
X0306162Y0047850D03*
X0306162Y0057850D03*
D12*
X0147127Y0056512D03*
D13*
X0225828Y0036728D03*
X0225828Y0034169D03*
X0225828Y0031610D03*
X0225828Y0029051D03*
X0236143Y0029051D03*
X0236143Y0031610D03*
X0236143Y0034169D03*
X0236143Y0036728D03*
D14*
X0227048Y0043205D02*
X0227048Y0045803D01*
X0224686Y0045803D01*
X0224686Y0043205D01*
X0227048Y0043205D01*
X0227048Y0044355D02*
X0224686Y0044355D01*
X0219961Y0044355D02*
X0217599Y0044355D01*
X0217599Y0043205D02*
X0217599Y0045803D01*
X0219961Y0045803D01*
X0219961Y0043205D01*
X0217599Y0043205D01*
X0217284Y0050094D02*
X0220276Y0050094D01*
X0220276Y0054268D01*
X0217284Y0054268D01*
X0217284Y0050094D01*
X0217284Y0050492D02*
X0220276Y0050492D01*
X0220276Y0052538D02*
X0217284Y0052538D01*
X0224371Y0052538D02*
X0227363Y0052538D01*
X0227363Y0054268D02*
X0227363Y0050094D01*
X0224371Y0050094D01*
X0224371Y0054268D01*
X0227363Y0054268D01*
X0227363Y0050492D02*
X0224371Y0050492D01*
X0236497Y0022575D02*
X0236497Y0019976D01*
X0238859Y0019976D01*
X0238859Y0022575D01*
X0236497Y0022575D01*
X0236497Y0021851D02*
X0238859Y0021851D01*
X0243583Y0021851D02*
X0245946Y0021851D01*
X0245946Y0022575D02*
X0243583Y0022575D01*
X0243583Y0019976D01*
X0245946Y0019976D01*
X0245946Y0022575D01*
X0063190Y0021851D02*
X0058623Y0021851D01*
X0058623Y0020764D02*
X0063190Y0020764D01*
X0063190Y0024543D01*
X0058623Y0024543D01*
X0058623Y0020764D01*
X0058623Y0023897D02*
X0063190Y0023897D01*
X0063190Y0016669D02*
X0058623Y0016669D01*
X0058623Y0012890D01*
X0063190Y0012890D01*
X0063190Y0016669D01*
X0063190Y0015714D02*
X0058623Y0015714D01*
X0058623Y0013668D02*
X0063190Y0013668D01*
X0063190Y0041039D02*
X0058623Y0041039D01*
X0058623Y0044819D01*
X0063190Y0044819D01*
X0063190Y0041039D01*
X0063190Y0042309D02*
X0058623Y0042309D01*
X0058623Y0044355D02*
X0063190Y0044355D01*
X0063190Y0048913D02*
X0058623Y0048913D01*
X0058623Y0052693D01*
X0063190Y0052693D01*
X0063190Y0048913D01*
X0063190Y0050492D02*
X0058623Y0050492D01*
X0058623Y0052538D02*
X0063190Y0052538D01*
D15*
X0065237Y0034858D03*
X0069961Y0034858D03*
X0069961Y0030921D03*
X0065237Y0030921D03*
X0125867Y0029346D03*
X0135709Y0030921D03*
X0140434Y0030921D03*
X0140434Y0026984D03*
X0135709Y0026984D03*
X0125867Y0025409D03*
X0125867Y0021472D03*
X0125867Y0033283D03*
X0140434Y0034858D03*
X0145158Y0034858D03*
X0145158Y0038795D03*
X0140434Y0038795D03*
X0161891Y0042732D03*
X0166615Y0042732D03*
X0175473Y0043913D03*
X0183938Y0042732D03*
X0188662Y0042732D03*
X0188662Y0038795D03*
X0183938Y0038795D03*
X0183938Y0034858D03*
X0175473Y0034858D03*
X0175473Y0030921D03*
X0183938Y0030921D03*
X0213859Y0031315D03*
X0218583Y0031315D03*
X0218583Y0035252D03*
X0213859Y0035252D03*
X0200080Y0042142D03*
X0200080Y0046079D03*
X0175473Y0047850D03*
X0166615Y0046669D03*
X0161891Y0046669D03*
X0232560Y0047850D03*
X0232560Y0043913D03*
X0248505Y0014780D03*
X0248505Y0010843D03*
D16*
X0242402Y0015173D03*
X0238465Y0015173D03*
X0256182Y0022850D03*
X0260119Y0022850D03*
X0179410Y0039583D03*
X0175473Y0039583D03*
X0180001Y0047850D03*
X0183938Y0047850D03*
X0200080Y0051000D03*
X0204017Y0051000D03*
X0237087Y0047654D03*
X0241024Y0047654D03*
X0159528Y0022260D03*
X0155591Y0022260D03*
X0135709Y0034858D03*
X0131772Y0034858D03*
X0102639Y0036827D03*
X0098702Y0036827D03*
X0098702Y0041551D03*
X0102639Y0041551D03*
X0114843Y0043520D03*
X0118780Y0043520D03*
X0122324Y0043520D03*
X0126261Y0043520D03*
X0102639Y0032102D03*
X0098702Y0032102D03*
X0098702Y0027378D03*
X0102639Y0027378D03*
X0102639Y0022654D03*
X0098702Y0022654D03*
X0096339Y0014583D03*
X0092402Y0014583D03*
X0092402Y0009858D03*
X0096339Y0009858D03*
D17*
X0016300Y0027890D03*
X0006300Y0027890D03*
X0006300Y0037890D03*
X0016300Y0037890D03*
X0191851Y0018205D03*
X0201851Y0018205D03*
X0211851Y0018205D03*
X0211851Y0008205D03*
X0201851Y0008205D03*
X0191851Y0008205D03*
X0295355Y0007890D03*
X0305355Y0007890D03*
X0305355Y0017890D03*
X0295355Y0017890D03*
X0295355Y0027890D03*
X0305355Y0027890D03*
X0305355Y0037890D03*
X0295355Y0037890D03*
X0295355Y0047890D03*
X0305355Y0047890D03*
X0305355Y0057890D03*
X0295355Y0057890D03*
D18*
X0091635Y0043480D03*
X0086635Y0043480D03*
X0081635Y0043480D03*
X0076635Y0043480D03*
X0076635Y0022299D03*
X0081635Y0022299D03*
X0086635Y0022299D03*
X0091635Y0022299D03*
D19*
X0051457Y0028165D03*
X0041615Y0026197D03*
X0032166Y0026197D03*
X0051457Y0037614D03*
X0041615Y0039583D03*
X0032166Y0039583D03*
D20*
X0108347Y0036630D03*
X0118977Y0036630D03*
X0118977Y0032890D03*
X0108347Y0032890D03*
X0108347Y0029150D03*
X0118977Y0029150D03*
D21*
X0152442Y0029051D03*
X0152442Y0031610D03*
X0152442Y0034169D03*
X0152442Y0036728D03*
X0168583Y0036728D03*
X0168583Y0034169D03*
X0168583Y0031610D03*
X0168583Y0029051D03*
D22*
X0280709Y0033362D02*
X0281083Y0033736D01*
X0281083Y0035370D01*
X0280926Y0035528D01*
X0280946Y0035528D02*
X0280631Y0035528D01*
X0280788Y0035331D02*
X0280788Y0033520D01*
X0281576Y0033106D02*
X0281753Y0033283D01*
X0281851Y0035724D02*
X0281576Y0036000D01*
X0281576Y0037654D02*
X0281851Y0037929D01*
X0281083Y0038283D02*
X0280906Y0038126D01*
X0280690Y0038126D01*
X0280788Y0038205D02*
X0280788Y0040016D01*
X0280709Y0040291D02*
X0281083Y0039917D01*
X0281083Y0038283D01*
X0281753Y0040370D02*
X0281576Y0040547D01*
D23*
X0282363Y0031177D03*
D24*
X0282560Y0042476D03*
D25*
X0282707Y0040764D03*
X0282707Y0039189D03*
X0282707Y0037614D03*
X0282707Y0036039D03*
X0282707Y0034465D03*
X0282707Y0032890D03*
D26*
X0281546Y0032742D03*
X0281546Y0040911D03*
D27*
X0281556Y0037388D03*
X0281556Y0036266D03*
D28*
X0279469Y0034445D03*
X0279469Y0039209D03*
D29*
X0236694Y0052969D03*
D30*
X0171733Y0052181D03*
X0148898Y0043126D03*
D31*
X0107166Y0043126D03*
X0192796Y0056512D03*
X0205001Y0046079D03*
X0087481Y0014583D03*
D32*
X0069863Y0009268D02*
X0069865Y0009367D01*
X0069871Y0009466D01*
X0069881Y0009565D01*
X0069895Y0009663D01*
X0069913Y0009760D01*
X0069935Y0009857D01*
X0069960Y0009953D01*
X0069990Y0010047D01*
X0070023Y0010141D01*
X0070060Y0010233D01*
X0070101Y0010323D01*
X0070145Y0010412D01*
X0070193Y0010498D01*
X0070244Y0010583D01*
X0070299Y0010666D01*
X0070357Y0010746D01*
X0070418Y0010824D01*
X0070482Y0010900D01*
X0070549Y0010973D01*
X0070619Y0011043D01*
X0070692Y0011110D01*
X0070768Y0011174D01*
X0070846Y0011235D01*
X0070926Y0011293D01*
X0071009Y0011348D01*
X0071093Y0011399D01*
X0071180Y0011447D01*
X0071269Y0011491D01*
X0071359Y0011532D01*
X0071451Y0011569D01*
X0071545Y0011602D01*
X0071639Y0011632D01*
X0071735Y0011657D01*
X0071832Y0011679D01*
X0071929Y0011697D01*
X0072027Y0011711D01*
X0072126Y0011721D01*
X0072225Y0011727D01*
X0072324Y0011729D01*
X0072423Y0011727D01*
X0072522Y0011721D01*
X0072621Y0011711D01*
X0072719Y0011697D01*
X0072816Y0011679D01*
X0072913Y0011657D01*
X0073009Y0011632D01*
X0073103Y0011602D01*
X0073197Y0011569D01*
X0073289Y0011532D01*
X0073379Y0011491D01*
X0073468Y0011447D01*
X0073554Y0011399D01*
X0073639Y0011348D01*
X0073722Y0011293D01*
X0073802Y0011235D01*
X0073880Y0011174D01*
X0073956Y0011110D01*
X0074029Y0011043D01*
X0074099Y0010973D01*
X0074166Y0010900D01*
X0074230Y0010824D01*
X0074291Y0010746D01*
X0074349Y0010666D01*
X0074404Y0010583D01*
X0074455Y0010499D01*
X0074503Y0010412D01*
X0074547Y0010323D01*
X0074588Y0010233D01*
X0074625Y0010141D01*
X0074658Y0010047D01*
X0074688Y0009953D01*
X0074713Y0009857D01*
X0074735Y0009760D01*
X0074753Y0009663D01*
X0074767Y0009565D01*
X0074777Y0009466D01*
X0074783Y0009367D01*
X0074785Y0009268D01*
X0074783Y0009169D01*
X0074777Y0009070D01*
X0074767Y0008971D01*
X0074753Y0008873D01*
X0074735Y0008776D01*
X0074713Y0008679D01*
X0074688Y0008583D01*
X0074658Y0008489D01*
X0074625Y0008395D01*
X0074588Y0008303D01*
X0074547Y0008213D01*
X0074503Y0008124D01*
X0074455Y0008038D01*
X0074404Y0007953D01*
X0074349Y0007870D01*
X0074291Y0007790D01*
X0074230Y0007712D01*
X0074166Y0007636D01*
X0074099Y0007563D01*
X0074029Y0007493D01*
X0073956Y0007426D01*
X0073880Y0007362D01*
X0073802Y0007301D01*
X0073722Y0007243D01*
X0073639Y0007188D01*
X0073555Y0007137D01*
X0073468Y0007089D01*
X0073379Y0007045D01*
X0073289Y0007004D01*
X0073197Y0006967D01*
X0073103Y0006934D01*
X0073009Y0006904D01*
X0072913Y0006879D01*
X0072816Y0006857D01*
X0072719Y0006839D01*
X0072621Y0006825D01*
X0072522Y0006815D01*
X0072423Y0006809D01*
X0072324Y0006807D01*
X0072225Y0006809D01*
X0072126Y0006815D01*
X0072027Y0006825D01*
X0071929Y0006839D01*
X0071832Y0006857D01*
X0071735Y0006879D01*
X0071639Y0006904D01*
X0071545Y0006934D01*
X0071451Y0006967D01*
X0071359Y0007004D01*
X0071269Y0007045D01*
X0071180Y0007089D01*
X0071094Y0007137D01*
X0071009Y0007188D01*
X0070926Y0007243D01*
X0070846Y0007301D01*
X0070768Y0007362D01*
X0070692Y0007426D01*
X0070619Y0007493D01*
X0070549Y0007563D01*
X0070482Y0007636D01*
X0070418Y0007712D01*
X0070357Y0007790D01*
X0070299Y0007870D01*
X0070244Y0007953D01*
X0070193Y0008037D01*
X0070145Y0008124D01*
X0070101Y0008213D01*
X0070060Y0008303D01*
X0070023Y0008395D01*
X0069990Y0008489D01*
X0069960Y0008583D01*
X0069935Y0008679D01*
X0069913Y0008776D01*
X0069895Y0008873D01*
X0069881Y0008971D01*
X0069871Y0009070D01*
X0069865Y0009169D01*
X0069863Y0009268D01*
X0264745Y0022850D02*
X0264747Y0022949D01*
X0264753Y0023048D01*
X0264763Y0023147D01*
X0264777Y0023245D01*
X0264795Y0023342D01*
X0264817Y0023439D01*
X0264842Y0023535D01*
X0264872Y0023629D01*
X0264905Y0023723D01*
X0264942Y0023815D01*
X0264983Y0023905D01*
X0265027Y0023994D01*
X0265075Y0024080D01*
X0265126Y0024165D01*
X0265181Y0024248D01*
X0265239Y0024328D01*
X0265300Y0024406D01*
X0265364Y0024482D01*
X0265431Y0024555D01*
X0265501Y0024625D01*
X0265574Y0024692D01*
X0265650Y0024756D01*
X0265728Y0024817D01*
X0265808Y0024875D01*
X0265891Y0024930D01*
X0265975Y0024981D01*
X0266062Y0025029D01*
X0266151Y0025073D01*
X0266241Y0025114D01*
X0266333Y0025151D01*
X0266427Y0025184D01*
X0266521Y0025214D01*
X0266617Y0025239D01*
X0266714Y0025261D01*
X0266811Y0025279D01*
X0266909Y0025293D01*
X0267008Y0025303D01*
X0267107Y0025309D01*
X0267206Y0025311D01*
X0267305Y0025309D01*
X0267404Y0025303D01*
X0267503Y0025293D01*
X0267601Y0025279D01*
X0267698Y0025261D01*
X0267795Y0025239D01*
X0267891Y0025214D01*
X0267985Y0025184D01*
X0268079Y0025151D01*
X0268171Y0025114D01*
X0268261Y0025073D01*
X0268350Y0025029D01*
X0268436Y0024981D01*
X0268521Y0024930D01*
X0268604Y0024875D01*
X0268684Y0024817D01*
X0268762Y0024756D01*
X0268838Y0024692D01*
X0268911Y0024625D01*
X0268981Y0024555D01*
X0269048Y0024482D01*
X0269112Y0024406D01*
X0269173Y0024328D01*
X0269231Y0024248D01*
X0269286Y0024165D01*
X0269337Y0024081D01*
X0269385Y0023994D01*
X0269429Y0023905D01*
X0269470Y0023815D01*
X0269507Y0023723D01*
X0269540Y0023629D01*
X0269570Y0023535D01*
X0269595Y0023439D01*
X0269617Y0023342D01*
X0269635Y0023245D01*
X0269649Y0023147D01*
X0269659Y0023048D01*
X0269665Y0022949D01*
X0269667Y0022850D01*
X0269665Y0022751D01*
X0269659Y0022652D01*
X0269649Y0022553D01*
X0269635Y0022455D01*
X0269617Y0022358D01*
X0269595Y0022261D01*
X0269570Y0022165D01*
X0269540Y0022071D01*
X0269507Y0021977D01*
X0269470Y0021885D01*
X0269429Y0021795D01*
X0269385Y0021706D01*
X0269337Y0021620D01*
X0269286Y0021535D01*
X0269231Y0021452D01*
X0269173Y0021372D01*
X0269112Y0021294D01*
X0269048Y0021218D01*
X0268981Y0021145D01*
X0268911Y0021075D01*
X0268838Y0021008D01*
X0268762Y0020944D01*
X0268684Y0020883D01*
X0268604Y0020825D01*
X0268521Y0020770D01*
X0268437Y0020719D01*
X0268350Y0020671D01*
X0268261Y0020627D01*
X0268171Y0020586D01*
X0268079Y0020549D01*
X0267985Y0020516D01*
X0267891Y0020486D01*
X0267795Y0020461D01*
X0267698Y0020439D01*
X0267601Y0020421D01*
X0267503Y0020407D01*
X0267404Y0020397D01*
X0267305Y0020391D01*
X0267206Y0020389D01*
X0267107Y0020391D01*
X0267008Y0020397D01*
X0266909Y0020407D01*
X0266811Y0020421D01*
X0266714Y0020439D01*
X0266617Y0020461D01*
X0266521Y0020486D01*
X0266427Y0020516D01*
X0266333Y0020549D01*
X0266241Y0020586D01*
X0266151Y0020627D01*
X0266062Y0020671D01*
X0265976Y0020719D01*
X0265891Y0020770D01*
X0265808Y0020825D01*
X0265728Y0020883D01*
X0265650Y0020944D01*
X0265574Y0021008D01*
X0265501Y0021075D01*
X0265431Y0021145D01*
X0265364Y0021218D01*
X0265300Y0021294D01*
X0265239Y0021372D01*
X0265181Y0021452D01*
X0265126Y0021535D01*
X0265075Y0021619D01*
X0265027Y0021706D01*
X0264983Y0021795D01*
X0264942Y0021885D01*
X0264905Y0021977D01*
X0264872Y0022071D01*
X0264842Y0022165D01*
X0264817Y0022261D01*
X0264795Y0022358D01*
X0264777Y0022455D01*
X0264763Y0022553D01*
X0264753Y0022652D01*
X0264747Y0022751D01*
X0264745Y0022850D01*
X0270650Y0056512D02*
X0270652Y0056611D01*
X0270658Y0056710D01*
X0270668Y0056809D01*
X0270682Y0056907D01*
X0270700Y0057004D01*
X0270722Y0057101D01*
X0270747Y0057197D01*
X0270777Y0057291D01*
X0270810Y0057385D01*
X0270847Y0057477D01*
X0270888Y0057567D01*
X0270932Y0057656D01*
X0270980Y0057742D01*
X0271031Y0057827D01*
X0271086Y0057910D01*
X0271144Y0057990D01*
X0271205Y0058068D01*
X0271269Y0058144D01*
X0271336Y0058217D01*
X0271406Y0058287D01*
X0271479Y0058354D01*
X0271555Y0058418D01*
X0271633Y0058479D01*
X0271713Y0058537D01*
X0271796Y0058592D01*
X0271880Y0058643D01*
X0271967Y0058691D01*
X0272056Y0058735D01*
X0272146Y0058776D01*
X0272238Y0058813D01*
X0272332Y0058846D01*
X0272426Y0058876D01*
X0272522Y0058901D01*
X0272619Y0058923D01*
X0272716Y0058941D01*
X0272814Y0058955D01*
X0272913Y0058965D01*
X0273012Y0058971D01*
X0273111Y0058973D01*
X0273210Y0058971D01*
X0273309Y0058965D01*
X0273408Y0058955D01*
X0273506Y0058941D01*
X0273603Y0058923D01*
X0273700Y0058901D01*
X0273796Y0058876D01*
X0273890Y0058846D01*
X0273984Y0058813D01*
X0274076Y0058776D01*
X0274166Y0058735D01*
X0274255Y0058691D01*
X0274341Y0058643D01*
X0274426Y0058592D01*
X0274509Y0058537D01*
X0274589Y0058479D01*
X0274667Y0058418D01*
X0274743Y0058354D01*
X0274816Y0058287D01*
X0274886Y0058217D01*
X0274953Y0058144D01*
X0275017Y0058068D01*
X0275078Y0057990D01*
X0275136Y0057910D01*
X0275191Y0057827D01*
X0275242Y0057743D01*
X0275290Y0057656D01*
X0275334Y0057567D01*
X0275375Y0057477D01*
X0275412Y0057385D01*
X0275445Y0057291D01*
X0275475Y0057197D01*
X0275500Y0057101D01*
X0275522Y0057004D01*
X0275540Y0056907D01*
X0275554Y0056809D01*
X0275564Y0056710D01*
X0275570Y0056611D01*
X0275572Y0056512D01*
X0275570Y0056413D01*
X0275564Y0056314D01*
X0275554Y0056215D01*
X0275540Y0056117D01*
X0275522Y0056020D01*
X0275500Y0055923D01*
X0275475Y0055827D01*
X0275445Y0055733D01*
X0275412Y0055639D01*
X0275375Y0055547D01*
X0275334Y0055457D01*
X0275290Y0055368D01*
X0275242Y0055282D01*
X0275191Y0055197D01*
X0275136Y0055114D01*
X0275078Y0055034D01*
X0275017Y0054956D01*
X0274953Y0054880D01*
X0274886Y0054807D01*
X0274816Y0054737D01*
X0274743Y0054670D01*
X0274667Y0054606D01*
X0274589Y0054545D01*
X0274509Y0054487D01*
X0274426Y0054432D01*
X0274342Y0054381D01*
X0274255Y0054333D01*
X0274166Y0054289D01*
X0274076Y0054248D01*
X0273984Y0054211D01*
X0273890Y0054178D01*
X0273796Y0054148D01*
X0273700Y0054123D01*
X0273603Y0054101D01*
X0273506Y0054083D01*
X0273408Y0054069D01*
X0273309Y0054059D01*
X0273210Y0054053D01*
X0273111Y0054051D01*
X0273012Y0054053D01*
X0272913Y0054059D01*
X0272814Y0054069D01*
X0272716Y0054083D01*
X0272619Y0054101D01*
X0272522Y0054123D01*
X0272426Y0054148D01*
X0272332Y0054178D01*
X0272238Y0054211D01*
X0272146Y0054248D01*
X0272056Y0054289D01*
X0271967Y0054333D01*
X0271881Y0054381D01*
X0271796Y0054432D01*
X0271713Y0054487D01*
X0271633Y0054545D01*
X0271555Y0054606D01*
X0271479Y0054670D01*
X0271406Y0054737D01*
X0271336Y0054807D01*
X0271269Y0054880D01*
X0271205Y0054956D01*
X0271144Y0055034D01*
X0271086Y0055114D01*
X0271031Y0055197D01*
X0270980Y0055281D01*
X0270932Y0055368D01*
X0270888Y0055457D01*
X0270847Y0055547D01*
X0270810Y0055639D01*
X0270777Y0055733D01*
X0270747Y0055827D01*
X0270722Y0055923D01*
X0270700Y0056020D01*
X0270682Y0056117D01*
X0270668Y0056215D01*
X0270658Y0056314D01*
X0270652Y0056413D01*
X0270650Y0056512D01*
D33*
X0261300Y0056512D03*
X0115631Y0056512D03*
X0115631Y0009268D03*
X0261300Y0009268D03*
D34*
X0038662Y0005331D03*
X0058347Y0009268D03*
X0063662Y0009268D03*
X0060513Y0005331D03*
X0080394Y0005331D03*
X0096143Y0005331D03*
X0103820Y0005331D03*
X0100080Y0009858D03*
X0081772Y0014780D03*
X0080394Y0017142D03*
X0083347Y0017142D03*
X0066812Y0014583D03*
X0055001Y0014583D03*
X0025080Y0017142D03*
X0017206Y0017142D03*
X0060513Y0032890D03*
X0080198Y0027378D03*
X0082954Y0027378D03*
X0090040Y0028756D03*
X0093977Y0028756D03*
X0095552Y0032299D03*
X0086497Y0036433D03*
X0087678Y0038598D03*
X0085316Y0038598D03*
X0111694Y0043323D03*
X0113662Y0039976D03*
X0124883Y0036433D03*
X0127245Y0036433D03*
X0135513Y0039976D03*
X0126457Y0040173D03*
X0129607Y0043520D03*
X0152442Y0042339D03*
X0160513Y0039189D03*
X0162678Y0039189D03*
X0164843Y0039189D03*
X0180788Y0042732D03*
X0188662Y0045882D03*
X0196339Y0046866D03*
X0206969Y0051000D03*
X0214056Y0047850D03*
X0214056Y0045685D03*
X0214056Y0043520D03*
X0213269Y0038598D03*
X0215434Y0038598D03*
X0217796Y0038598D03*
X0196733Y0038402D03*
X0193583Y0032299D03*
X0203623Y0030528D03*
X0210513Y0031315D03*
X0213859Y0028362D03*
X0218583Y0028362D03*
X0230198Y0031512D03*
X0245552Y0028953D03*
X0252048Y0028953D03*
X0264843Y0028165D03*
X0273308Y0022457D03*
X0251457Y0021079D03*
X0249292Y0019701D03*
X0251261Y0018323D03*
X0244961Y0017142D03*
X0245355Y0014583D03*
X0224489Y0014189D03*
X0227639Y0021866D03*
X0249292Y0022457D03*
X0279213Y0013008D03*
X0270749Y0005724D03*
X0249489Y0005528D03*
X0237875Y0005331D03*
X0225670Y0005331D03*
X0174686Y0005331D03*
X0161300Y0005331D03*
X0151064Y0005528D03*
X0139056Y0005331D03*
X0127442Y0005528D03*
X0121930Y0021276D03*
X0117796Y0021276D03*
X0129213Y0021472D03*
X0134331Y0023835D03*
X0136891Y0023835D03*
X0152048Y0025606D03*
X0157757Y0027378D03*
X0160513Y0027378D03*
X0163269Y0027378D03*
X0168780Y0026197D03*
X0184135Y0026787D03*
X0195355Y0026984D03*
X0147324Y0029150D03*
X0147324Y0031512D03*
X0113662Y0030528D03*
X0113662Y0028362D03*
X0108347Y0026197D03*
X0105591Y0022654D03*
X0095158Y0021866D03*
X0113662Y0032890D03*
X0158150Y0046866D03*
X0161891Y0049819D03*
X0166615Y0049819D03*
X0170355Y0046669D03*
X0204017Y0054346D03*
X0198308Y0060449D03*
X0221930Y0060449D03*
X0226064Y0057299D03*
X0230394Y0054346D03*
X0230394Y0051394D03*
X0241024Y0051197D03*
X0243780Y0051197D03*
X0243977Y0047654D03*
X0261300Y0044701D03*
X0266221Y0047457D03*
X0277245Y0052378D03*
X0283544Y0051787D03*
X0251851Y0060449D03*
X0245552Y0060449D03*
X0275867Y0042339D03*
X0286300Y0042732D03*
X0264646Y0039189D03*
X0253623Y0039189D03*
X0244371Y0039189D03*
X0266418Y0034661D03*
X0276064Y0034071D03*
X0162875Y0060449D03*
X0133347Y0060449D03*
X0103623Y0060646D03*
X0080001Y0060449D03*
X0062481Y0056315D03*
X0058741Y0056315D03*
X0060513Y0060449D03*
X0038465Y0060449D03*
X0055001Y0051000D03*
X0066615Y0050606D03*
X0080788Y0049228D03*
X0085513Y0048638D03*
X0087875Y0048638D03*
X0086694Y0050409D03*
X0025276Y0048638D03*
X0017402Y0048638D03*
D35*
X0101654Y0016354D03*
X0146733Y0022260D03*
M02*
