G75*
%MOIN*%
%OFA0B0*%
%FSLAX25Y25*%
%IPPOS*%
%LPD*%
%AMOC8*
5,1,8,0,0,1.08239X$1,22.5*
%
%ADD10R,0.04803X0.01575*%
%ADD11C,0.01382*%
%ADD12C,0.00402*%
%ADD13C,0.01585*%
%ADD14OC8,0.06000*%
%ADD15R,0.03000X0.05681*%
%ADD16R,0.07087X0.07087*%
%ADD17R,0.04134X0.02362*%
%ADD18R,0.04724X0.01575*%
%ADD19C,0.01181*%
%ADD20R,0.01969X0.00984*%
%ADD21R,0.01575X0.00984*%
%ADD22R,0.02559X0.01732*%
%ADD23C,0.03543*%
%ADD24C,0.03937*%
%ADD25C,0.01784*%
%ADD26C,0.01575*%
%ADD27R,0.04331X0.03150*%
%ADD28C,0.00787*%
%ADD29C,0.01800*%
%ADD30C,0.00591*%
%ADD31C,0.01378*%
%ADD32C,0.06496*%
%ADD33C,0.00984*%
%ADD34C,0.01969*%
%ADD35C,0.02362*%
D10*
X0225828Y0029051D03*
X0225828Y0031610D03*
X0225828Y0034169D03*
X0225828Y0036728D03*
X0236143Y0036728D03*
X0236143Y0034169D03*
X0236143Y0031610D03*
X0236143Y0029051D03*
D11*
X0063266Y0024620D02*
X0063266Y0020688D01*
X0058546Y0020688D01*
X0058546Y0024620D01*
X0063266Y0024620D01*
X0063266Y0022069D02*
X0058546Y0022069D01*
X0058546Y0023450D02*
X0063266Y0023450D01*
X0063266Y0016746D02*
X0063266Y0012814D01*
X0058546Y0012814D01*
X0058546Y0016746D01*
X0063266Y0016746D01*
X0063266Y0014195D02*
X0058546Y0014195D01*
X0058546Y0015576D02*
X0063266Y0015576D01*
X0058546Y0040963D02*
X0058546Y0044895D01*
X0063266Y0044895D01*
X0063266Y0040963D01*
X0058546Y0040963D01*
X0058546Y0042344D02*
X0063266Y0042344D01*
X0063266Y0043725D02*
X0058546Y0043725D01*
X0058546Y0048837D02*
X0058546Y0052769D01*
X0063266Y0052769D01*
X0063266Y0048837D01*
X0058546Y0048837D01*
X0058546Y0050218D02*
X0063266Y0050218D01*
X0063266Y0051599D02*
X0058546Y0051599D01*
D12*
X0097722Y0042728D02*
X0099682Y0042728D01*
X0099682Y0040374D01*
X0097722Y0040374D01*
X0097722Y0042728D01*
X0097722Y0040775D02*
X0099682Y0040775D01*
X0099682Y0041176D02*
X0097722Y0041176D01*
X0097722Y0041577D02*
X0099682Y0041577D01*
X0099682Y0041978D02*
X0097722Y0041978D01*
X0097722Y0042379D02*
X0099682Y0042379D01*
X0101659Y0042728D02*
X0103619Y0042728D01*
X0103619Y0040374D01*
X0101659Y0040374D01*
X0101659Y0042728D01*
X0101659Y0040775D02*
X0103619Y0040775D01*
X0103619Y0041176D02*
X0101659Y0041176D01*
X0101659Y0041577D02*
X0103619Y0041577D01*
X0103619Y0041978D02*
X0101659Y0041978D01*
X0101659Y0042379D02*
X0103619Y0042379D01*
X0113863Y0042343D02*
X0115823Y0042343D01*
X0113863Y0042343D02*
X0113863Y0044697D01*
X0115823Y0044697D01*
X0115823Y0042343D01*
X0115823Y0042744D02*
X0113863Y0042744D01*
X0113863Y0043145D02*
X0115823Y0043145D01*
X0115823Y0043546D02*
X0113863Y0043546D01*
X0113863Y0043947D02*
X0115823Y0043947D01*
X0115823Y0044348D02*
X0113863Y0044348D01*
X0117800Y0042343D02*
X0119760Y0042343D01*
X0117800Y0042343D02*
X0117800Y0044697D01*
X0119760Y0044697D01*
X0119760Y0042343D01*
X0119760Y0042744D02*
X0117800Y0042744D01*
X0117800Y0043145D02*
X0119760Y0043145D01*
X0119760Y0043546D02*
X0117800Y0043546D01*
X0117800Y0043947D02*
X0119760Y0043947D01*
X0119760Y0044348D02*
X0117800Y0044348D01*
X0121344Y0044697D02*
X0123304Y0044697D01*
X0123304Y0042343D01*
X0121344Y0042343D01*
X0121344Y0044697D01*
X0121344Y0042744D02*
X0123304Y0042744D01*
X0123304Y0043145D02*
X0121344Y0043145D01*
X0121344Y0043546D02*
X0123304Y0043546D01*
X0123304Y0043947D02*
X0121344Y0043947D01*
X0121344Y0044348D02*
X0123304Y0044348D01*
X0125281Y0044697D02*
X0127241Y0044697D01*
X0127241Y0042343D01*
X0125281Y0042343D01*
X0125281Y0044697D01*
X0125281Y0042744D02*
X0127241Y0042744D01*
X0127241Y0043145D02*
X0125281Y0043145D01*
X0125281Y0043546D02*
X0127241Y0043546D01*
X0127241Y0043947D02*
X0125281Y0043947D01*
X0125281Y0044348D02*
X0127241Y0044348D01*
X0139257Y0039775D02*
X0139257Y0037815D01*
X0139257Y0039775D02*
X0141611Y0039775D01*
X0141611Y0037815D01*
X0139257Y0037815D01*
X0139257Y0038216D02*
X0141611Y0038216D01*
X0141611Y0038617D02*
X0139257Y0038617D01*
X0139257Y0039018D02*
X0141611Y0039018D01*
X0141611Y0039419D02*
X0139257Y0039419D01*
X0146335Y0039775D02*
X0146335Y0037815D01*
X0143981Y0037815D01*
X0143981Y0039775D01*
X0146335Y0039775D01*
X0146335Y0038216D02*
X0143981Y0038216D01*
X0143981Y0038617D02*
X0146335Y0038617D01*
X0146335Y0039018D02*
X0143981Y0039018D01*
X0143981Y0039419D02*
X0146335Y0039419D01*
X0146335Y0035838D02*
X0146335Y0033878D01*
X0143981Y0033878D01*
X0143981Y0035838D01*
X0146335Y0035838D01*
X0146335Y0034279D02*
X0143981Y0034279D01*
X0143981Y0034680D02*
X0146335Y0034680D01*
X0146335Y0035081D02*
X0143981Y0035081D01*
X0143981Y0035482D02*
X0146335Y0035482D01*
X0139257Y0035838D02*
X0139257Y0033878D01*
X0139257Y0035838D02*
X0141611Y0035838D01*
X0141611Y0033878D01*
X0139257Y0033878D01*
X0139257Y0034279D02*
X0141611Y0034279D01*
X0141611Y0034680D02*
X0139257Y0034680D01*
X0139257Y0035081D02*
X0141611Y0035081D01*
X0141611Y0035482D02*
X0139257Y0035482D01*
X0136689Y0036035D02*
X0134729Y0036035D01*
X0136689Y0036035D02*
X0136689Y0033681D01*
X0134729Y0033681D01*
X0134729Y0036035D01*
X0134729Y0034082D02*
X0136689Y0034082D01*
X0136689Y0034483D02*
X0134729Y0034483D01*
X0134729Y0034884D02*
X0136689Y0034884D01*
X0136689Y0035285D02*
X0134729Y0035285D01*
X0134729Y0035686D02*
X0136689Y0035686D01*
X0132752Y0036035D02*
X0130792Y0036035D01*
X0132752Y0036035D02*
X0132752Y0033681D01*
X0130792Y0033681D01*
X0130792Y0036035D01*
X0130792Y0034082D02*
X0132752Y0034082D01*
X0132752Y0034483D02*
X0130792Y0034483D01*
X0130792Y0034884D02*
X0132752Y0034884D01*
X0132752Y0035285D02*
X0130792Y0035285D01*
X0130792Y0035686D02*
X0132752Y0035686D01*
X0127044Y0034263D02*
X0127044Y0032303D01*
X0124690Y0032303D01*
X0124690Y0034263D01*
X0127044Y0034263D01*
X0127044Y0032704D02*
X0124690Y0032704D01*
X0124690Y0033105D02*
X0127044Y0033105D01*
X0127044Y0033506D02*
X0124690Y0033506D01*
X0124690Y0033907D02*
X0127044Y0033907D01*
X0136886Y0031901D02*
X0136886Y0029941D01*
X0134532Y0029941D01*
X0134532Y0031901D01*
X0136886Y0031901D01*
X0136886Y0030342D02*
X0134532Y0030342D01*
X0134532Y0030743D02*
X0136886Y0030743D01*
X0136886Y0031144D02*
X0134532Y0031144D01*
X0134532Y0031545D02*
X0136886Y0031545D01*
X0141611Y0031901D02*
X0141611Y0029941D01*
X0139257Y0029941D01*
X0139257Y0031901D01*
X0141611Y0031901D01*
X0141611Y0030342D02*
X0139257Y0030342D01*
X0139257Y0030743D02*
X0141611Y0030743D01*
X0141611Y0031144D02*
X0139257Y0031144D01*
X0139257Y0031545D02*
X0141611Y0031545D01*
X0141611Y0027964D02*
X0141611Y0026004D01*
X0139257Y0026004D01*
X0139257Y0027964D01*
X0141611Y0027964D01*
X0141611Y0026405D02*
X0139257Y0026405D01*
X0139257Y0026806D02*
X0141611Y0026806D01*
X0141611Y0027207D02*
X0139257Y0027207D01*
X0139257Y0027608D02*
X0141611Y0027608D01*
X0136886Y0027964D02*
X0136886Y0026004D01*
X0134532Y0026004D01*
X0134532Y0027964D01*
X0136886Y0027964D01*
X0136886Y0026405D02*
X0134532Y0026405D01*
X0134532Y0026806D02*
X0136886Y0026806D01*
X0136886Y0027207D02*
X0134532Y0027207D01*
X0134532Y0027608D02*
X0136886Y0027608D01*
X0127044Y0028366D02*
X0127044Y0030326D01*
X0127044Y0028366D02*
X0124690Y0028366D01*
X0124690Y0030326D01*
X0127044Y0030326D01*
X0127044Y0028767D02*
X0124690Y0028767D01*
X0124690Y0029168D02*
X0127044Y0029168D01*
X0127044Y0029569D02*
X0124690Y0029569D01*
X0124690Y0029970D02*
X0127044Y0029970D01*
X0127044Y0026389D02*
X0127044Y0024429D01*
X0124690Y0024429D01*
X0124690Y0026389D01*
X0127044Y0026389D01*
X0127044Y0024830D02*
X0124690Y0024830D01*
X0124690Y0025231D02*
X0127044Y0025231D01*
X0127044Y0025632D02*
X0124690Y0025632D01*
X0124690Y0026033D02*
X0127044Y0026033D01*
X0127044Y0022452D02*
X0127044Y0020492D01*
X0124690Y0020492D01*
X0124690Y0022452D01*
X0127044Y0022452D01*
X0127044Y0020893D02*
X0124690Y0020893D01*
X0124690Y0021294D02*
X0127044Y0021294D01*
X0127044Y0021695D02*
X0124690Y0021695D01*
X0124690Y0022096D02*
X0127044Y0022096D01*
X0103619Y0023831D02*
X0101659Y0023831D01*
X0103619Y0023831D02*
X0103619Y0021477D01*
X0101659Y0021477D01*
X0101659Y0023831D01*
X0101659Y0021878D02*
X0103619Y0021878D01*
X0103619Y0022279D02*
X0101659Y0022279D01*
X0101659Y0022680D02*
X0103619Y0022680D01*
X0103619Y0023081D02*
X0101659Y0023081D01*
X0101659Y0023482D02*
X0103619Y0023482D01*
X0099682Y0023831D02*
X0097722Y0023831D01*
X0099682Y0023831D02*
X0099682Y0021477D01*
X0097722Y0021477D01*
X0097722Y0023831D01*
X0097722Y0021878D02*
X0099682Y0021878D01*
X0099682Y0022279D02*
X0097722Y0022279D01*
X0097722Y0022680D02*
X0099682Y0022680D01*
X0099682Y0023081D02*
X0097722Y0023081D01*
X0097722Y0023482D02*
X0099682Y0023482D01*
X0099682Y0028555D02*
X0097722Y0028555D01*
X0099682Y0028555D02*
X0099682Y0026201D01*
X0097722Y0026201D01*
X0097722Y0028555D01*
X0097722Y0026602D02*
X0099682Y0026602D01*
X0099682Y0027003D02*
X0097722Y0027003D01*
X0097722Y0027404D02*
X0099682Y0027404D01*
X0099682Y0027805D02*
X0097722Y0027805D01*
X0097722Y0028206D02*
X0099682Y0028206D01*
X0101659Y0028555D02*
X0103619Y0028555D01*
X0103619Y0026201D01*
X0101659Y0026201D01*
X0101659Y0028555D01*
X0101659Y0026602D02*
X0103619Y0026602D01*
X0103619Y0027003D02*
X0101659Y0027003D01*
X0101659Y0027404D02*
X0103619Y0027404D01*
X0103619Y0027805D02*
X0101659Y0027805D01*
X0101659Y0028206D02*
X0103619Y0028206D01*
X0103619Y0033279D02*
X0101659Y0033279D01*
X0103619Y0033279D02*
X0103619Y0030925D01*
X0101659Y0030925D01*
X0101659Y0033279D01*
X0101659Y0031326D02*
X0103619Y0031326D01*
X0103619Y0031727D02*
X0101659Y0031727D01*
X0101659Y0032128D02*
X0103619Y0032128D01*
X0103619Y0032529D02*
X0101659Y0032529D01*
X0101659Y0032930D02*
X0103619Y0032930D01*
X0099682Y0033279D02*
X0097722Y0033279D01*
X0099682Y0033279D02*
X0099682Y0030925D01*
X0097722Y0030925D01*
X0097722Y0033279D01*
X0097722Y0031326D02*
X0099682Y0031326D01*
X0099682Y0031727D02*
X0097722Y0031727D01*
X0097722Y0032128D02*
X0099682Y0032128D01*
X0099682Y0032529D02*
X0097722Y0032529D01*
X0097722Y0032930D02*
X0099682Y0032930D01*
X0099682Y0038004D02*
X0097722Y0038004D01*
X0099682Y0038004D02*
X0099682Y0035650D01*
X0097722Y0035650D01*
X0097722Y0038004D01*
X0097722Y0036051D02*
X0099682Y0036051D01*
X0099682Y0036452D02*
X0097722Y0036452D01*
X0097722Y0036853D02*
X0099682Y0036853D01*
X0099682Y0037254D02*
X0097722Y0037254D01*
X0097722Y0037655D02*
X0099682Y0037655D01*
X0101659Y0038004D02*
X0103619Y0038004D01*
X0103619Y0035650D01*
X0101659Y0035650D01*
X0101659Y0038004D01*
X0101659Y0036051D02*
X0103619Y0036051D01*
X0103619Y0036452D02*
X0101659Y0036452D01*
X0101659Y0036853D02*
X0103619Y0036853D01*
X0103619Y0037254D02*
X0101659Y0037254D01*
X0101659Y0037655D02*
X0103619Y0037655D01*
X0068784Y0035838D02*
X0068784Y0033878D01*
X0068784Y0035838D02*
X0071138Y0035838D01*
X0071138Y0033878D01*
X0068784Y0033878D01*
X0068784Y0034279D02*
X0071138Y0034279D01*
X0071138Y0034680D02*
X0068784Y0034680D01*
X0068784Y0035081D02*
X0071138Y0035081D01*
X0071138Y0035482D02*
X0068784Y0035482D01*
X0064060Y0035838D02*
X0064060Y0033878D01*
X0064060Y0035838D02*
X0066414Y0035838D01*
X0066414Y0033878D01*
X0064060Y0033878D01*
X0064060Y0034279D02*
X0066414Y0034279D01*
X0066414Y0034680D02*
X0064060Y0034680D01*
X0064060Y0035081D02*
X0066414Y0035081D01*
X0066414Y0035482D02*
X0064060Y0035482D01*
X0064060Y0031901D02*
X0064060Y0029941D01*
X0064060Y0031901D02*
X0066414Y0031901D01*
X0066414Y0029941D01*
X0064060Y0029941D01*
X0064060Y0030342D02*
X0066414Y0030342D01*
X0066414Y0030743D02*
X0064060Y0030743D01*
X0064060Y0031144D02*
X0066414Y0031144D01*
X0066414Y0031545D02*
X0064060Y0031545D01*
X0068784Y0031901D02*
X0068784Y0029941D01*
X0068784Y0031901D02*
X0071138Y0031901D01*
X0071138Y0029941D01*
X0068784Y0029941D01*
X0068784Y0030342D02*
X0071138Y0030342D01*
X0071138Y0030743D02*
X0068784Y0030743D01*
X0068784Y0031144D02*
X0071138Y0031144D01*
X0071138Y0031545D02*
X0068784Y0031545D01*
X0091422Y0013406D02*
X0093382Y0013406D01*
X0091422Y0013406D02*
X0091422Y0015760D01*
X0093382Y0015760D01*
X0093382Y0013406D01*
X0093382Y0013807D02*
X0091422Y0013807D01*
X0091422Y0014208D02*
X0093382Y0014208D01*
X0093382Y0014609D02*
X0091422Y0014609D01*
X0091422Y0015010D02*
X0093382Y0015010D01*
X0093382Y0015411D02*
X0091422Y0015411D01*
X0095359Y0013406D02*
X0097319Y0013406D01*
X0095359Y0013406D02*
X0095359Y0015760D01*
X0097319Y0015760D01*
X0097319Y0013406D01*
X0097319Y0013807D02*
X0095359Y0013807D01*
X0095359Y0014208D02*
X0097319Y0014208D01*
X0097319Y0014609D02*
X0095359Y0014609D01*
X0095359Y0015010D02*
X0097319Y0015010D01*
X0097319Y0015411D02*
X0095359Y0015411D01*
X0095359Y0008681D02*
X0097319Y0008681D01*
X0095359Y0008681D02*
X0095359Y0011035D01*
X0097319Y0011035D01*
X0097319Y0008681D01*
X0097319Y0009082D02*
X0095359Y0009082D01*
X0095359Y0009483D02*
X0097319Y0009483D01*
X0097319Y0009884D02*
X0095359Y0009884D01*
X0095359Y0010285D02*
X0097319Y0010285D01*
X0097319Y0010686D02*
X0095359Y0010686D01*
X0093382Y0008681D02*
X0091422Y0008681D01*
X0091422Y0011035D01*
X0093382Y0011035D01*
X0093382Y0008681D01*
X0093382Y0009082D02*
X0091422Y0009082D01*
X0091422Y0009483D02*
X0093382Y0009483D01*
X0093382Y0009884D02*
X0091422Y0009884D01*
X0091422Y0010285D02*
X0093382Y0010285D01*
X0093382Y0010686D02*
X0091422Y0010686D01*
X0154611Y0021083D02*
X0156571Y0021083D01*
X0154611Y0021083D02*
X0154611Y0023437D01*
X0156571Y0023437D01*
X0156571Y0021083D01*
X0156571Y0021484D02*
X0154611Y0021484D01*
X0154611Y0021885D02*
X0156571Y0021885D01*
X0156571Y0022286D02*
X0154611Y0022286D01*
X0154611Y0022687D02*
X0156571Y0022687D01*
X0156571Y0023088D02*
X0154611Y0023088D01*
X0158548Y0021083D02*
X0160508Y0021083D01*
X0158548Y0021083D02*
X0158548Y0023437D01*
X0160508Y0023437D01*
X0160508Y0021083D01*
X0160508Y0021484D02*
X0158548Y0021484D01*
X0158548Y0021885D02*
X0160508Y0021885D01*
X0160508Y0022286D02*
X0158548Y0022286D01*
X0158548Y0022687D02*
X0160508Y0022687D01*
X0160508Y0023088D02*
X0158548Y0023088D01*
X0176650Y0029941D02*
X0176650Y0031901D01*
X0176650Y0029941D02*
X0174296Y0029941D01*
X0174296Y0031901D01*
X0176650Y0031901D01*
X0176650Y0030342D02*
X0174296Y0030342D01*
X0174296Y0030743D02*
X0176650Y0030743D01*
X0176650Y0031144D02*
X0174296Y0031144D01*
X0174296Y0031545D02*
X0176650Y0031545D01*
X0185115Y0031901D02*
X0185115Y0029941D01*
X0182761Y0029941D01*
X0182761Y0031901D01*
X0185115Y0031901D01*
X0185115Y0030342D02*
X0182761Y0030342D01*
X0182761Y0030743D02*
X0185115Y0030743D01*
X0185115Y0031144D02*
X0182761Y0031144D01*
X0182761Y0031545D02*
X0185115Y0031545D01*
X0185115Y0033878D02*
X0185115Y0035838D01*
X0185115Y0033878D02*
X0182761Y0033878D01*
X0182761Y0035838D01*
X0185115Y0035838D01*
X0185115Y0034279D02*
X0182761Y0034279D01*
X0182761Y0034680D02*
X0185115Y0034680D01*
X0185115Y0035081D02*
X0182761Y0035081D01*
X0182761Y0035482D02*
X0185115Y0035482D01*
X0176650Y0035838D02*
X0176650Y0033878D01*
X0174296Y0033878D01*
X0174296Y0035838D01*
X0176650Y0035838D01*
X0176650Y0034279D02*
X0174296Y0034279D01*
X0174296Y0034680D02*
X0176650Y0034680D01*
X0176650Y0035081D02*
X0174296Y0035081D01*
X0174296Y0035482D02*
X0176650Y0035482D01*
X0185115Y0037815D02*
X0185115Y0039775D01*
X0185115Y0037815D02*
X0182761Y0037815D01*
X0182761Y0039775D01*
X0185115Y0039775D01*
X0185115Y0038216D02*
X0182761Y0038216D01*
X0182761Y0038617D02*
X0185115Y0038617D01*
X0185115Y0039018D02*
X0182761Y0039018D01*
X0182761Y0039419D02*
X0185115Y0039419D01*
X0187485Y0039775D02*
X0187485Y0037815D01*
X0187485Y0039775D02*
X0189839Y0039775D01*
X0189839Y0037815D01*
X0187485Y0037815D01*
X0187485Y0038216D02*
X0189839Y0038216D01*
X0189839Y0038617D02*
X0187485Y0038617D01*
X0187485Y0039018D02*
X0189839Y0039018D01*
X0189839Y0039419D02*
X0187485Y0039419D01*
X0180390Y0038406D02*
X0178430Y0038406D01*
X0178430Y0040760D01*
X0180390Y0040760D01*
X0180390Y0038406D01*
X0180390Y0038807D02*
X0178430Y0038807D01*
X0178430Y0039208D02*
X0180390Y0039208D01*
X0180390Y0039609D02*
X0178430Y0039609D01*
X0178430Y0040010D02*
X0180390Y0040010D01*
X0180390Y0040411D02*
X0178430Y0040411D01*
X0176453Y0038406D02*
X0174493Y0038406D01*
X0174493Y0040760D01*
X0176453Y0040760D01*
X0176453Y0038406D01*
X0176453Y0038807D02*
X0174493Y0038807D01*
X0174493Y0039208D02*
X0176453Y0039208D01*
X0176453Y0039609D02*
X0174493Y0039609D01*
X0174493Y0040010D02*
X0176453Y0040010D01*
X0176453Y0040411D02*
X0174493Y0040411D01*
X0167792Y0041752D02*
X0167792Y0043712D01*
X0167792Y0041752D02*
X0165438Y0041752D01*
X0165438Y0043712D01*
X0167792Y0043712D01*
X0167792Y0042153D02*
X0165438Y0042153D01*
X0165438Y0042554D02*
X0167792Y0042554D01*
X0167792Y0042955D02*
X0165438Y0042955D01*
X0165438Y0043356D02*
X0167792Y0043356D01*
X0163068Y0043712D02*
X0163068Y0041752D01*
X0160714Y0041752D01*
X0160714Y0043712D01*
X0163068Y0043712D01*
X0163068Y0042153D02*
X0160714Y0042153D01*
X0160714Y0042554D02*
X0163068Y0042554D01*
X0163068Y0042955D02*
X0160714Y0042955D01*
X0160714Y0043356D02*
X0163068Y0043356D01*
X0163068Y0045689D02*
X0163068Y0047649D01*
X0163068Y0045689D02*
X0160714Y0045689D01*
X0160714Y0047649D01*
X0163068Y0047649D01*
X0163068Y0046090D02*
X0160714Y0046090D01*
X0160714Y0046491D02*
X0163068Y0046491D01*
X0163068Y0046892D02*
X0160714Y0046892D01*
X0160714Y0047293D02*
X0163068Y0047293D01*
X0167792Y0047649D02*
X0167792Y0045689D01*
X0165438Y0045689D01*
X0165438Y0047649D01*
X0167792Y0047649D01*
X0167792Y0046090D02*
X0165438Y0046090D01*
X0165438Y0046491D02*
X0167792Y0046491D01*
X0167792Y0046892D02*
X0165438Y0046892D01*
X0165438Y0047293D02*
X0167792Y0047293D01*
X0174296Y0046870D02*
X0174296Y0048830D01*
X0176650Y0048830D01*
X0176650Y0046870D01*
X0174296Y0046870D01*
X0174296Y0047271D02*
X0176650Y0047271D01*
X0176650Y0047672D02*
X0174296Y0047672D01*
X0174296Y0048073D02*
X0176650Y0048073D01*
X0176650Y0048474D02*
X0174296Y0048474D01*
X0179021Y0049027D02*
X0180981Y0049027D01*
X0180981Y0046673D01*
X0179021Y0046673D01*
X0179021Y0049027D01*
X0179021Y0047074D02*
X0180981Y0047074D01*
X0180981Y0047475D02*
X0179021Y0047475D01*
X0179021Y0047876D02*
X0180981Y0047876D01*
X0180981Y0048277D02*
X0179021Y0048277D01*
X0179021Y0048678D02*
X0180981Y0048678D01*
X0182958Y0049027D02*
X0184918Y0049027D01*
X0184918Y0046673D01*
X0182958Y0046673D01*
X0182958Y0049027D01*
X0182958Y0047074D02*
X0184918Y0047074D01*
X0184918Y0047475D02*
X0182958Y0047475D01*
X0182958Y0047876D02*
X0184918Y0047876D01*
X0184918Y0048277D02*
X0182958Y0048277D01*
X0182958Y0048678D02*
X0184918Y0048678D01*
X0174296Y0044893D02*
X0174296Y0042933D01*
X0174296Y0044893D02*
X0176650Y0044893D01*
X0176650Y0042933D01*
X0174296Y0042933D01*
X0174296Y0043334D02*
X0176650Y0043334D01*
X0176650Y0043735D02*
X0174296Y0043735D01*
X0174296Y0044136D02*
X0176650Y0044136D01*
X0176650Y0044537D02*
X0174296Y0044537D01*
X0185115Y0043712D02*
X0185115Y0041752D01*
X0182761Y0041752D01*
X0182761Y0043712D01*
X0185115Y0043712D01*
X0185115Y0042153D02*
X0182761Y0042153D01*
X0182761Y0042554D02*
X0185115Y0042554D01*
X0185115Y0042955D02*
X0182761Y0042955D01*
X0182761Y0043356D02*
X0185115Y0043356D01*
X0187485Y0043712D02*
X0187485Y0041752D01*
X0187485Y0043712D02*
X0189839Y0043712D01*
X0189839Y0041752D01*
X0187485Y0041752D01*
X0187485Y0042153D02*
X0189839Y0042153D01*
X0189839Y0042554D02*
X0187485Y0042554D01*
X0187485Y0042955D02*
X0189839Y0042955D01*
X0189839Y0043356D02*
X0187485Y0043356D01*
X0201257Y0043122D02*
X0201257Y0041162D01*
X0198903Y0041162D01*
X0198903Y0043122D01*
X0201257Y0043122D01*
X0201257Y0041563D02*
X0198903Y0041563D01*
X0198903Y0041964D02*
X0201257Y0041964D01*
X0201257Y0042365D02*
X0198903Y0042365D01*
X0198903Y0042766D02*
X0201257Y0042766D01*
X0201257Y0045099D02*
X0201257Y0047059D01*
X0201257Y0045099D02*
X0198903Y0045099D01*
X0198903Y0047059D01*
X0201257Y0047059D01*
X0201257Y0045500D02*
X0198903Y0045500D01*
X0198903Y0045901D02*
X0201257Y0045901D01*
X0201257Y0046302D02*
X0198903Y0046302D01*
X0198903Y0046703D02*
X0201257Y0046703D01*
X0201060Y0052177D02*
X0199100Y0052177D01*
X0201060Y0052177D02*
X0201060Y0049823D01*
X0199100Y0049823D01*
X0199100Y0052177D01*
X0199100Y0050224D02*
X0201060Y0050224D01*
X0201060Y0050625D02*
X0199100Y0050625D01*
X0199100Y0051026D02*
X0201060Y0051026D01*
X0201060Y0051427D02*
X0199100Y0051427D01*
X0199100Y0051828D02*
X0201060Y0051828D01*
X0203037Y0052177D02*
X0204997Y0052177D01*
X0204997Y0049823D01*
X0203037Y0049823D01*
X0203037Y0052177D01*
X0203037Y0050224D02*
X0204997Y0050224D01*
X0204997Y0050625D02*
X0203037Y0050625D01*
X0203037Y0051026D02*
X0204997Y0051026D01*
X0204997Y0051427D02*
X0203037Y0051427D01*
X0203037Y0051828D02*
X0204997Y0051828D01*
X0233737Y0048830D02*
X0233737Y0046870D01*
X0231383Y0046870D01*
X0231383Y0048830D01*
X0233737Y0048830D01*
X0233737Y0047271D02*
X0231383Y0047271D01*
X0231383Y0047672D02*
X0233737Y0047672D01*
X0233737Y0048073D02*
X0231383Y0048073D01*
X0231383Y0048474D02*
X0233737Y0048474D01*
X0236107Y0048831D02*
X0238067Y0048831D01*
X0238067Y0046477D01*
X0236107Y0046477D01*
X0236107Y0048831D01*
X0236107Y0046878D02*
X0238067Y0046878D01*
X0238067Y0047279D02*
X0236107Y0047279D01*
X0236107Y0047680D02*
X0238067Y0047680D01*
X0238067Y0048081D02*
X0236107Y0048081D01*
X0236107Y0048482D02*
X0238067Y0048482D01*
X0240044Y0048831D02*
X0242004Y0048831D01*
X0242004Y0046477D01*
X0240044Y0046477D01*
X0240044Y0048831D01*
X0240044Y0046878D02*
X0242004Y0046878D01*
X0242004Y0047279D02*
X0240044Y0047279D01*
X0240044Y0047680D02*
X0242004Y0047680D01*
X0242004Y0048081D02*
X0240044Y0048081D01*
X0240044Y0048482D02*
X0242004Y0048482D01*
X0233737Y0044893D02*
X0233737Y0042933D01*
X0231383Y0042933D01*
X0231383Y0044893D01*
X0233737Y0044893D01*
X0233737Y0043334D02*
X0231383Y0043334D01*
X0231383Y0043735D02*
X0233737Y0043735D01*
X0233737Y0044136D02*
X0231383Y0044136D01*
X0231383Y0044537D02*
X0233737Y0044537D01*
X0217406Y0036232D02*
X0217406Y0034272D01*
X0217406Y0036232D02*
X0219760Y0036232D01*
X0219760Y0034272D01*
X0217406Y0034272D01*
X0217406Y0034673D02*
X0219760Y0034673D01*
X0219760Y0035074D02*
X0217406Y0035074D01*
X0217406Y0035475D02*
X0219760Y0035475D01*
X0219760Y0035876D02*
X0217406Y0035876D01*
X0212682Y0036232D02*
X0212682Y0034272D01*
X0212682Y0036232D02*
X0215036Y0036232D01*
X0215036Y0034272D01*
X0212682Y0034272D01*
X0212682Y0034673D02*
X0215036Y0034673D01*
X0215036Y0035074D02*
X0212682Y0035074D01*
X0212682Y0035475D02*
X0215036Y0035475D01*
X0215036Y0035876D02*
X0212682Y0035876D01*
X0212682Y0032295D02*
X0212682Y0030335D01*
X0212682Y0032295D02*
X0215036Y0032295D01*
X0215036Y0030335D01*
X0212682Y0030335D01*
X0212682Y0030736D02*
X0215036Y0030736D01*
X0215036Y0031137D02*
X0212682Y0031137D01*
X0212682Y0031538D02*
X0215036Y0031538D01*
X0215036Y0031939D02*
X0212682Y0031939D01*
X0217406Y0032295D02*
X0217406Y0030335D01*
X0217406Y0032295D02*
X0219760Y0032295D01*
X0219760Y0030335D01*
X0217406Y0030335D01*
X0217406Y0030736D02*
X0219760Y0030736D01*
X0219760Y0031137D02*
X0217406Y0031137D01*
X0217406Y0031538D02*
X0219760Y0031538D01*
X0219760Y0031939D02*
X0217406Y0031939D01*
X0255202Y0021673D02*
X0257162Y0021673D01*
X0255202Y0021673D02*
X0255202Y0024027D01*
X0257162Y0024027D01*
X0257162Y0021673D01*
X0257162Y0022074D02*
X0255202Y0022074D01*
X0255202Y0022475D02*
X0257162Y0022475D01*
X0257162Y0022876D02*
X0255202Y0022876D01*
X0255202Y0023277D02*
X0257162Y0023277D01*
X0257162Y0023678D02*
X0255202Y0023678D01*
X0259139Y0021673D02*
X0261099Y0021673D01*
X0259139Y0021673D02*
X0259139Y0024027D01*
X0261099Y0024027D01*
X0261099Y0021673D01*
X0261099Y0022074D02*
X0259139Y0022074D01*
X0259139Y0022475D02*
X0261099Y0022475D01*
X0261099Y0022876D02*
X0259139Y0022876D01*
X0259139Y0023277D02*
X0261099Y0023277D01*
X0261099Y0023678D02*
X0259139Y0023678D01*
X0243382Y0016350D02*
X0241422Y0016350D01*
X0243382Y0016350D02*
X0243382Y0013996D01*
X0241422Y0013996D01*
X0241422Y0016350D01*
X0241422Y0014397D02*
X0243382Y0014397D01*
X0243382Y0014798D02*
X0241422Y0014798D01*
X0241422Y0015199D02*
X0243382Y0015199D01*
X0243382Y0015600D02*
X0241422Y0015600D01*
X0241422Y0016001D02*
X0243382Y0016001D01*
X0239445Y0016350D02*
X0237485Y0016350D01*
X0239445Y0016350D02*
X0239445Y0013996D01*
X0237485Y0013996D01*
X0237485Y0016350D01*
X0237485Y0014397D02*
X0239445Y0014397D01*
X0239445Y0014798D02*
X0237485Y0014798D01*
X0237485Y0015199D02*
X0239445Y0015199D01*
X0239445Y0015600D02*
X0237485Y0015600D01*
X0237485Y0016001D02*
X0239445Y0016001D01*
X0247328Y0015760D02*
X0247328Y0013800D01*
X0247328Y0015760D02*
X0249682Y0015760D01*
X0249682Y0013800D01*
X0247328Y0013800D01*
X0247328Y0014201D02*
X0249682Y0014201D01*
X0249682Y0014602D02*
X0247328Y0014602D01*
X0247328Y0015003D02*
X0249682Y0015003D01*
X0249682Y0015404D02*
X0247328Y0015404D01*
X0247328Y0011823D02*
X0247328Y0009863D01*
X0247328Y0011823D02*
X0249682Y0011823D01*
X0249682Y0009863D01*
X0247328Y0009863D01*
X0247328Y0010264D02*
X0249682Y0010264D01*
X0249682Y0010665D02*
X0247328Y0010665D01*
X0247328Y0011066D02*
X0249682Y0011066D01*
X0249682Y0011467D02*
X0247328Y0011467D01*
D13*
X0227339Y0050119D02*
X0224395Y0050119D01*
X0224395Y0054243D01*
X0227339Y0054243D01*
X0227339Y0050119D01*
X0227339Y0051703D02*
X0224395Y0051703D01*
X0224395Y0053287D02*
X0227339Y0053287D01*
X0220252Y0050119D02*
X0217308Y0050119D01*
X0217308Y0054243D01*
X0220252Y0054243D01*
X0220252Y0050119D01*
X0220252Y0051703D02*
X0217308Y0051703D01*
X0217308Y0053287D02*
X0220252Y0053287D01*
D14*
X0295355Y0057890D03*
X0305355Y0057890D03*
X0305355Y0047890D03*
X0295355Y0047890D03*
X0295355Y0037890D03*
X0305355Y0037890D03*
X0305355Y0027890D03*
X0295355Y0027890D03*
X0295355Y0017890D03*
X0305355Y0017890D03*
X0305355Y0007890D03*
X0295355Y0007890D03*
X0211851Y0008205D03*
X0201851Y0008205D03*
X0191851Y0008205D03*
X0191851Y0018205D03*
X0201851Y0018205D03*
X0211851Y0018205D03*
X0016300Y0027890D03*
X0006300Y0027890D03*
X0006300Y0037890D03*
X0016300Y0037890D03*
D15*
X0076635Y0043480D03*
X0081635Y0043480D03*
X0086635Y0043480D03*
X0091635Y0043480D03*
X0091635Y0022299D03*
X0086635Y0022299D03*
X0081635Y0022299D03*
X0076635Y0022299D03*
D16*
X0051457Y0028165D03*
X0041615Y0026197D03*
X0032166Y0026197D03*
X0051457Y0037614D03*
X0041615Y0039583D03*
X0032166Y0039583D03*
D17*
X0108347Y0036630D03*
X0118977Y0036630D03*
X0118977Y0032890D03*
X0108347Y0032890D03*
X0108347Y0029150D03*
X0118977Y0029150D03*
D18*
X0152442Y0029051D03*
X0152442Y0031610D03*
X0152442Y0034169D03*
X0152442Y0036728D03*
X0168583Y0036728D03*
X0168583Y0034169D03*
X0168583Y0031610D03*
X0168583Y0029051D03*
D19*
X0159528Y0022260D02*
X0155591Y0022260D01*
X0096339Y0014583D02*
X0092402Y0014583D01*
X0200080Y0042142D02*
X0200080Y0046079D01*
X0183938Y0047850D02*
X0180001Y0047850D01*
X0175473Y0047850D02*
X0175473Y0043913D01*
X0232560Y0043913D02*
X0232560Y0047850D01*
D20*
X0282363Y0031315D03*
D21*
X0282560Y0032890D03*
X0282560Y0034465D03*
X0282560Y0036039D03*
X0282560Y0037614D03*
X0282560Y0039189D03*
X0282560Y0040764D03*
X0282560Y0042339D03*
D22*
X0279902Y0039169D03*
X0279902Y0034484D03*
D23*
X0236694Y0052969D03*
D24*
X0273111Y0056512D03*
X0171733Y0052181D03*
X0148898Y0043126D03*
X0267206Y0022850D03*
X0072324Y0009268D03*
D25*
X0087481Y0014583D03*
X0107166Y0043126D03*
X0192796Y0056512D03*
X0205001Y0046079D03*
D26*
X0217599Y0045784D02*
X0219961Y0045784D01*
X0219961Y0043224D01*
X0217599Y0043224D01*
X0217599Y0045784D01*
X0217599Y0044798D02*
X0219961Y0044798D01*
X0224686Y0045784D02*
X0227048Y0045784D01*
X0227048Y0043224D01*
X0224686Y0043224D01*
X0224686Y0045784D01*
X0224686Y0044798D02*
X0227048Y0044798D01*
X0236497Y0019996D02*
X0238859Y0019996D01*
X0236497Y0019996D02*
X0236497Y0022556D01*
X0238859Y0022556D01*
X0238859Y0019996D01*
X0238859Y0021570D02*
X0236497Y0021570D01*
X0243584Y0019996D02*
X0245946Y0019996D01*
X0243584Y0019996D02*
X0243584Y0022556D01*
X0245946Y0022556D01*
X0245946Y0019996D01*
X0245946Y0021570D02*
X0243584Y0021570D01*
D27*
X0241221Y0021276D03*
X0222324Y0044504D03*
D28*
X0069572Y0007681D02*
X0029473Y0007681D01*
X0030887Y0006895D02*
X0070242Y0006895D01*
X0070540Y0006598D02*
X0071697Y0006118D01*
X0072950Y0006118D01*
X0074108Y0006598D01*
X0074994Y0007484D01*
X0075473Y0008641D01*
X0075473Y0009894D01*
X0074994Y0011052D01*
X0074108Y0011938D01*
X0072950Y0012417D01*
X0071697Y0012417D01*
X0070540Y0011938D01*
X0069654Y0011052D01*
X0069174Y0009894D01*
X0069174Y0008641D01*
X0069654Y0007484D01*
X0070540Y0006598D01*
X0074405Y0006895D02*
X0110302Y0006895D01*
X0109977Y0007681D02*
X0098575Y0007681D01*
X0098596Y0007702D02*
X0098805Y0008066D01*
X0098914Y0008471D01*
X0098914Y0009661D01*
X0096536Y0009661D01*
X0096536Y0007087D01*
X0097530Y0007087D01*
X0097935Y0007195D01*
X0098299Y0007405D01*
X0098596Y0007702D01*
X0098913Y0008467D02*
X0109800Y0008467D01*
X0109800Y0008108D02*
X0110688Y0005965D01*
X0112328Y0004325D01*
X0114471Y0003437D01*
X0116791Y0003437D01*
X0118934Y0004325D01*
X0120574Y0005965D01*
X0121461Y0008108D01*
X0121461Y0010428D01*
X0120574Y0012571D01*
X0118934Y0014211D01*
X0116791Y0015098D01*
X0114471Y0015098D01*
X0112328Y0014211D01*
X0110688Y0012571D01*
X0109800Y0010428D01*
X0109800Y0008108D01*
X0109800Y0009253D02*
X0098914Y0009253D01*
X0098914Y0010055D02*
X0096536Y0010055D01*
X0096536Y0009661D01*
X0096142Y0009661D01*
X0096142Y0007087D01*
X0095149Y0007087D01*
X0094744Y0007195D01*
X0094380Y0007405D01*
X0094221Y0007565D01*
X0093955Y0007299D01*
X0090850Y0007299D01*
X0090040Y0008109D01*
X0090040Y0011608D01*
X0090237Y0011805D01*
X0090237Y0012417D01*
X0086584Y0012417D01*
X0085316Y0013686D01*
X0084528Y0014473D01*
X0084528Y0018395D01*
X0084528Y0013402D01*
X0078623Y0013402D01*
X0078561Y0018278D01*
X0078624Y0018278D01*
X0079316Y0018969D01*
X0079316Y0019151D01*
X0079410Y0019245D01*
X0079410Y0026062D01*
X0078488Y0026984D01*
X0078451Y0026984D01*
X0078426Y0028953D01*
X0063072Y0028953D01*
X0063072Y0032631D01*
X0063404Y0032299D01*
X0084528Y0032299D01*
X0084528Y0026204D01*
X0083954Y0025629D01*
X0083954Y0018969D01*
X0084528Y0018395D01*
X0084276Y0018647D01*
X0084250Y0018603D01*
X0083990Y0018343D01*
X0083673Y0018160D01*
X0083318Y0018065D01*
X0081991Y0018065D01*
X0081991Y0021943D01*
X0081278Y0021943D01*
X0081278Y0018065D01*
X0079951Y0018065D01*
X0079597Y0018160D01*
X0079279Y0018343D01*
X0079019Y0018603D01*
X0078994Y0018647D01*
X0078624Y0018278D01*
X0074645Y0018278D01*
X0074600Y0018323D01*
X0064638Y0018323D01*
X0064935Y0018026D01*
X0065209Y0017551D01*
X0065351Y0017021D01*
X0065351Y0015173D01*
X0061300Y0015173D01*
X0061300Y0014386D01*
X0065351Y0014386D01*
X0065351Y0012539D01*
X0065209Y0012008D01*
X0064935Y0011533D01*
X0064547Y0011145D01*
X0064071Y0010870D01*
X0063541Y0010728D01*
X0061300Y0010728D01*
X0061300Y0014386D01*
X0060513Y0014386D01*
X0060513Y0010728D01*
X0058272Y0010728D01*
X0057741Y0010870D01*
X0057266Y0011145D01*
X0056878Y0011533D01*
X0056603Y0012008D01*
X0056461Y0012539D01*
X0056461Y0014386D01*
X0060513Y0014386D01*
X0060513Y0015173D01*
X0056461Y0015173D01*
X0056461Y0017021D01*
X0056603Y0017551D01*
X0056878Y0018026D01*
X0057175Y0018323D01*
X0037616Y0018323D01*
X0036694Y0019245D01*
X0036694Y0020819D01*
X0036371Y0020492D01*
X0036365Y0020492D01*
X0036362Y0020488D01*
X0035714Y0020488D01*
X0006720Y0020322D01*
X0037381Y0003287D01*
X0312481Y0003287D01*
X0290828Y0003287D01*
X0290828Y0011236D01*
X0313072Y0011236D01*
X0313072Y0003334D01*
X0312481Y0003287D01*
X0313417Y0003361D01*
X0315196Y0003939D01*
X0316710Y0005039D01*
X0317810Y0006553D01*
X0318388Y0008332D01*
X0318461Y0009268D01*
X0318461Y0012122D01*
X0307336Y0012122D01*
X0309749Y0009710D01*
X0309749Y0008283D01*
X0305749Y0008283D01*
X0305749Y0007496D01*
X0309749Y0007496D01*
X0309749Y0006070D01*
X0307175Y0003496D01*
X0305749Y0003496D01*
X0305749Y0007496D01*
X0304961Y0007496D01*
X0300961Y0007496D01*
X0300961Y0006070D01*
X0303535Y0003496D01*
X0304961Y0003496D01*
X0304961Y0007496D01*
X0304961Y0008283D01*
X0300961Y0008283D01*
X0300961Y0009710D01*
X0303374Y0012122D01*
X0297336Y0012122D01*
X0299749Y0009710D01*
X0299749Y0008283D01*
X0295749Y0008283D01*
X0295749Y0007496D01*
X0299749Y0007496D01*
X0299749Y0006070D01*
X0297175Y0003496D01*
X0295749Y0003496D01*
X0295749Y0007496D01*
X0294961Y0007496D01*
X0290961Y0007496D01*
X0290961Y0006070D01*
X0293535Y0003496D01*
X0294961Y0003496D01*
X0294961Y0007496D01*
X0294961Y0008283D01*
X0290961Y0008283D01*
X0290961Y0009710D01*
X0293374Y0012122D01*
X0289904Y0012122D01*
X0289154Y0012872D01*
X0289154Y0021609D01*
X0289400Y0021854D01*
X0283875Y0029680D01*
X0283836Y0029642D01*
X0282187Y0029642D01*
X0281597Y0029051D01*
X0258619Y0029051D01*
X0258502Y0028969D01*
X0258024Y0029051D01*
X0257539Y0029051D01*
X0257438Y0029152D01*
X0252315Y0030035D01*
X0244165Y0030035D01*
X0244144Y0030015D01*
X0243558Y0030035D01*
X0242972Y0030035D01*
X0242951Y0030056D01*
X0241221Y0030116D01*
X0241221Y0025553D01*
X0241338Y0025670D01*
X0241842Y0026187D01*
X0241856Y0026187D01*
X0241865Y0026197D01*
X0242587Y0026197D01*
X0256619Y0026384D01*
X0256629Y0026394D01*
X0257352Y0026394D01*
X0258073Y0026403D01*
X0258083Y0026394D01*
X0258097Y0026394D01*
X0258607Y0025883D01*
X0258887Y0025611D01*
X0258929Y0025622D01*
X0259922Y0025622D01*
X0259922Y0023047D01*
X0260316Y0023047D01*
X0262694Y0023047D01*
X0262694Y0024237D01*
X0262585Y0024643D01*
X0262375Y0025007D01*
X0262078Y0025303D01*
X0261715Y0025513D01*
X0261309Y0025622D01*
X0260316Y0025622D01*
X0260316Y0023047D01*
X0260316Y0022654D01*
X0262694Y0022654D01*
X0262694Y0021463D01*
X0262585Y0021058D01*
X0262375Y0020694D01*
X0262078Y0020397D01*
X0261715Y0020187D01*
X0261309Y0020079D01*
X0260316Y0020079D01*
X0260316Y0022653D01*
X0259922Y0022653D01*
X0259922Y0020079D01*
X0259135Y0020079D01*
X0259135Y0014682D01*
X0260140Y0015098D01*
X0262460Y0015098D01*
X0264603Y0014211D01*
X0266243Y0012571D01*
X0267131Y0010428D01*
X0267131Y0008108D01*
X0266243Y0005965D01*
X0264603Y0004325D01*
X0262460Y0003437D01*
X0260140Y0003437D01*
X0257997Y0004325D01*
X0256357Y0005965D01*
X0255469Y0008108D01*
X0255469Y0010428D01*
X0256042Y0011809D01*
X0251276Y0011745D01*
X0251276Y0011039D01*
X0248702Y0011039D01*
X0248702Y0010646D01*
X0251276Y0010646D01*
X0251276Y0009652D01*
X0251168Y0009247D01*
X0250958Y0008883D01*
X0250661Y0008586D01*
X0250297Y0008376D01*
X0249892Y0008268D01*
X0248702Y0008268D01*
X0248702Y0010646D01*
X0248308Y0010646D01*
X0245733Y0010646D01*
X0245733Y0009652D01*
X0245842Y0009247D01*
X0246052Y0008883D01*
X0246349Y0008586D01*
X0246712Y0008376D01*
X0247118Y0008268D01*
X0248308Y0008268D01*
X0248308Y0010646D01*
X0248308Y0011039D01*
X0245733Y0011039D01*
X0245733Y0011672D01*
X0243343Y0011640D01*
X0243333Y0011630D01*
X0242611Y0011630D01*
X0241889Y0011620D01*
X0241879Y0011630D01*
X0241865Y0011630D01*
X0241355Y0012140D01*
X0240868Y0012614D01*
X0240850Y0012614D01*
X0240434Y0013030D01*
X0240018Y0012614D01*
X0236913Y0012614D01*
X0236103Y0013424D01*
X0236103Y0013598D01*
X0231908Y0013598D01*
X0230985Y0014521D01*
X0230985Y0032607D01*
X0230985Y0027181D01*
X0228817Y0027181D01*
X0229410Y0027775D01*
X0229410Y0030328D01*
X0228718Y0031020D01*
X0225777Y0031020D01*
X0225587Y0031112D01*
X0225324Y0031020D01*
X0225045Y0031020D01*
X0224910Y0031035D01*
X0224891Y0031020D01*
X0222937Y0031020D01*
X0222245Y0030328D01*
X0222245Y0027775D01*
X0222740Y0027280D01*
X0209725Y0027280D01*
X0209725Y0032890D01*
X0210509Y0032890D01*
X0210607Y0032791D01*
X0221048Y0032791D01*
X0221147Y0032890D01*
X0222248Y0032890D01*
X0222937Y0032201D01*
X0228718Y0032201D01*
X0228817Y0032299D01*
X0230677Y0032299D01*
X0230985Y0032607D01*
X0230677Y0032299D01*
X0229623Y0032299D01*
X0229623Y0031610D01*
X0225828Y0031610D01*
X0225828Y0031610D01*
X0229623Y0031610D01*
X0229623Y0030639D01*
X0229528Y0030285D01*
X0229410Y0030081D01*
X0229410Y0027775D01*
X0228718Y0027083D01*
X0227540Y0027083D01*
X0227540Y0025422D01*
X0226445Y0024327D01*
X0225657Y0023539D01*
X0202651Y0023539D01*
X0201556Y0024635D01*
X0198209Y0027981D01*
X0198209Y0039900D01*
X0197520Y0040589D01*
X0197520Y0043694D01*
X0197936Y0044110D01*
X0197520Y0044526D01*
X0197520Y0047631D01*
X0198209Y0048320D01*
X0198209Y0048758D01*
X0197838Y0049130D01*
X0195145Y0049130D01*
X0195454Y0048822D01*
X0195454Y0033372D01*
X0195665Y0033161D01*
X0195665Y0031437D01*
X0194445Y0030218D01*
X0192721Y0030218D01*
X0191502Y0031437D01*
X0191502Y0033161D01*
X0191713Y0033372D01*
X0191713Y0046571D01*
X0186300Y0046571D01*
X0186300Y0046101D01*
X0185491Y0045291D01*
X0182385Y0045291D01*
X0181969Y0045707D01*
X0181553Y0045291D01*
X0178448Y0045291D01*
X0177759Y0045980D01*
X0177715Y0045980D01*
X0177616Y0045882D01*
X0178032Y0045466D01*
X0178032Y0042361D01*
X0177420Y0041748D01*
X0177442Y0041726D01*
X0177858Y0042142D01*
X0178707Y0042142D01*
X0178707Y0043594D01*
X0179926Y0044813D01*
X0181650Y0044813D01*
X0181779Y0044685D01*
X0182188Y0045094D01*
X0185687Y0045094D01*
X0186166Y0044616D01*
X0186209Y0044692D01*
X0186506Y0044988D01*
X0186870Y0045198D01*
X0187275Y0045307D01*
X0188465Y0045307D01*
X0188465Y0042929D01*
X0188859Y0042929D01*
X0191434Y0042929D01*
X0191434Y0043923D01*
X0191325Y0044328D01*
X0191115Y0044692D01*
X0190818Y0044988D01*
X0190455Y0045198D01*
X0190049Y0045307D01*
X0188859Y0045307D01*
X0188859Y0042929D01*
X0188859Y0042535D01*
X0191434Y0042535D01*
X0191434Y0041542D01*
X0191325Y0041137D01*
X0191115Y0040773D01*
X0190956Y0040613D01*
X0191221Y0040348D01*
X0191221Y0037243D01*
X0190412Y0036433D01*
X0186913Y0036433D01*
X0186421Y0036925D01*
X0186179Y0036925D01*
X0186081Y0036827D01*
X0186497Y0036411D01*
X0186497Y0033306D01*
X0186081Y0032890D01*
X0186497Y0032474D01*
X0186497Y0029369D01*
X0185687Y0028559D01*
X0182188Y0028559D01*
X0181696Y0029051D01*
X0177715Y0029051D01*
X0177223Y0028559D01*
X0173724Y0028559D01*
X0172914Y0029369D01*
X0172914Y0029655D01*
X0172829Y0029740D01*
X0172339Y0029740D01*
X0172339Y0029051D01*
X0168584Y0029051D01*
X0168584Y0029051D01*
X0172339Y0029051D01*
X0172339Y0028080D01*
X0172244Y0027726D01*
X0172061Y0027408D01*
X0171801Y0027149D01*
X0171484Y0026965D01*
X0171129Y0026870D01*
X0168584Y0026870D01*
X0168584Y0029051D01*
X0168583Y0029051D01*
X0164828Y0029051D01*
X0164828Y0028080D01*
X0164923Y0027726D01*
X0165106Y0027408D01*
X0165366Y0027149D01*
X0165683Y0026965D01*
X0166038Y0026870D01*
X0168583Y0026870D01*
X0168583Y0029051D01*
X0168583Y0029051D01*
X0164828Y0029051D01*
X0164828Y0030022D01*
X0164923Y0030377D01*
X0165040Y0030580D01*
X0165040Y0032887D01*
X0165043Y0032890D01*
X0165040Y0032893D01*
X0165040Y0034071D01*
X0159963Y0034071D01*
X0159949Y0034057D01*
X0159314Y0034071D01*
X0158679Y0034071D01*
X0158665Y0034085D01*
X0158644Y0034086D01*
X0158206Y0034544D01*
X0157757Y0034993D01*
X0157757Y0035014D01*
X0157743Y0035029D01*
X0157757Y0035663D01*
X0157757Y0036298D01*
X0157771Y0036312D01*
X0157954Y0044521D01*
X0157954Y0045156D01*
X0157968Y0045171D01*
X0157968Y0045191D01*
X0158427Y0045630D01*
X0158876Y0046079D01*
X0158896Y0046079D01*
X0158911Y0046093D01*
X0159119Y0046088D01*
X0159119Y0046472D01*
X0161694Y0046472D01*
X0161694Y0046866D01*
X0161694Y0049244D01*
X0160503Y0049244D01*
X0160098Y0049135D01*
X0159734Y0048926D01*
X0159437Y0048629D01*
X0159228Y0048265D01*
X0159119Y0047860D01*
X0159119Y0046866D01*
X0161694Y0046866D01*
X0162087Y0046866D01*
X0162087Y0049244D01*
X0163278Y0049244D01*
X0163683Y0049135D01*
X0164047Y0048926D01*
X0164253Y0048720D01*
X0164459Y0048926D01*
X0164822Y0049135D01*
X0165228Y0049244D01*
X0166418Y0049244D01*
X0166418Y0046866D01*
X0166418Y0046472D01*
X0162087Y0046472D01*
X0162087Y0046866D01*
X0164662Y0046866D01*
X0166418Y0046866D01*
X0166812Y0046866D01*
X0169387Y0046866D01*
X0169387Y0047860D01*
X0169278Y0048265D01*
X0169068Y0048629D01*
X0168771Y0048926D01*
X0168408Y0049135D01*
X0168002Y0049244D01*
X0166812Y0049244D01*
X0166812Y0046866D01*
X0166812Y0046472D01*
X0169387Y0046472D01*
X0169387Y0046079D01*
X0169629Y0046079D01*
X0170552Y0045156D01*
X0170552Y0042203D01*
X0171401Y0041354D01*
X0172324Y0040432D01*
X0172324Y0036039D01*
X0172435Y0036039D01*
X0172730Y0036335D01*
X0172914Y0036335D01*
X0172914Y0036411D01*
X0173603Y0037100D01*
X0173603Y0037341D01*
X0173111Y0037833D01*
X0173111Y0041332D01*
X0173527Y0041748D01*
X0172936Y0042339D01*
X0172459Y0042339D01*
X0170946Y0043852D01*
X0170946Y0048838D01*
X0170873Y0049128D01*
X0169949Y0049511D01*
X0169063Y0050397D01*
X0168583Y0051555D01*
X0168583Y0052808D01*
X0169063Y0053965D01*
X0169949Y0054851D01*
X0171107Y0055331D01*
X0172360Y0055331D01*
X0173517Y0054851D01*
X0174403Y0053965D01*
X0174883Y0052808D01*
X0174883Y0051555D01*
X0174403Y0050397D01*
X0174219Y0050213D01*
X0177223Y0050213D01*
X0177715Y0049720D01*
X0177759Y0049720D01*
X0178131Y0050092D01*
X0178131Y0051775D01*
X0179226Y0052870D01*
X0197838Y0052870D01*
X0198527Y0053559D01*
X0201632Y0053559D01*
X0201898Y0053294D01*
X0202057Y0053453D01*
X0202421Y0053663D01*
X0202826Y0053772D01*
X0203820Y0053772D01*
X0203820Y0051197D01*
X0204213Y0051197D01*
X0204213Y0053772D01*
X0205207Y0053772D01*
X0205612Y0053663D01*
X0205976Y0053453D01*
X0206273Y0053156D01*
X0206483Y0052793D01*
X0206591Y0052387D01*
X0206591Y0051197D01*
X0204213Y0051197D01*
X0204213Y0050803D01*
X0204213Y0048228D01*
X0205207Y0048228D01*
X0205612Y0048337D01*
X0205976Y0048547D01*
X0206273Y0048844D01*
X0206483Y0049207D01*
X0206591Y0049613D01*
X0206591Y0050803D01*
X0204213Y0050803D01*
X0203820Y0050803D01*
X0203820Y0048228D01*
X0202826Y0048228D01*
X0202421Y0048337D01*
X0202057Y0048547D01*
X0201950Y0048655D01*
X0201950Y0048320D01*
X0202321Y0047949D01*
X0203939Y0047949D01*
X0204142Y0048152D01*
X0205860Y0048152D01*
X0207074Y0046937D01*
X0207074Y0045220D01*
X0205860Y0044006D01*
X0204142Y0044006D01*
X0203939Y0044209D01*
X0202321Y0044209D01*
X0202223Y0044110D01*
X0202639Y0043694D01*
X0202639Y0040589D01*
X0201950Y0039900D01*
X0201950Y0029531D01*
X0204201Y0027280D01*
X0222740Y0027280D01*
X0222245Y0027775D01*
X0222245Y0030081D01*
X0222127Y0030285D01*
X0222032Y0030639D01*
X0222032Y0031610D01*
X0225827Y0031610D01*
X0225827Y0031610D01*
X0222032Y0031610D01*
X0222032Y0032581D01*
X0222127Y0032936D01*
X0222245Y0033139D01*
X0222245Y0035446D01*
X0222248Y0035449D01*
X0222245Y0035452D01*
X0222245Y0038005D01*
X0222937Y0038697D01*
X0223997Y0038697D01*
X0223997Y0041256D01*
X0223870Y0041256D01*
X0223378Y0041748D01*
X0222028Y0041748D01*
X0222028Y0033771D01*
X0221218Y0032961D01*
X0221246Y0032911D01*
X0221355Y0032505D01*
X0221355Y0031512D01*
X0218780Y0031512D01*
X0218780Y0031118D01*
X0218780Y0028740D01*
X0219971Y0028740D01*
X0220376Y0028849D01*
X0220740Y0029059D01*
X0221037Y0029356D01*
X0221246Y0029719D01*
X0221355Y0030125D01*
X0221355Y0031118D01*
X0218780Y0031118D01*
X0218387Y0031118D01*
X0218387Y0028740D01*
X0217196Y0028740D01*
X0216791Y0028849D01*
X0216427Y0029059D01*
X0216221Y0029265D01*
X0216015Y0029059D01*
X0215652Y0028849D01*
X0215246Y0028740D01*
X0214056Y0028740D01*
X0214056Y0031118D01*
X0214056Y0031512D01*
X0216631Y0031512D01*
X0218387Y0031512D01*
X0218387Y0031118D01*
X0214056Y0031118D01*
X0213662Y0031118D01*
X0211087Y0031118D01*
X0211087Y0030125D01*
X0211196Y0029719D01*
X0211406Y0029356D01*
X0211703Y0029059D01*
X0212066Y0028849D01*
X0212472Y0028740D01*
X0213662Y0028740D01*
X0213662Y0031118D01*
X0213662Y0031512D01*
X0211087Y0031512D01*
X0211087Y0032505D01*
X0211164Y0032791D01*
X0210607Y0032791D01*
X0209627Y0033771D01*
X0209627Y0055433D01*
X0210607Y0056413D01*
X0221048Y0056413D01*
X0222028Y0055433D01*
X0222028Y0055257D01*
X0222225Y0055061D01*
X0222225Y0054590D01*
X0222358Y0055087D01*
X0222646Y0055585D01*
X0223053Y0055992D01*
X0223552Y0056280D01*
X0224108Y0056429D01*
X0225473Y0056429D01*
X0225473Y0052575D01*
X0226261Y0052575D01*
X0229524Y0052575D01*
X0229524Y0054531D01*
X0229375Y0055087D01*
X0229088Y0055585D01*
X0228681Y0055992D01*
X0228182Y0056280D01*
X0227626Y0056429D01*
X0226261Y0056429D01*
X0226261Y0052575D01*
X0226261Y0051787D01*
X0229524Y0051787D01*
X0229524Y0049831D01*
X0229375Y0049275D01*
X0229088Y0048777D01*
X0228681Y0048370D01*
X0228182Y0048082D01*
X0227626Y0047933D01*
X0226261Y0047933D01*
X0226261Y0051787D01*
X0225473Y0051787D01*
X0225473Y0047933D01*
X0224108Y0047933D01*
X0223552Y0048082D01*
X0223053Y0048370D01*
X0222646Y0048777D01*
X0222358Y0049275D01*
X0222225Y0049773D01*
X0222225Y0049302D01*
X0222028Y0049105D01*
X0222028Y0047260D01*
X0223378Y0047260D01*
X0223870Y0047752D01*
X0227863Y0047752D01*
X0229017Y0046599D01*
X0229017Y0042409D01*
X0227863Y0041256D01*
X0227737Y0041256D01*
X0227737Y0038697D01*
X0228718Y0038697D01*
X0228721Y0038694D01*
X0228721Y0040357D01*
X0229817Y0041453D01*
X0229817Y0041453D01*
X0230363Y0041999D01*
X0230001Y0042361D01*
X0230001Y0045466D01*
X0230417Y0045882D01*
X0230001Y0046298D01*
X0230001Y0049403D01*
X0230810Y0050213D01*
X0234309Y0050213D01*
X0234922Y0049600D01*
X0235217Y0049895D01*
X0235217Y0050384D01*
X0235021Y0050465D01*
X0234190Y0051296D01*
X0233741Y0052381D01*
X0233741Y0053556D01*
X0234190Y0054641D01*
X0235021Y0055472D01*
X0236106Y0055921D01*
X0237281Y0055921D01*
X0238366Y0055472D01*
X0239197Y0054641D01*
X0239646Y0053556D01*
X0239646Y0052381D01*
X0239197Y0051296D01*
X0238957Y0051056D01*
X0238957Y0049999D01*
X0239065Y0050107D01*
X0239429Y0050317D01*
X0239834Y0050425D01*
X0240828Y0050425D01*
X0240828Y0047850D01*
X0241221Y0047850D01*
X0243599Y0047850D01*
X0243599Y0049041D01*
X0243491Y0049446D01*
X0243281Y0049810D01*
X0242984Y0050107D01*
X0242620Y0050317D01*
X0242215Y0050425D01*
X0241221Y0050425D01*
X0241221Y0047850D01*
X0241221Y0047457D01*
X0243599Y0047457D01*
X0243599Y0046266D01*
X0243491Y0045861D01*
X0243281Y0045497D01*
X0242984Y0045200D01*
X0242620Y0044991D01*
X0242215Y0044882D01*
X0241221Y0044882D01*
X0241221Y0047457D01*
X0240828Y0047457D01*
X0240828Y0044882D01*
X0239834Y0044882D01*
X0239429Y0044991D01*
X0239065Y0045200D01*
X0238906Y0045360D01*
X0238640Y0045094D01*
X0235535Y0045094D01*
X0234846Y0045783D01*
X0234802Y0045783D01*
X0235119Y0045466D01*
X0235119Y0042361D01*
X0234430Y0041672D01*
X0234430Y0040777D01*
X0233334Y0039681D01*
X0233334Y0039681D01*
X0232461Y0038808D01*
X0232461Y0038402D01*
X0232956Y0038402D01*
X0233252Y0038697D01*
X0239033Y0038697D01*
X0239525Y0038205D01*
X0263156Y0038205D01*
X0267566Y0038291D01*
X0267578Y0038303D01*
X0268176Y0038303D01*
X0268772Y0038315D01*
X0268784Y0038303D01*
X0277229Y0038303D01*
X0277229Y0039130D01*
X0279863Y0039130D01*
X0279863Y0039209D01*
X0279863Y0041429D01*
X0278439Y0041429D01*
X0278085Y0041334D01*
X0277767Y0041151D01*
X0277508Y0040891D01*
X0277324Y0040573D01*
X0277229Y0040219D01*
X0277229Y0039209D01*
X0279863Y0039209D01*
X0279942Y0039209D01*
X0279942Y0041429D01*
X0280591Y0041429D01*
X0280591Y0043320D01*
X0281083Y0043812D01*
X0281083Y0049133D01*
X0280962Y0049429D01*
X0281083Y0049720D01*
X0281083Y0050037D01*
X0281309Y0050263D01*
X0281549Y0050839D01*
X0281463Y0050925D01*
X0281463Y0052649D01*
X0282682Y0053868D01*
X0284406Y0053868D01*
X0285625Y0052649D01*
X0285625Y0050925D01*
X0284406Y0049706D01*
X0284276Y0049706D01*
X0284036Y0049130D01*
X0284036Y0043812D01*
X0284236Y0043612D01*
X0285438Y0044813D01*
X0287162Y0044813D01*
X0288381Y0043594D01*
X0288381Y0041870D01*
X0287162Y0040651D01*
X0286526Y0040651D01*
X0286202Y0040246D01*
X0286202Y0040152D01*
X0285827Y0039778D01*
X0285496Y0039364D01*
X0285403Y0039354D01*
X0285337Y0039287D01*
X0284807Y0039287D01*
X0284741Y0039280D01*
X0284741Y0039189D01*
X0283935Y0039189D01*
X0283935Y0039189D01*
X0283935Y0039189D01*
X0284741Y0039189D01*
X0284741Y0038513D01*
X0284646Y0038159D01*
X0284528Y0037955D01*
X0284528Y0037516D01*
X0287257Y0037516D01*
X0288977Y0038049D01*
X0288957Y0038068D01*
X0288957Y0062492D01*
X0037381Y0062492D01*
X0008191Y0046276D01*
X0036688Y0046276D01*
X0036891Y0046073D01*
X0036891Y0046534D01*
X0037813Y0047457D01*
X0056978Y0047457D01*
X0056878Y0047557D01*
X0056603Y0048032D01*
X0056461Y0048562D01*
X0056461Y0050409D01*
X0060513Y0050409D01*
X0060513Y0051197D01*
X0060513Y0054854D01*
X0058272Y0054854D01*
X0057741Y0054712D01*
X0057266Y0054438D01*
X0056878Y0054050D01*
X0022185Y0054050D01*
X0020771Y0053264D02*
X0056520Y0053264D01*
X0056461Y0053044D02*
X0056461Y0051197D01*
X0060513Y0051197D01*
X0061300Y0051197D01*
X0061300Y0054854D01*
X0063541Y0054854D01*
X0064071Y0054712D01*
X0064547Y0054438D01*
X0064935Y0054050D01*
X0065209Y0053574D01*
X0065351Y0053044D01*
X0065351Y0051197D01*
X0061300Y0051197D01*
X0061300Y0050409D01*
X0065351Y0050409D01*
X0065351Y0048562D01*
X0065209Y0048032D01*
X0064935Y0047557D01*
X0064835Y0047457D01*
X0074600Y0047457D01*
X0074645Y0047502D01*
X0078624Y0047502D01*
X0079135Y0046991D01*
X0079608Y0047465D01*
X0078707Y0048366D01*
X0078707Y0050090D01*
X0079926Y0051309D01*
X0081650Y0051309D01*
X0082869Y0050090D01*
X0082869Y0049792D01*
X0082954Y0049708D01*
X0082954Y0052243D01*
X0083876Y0053165D01*
X0089708Y0053165D01*
X0090631Y0052243D01*
X0090631Y0047502D01*
X0091339Y0047502D01*
X0091489Y0047612D01*
X0092000Y0047533D01*
X0092021Y0047555D01*
X0092752Y0047555D01*
X0093481Y0047590D01*
X0093519Y0047555D01*
X0103242Y0047555D01*
X0103328Y0047641D01*
X0104423Y0048736D01*
X0133138Y0048736D01*
X0134233Y0047641D01*
X0134233Y0037430D01*
X0134220Y0037417D01*
X0137262Y0037417D01*
X0137951Y0036728D01*
X0138192Y0036728D01*
X0138291Y0036827D01*
X0137875Y0037243D01*
X0137875Y0040348D01*
X0138684Y0041157D01*
X0142183Y0041157D01*
X0142676Y0040665D01*
X0142917Y0040665D01*
X0143409Y0041157D01*
X0146413Y0041157D01*
X0146228Y0041342D01*
X0145749Y0042499D01*
X0145749Y0043752D01*
X0146228Y0044910D01*
X0147114Y0045796D01*
X0148272Y0046276D01*
X0149525Y0046276D01*
X0150683Y0045796D01*
X0151470Y0045009D01*
X0152021Y0045070D01*
X0152113Y0044996D01*
X0152232Y0044996D01*
X0152707Y0044522D01*
X0152834Y0044420D01*
X0153304Y0044420D01*
X0154523Y0043201D01*
X0154523Y0041477D01*
X0154312Y0041266D01*
X0154312Y0038697D01*
X0155293Y0038697D01*
X0155985Y0038005D01*
X0155985Y0035452D01*
X0155982Y0035449D01*
X0155985Y0035446D01*
X0155985Y0033139D01*
X0156103Y0032936D01*
X0156198Y0032581D01*
X0156198Y0031610D01*
X0152442Y0031610D01*
X0152442Y0031610D01*
X0152442Y0029051D01*
X0152442Y0029051D01*
X0156198Y0029051D01*
X0156198Y0028080D01*
X0156103Y0027726D01*
X0155919Y0027408D01*
X0155660Y0027149D01*
X0155342Y0026965D01*
X0154987Y0026870D01*
X0152442Y0026870D01*
X0152442Y0029051D01*
X0152442Y0029051D01*
X0156198Y0029051D01*
X0156198Y0030022D01*
X0156115Y0030331D01*
X0156198Y0030639D01*
X0156198Y0031610D01*
X0152442Y0031610D01*
X0152442Y0031610D01*
X0152442Y0031232D01*
X0152442Y0029051D01*
X0152442Y0026870D01*
X0149896Y0026870D01*
X0149542Y0026965D01*
X0149224Y0027149D01*
X0148964Y0027408D01*
X0148781Y0027726D01*
X0148686Y0028080D01*
X0148686Y0029051D01*
X0152442Y0029051D01*
X0152442Y0029051D01*
X0152442Y0029051D01*
X0148686Y0029051D01*
X0148686Y0030022D01*
X0148769Y0030331D01*
X0148686Y0030639D01*
X0148686Y0031610D01*
X0152442Y0031610D01*
X0152442Y0031610D01*
X0148686Y0031610D01*
X0148686Y0032201D01*
X0146635Y0032201D01*
X0146635Y0027391D01*
X0145933Y0026689D01*
X0147614Y0026689D01*
X0149242Y0026015D01*
X0150488Y0024769D01*
X0150752Y0024130D01*
X0153350Y0024130D01*
X0154039Y0024819D01*
X0157144Y0024819D01*
X0157560Y0024403D01*
X0157976Y0024819D01*
X0161081Y0024819D01*
X0161770Y0024130D01*
X0186055Y0024130D01*
X0186297Y0024251D01*
X0186843Y0024660D01*
X0187297Y0025114D01*
X0187448Y0025114D01*
X0187569Y0025205D01*
X0188205Y0025114D01*
X0197586Y0025114D01*
X0200315Y0022386D01*
X0203583Y0022386D01*
X0206032Y0019937D01*
X0206032Y0016473D01*
X0204634Y0015075D01*
X0206077Y0015075D01*
X0207670Y0016668D01*
X0207670Y0019937D01*
X0210119Y0022386D01*
X0213583Y0022386D01*
X0216032Y0019937D01*
X0216032Y0016473D01*
X0213583Y0014024D01*
X0210315Y0014024D01*
X0207626Y0011335D01*
X0204935Y0011335D01*
X0206245Y0010025D01*
X0206245Y0008598D01*
X0202245Y0008598D01*
X0202245Y0007811D01*
X0206245Y0007811D01*
X0206245Y0006385D01*
X0203671Y0003811D01*
X0202245Y0003811D01*
X0202245Y0007811D01*
X0201457Y0007811D01*
X0197457Y0007811D01*
X0197457Y0006385D01*
X0200031Y0003811D01*
X0201457Y0003811D01*
X0201457Y0007811D01*
X0201457Y0008598D01*
X0197457Y0008598D01*
X0197457Y0010025D01*
X0198767Y0011335D01*
X0194935Y0011335D01*
X0196245Y0010025D01*
X0196245Y0008598D01*
X0192245Y0008598D01*
X0192245Y0007811D01*
X0196245Y0007811D01*
X0196245Y0006385D01*
X0193671Y0003811D01*
X0192245Y0003811D01*
X0192245Y0007811D01*
X0191457Y0007811D01*
X0187457Y0007811D01*
X0187457Y0006385D01*
X0190031Y0003811D01*
X0191457Y0003811D01*
X0191457Y0007811D01*
X0191457Y0008598D01*
X0187457Y0008598D01*
X0187457Y0010025D01*
X0188767Y0011335D01*
X0183557Y0011335D01*
X0182461Y0012430D01*
X0182461Y0012430D01*
X0177848Y0017043D01*
X0164634Y0017043D01*
X0164043Y0016453D01*
X0152232Y0016453D01*
X0151051Y0015272D01*
X0124202Y0015272D01*
X0123755Y0015123D01*
X0123457Y0015272D01*
X0123124Y0015272D01*
X0122791Y0015605D01*
X0121488Y0016256D01*
X0106083Y0016256D01*
X0106083Y0015473D01*
X0105409Y0013845D01*
X0104163Y0012599D01*
X0102535Y0011925D01*
X0100773Y0011925D01*
X0099145Y0012599D01*
X0099032Y0012713D01*
X0098581Y0012713D01*
X0098223Y0012355D01*
X0098299Y0012311D01*
X0098596Y0012014D01*
X0098805Y0011651D01*
X0098914Y0011245D01*
X0098914Y0010055D01*
X0098914Y0010825D02*
X0109965Y0010825D01*
X0109800Y0010039D02*
X0096536Y0010039D01*
X0096536Y0009253D02*
X0096142Y0009253D01*
X0096142Y0008467D02*
X0096536Y0008467D01*
X0096536Y0007681D02*
X0096142Y0007681D01*
X0090468Y0007681D02*
X0075075Y0007681D01*
X0075401Y0008467D02*
X0090040Y0008467D01*
X0090040Y0009253D02*
X0075473Y0009253D01*
X0075413Y0010039D02*
X0090040Y0010039D01*
X0090040Y0010825D02*
X0075088Y0010825D01*
X0074435Y0011611D02*
X0090043Y0011611D01*
X0090237Y0012396D02*
X0073000Y0012396D01*
X0071647Y0012396D02*
X0065313Y0012396D01*
X0065351Y0013182D02*
X0085819Y0013182D01*
X0085033Y0013968D02*
X0065351Y0013968D01*
X0065351Y0015540D02*
X0084528Y0015540D01*
X0078596Y0015540D01*
X0078606Y0014754D02*
X0084528Y0014754D01*
X0061300Y0014754D01*
X0061300Y0013968D02*
X0060513Y0013968D01*
X0060513Y0013182D02*
X0061300Y0013182D01*
X0061300Y0012396D02*
X0060513Y0012396D01*
X0060513Y0011611D02*
X0061300Y0011611D01*
X0061300Y0010825D02*
X0060513Y0010825D01*
X0057912Y0010825D02*
X0023814Y0010825D01*
X0022400Y0011611D02*
X0056833Y0011611D01*
X0056499Y0012396D02*
X0020985Y0012396D01*
X0019570Y0013182D02*
X0056461Y0013182D01*
X0056461Y0013968D02*
X0018156Y0013968D01*
X0016741Y0014754D02*
X0060513Y0014754D01*
X0056461Y0015540D02*
X0015326Y0015540D01*
X0013912Y0016326D02*
X0056461Y0016326D01*
X0056486Y0017112D02*
X0012497Y0017112D01*
X0011082Y0017898D02*
X0056804Y0017898D01*
X0065009Y0017898D02*
X0084528Y0017898D01*
X0078566Y0017898D01*
X0078576Y0017112D02*
X0084528Y0017112D01*
X0065327Y0017112D01*
X0065351Y0016326D02*
X0084528Y0016326D01*
X0078586Y0016326D01*
X0078616Y0013968D02*
X0084528Y0013968D01*
X0093955Y0017142D02*
X0094371Y0016726D01*
X0094787Y0017142D01*
X0097225Y0017142D01*
X0097225Y0017235D01*
X0097544Y0018005D01*
X0097358Y0018203D01*
X0096831Y0018729D01*
X0096831Y0018764D01*
X0096807Y0018790D01*
X0096831Y0019534D01*
X0096831Y0020412D01*
X0096339Y0020904D01*
X0096339Y0024403D01*
X0096831Y0024895D01*
X0096831Y0025136D01*
X0096339Y0025628D01*
X0096339Y0029128D01*
X0096831Y0029620D01*
X0096831Y0029861D01*
X0096460Y0030232D01*
X0096428Y0030232D01*
X0096414Y0030218D01*
X0094690Y0030218D01*
X0093471Y0031437D01*
X0093471Y0033161D01*
X0094690Y0034380D01*
X0096414Y0034380D01*
X0096641Y0034153D01*
X0096831Y0034344D01*
X0096831Y0034585D01*
X0096339Y0035077D01*
X0096339Y0038576D01*
X0096831Y0039068D01*
X0096831Y0039309D01*
X0096339Y0039802D01*
X0096339Y0043301D01*
X0096854Y0043815D01*
X0094316Y0043815D01*
X0094316Y0040151D01*
X0093624Y0039459D01*
X0090631Y0039459D01*
X0090631Y0033222D01*
X0089708Y0032299D01*
X0072683Y0032299D01*
X0072733Y0032111D01*
X0072733Y0031118D01*
X0070158Y0031118D01*
X0070158Y0030724D01*
X0070158Y0028346D01*
X0071348Y0028346D01*
X0071754Y0028455D01*
X0072118Y0028665D01*
X0072414Y0028962D01*
X0072624Y0029325D01*
X0072733Y0029731D01*
X0072733Y0030724D01*
X0070158Y0030724D01*
X0069765Y0030724D01*
X0069765Y0028346D01*
X0068574Y0028346D01*
X0068169Y0028455D01*
X0067805Y0028665D01*
X0067599Y0028871D01*
X0067393Y0028665D01*
X0067030Y0028455D01*
X0066624Y0028346D01*
X0065434Y0028346D01*
X0065434Y0030724D01*
X0065040Y0030724D01*
X0065040Y0028346D01*
X0063850Y0028346D01*
X0063444Y0028455D01*
X0063081Y0028665D01*
X0062784Y0028962D01*
X0062574Y0029325D01*
X0062465Y0029731D01*
X0062465Y0030724D01*
X0065040Y0030724D01*
X0065040Y0031118D01*
X0062465Y0031118D01*
X0062465Y0032111D01*
X0062574Y0032517D01*
X0062784Y0032881D01*
X0062803Y0032900D01*
X0062481Y0033222D01*
X0062481Y0038660D01*
X0062813Y0038992D01*
X0057818Y0038992D01*
X0057560Y0038734D01*
X0057560Y0033812D01*
X0056736Y0032988D01*
X0057560Y0032164D01*
X0057560Y0027637D01*
X0058212Y0026984D01*
X0078488Y0026984D01*
X0079248Y0026224D01*
X0079279Y0026255D01*
X0079597Y0026438D01*
X0079951Y0026533D01*
X0081278Y0026533D01*
X0081278Y0022656D01*
X0081991Y0022656D01*
X0081991Y0026533D01*
X0083318Y0026533D01*
X0083673Y0026438D01*
X0083990Y0026255D01*
X0084250Y0025996D01*
X0084276Y0025951D01*
X0084645Y0026321D01*
X0088624Y0026321D01*
X0089135Y0025810D01*
X0089645Y0026321D01*
X0093624Y0026321D01*
X0094316Y0025629D01*
X0094316Y0018969D01*
X0093624Y0018278D01*
X0089645Y0018278D01*
X0089135Y0018788D01*
X0088859Y0018513D01*
X0088859Y0016748D01*
X0090456Y0016748D01*
X0090850Y0017142D01*
X0093955Y0017142D01*
X0093985Y0017112D02*
X0094757Y0017112D01*
X0097500Y0017898D02*
X0088859Y0017898D01*
X0088859Y0017112D02*
X0090820Y0017112D01*
X0089239Y0018684D02*
X0089030Y0018684D01*
X0084239Y0018684D02*
X0079030Y0018684D01*
X0079410Y0019470D02*
X0083954Y0019470D01*
X0083954Y0020256D02*
X0079410Y0020256D01*
X0079410Y0021042D02*
X0083954Y0021042D01*
X0083954Y0021827D02*
X0079410Y0021827D01*
X0079410Y0022613D02*
X0083954Y0022613D01*
X0083954Y0023399D02*
X0079410Y0023399D01*
X0079410Y0024185D02*
X0083954Y0024185D01*
X0083954Y0024971D02*
X0079410Y0024971D01*
X0079410Y0025757D02*
X0084082Y0025757D01*
X0084528Y0026543D02*
X0078929Y0026543D01*
X0096339Y0026543D01*
X0096339Y0027329D02*
X0057868Y0027329D01*
X0057560Y0028115D02*
X0096339Y0028115D01*
X0096339Y0028901D02*
X0072353Y0028901D01*
X0072721Y0029687D02*
X0096831Y0029687D01*
X0094436Y0030472D02*
X0072733Y0030472D01*
X0072733Y0031258D02*
X0093650Y0031258D01*
X0093471Y0032044D02*
X0072733Y0032044D01*
X0069764Y0031118D02*
X0069764Y0030724D01*
X0065434Y0030724D01*
X0065434Y0031118D01*
X0068009Y0031118D01*
X0069764Y0031118D01*
X0069765Y0030472D02*
X0070158Y0030472D01*
X0070158Y0029687D02*
X0069765Y0029687D01*
X0069765Y0028901D02*
X0070158Y0028901D01*
X0065434Y0028901D02*
X0065040Y0028901D01*
X0065040Y0029687D02*
X0065434Y0029687D01*
X0065434Y0030472D02*
X0065040Y0030472D01*
X0063072Y0030472D02*
X0084528Y0030472D01*
X0084528Y0029687D02*
X0063072Y0029687D01*
X0062477Y0029687D02*
X0057560Y0029687D01*
X0057560Y0030472D02*
X0062465Y0030472D01*
X0062465Y0031258D02*
X0057560Y0031258D01*
X0057560Y0032044D02*
X0062465Y0032044D01*
X0063072Y0032044D02*
X0084528Y0032044D01*
X0084528Y0031258D02*
X0063072Y0031258D01*
X0062755Y0032830D02*
X0056894Y0032830D01*
X0057364Y0033616D02*
X0062481Y0033616D01*
X0062481Y0034402D02*
X0057560Y0034402D01*
X0057560Y0035188D02*
X0062481Y0035188D01*
X0062481Y0035974D02*
X0057560Y0035974D01*
X0057560Y0036760D02*
X0062481Y0036760D01*
X0062481Y0037546D02*
X0057560Y0037546D01*
X0057560Y0038332D02*
X0062481Y0038332D01*
X0064056Y0038008D02*
X0083347Y0038008D01*
X0084528Y0039189D01*
X0084528Y0051591D01*
X0089056Y0051591D01*
X0089056Y0046912D01*
X0088954Y0046810D01*
X0088954Y0040151D01*
X0089056Y0040048D01*
X0089056Y0033874D01*
X0064056Y0033874D01*
X0064056Y0038008D01*
X0064056Y0037546D02*
X0089056Y0037546D01*
X0089056Y0038332D02*
X0083671Y0038332D01*
X0084457Y0039118D02*
X0089056Y0039118D01*
X0089056Y0039903D02*
X0084528Y0039903D01*
X0084528Y0040689D02*
X0088954Y0040689D01*
X0088954Y0041475D02*
X0084528Y0041475D01*
X0084528Y0042261D02*
X0088954Y0042261D01*
X0088954Y0043047D02*
X0084528Y0043047D01*
X0084528Y0043833D02*
X0088954Y0043833D01*
X0088954Y0044619D02*
X0084528Y0044619D01*
X0084528Y0045405D02*
X0088954Y0045405D01*
X0088954Y0046191D02*
X0084528Y0046191D01*
X0084528Y0046977D02*
X0089056Y0046977D01*
X0089056Y0047763D02*
X0084528Y0047763D01*
X0084528Y0048548D02*
X0089056Y0048548D01*
X0089056Y0049334D02*
X0084528Y0049334D01*
X0084528Y0050120D02*
X0089056Y0050120D01*
X0089056Y0050906D02*
X0084528Y0050906D01*
X0082954Y0050906D02*
X0082053Y0050906D01*
X0082839Y0050120D02*
X0082954Y0050120D01*
X0079523Y0050906D02*
X0061300Y0050906D01*
X0061300Y0051692D02*
X0060513Y0051692D01*
X0060513Y0050906D02*
X0016527Y0050906D01*
X0017941Y0051692D02*
X0056461Y0051692D01*
X0056461Y0052478D02*
X0019356Y0052478D01*
X0023600Y0054836D02*
X0058202Y0054836D01*
X0056878Y0054050D02*
X0056603Y0053574D01*
X0056461Y0053044D01*
X0060513Y0053264D02*
X0061300Y0053264D01*
X0061300Y0054050D02*
X0060513Y0054050D01*
X0060513Y0054836D02*
X0061300Y0054836D01*
X0063610Y0054836D02*
X0110014Y0054836D01*
X0109800Y0055352D02*
X0110688Y0053209D01*
X0112328Y0051569D01*
X0114471Y0050681D01*
X0116791Y0050681D01*
X0118934Y0051569D01*
X0120574Y0053209D01*
X0121461Y0055352D01*
X0121461Y0057672D01*
X0120574Y0059815D01*
X0118934Y0061455D01*
X0116791Y0062343D01*
X0114471Y0062343D01*
X0112328Y0061455D01*
X0110688Y0059815D01*
X0109800Y0057672D01*
X0109800Y0055352D01*
X0109800Y0055622D02*
X0025014Y0055622D01*
X0026429Y0056408D02*
X0109800Y0056408D01*
X0109800Y0057194D02*
X0027844Y0057194D01*
X0029258Y0057979D02*
X0109928Y0057979D01*
X0110253Y0058765D02*
X0030673Y0058765D01*
X0032088Y0059551D02*
X0110579Y0059551D01*
X0111210Y0060337D02*
X0033502Y0060337D01*
X0034917Y0061123D02*
X0111996Y0061123D01*
X0113424Y0061909D02*
X0036332Y0061909D01*
X0064934Y0054050D02*
X0110339Y0054050D01*
X0110665Y0053264D02*
X0065292Y0053264D01*
X0065351Y0052478D02*
X0083189Y0052478D01*
X0082954Y0051692D02*
X0065351Y0051692D01*
X0061300Y0052478D02*
X0060513Y0052478D01*
X0056461Y0050120D02*
X0015112Y0050120D01*
X0013697Y0049334D02*
X0056461Y0049334D01*
X0056465Y0048548D02*
X0012283Y0048548D01*
X0010868Y0047763D02*
X0056759Y0047763D01*
X0065054Y0047763D02*
X0079311Y0047763D01*
X0078707Y0048548D02*
X0065348Y0048548D01*
X0065351Y0049334D02*
X0078707Y0049334D01*
X0078737Y0050120D02*
X0065351Y0050120D01*
X0077835Y0045882D02*
X0077835Y0040567D01*
X0057166Y0040567D01*
X0055985Y0039386D01*
X0055985Y0034465D01*
X0038465Y0034465D01*
X0038465Y0045882D01*
X0077835Y0045882D01*
X0077835Y0045405D02*
X0038465Y0045405D01*
X0038465Y0044619D02*
X0077835Y0044619D01*
X0077835Y0043833D02*
X0038465Y0043833D01*
X0038465Y0043047D02*
X0077835Y0043047D01*
X0077835Y0042261D02*
X0038465Y0042261D01*
X0038465Y0041475D02*
X0077835Y0041475D01*
X0077835Y0040689D02*
X0038465Y0040689D01*
X0038465Y0039903D02*
X0056503Y0039903D01*
X0055985Y0039118D02*
X0038465Y0039118D01*
X0038465Y0038332D02*
X0055985Y0038332D01*
X0055985Y0037546D02*
X0038465Y0037546D01*
X0038465Y0036760D02*
X0055985Y0036760D01*
X0055985Y0035974D02*
X0038465Y0035974D01*
X0038465Y0035188D02*
X0055985Y0035188D01*
X0064056Y0035188D02*
X0089056Y0035188D01*
X0089056Y0035974D02*
X0064056Y0035974D01*
X0064056Y0036760D02*
X0089056Y0036760D01*
X0090631Y0036760D02*
X0096339Y0036760D01*
X0096339Y0037546D02*
X0090631Y0037546D01*
X0090631Y0038332D02*
X0096339Y0038332D01*
X0096831Y0039118D02*
X0090631Y0039118D01*
X0094069Y0039903D02*
X0096339Y0039903D01*
X0096339Y0040689D02*
X0094316Y0040689D01*
X0094316Y0041475D02*
X0096339Y0041475D01*
X0096339Y0042261D02*
X0094316Y0042261D01*
X0094316Y0043047D02*
X0096339Y0043047D01*
X0105382Y0039681D02*
X0106477Y0040777D01*
X0106753Y0041053D01*
X0108025Y0041053D01*
X0109239Y0042267D01*
X0109239Y0043985D01*
X0108228Y0044996D01*
X0112292Y0044996D01*
X0112269Y0044907D01*
X0112269Y0043717D01*
X0114646Y0043717D01*
X0114646Y0043323D01*
X0112269Y0043323D01*
X0112269Y0042133D01*
X0112377Y0041727D01*
X0112587Y0041363D01*
X0112884Y0041067D01*
X0113248Y0040857D01*
X0113653Y0040748D01*
X0114646Y0040748D01*
X0114646Y0043323D01*
X0115040Y0043323D01*
X0115040Y0040748D01*
X0116034Y0040748D01*
X0116439Y0040857D01*
X0116803Y0041067D01*
X0116812Y0041076D01*
X0116812Y0039878D01*
X0116037Y0039878D01*
X0114942Y0038782D01*
X0114942Y0034871D01*
X0115525Y0034287D01*
X0115517Y0034254D01*
X0115517Y0033087D01*
X0118780Y0033087D01*
X0118780Y0032693D01*
X0115517Y0032693D01*
X0115517Y0031525D01*
X0115612Y0031171D01*
X0115783Y0030874D01*
X0115729Y0030820D01*
X0115729Y0027479D01*
X0116421Y0026787D01*
X0121533Y0026787D01*
X0122025Y0027280D01*
X0123625Y0027280D01*
X0123308Y0026962D01*
X0123308Y0023857D01*
X0123573Y0023591D01*
X0123414Y0023432D01*
X0123204Y0023068D01*
X0123095Y0022663D01*
X0123095Y0021669D01*
X0125670Y0021669D01*
X0125670Y0021276D01*
X0123095Y0021276D01*
X0123095Y0020282D01*
X0123204Y0019877D01*
X0123414Y0019513D01*
X0123490Y0019437D01*
X0123038Y0019663D01*
X0122705Y0019996D01*
X0122371Y0019996D01*
X0122073Y0020145D01*
X0121626Y0019996D01*
X0104276Y0019996D01*
X0104264Y0020008D01*
X0104598Y0020200D01*
X0104895Y0020497D01*
X0105105Y0020861D01*
X0105213Y0021266D01*
X0105213Y0022457D01*
X0102836Y0022457D01*
X0102836Y0022850D01*
X0105213Y0022850D01*
X0105213Y0024041D01*
X0105105Y0024446D01*
X0104895Y0024810D01*
X0104689Y0025016D01*
X0104895Y0025222D01*
X0105105Y0025585D01*
X0105213Y0025991D01*
X0105213Y0027064D01*
X0105425Y0026853D01*
X0105742Y0026670D01*
X0106097Y0026575D01*
X0108150Y0026575D01*
X0108150Y0028953D01*
X0108544Y0028953D01*
X0108544Y0029346D01*
X0111808Y0029346D01*
X0111808Y0030514D01*
X0111713Y0030869D01*
X0111626Y0031020D01*
X0111713Y0031171D01*
X0111808Y0031525D01*
X0111808Y0032693D01*
X0108544Y0032693D01*
X0108544Y0030315D01*
X0108544Y0029347D01*
X0108150Y0029347D01*
X0108150Y0032693D01*
X0108544Y0032693D01*
X0108544Y0033087D01*
X0111808Y0033087D01*
X0111808Y0034254D01*
X0111713Y0034609D01*
X0111541Y0034906D01*
X0111595Y0034960D01*
X0111595Y0038300D01*
X0110903Y0038992D01*
X0105791Y0038992D01*
X0105299Y0038500D01*
X0105001Y0038500D01*
X0105001Y0038576D01*
X0104388Y0039189D01*
X0104880Y0039681D01*
X0105382Y0039681D01*
X0105604Y0039903D02*
X0116812Y0039903D01*
X0116812Y0040689D02*
X0106390Y0040689D01*
X0108447Y0041475D02*
X0112523Y0041475D01*
X0112269Y0042261D02*
X0109233Y0042261D01*
X0109239Y0043047D02*
X0112269Y0043047D01*
X0112269Y0043833D02*
X0109239Y0043833D01*
X0108605Y0044619D02*
X0112269Y0044619D01*
X0114646Y0043047D02*
X0115040Y0043047D01*
X0115040Y0042261D02*
X0114646Y0042261D01*
X0114646Y0041475D02*
X0115040Y0041475D01*
X0115277Y0039118D02*
X0104460Y0039118D01*
X0111564Y0038332D02*
X0114942Y0038332D01*
X0114942Y0037546D02*
X0111595Y0037546D01*
X0111595Y0036760D02*
X0114942Y0036760D01*
X0114942Y0035974D02*
X0111595Y0035974D01*
X0111595Y0035188D02*
X0114942Y0035188D01*
X0115411Y0034402D02*
X0111768Y0034402D01*
X0111808Y0033616D02*
X0115517Y0033616D01*
X0118780Y0032830D02*
X0108544Y0032830D01*
X0108544Y0032044D02*
X0108150Y0032044D01*
X0108150Y0031258D02*
X0108544Y0031258D01*
X0108544Y0030472D02*
X0108150Y0030472D01*
X0108150Y0029687D02*
X0108544Y0029687D01*
X0108544Y0028953D02*
X0111808Y0028953D01*
X0111808Y0027785D01*
X0111713Y0027431D01*
X0111529Y0027113D01*
X0111270Y0026853D01*
X0110952Y0026670D01*
X0110598Y0026575D01*
X0108544Y0026575D01*
X0108544Y0028953D01*
X0108544Y0028901D02*
X0108150Y0028901D01*
X0108150Y0028115D02*
X0108544Y0028115D01*
X0108544Y0027329D02*
X0108150Y0027329D01*
X0105213Y0026543D02*
X0123308Y0026543D01*
X0123308Y0025757D02*
X0105151Y0025757D01*
X0104733Y0024971D02*
X0123308Y0024971D01*
X0123308Y0024185D02*
X0105175Y0024185D01*
X0105213Y0023399D02*
X0123395Y0023399D01*
X0123095Y0022613D02*
X0102836Y0022613D01*
X0102835Y0022850D02*
X0102442Y0022850D01*
X0102442Y0027181D01*
X0102835Y0027181D01*
X0102835Y0025425D01*
X0102835Y0022850D01*
X0102835Y0023399D02*
X0102442Y0023399D01*
X0102442Y0024185D02*
X0102835Y0024185D01*
X0102835Y0024971D02*
X0102442Y0024971D01*
X0102442Y0025757D02*
X0102835Y0025757D01*
X0102835Y0026543D02*
X0102442Y0026543D01*
X0102442Y0027575D02*
X0102442Y0030150D01*
X0102442Y0031905D01*
X0102835Y0031905D01*
X0102835Y0027575D01*
X0102442Y0027575D01*
X0102442Y0028115D02*
X0102835Y0028115D01*
X0102835Y0028901D02*
X0102442Y0028901D01*
X0102442Y0029687D02*
X0102835Y0029687D01*
X0102835Y0030472D02*
X0102442Y0030472D01*
X0102442Y0031258D02*
X0102835Y0031258D01*
X0111736Y0031258D02*
X0115588Y0031258D01*
X0115517Y0032044D02*
X0111808Y0032044D01*
X0111808Y0030472D02*
X0115729Y0030472D01*
X0115729Y0029687D02*
X0111808Y0029687D01*
X0111808Y0028901D02*
X0115729Y0028901D01*
X0115729Y0028115D02*
X0111808Y0028115D01*
X0111654Y0027329D02*
X0115880Y0027329D01*
X0128010Y0027378D02*
X0128426Y0026962D01*
X0128426Y0023857D01*
X0128161Y0023591D01*
X0128320Y0023432D01*
X0128530Y0023068D01*
X0128639Y0022663D01*
X0128639Y0021669D01*
X0126064Y0021669D01*
X0126064Y0021276D01*
X0128639Y0021276D01*
X0128639Y0020282D01*
X0128530Y0019877D01*
X0128320Y0019513D01*
X0128023Y0019216D01*
X0127669Y0019012D01*
X0143717Y0019012D01*
X0143324Y0019406D01*
X0132376Y0019406D01*
X0131280Y0020501D01*
X0129902Y0021879D01*
X0129902Y0023428D01*
X0129902Y0031131D01*
X0129004Y0030232D01*
X0128426Y0030232D01*
X0128426Y0027794D01*
X0128010Y0027378D01*
X0128059Y0027329D02*
X0129902Y0027329D01*
X0129902Y0028115D02*
X0128426Y0028115D01*
X0128426Y0028901D02*
X0129902Y0028901D01*
X0129902Y0029687D02*
X0128426Y0029687D01*
X0129244Y0030472D02*
X0129902Y0030472D01*
X0129902Y0026543D02*
X0128426Y0026543D01*
X0128426Y0025757D02*
X0129902Y0025757D01*
X0129902Y0024971D02*
X0128426Y0024971D01*
X0128426Y0024185D02*
X0129902Y0024185D01*
X0129902Y0023399D02*
X0128339Y0023399D01*
X0128639Y0022613D02*
X0129902Y0022613D01*
X0129954Y0021827D02*
X0128639Y0021827D01*
X0128639Y0021042D02*
X0130740Y0021042D01*
X0131526Y0020256D02*
X0128631Y0020256D01*
X0128277Y0019470D02*
X0132312Y0019470D01*
X0123457Y0019470D02*
X0123424Y0019470D01*
X0123102Y0020256D02*
X0104653Y0020256D01*
X0105153Y0021042D02*
X0123095Y0021042D01*
X0123095Y0021827D02*
X0105213Y0021827D01*
X0096831Y0020256D02*
X0094316Y0020256D01*
X0094316Y0021042D02*
X0096339Y0021042D01*
X0096339Y0021827D02*
X0094316Y0021827D01*
X0094316Y0022613D02*
X0096339Y0022613D01*
X0096339Y0023399D02*
X0094316Y0023399D01*
X0094316Y0024185D02*
X0096339Y0024185D01*
X0096831Y0024971D02*
X0094316Y0024971D01*
X0094188Y0025757D02*
X0096339Y0025757D01*
X0084528Y0027329D02*
X0078447Y0027329D01*
X0078437Y0028115D02*
X0084528Y0028115D01*
X0084528Y0028901D02*
X0078427Y0028901D01*
X0077835Y0025409D02*
X0077835Y0019898D01*
X0038269Y0019898D01*
X0038269Y0031512D01*
X0055985Y0031512D01*
X0055985Y0026984D01*
X0057560Y0025409D01*
X0077835Y0025409D01*
X0077835Y0024971D02*
X0038269Y0024971D01*
X0038269Y0024185D02*
X0077835Y0024185D01*
X0077835Y0023399D02*
X0038269Y0023399D01*
X0038269Y0022613D02*
X0077835Y0022613D01*
X0077835Y0021827D02*
X0038269Y0021827D01*
X0038269Y0021042D02*
X0077835Y0021042D01*
X0077835Y0020256D02*
X0038269Y0020256D01*
X0036694Y0020256D02*
X0006838Y0020256D01*
X0008253Y0019470D02*
X0036694Y0019470D01*
X0037255Y0018684D02*
X0009668Y0018684D01*
X0003914Y0021880D02*
X0003351Y0022193D01*
X0003351Y0031326D01*
X0035709Y0031512D01*
X0035709Y0022063D01*
X0003914Y0021880D01*
X0003351Y0022613D02*
X0035709Y0022613D01*
X0035709Y0023399D02*
X0003351Y0023399D01*
X0003351Y0024185D02*
X0035709Y0024185D01*
X0035709Y0024971D02*
X0003351Y0024971D01*
X0003351Y0025757D02*
X0035709Y0025757D01*
X0035709Y0026543D02*
X0003351Y0026543D01*
X0003351Y0027329D02*
X0035709Y0027329D01*
X0035709Y0028115D02*
X0003351Y0028115D01*
X0003351Y0028901D02*
X0035709Y0028901D01*
X0035709Y0029687D02*
X0003351Y0029687D01*
X0003351Y0030472D02*
X0035709Y0030472D01*
X0035709Y0031258D02*
X0003351Y0031258D01*
X0003426Y0034465D02*
X0003426Y0043543D01*
X0004094Y0043913D01*
X0035709Y0043913D01*
X0035709Y0034465D01*
X0003426Y0034465D01*
X0003426Y0035188D02*
X0035709Y0035188D01*
X0035709Y0035974D02*
X0003426Y0035974D01*
X0003426Y0036760D02*
X0035709Y0036760D01*
X0035709Y0037546D02*
X0003426Y0037546D01*
X0003426Y0038332D02*
X0035709Y0038332D01*
X0035709Y0039118D02*
X0003426Y0039118D01*
X0003426Y0039903D02*
X0035709Y0039903D01*
X0035709Y0040689D02*
X0003426Y0040689D01*
X0003426Y0041475D02*
X0035709Y0041475D01*
X0035709Y0042261D02*
X0003426Y0042261D01*
X0003426Y0043047D02*
X0035709Y0043047D01*
X0035709Y0043833D02*
X0003949Y0043833D01*
X0009453Y0046977D02*
X0037333Y0046977D01*
X0036891Y0046191D02*
X0036773Y0046191D01*
X0064056Y0034402D02*
X0089056Y0034402D01*
X0090631Y0034402D02*
X0096831Y0034402D01*
X0096339Y0035188D02*
X0090631Y0035188D01*
X0090631Y0035974D02*
X0096339Y0035974D01*
X0093926Y0033616D02*
X0090631Y0033616D01*
X0090239Y0032830D02*
X0093471Y0032830D01*
X0081991Y0025757D02*
X0081278Y0025757D01*
X0081278Y0024971D02*
X0081991Y0024971D01*
X0081991Y0024185D02*
X0081278Y0024185D01*
X0081278Y0023399D02*
X0081991Y0023399D01*
X0081991Y0021827D02*
X0081278Y0021827D01*
X0081278Y0021042D02*
X0081991Y0021042D01*
X0081991Y0020256D02*
X0081278Y0020256D01*
X0081278Y0019470D02*
X0081991Y0019470D01*
X0081991Y0018684D02*
X0081278Y0018684D01*
X0094030Y0018684D02*
X0096877Y0018684D01*
X0096829Y0019470D02*
X0094316Y0019470D01*
X0106083Y0015540D02*
X0122855Y0015540D01*
X0119176Y0013968D02*
X0180923Y0013968D01*
X0181709Y0013182D02*
X0119962Y0013182D01*
X0120646Y0012396D02*
X0182495Y0012396D01*
X0183281Y0011611D02*
X0120971Y0011611D01*
X0121297Y0010825D02*
X0188258Y0010825D01*
X0187472Y0010039D02*
X0121461Y0010039D01*
X0121461Y0009253D02*
X0187457Y0009253D01*
X0187457Y0007681D02*
X0121285Y0007681D01*
X0121461Y0008467D02*
X0191457Y0008467D01*
X0191457Y0007681D02*
X0192245Y0007681D01*
X0192245Y0006895D02*
X0191457Y0006895D01*
X0191457Y0006109D02*
X0192245Y0006109D01*
X0192245Y0005323D02*
X0191457Y0005323D01*
X0191457Y0004537D02*
X0192245Y0004537D01*
X0194397Y0004537D02*
X0199305Y0004537D01*
X0198519Y0005323D02*
X0195183Y0005323D01*
X0195969Y0006109D02*
X0197733Y0006109D01*
X0197457Y0006895D02*
X0196245Y0006895D01*
X0196245Y0007681D02*
X0197457Y0007681D01*
X0197457Y0009253D02*
X0196245Y0009253D01*
X0196231Y0010039D02*
X0197472Y0010039D01*
X0198258Y0010825D02*
X0195445Y0010825D01*
X0192245Y0008467D02*
X0201457Y0008467D01*
X0201457Y0007681D02*
X0202245Y0007681D01*
X0202245Y0006895D02*
X0201457Y0006895D01*
X0201457Y0006109D02*
X0202245Y0006109D01*
X0202245Y0005323D02*
X0201457Y0005323D01*
X0201457Y0004537D02*
X0202245Y0004537D01*
X0204397Y0004537D02*
X0209305Y0004537D01*
X0210031Y0003811D02*
X0211457Y0003811D01*
X0211457Y0007811D01*
X0207457Y0007811D01*
X0207457Y0006385D01*
X0210031Y0003811D01*
X0211457Y0004537D02*
X0212245Y0004537D01*
X0212245Y0003811D02*
X0213671Y0003811D01*
X0216245Y0006385D01*
X0216245Y0007811D01*
X0212245Y0007811D01*
X0212245Y0008598D01*
X0216245Y0008598D01*
X0216245Y0010025D01*
X0213671Y0012598D01*
X0212245Y0012598D01*
X0212245Y0008598D01*
X0211457Y0008598D01*
X0211457Y0007811D01*
X0212245Y0007811D01*
X0212245Y0003811D01*
X0212245Y0005323D02*
X0211457Y0005323D01*
X0211457Y0006109D02*
X0212245Y0006109D01*
X0212245Y0006895D02*
X0211457Y0006895D01*
X0211457Y0007681D02*
X0212245Y0007681D01*
X0212245Y0008467D02*
X0246555Y0008467D01*
X0245840Y0009253D02*
X0216245Y0009253D01*
X0216231Y0010039D02*
X0245733Y0010039D01*
X0248308Y0010039D02*
X0248702Y0010039D01*
X0248702Y0010825D02*
X0255634Y0010825D01*
X0255469Y0010039D02*
X0251276Y0010039D01*
X0251169Y0009253D02*
X0255469Y0009253D01*
X0255469Y0008467D02*
X0250454Y0008467D01*
X0248702Y0008467D02*
X0248308Y0008467D01*
X0248308Y0009253D02*
X0248702Y0009253D01*
X0248308Y0010825D02*
X0215445Y0010825D01*
X0214659Y0011611D02*
X0245733Y0011611D01*
X0251276Y0011611D02*
X0255959Y0011611D01*
X0257363Y0013598D02*
X0242599Y0013402D01*
X0242599Y0018323D01*
X0243957Y0018323D01*
X0244765Y0019130D01*
X0244765Y0023421D01*
X0243957Y0024228D01*
X0242599Y0024228D01*
X0242599Y0024425D01*
X0257363Y0024622D01*
X0257363Y0013598D01*
X0257363Y0013968D02*
X0242599Y0013968D01*
X0242599Y0014754D02*
X0257363Y0014754D01*
X0257363Y0015540D02*
X0242599Y0015540D01*
X0242599Y0016326D02*
X0257363Y0016326D01*
X0257363Y0017112D02*
X0242599Y0017112D01*
X0242599Y0017898D02*
X0257363Y0017898D01*
X0257363Y0018684D02*
X0244318Y0018684D01*
X0244765Y0019470D02*
X0257363Y0019470D01*
X0257363Y0020256D02*
X0244765Y0020256D01*
X0244765Y0021042D02*
X0257363Y0021042D01*
X0257363Y0021827D02*
X0244765Y0021827D01*
X0244765Y0022613D02*
X0257363Y0022613D01*
X0257363Y0023399D02*
X0244765Y0023399D01*
X0244001Y0024185D02*
X0257363Y0024185D01*
X0259922Y0024185D02*
X0260316Y0024185D01*
X0260316Y0023399D02*
X0259922Y0023399D01*
X0259922Y0022613D02*
X0260316Y0022613D01*
X0260316Y0021827D02*
X0259922Y0021827D01*
X0259922Y0021042D02*
X0260316Y0021042D01*
X0260316Y0020256D02*
X0259922Y0020256D01*
X0259135Y0019470D02*
X0289154Y0019470D01*
X0289154Y0020256D02*
X0269065Y0020256D01*
X0268990Y0020180D02*
X0269876Y0021066D01*
X0270355Y0022224D01*
X0270355Y0023477D01*
X0269876Y0024634D01*
X0268990Y0025520D01*
X0267832Y0026000D01*
X0266579Y0026000D01*
X0265421Y0025520D01*
X0264535Y0024634D01*
X0264056Y0023477D01*
X0264056Y0022224D01*
X0264535Y0021066D01*
X0265421Y0020180D01*
X0266579Y0019701D01*
X0267832Y0019701D01*
X0268990Y0020180D01*
X0269851Y0021042D02*
X0289154Y0021042D01*
X0289373Y0021827D02*
X0270191Y0021827D01*
X0270355Y0022613D02*
X0288864Y0022613D01*
X0288309Y0023399D02*
X0270355Y0023399D01*
X0270062Y0024185D02*
X0287754Y0024185D01*
X0287199Y0024971D02*
X0269539Y0024971D01*
X0268419Y0025757D02*
X0286644Y0025757D01*
X0286090Y0026543D02*
X0241221Y0026543D01*
X0241221Y0027329D02*
X0285535Y0027329D01*
X0284980Y0028115D02*
X0241221Y0028115D01*
X0241221Y0028901D02*
X0284425Y0028901D01*
X0291615Y0028901D02*
X0318461Y0028901D01*
X0318461Y0029687D02*
X0291615Y0029687D01*
X0291615Y0030472D02*
X0318461Y0030472D01*
X0318461Y0030921D02*
X0318461Y0024819D01*
X0291615Y0024819D01*
X0291615Y0030921D01*
X0318461Y0030921D01*
X0318461Y0028115D02*
X0291615Y0028115D01*
X0291615Y0027329D02*
X0318461Y0027329D01*
X0318461Y0026543D02*
X0291615Y0026543D01*
X0291615Y0025757D02*
X0318461Y0025757D01*
X0318461Y0024971D02*
X0291615Y0024971D01*
X0291910Y0020882D02*
X0318461Y0020882D01*
X0318461Y0014878D01*
X0291910Y0014878D01*
X0291910Y0020882D01*
X0291910Y0020256D02*
X0318461Y0020256D01*
X0318461Y0019470D02*
X0291910Y0019470D01*
X0291910Y0018684D02*
X0318461Y0018684D01*
X0318461Y0017898D02*
X0291910Y0017898D01*
X0291910Y0017112D02*
X0318461Y0017112D01*
X0318461Y0016326D02*
X0291910Y0016326D01*
X0291910Y0015540D02*
X0318461Y0015540D01*
X0318461Y0011611D02*
X0307848Y0011611D01*
X0308634Y0010825D02*
X0318461Y0010825D01*
X0318461Y0010039D02*
X0309420Y0010039D01*
X0309749Y0009253D02*
X0318460Y0009253D01*
X0318398Y0008467D02*
X0309749Y0008467D01*
X0313072Y0008467D02*
X0290828Y0008467D01*
X0290961Y0008467D02*
X0267131Y0008467D01*
X0267131Y0009253D02*
X0290961Y0009253D01*
X0290828Y0009253D02*
X0313072Y0009253D01*
X0313072Y0010039D02*
X0290828Y0010039D01*
X0291290Y0010039D02*
X0267131Y0010039D01*
X0266966Y0010825D02*
X0292076Y0010825D01*
X0292862Y0011611D02*
X0266641Y0011611D01*
X0266315Y0012396D02*
X0289629Y0012396D01*
X0289154Y0013182D02*
X0265631Y0013182D01*
X0264845Y0013968D02*
X0289154Y0013968D01*
X0289154Y0014754D02*
X0263291Y0014754D01*
X0259309Y0014754D02*
X0259135Y0014754D01*
X0259135Y0015540D02*
X0289154Y0015540D01*
X0289154Y0016326D02*
X0259135Y0016326D01*
X0259135Y0017112D02*
X0289154Y0017112D01*
X0289154Y0017898D02*
X0259135Y0017898D01*
X0259135Y0018684D02*
X0289154Y0018684D01*
X0265346Y0020256D02*
X0261833Y0020256D01*
X0262576Y0021042D02*
X0264560Y0021042D01*
X0264220Y0021827D02*
X0262694Y0021827D01*
X0262694Y0022613D02*
X0264056Y0022613D01*
X0264056Y0023399D02*
X0262694Y0023399D01*
X0262694Y0024185D02*
X0264349Y0024185D01*
X0264872Y0024971D02*
X0262396Y0024971D01*
X0260316Y0024971D02*
X0259922Y0024971D01*
X0258737Y0025757D02*
X0265992Y0025757D01*
X0254339Y0029687D02*
X0241221Y0029687D01*
X0239450Y0029687D02*
X0239357Y0029687D01*
X0239450Y0029780D02*
X0239115Y0029445D01*
X0234331Y0029445D01*
X0234331Y0017929D01*
X0239450Y0017929D01*
X0239450Y0018323D01*
X0238485Y0018323D01*
X0237678Y0019130D01*
X0237678Y0023421D01*
X0238485Y0024228D01*
X0239450Y0024228D01*
X0239450Y0029780D01*
X0239450Y0028901D02*
X0234331Y0028901D01*
X0234331Y0028115D02*
X0239450Y0028115D01*
X0239450Y0027329D02*
X0234331Y0027329D01*
X0234331Y0026543D02*
X0239450Y0026543D01*
X0239450Y0025757D02*
X0234331Y0025757D01*
X0234331Y0024971D02*
X0239450Y0024971D01*
X0238442Y0024185D02*
X0234331Y0024185D01*
X0234331Y0023399D02*
X0237678Y0023399D01*
X0237678Y0022613D02*
X0234331Y0022613D01*
X0234331Y0021827D02*
X0237678Y0021827D01*
X0237678Y0021042D02*
X0234331Y0021042D01*
X0234331Y0020256D02*
X0237678Y0020256D01*
X0237678Y0019470D02*
X0234331Y0019470D01*
X0234331Y0018684D02*
X0238124Y0018684D01*
X0230985Y0018684D02*
X0216032Y0018684D01*
X0216032Y0019470D02*
X0230985Y0019470D01*
X0230985Y0020256D02*
X0215713Y0020256D01*
X0214927Y0021042D02*
X0230985Y0021042D01*
X0230985Y0021827D02*
X0214141Y0021827D01*
X0209561Y0021827D02*
X0204141Y0021827D01*
X0204927Y0021042D02*
X0208775Y0021042D01*
X0207989Y0020256D02*
X0205713Y0020256D01*
X0206032Y0019470D02*
X0207670Y0019470D01*
X0207670Y0018684D02*
X0206032Y0018684D01*
X0206032Y0017898D02*
X0207670Y0017898D01*
X0207670Y0017112D02*
X0206032Y0017112D01*
X0205885Y0016326D02*
X0207328Y0016326D01*
X0206542Y0015540D02*
X0205100Y0015540D01*
X0209474Y0013182D02*
X0236344Y0013182D01*
X0241092Y0012396D02*
X0213873Y0012396D01*
X0212245Y0012396D02*
X0211457Y0012396D01*
X0211457Y0012598D02*
X0210031Y0012598D01*
X0207457Y0010025D01*
X0207457Y0008598D01*
X0211457Y0008598D01*
X0211457Y0012598D01*
X0211457Y0011611D02*
X0212245Y0011611D01*
X0212245Y0010825D02*
X0211457Y0010825D01*
X0211457Y0010039D02*
X0212245Y0010039D01*
X0212245Y0009253D02*
X0211457Y0009253D01*
X0211457Y0008467D02*
X0202245Y0008467D01*
X0206245Y0009253D02*
X0207457Y0009253D01*
X0207472Y0010039D02*
X0206231Y0010039D01*
X0205445Y0010825D02*
X0208257Y0010825D01*
X0207902Y0011611D02*
X0209043Y0011611D01*
X0208688Y0012396D02*
X0209829Y0012396D01*
X0210259Y0013968D02*
X0231538Y0013968D01*
X0230985Y0014754D02*
X0214314Y0014754D01*
X0215100Y0015540D02*
X0230985Y0015540D01*
X0230985Y0016326D02*
X0215885Y0016326D01*
X0216032Y0017112D02*
X0230985Y0017112D01*
X0230985Y0017898D02*
X0216032Y0017898D01*
X0230985Y0022613D02*
X0200087Y0022613D01*
X0199301Y0023399D02*
X0230985Y0023399D01*
X0230985Y0024185D02*
X0226303Y0024185D01*
X0227089Y0024971D02*
X0230985Y0024971D01*
X0230985Y0025757D02*
X0227540Y0025757D01*
X0227540Y0026543D02*
X0230985Y0026543D01*
X0230985Y0027329D02*
X0228964Y0027329D01*
X0228965Y0027329D02*
X0230985Y0027329D01*
X0230985Y0028115D02*
X0229410Y0028115D01*
X0230985Y0028115D01*
X0230985Y0028901D02*
X0229410Y0028901D01*
X0230985Y0028901D01*
X0230985Y0029687D02*
X0229410Y0029687D01*
X0230985Y0029687D01*
X0230985Y0030472D02*
X0229266Y0030472D01*
X0229578Y0030472D02*
X0230985Y0030472D01*
X0230985Y0031258D02*
X0209725Y0031258D01*
X0209725Y0030472D02*
X0222390Y0030472D01*
X0222077Y0030472D02*
X0221355Y0030472D01*
X0221228Y0029687D02*
X0222245Y0029687D01*
X0209725Y0029687D01*
X0209725Y0028901D02*
X0222245Y0028901D01*
X0220466Y0028901D01*
X0218780Y0028901D02*
X0218387Y0028901D01*
X0218387Y0029687D02*
X0218780Y0029687D01*
X0218780Y0030472D02*
X0218387Y0030472D01*
X0218387Y0031258D02*
X0214056Y0031258D01*
X0213662Y0031258D02*
X0201950Y0031258D01*
X0201950Y0030472D02*
X0211087Y0030472D01*
X0211215Y0029687D02*
X0201950Y0029687D01*
X0202579Y0028901D02*
X0211977Y0028901D01*
X0213662Y0028901D02*
X0214056Y0028901D01*
X0214056Y0029687D02*
X0213662Y0029687D01*
X0213662Y0030472D02*
X0214056Y0030472D01*
X0215741Y0028901D02*
X0216701Y0028901D01*
X0218780Y0031258D02*
X0222032Y0031258D01*
X0222032Y0032044D02*
X0221355Y0032044D01*
X0221268Y0032830D02*
X0222099Y0032830D01*
X0222307Y0032830D02*
X0221087Y0032830D01*
X0221873Y0033616D02*
X0222245Y0033616D01*
X0222245Y0034402D02*
X0222028Y0034402D01*
X0222028Y0035188D02*
X0222245Y0035188D01*
X0222245Y0035974D02*
X0222028Y0035974D01*
X0222028Y0036760D02*
X0222245Y0036760D01*
X0222245Y0037546D02*
X0222028Y0037546D01*
X0222028Y0038332D02*
X0222572Y0038332D01*
X0222028Y0039118D02*
X0223997Y0039118D01*
X0223997Y0039903D02*
X0222028Y0039903D01*
X0222028Y0040689D02*
X0223997Y0040689D01*
X0223651Y0041475D02*
X0222028Y0041475D01*
X0227737Y0040689D02*
X0229053Y0040689D01*
X0228721Y0039903D02*
X0227737Y0039903D01*
X0227737Y0039118D02*
X0228721Y0039118D01*
X0232771Y0039118D02*
X0277229Y0039118D01*
X0277229Y0039903D02*
X0233557Y0039903D01*
X0234343Y0040689D02*
X0277391Y0040689D01*
X0279863Y0040689D02*
X0279942Y0040689D01*
X0279942Y0039903D02*
X0279863Y0039903D01*
X0277229Y0038332D02*
X0239399Y0038332D01*
X0236143Y0036827D02*
X0232560Y0036827D01*
X0232560Y0015173D01*
X0238465Y0015173D01*
X0255646Y0007681D02*
X0216245Y0007681D01*
X0216245Y0006895D02*
X0255972Y0006895D01*
X0256297Y0006109D02*
X0215969Y0006109D01*
X0215183Y0005323D02*
X0256999Y0005323D01*
X0257784Y0004537D02*
X0214397Y0004537D01*
X0208519Y0005323D02*
X0205183Y0005323D01*
X0205969Y0006109D02*
X0207733Y0006109D01*
X0207457Y0006895D02*
X0206245Y0006895D01*
X0206245Y0007681D02*
X0207457Y0007681D01*
X0189305Y0004537D02*
X0119146Y0004537D01*
X0119932Y0005323D02*
X0188519Y0005323D01*
X0187733Y0006109D02*
X0120634Y0006109D01*
X0120959Y0006895D02*
X0187457Y0006895D01*
X0180137Y0014754D02*
X0117621Y0014754D01*
X0113640Y0014754D02*
X0105786Y0014754D01*
X0105460Y0013968D02*
X0112085Y0013968D01*
X0111300Y0013182D02*
X0104746Y0013182D01*
X0103673Y0012396D02*
X0110616Y0012396D01*
X0110290Y0011611D02*
X0098816Y0011611D01*
X0098265Y0012396D02*
X0099636Y0012396D01*
X0110628Y0006109D02*
X0032302Y0006109D01*
X0033717Y0005323D02*
X0111329Y0005323D01*
X0112115Y0004537D02*
X0035131Y0004537D01*
X0036546Y0003751D02*
X0113712Y0003751D01*
X0117550Y0003751D02*
X0259381Y0003751D01*
X0263219Y0003751D02*
X0293280Y0003751D01*
X0292494Y0004537D02*
X0264816Y0004537D01*
X0265601Y0005323D02*
X0291708Y0005323D01*
X0290828Y0005323D02*
X0313072Y0005323D01*
X0313072Y0004537D02*
X0290828Y0004537D01*
X0290828Y0003751D02*
X0313072Y0003751D01*
X0314618Y0003751D02*
X0307430Y0003751D01*
X0308216Y0004537D02*
X0316019Y0004537D01*
X0316916Y0005323D02*
X0309002Y0005323D01*
X0309749Y0006109D02*
X0317487Y0006109D01*
X0317921Y0006895D02*
X0309749Y0006895D01*
X0313072Y0006895D02*
X0290828Y0006895D01*
X0290961Y0006895D02*
X0266628Y0006895D01*
X0266303Y0006109D02*
X0290961Y0006109D01*
X0290828Y0006109D02*
X0313072Y0006109D01*
X0313072Y0007681D02*
X0290828Y0007681D01*
X0294961Y0007681D02*
X0266954Y0007681D01*
X0290828Y0010825D02*
X0313072Y0010825D01*
X0318176Y0007681D02*
X0305749Y0007681D01*
X0305749Y0006895D02*
X0304961Y0006895D01*
X0304961Y0006109D02*
X0305749Y0006109D01*
X0305749Y0005323D02*
X0304961Y0005323D01*
X0304961Y0004537D02*
X0305749Y0004537D01*
X0305749Y0003751D02*
X0304961Y0003751D01*
X0303280Y0003751D02*
X0297430Y0003751D01*
X0298216Y0004537D02*
X0302494Y0004537D01*
X0301708Y0005323D02*
X0299002Y0005323D01*
X0299749Y0006109D02*
X0300961Y0006109D01*
X0300961Y0006895D02*
X0299749Y0006895D01*
X0295749Y0006895D02*
X0294961Y0006895D01*
X0294961Y0006109D02*
X0295749Y0006109D01*
X0295749Y0005323D02*
X0294961Y0005323D01*
X0294961Y0004537D02*
X0295749Y0004537D01*
X0295749Y0003751D02*
X0294961Y0003751D01*
X0295749Y0007681D02*
X0304961Y0007681D01*
X0300961Y0008467D02*
X0299749Y0008467D01*
X0299749Y0009253D02*
X0300961Y0009253D01*
X0301290Y0010039D02*
X0299420Y0010039D01*
X0298634Y0010825D02*
X0302076Y0010825D01*
X0302862Y0011611D02*
X0297848Y0011611D01*
X0241423Y0025757D02*
X0241221Y0025757D01*
X0222691Y0027329D02*
X0209725Y0027329D01*
X0209725Y0028115D02*
X0222245Y0028115D01*
X0203365Y0028115D01*
X0204151Y0027329D02*
X0222691Y0027329D01*
X0229623Y0031258D02*
X0230985Y0031258D01*
X0230985Y0032044D02*
X0209725Y0032044D01*
X0209725Y0032830D02*
X0210568Y0032830D01*
X0201950Y0032830D01*
X0201950Y0032044D02*
X0211087Y0032044D01*
X0209782Y0033616D02*
X0201950Y0033616D01*
X0201950Y0034402D02*
X0209627Y0034402D01*
X0209627Y0035188D02*
X0201950Y0035188D01*
X0201950Y0035974D02*
X0209627Y0035974D01*
X0209627Y0036760D02*
X0201950Y0036760D01*
X0201950Y0037546D02*
X0209627Y0037546D01*
X0209627Y0038332D02*
X0201950Y0038332D01*
X0201950Y0039118D02*
X0209627Y0039118D01*
X0209627Y0039903D02*
X0201953Y0039903D01*
X0202639Y0040689D02*
X0209627Y0040689D01*
X0209627Y0041475D02*
X0202639Y0041475D01*
X0202639Y0042261D02*
X0209627Y0042261D01*
X0209627Y0043047D02*
X0202639Y0043047D01*
X0202500Y0043833D02*
X0209627Y0043833D01*
X0209627Y0044619D02*
X0206473Y0044619D01*
X0207074Y0045405D02*
X0209627Y0045405D01*
X0209627Y0046191D02*
X0207074Y0046191D01*
X0207035Y0046977D02*
X0209627Y0046977D01*
X0209627Y0047763D02*
X0206249Y0047763D01*
X0205977Y0048548D02*
X0209627Y0048548D01*
X0209627Y0049334D02*
X0206517Y0049334D01*
X0206591Y0050120D02*
X0209627Y0050120D01*
X0209627Y0050906D02*
X0204213Y0050906D01*
X0204213Y0050120D02*
X0203820Y0050120D01*
X0203820Y0049334D02*
X0204213Y0049334D01*
X0204213Y0048548D02*
X0203820Y0048548D01*
X0202056Y0048548D02*
X0201950Y0048548D01*
X0198209Y0048548D02*
X0195454Y0048548D01*
X0195454Y0047763D02*
X0197652Y0047763D01*
X0197520Y0046977D02*
X0195454Y0046977D01*
X0195454Y0046191D02*
X0197520Y0046191D01*
X0197520Y0045405D02*
X0195454Y0045405D01*
X0195454Y0044619D02*
X0197520Y0044619D01*
X0197659Y0043833D02*
X0195454Y0043833D01*
X0195454Y0043047D02*
X0197520Y0043047D01*
X0197520Y0042261D02*
X0195454Y0042261D01*
X0195454Y0041475D02*
X0197520Y0041475D01*
X0197520Y0040689D02*
X0195454Y0040689D01*
X0195454Y0039903D02*
X0198206Y0039903D01*
X0198209Y0039118D02*
X0195454Y0039118D01*
X0195454Y0038332D02*
X0198209Y0038332D01*
X0198209Y0037546D02*
X0195454Y0037546D01*
X0195454Y0036760D02*
X0198209Y0036760D01*
X0198209Y0035974D02*
X0195454Y0035974D01*
X0195454Y0035188D02*
X0198209Y0035188D01*
X0198209Y0034402D02*
X0195454Y0034402D01*
X0195454Y0033616D02*
X0198209Y0033616D01*
X0198209Y0032830D02*
X0195665Y0032830D01*
X0195665Y0032044D02*
X0198209Y0032044D01*
X0198209Y0031258D02*
X0195486Y0031258D01*
X0194700Y0030472D02*
X0198209Y0030472D01*
X0198209Y0029687D02*
X0186497Y0029687D01*
X0186497Y0030472D02*
X0192467Y0030472D01*
X0191681Y0031258D02*
X0186497Y0031258D01*
X0186497Y0032044D02*
X0191502Y0032044D01*
X0191502Y0032830D02*
X0186141Y0032830D01*
X0186497Y0033616D02*
X0191713Y0033616D01*
X0191713Y0034402D02*
X0186497Y0034402D01*
X0186497Y0035188D02*
X0191713Y0035188D01*
X0191713Y0035974D02*
X0186497Y0035974D01*
X0186586Y0036760D02*
X0186148Y0036760D01*
X0190738Y0036760D02*
X0191713Y0036760D01*
X0191713Y0037546D02*
X0191221Y0037546D01*
X0191221Y0038332D02*
X0191713Y0038332D01*
X0191713Y0039118D02*
X0191221Y0039118D01*
X0191221Y0039903D02*
X0191713Y0039903D01*
X0191713Y0040689D02*
X0191032Y0040689D01*
X0191416Y0041475D02*
X0191713Y0041475D01*
X0191713Y0042261D02*
X0191434Y0042261D01*
X0191434Y0043047D02*
X0191713Y0043047D01*
X0191713Y0043833D02*
X0191434Y0043833D01*
X0191157Y0044619D02*
X0191713Y0044619D01*
X0191713Y0045405D02*
X0185604Y0045405D01*
X0186163Y0044619D02*
X0186167Y0044619D01*
X0188465Y0044619D02*
X0188859Y0044619D01*
X0188859Y0043833D02*
X0188465Y0043833D01*
X0188465Y0043047D02*
X0188859Y0043047D01*
X0182272Y0045405D02*
X0181667Y0045405D01*
X0179732Y0044619D02*
X0178032Y0044619D01*
X0178032Y0045405D02*
X0178335Y0045405D01*
X0178032Y0043833D02*
X0178946Y0043833D01*
X0178707Y0043047D02*
X0178032Y0043047D01*
X0177933Y0042261D02*
X0178707Y0042261D01*
X0175473Y0043520D02*
X0175080Y0043913D01*
X0173111Y0043913D01*
X0172520Y0044504D01*
X0172520Y0049031D01*
X0171733Y0052181D01*
X0168773Y0053264D02*
X0120597Y0053264D01*
X0120922Y0054050D02*
X0169148Y0054050D01*
X0169934Y0054836D02*
X0121248Y0054836D01*
X0121461Y0055622D02*
X0209815Y0055622D01*
X0209627Y0054836D02*
X0173533Y0054836D01*
X0174319Y0054050D02*
X0209627Y0054050D01*
X0209627Y0053264D02*
X0206165Y0053264D01*
X0206567Y0052478D02*
X0209627Y0052478D01*
X0209627Y0051692D02*
X0206591Y0051692D01*
X0204213Y0051692D02*
X0203820Y0051692D01*
X0203820Y0052478D02*
X0204213Y0052478D01*
X0204213Y0053264D02*
X0203820Y0053264D01*
X0198232Y0053264D02*
X0174694Y0053264D01*
X0174883Y0052478D02*
X0178834Y0052478D01*
X0178131Y0051692D02*
X0174883Y0051692D01*
X0174614Y0050906D02*
X0178131Y0050906D01*
X0178131Y0050120D02*
X0177315Y0050120D01*
X0170946Y0048548D02*
X0169114Y0048548D01*
X0169387Y0047763D02*
X0170946Y0047763D01*
X0170946Y0046977D02*
X0169387Y0046977D01*
X0169387Y0046191D02*
X0170946Y0046191D01*
X0170946Y0045405D02*
X0170303Y0045405D01*
X0170552Y0044619D02*
X0170946Y0044619D01*
X0170964Y0043833D02*
X0170552Y0043833D01*
X0170552Y0043047D02*
X0171750Y0043047D01*
X0170552Y0042261D02*
X0173014Y0042261D01*
X0173254Y0041475D02*
X0171280Y0041475D01*
X0172066Y0040689D02*
X0173111Y0040689D01*
X0173111Y0039903D02*
X0172324Y0039903D01*
X0172324Y0039118D02*
X0173111Y0039118D01*
X0173111Y0038332D02*
X0172324Y0038332D01*
X0172324Y0037546D02*
X0173398Y0037546D01*
X0173263Y0036760D02*
X0172324Y0036760D01*
X0170749Y0036760D02*
X0159356Y0036760D01*
X0159374Y0037546D02*
X0170749Y0037546D01*
X0170749Y0038332D02*
X0159391Y0038332D01*
X0159409Y0039118D02*
X0170749Y0039118D01*
X0170749Y0039780D02*
X0170749Y0036138D01*
X0165732Y0036138D01*
X0165240Y0035646D01*
X0159331Y0035646D01*
X0159528Y0044504D01*
X0159944Y0044504D01*
X0160141Y0044307D01*
X0163640Y0044307D01*
X0163837Y0044504D01*
X0164669Y0044504D01*
X0164865Y0044307D01*
X0168365Y0044307D01*
X0168561Y0044504D01*
X0168977Y0044504D01*
X0168977Y0041551D01*
X0170749Y0039780D01*
X0170625Y0039903D02*
X0159426Y0039903D01*
X0159444Y0040689D02*
X0169839Y0040689D01*
X0169053Y0041475D02*
X0159461Y0041475D01*
X0159479Y0042261D02*
X0168977Y0042261D01*
X0168977Y0043047D02*
X0159496Y0043047D01*
X0159513Y0043833D02*
X0168977Y0043833D01*
X0166812Y0046977D02*
X0166418Y0046977D01*
X0166418Y0047763D02*
X0166812Y0047763D01*
X0166812Y0048548D02*
X0166418Y0048548D01*
X0169340Y0050120D02*
X0090631Y0050120D01*
X0090631Y0049334D02*
X0170375Y0049334D01*
X0168852Y0050906D02*
X0117334Y0050906D01*
X0119057Y0051692D02*
X0168583Y0051692D01*
X0168583Y0052478D02*
X0119843Y0052478D01*
X0113927Y0050906D02*
X0090631Y0050906D01*
X0090631Y0051692D02*
X0112205Y0051692D01*
X0111419Y0052478D02*
X0090396Y0052478D01*
X0090631Y0048548D02*
X0104235Y0048548D01*
X0103449Y0047763D02*
X0090631Y0047763D01*
X0121143Y0040961D02*
X0121143Y0039878D01*
X0129004Y0039878D01*
X0130099Y0038782D01*
X0130099Y0038586D01*
X0130493Y0038979D01*
X0130493Y0044996D01*
X0128811Y0044996D01*
X0128835Y0044907D01*
X0128835Y0043717D01*
X0126458Y0043717D01*
X0126458Y0043323D01*
X0128835Y0043323D01*
X0128835Y0042133D01*
X0128727Y0041727D01*
X0128517Y0041363D01*
X0128220Y0041067D01*
X0127856Y0040857D01*
X0127451Y0040748D01*
X0126457Y0040748D01*
X0126457Y0043323D01*
X0126064Y0043323D01*
X0126064Y0040748D01*
X0125070Y0040748D01*
X0124665Y0040857D01*
X0124301Y0041067D01*
X0124142Y0041226D01*
X0123876Y0040961D01*
X0121143Y0040961D01*
X0121143Y0040689D02*
X0130493Y0040689D01*
X0130493Y0039903D02*
X0121143Y0039903D01*
X0126064Y0041475D02*
X0126457Y0041475D01*
X0126457Y0042261D02*
X0126064Y0042261D01*
X0126064Y0043047D02*
X0126457Y0043047D01*
X0128835Y0043047D02*
X0130493Y0043047D01*
X0130493Y0042261D02*
X0128835Y0042261D01*
X0128581Y0041475D02*
X0130493Y0041475D01*
X0134233Y0041475D02*
X0146173Y0041475D01*
X0145848Y0042261D02*
X0134233Y0042261D01*
X0134233Y0043047D02*
X0145749Y0043047D01*
X0145782Y0043833D02*
X0134233Y0043833D01*
X0134233Y0044619D02*
X0146108Y0044619D01*
X0146723Y0045405D02*
X0134233Y0045405D01*
X0134233Y0046191D02*
X0148067Y0046191D01*
X0149730Y0046191D02*
X0159119Y0046191D01*
X0159119Y0046977D02*
X0134233Y0046977D01*
X0134111Y0047763D02*
X0159119Y0047763D01*
X0159391Y0048548D02*
X0133325Y0048548D01*
X0130493Y0044619D02*
X0128835Y0044619D01*
X0128835Y0043833D02*
X0130493Y0043833D01*
X0134233Y0040689D02*
X0138216Y0040689D01*
X0137875Y0039903D02*
X0134233Y0039903D01*
X0134233Y0039118D02*
X0137875Y0039118D01*
X0137875Y0038332D02*
X0134233Y0038332D01*
X0134233Y0037546D02*
X0137875Y0037546D01*
X0137920Y0036760D02*
X0138224Y0036760D01*
X0130493Y0039118D02*
X0129764Y0039118D01*
X0142652Y0040689D02*
X0142941Y0040689D01*
X0152609Y0044619D02*
X0157954Y0044619D01*
X0157938Y0043833D02*
X0153890Y0043833D01*
X0154523Y0043047D02*
X0157921Y0043047D01*
X0157903Y0042261D02*
X0154523Y0042261D01*
X0154522Y0041475D02*
X0157886Y0041475D01*
X0157868Y0040689D02*
X0154312Y0040689D01*
X0154312Y0039903D02*
X0157851Y0039903D01*
X0157833Y0039118D02*
X0154312Y0039118D01*
X0155658Y0038332D02*
X0157816Y0038332D01*
X0157799Y0037546D02*
X0155985Y0037546D01*
X0155985Y0036760D02*
X0157781Y0036760D01*
X0157757Y0035974D02*
X0155985Y0035974D01*
X0155985Y0035188D02*
X0157746Y0035188D01*
X0158342Y0034402D02*
X0155985Y0034402D01*
X0155985Y0033616D02*
X0165040Y0033616D01*
X0165040Y0032830D02*
X0156131Y0032830D01*
X0156198Y0032044D02*
X0165040Y0032044D01*
X0165040Y0031258D02*
X0156198Y0031258D01*
X0156153Y0030472D02*
X0164978Y0030472D01*
X0164828Y0029687D02*
X0156198Y0029687D01*
X0156198Y0028901D02*
X0164828Y0028901D01*
X0164828Y0028115D02*
X0156198Y0028115D01*
X0155840Y0027329D02*
X0165185Y0027329D01*
X0168583Y0027329D02*
X0168584Y0027329D01*
X0168583Y0028115D02*
X0168584Y0028115D01*
X0168583Y0028901D02*
X0168584Y0028901D01*
X0172339Y0028901D02*
X0173382Y0028901D01*
X0172882Y0029687D02*
X0172339Y0029687D01*
X0172339Y0028115D02*
X0198209Y0028115D01*
X0198209Y0028901D02*
X0186029Y0028901D01*
X0181847Y0028901D02*
X0177564Y0028901D01*
X0171982Y0027329D02*
X0198862Y0027329D01*
X0199648Y0026543D02*
X0147967Y0026543D01*
X0149043Y0027329D02*
X0146573Y0027329D01*
X0146635Y0028115D02*
X0148686Y0028115D01*
X0148686Y0028901D02*
X0146635Y0028901D01*
X0146635Y0029687D02*
X0148686Y0029687D01*
X0148731Y0030472D02*
X0146635Y0030472D01*
X0146635Y0031258D02*
X0148686Y0031258D01*
X0148686Y0032044D02*
X0146635Y0032044D01*
X0152442Y0031258D02*
X0152442Y0031258D01*
X0152442Y0030472D02*
X0152442Y0030472D01*
X0152442Y0029687D02*
X0152442Y0029687D01*
X0152442Y0028901D02*
X0152442Y0028901D01*
X0152442Y0028115D02*
X0152442Y0028115D01*
X0152442Y0027329D02*
X0152442Y0027329D01*
X0149500Y0025757D02*
X0200434Y0025757D01*
X0201220Y0024971D02*
X0197729Y0024971D01*
X0198515Y0024185D02*
X0202006Y0024185D01*
X0187154Y0024971D02*
X0150286Y0024971D01*
X0150730Y0024185D02*
X0153405Y0024185D01*
X0161715Y0024185D02*
X0186166Y0024185D01*
X0178565Y0016326D02*
X0152105Y0016326D01*
X0151319Y0015540D02*
X0179351Y0015540D01*
X0143324Y0025114D02*
X0142978Y0024769D01*
X0142306Y0023146D01*
X0133925Y0023146D01*
X0133643Y0023428D01*
X0133643Y0024677D01*
X0133917Y0024518D01*
X0134322Y0024409D01*
X0135513Y0024409D01*
X0135513Y0026787D01*
X0135906Y0026787D01*
X0135906Y0024409D01*
X0137097Y0024409D01*
X0137502Y0024518D01*
X0137866Y0024728D01*
X0138163Y0025025D01*
X0138206Y0025100D01*
X0138684Y0024622D01*
X0142183Y0024622D01*
X0142676Y0025114D01*
X0143324Y0025114D01*
X0143181Y0024971D02*
X0142532Y0024971D01*
X0142737Y0024185D02*
X0133643Y0024185D01*
X0133671Y0023399D02*
X0142411Y0023399D01*
X0138335Y0024971D02*
X0138109Y0024971D01*
X0135906Y0024971D02*
X0135513Y0024971D01*
X0135513Y0025757D02*
X0135906Y0025757D01*
X0135906Y0026543D02*
X0135513Y0026543D01*
X0159339Y0035974D02*
X0165568Y0035974D01*
X0158192Y0045405D02*
X0151074Y0045405D01*
X0161694Y0046977D02*
X0162087Y0046977D01*
X0162087Y0047763D02*
X0161694Y0047763D01*
X0161694Y0048548D02*
X0162087Y0048548D01*
X0186300Y0046191D02*
X0191713Y0046191D01*
X0222028Y0047763D02*
X0230001Y0047763D01*
X0230001Y0048548D02*
X0228859Y0048548D01*
X0229391Y0049334D02*
X0230001Y0049334D01*
X0229524Y0050120D02*
X0230718Y0050120D01*
X0229524Y0050906D02*
X0234580Y0050906D01*
X0234402Y0050120D02*
X0235217Y0050120D01*
X0238957Y0050120D02*
X0239089Y0050120D01*
X0238957Y0050906D02*
X0259597Y0050906D01*
X0260140Y0050681D02*
X0262460Y0050681D01*
X0264603Y0051569D01*
X0266243Y0053209D01*
X0267131Y0055352D01*
X0267131Y0057672D01*
X0266243Y0059815D01*
X0264603Y0061455D01*
X0262460Y0062343D01*
X0260140Y0062343D01*
X0257997Y0061455D01*
X0256357Y0059815D01*
X0255469Y0057672D01*
X0255469Y0055352D01*
X0256357Y0053209D01*
X0257997Y0051569D01*
X0260140Y0050681D01*
X0257874Y0051692D02*
X0239361Y0051692D01*
X0239646Y0052478D02*
X0257088Y0052478D01*
X0256334Y0053264D02*
X0239646Y0053264D01*
X0239442Y0054050D02*
X0256009Y0054050D01*
X0255683Y0054836D02*
X0239002Y0054836D01*
X0238004Y0055622D02*
X0255469Y0055622D01*
X0255469Y0056408D02*
X0227706Y0056408D01*
X0226261Y0056408D02*
X0225473Y0056408D01*
X0225473Y0055622D02*
X0226261Y0055622D01*
X0226261Y0054836D02*
X0225473Y0054836D01*
X0225473Y0054050D02*
X0226261Y0054050D01*
X0226261Y0053264D02*
X0225473Y0053264D01*
X0226261Y0052478D02*
X0233741Y0052478D01*
X0233741Y0053264D02*
X0229524Y0053264D01*
X0229524Y0054050D02*
X0233946Y0054050D01*
X0234385Y0054836D02*
X0229443Y0054836D01*
X0229051Y0055622D02*
X0235383Y0055622D01*
X0234026Y0051692D02*
X0229524Y0051692D01*
X0226261Y0051692D02*
X0225473Y0051692D01*
X0225473Y0050906D02*
X0226261Y0050906D01*
X0226261Y0050120D02*
X0225473Y0050120D01*
X0225473Y0049334D02*
X0226261Y0049334D01*
X0226261Y0048548D02*
X0225473Y0048548D01*
X0222875Y0048548D02*
X0222028Y0048548D01*
X0222225Y0049334D02*
X0222343Y0049334D01*
X0228639Y0046977D02*
X0230001Y0046977D01*
X0230108Y0046191D02*
X0229017Y0046191D01*
X0229017Y0045405D02*
X0230001Y0045405D01*
X0230001Y0044619D02*
X0229017Y0044619D01*
X0229017Y0043833D02*
X0230001Y0043833D01*
X0230001Y0043047D02*
X0229017Y0043047D01*
X0228869Y0042261D02*
X0230100Y0042261D01*
X0229839Y0041475D02*
X0228083Y0041475D01*
X0234430Y0041475D02*
X0280591Y0041475D01*
X0280591Y0042261D02*
X0235019Y0042261D01*
X0235119Y0043047D02*
X0280591Y0043047D01*
X0281083Y0043833D02*
X0235119Y0043833D01*
X0235119Y0044619D02*
X0281083Y0044619D01*
X0281083Y0045405D02*
X0243188Y0045405D01*
X0243579Y0046191D02*
X0281083Y0046191D01*
X0281083Y0046977D02*
X0243599Y0046977D01*
X0241221Y0046977D02*
X0240828Y0046977D01*
X0240828Y0046191D02*
X0241221Y0046191D01*
X0241221Y0045405D02*
X0240828Y0045405D01*
X0235224Y0045405D02*
X0235119Y0045405D01*
X0241221Y0047763D02*
X0281083Y0047763D01*
X0281083Y0048548D02*
X0243599Y0048548D01*
X0243520Y0049334D02*
X0281001Y0049334D01*
X0281167Y0050120D02*
X0242960Y0050120D01*
X0241221Y0050120D02*
X0240828Y0050120D01*
X0240828Y0049334D02*
X0241221Y0049334D01*
X0241221Y0048548D02*
X0240828Y0048548D01*
X0222291Y0054836D02*
X0222225Y0054836D01*
X0221840Y0055622D02*
X0222683Y0055622D01*
X0224027Y0056408D02*
X0221054Y0056408D01*
X0210601Y0056408D02*
X0121461Y0056408D01*
X0121461Y0057194D02*
X0255469Y0057194D01*
X0255597Y0057979D02*
X0121334Y0057979D01*
X0121008Y0058765D02*
X0255922Y0058765D01*
X0256248Y0059551D02*
X0120683Y0059551D01*
X0120051Y0060337D02*
X0256879Y0060337D01*
X0257665Y0061123D02*
X0119265Y0061123D01*
X0117837Y0061909D02*
X0259094Y0061909D01*
X0263506Y0061909D02*
X0288957Y0061909D01*
X0288957Y0061123D02*
X0264935Y0061123D01*
X0265720Y0060337D02*
X0288957Y0060337D01*
X0288957Y0059551D02*
X0274003Y0059551D01*
X0273738Y0059661D02*
X0272485Y0059661D01*
X0271327Y0059182D01*
X0270441Y0058296D01*
X0269961Y0057138D01*
X0269961Y0055885D01*
X0270441Y0054728D01*
X0271327Y0053842D01*
X0272485Y0053362D01*
X0273738Y0053362D01*
X0274895Y0053842D01*
X0275781Y0054728D01*
X0276261Y0055885D01*
X0276261Y0057138D01*
X0275781Y0058296D01*
X0274895Y0059182D01*
X0273738Y0059661D01*
X0272219Y0059551D02*
X0266352Y0059551D01*
X0266678Y0058765D02*
X0270910Y0058765D01*
X0270310Y0057979D02*
X0267003Y0057979D01*
X0267131Y0057194D02*
X0269984Y0057194D01*
X0269961Y0056408D02*
X0267131Y0056408D01*
X0267131Y0055622D02*
X0270071Y0055622D01*
X0270396Y0054836D02*
X0266917Y0054836D01*
X0266591Y0054050D02*
X0271119Y0054050D01*
X0275103Y0054050D02*
X0288957Y0054050D01*
X0288957Y0054836D02*
X0275826Y0054836D01*
X0276151Y0055622D02*
X0288957Y0055622D01*
X0288957Y0056408D02*
X0276261Y0056408D01*
X0276238Y0057194D02*
X0288957Y0057194D01*
X0288957Y0057979D02*
X0275912Y0057979D01*
X0275312Y0058765D02*
X0288957Y0058765D01*
X0291812Y0058765D02*
X0317960Y0058765D01*
X0317810Y0059227D02*
X0318388Y0057447D01*
X0318461Y0056512D01*
X0318461Y0054740D01*
X0291812Y0054740D01*
X0291812Y0061630D01*
X0315486Y0061630D01*
X0316710Y0060741D01*
X0317810Y0059227D01*
X0317574Y0059551D02*
X0291812Y0059551D01*
X0291812Y0060337D02*
X0317003Y0060337D01*
X0316183Y0061123D02*
X0291812Y0061123D01*
X0291812Y0057979D02*
X0318215Y0057979D01*
X0318408Y0057194D02*
X0291812Y0057194D01*
X0291812Y0056408D02*
X0318461Y0056408D01*
X0318461Y0055622D02*
X0291812Y0055622D01*
X0291812Y0054836D02*
X0318461Y0054836D01*
X0318461Y0050803D02*
X0318461Y0044898D01*
X0291812Y0044898D01*
X0291812Y0050803D01*
X0318461Y0050803D01*
X0318461Y0050120D02*
X0291812Y0050120D01*
X0291812Y0049334D02*
X0318461Y0049334D01*
X0318461Y0048548D02*
X0291812Y0048548D01*
X0291812Y0047763D02*
X0318461Y0047763D01*
X0318461Y0046977D02*
X0291812Y0046977D01*
X0291812Y0046191D02*
X0318461Y0046191D01*
X0318461Y0045405D02*
X0291812Y0045405D01*
X0288957Y0045405D02*
X0284036Y0045405D01*
X0284036Y0046191D02*
X0288957Y0046191D01*
X0288957Y0046977D02*
X0284036Y0046977D01*
X0284036Y0047763D02*
X0288957Y0047763D01*
X0288957Y0048548D02*
X0284036Y0048548D01*
X0284121Y0049334D02*
X0288957Y0049334D01*
X0288957Y0050120D02*
X0284820Y0050120D01*
X0285606Y0050906D02*
X0288957Y0050906D01*
X0288957Y0051692D02*
X0285625Y0051692D01*
X0285625Y0052478D02*
X0288957Y0052478D01*
X0288957Y0053264D02*
X0285011Y0053264D01*
X0282078Y0053264D02*
X0266266Y0053264D01*
X0265512Y0052478D02*
X0281463Y0052478D01*
X0281463Y0051692D02*
X0264726Y0051692D01*
X0263003Y0050906D02*
X0281482Y0050906D01*
X0284036Y0044619D02*
X0285244Y0044619D01*
X0284458Y0043833D02*
X0284036Y0043833D01*
X0287356Y0044619D02*
X0288957Y0044619D01*
X0288957Y0043833D02*
X0288142Y0043833D01*
X0288381Y0043047D02*
X0288957Y0043047D01*
X0288957Y0042261D02*
X0288381Y0042261D01*
X0287986Y0041475D02*
X0288957Y0041475D01*
X0288957Y0040689D02*
X0287200Y0040689D01*
X0285953Y0039903D02*
X0288957Y0039903D01*
X0288957Y0039118D02*
X0284741Y0039118D01*
X0284692Y0038332D02*
X0288957Y0038332D01*
X0287354Y0037546D02*
X0284528Y0037546D01*
X0291615Y0037546D02*
X0318461Y0037546D01*
X0318461Y0038332D02*
X0291713Y0038332D01*
X0291713Y0037987D02*
X0291713Y0040764D01*
X0318461Y0040764D01*
X0318461Y0035252D01*
X0291615Y0035252D01*
X0291615Y0037888D01*
X0291713Y0037987D01*
X0291615Y0036760D02*
X0318461Y0036760D01*
X0318461Y0035974D02*
X0291615Y0035974D01*
X0291713Y0039118D02*
X0318461Y0039118D01*
X0318461Y0039903D02*
X0291713Y0039903D01*
X0291713Y0040689D02*
X0318461Y0040689D01*
X0279863Y0034524D02*
X0279863Y0034445D01*
X0277229Y0034445D01*
X0277229Y0033579D01*
X0263438Y0033579D01*
X0256243Y0035252D01*
X0262362Y0035252D01*
X0262460Y0035154D01*
X0263683Y0035154D01*
X0263794Y0035264D01*
X0268204Y0035350D01*
X0277229Y0035350D01*
X0277229Y0034524D01*
X0279863Y0034524D01*
X0277229Y0034402D02*
X0259898Y0034402D01*
X0262426Y0035188D02*
X0256518Y0035188D01*
X0263277Y0033616D02*
X0277229Y0033616D01*
X0277229Y0035188D02*
X0263718Y0035188D01*
X0236143Y0036728D02*
X0236143Y0036827D01*
X0230985Y0032044D02*
X0229623Y0032044D01*
X0070212Y0011611D02*
X0064979Y0011611D01*
X0063900Y0010825D02*
X0069559Y0010825D01*
X0069234Y0010039D02*
X0025229Y0010039D01*
X0026643Y0009253D02*
X0069174Y0009253D01*
X0069246Y0008467D02*
X0028058Y0008467D01*
X0038269Y0025757D02*
X0057212Y0025757D01*
X0056426Y0026543D02*
X0038269Y0026543D01*
X0038269Y0027329D02*
X0055985Y0027329D01*
X0055985Y0028115D02*
X0038269Y0028115D01*
X0038269Y0028901D02*
X0055985Y0028901D01*
X0055985Y0029687D02*
X0038269Y0029687D01*
X0038269Y0030472D02*
X0055985Y0030472D01*
X0055985Y0031258D02*
X0038269Y0031258D01*
X0057560Y0028901D02*
X0062845Y0028901D01*
D29*
X0060513Y0032890D03*
X0080198Y0027378D03*
X0082954Y0027378D03*
X0090040Y0028756D03*
X0093977Y0028756D03*
X0095552Y0032299D03*
X0086497Y0036433D03*
X0087678Y0038598D03*
X0085316Y0038598D03*
X0111694Y0043323D03*
X0113662Y0039976D03*
X0124883Y0036433D03*
X0127245Y0036433D03*
X0135513Y0039976D03*
X0126457Y0040173D03*
X0129607Y0043520D03*
X0152442Y0042339D03*
X0160513Y0039189D03*
X0162678Y0039189D03*
X0164843Y0039189D03*
X0180788Y0042732D03*
X0188662Y0045882D03*
X0196339Y0046866D03*
X0206969Y0051000D03*
X0214056Y0047850D03*
X0214056Y0045685D03*
X0214056Y0043520D03*
X0213269Y0038598D03*
X0215434Y0038598D03*
X0217796Y0038598D03*
X0196733Y0038402D03*
X0193583Y0032299D03*
X0203623Y0030528D03*
X0210513Y0031315D03*
X0213859Y0028362D03*
X0218583Y0028362D03*
X0230198Y0031512D03*
X0245552Y0028953D03*
X0252048Y0028953D03*
X0264843Y0028165D03*
X0273308Y0022457D03*
X0251457Y0021079D03*
X0249292Y0019701D03*
X0251261Y0018323D03*
X0244961Y0017142D03*
X0245355Y0014583D03*
X0224489Y0014189D03*
X0227639Y0021866D03*
X0249292Y0022457D03*
X0279213Y0013008D03*
X0270749Y0005724D03*
X0249489Y0005528D03*
X0237875Y0005331D03*
X0225670Y0005331D03*
X0174686Y0005331D03*
X0161300Y0005331D03*
X0151064Y0005528D03*
X0139056Y0005331D03*
X0127442Y0005528D03*
X0103820Y0005331D03*
X0096143Y0005331D03*
X0100080Y0009858D03*
X0081772Y0014780D03*
X0080394Y0017142D03*
X0083347Y0017142D03*
X0066812Y0014583D03*
X0055001Y0014583D03*
X0058347Y0009268D03*
X0063662Y0009268D03*
X0060513Y0005331D03*
X0080394Y0005331D03*
X0038662Y0005331D03*
X0025080Y0017142D03*
X0017206Y0017142D03*
X0095158Y0021866D03*
X0105591Y0022654D03*
X0117796Y0021276D03*
X0121930Y0021276D03*
X0129213Y0021472D03*
X0134331Y0023835D03*
X0136891Y0023835D03*
X0152048Y0025606D03*
X0157757Y0027378D03*
X0160513Y0027378D03*
X0163269Y0027378D03*
X0168780Y0026197D03*
X0184135Y0026787D03*
X0195355Y0026984D03*
X0147324Y0029150D03*
X0147324Y0031512D03*
X0113662Y0030528D03*
X0113662Y0028362D03*
X0108347Y0026197D03*
X0113662Y0032890D03*
X0158150Y0046866D03*
X0161891Y0049819D03*
X0166615Y0049819D03*
X0170355Y0046669D03*
X0204017Y0054346D03*
X0198308Y0060449D03*
X0221930Y0060449D03*
X0226064Y0057299D03*
X0230394Y0054346D03*
X0230394Y0051394D03*
X0241024Y0051197D03*
X0243780Y0051197D03*
X0243977Y0047654D03*
X0261300Y0044701D03*
X0266221Y0047457D03*
X0277245Y0052378D03*
X0283544Y0051787D03*
X0251851Y0060449D03*
X0245552Y0060449D03*
X0275867Y0042339D03*
X0286300Y0042732D03*
X0264646Y0039189D03*
X0253623Y0039189D03*
X0244371Y0039189D03*
X0266418Y0034661D03*
X0276064Y0034071D03*
X0162875Y0060449D03*
X0133347Y0060449D03*
X0103623Y0060646D03*
X0080001Y0060449D03*
X0062481Y0056315D03*
X0058741Y0056315D03*
X0060513Y0060449D03*
X0038465Y0060449D03*
X0055001Y0051000D03*
X0066615Y0050606D03*
X0080788Y0049228D03*
X0085513Y0048638D03*
X0087875Y0048638D03*
X0086694Y0050409D03*
X0025276Y0048638D03*
X0017402Y0048638D03*
D30*
X0236143Y0036728D02*
X0263170Y0036728D01*
X0268190Y0036827D01*
X0279804Y0036827D01*
X0281576Y0036236D01*
X0281969Y0036236D01*
X0282166Y0036039D01*
X0282560Y0036039D01*
X0287481Y0036039D01*
X0293190Y0037811D01*
X0295276Y0037811D01*
X0295355Y0037890D01*
X0305355Y0037890D01*
X0288859Y0037916D02*
X0284392Y0037916D01*
X0284384Y0037902D02*
X0284554Y0038197D01*
X0284643Y0038526D01*
X0284642Y0039189D01*
X0282560Y0039189D01*
X0284643Y0039189D01*
X0284643Y0039557D01*
X0284791Y0039573D01*
X0285218Y0039573D01*
X0285272Y0039627D01*
X0285347Y0039635D01*
X0285614Y0039969D01*
X0285916Y0040271D01*
X0285916Y0040346D01*
X0286388Y0040937D01*
X0287044Y0040937D01*
X0288095Y0041989D01*
X0288095Y0043476D01*
X0287044Y0044528D01*
X0285556Y0044528D01*
X0284505Y0043476D01*
X0284505Y0042394D01*
X0284243Y0042066D01*
X0284243Y0043202D01*
X0283750Y0043694D01*
X0283750Y0048638D01*
X0288859Y0048638D01*
X0288859Y0037714D01*
X0287301Y0037230D01*
X0284243Y0037230D01*
X0284243Y0037760D01*
X0284384Y0037902D01*
X0284243Y0037327D02*
X0287612Y0037327D01*
X0288859Y0038505D02*
X0284637Y0038505D01*
X0284643Y0039094D02*
X0288859Y0039094D01*
X0288859Y0039683D02*
X0285385Y0039683D01*
X0285916Y0040272D02*
X0288859Y0040272D01*
X0288859Y0040861D02*
X0286328Y0040861D01*
X0287557Y0041450D02*
X0288859Y0041450D01*
X0288859Y0042039D02*
X0288095Y0042039D01*
X0288095Y0042628D02*
X0288859Y0042628D01*
X0288859Y0043217D02*
X0288095Y0043217D01*
X0287765Y0043806D02*
X0288859Y0043806D01*
X0288859Y0044395D02*
X0287176Y0044395D01*
X0285424Y0044395D02*
X0283750Y0044395D01*
X0283750Y0043806D02*
X0284835Y0043806D01*
X0284505Y0043217D02*
X0284227Y0043217D01*
X0284243Y0042628D02*
X0284505Y0042628D01*
X0286300Y0042732D02*
X0284725Y0040764D01*
X0282560Y0040764D01*
X0282560Y0039189D02*
X0282560Y0039189D01*
X0282560Y0039189D01*
X0280477Y0039189D01*
X0280477Y0039307D01*
X0280040Y0039307D01*
X0279765Y0039307D01*
X0279765Y0041331D01*
X0278452Y0041331D01*
X0278123Y0041242D01*
X0277828Y0041072D01*
X0277586Y0040831D01*
X0277416Y0040535D01*
X0277328Y0040206D01*
X0277328Y0039307D01*
X0279764Y0039307D01*
X0279764Y0039031D01*
X0277328Y0039031D01*
X0277328Y0038133D01*
X0277358Y0038017D01*
X0273111Y0038017D01*
X0273111Y0048638D01*
X0281369Y0048638D01*
X0281369Y0043694D01*
X0280877Y0043202D01*
X0280877Y0041331D01*
X0280040Y0041331D01*
X0280040Y0039307D01*
X0280040Y0039031D01*
X0280477Y0039031D01*
X0280477Y0039189D01*
X0282560Y0039189D01*
X0280477Y0039094D02*
X0280040Y0039094D01*
X0279764Y0039094D02*
X0273111Y0039094D01*
X0273111Y0039683D02*
X0277328Y0039683D01*
X0277345Y0040272D02*
X0273111Y0040272D01*
X0273111Y0040861D02*
X0277616Y0040861D01*
X0279765Y0040861D02*
X0280040Y0040861D01*
X0280040Y0040272D02*
X0279765Y0040272D01*
X0279765Y0039683D02*
X0280040Y0039683D01*
X0277328Y0038505D02*
X0273111Y0038505D01*
X0263170Y0036728D02*
X0263072Y0036630D01*
X0273111Y0035636D02*
X0277358Y0035636D01*
X0277328Y0035521D01*
X0277328Y0034622D01*
X0279764Y0034622D01*
X0279764Y0034346D01*
X0277328Y0034346D01*
X0277328Y0033448D01*
X0277369Y0033293D01*
X0273111Y0033293D01*
X0273111Y0035636D01*
X0273111Y0035559D02*
X0277338Y0035559D01*
X0277328Y0034970D02*
X0273111Y0034970D01*
X0273111Y0034381D02*
X0279764Y0034381D01*
X0280040Y0034381D02*
X0280477Y0034381D01*
X0280477Y0034346D02*
X0280040Y0034346D01*
X0280040Y0034622D01*
X0280477Y0034622D01*
X0280477Y0034465D01*
X0282560Y0034465D01*
X0284643Y0034465D01*
X0284643Y0034849D01*
X0287187Y0034849D01*
X0287363Y0034756D01*
X0287662Y0034849D01*
X0287974Y0034849D01*
X0288115Y0034990D01*
X0288859Y0035220D01*
X0288859Y0033821D01*
X0288721Y0034003D01*
X0288630Y0034015D01*
X0288565Y0034080D01*
X0288152Y0034080D01*
X0287744Y0034136D01*
X0287671Y0034080D01*
X0284642Y0034080D01*
X0284642Y0034464D01*
X0282560Y0034464D01*
X0282560Y0034465D01*
X0282560Y0034464D01*
X0280477Y0034464D01*
X0280477Y0034346D01*
X0280985Y0032693D02*
X0282363Y0032693D01*
X0282560Y0032890D01*
X0288072Y0032890D01*
X0291812Y0027969D01*
X0295276Y0027969D01*
X0295355Y0027890D01*
X0305355Y0027890D01*
X0293977Y0017929D02*
X0284528Y0031315D01*
X0282363Y0031315D01*
X0281772Y0031315D01*
X0280985Y0030528D01*
X0258150Y0030528D01*
X0252442Y0031512D01*
X0243583Y0031512D01*
X0240729Y0031610D01*
X0236143Y0031610D01*
X0236143Y0034169D02*
X0250769Y0034169D01*
X0248311Y0034160D01*
X0254017Y0034071D01*
X0254804Y0034071D01*
X0263269Y0032102D01*
X0280001Y0032102D01*
X0280985Y0032693D01*
X0277328Y0033792D02*
X0273111Y0033792D01*
X0284642Y0034381D02*
X0288859Y0034381D01*
X0288859Y0034970D02*
X0288096Y0034970D01*
X0280877Y0041450D02*
X0273111Y0041450D01*
X0273111Y0042039D02*
X0280877Y0042039D01*
X0280877Y0042628D02*
X0273111Y0042628D01*
X0273111Y0043217D02*
X0280893Y0043217D01*
X0281369Y0043806D02*
X0273111Y0043806D01*
X0273111Y0044395D02*
X0281369Y0044395D01*
X0281369Y0044984D02*
X0273111Y0044984D01*
X0273111Y0045573D02*
X0281369Y0045573D01*
X0281369Y0046162D02*
X0273111Y0046162D01*
X0273111Y0046752D02*
X0281369Y0046752D01*
X0281369Y0047341D02*
X0273111Y0047341D01*
X0273111Y0047930D02*
X0281369Y0047930D01*
X0281369Y0048519D02*
X0273111Y0048519D01*
X0282560Y0049425D02*
X0283544Y0051787D01*
X0282560Y0049425D02*
X0282560Y0042339D01*
X0283750Y0044984D02*
X0288859Y0044984D01*
X0288859Y0045573D02*
X0283750Y0045573D01*
X0283750Y0046162D02*
X0288859Y0046162D01*
X0288859Y0046752D02*
X0283750Y0046752D01*
X0283750Y0047341D02*
X0288859Y0047341D01*
X0288859Y0047930D02*
X0283750Y0047930D01*
X0283750Y0048519D02*
X0288859Y0048519D01*
X0293977Y0017929D02*
X0295316Y0017929D01*
X0295355Y0017890D01*
X0305355Y0017890D01*
D31*
X0230591Y0034858D02*
X0229902Y0034169D01*
X0225828Y0034169D01*
X0230591Y0034858D02*
X0230591Y0039583D01*
X0232560Y0041551D01*
X0232560Y0043913D01*
X0225867Y0044504D02*
X0225867Y0036728D01*
X0225828Y0036728D01*
X0225473Y0029091D02*
X0225828Y0029051D01*
X0225670Y0028894D01*
X0225670Y0026197D01*
X0224883Y0025409D01*
X0203426Y0025409D01*
X0200080Y0028756D01*
X0200080Y0046079D01*
X0205001Y0046079D01*
X0200080Y0046079D02*
X0200080Y0051000D01*
X0180001Y0051000D01*
X0180001Y0047850D01*
X0175473Y0047850D01*
X0183938Y0047850D02*
X0184528Y0048441D01*
X0193190Y0048441D01*
X0193583Y0048047D01*
X0193583Y0032299D01*
X0183938Y0030921D02*
X0175473Y0030921D01*
X0175080Y0031315D01*
X0173898Y0031315D01*
X0173603Y0031610D01*
X0168583Y0031610D01*
X0168583Y0034169D02*
X0173209Y0034169D01*
X0173505Y0034465D01*
X0175080Y0034465D01*
X0175473Y0034858D01*
X0175473Y0039583D01*
X0175473Y0043520D01*
X0175473Y0043913D01*
X0180788Y0042732D02*
X0183938Y0042732D01*
X0179410Y0039583D02*
X0179410Y0039386D01*
X0179804Y0038992D01*
X0183741Y0038992D01*
X0183938Y0038795D01*
X0188662Y0038795D01*
X0183938Y0038795D02*
X0183938Y0034858D01*
X0152442Y0034169D02*
X0152343Y0034071D01*
X0145158Y0034071D01*
X0145158Y0034858D01*
X0144765Y0034465D01*
X0144765Y0028165D01*
X0143583Y0026984D01*
X0140434Y0026984D01*
X0140434Y0030921D02*
X0140434Y0034858D01*
X0135709Y0034858D01*
X0135709Y0030921D01*
X0125867Y0029346D02*
X0125670Y0029150D01*
X0118977Y0029150D01*
X0125867Y0033284D02*
X0125867Y0036154D01*
X0125867Y0033284D01*
X0125867Y0033284D01*
X0125867Y0034429D02*
X0125867Y0034429D01*
X0125867Y0035805D02*
X0125867Y0035805D01*
X0125867Y0036154D02*
X0124441Y0036154D01*
X0123960Y0036025D01*
X0123529Y0035776D01*
X0123178Y0035424D01*
X0123090Y0035273D01*
X0122733Y0035630D01*
X0122733Y0036630D01*
X0122733Y0038008D01*
X0125262Y0038008D01*
X0125473Y0037797D01*
X0127442Y0037797D01*
X0127653Y0038008D01*
X0128229Y0038008D01*
X0128229Y0035751D01*
X0128204Y0035776D01*
X0127774Y0036025D01*
X0127293Y0036154D01*
X0125867Y0036154D01*
X0128154Y0035805D02*
X0128229Y0035805D01*
X0128229Y0037182D02*
X0122733Y0037182D01*
X0122733Y0036630D02*
X0118977Y0036630D01*
X0118977Y0036630D01*
X0122733Y0036630D01*
X0122733Y0035805D02*
X0123580Y0035805D01*
X0131772Y0034858D02*
X0131772Y0037614D01*
X0132363Y0038205D01*
X0132363Y0046866D01*
X0105198Y0046866D01*
X0104017Y0045685D01*
X0092796Y0045685D01*
X0091969Y0045646D01*
X0091635Y0043480D01*
X0098702Y0041551D02*
X0098702Y0036827D01*
X0098702Y0032102D01*
X0095749Y0032102D01*
X0095552Y0032299D01*
X0098702Y0032102D02*
X0098702Y0027378D01*
X0098702Y0022654D01*
X0098702Y0019504D01*
X0101654Y0016354D01*
X0099883Y0014583D01*
X0096339Y0014583D01*
X0101654Y0016354D02*
X0101654Y0016551D01*
X0103229Y0018126D01*
X0121930Y0018126D01*
X0123898Y0017142D01*
X0150276Y0017142D01*
X0151457Y0018323D01*
X0163269Y0018323D01*
X0163859Y0018913D01*
X0178623Y0018913D01*
X0184331Y0013205D01*
X0206851Y0013205D01*
X0211851Y0018205D01*
X0201851Y0018205D02*
X0196812Y0023244D01*
X0188072Y0023244D01*
X0187284Y0022654D01*
X0186497Y0022260D01*
X0159528Y0022260D01*
X0155591Y0022260D02*
X0146733Y0022260D01*
X0146143Y0021866D01*
X0144568Y0021276D01*
X0133150Y0021276D01*
X0131772Y0022654D01*
X0131772Y0034858D01*
X0140434Y0038795D02*
X0145158Y0038795D01*
X0152442Y0038795D01*
X0152442Y0042339D01*
X0151457Y0043126D01*
X0148898Y0043126D01*
X0152442Y0038795D02*
X0152442Y0036728D01*
X0118977Y0043323D02*
X0118780Y0043520D01*
X0107166Y0043126D02*
X0106182Y0043126D01*
X0104607Y0041551D01*
X0102639Y0041551D01*
X0102639Y0036827D02*
X0102835Y0036630D01*
X0108347Y0036630D01*
X0081635Y0043480D02*
X0081635Y0043776D01*
X0081772Y0043913D01*
X0081576Y0044110D01*
X0081576Y0048441D01*
X0080788Y0049228D01*
X0086635Y0022299D02*
X0086595Y0022260D01*
X0086497Y0022260D01*
X0225080Y0028953D02*
X0225473Y0029091D01*
X0232757Y0047654D02*
X0232560Y0047850D01*
X0232757Y0047654D02*
X0237087Y0047654D01*
X0237087Y0052575D01*
X0236694Y0052969D01*
D32*
X0146733Y0022260D03*
X0101654Y0016354D03*
D33*
X0125867Y0025409D02*
X0125867Y0029346D01*
X0211300Y0034465D02*
X0211300Y0054740D01*
X0220355Y0054740D01*
X0220355Y0047358D01*
X0219628Y0047358D01*
X0218879Y0046609D01*
X0218879Y0042399D01*
X0219628Y0041650D01*
X0220355Y0041650D01*
X0220355Y0034465D01*
X0211300Y0034465D01*
X0211300Y0034808D02*
X0220355Y0034808D01*
X0220355Y0035790D02*
X0211300Y0035790D01*
X0211300Y0036773D02*
X0220355Y0036773D01*
X0220355Y0037756D02*
X0211300Y0037756D01*
X0211300Y0038739D02*
X0220355Y0038739D01*
X0220355Y0039721D02*
X0211300Y0039721D01*
X0211300Y0040704D02*
X0220355Y0040704D01*
X0219591Y0041687D02*
X0211300Y0041687D01*
X0211300Y0042670D02*
X0218879Y0042670D01*
X0218879Y0043653D02*
X0211300Y0043653D01*
X0211300Y0044635D02*
X0218879Y0044635D01*
X0218879Y0045618D02*
X0211300Y0045618D01*
X0211300Y0046601D02*
X0218879Y0046601D01*
X0220355Y0047584D02*
X0211300Y0047584D01*
X0211300Y0048566D02*
X0220355Y0048566D01*
X0220355Y0049549D02*
X0211300Y0049549D01*
X0211300Y0050532D02*
X0220355Y0050532D01*
X0220355Y0051515D02*
X0211300Y0051515D01*
X0211300Y0052497D02*
X0220355Y0052497D01*
X0220355Y0053480D02*
X0211300Y0053480D01*
X0211300Y0054463D02*
X0220355Y0054463D01*
D34*
X0122324Y0043520D02*
X0118780Y0043520D01*
X0118977Y0043323D02*
X0118977Y0036630D01*
X0081772Y0043480D02*
X0081635Y0043480D01*
X0086497Y0022260D02*
X0086694Y0021669D01*
X0086694Y0015370D01*
X0087481Y0014583D01*
X0092402Y0014583D01*
X0092402Y0009858D01*
D35*
X0086497Y0043343D02*
X0086635Y0043480D01*
X0086891Y0043736D01*
X0086635Y0043480D02*
X0086694Y0043421D01*
M02*
