%
M48
M72
T01C0.0098
T02C0.0100
T03C0.0236
T04C0.0315
T05C0.0330
T06C0.0394
T07C0.0400
T08C0.0600
T09C0.0876
T10C0.0935
T11C0.0945
T12C0.1250
%
T01
X30525Y9288
X29383Y21335
X35052Y24052
X35052Y25174
X41804Y25430
X43103Y25430
X30170Y29445
X22848Y22398
X13044Y35626
T02
X505Y1926
X3911Y1926
X7848Y1926
X10859Y3225
X11174Y3205
X13182Y3422
X14088Y3382
X15722Y1926
X16509Y3363
X16863Y3343
X17218Y3422
X18182Y3540
X17139Y4485
X17395Y6512
X17985Y6434
X18438Y7004
X18753Y7024
X18123Y7595
X17867Y7595
X17592Y7674
X17336Y7752
X17159Y7536
X16863Y7556
X16706Y7260
X16568Y8067
X17119Y8245
X17355Y8126
X17867Y8500
X18084Y8658
X17690Y8737
X18025Y9485
X17552Y9741
X16785Y10075
X17119Y10351
X16706Y10784
X15997Y10705
X15800Y10508
X15564Y10311
X16214Y9898
X15170Y9170
X15190Y8894
X15308Y7930
X15584Y7930
X14934Y7575
X14698Y7575
X14245Y7497
X13930Y7182
X13084Y7378
X12926Y7162
X12355Y6473
X11686Y6473
X10328Y7359
X10052Y7123
X9737Y7457
X9560Y8008
X9777Y8225
X10544Y9071
X8596Y9563
X8241Y9248
X7710Y9091
X7375Y9111
X6529Y8560
X6529Y8008
X7375Y7615
X7710Y7733
X8517Y6768
X11391Y7674
X12336Y8697
X12060Y8815
X12926Y8422
X12966Y9347
X11981Y10174
X11725Y10174
X10210Y10056
X9718Y10430
X9737Y10941
X9225Y11729
X9599Y11926
X9462Y12221
X9698Y12536
X9107Y12831
X7690Y12831
X7690Y12280
X6647Y12280
X6214Y12339
X6253Y12930
X6647Y12831
X6647Y13382
X7690Y13382
X7690Y13934
X7690Y14485
X6647Y14485
X6647Y13934
X6647Y15036
X6214Y15292
X6647Y15587
X6647Y16138
X6214Y15961
X5072Y15292
X4599Y15961
X6253Y18126
X6253Y18678
X4442Y19071
X4363Y18284
X505Y17674
X505Y21611
X4875Y21670
X4875Y22378
X6253Y22339
X6253Y21748
X8281Y19819
X8281Y19524
X8556Y19524
X8851Y19524
X9029Y19819
X9206Y20430
X9285Y20725
X9718Y20311
X9678Y19662
X10072Y19485
X9088Y19229
X9403Y18186
X10328Y18067
X10525Y17792
X10722Y17556
X10977Y17103
X11017Y16827
X11430Y16926
X11548Y16670
X11706Y16453
X11588Y16217
X11903Y15863
X12572Y15745
X12021Y15311
X12021Y14623
X11391Y13874
X10958Y13500
X10643Y13382
X11391Y13107
X11666Y12674
X10662Y12457
X11371Y12004
X12729Y13481
X13143Y14445
X13399Y14760
X13773Y14524
X13930Y14288
X14265Y14189
X14462Y14012
X14836Y14308
X15367Y13658
X15603Y13540
X15997Y13067
X15840Y12871
X16214Y12752
X16253Y12359
X16863Y12398
X17178Y11493
X17670Y11394
X18635Y11197
X19068Y10725
X19540Y10745
X20800Y10075
X21253Y10941
X22375Y10941
X22749Y10705
X23418Y11414
X24029Y11532
X24914Y11630
X25407Y11138
X24029Y10941
X24855Y10075
X24422Y9701
X25348Y9052
X25564Y8481
X26351Y7890
X26568Y7260
X27926Y7634
X28596Y7359
X28930Y7359
X29993Y8126
X31391Y7949
X31903Y7910
X32907Y7260
X31903Y7044
X31391Y7004
X33458Y6158
X34127Y6748
X34737Y8245
X34560Y8697
X35190Y9111
X35722Y8914
X35977Y9308
X36588Y9248
X36489Y8874
X37454Y8461
X37887Y8815
X38359Y8815
X39245Y8461
X39659Y8500
X39304Y9091
X39977Y9245
X40840Y9524
X40840Y10056
X41332Y9918
X40111Y10351
X40111Y10804
X39954Y12201
X40603Y12319
X40879Y13186
X40111Y13993
X38812Y14504
X38517Y14288
X39048Y15115
X39481Y16158
X38812Y16532
X38517Y16414
X37867Y16158
X37651Y16729
X37651Y17044
X37946Y16945
X37257Y16729
X36312Y16296
X35603Y16335
X34934Y16355
X34698Y16079
X34225Y16079
X34245Y16493
X33753Y16493
X33005Y15784
X31096Y15764
X31135Y14367
X33005Y14406
X34481Y15646
X35111Y15784
X35111Y15489
X35348Y15213
X35348Y14898
X36509Y15115
X36627Y14642
X36627Y14248
X37690Y13441
X37690Y13205
X37414Y12752
X37178Y12615
X37670Y12634
X38123Y12615
X38399Y12615
X38359Y12182
X35170Y12536
X35170Y12890
X34580Y12674
X34934Y12103
X34934Y11768
X34934Y11276
X34934Y10922
X35367Y10548
X33359Y9209
X32985Y9918
X32375Y10036
X31627Y10036
X31627Y9288
X30072Y10056
X30426Y11197
X31056Y12615
X32985Y12654
X29560Y14603
X27611Y15233
X26391Y15272
X26194Y15036
X25958Y14839
X25840Y15390
X25682Y16178
X25603Y16532
X25840Y16729
X25426Y17792
X25210Y17831
X25544Y18205
X25820Y18008
X25722Y18658
X25800Y18953
X24914Y18973
X24718Y18678
X24580Y18382
X24836Y18166
X24029Y17871
X24344Y18914
X23635Y19012
X23241Y18934
X22848Y18363
X22533Y18599
X22198Y18599
X21706Y18855
X22592Y19524
X22513Y20134
X22316Y20134
X22710Y20311
X22985Y20311
X22434Y20863
X22099Y20686
X21942Y21374
X22336Y22477
X23123Y22319
X23714Y22477
X24068Y23245
X23103Y23186
X22651Y23382
X21922Y23815
X21332Y23756
X19895Y23500
X19442Y23107
X20111Y22890
X20229Y22615
X20367Y22359
X20662Y22556
X19718Y22437
X18812Y22182
X18635Y21926
X18162Y21473
X19068Y21079
X19265Y20823
X20466Y21335
X19718Y21729
X20564Y20331
X18202Y19819
X17474Y20902
X15761Y19957
X15485Y19682
X15210Y19327
X14540Y19012
X14225Y19229
X14285Y19721
X14147Y19957
X14678Y20134
X15288Y20548
X14501Y20666
X13615Y21335
X13162Y21414
X12867Y21158
X12395Y22004
X12099Y21847
X11706Y21765
X10643Y22516
X10387Y22280
X10997Y22733
X12848Y23382
X13497Y23402
X13655Y23225
X14029Y23599
X13635Y23796
X14344Y23953
X14659Y24268
X13989Y24642
X14481Y25075
X14718Y25272
X13694Y25784
X13477Y25587
X13182Y24997
X13103Y24741
X13025Y24504
X12631Y24642
X12631Y24918
X11076Y24859
X10564Y24977
X10111Y25115
X9875Y25233
X9265Y26099
X9265Y27949
X9914Y28087
X10111Y28343
X10564Y28107
X11096Y27890
X12375Y27752
X12729Y27477
X12848Y27241
X13241Y26630
X13930Y26965
X14166Y27182
X13655Y27674
X15170Y26630
X16666Y26571
X16903Y26571
X17769Y26453
X17926Y26060
X17788Y25410
X17788Y25095
X18261Y25193
X18517Y24819
X18399Y24426
X17139Y24485
X16903Y24642
X17099Y24839
X16863Y24957
X16411Y24563
X16450Y24229
X16706Y24367
X17099Y24189
X15958Y23914
X15662Y23264
X14442Y22634
X14225Y22300
X14265Y21985
X14344Y21729
X13615Y21867
X12237Y20311
X13379Y19721
X13300Y18756
X13359Y18186
X13950Y17477
X14206Y17418
X14009Y17221
X13812Y17044
X14127Y16808
X14836Y16650
X14796Y16138
X15466Y15508
X15288Y15272
X15958Y15115
X16036Y15469
X16686Y15390
X17178Y15430
X18182Y16099
X17493Y16374
X16686Y16374
X17592Y17221
X17788Y17044
X18182Y17437
X17966Y17615
X17336Y17989
X17454Y18697
X16548Y18756
X18379Y18697
X19403Y18579
X18615Y17241
X18438Y16867
X19639Y16099
X20466Y16650
X20662Y16867
X20958Y16670
X20958Y16414
X20761Y16138
X21922Y15272
X21765Y15016
X20918Y14800
X19324Y14741
X18753Y14878
X18320Y14445
X18536Y14091
X18222Y13796
X18970Y13067
X19127Y12831
X18891Y12418
X18497Y12319
X18556Y12674
X19708Y13471
X19727Y13727
X20623Y13560
X20722Y13815
X20761Y13107
X21745Y12654
X22159Y12437
X22198Y11945
X21785Y11493
X20722Y12241
X23005Y12477
X23005Y12004
X23143Y13028
X24068Y12871
X24068Y12516
X25348Y12969
X25722Y13441
X26214Y12654
X25997Y12477
X26529Y12241
X28123Y12339
X27513Y13422
X26351Y14327
X25446Y14445
X24029Y14760
X24836Y15430
X24974Y15843
X23891Y16493
X23655Y16197
X23517Y16552
X23123Y16630
X22907Y16945
X22218Y16079
X21765Y17162
X21706Y17536
X21371Y17142
X20977Y17260
X17670Y14701
X16568Y14308
X16135Y14386
X16824Y13874
X15170Y12831
X15111Y12575
X14639Y12123
X14344Y12398
X14166Y12182
X14639Y11611
X14265Y11020
X13911Y11020
X14678Y10587
X16509Y8737
X16883Y8934
X18812Y8323
X19501Y8343
X19304Y8894
X19560Y9347
X19934Y9091
X20308Y9130
X21115Y8894
X21411Y9150
X21903Y9465
X22139Y9130
X22513Y8855
X22848Y9091
X23044Y8441
X23281Y8225
X23379Y7693
X23930Y7989
X24225Y7634
X24599Y7260
X24796Y6748
X25151Y6808
X25151Y6138
X26135Y6178
X24127Y6473
X23418Y6315
X21903Y7182
X21115Y7004
X20623Y6394
X20033Y6394
X20033Y7615
X19599Y7713
X20111Y8186
X20348Y8048
X20722Y8304
X21332Y8225
X21942Y8441
X20800Y7674
X25702Y10174
X25899Y9445
X27099Y9288
X27099Y9997
X21883Y13658
X22966Y14386
X23123Y14170
X29206Y16591
X29639Y17024
X29619Y18737
X29816Y19012
X30013Y18737
X30544Y18638
X29344Y19229
X29107Y19229
X28517Y18855
X27926Y19445
X27946Y20134
X28182Y20607
X28182Y20882
X28497Y20882
X28497Y20607
X28812Y20607
X28812Y20882
X29048Y21158
X29048Y21473
X29560Y21827
X29993Y21630
X30269Y21630
X30544Y21630
X30859Y21630
X31135Y21630
X31411Y21630
X29836Y22221
X27788Y20882
X27434Y20882
X26647Y21276
X25151Y22103
X25466Y22182
X25466Y22437
X26666Y22654
X24540Y21099
X24265Y21296
X24521Y20567
X24698Y19780
X25249Y19741
X26588Y19898
X29088Y20292
X29403Y20292
X31253Y20174
X31529Y20174
X31725Y20489
X32040Y20489
X32355Y20489
X33733Y20705
X35623Y20489
X35544Y19623
X36745Y19603
X37592Y20587
X36981Y21335
X36666Y21335
X36351Y21335
X36036Y21335
X37296Y21591
X38930Y21119
X40702Y21119
X42670Y21119
X43202Y20686
X44639Y21119
X46489Y21276
X47533Y20469
X47552Y20056
X47237Y20174
X48064Y20410
X50662Y21158
X50544Y21650
X52907Y21197
X54599Y21512
X53005Y19130
X52552Y19327
X52572Y18540
X51155Y17969
X50682Y18953
X49855Y18008
X48596Y18067
X48123Y18481
X47552Y18441
X46804Y18048
X46351Y18028
X46135Y16867
X47139Y16689
X47592Y16178
X47178Y15626
X46804Y15233
X46312Y15666
X45879Y14760
X44796Y14111
X44462Y13540
X43970Y13914
X43714Y14485
X43989Y15174
X42887Y15233
X42769Y14288
X42867Y13914
X41627Y14012
X43655Y12772
X46253Y12162
X46312Y11591
X47001Y11315
X45899Y10686
X44993Y9898
X45328Y9878
X45997Y9288
X46548Y9721
X46824Y9524
X46981Y9130
X47454Y9327
X47218Y8697
X46312Y8500
X46273Y8028
X46351Y7733
X46765Y7811
X45485Y7634
X44324Y7851
X43674Y7713
X43241Y7752
X42938Y7717
X42611Y7595
X42139Y7044
X41411Y7733
X40367Y7674
X39970Y7693
X39698Y7674
X39265Y7634
X38989Y7044
X39521Y6355
X40190Y6355
X40682Y7004
X41568Y6040
X42651Y5961
X42788Y6276
X43379Y6473
X44796Y6394
X46056Y6237
X46804Y6158
X47001Y5922
X48458Y6906
X49285Y7811
X49580Y7615
X50407Y7595
X50741Y7811
X50761Y7044
X50111Y6394
X49639Y6119
X48851Y4406
X48536Y3422
X47218Y1926
X51155Y1926
X55092Y1926
X59029Y1926
X59029Y3343
X59029Y7280
X53517Y8894
X53281Y8264
X52257Y8028
X51863Y9170
X51036Y9524
X52296Y9918
X53005Y9859
X53320Y10823
X52749Y11788
X50466Y12280
X48635Y13658
X47572Y13205
X46863Y12713
X47572Y14406
X49501Y15174
X50662Y15174
X52690Y14170
X53005Y14386
X53517Y15233
X59029Y15154
X59029Y11217
X50643Y10764
X48320Y9957
X47926Y9937
X43891Y10272
X43674Y9760
X43359Y9563
X43044Y9406
X42139Y8363
X39127Y9623
X37710Y7693
X37099Y7634
X36824Y7752
X36430Y7674
X36076Y7713
X35741Y7693
X37454Y7004
X36962Y6355
X36292Y6394
X38576Y6079
X39344Y1926
X43281Y1926
X35407Y1926
X31470Y1926
X27533Y1926
X23596Y1926
X19659Y1926
X25151Y4406
X25997Y4563
X28182Y6119
X30485Y4445
X42887Y10764
X43950Y10764
X36863Y15784
X39619Y17398
X40485Y16729
X40859Y16670
X40859Y16158
X40899Y17497
X40151Y18067
X40485Y18441
X41981Y18126
X42611Y18756
X43202Y18126
X43733Y17674
X44462Y17989
X44009Y18520
X47040Y22477
X47513Y22693
X47572Y23579
X47395Y24741
X46273Y24997
X45111Y23973
X45111Y23560
X45111Y23166
X45879Y22713
X41411Y24347
X41411Y24623
X41411Y24898
X41411Y25174
X41135Y25174
X41135Y24898
X41135Y24623
X41135Y24347
X40859Y24071
X40584Y24071
X40584Y23796
X40859Y23796
X40308Y23796
X40308Y24071
X40033Y24071
X40033Y23796
X39757Y23796
X39757Y24071
X39481Y24071
X39206Y24071
X39206Y23796
X39481Y23796
X38930Y23796
X38930Y24071
X38773Y24347
X38773Y24623
X38773Y24898
X38773Y25174
X38497Y25174
X38497Y24898
X38497Y24623
X38497Y24347
X34599Y23441
X34324Y23441
X34324Y23166
X34599Y23166
X34599Y22890
X34324Y22890
X34324Y22615
X34599Y22615
X34009Y22260
X34009Y21985
X33733Y21985
X33458Y21985
X33458Y22260
X33733Y22260
X33182Y22260
X33182Y21985
X32907Y22615
X32907Y22890
X32907Y23166
X32907Y23441
X32631Y23441
X32631Y23166
X32631Y22890
X32631Y22615
X30781Y24150
X30348Y24465
X28241Y24721
X29225Y25804
X30544Y26867
X27474Y26276
X25682Y24977
X25485Y24760
X25918Y24563
X21509Y25154
X21056Y25646
X20407Y25272
X20151Y24878
X18871Y26138
X19029Y26296
X18911Y26591
X18812Y27654
X18536Y27654
X18182Y27930
X18773Y28402
X19068Y28107
X19855Y28225
X18596Y29603
X17907Y28874
X18162Y30075
X15840Y31335
X15525Y31178
X14088Y30646
X13241Y31178
X13792Y31945
X13832Y32575
X13418Y32575
X14324Y32595
X14068Y33225
X14816Y33500
X14816Y33973
X14678Y34524
X14796Y34977
X15485Y35449
X15820Y35449
X17001Y35410
X17907Y35331
X18162Y34997
X18596Y34603
X17848Y34327
X17611Y34091
X17375Y34209
X17414Y33619
X17710Y33638
X16312Y33934
X16312Y34327
X15918Y34327
X15918Y33934
X15407Y32556
X17021Y32634
X19974Y33461
X20367Y32713
X20918Y32359
X20918Y31768
X21155Y31335
X22237Y29347
X23497Y29347
X27001Y28402
X27218Y28619
X27651Y28540
X27828Y28874
X27414Y29071
X27985Y31040
X27670Y31119
X27651Y31434
X27237Y31276
X27237Y31709
X26765Y31709
X28399Y31512
X30092Y33815
X30485Y33815
X30879Y33815
X32533Y34445
X32533Y35075
X32533Y35666
X34186Y34524
X35269Y33166
X37159Y32103
X38222Y33205
X38536Y32811
X39540Y32123
X40033Y32103
X40426Y32418
X40702Y31060
X41981Y29209
X42159Y28481
X42434Y28481
X42710Y28481
X42985Y28756
X43458Y28756
X44088Y28756
X44088Y29071
X44599Y29386
X45387Y29701
X45859Y30174
X45859Y30449
X46450Y30567
X46450Y31000
X46450Y31355
X46450Y31886
X46450Y32260
X46450Y32615
X46450Y33008
X46450Y33441
X46450Y33835
X46450Y34268
X46450Y34662
X46450Y35016
X46450Y35371
X45544Y36867
X43832Y38776
X47769Y38776
X51706Y38776
X55643Y38776
X59029Y38776
X53025Y36040
X53418Y34859
X59029Y34839
X59029Y30902
X53458Y29189
X50977Y28441
X48359Y27772
X46922Y28048
X46922Y28441
X46450Y28756
X46017Y28756
X45584Y28756
X45151Y28756
X44678Y28756
X46292Y29426
X41804Y28126
X41411Y27851
X41391Y28540
X38792Y28441
X35033Y27890
X38576Y33678
X37336Y34918
X37749Y35371
X37985Y35371
X39796Y35843
X39796Y36197
X39895Y38776
X35958Y38776
X34029Y38422
X33871Y37201
X34344Y37221
X34777Y37201
X29403Y36394
X27946Y35922
X27631Y35922
X27021Y37477
X28084Y38776
X24147Y38776
X20210Y38776
X18812Y38796
X18694Y37300
X19048Y36985
X19324Y37378
X19757Y37378
X18162Y37123
X17907Y36178
X19147Y35469
X19619Y35469
X20052Y36178
X21725Y34819
X21725Y34583
X16076Y36552
X15761Y36532
X15407Y36532
X14934Y36532
X14698Y37201
X14206Y37969
X14206Y38776
X12336Y38776
X12729Y37280
X13635Y36906
X13832Y36355
X12631Y35056
X12198Y35056
X11844Y35056
X11371Y35056
X10977Y34937
X10899Y35567
X10466Y34032
X10210Y33579
X10584Y33166
X10584Y32811
X10977Y32811
X10623Y31788
X10879Y31178
X11922Y31709
X12198Y31709
X11706Y30036
X11981Y29603
X12474Y28658
X12828Y28658
X13477Y28560
X14540Y29189
X9245Y28560
X8911Y29642
X7887Y29642
X6863Y29642
X7178Y28658
X6548Y28599
X5702Y30056
X5111Y31512
X7887Y33304
X8241Y33658
X8399Y34052
X8812Y34189
X7533Y34091
X7060Y34130
X6548Y34091
X5072Y34780
X4974Y35745
X8162Y36453
X8773Y35646
X9166Y35646
X8399Y38776
X4462Y38776
X525Y38776
X505Y37359
X505Y33422
X505Y29485
X505Y25548
X4678Y24977
X4993Y24347
X6273Y24465
X6214Y24937
X6745Y23382
X10387Y21237
X10603Y21237
X12375Y18658
X12178Y18304
X13320Y17201
X13517Y17359
X12474Y16650
X12316Y16473
X12178Y16670
X10505Y16099
X9363Y17004
X7651Y16138
X7690Y15587
X7690Y15036
X9363Y14859
X9363Y14504
X9127Y14150
X10741Y13934
X10741Y14741
X13615Y15272
X14225Y12792
X7729Y11670
X7808Y10941
X7808Y10508
X5052Y12319
X4934Y12969
X505Y13737
X505Y9800
X505Y5863
X11785Y1926
X14481Y6473
X15111Y6434
X15682Y7004
X15052Y17752
X14659Y17949
X14816Y18186
X14737Y18579
X17533Y23461
X17375Y25626
X20859Y26788
X21096Y26788
X23517Y21552
X33733Y19662
X33753Y18481
X34363Y18481
X34698Y18461
X47454Y26138
X50328Y25292
X52808Y26099
X53418Y25016
X54481Y26335
X54993Y26178
X57218Y23776
X59029Y23028
X59029Y19091
X59029Y26965
T03
X53989Y22201
X54521Y20567
X50466Y23048
X48044Y21650
X48064Y20922
X39914Y15292
X39914Y14760
X36509Y12792
X34580Y14898
X40092Y11335
X40662Y11335
X46135Y14052
X46863Y14150
X47493Y7615
X49914Y7811
X35210Y6670
X32375Y7634
X30367Y8579
X30052Y4721
X30052Y4091
X34875Y2457
X18635Y9662
X18911Y11689
X14186Y11768
X7336Y19760
X8655Y19839
X11096Y21611
X14324Y26237
X14383Y31256
X14422Y33028
X13458Y34032
X14344Y35784
X11430Y31591
X6155Y37083
X22710Y27634
X23576Y29898
X27769Y24504
X28399Y22792
X31292Y20804
X33891Y20095
X34186Y19209
X32060Y18737
X27808Y18855
X24659Y23697
X39934Y27201
X41824Y26571
X40210Y29248
X39029Y32634
X37887Y33028
X40741Y34662
X40682Y35272
X43359Y35075
X43359Y34603
T04
X56048Y19930
X57048Y19930
X57048Y18930
X56048Y18930
X56048Y17930
X57048Y17930
X57048Y16930
X56048Y16930
X56048Y15930
X57048Y15930
X57048Y14930
X56048Y14930
X56048Y13930
X57048Y13930
X57048Y12930
X56048Y12930
X56048Y11930
X57048Y11930
X57048Y10930
X56048Y10930
X51875Y4906
X50875Y4906
X49875Y4906
X48875Y4906
X47875Y4906
X46875Y4906
X45875Y4906
X44875Y4906
X43875Y4906
X42875Y4906
X41875Y4906
X40875Y4906
X39875Y4906
X38875Y4906
X37875Y4906
X36875Y4906
X35875Y4906
X34875Y4906
X33875Y4906
X32875Y4906
X32875Y3906
X33875Y3906
X34875Y3906
X35875Y3906
X36875Y3906
X37875Y3906
X38875Y3906
X39875Y3906
X40875Y3906
X41875Y3906
X42875Y3906
X43875Y3906
X44875Y3906
X45875Y3906
X46875Y3906
X47875Y3906
X48875Y3906
X49875Y3906
X50875Y3906
X51875Y3906
X26678Y3906
X25678Y3906
X24678Y3906
X23678Y3906
X22678Y3906
X21678Y3906
X20678Y3906
X19678Y3906
X18678Y3906
X17678Y3906
X16678Y3906
X15678Y3906
X14678Y3906
X13678Y3906
X12678Y3906
X11678Y3906
X10678Y3906
X9678Y3906
X8678Y3906
X7678Y3906
X7678Y4906
X8678Y4906
X9678Y4906
X10678Y4906
X11678Y4906
X12678Y4906
X13678Y4906
X14678Y4906
X15678Y4906
X16678Y4906
X17678Y4906
X18678Y4906
X19678Y4906
X20678Y4906
X21678Y4906
X22678Y4906
X23678Y4906
X24678Y4906
X25678Y4906
X26678Y4906
X3505Y9079
X2505Y9079
X2505Y10079
X3505Y10079
X3505Y11079
X2505Y11079
X2505Y12079
X3505Y12079
X3505Y13079
X2505Y13079
X2505Y14079
X3505Y14079
X3505Y15079
X2505Y15079
X2505Y16079
X3505Y16079
X3505Y17079
X2505Y17079
X2505Y18079
X3505Y18079
X3505Y19079
X2505Y19079
X2505Y20079
X3505Y20079
X3505Y21079
X2505Y21079
X2505Y22079
X3505Y22079
X3505Y23079
X2505Y23079
X2505Y24079
X3505Y24079
X3505Y25079
X2505Y25079
X2505Y26079
X3505Y26079
X3505Y27079
X2505Y27079
X2505Y28079
X3505Y28079
T05
X15436Y37083
X17346Y37083
T06
X55584Y33599
X55584Y31827
X55584Y30489
X58143Y30489
X58143Y31827
X58143Y33599
X58143Y28717
X55584Y28717
T07
X27914Y16178
X26914Y16178
X39186Y11717
X39186Y10717
X24044Y32752
X23044Y32752
X22044Y32752
X22044Y33752
X23044Y33752
X24044Y33752
X23584Y36977
X22584Y36977
X22584Y37977
X23584Y37977
T08
X17773Y38264
X15009Y38264
T09
X29068Y35075
X30367Y35981
X31666Y35075
T10
X31824Y37989
X28911Y37989
T11
X30367Y37556
T12
X56942Y36689
X56942Y4012
X2611Y4012
X2611Y36689
M30
