G75*
%MOIN*%
%OFA0B0*%
%FSLAX25Y25*%
%IPPOS*%
%LPD*%
%AMOC8*
5,1,8,0,0,1.08239X$1,22.5*
%
%ADD10C,0.00000*%
D10*
X0002491Y0186302D02*
X0593042Y0186302D01*
X0593042Y0560318D01*
X0002491Y0560357D01*
X0002491Y0186302D01*
X0019863Y0209924D02*
X0019865Y0210082D01*
X0019871Y0210239D01*
X0019881Y0210397D01*
X0019895Y0210554D01*
X0019913Y0210710D01*
X0019934Y0210867D01*
X0019960Y0211022D01*
X0019990Y0211177D01*
X0020023Y0211331D01*
X0020061Y0211484D01*
X0020102Y0211637D01*
X0020147Y0211788D01*
X0020196Y0211938D01*
X0020249Y0212086D01*
X0020305Y0212234D01*
X0020366Y0212379D01*
X0020429Y0212524D01*
X0020497Y0212666D01*
X0020568Y0212807D01*
X0020642Y0212946D01*
X0020720Y0213083D01*
X0020802Y0213218D01*
X0020886Y0213351D01*
X0020975Y0213482D01*
X0021066Y0213610D01*
X0021161Y0213737D01*
X0021258Y0213860D01*
X0021359Y0213982D01*
X0021463Y0214100D01*
X0021570Y0214216D01*
X0021680Y0214329D01*
X0021792Y0214440D01*
X0021908Y0214547D01*
X0022026Y0214652D01*
X0022146Y0214754D01*
X0022269Y0214852D01*
X0022395Y0214948D01*
X0022523Y0215040D01*
X0022653Y0215129D01*
X0022785Y0215215D01*
X0022920Y0215297D01*
X0023057Y0215376D01*
X0023195Y0215451D01*
X0023335Y0215523D01*
X0023478Y0215591D01*
X0023621Y0215656D01*
X0023767Y0215717D01*
X0023914Y0215774D01*
X0024062Y0215828D01*
X0024212Y0215878D01*
X0024362Y0215924D01*
X0024514Y0215966D01*
X0024667Y0216005D01*
X0024821Y0216039D01*
X0024976Y0216070D01*
X0025131Y0216096D01*
X0025287Y0216119D01*
X0025444Y0216138D01*
X0025601Y0216153D01*
X0025758Y0216164D01*
X0025916Y0216171D01*
X0026074Y0216174D01*
X0026231Y0216173D01*
X0026389Y0216168D01*
X0026546Y0216159D01*
X0026704Y0216146D01*
X0026860Y0216129D01*
X0027017Y0216108D01*
X0027172Y0216084D01*
X0027327Y0216055D01*
X0027482Y0216022D01*
X0027635Y0215986D01*
X0027788Y0215945D01*
X0027939Y0215901D01*
X0028089Y0215853D01*
X0028238Y0215802D01*
X0028386Y0215746D01*
X0028532Y0215687D01*
X0028677Y0215624D01*
X0028820Y0215557D01*
X0028961Y0215487D01*
X0029100Y0215414D01*
X0029238Y0215337D01*
X0029374Y0215256D01*
X0029507Y0215172D01*
X0029638Y0215085D01*
X0029767Y0214994D01*
X0029894Y0214900D01*
X0030019Y0214803D01*
X0030140Y0214703D01*
X0030260Y0214600D01*
X0030376Y0214494D01*
X0030490Y0214385D01*
X0030602Y0214273D01*
X0030710Y0214159D01*
X0030815Y0214041D01*
X0030918Y0213921D01*
X0031017Y0213799D01*
X0031113Y0213674D01*
X0031206Y0213546D01*
X0031296Y0213417D01*
X0031382Y0213285D01*
X0031466Y0213151D01*
X0031545Y0213015D01*
X0031622Y0212877D01*
X0031694Y0212737D01*
X0031763Y0212595D01*
X0031829Y0212452D01*
X0031891Y0212307D01*
X0031949Y0212160D01*
X0032004Y0212012D01*
X0032055Y0211863D01*
X0032102Y0211712D01*
X0032145Y0211561D01*
X0032184Y0211408D01*
X0032220Y0211254D01*
X0032251Y0211100D01*
X0032279Y0210945D01*
X0032303Y0210789D01*
X0032323Y0210632D01*
X0032339Y0210475D01*
X0032351Y0210318D01*
X0032359Y0210161D01*
X0032363Y0210003D01*
X0032363Y0209845D01*
X0032359Y0209687D01*
X0032351Y0209530D01*
X0032339Y0209373D01*
X0032323Y0209216D01*
X0032303Y0209059D01*
X0032279Y0208903D01*
X0032251Y0208748D01*
X0032220Y0208594D01*
X0032184Y0208440D01*
X0032145Y0208287D01*
X0032102Y0208136D01*
X0032055Y0207985D01*
X0032004Y0207836D01*
X0031949Y0207688D01*
X0031891Y0207541D01*
X0031829Y0207396D01*
X0031763Y0207253D01*
X0031694Y0207111D01*
X0031622Y0206971D01*
X0031545Y0206833D01*
X0031466Y0206697D01*
X0031382Y0206563D01*
X0031296Y0206431D01*
X0031206Y0206302D01*
X0031113Y0206174D01*
X0031017Y0206049D01*
X0030918Y0205927D01*
X0030815Y0205807D01*
X0030710Y0205689D01*
X0030602Y0205575D01*
X0030490Y0205463D01*
X0030376Y0205354D01*
X0030260Y0205248D01*
X0030140Y0205145D01*
X0030019Y0205045D01*
X0029894Y0204948D01*
X0029767Y0204854D01*
X0029638Y0204763D01*
X0029507Y0204676D01*
X0029374Y0204592D01*
X0029238Y0204511D01*
X0029100Y0204434D01*
X0028961Y0204361D01*
X0028820Y0204291D01*
X0028677Y0204224D01*
X0028532Y0204161D01*
X0028386Y0204102D01*
X0028238Y0204046D01*
X0028089Y0203995D01*
X0027939Y0203947D01*
X0027788Y0203903D01*
X0027635Y0203862D01*
X0027482Y0203826D01*
X0027327Y0203793D01*
X0027172Y0203764D01*
X0027017Y0203740D01*
X0026860Y0203719D01*
X0026704Y0203702D01*
X0026546Y0203689D01*
X0026389Y0203680D01*
X0026231Y0203675D01*
X0026074Y0203674D01*
X0025916Y0203677D01*
X0025758Y0203684D01*
X0025601Y0203695D01*
X0025444Y0203710D01*
X0025287Y0203729D01*
X0025131Y0203752D01*
X0024976Y0203778D01*
X0024821Y0203809D01*
X0024667Y0203843D01*
X0024514Y0203882D01*
X0024362Y0203924D01*
X0024212Y0203970D01*
X0024062Y0204020D01*
X0023914Y0204074D01*
X0023767Y0204131D01*
X0023621Y0204192D01*
X0023478Y0204257D01*
X0023335Y0204325D01*
X0023195Y0204397D01*
X0023057Y0204472D01*
X0022920Y0204551D01*
X0022785Y0204633D01*
X0022653Y0204719D01*
X0022523Y0204808D01*
X0022395Y0204900D01*
X0022269Y0204996D01*
X0022146Y0205094D01*
X0022026Y0205196D01*
X0021908Y0205301D01*
X0021792Y0205408D01*
X0021680Y0205519D01*
X0021570Y0205632D01*
X0021463Y0205748D01*
X0021359Y0205866D01*
X0021258Y0205988D01*
X0021161Y0206111D01*
X0021066Y0206238D01*
X0020975Y0206366D01*
X0020886Y0206497D01*
X0020802Y0206630D01*
X0020720Y0206765D01*
X0020642Y0206902D01*
X0020568Y0207041D01*
X0020497Y0207182D01*
X0020429Y0207324D01*
X0020366Y0207469D01*
X0020305Y0207614D01*
X0020249Y0207762D01*
X0020196Y0207910D01*
X0020147Y0208060D01*
X0020102Y0208211D01*
X0020061Y0208364D01*
X0020023Y0208517D01*
X0019990Y0208671D01*
X0019960Y0208826D01*
X0019934Y0208981D01*
X0019913Y0209138D01*
X0019895Y0209294D01*
X0019881Y0209451D01*
X0019871Y0209609D01*
X0019865Y0209766D01*
X0019863Y0209924D01*
X0019863Y0536696D02*
X0019865Y0536854D01*
X0019871Y0537011D01*
X0019881Y0537169D01*
X0019895Y0537326D01*
X0019913Y0537482D01*
X0019934Y0537639D01*
X0019960Y0537794D01*
X0019990Y0537949D01*
X0020023Y0538103D01*
X0020061Y0538256D01*
X0020102Y0538409D01*
X0020147Y0538560D01*
X0020196Y0538710D01*
X0020249Y0538858D01*
X0020305Y0539006D01*
X0020366Y0539151D01*
X0020429Y0539296D01*
X0020497Y0539438D01*
X0020568Y0539579D01*
X0020642Y0539718D01*
X0020720Y0539855D01*
X0020802Y0539990D01*
X0020886Y0540123D01*
X0020975Y0540254D01*
X0021066Y0540382D01*
X0021161Y0540509D01*
X0021258Y0540632D01*
X0021359Y0540754D01*
X0021463Y0540872D01*
X0021570Y0540988D01*
X0021680Y0541101D01*
X0021792Y0541212D01*
X0021908Y0541319D01*
X0022026Y0541424D01*
X0022146Y0541526D01*
X0022269Y0541624D01*
X0022395Y0541720D01*
X0022523Y0541812D01*
X0022653Y0541901D01*
X0022785Y0541987D01*
X0022920Y0542069D01*
X0023057Y0542148D01*
X0023195Y0542223D01*
X0023335Y0542295D01*
X0023478Y0542363D01*
X0023621Y0542428D01*
X0023767Y0542489D01*
X0023914Y0542546D01*
X0024062Y0542600D01*
X0024212Y0542650D01*
X0024362Y0542696D01*
X0024514Y0542738D01*
X0024667Y0542777D01*
X0024821Y0542811D01*
X0024976Y0542842D01*
X0025131Y0542868D01*
X0025287Y0542891D01*
X0025444Y0542910D01*
X0025601Y0542925D01*
X0025758Y0542936D01*
X0025916Y0542943D01*
X0026074Y0542946D01*
X0026231Y0542945D01*
X0026389Y0542940D01*
X0026546Y0542931D01*
X0026704Y0542918D01*
X0026860Y0542901D01*
X0027017Y0542880D01*
X0027172Y0542856D01*
X0027327Y0542827D01*
X0027482Y0542794D01*
X0027635Y0542758D01*
X0027788Y0542717D01*
X0027939Y0542673D01*
X0028089Y0542625D01*
X0028238Y0542574D01*
X0028386Y0542518D01*
X0028532Y0542459D01*
X0028677Y0542396D01*
X0028820Y0542329D01*
X0028961Y0542259D01*
X0029100Y0542186D01*
X0029238Y0542109D01*
X0029374Y0542028D01*
X0029507Y0541944D01*
X0029638Y0541857D01*
X0029767Y0541766D01*
X0029894Y0541672D01*
X0030019Y0541575D01*
X0030140Y0541475D01*
X0030260Y0541372D01*
X0030376Y0541266D01*
X0030490Y0541157D01*
X0030602Y0541045D01*
X0030710Y0540931D01*
X0030815Y0540813D01*
X0030918Y0540693D01*
X0031017Y0540571D01*
X0031113Y0540446D01*
X0031206Y0540318D01*
X0031296Y0540189D01*
X0031382Y0540057D01*
X0031466Y0539923D01*
X0031545Y0539787D01*
X0031622Y0539649D01*
X0031694Y0539509D01*
X0031763Y0539367D01*
X0031829Y0539224D01*
X0031891Y0539079D01*
X0031949Y0538932D01*
X0032004Y0538784D01*
X0032055Y0538635D01*
X0032102Y0538484D01*
X0032145Y0538333D01*
X0032184Y0538180D01*
X0032220Y0538026D01*
X0032251Y0537872D01*
X0032279Y0537717D01*
X0032303Y0537561D01*
X0032323Y0537404D01*
X0032339Y0537247D01*
X0032351Y0537090D01*
X0032359Y0536933D01*
X0032363Y0536775D01*
X0032363Y0536617D01*
X0032359Y0536459D01*
X0032351Y0536302D01*
X0032339Y0536145D01*
X0032323Y0535988D01*
X0032303Y0535831D01*
X0032279Y0535675D01*
X0032251Y0535520D01*
X0032220Y0535366D01*
X0032184Y0535212D01*
X0032145Y0535059D01*
X0032102Y0534908D01*
X0032055Y0534757D01*
X0032004Y0534608D01*
X0031949Y0534460D01*
X0031891Y0534313D01*
X0031829Y0534168D01*
X0031763Y0534025D01*
X0031694Y0533883D01*
X0031622Y0533743D01*
X0031545Y0533605D01*
X0031466Y0533469D01*
X0031382Y0533335D01*
X0031296Y0533203D01*
X0031206Y0533074D01*
X0031113Y0532946D01*
X0031017Y0532821D01*
X0030918Y0532699D01*
X0030815Y0532579D01*
X0030710Y0532461D01*
X0030602Y0532347D01*
X0030490Y0532235D01*
X0030376Y0532126D01*
X0030260Y0532020D01*
X0030140Y0531917D01*
X0030019Y0531817D01*
X0029894Y0531720D01*
X0029767Y0531626D01*
X0029638Y0531535D01*
X0029507Y0531448D01*
X0029374Y0531364D01*
X0029238Y0531283D01*
X0029100Y0531206D01*
X0028961Y0531133D01*
X0028820Y0531063D01*
X0028677Y0530996D01*
X0028532Y0530933D01*
X0028386Y0530874D01*
X0028238Y0530818D01*
X0028089Y0530767D01*
X0027939Y0530719D01*
X0027788Y0530675D01*
X0027635Y0530634D01*
X0027482Y0530598D01*
X0027327Y0530565D01*
X0027172Y0530536D01*
X0027017Y0530512D01*
X0026860Y0530491D01*
X0026704Y0530474D01*
X0026546Y0530461D01*
X0026389Y0530452D01*
X0026231Y0530447D01*
X0026074Y0530446D01*
X0025916Y0530449D01*
X0025758Y0530456D01*
X0025601Y0530467D01*
X0025444Y0530482D01*
X0025287Y0530501D01*
X0025131Y0530524D01*
X0024976Y0530550D01*
X0024821Y0530581D01*
X0024667Y0530615D01*
X0024514Y0530654D01*
X0024362Y0530696D01*
X0024212Y0530742D01*
X0024062Y0530792D01*
X0023914Y0530846D01*
X0023767Y0530903D01*
X0023621Y0530964D01*
X0023478Y0531029D01*
X0023335Y0531097D01*
X0023195Y0531169D01*
X0023057Y0531244D01*
X0022920Y0531323D01*
X0022785Y0531405D01*
X0022653Y0531491D01*
X0022523Y0531580D01*
X0022395Y0531672D01*
X0022269Y0531768D01*
X0022146Y0531866D01*
X0022026Y0531968D01*
X0021908Y0532073D01*
X0021792Y0532180D01*
X0021680Y0532291D01*
X0021570Y0532404D01*
X0021463Y0532520D01*
X0021359Y0532638D01*
X0021258Y0532760D01*
X0021161Y0532883D01*
X0021066Y0533010D01*
X0020975Y0533138D01*
X0020886Y0533269D01*
X0020802Y0533402D01*
X0020720Y0533537D01*
X0020642Y0533674D01*
X0020568Y0533813D01*
X0020497Y0533954D01*
X0020429Y0534096D01*
X0020366Y0534241D01*
X0020305Y0534386D01*
X0020249Y0534534D01*
X0020196Y0534682D01*
X0020147Y0534832D01*
X0020102Y0534983D01*
X0020061Y0535136D01*
X0020023Y0535289D01*
X0019990Y0535443D01*
X0019960Y0535598D01*
X0019934Y0535753D01*
X0019913Y0535910D01*
X0019895Y0536066D01*
X0019881Y0536223D01*
X0019871Y0536381D01*
X0019865Y0536538D01*
X0019863Y0536696D01*
X0298948Y0545357D02*
X0298950Y0545494D01*
X0298956Y0545632D01*
X0298966Y0545769D01*
X0298980Y0545905D01*
X0298998Y0546042D01*
X0299020Y0546177D01*
X0299046Y0546312D01*
X0299075Y0546446D01*
X0299109Y0546580D01*
X0299146Y0546712D01*
X0299188Y0546843D01*
X0299233Y0546973D01*
X0299282Y0547101D01*
X0299334Y0547228D01*
X0299391Y0547353D01*
X0299450Y0547477D01*
X0299514Y0547599D01*
X0299581Y0547719D01*
X0299651Y0547837D01*
X0299725Y0547953D01*
X0299802Y0548067D01*
X0299883Y0548178D01*
X0299966Y0548287D01*
X0300053Y0548394D01*
X0300143Y0548497D01*
X0300236Y0548599D01*
X0300332Y0548697D01*
X0300430Y0548793D01*
X0300532Y0548886D01*
X0300635Y0548976D01*
X0300742Y0549063D01*
X0300851Y0549146D01*
X0300962Y0549227D01*
X0301076Y0549304D01*
X0301192Y0549378D01*
X0301310Y0549448D01*
X0301430Y0549515D01*
X0301552Y0549579D01*
X0301676Y0549638D01*
X0301801Y0549695D01*
X0301928Y0549747D01*
X0302056Y0549796D01*
X0302186Y0549841D01*
X0302317Y0549883D01*
X0302449Y0549920D01*
X0302583Y0549954D01*
X0302717Y0549983D01*
X0302852Y0550009D01*
X0302987Y0550031D01*
X0303124Y0550049D01*
X0303260Y0550063D01*
X0303397Y0550073D01*
X0303535Y0550079D01*
X0303672Y0550081D01*
X0303809Y0550079D01*
X0303947Y0550073D01*
X0304084Y0550063D01*
X0304220Y0550049D01*
X0304357Y0550031D01*
X0304492Y0550009D01*
X0304627Y0549983D01*
X0304761Y0549954D01*
X0304895Y0549920D01*
X0305027Y0549883D01*
X0305158Y0549841D01*
X0305288Y0549796D01*
X0305416Y0549747D01*
X0305543Y0549695D01*
X0305668Y0549638D01*
X0305792Y0549579D01*
X0305914Y0549515D01*
X0306034Y0549448D01*
X0306152Y0549378D01*
X0306268Y0549304D01*
X0306382Y0549227D01*
X0306493Y0549146D01*
X0306602Y0549063D01*
X0306709Y0548976D01*
X0306812Y0548886D01*
X0306914Y0548793D01*
X0307012Y0548697D01*
X0307108Y0548599D01*
X0307201Y0548497D01*
X0307291Y0548394D01*
X0307378Y0548287D01*
X0307461Y0548178D01*
X0307542Y0548067D01*
X0307619Y0547953D01*
X0307693Y0547837D01*
X0307763Y0547719D01*
X0307830Y0547599D01*
X0307894Y0547477D01*
X0307953Y0547353D01*
X0308010Y0547228D01*
X0308062Y0547101D01*
X0308111Y0546973D01*
X0308156Y0546843D01*
X0308198Y0546712D01*
X0308235Y0546580D01*
X0308269Y0546446D01*
X0308298Y0546312D01*
X0308324Y0546177D01*
X0308346Y0546042D01*
X0308364Y0545905D01*
X0308378Y0545769D01*
X0308388Y0545632D01*
X0308394Y0545494D01*
X0308396Y0545357D01*
X0308394Y0545220D01*
X0308388Y0545082D01*
X0308378Y0544945D01*
X0308364Y0544809D01*
X0308346Y0544672D01*
X0308324Y0544537D01*
X0308298Y0544402D01*
X0308269Y0544268D01*
X0308235Y0544134D01*
X0308198Y0544002D01*
X0308156Y0543871D01*
X0308111Y0543741D01*
X0308062Y0543613D01*
X0308010Y0543486D01*
X0307953Y0543361D01*
X0307894Y0543237D01*
X0307830Y0543115D01*
X0307763Y0542995D01*
X0307693Y0542877D01*
X0307619Y0542761D01*
X0307542Y0542647D01*
X0307461Y0542536D01*
X0307378Y0542427D01*
X0307291Y0542320D01*
X0307201Y0542217D01*
X0307108Y0542115D01*
X0307012Y0542017D01*
X0306914Y0541921D01*
X0306812Y0541828D01*
X0306709Y0541738D01*
X0306602Y0541651D01*
X0306493Y0541568D01*
X0306382Y0541487D01*
X0306268Y0541410D01*
X0306152Y0541336D01*
X0306034Y0541266D01*
X0305914Y0541199D01*
X0305792Y0541135D01*
X0305668Y0541076D01*
X0305543Y0541019D01*
X0305416Y0540967D01*
X0305288Y0540918D01*
X0305158Y0540873D01*
X0305027Y0540831D01*
X0304895Y0540794D01*
X0304761Y0540760D01*
X0304627Y0540731D01*
X0304492Y0540705D01*
X0304357Y0540683D01*
X0304220Y0540665D01*
X0304084Y0540651D01*
X0303947Y0540641D01*
X0303809Y0540635D01*
X0303672Y0540633D01*
X0303535Y0540635D01*
X0303397Y0540641D01*
X0303260Y0540651D01*
X0303124Y0540665D01*
X0302987Y0540683D01*
X0302852Y0540705D01*
X0302717Y0540731D01*
X0302583Y0540760D01*
X0302449Y0540794D01*
X0302317Y0540831D01*
X0302186Y0540873D01*
X0302056Y0540918D01*
X0301928Y0540967D01*
X0301801Y0541019D01*
X0301676Y0541076D01*
X0301552Y0541135D01*
X0301430Y0541199D01*
X0301310Y0541266D01*
X0301192Y0541336D01*
X0301076Y0541410D01*
X0300962Y0541487D01*
X0300851Y0541568D01*
X0300742Y0541651D01*
X0300635Y0541738D01*
X0300532Y0541828D01*
X0300430Y0541921D01*
X0300332Y0542017D01*
X0300236Y0542115D01*
X0300143Y0542217D01*
X0300053Y0542320D01*
X0299966Y0542427D01*
X0299883Y0542536D01*
X0299802Y0542647D01*
X0299725Y0542761D01*
X0299651Y0542877D01*
X0299581Y0542995D01*
X0299514Y0543115D01*
X0299450Y0543237D01*
X0299391Y0543361D01*
X0299334Y0543486D01*
X0299282Y0543613D01*
X0299233Y0543741D01*
X0299188Y0543871D01*
X0299146Y0544002D01*
X0299109Y0544134D01*
X0299075Y0544268D01*
X0299046Y0544402D01*
X0299020Y0544537D01*
X0298998Y0544672D01*
X0298980Y0544809D01*
X0298966Y0544945D01*
X0298956Y0545082D01*
X0298950Y0545220D01*
X0298948Y0545357D01*
X0563170Y0536696D02*
X0563172Y0536854D01*
X0563178Y0537011D01*
X0563188Y0537169D01*
X0563202Y0537326D01*
X0563220Y0537482D01*
X0563241Y0537639D01*
X0563267Y0537794D01*
X0563297Y0537949D01*
X0563330Y0538103D01*
X0563368Y0538256D01*
X0563409Y0538409D01*
X0563454Y0538560D01*
X0563503Y0538710D01*
X0563556Y0538858D01*
X0563612Y0539006D01*
X0563673Y0539151D01*
X0563736Y0539296D01*
X0563804Y0539438D01*
X0563875Y0539579D01*
X0563949Y0539718D01*
X0564027Y0539855D01*
X0564109Y0539990D01*
X0564193Y0540123D01*
X0564282Y0540254D01*
X0564373Y0540382D01*
X0564468Y0540509D01*
X0564565Y0540632D01*
X0564666Y0540754D01*
X0564770Y0540872D01*
X0564877Y0540988D01*
X0564987Y0541101D01*
X0565099Y0541212D01*
X0565215Y0541319D01*
X0565333Y0541424D01*
X0565453Y0541526D01*
X0565576Y0541624D01*
X0565702Y0541720D01*
X0565830Y0541812D01*
X0565960Y0541901D01*
X0566092Y0541987D01*
X0566227Y0542069D01*
X0566364Y0542148D01*
X0566502Y0542223D01*
X0566642Y0542295D01*
X0566785Y0542363D01*
X0566928Y0542428D01*
X0567074Y0542489D01*
X0567221Y0542546D01*
X0567369Y0542600D01*
X0567519Y0542650D01*
X0567669Y0542696D01*
X0567821Y0542738D01*
X0567974Y0542777D01*
X0568128Y0542811D01*
X0568283Y0542842D01*
X0568438Y0542868D01*
X0568594Y0542891D01*
X0568751Y0542910D01*
X0568908Y0542925D01*
X0569065Y0542936D01*
X0569223Y0542943D01*
X0569381Y0542946D01*
X0569538Y0542945D01*
X0569696Y0542940D01*
X0569853Y0542931D01*
X0570011Y0542918D01*
X0570167Y0542901D01*
X0570324Y0542880D01*
X0570479Y0542856D01*
X0570634Y0542827D01*
X0570789Y0542794D01*
X0570942Y0542758D01*
X0571095Y0542717D01*
X0571246Y0542673D01*
X0571396Y0542625D01*
X0571545Y0542574D01*
X0571693Y0542518D01*
X0571839Y0542459D01*
X0571984Y0542396D01*
X0572127Y0542329D01*
X0572268Y0542259D01*
X0572407Y0542186D01*
X0572545Y0542109D01*
X0572681Y0542028D01*
X0572814Y0541944D01*
X0572945Y0541857D01*
X0573074Y0541766D01*
X0573201Y0541672D01*
X0573326Y0541575D01*
X0573447Y0541475D01*
X0573567Y0541372D01*
X0573683Y0541266D01*
X0573797Y0541157D01*
X0573909Y0541045D01*
X0574017Y0540931D01*
X0574122Y0540813D01*
X0574225Y0540693D01*
X0574324Y0540571D01*
X0574420Y0540446D01*
X0574513Y0540318D01*
X0574603Y0540189D01*
X0574689Y0540057D01*
X0574773Y0539923D01*
X0574852Y0539787D01*
X0574929Y0539649D01*
X0575001Y0539509D01*
X0575070Y0539367D01*
X0575136Y0539224D01*
X0575198Y0539079D01*
X0575256Y0538932D01*
X0575311Y0538784D01*
X0575362Y0538635D01*
X0575409Y0538484D01*
X0575452Y0538333D01*
X0575491Y0538180D01*
X0575527Y0538026D01*
X0575558Y0537872D01*
X0575586Y0537717D01*
X0575610Y0537561D01*
X0575630Y0537404D01*
X0575646Y0537247D01*
X0575658Y0537090D01*
X0575666Y0536933D01*
X0575670Y0536775D01*
X0575670Y0536617D01*
X0575666Y0536459D01*
X0575658Y0536302D01*
X0575646Y0536145D01*
X0575630Y0535988D01*
X0575610Y0535831D01*
X0575586Y0535675D01*
X0575558Y0535520D01*
X0575527Y0535366D01*
X0575491Y0535212D01*
X0575452Y0535059D01*
X0575409Y0534908D01*
X0575362Y0534757D01*
X0575311Y0534608D01*
X0575256Y0534460D01*
X0575198Y0534313D01*
X0575136Y0534168D01*
X0575070Y0534025D01*
X0575001Y0533883D01*
X0574929Y0533743D01*
X0574852Y0533605D01*
X0574773Y0533469D01*
X0574689Y0533335D01*
X0574603Y0533203D01*
X0574513Y0533074D01*
X0574420Y0532946D01*
X0574324Y0532821D01*
X0574225Y0532699D01*
X0574122Y0532579D01*
X0574017Y0532461D01*
X0573909Y0532347D01*
X0573797Y0532235D01*
X0573683Y0532126D01*
X0573567Y0532020D01*
X0573447Y0531917D01*
X0573326Y0531817D01*
X0573201Y0531720D01*
X0573074Y0531626D01*
X0572945Y0531535D01*
X0572814Y0531448D01*
X0572681Y0531364D01*
X0572545Y0531283D01*
X0572407Y0531206D01*
X0572268Y0531133D01*
X0572127Y0531063D01*
X0571984Y0530996D01*
X0571839Y0530933D01*
X0571693Y0530874D01*
X0571545Y0530818D01*
X0571396Y0530767D01*
X0571246Y0530719D01*
X0571095Y0530675D01*
X0570942Y0530634D01*
X0570789Y0530598D01*
X0570634Y0530565D01*
X0570479Y0530536D01*
X0570324Y0530512D01*
X0570167Y0530491D01*
X0570011Y0530474D01*
X0569853Y0530461D01*
X0569696Y0530452D01*
X0569538Y0530447D01*
X0569381Y0530446D01*
X0569223Y0530449D01*
X0569065Y0530456D01*
X0568908Y0530467D01*
X0568751Y0530482D01*
X0568594Y0530501D01*
X0568438Y0530524D01*
X0568283Y0530550D01*
X0568128Y0530581D01*
X0567974Y0530615D01*
X0567821Y0530654D01*
X0567669Y0530696D01*
X0567519Y0530742D01*
X0567369Y0530792D01*
X0567221Y0530846D01*
X0567074Y0530903D01*
X0566928Y0530964D01*
X0566785Y0531029D01*
X0566642Y0531097D01*
X0566502Y0531169D01*
X0566364Y0531244D01*
X0566227Y0531323D01*
X0566092Y0531405D01*
X0565960Y0531491D01*
X0565830Y0531580D01*
X0565702Y0531672D01*
X0565576Y0531768D01*
X0565453Y0531866D01*
X0565333Y0531968D01*
X0565215Y0532073D01*
X0565099Y0532180D01*
X0564987Y0532291D01*
X0564877Y0532404D01*
X0564770Y0532520D01*
X0564666Y0532638D01*
X0564565Y0532760D01*
X0564468Y0532883D01*
X0564373Y0533010D01*
X0564282Y0533138D01*
X0564193Y0533269D01*
X0564109Y0533402D01*
X0564027Y0533537D01*
X0563949Y0533674D01*
X0563875Y0533813D01*
X0563804Y0533954D01*
X0563736Y0534096D01*
X0563673Y0534241D01*
X0563612Y0534386D01*
X0563556Y0534534D01*
X0563503Y0534682D01*
X0563454Y0534832D01*
X0563409Y0534983D01*
X0563368Y0535136D01*
X0563330Y0535289D01*
X0563297Y0535443D01*
X0563267Y0535598D01*
X0563241Y0535753D01*
X0563220Y0535910D01*
X0563202Y0536066D01*
X0563188Y0536223D01*
X0563178Y0536381D01*
X0563172Y0536538D01*
X0563170Y0536696D01*
X0563170Y0209924D02*
X0563172Y0210082D01*
X0563178Y0210239D01*
X0563188Y0210397D01*
X0563202Y0210554D01*
X0563220Y0210710D01*
X0563241Y0210867D01*
X0563267Y0211022D01*
X0563297Y0211177D01*
X0563330Y0211331D01*
X0563368Y0211484D01*
X0563409Y0211637D01*
X0563454Y0211788D01*
X0563503Y0211938D01*
X0563556Y0212086D01*
X0563612Y0212234D01*
X0563673Y0212379D01*
X0563736Y0212524D01*
X0563804Y0212666D01*
X0563875Y0212807D01*
X0563949Y0212946D01*
X0564027Y0213083D01*
X0564109Y0213218D01*
X0564193Y0213351D01*
X0564282Y0213482D01*
X0564373Y0213610D01*
X0564468Y0213737D01*
X0564565Y0213860D01*
X0564666Y0213982D01*
X0564770Y0214100D01*
X0564877Y0214216D01*
X0564987Y0214329D01*
X0565099Y0214440D01*
X0565215Y0214547D01*
X0565333Y0214652D01*
X0565453Y0214754D01*
X0565576Y0214852D01*
X0565702Y0214948D01*
X0565830Y0215040D01*
X0565960Y0215129D01*
X0566092Y0215215D01*
X0566227Y0215297D01*
X0566364Y0215376D01*
X0566502Y0215451D01*
X0566642Y0215523D01*
X0566785Y0215591D01*
X0566928Y0215656D01*
X0567074Y0215717D01*
X0567221Y0215774D01*
X0567369Y0215828D01*
X0567519Y0215878D01*
X0567669Y0215924D01*
X0567821Y0215966D01*
X0567974Y0216005D01*
X0568128Y0216039D01*
X0568283Y0216070D01*
X0568438Y0216096D01*
X0568594Y0216119D01*
X0568751Y0216138D01*
X0568908Y0216153D01*
X0569065Y0216164D01*
X0569223Y0216171D01*
X0569381Y0216174D01*
X0569538Y0216173D01*
X0569696Y0216168D01*
X0569853Y0216159D01*
X0570011Y0216146D01*
X0570167Y0216129D01*
X0570324Y0216108D01*
X0570479Y0216084D01*
X0570634Y0216055D01*
X0570789Y0216022D01*
X0570942Y0215986D01*
X0571095Y0215945D01*
X0571246Y0215901D01*
X0571396Y0215853D01*
X0571545Y0215802D01*
X0571693Y0215746D01*
X0571839Y0215687D01*
X0571984Y0215624D01*
X0572127Y0215557D01*
X0572268Y0215487D01*
X0572407Y0215414D01*
X0572545Y0215337D01*
X0572681Y0215256D01*
X0572814Y0215172D01*
X0572945Y0215085D01*
X0573074Y0214994D01*
X0573201Y0214900D01*
X0573326Y0214803D01*
X0573447Y0214703D01*
X0573567Y0214600D01*
X0573683Y0214494D01*
X0573797Y0214385D01*
X0573909Y0214273D01*
X0574017Y0214159D01*
X0574122Y0214041D01*
X0574225Y0213921D01*
X0574324Y0213799D01*
X0574420Y0213674D01*
X0574513Y0213546D01*
X0574603Y0213417D01*
X0574689Y0213285D01*
X0574773Y0213151D01*
X0574852Y0213015D01*
X0574929Y0212877D01*
X0575001Y0212737D01*
X0575070Y0212595D01*
X0575136Y0212452D01*
X0575198Y0212307D01*
X0575256Y0212160D01*
X0575311Y0212012D01*
X0575362Y0211863D01*
X0575409Y0211712D01*
X0575452Y0211561D01*
X0575491Y0211408D01*
X0575527Y0211254D01*
X0575558Y0211100D01*
X0575586Y0210945D01*
X0575610Y0210789D01*
X0575630Y0210632D01*
X0575646Y0210475D01*
X0575658Y0210318D01*
X0575666Y0210161D01*
X0575670Y0210003D01*
X0575670Y0209845D01*
X0575666Y0209687D01*
X0575658Y0209530D01*
X0575646Y0209373D01*
X0575630Y0209216D01*
X0575610Y0209059D01*
X0575586Y0208903D01*
X0575558Y0208748D01*
X0575527Y0208594D01*
X0575491Y0208440D01*
X0575452Y0208287D01*
X0575409Y0208136D01*
X0575362Y0207985D01*
X0575311Y0207836D01*
X0575256Y0207688D01*
X0575198Y0207541D01*
X0575136Y0207396D01*
X0575070Y0207253D01*
X0575001Y0207111D01*
X0574929Y0206971D01*
X0574852Y0206833D01*
X0574773Y0206697D01*
X0574689Y0206563D01*
X0574603Y0206431D01*
X0574513Y0206302D01*
X0574420Y0206174D01*
X0574324Y0206049D01*
X0574225Y0205927D01*
X0574122Y0205807D01*
X0574017Y0205689D01*
X0573909Y0205575D01*
X0573797Y0205463D01*
X0573683Y0205354D01*
X0573567Y0205248D01*
X0573447Y0205145D01*
X0573326Y0205045D01*
X0573201Y0204948D01*
X0573074Y0204854D01*
X0572945Y0204763D01*
X0572814Y0204676D01*
X0572681Y0204592D01*
X0572545Y0204511D01*
X0572407Y0204434D01*
X0572268Y0204361D01*
X0572127Y0204291D01*
X0571984Y0204224D01*
X0571839Y0204161D01*
X0571693Y0204102D01*
X0571545Y0204046D01*
X0571396Y0203995D01*
X0571246Y0203947D01*
X0571095Y0203903D01*
X0570942Y0203862D01*
X0570789Y0203826D01*
X0570634Y0203793D01*
X0570479Y0203764D01*
X0570324Y0203740D01*
X0570167Y0203719D01*
X0570011Y0203702D01*
X0569853Y0203689D01*
X0569696Y0203680D01*
X0569538Y0203675D01*
X0569381Y0203674D01*
X0569223Y0203677D01*
X0569065Y0203684D01*
X0568908Y0203695D01*
X0568751Y0203710D01*
X0568594Y0203729D01*
X0568438Y0203752D01*
X0568283Y0203778D01*
X0568128Y0203809D01*
X0567974Y0203843D01*
X0567821Y0203882D01*
X0567669Y0203924D01*
X0567519Y0203970D01*
X0567369Y0204020D01*
X0567221Y0204074D01*
X0567074Y0204131D01*
X0566928Y0204192D01*
X0566785Y0204257D01*
X0566642Y0204325D01*
X0566502Y0204397D01*
X0566364Y0204472D01*
X0566227Y0204551D01*
X0566092Y0204633D01*
X0565960Y0204719D01*
X0565830Y0204808D01*
X0565702Y0204900D01*
X0565576Y0204996D01*
X0565453Y0205094D01*
X0565333Y0205196D01*
X0565215Y0205301D01*
X0565099Y0205408D01*
X0564987Y0205519D01*
X0564877Y0205632D01*
X0564770Y0205748D01*
X0564666Y0205866D01*
X0564565Y0205988D01*
X0564468Y0206111D01*
X0564373Y0206238D01*
X0564282Y0206366D01*
X0564193Y0206497D01*
X0564109Y0206630D01*
X0564027Y0206765D01*
X0563949Y0206902D01*
X0563875Y0207041D01*
X0563804Y0207182D01*
X0563736Y0207324D01*
X0563673Y0207469D01*
X0563612Y0207614D01*
X0563556Y0207762D01*
X0563503Y0207910D01*
X0563454Y0208060D01*
X0563409Y0208211D01*
X0563368Y0208364D01*
X0563330Y0208517D01*
X0563297Y0208671D01*
X0563267Y0208826D01*
X0563241Y0208981D01*
X0563220Y0209138D01*
X0563202Y0209294D01*
X0563188Y0209451D01*
X0563178Y0209609D01*
X0563172Y0209766D01*
X0563170Y0209924D01*
M02*
