G75*
%MOIN*%
%OFA0B0*%
%FSLAX25Y25*%
%IPPOS*%
%LPD*%
%AMOC8*
5,1,8,0,0,1.08239X$1,22.5*
%
%ADD10R,0.02835X0.03228*%
%ADD11C,0.02047*%
%ADD12R,0.03228X0.02835*%
%ADD13R,0.04291X0.03917*%
%ADD14R,0.04331X0.03937*%
%ADD15R,0.04311X0.03937*%
%ADD16R,0.05630X0.06693*%
%ADD17R,0.06406X0.06406*%
%ADD18R,0.03650X0.06406*%
%ADD19R,0.03650X0.06012*%
%ADD20R,0.03256X0.07390*%
%ADD21R,0.06406X0.04437*%
%ADD22R,0.04437X0.06406*%
%ADD23R,0.05709X0.06811*%
%ADD24C,0.09500*%
%ADD25C,0.05450*%
%ADD26R,0.02075X0.05815*%
%ADD27C,0.13000*%
%ADD28R,0.09161X0.02862*%
%ADD29R,0.04437X0.07587*%
%ADD30R,0.06602X0.02862*%
%ADD31C,0.01575*%
%ADD32R,0.01575X0.00787*%
%ADD33R,0.00787X0.01575*%
%ADD34C,0.00394*%
%ADD35C,0.02300*%
%ADD36C,0.06406*%
%ADD37R,0.05224X0.01681*%
%ADD38C,0.03937*%
%ADD39R,0.02862X0.09161*%
%ADD40R,0.01457X0.02756*%
%ADD41R,0.01457X0.02362*%
%ADD42R,0.01181X0.02067*%
%ADD43R,0.00886X0.00335*%
%ADD44R,0.00728X0.00354*%
%ADD45R,0.02559X0.02480*%
%ADD46R,0.05028X0.07587*%
%ADD47R,0.02362X0.02362*%
%ADD48OC8,0.06500*%
%ADD49R,0.04437X0.11130*%
%ADD50R,0.05224X0.02665*%
%ADD51R,0.01772X0.07087*%
%ADD52R,0.01575X0.07087*%
%ADD53C,0.06500*%
%ADD54R,0.06299X0.05512*%
%ADD55C,0.04437*%
%ADD56C,0.04043*%
%ADD57R,0.04528X0.03346*%
%ADD58R,0.03346X0.04528*%
%ADD59R,0.02756X0.01457*%
%ADD60R,0.02362X0.01457*%
%ADD61R,0.02067X0.01181*%
%ADD62R,0.00335X0.00886*%
%ADD63R,0.00354X0.00728*%
%ADD64R,0.02480X0.02559*%
%ADD65C,0.13260*%
%ADD66C,0.13850*%
%ADD67C,0.09949*%
%ADD68R,0.02000X0.02700*%
%ADD69R,0.09949X0.03492*%
%ADD70R,0.03917X0.04291*%
%ADD71R,0.03937X0.04331*%
%ADD72R,0.03937X0.04311*%
%ADD73R,0.07587X0.05028*%
%ADD74R,0.03650X0.03650*%
%ADD75R,0.03650X0.06209*%
%ADD76R,0.02862X0.06209*%
%ADD77R,0.07469X0.07587*%
%ADD78C,0.06100*%
%ADD79R,0.10264X0.06602*%
%ADD80R,0.01681X0.03059*%
%ADD81C,0.08177*%
%ADD82R,0.06799X0.22941*%
%ADD83R,0.10343X0.09555*%
%ADD84R,0.19685X0.39370*%
%ADD85R,0.39370X0.19685*%
%ADD86R,0.04634X0.02272*%
%ADD87R,0.12075X0.14594*%
%ADD88R,0.03500X0.05000*%
%ADD89R,0.06602X0.05618*%
D10*
X0090827Y0121028D03*
X0094764Y0121028D03*
G36*
X0142034Y0150547D02*
X0144038Y0148543D01*
X0141756Y0146261D01*
X0139752Y0148265D01*
X0142034Y0150547D01*
G37*
G36*
X0144818Y0147764D02*
X0146822Y0145760D01*
X0144540Y0143478D01*
X0142536Y0145482D01*
X0144818Y0147764D01*
G37*
G36*
X0130547Y0162134D02*
X0132551Y0160130D01*
X0130269Y0157848D01*
X0128265Y0159852D01*
X0130547Y0162134D01*
G37*
G36*
X0127763Y0164918D02*
X0129767Y0162914D01*
X0127485Y0160632D01*
X0125481Y0162636D01*
X0127763Y0164918D01*
G37*
G36*
X0112535Y0180244D02*
X0114539Y0178240D01*
X0112257Y0175958D01*
X0110253Y0177962D01*
X0112535Y0180244D01*
G37*
G36*
X0109751Y0183028D02*
X0111755Y0181024D01*
X0109473Y0178742D01*
X0107469Y0180746D01*
X0109751Y0183028D01*
G37*
G36*
X0115692Y0208966D02*
X0113688Y0206962D01*
X0111406Y0209244D01*
X0113410Y0211248D01*
X0115692Y0208966D01*
G37*
G36*
X0118476Y0211750D02*
X0116472Y0209746D01*
X0114190Y0212028D01*
X0116194Y0214032D01*
X0118476Y0211750D01*
G37*
G36*
X0133704Y0228552D02*
X0131700Y0226548D01*
X0129418Y0228830D01*
X0131422Y0230834D01*
X0133704Y0228552D01*
G37*
G36*
X0136488Y0231336D02*
X0134484Y0229332D01*
X0132202Y0231614D01*
X0134206Y0233618D01*
X0136488Y0231336D01*
G37*
G36*
X0149058Y0245186D02*
X0147054Y0243182D01*
X0144772Y0245464D01*
X0146776Y0247468D01*
X0149058Y0245186D01*
G37*
G36*
X0151842Y0247970D02*
X0149838Y0245966D01*
X0147556Y0248248D01*
X0149560Y0250252D01*
X0151842Y0247970D01*
G37*
G36*
X0165987Y0261033D02*
X0163983Y0259029D01*
X0161701Y0261311D01*
X0163705Y0263315D01*
X0165987Y0261033D01*
G37*
G36*
X0168771Y0263817D02*
X0166767Y0261813D01*
X0164485Y0264095D01*
X0166489Y0266099D01*
X0168771Y0263817D01*
G37*
G36*
X0194298Y0261965D02*
X0196302Y0259961D01*
X0194020Y0257679D01*
X0192016Y0259683D01*
X0194298Y0261965D01*
G37*
G36*
X0197082Y0259181D02*
X0199086Y0257177D01*
X0196804Y0254895D01*
X0194800Y0256899D01*
X0197082Y0259181D01*
G37*
X0205787Y0256658D03*
X0209724Y0256658D03*
G36*
X0210260Y0240750D02*
X0208256Y0242754D01*
X0210538Y0245036D01*
X0212542Y0243032D01*
X0210260Y0240750D01*
G37*
G36*
X0213044Y0237966D02*
X0211040Y0239970D01*
X0213322Y0242252D01*
X0215326Y0240248D01*
X0213044Y0237966D01*
G37*
G36*
X0226796Y0228348D02*
X0224792Y0230352D01*
X0227074Y0232634D01*
X0229078Y0230630D01*
X0226796Y0228348D01*
G37*
G36*
X0229580Y0225564D02*
X0227576Y0227568D01*
X0229858Y0229850D01*
X0231862Y0227846D01*
X0229580Y0225564D01*
G37*
G36*
X0233749Y0227846D02*
X0235753Y0229850D01*
X0238035Y0227568D01*
X0236031Y0225564D01*
X0233749Y0227846D01*
G37*
G36*
X0236532Y0230630D02*
X0238536Y0232634D01*
X0240818Y0230352D01*
X0238814Y0228348D01*
X0236532Y0230630D01*
G37*
X0251063Y0213351D03*
X0255000Y0213351D03*
X0255000Y0208627D03*
X0251063Y0208627D03*
X0251063Y0203902D03*
X0255000Y0203902D03*
G36*
X0245426Y0205879D02*
X0243422Y0207883D01*
X0245704Y0210165D01*
X0247708Y0208161D01*
X0245426Y0205879D01*
G37*
G36*
X0242642Y0208663D02*
X0240638Y0210667D01*
X0242920Y0212949D01*
X0244924Y0210945D01*
X0242642Y0208663D01*
G37*
G36*
X0250661Y0179171D02*
X0248657Y0177167D01*
X0246375Y0179449D01*
X0248379Y0181453D01*
X0250661Y0179171D01*
G37*
G36*
X0254204Y0175628D02*
X0252200Y0173624D01*
X0249918Y0175906D01*
X0251922Y0177910D01*
X0254204Y0175628D01*
G37*
G36*
X0251420Y0172844D02*
X0249416Y0170840D01*
X0247134Y0173122D01*
X0249138Y0175126D01*
X0251420Y0172844D01*
G37*
G36*
X0243225Y0171181D02*
X0245229Y0173185D01*
X0247511Y0170903D01*
X0245507Y0168899D01*
X0243225Y0171181D01*
G37*
G36*
X0240441Y0168397D02*
X0242445Y0170401D01*
X0244727Y0168119D01*
X0242723Y0166115D01*
X0240441Y0168397D01*
G37*
G36*
X0241409Y0171691D02*
X0239405Y0169687D01*
X0237123Y0171969D01*
X0239127Y0173973D01*
X0241409Y0171691D01*
G37*
G36*
X0238625Y0168907D02*
X0236621Y0166903D01*
X0234339Y0169185D01*
X0236343Y0171189D01*
X0238625Y0168907D01*
G37*
G36*
X0243985Y0164854D02*
X0245989Y0166858D01*
X0248271Y0164576D01*
X0246267Y0162572D01*
X0243985Y0164854D01*
G37*
G36*
X0246769Y0167638D02*
X0248773Y0169642D01*
X0251055Y0167360D01*
X0249051Y0165356D01*
X0246769Y0167638D01*
G37*
G36*
X0250312Y0164095D02*
X0252316Y0166099D01*
X0254598Y0163817D01*
X0252594Y0161813D01*
X0250312Y0164095D01*
G37*
G36*
X0247528Y0161311D02*
X0249532Y0163315D01*
X0251814Y0161033D01*
X0249810Y0159029D01*
X0247528Y0161311D01*
G37*
G36*
X0242330Y0161374D02*
X0244334Y0159370D01*
X0242052Y0157088D01*
X0240048Y0159092D01*
X0242330Y0161374D01*
G37*
G36*
X0245114Y0158590D02*
X0247118Y0156586D01*
X0244836Y0154304D01*
X0242832Y0156308D01*
X0245114Y0158590D01*
G37*
G36*
X0252960Y0151138D02*
X0254964Y0149134D01*
X0252682Y0146852D01*
X0250678Y0148856D01*
X0252960Y0151138D01*
G37*
G36*
X0255744Y0148354D02*
X0257748Y0146350D01*
X0255466Y0144068D01*
X0253462Y0146072D01*
X0255744Y0148354D01*
G37*
X0271535Y0152327D03*
X0275472Y0152327D03*
G36*
X0246098Y0130834D02*
X0248102Y0128830D01*
X0245820Y0126548D01*
X0243816Y0128552D01*
X0246098Y0130834D01*
G37*
G36*
X0243314Y0133618D02*
X0245318Y0131614D01*
X0243036Y0129332D01*
X0241032Y0131336D01*
X0243314Y0133618D01*
G37*
G36*
X0239602Y0138118D02*
X0241606Y0136114D01*
X0239324Y0133832D01*
X0237320Y0135836D01*
X0239602Y0138118D01*
G37*
G36*
X0236818Y0140902D02*
X0238822Y0138898D01*
X0236540Y0136616D01*
X0234536Y0138620D01*
X0236818Y0140902D01*
G37*
G36*
X0230662Y0136194D02*
X0228658Y0138198D01*
X0230940Y0140480D01*
X0232944Y0138476D01*
X0230662Y0136194D01*
G37*
G36*
X0233668Y0137752D02*
X0235672Y0135748D01*
X0233390Y0133466D01*
X0231386Y0135470D01*
X0233668Y0137752D01*
G37*
G36*
X0236452Y0134968D02*
X0238456Y0132964D01*
X0236174Y0130682D01*
X0234170Y0132686D01*
X0236452Y0134968D01*
G37*
X0235315Y0124768D03*
X0239252Y0124768D03*
X0239252Y0120044D03*
X0235315Y0120044D03*
G36*
X0223889Y0121691D02*
X0221885Y0119687D01*
X0219603Y0121969D01*
X0221607Y0123973D01*
X0223889Y0121691D01*
G37*
G36*
X0221105Y0118907D02*
X0219101Y0116903D01*
X0216819Y0119185D01*
X0218823Y0121189D01*
X0221105Y0118907D01*
G37*
G36*
X0216381Y0133080D02*
X0214377Y0131076D01*
X0212095Y0133358D01*
X0214099Y0135362D01*
X0216381Y0133080D01*
G37*
G36*
X0219165Y0135864D02*
X0217161Y0133860D01*
X0214879Y0136142D01*
X0216883Y0138146D01*
X0219165Y0135864D01*
G37*
G36*
X0225429Y0145992D02*
X0227433Y0143988D01*
X0225151Y0141706D01*
X0223147Y0143710D01*
X0225429Y0145992D01*
G37*
G36*
X0222645Y0148776D02*
X0224649Y0146772D01*
X0222367Y0144490D01*
X0220363Y0146494D01*
X0222645Y0148776D01*
G37*
G36*
X0225516Y0147639D02*
X0223512Y0149643D01*
X0225794Y0151925D01*
X0227798Y0149921D01*
X0225516Y0147639D01*
G37*
G36*
X0228300Y0144855D02*
X0226296Y0146859D01*
X0228578Y0149141D01*
X0230582Y0147137D01*
X0228300Y0144855D01*
G37*
G36*
X0227878Y0138978D02*
X0225874Y0140982D01*
X0228156Y0143264D01*
X0230160Y0141260D01*
X0227878Y0138978D01*
G37*
G36*
X0214851Y0152256D02*
X0216855Y0154260D01*
X0219137Y0151978D01*
X0217133Y0149974D01*
X0214851Y0152256D01*
G37*
G36*
X0217635Y0155039D02*
X0219639Y0157043D01*
X0221921Y0154761D01*
X0219917Y0152757D01*
X0217635Y0155039D01*
G37*
G36*
X0205824Y0140866D02*
X0207828Y0142870D01*
X0210110Y0140588D01*
X0208106Y0138584D01*
X0205824Y0140866D01*
G37*
G36*
X0203040Y0138082D02*
X0205044Y0140086D01*
X0207326Y0137804D01*
X0205322Y0135800D01*
X0203040Y0138082D01*
G37*
X0160512Y0125162D03*
X0156575Y0125162D03*
G36*
X0247877Y0176387D02*
X0245873Y0174383D01*
X0243591Y0176665D01*
X0245595Y0178669D01*
X0247877Y0176387D01*
G37*
X0299685Y0216107D03*
X0303622Y0216107D03*
X0306969Y0208036D03*
X0310906Y0208036D03*
X0302244Y0234020D03*
X0298307Y0234020D03*
X0294370Y0234020D03*
X0290433Y0234020D03*
X0290433Y0238745D03*
X0294370Y0238745D03*
X0298307Y0238745D03*
X0302244Y0238745D03*
X0306772Y0290713D03*
X0310709Y0290713D03*
X0344961Y0290713D03*
X0348898Y0290713D03*
X0347520Y0309020D03*
X0351457Y0309020D03*
X0351457Y0313745D03*
X0347520Y0313745D03*
X0347520Y0318469D03*
X0351457Y0318469D03*
X0351457Y0323194D03*
X0347520Y0323194D03*
X0358346Y0323981D03*
X0362283Y0323981D03*
X0334921Y0327524D03*
X0330984Y0327524D03*
X0323898Y0327524D03*
X0319961Y0327524D03*
X0319961Y0332249D03*
X0323898Y0332249D03*
X0314055Y0326934D03*
X0310118Y0326934D03*
X0358543Y0341698D03*
X0362480Y0341698D03*
X0153425Y0326737D03*
X0149488Y0326737D03*
X0130591Y0322012D03*
X0126654Y0322012D03*
X0120748Y0321225D03*
X0116811Y0321225D03*
X0136693Y0352131D03*
X0140630Y0352131D03*
X0140630Y0356855D03*
X0136693Y0356855D03*
X0086102Y0356264D03*
X0082165Y0356264D03*
X0359331Y0151146D03*
X0363268Y0151146D03*
X0371535Y0136383D03*
X0375472Y0136383D03*
X0375472Y0131658D03*
X0371535Y0131658D03*
X0361693Y0126343D03*
X0357756Y0126343D03*
X0407362Y0127131D03*
X0411299Y0127131D03*
X0414843Y0127131D03*
X0418780Y0127131D03*
X0418780Y0131855D03*
X0414843Y0131855D03*
X0414843Y0136579D03*
X0411299Y0136579D03*
X0407362Y0136579D03*
X0407362Y0147603D03*
X0411299Y0147603D03*
X0414843Y0147603D03*
X0418780Y0147603D03*
X0418780Y0152327D03*
X0414843Y0152327D03*
X0411299Y0152327D03*
X0407362Y0152327D03*
X0414843Y0157052D03*
X0418780Y0157052D03*
X0418780Y0161776D03*
X0414843Y0161776D03*
X0414843Y0166501D03*
X0418780Y0166501D03*
X0418780Y0171225D03*
X0414843Y0171225D03*
X0411299Y0171225D03*
X0407362Y0171225D03*
X0414843Y0175949D03*
X0418780Y0175949D03*
X0418780Y0180674D03*
X0414843Y0180674D03*
X0411299Y0180674D03*
X0407362Y0180674D03*
X0434528Y0184217D03*
X0438465Y0184217D03*
X0454213Y0185398D03*
X0458150Y0185398D03*
X0458150Y0180674D03*
X0454213Y0180674D03*
X0454213Y0175949D03*
X0458150Y0175949D03*
X0458150Y0171225D03*
X0454213Y0171225D03*
X0454213Y0166501D03*
X0458150Y0166501D03*
X0458150Y0161776D03*
X0454213Y0161776D03*
X0454213Y0157052D03*
X0458150Y0157052D03*
X0458150Y0152327D03*
X0461693Y0152327D03*
X0465630Y0152327D03*
X0464646Y0147603D03*
X0468583Y0147603D03*
X0474291Y0147603D03*
X0478228Y0147603D03*
X0481772Y0147603D03*
X0485709Y0147603D03*
X0485709Y0152327D03*
X0481772Y0152327D03*
X0478228Y0152327D03*
X0474291Y0152327D03*
X0481772Y0157052D03*
X0485709Y0157052D03*
X0485709Y0161776D03*
X0481772Y0161776D03*
X0481772Y0166501D03*
X0485709Y0166501D03*
X0485709Y0171225D03*
X0481772Y0171225D03*
X0478228Y0171225D03*
X0474291Y0171225D03*
X0481772Y0175949D03*
X0485709Y0175949D03*
X0485709Y0180674D03*
X0481772Y0180674D03*
X0478228Y0180674D03*
X0474291Y0180674D03*
X0501063Y0184020D03*
X0505000Y0184020D03*
X0521535Y0185398D03*
X0525472Y0185398D03*
X0525472Y0180674D03*
X0521535Y0180674D03*
X0521535Y0175949D03*
X0525472Y0175949D03*
X0525472Y0171225D03*
X0521535Y0171225D03*
X0521535Y0166501D03*
X0525472Y0166501D03*
X0525472Y0161776D03*
X0521535Y0161776D03*
X0521535Y0157052D03*
X0525472Y0157052D03*
X0525472Y0152327D03*
X0529016Y0152327D03*
X0532953Y0152327D03*
X0532953Y0147603D03*
X0529016Y0147603D03*
X0525472Y0147603D03*
X0521535Y0147603D03*
X0521535Y0152327D03*
X0521929Y0141698D03*
X0525866Y0141698D03*
X0525866Y0136973D03*
X0521929Y0136973D03*
X0521929Y0132249D03*
X0525866Y0132249D03*
X0525866Y0127524D03*
X0529803Y0127524D03*
X0525472Y0117682D03*
X0521535Y0117682D03*
X0521535Y0112957D03*
X0525472Y0112957D03*
X0525472Y0108233D03*
X0529016Y0108233D03*
X0532953Y0108233D03*
X0532953Y0103509D03*
X0529016Y0103509D03*
X0525472Y0103509D03*
X0521535Y0103509D03*
X0521535Y0108233D03*
X0485709Y0108233D03*
X0481772Y0108233D03*
X0478228Y0108233D03*
X0474291Y0108233D03*
X0474291Y0103509D03*
X0478228Y0103509D03*
X0481772Y0103509D03*
X0485709Y0103509D03*
X0485709Y0112957D03*
X0481772Y0112957D03*
X0481772Y0117682D03*
X0485709Y0117682D03*
X0485709Y0122406D03*
X0481772Y0122406D03*
X0481772Y0127131D03*
X0478228Y0127131D03*
X0474291Y0127131D03*
X0481772Y0131855D03*
X0485709Y0131855D03*
X0485709Y0127131D03*
X0485709Y0136579D03*
X0481772Y0136579D03*
X0478228Y0136579D03*
X0474291Y0136579D03*
X0458150Y0136579D03*
X0454213Y0136579D03*
X0454213Y0142091D03*
X0458150Y0142091D03*
X0458150Y0147603D03*
X0454213Y0147603D03*
X0454213Y0152327D03*
X0438465Y0139729D03*
X0434528Y0139729D03*
X0418780Y0136579D03*
X0418780Y0122406D03*
X0414843Y0122406D03*
X0414843Y0117682D03*
X0418780Y0117682D03*
X0418780Y0112957D03*
X0414843Y0112957D03*
X0414843Y0108233D03*
X0418780Y0108233D03*
X0418780Y0103509D03*
X0414843Y0103509D03*
X0410906Y0103509D03*
X0406969Y0103509D03*
X0406969Y0108233D03*
X0410906Y0108233D03*
X0454213Y0108233D03*
X0458150Y0108233D03*
X0458150Y0103509D03*
X0461693Y0103509D03*
X0465630Y0103509D03*
X0454213Y0103509D03*
X0454213Y0112957D03*
X0458150Y0112957D03*
X0461693Y0112957D03*
X0465630Y0112957D03*
X0458150Y0117682D03*
X0454213Y0117682D03*
X0454213Y0122406D03*
X0458150Y0122406D03*
X0458150Y0127131D03*
X0454213Y0127131D03*
X0454213Y0131855D03*
X0458150Y0131855D03*
X0501457Y0139729D03*
X0505394Y0139729D03*
X0259331Y0084808D03*
X0255394Y0084808D03*
X0255394Y0080083D03*
X0259331Y0080083D03*
D11*
X0162008Y0116284D02*
X0162008Y0120457D01*
X0159016Y0120457D01*
X0159016Y0116284D01*
X0162008Y0116284D01*
X0162008Y0116743D02*
X0159016Y0116743D01*
X0159016Y0118788D02*
X0162008Y0118788D01*
X0154921Y0118788D02*
X0151929Y0118788D01*
X0151929Y0120457D02*
X0151929Y0116284D01*
X0154921Y0116284D01*
X0154921Y0120457D01*
X0151929Y0120457D01*
X0151929Y0116743D02*
X0154921Y0116743D01*
X0252717Y0169531D02*
X0255668Y0166580D01*
X0257784Y0168696D01*
X0254833Y0171647D01*
X0252717Y0169531D01*
X0253119Y0169932D02*
X0256547Y0169932D01*
X0256975Y0167887D02*
X0254361Y0167887D01*
X0260292Y0171978D02*
X0261066Y0171978D01*
X0260679Y0171591D02*
X0262795Y0173707D01*
X0259844Y0176658D01*
X0257728Y0174542D01*
X0260679Y0171591D01*
X0262478Y0174024D02*
X0258246Y0174024D01*
X0259256Y0176070D02*
X0260432Y0176070D01*
X0285591Y0192564D02*
X0289764Y0192564D01*
X0289764Y0195556D01*
X0285591Y0195556D01*
X0285591Y0192564D01*
X0285591Y0194481D02*
X0289764Y0194481D01*
X0289764Y0199650D02*
X0289764Y0202642D01*
X0285591Y0202642D01*
X0285591Y0199650D01*
X0289764Y0199650D01*
X0289764Y0200619D02*
X0285591Y0200619D01*
X0315315Y0219138D02*
X0319488Y0219138D01*
X0319488Y0222131D01*
X0315315Y0222131D01*
X0315315Y0219138D01*
X0315315Y0221076D02*
X0319488Y0221076D01*
X0323189Y0221076D02*
X0327362Y0221076D01*
X0327362Y0222131D02*
X0323189Y0222131D01*
X0323189Y0219138D01*
X0327362Y0219138D01*
X0327362Y0222131D01*
X0327362Y0226225D02*
X0327362Y0229217D01*
X0323189Y0229217D01*
X0323189Y0226225D01*
X0327362Y0226225D01*
X0327362Y0227213D02*
X0323189Y0227213D01*
X0319488Y0227213D02*
X0315315Y0227213D01*
X0315315Y0226225D02*
X0319488Y0226225D01*
X0319488Y0229217D01*
X0315315Y0229217D01*
X0315315Y0226225D01*
X0321024Y0201461D02*
X0325197Y0201461D01*
X0325197Y0198469D01*
X0321024Y0198469D01*
X0321024Y0201461D01*
X0321024Y0200619D02*
X0325197Y0200619D01*
X0325197Y0198573D02*
X0321024Y0198573D01*
X0321024Y0194375D02*
X0325197Y0194375D01*
X0325197Y0191383D01*
X0321024Y0191383D01*
X0321024Y0194375D01*
X0321024Y0192436D02*
X0325197Y0192436D01*
X0357047Y0159926D02*
X0357047Y0155753D01*
X0360039Y0155753D01*
X0360039Y0159926D01*
X0357047Y0159926D01*
X0357047Y0159704D02*
X0360039Y0159704D01*
X0360039Y0157658D02*
X0357047Y0157658D01*
X0364134Y0157658D02*
X0367126Y0157658D01*
X0367126Y0155753D02*
X0367126Y0159926D01*
X0364134Y0159926D01*
X0364134Y0155753D01*
X0367126Y0155753D01*
X0367126Y0159704D02*
X0364134Y0159704D01*
X0364764Y0121343D02*
X0361772Y0121343D01*
X0361772Y0117170D01*
X0364764Y0117170D01*
X0364764Y0121343D01*
X0364764Y0120834D02*
X0361772Y0120834D01*
X0361772Y0118788D02*
X0364764Y0118788D01*
X0364764Y0113075D02*
X0361772Y0113075D01*
X0361772Y0108902D01*
X0364764Y0108902D01*
X0364764Y0113075D01*
X0364764Y0112651D02*
X0361772Y0112651D01*
X0361772Y0110605D02*
X0364764Y0110605D01*
X0357677Y0110605D02*
X0354685Y0110605D01*
X0354685Y0108902D02*
X0354685Y0113075D01*
X0357677Y0113075D01*
X0357677Y0108902D01*
X0354685Y0108902D01*
X0354685Y0112651D02*
X0357677Y0112651D01*
X0357677Y0117170D02*
X0357677Y0121343D01*
X0354685Y0121343D01*
X0354685Y0117170D01*
X0357677Y0117170D01*
X0357677Y0118788D02*
X0354685Y0118788D01*
X0354685Y0120834D02*
X0357677Y0120834D01*
X0278543Y0229572D02*
X0278543Y0232564D01*
X0274370Y0232564D01*
X0274370Y0229572D01*
X0278543Y0229572D01*
X0278543Y0231305D02*
X0274370Y0231305D01*
X0270276Y0231305D02*
X0266102Y0231305D01*
X0266102Y0232564D02*
X0270276Y0232564D01*
X0270276Y0229572D01*
X0266102Y0229572D01*
X0266102Y0232564D01*
X0266102Y0236658D02*
X0270276Y0236658D01*
X0270276Y0239650D01*
X0266102Y0239650D01*
X0266102Y0236658D01*
X0266102Y0237442D02*
X0270276Y0237442D01*
X0270276Y0239488D02*
X0266102Y0239488D01*
X0274370Y0239488D02*
X0278543Y0239488D01*
X0278543Y0239650D02*
X0274370Y0239650D01*
X0274370Y0236658D01*
X0278543Y0236658D01*
X0278543Y0239650D01*
X0278543Y0237442D02*
X0274370Y0237442D01*
X0251181Y0274060D02*
X0247008Y0274060D01*
X0247008Y0277052D01*
X0251181Y0277052D01*
X0251181Y0274060D01*
X0251181Y0274266D02*
X0247008Y0274266D01*
X0247008Y0276312D02*
X0251181Y0276312D01*
X0251181Y0281146D02*
X0247008Y0281146D01*
X0247008Y0284138D01*
X0251181Y0284138D01*
X0251181Y0281146D01*
X0251181Y0282449D02*
X0247008Y0282449D01*
X0214370Y0265044D02*
X0214370Y0260871D01*
X0211378Y0260871D01*
X0211378Y0265044D01*
X0214370Y0265044D01*
X0214370Y0264037D02*
X0211378Y0264037D01*
X0211378Y0261991D02*
X0214370Y0261991D01*
X0207283Y0261991D02*
X0204291Y0261991D01*
X0204291Y0260871D02*
X0207283Y0260871D01*
X0207283Y0265044D01*
X0204291Y0265044D01*
X0204291Y0260871D01*
X0204291Y0264037D02*
X0207283Y0264037D01*
X0282638Y0291579D02*
X0286811Y0291579D01*
X0286811Y0294572D01*
X0282638Y0294572D01*
X0282638Y0291579D01*
X0282638Y0292678D02*
X0286811Y0292678D01*
X0291102Y0292678D02*
X0295276Y0292678D01*
X0295276Y0291579D02*
X0295276Y0294572D01*
X0291102Y0294572D01*
X0291102Y0291579D01*
X0295276Y0291579D01*
X0295276Y0298666D02*
X0291102Y0298666D01*
X0291102Y0301658D01*
X0295276Y0301658D01*
X0295276Y0298666D01*
X0295276Y0298815D02*
X0291102Y0298815D01*
X0291102Y0300861D02*
X0295276Y0300861D01*
X0286811Y0300861D02*
X0282638Y0300861D01*
X0282638Y0301658D02*
X0282638Y0298666D01*
X0286811Y0298666D01*
X0286811Y0301658D01*
X0282638Y0301658D01*
X0282638Y0298815D02*
X0286811Y0298815D01*
X0286811Y0307918D02*
X0282638Y0307918D01*
X0282638Y0310910D01*
X0286811Y0310910D01*
X0286811Y0307918D01*
X0286811Y0309044D02*
X0282638Y0309044D01*
X0291102Y0309044D02*
X0295276Y0309044D01*
X0295276Y0307918D02*
X0291102Y0307918D01*
X0291102Y0310910D01*
X0295276Y0310910D01*
X0295276Y0307918D01*
X0295276Y0315005D02*
X0291102Y0315005D01*
X0291102Y0317997D01*
X0295276Y0317997D01*
X0295276Y0315005D01*
X0295276Y0315181D02*
X0291102Y0315181D01*
X0291102Y0317227D02*
X0295276Y0317227D01*
X0286811Y0317227D02*
X0282638Y0317227D01*
X0282638Y0317997D02*
X0282638Y0315005D01*
X0286811Y0315005D01*
X0286811Y0317997D01*
X0282638Y0317997D01*
X0282638Y0315181D02*
X0286811Y0315181D01*
X0305866Y0318745D02*
X0305866Y0322918D01*
X0308858Y0322918D01*
X0308858Y0318745D01*
X0305866Y0318745D01*
X0305866Y0319272D02*
X0308858Y0319272D01*
X0308858Y0321318D02*
X0305866Y0321318D01*
X0312953Y0321318D02*
X0315945Y0321318D01*
X0315945Y0322918D02*
X0312953Y0322918D01*
X0312953Y0318745D01*
X0315945Y0318745D01*
X0315945Y0322918D01*
X0315945Y0319272D02*
X0312953Y0319272D01*
X0356654Y0305792D02*
X0356654Y0302800D01*
X0360827Y0302800D01*
X0360827Y0305792D01*
X0356654Y0305792D01*
X0356654Y0304952D02*
X0360827Y0304952D01*
X0360827Y0302906D02*
X0356654Y0302906D01*
X0356654Y0298705D02*
X0360827Y0298705D01*
X0360827Y0295713D01*
X0356654Y0295713D01*
X0356654Y0298705D01*
X0356654Y0296769D02*
X0360827Y0296769D01*
X0377126Y0315005D02*
X0380118Y0315005D01*
X0380118Y0319178D01*
X0377126Y0319178D01*
X0377126Y0315005D01*
X0377126Y0315181D02*
X0380118Y0315181D01*
X0380118Y0317227D02*
X0377126Y0317227D01*
X0384213Y0317227D02*
X0387205Y0317227D01*
X0387205Y0319178D02*
X0387205Y0315005D01*
X0384213Y0315005D01*
X0384213Y0319178D01*
X0387205Y0319178D01*
X0387205Y0315181D02*
X0384213Y0315181D01*
X0380118Y0351225D02*
X0377126Y0351225D01*
X0377126Y0355398D01*
X0380118Y0355398D01*
X0380118Y0351225D01*
X0380118Y0352005D02*
X0377126Y0352005D01*
X0377126Y0354050D02*
X0380118Y0354050D01*
X0373031Y0354050D02*
X0370039Y0354050D01*
X0370039Y0355398D02*
X0370039Y0351225D01*
X0373031Y0351225D01*
X0373031Y0355398D01*
X0370039Y0355398D01*
X0370039Y0352005D02*
X0373031Y0352005D01*
X0171949Y0358197D02*
X0170390Y0356638D01*
X0169277Y0357752D01*
X0170836Y0359311D01*
X0171949Y0358197D01*
X0171894Y0358142D02*
X0169667Y0358142D01*
X0165936Y0361092D02*
X0164822Y0362206D01*
X0166381Y0363765D01*
X0167495Y0362651D01*
X0165936Y0361092D01*
X0164850Y0362233D02*
X0167077Y0362233D01*
X0122244Y0362233D02*
X0118071Y0362233D01*
X0118071Y0361068D02*
X0118071Y0364060D01*
X0122244Y0364060D01*
X0122244Y0361068D01*
X0118071Y0361068D01*
X0118071Y0356973D02*
X0118071Y0353981D01*
X0122244Y0353981D01*
X0122244Y0356973D01*
X0118071Y0356973D01*
X0118071Y0356096D02*
X0122244Y0356096D01*
X0122244Y0354050D02*
X0118071Y0354050D01*
X0113780Y0354050D02*
X0109606Y0354050D01*
X0109606Y0353981D02*
X0113780Y0353981D01*
X0113780Y0356973D01*
X0109606Y0356973D01*
X0109606Y0353981D01*
X0109606Y0356096D02*
X0113780Y0356096D01*
X0113780Y0361068D02*
X0109606Y0361068D01*
X0109606Y0364060D01*
X0113780Y0364060D01*
X0113780Y0361068D01*
X0113780Y0362233D02*
X0109606Y0362233D01*
X0110984Y0345753D02*
X0110984Y0341579D01*
X0113976Y0341579D01*
X0113976Y0345753D01*
X0110984Y0345753D01*
X0110984Y0343822D02*
X0113976Y0343822D01*
X0113976Y0341776D02*
X0110984Y0341776D01*
X0118071Y0341776D02*
X0121063Y0341776D01*
X0121063Y0341579D02*
X0121063Y0345753D01*
X0118071Y0345753D01*
X0118071Y0341579D01*
X0121063Y0341579D01*
X0121063Y0343822D02*
X0118071Y0343822D01*
X0144449Y0322327D02*
X0144449Y0318154D01*
X0147441Y0318154D01*
X0147441Y0322327D01*
X0144449Y0322327D01*
X0144449Y0321318D02*
X0147441Y0321318D01*
X0147441Y0319272D02*
X0144449Y0319272D01*
X0151535Y0319272D02*
X0154528Y0319272D01*
X0154528Y0318154D02*
X0154528Y0322327D01*
X0151535Y0322327D01*
X0151535Y0318154D01*
X0154528Y0318154D01*
X0154528Y0321318D02*
X0151535Y0321318D01*
X0103150Y0222721D02*
X0098976Y0222721D01*
X0098976Y0219729D01*
X0103150Y0219729D01*
X0103150Y0222721D01*
X0103150Y0221076D02*
X0098976Y0221076D01*
X0098976Y0215635D02*
X0098976Y0212642D01*
X0103150Y0212642D01*
X0103150Y0215635D01*
X0098976Y0215635D01*
X0098976Y0214939D02*
X0103150Y0214939D01*
X0103150Y0212893D02*
X0098976Y0212893D01*
D12*
X0107756Y0215320D03*
X0107756Y0219257D03*
X0091614Y0296028D03*
X0091614Y0299965D03*
X0081378Y0299965D03*
X0081378Y0296028D03*
X0076260Y0296028D03*
X0076260Y0299965D03*
X0071142Y0299965D03*
X0071142Y0296028D03*
X0066024Y0296028D03*
X0066024Y0299965D03*
X0112480Y0331855D03*
X0112480Y0335792D03*
X0134134Y0333430D03*
X0134134Y0329493D03*
X0138858Y0329493D03*
X0138858Y0333430D03*
X0144961Y0335595D03*
X0144961Y0339532D03*
X0140630Y0344060D03*
X0140630Y0347997D03*
X0150276Y0357839D03*
X0150276Y0361776D03*
X0155000Y0361776D03*
X0155000Y0357839D03*
X0159724Y0357839D03*
X0159724Y0361776D03*
X0136890Y0361776D03*
X0136890Y0365713D03*
X0133543Y0372997D03*
X0133543Y0376934D03*
X0125669Y0376934D03*
X0125669Y0372997D03*
X0105000Y0371619D03*
X0105000Y0375556D03*
X0136693Y0322997D03*
X0136693Y0319060D03*
X0134921Y0310792D03*
X0134921Y0306855D03*
X0130197Y0306855D03*
X0130197Y0310792D03*
X0189252Y0355280D03*
X0189252Y0359217D03*
X0193976Y0359217D03*
X0193976Y0355280D03*
X0195551Y0377524D03*
X0195551Y0381461D03*
X0200276Y0381461D03*
X0200276Y0377524D03*
X0304213Y0305083D03*
X0304213Y0301146D03*
X0323504Y0318666D03*
X0323504Y0322603D03*
X0328228Y0322603D03*
X0328228Y0318666D03*
X0332953Y0318666D03*
X0332953Y0322603D03*
X0337677Y0322603D03*
X0337677Y0318666D03*
X0342402Y0318666D03*
X0342402Y0322603D03*
X0345748Y0333036D03*
X0345748Y0336973D03*
X0367795Y0319060D03*
X0367795Y0315123D03*
X0372520Y0315123D03*
X0372520Y0319060D03*
X0388465Y0324965D03*
X0388465Y0328902D03*
X0388465Y0333233D03*
X0388465Y0337170D03*
X0421535Y0330477D03*
X0421535Y0326540D03*
X0426260Y0326540D03*
X0426260Y0330477D03*
X0430984Y0330477D03*
X0430984Y0326540D03*
X0461693Y0318075D03*
X0461693Y0314138D03*
X0454213Y0304296D03*
X0454213Y0300359D03*
X0477441Y0314138D03*
X0477441Y0318075D03*
X0493189Y0318075D03*
X0493189Y0314138D03*
X0508937Y0314138D03*
X0508937Y0318075D03*
X0524685Y0318075D03*
X0524685Y0314138D03*
X0533937Y0349768D03*
X0533937Y0353705D03*
X0351457Y0304493D03*
X0351457Y0300556D03*
X0343583Y0252918D03*
X0343583Y0248981D03*
X0310315Y0225162D03*
X0310315Y0221225D03*
X0282756Y0230477D03*
X0282756Y0234414D03*
X0273898Y0211383D03*
X0273898Y0207446D03*
X0268780Y0207446D03*
X0268780Y0211383D03*
X0293583Y0199572D03*
X0293583Y0195635D03*
X0317008Y0194453D03*
X0317008Y0198390D03*
X0348307Y0144453D03*
X0348307Y0140516D03*
X0303228Y0107249D03*
X0303228Y0103312D03*
X0259528Y0104887D03*
X0259528Y0108824D03*
X0209528Y0116698D03*
X0209528Y0120635D03*
X0123110Y0109020D03*
X0123110Y0105083D03*
X0084921Y0105083D03*
X0084921Y0109020D03*
X0084921Y0099572D03*
X0084921Y0095635D03*
X0239252Y0278312D03*
X0239252Y0282249D03*
X0407362Y0160595D03*
X0407362Y0156658D03*
X0462480Y0176343D03*
X0462480Y0180280D03*
X0529803Y0180280D03*
X0529803Y0176343D03*
X0462677Y0132249D03*
X0462677Y0128312D03*
X0386890Y0096422D03*
X0386890Y0092485D03*
X0382165Y0092485D03*
X0382165Y0096422D03*
X0377441Y0096422D03*
X0377441Y0092485D03*
X0372717Y0092485D03*
X0372717Y0096422D03*
D13*
X0203228Y0118262D03*
D14*
X0203209Y0125772D03*
D15*
X0195344Y0122012D03*
D16*
X0067874Y0308725D03*
D17*
X0027953Y0280792D03*
X0059402Y0347741D03*
X0075354Y0039453D03*
X0339134Y0039453D03*
X0572795Y0109296D03*
D18*
X0105071Y0317820D03*
D19*
X0058024Y0315261D03*
D20*
X0069047Y0348233D03*
X0073378Y0348233D03*
X0077709Y0348233D03*
X0082039Y0348233D03*
X0086370Y0348233D03*
X0090701Y0348233D03*
X0095031Y0348233D03*
X0099362Y0348233D03*
D21*
X0103693Y0311914D03*
D22*
X0059598Y0305713D03*
D23*
X0104469Y0347780D03*
D24*
X0152598Y0382642D03*
X0180236Y0382642D03*
D25*
X0175965Y0370831D03*
X0156870Y0370831D03*
D26*
X0161299Y0372111D03*
X0163858Y0372111D03*
X0166417Y0372111D03*
X0168976Y0372111D03*
X0171535Y0372111D03*
D27*
X0028622Y0366894D03*
X0347520Y0366894D03*
X0571929Y0366894D03*
X0571929Y0040123D03*
X0302244Y0040123D03*
X0028622Y0040123D03*
D28*
X0093189Y0099552D03*
X0093189Y0104552D03*
X0093189Y0109552D03*
X0093189Y0114552D03*
X0113661Y0114552D03*
X0113661Y0109552D03*
X0113661Y0104552D03*
X0113661Y0099552D03*
D29*
G36*
X0218762Y0122931D02*
X0215625Y0119794D01*
X0210262Y0125157D01*
X0213399Y0128294D01*
X0218762Y0122931D01*
G37*
G36*
X0225722Y0129891D02*
X0222585Y0126754D01*
X0217222Y0132117D01*
X0220359Y0135254D01*
X0225722Y0129891D01*
G37*
D30*
X0425866Y0127682D03*
X0425866Y0122682D03*
X0425866Y0117682D03*
X0425866Y0112682D03*
X0425866Y0107682D03*
X0425866Y0102682D03*
X0447126Y0102682D03*
X0447126Y0107682D03*
X0447126Y0112682D03*
X0447126Y0117682D03*
X0447126Y0122682D03*
X0447126Y0127682D03*
X0447126Y0132682D03*
X0447126Y0146776D03*
X0447126Y0151776D03*
X0447126Y0156776D03*
X0447126Y0161776D03*
X0447126Y0166776D03*
X0447126Y0171776D03*
X0447126Y0176776D03*
X0425866Y0176776D03*
X0425866Y0171776D03*
X0425866Y0166776D03*
X0425866Y0161776D03*
X0425866Y0156776D03*
X0425866Y0151776D03*
X0425866Y0146776D03*
X0425866Y0132682D03*
X0492795Y0132682D03*
X0492795Y0127682D03*
X0492795Y0122682D03*
X0492795Y0117682D03*
X0492795Y0112682D03*
X0492795Y0107682D03*
X0492795Y0102682D03*
X0514055Y0102682D03*
X0514055Y0107682D03*
X0514055Y0112682D03*
X0514055Y0117682D03*
X0514055Y0122682D03*
X0514055Y0127682D03*
X0514055Y0132682D03*
X0514055Y0146776D03*
X0514055Y0151776D03*
X0514055Y0156776D03*
X0514055Y0161776D03*
X0514055Y0166776D03*
X0514055Y0171776D03*
X0514055Y0176776D03*
X0492795Y0176776D03*
X0492795Y0171776D03*
X0492795Y0166776D03*
X0492795Y0161776D03*
X0492795Y0156776D03*
X0492795Y0151776D03*
X0492795Y0146776D03*
D31*
X0174094Y0334414D02*
X0172126Y0334414D01*
X0172126Y0336383D02*
X0174094Y0336383D01*
X0174094Y0338351D02*
X0172126Y0338351D01*
X0172126Y0340320D02*
X0174094Y0340320D01*
X0174094Y0342288D02*
X0172126Y0342288D01*
X0172126Y0344257D02*
X0174094Y0344257D01*
X0174094Y0346225D02*
X0172126Y0346225D01*
X0172126Y0348194D02*
X0174094Y0348194D01*
X0170551Y0349768D02*
X0170551Y0351737D01*
X0168583Y0351737D02*
X0168583Y0349768D01*
X0166614Y0349768D02*
X0166614Y0351737D01*
X0164646Y0351737D02*
X0164646Y0349768D01*
X0162677Y0349768D02*
X0162677Y0351737D01*
X0160709Y0351737D02*
X0160709Y0349768D01*
X0158740Y0349768D02*
X0158740Y0351737D01*
X0156772Y0351737D02*
X0156772Y0349768D01*
X0155197Y0348194D02*
X0153228Y0348194D01*
X0153228Y0346225D02*
X0155197Y0346225D01*
X0155197Y0344257D02*
X0153228Y0344257D01*
X0153228Y0342288D02*
X0155197Y0342288D01*
X0155197Y0340320D02*
X0153228Y0340320D01*
X0153228Y0338351D02*
X0155197Y0338351D01*
X0155197Y0336383D02*
X0153228Y0336383D01*
X0153228Y0334414D02*
X0155197Y0334414D01*
X0156772Y0332839D02*
X0156772Y0330871D01*
X0158740Y0330871D02*
X0158740Y0332839D01*
X0160709Y0332839D02*
X0160709Y0330871D01*
X0162677Y0330871D02*
X0162677Y0332839D01*
X0164646Y0332839D02*
X0164646Y0330871D01*
X0166614Y0330871D02*
X0166614Y0332839D01*
X0168583Y0332839D02*
X0168583Y0330871D01*
X0170551Y0330871D02*
X0170551Y0332839D01*
D32*
X0170551Y0330477D03*
X0168583Y0330477D03*
X0166614Y0330477D03*
X0164646Y0330477D03*
X0162677Y0330477D03*
X0160709Y0330477D03*
X0158740Y0330477D03*
X0156772Y0330477D03*
X0156772Y0352131D03*
X0158740Y0352131D03*
X0160709Y0352131D03*
X0162677Y0352131D03*
X0164646Y0352131D03*
X0166614Y0352131D03*
X0168583Y0352131D03*
X0170551Y0352131D03*
D33*
X0174488Y0348194D03*
X0174488Y0346225D03*
X0174488Y0344257D03*
X0174488Y0342288D03*
X0174488Y0340320D03*
X0174488Y0338351D03*
X0174488Y0336383D03*
X0174488Y0334414D03*
X0152835Y0334414D03*
X0152835Y0336383D03*
X0152835Y0338351D03*
X0152835Y0340320D03*
X0152835Y0342288D03*
X0152835Y0344257D03*
X0152835Y0346225D03*
X0152835Y0348194D03*
D34*
X0157082Y0346847D02*
X0157047Y0346540D01*
X0157047Y0336068D01*
X0157082Y0335761D01*
X0157184Y0335470D01*
X0157348Y0335208D01*
X0157566Y0334990D01*
X0157827Y0334826D01*
X0158119Y0334724D01*
X0158425Y0334690D01*
X0168898Y0334690D01*
X0169204Y0334724D01*
X0169496Y0334826D01*
X0169757Y0334990D01*
X0169975Y0335208D01*
X0170139Y0335470D01*
X0170241Y0335761D01*
X0170276Y0336068D01*
X0170276Y0346540D01*
X0170241Y0346847D01*
X0170139Y0347138D01*
X0169975Y0347399D01*
X0169757Y0347617D01*
X0169496Y0347782D01*
X0169204Y0347883D01*
X0168898Y0347918D01*
X0158425Y0347918D01*
X0158119Y0347883D01*
X0157827Y0347782D01*
X0157566Y0347617D01*
X0157348Y0347399D01*
X0157184Y0347138D01*
X0157082Y0346847D01*
X0157070Y0346743D02*
X0170253Y0346743D01*
X0170276Y0346351D02*
X0157047Y0346351D01*
X0157047Y0345959D02*
X0170276Y0345959D01*
X0170276Y0345567D02*
X0157047Y0345567D01*
X0157047Y0345174D02*
X0170276Y0345174D01*
X0170276Y0344782D02*
X0157047Y0344782D01*
X0157047Y0344390D02*
X0170276Y0344390D01*
X0170276Y0343998D02*
X0157047Y0343998D01*
X0157047Y0343606D02*
X0170276Y0343606D01*
X0170276Y0343213D02*
X0157047Y0343213D01*
X0157047Y0342821D02*
X0170276Y0342821D01*
X0170276Y0342429D02*
X0157047Y0342429D01*
X0157047Y0342037D02*
X0170276Y0342037D01*
X0170276Y0341645D02*
X0157047Y0341645D01*
X0157047Y0341252D02*
X0170276Y0341252D01*
X0170276Y0340860D02*
X0157047Y0340860D01*
X0157047Y0340468D02*
X0170276Y0340468D01*
X0170276Y0340076D02*
X0157047Y0340076D01*
X0157047Y0339683D02*
X0170276Y0339683D01*
X0170276Y0339291D02*
X0157047Y0339291D01*
X0157047Y0338899D02*
X0170276Y0338899D01*
X0170276Y0338507D02*
X0157047Y0338507D01*
X0157047Y0338115D02*
X0170276Y0338115D01*
X0170276Y0337722D02*
X0157047Y0337722D01*
X0157047Y0337330D02*
X0170276Y0337330D01*
X0170276Y0336938D02*
X0157047Y0336938D01*
X0157047Y0336546D02*
X0170276Y0336546D01*
X0170276Y0336154D02*
X0157047Y0336154D01*
X0157082Y0335761D02*
X0170241Y0335761D01*
X0170076Y0335369D02*
X0157247Y0335369D01*
X0157587Y0334977D02*
X0169735Y0334977D01*
X0170140Y0347135D02*
X0157183Y0347135D01*
X0157476Y0347528D02*
X0169846Y0347528D01*
X0010098Y0259020D02*
X0009921Y0259198D01*
X0009429Y0258568D02*
X0009055Y0258942D01*
X0009134Y0258666D02*
X0009134Y0256855D01*
X0009035Y0256776D02*
X0009252Y0256776D01*
X0009429Y0256934D01*
X0009429Y0258568D01*
X0010197Y0256579D02*
X0009921Y0256304D01*
X0009921Y0254650D02*
X0010197Y0254375D01*
X0009429Y0254020D02*
X0009429Y0252387D01*
X0009055Y0252012D01*
X0009134Y0252170D02*
X0009134Y0253981D01*
X0009272Y0254178D02*
X0009429Y0254020D01*
X0009291Y0254178D02*
X0008976Y0254178D01*
X0010098Y0251934D02*
X0009921Y0251757D01*
X0009921Y0224552D02*
X0010098Y0224375D01*
X0009429Y0223922D02*
X0009055Y0224296D01*
X0009134Y0224020D02*
X0009134Y0222209D01*
X0009035Y0222131D02*
X0009252Y0222131D01*
X0009429Y0222288D01*
X0009429Y0223922D01*
X0010197Y0221934D02*
X0009921Y0221658D01*
X0009921Y0220005D02*
X0010197Y0219729D01*
X0009429Y0219375D02*
X0009429Y0217741D01*
X0009055Y0217367D01*
X0009134Y0217524D02*
X0009134Y0219335D01*
X0009272Y0219532D02*
X0009429Y0219375D01*
X0009291Y0219532D02*
X0008976Y0219532D01*
X0010098Y0217288D02*
X0009921Y0217111D01*
X0009921Y0194631D02*
X0010098Y0194453D01*
X0009429Y0194001D02*
X0009055Y0194375D01*
X0009134Y0194099D02*
X0009134Y0192288D01*
X0009035Y0192209D02*
X0009252Y0192209D01*
X0009429Y0192367D01*
X0009429Y0194001D01*
X0010197Y0192012D02*
X0009921Y0191737D01*
X0009921Y0190083D02*
X0010197Y0189808D01*
X0009429Y0189453D02*
X0009429Y0187820D01*
X0009055Y0187446D01*
X0009134Y0187603D02*
X0009134Y0189414D01*
X0009272Y0189611D02*
X0009429Y0189453D01*
X0009291Y0189611D02*
X0008976Y0189611D01*
X0010098Y0187367D02*
X0009921Y0187190D01*
X0009921Y0164512D02*
X0010098Y0164335D01*
X0009429Y0163883D02*
X0009055Y0164257D01*
X0009134Y0163981D02*
X0009134Y0162170D01*
X0009035Y0162091D02*
X0009252Y0162091D01*
X0009429Y0162249D01*
X0009429Y0163883D01*
X0010197Y0161894D02*
X0009921Y0161619D01*
X0009921Y0159965D02*
X0010197Y0159690D01*
X0009429Y0159335D02*
X0009429Y0157701D01*
X0009055Y0157327D01*
X0009134Y0157485D02*
X0009134Y0159296D01*
X0009272Y0159493D02*
X0009429Y0159335D01*
X0009291Y0159493D02*
X0008976Y0159493D01*
X0010098Y0157249D02*
X0009921Y0157072D01*
X0009921Y0134591D02*
X0010098Y0134414D01*
X0009429Y0133961D02*
X0009055Y0134335D01*
X0009134Y0134060D02*
X0009134Y0132249D01*
X0009035Y0132170D02*
X0009252Y0132170D01*
X0009429Y0132327D01*
X0009429Y0133961D01*
X0010197Y0131973D02*
X0009921Y0131698D01*
X0009921Y0130044D02*
X0010197Y0129768D01*
X0009429Y0129414D02*
X0009429Y0127780D01*
X0009055Y0127406D01*
X0009134Y0127564D02*
X0009134Y0129375D01*
X0009272Y0129572D02*
X0009429Y0129414D01*
X0009291Y0129572D02*
X0008976Y0129572D01*
X0010098Y0127327D02*
X0009921Y0127150D01*
X0009921Y0104473D02*
X0010098Y0104296D01*
X0009429Y0103843D02*
X0009055Y0104217D01*
X0009134Y0103942D02*
X0009134Y0102131D01*
X0009035Y0102052D02*
X0009252Y0102052D01*
X0009429Y0102209D01*
X0009429Y0103843D01*
X0010197Y0101855D02*
X0009921Y0101579D01*
X0009921Y0099926D02*
X0010197Y0099650D01*
X0009429Y0099296D02*
X0009429Y0097662D01*
X0009055Y0097288D01*
X0009134Y0097446D02*
X0009134Y0099257D01*
X0009272Y0099453D02*
X0009429Y0099296D01*
X0009291Y0099453D02*
X0008976Y0099453D01*
X0010098Y0097209D02*
X0009921Y0097032D01*
X0096555Y0021422D02*
X0096732Y0021599D01*
X0097185Y0020930D02*
X0096811Y0020556D01*
X0097087Y0020635D02*
X0098898Y0020635D01*
X0098976Y0020536D02*
X0098976Y0020753D01*
X0098819Y0020930D01*
X0097185Y0020930D01*
X0099173Y0021698D02*
X0099449Y0021422D01*
X0101102Y0021422D02*
X0101378Y0021698D01*
X0101732Y0020930D02*
X0103366Y0020930D01*
X0103740Y0020556D01*
X0103583Y0020635D02*
X0101772Y0020635D01*
X0101575Y0020772D02*
X0101732Y0020930D01*
X0101575Y0020792D02*
X0101575Y0020477D01*
X0103819Y0021599D02*
X0103996Y0021422D01*
X0131594Y0021422D02*
X0131772Y0021599D01*
X0132224Y0020930D02*
X0131850Y0020556D01*
X0132126Y0020635D02*
X0133937Y0020635D01*
X0134016Y0020536D02*
X0134016Y0020753D01*
X0133858Y0020930D01*
X0132224Y0020930D01*
X0134213Y0021698D02*
X0134488Y0021422D01*
X0136142Y0021422D02*
X0136417Y0021698D01*
X0136772Y0020930D02*
X0138406Y0020930D01*
X0138780Y0020556D01*
X0138622Y0020635D02*
X0136811Y0020635D01*
X0136614Y0020772D02*
X0136772Y0020930D01*
X0136614Y0020792D02*
X0136614Y0020477D01*
X0138858Y0021599D02*
X0139035Y0021422D01*
X0161909Y0021619D02*
X0162087Y0021796D01*
X0162539Y0021127D02*
X0162165Y0020753D01*
X0162441Y0020831D02*
X0164252Y0020831D01*
X0164331Y0020733D02*
X0164331Y0020949D01*
X0164173Y0021127D01*
X0162539Y0021127D01*
X0164528Y0021894D02*
X0164803Y0021619D01*
X0166457Y0021619D02*
X0166732Y0021894D01*
X0167087Y0021127D02*
X0168720Y0021127D01*
X0169094Y0020753D01*
X0168937Y0020831D02*
X0167126Y0020831D01*
X0166929Y0020969D02*
X0167087Y0021127D01*
X0166929Y0020989D02*
X0166929Y0020674D01*
X0169173Y0021796D02*
X0169350Y0021619D01*
X0191634Y0021422D02*
X0191811Y0021599D01*
X0192264Y0020930D02*
X0191890Y0020556D01*
X0192165Y0020635D02*
X0193976Y0020635D01*
X0194055Y0020536D02*
X0194055Y0020753D01*
X0193898Y0020930D01*
X0192264Y0020930D01*
X0194252Y0021698D02*
X0194528Y0021422D01*
X0196181Y0021422D02*
X0196457Y0021698D01*
X0196811Y0020930D02*
X0198445Y0020930D01*
X0198819Y0020556D01*
X0198661Y0020635D02*
X0196850Y0020635D01*
X0196654Y0020772D02*
X0196811Y0020930D01*
X0196654Y0020792D02*
X0196654Y0020477D01*
X0198898Y0021599D02*
X0199075Y0021422D01*
X0221555Y0021422D02*
X0221732Y0021599D01*
X0222185Y0020930D02*
X0221811Y0020556D01*
X0222087Y0020635D02*
X0223898Y0020635D01*
X0223976Y0020536D02*
X0223976Y0020753D01*
X0223819Y0020930D01*
X0222185Y0020930D01*
X0224173Y0021698D02*
X0224449Y0021422D01*
X0226102Y0021422D02*
X0226378Y0021698D01*
X0226732Y0020930D02*
X0228366Y0020930D01*
X0228740Y0020556D01*
X0228583Y0020635D02*
X0226772Y0020635D01*
X0226575Y0020772D02*
X0226732Y0020930D01*
X0226575Y0020792D02*
X0226575Y0020477D01*
X0228819Y0021599D02*
X0228996Y0021422D01*
X0251476Y0021422D02*
X0251654Y0021599D01*
X0252106Y0020930D02*
X0251732Y0020556D01*
X0252008Y0020635D02*
X0253819Y0020635D01*
X0253898Y0020536D02*
X0253898Y0020753D01*
X0253740Y0020930D01*
X0252106Y0020930D01*
X0254094Y0021698D02*
X0254370Y0021422D01*
X0256024Y0021422D02*
X0256299Y0021698D01*
X0256654Y0020930D02*
X0258287Y0020930D01*
X0258661Y0020556D01*
X0258504Y0020635D02*
X0256693Y0020635D01*
X0256496Y0020772D02*
X0256654Y0020930D01*
X0256496Y0020792D02*
X0256496Y0020477D01*
X0258740Y0021599D02*
X0258917Y0021422D01*
X0360531Y0021422D02*
X0360709Y0021599D01*
X0361161Y0020930D02*
X0360787Y0020556D01*
X0361063Y0020635D02*
X0362874Y0020635D01*
X0362953Y0020536D02*
X0362953Y0020753D01*
X0362795Y0020930D01*
X0361161Y0020930D01*
X0363150Y0021698D02*
X0363425Y0021422D01*
X0365079Y0021422D02*
X0365354Y0021698D01*
X0365709Y0020930D02*
X0367343Y0020930D01*
X0367717Y0020556D01*
X0367559Y0020635D02*
X0365748Y0020635D01*
X0365551Y0020772D02*
X0365709Y0020930D01*
X0365551Y0020792D02*
X0365551Y0020477D01*
X0367795Y0021599D02*
X0367972Y0021422D01*
X0400492Y0021422D02*
X0400669Y0021599D01*
X0401122Y0020930D02*
X0400748Y0020556D01*
X0401024Y0020635D02*
X0402835Y0020635D01*
X0402913Y0020536D02*
X0402913Y0020753D01*
X0402756Y0020930D01*
X0401122Y0020930D01*
X0403110Y0021698D02*
X0403386Y0021422D01*
X0405039Y0021422D02*
X0405315Y0021698D01*
X0405669Y0020930D02*
X0407303Y0020930D01*
X0407677Y0020556D01*
X0407520Y0020635D02*
X0405709Y0020635D01*
X0405512Y0020772D02*
X0405669Y0020930D01*
X0405512Y0020792D02*
X0405512Y0020477D01*
X0407756Y0021599D02*
X0407933Y0021422D01*
X0435335Y0021422D02*
X0435512Y0021599D01*
X0435965Y0020930D02*
X0435591Y0020556D01*
X0435866Y0020635D02*
X0437677Y0020635D01*
X0437756Y0020536D02*
X0437756Y0020753D01*
X0437598Y0020930D01*
X0435965Y0020930D01*
X0437953Y0021698D02*
X0438228Y0021422D01*
X0439882Y0021422D02*
X0440157Y0021698D01*
X0440512Y0020930D02*
X0442146Y0020930D01*
X0442520Y0020556D01*
X0442362Y0020635D02*
X0440551Y0020635D01*
X0440354Y0020772D02*
X0440512Y0020930D01*
X0440354Y0020792D02*
X0440354Y0020477D01*
X0442598Y0021599D02*
X0442776Y0021422D01*
X0470374Y0021422D02*
X0470551Y0021599D01*
X0471004Y0020930D02*
X0470630Y0020556D01*
X0470906Y0020635D02*
X0472717Y0020635D01*
X0472795Y0020536D02*
X0472795Y0020753D01*
X0472638Y0020930D01*
X0471004Y0020930D01*
X0472992Y0021698D02*
X0473268Y0021422D01*
X0474921Y0021422D02*
X0475197Y0021698D01*
X0475551Y0020930D02*
X0477185Y0020930D01*
X0477559Y0020556D01*
X0477402Y0020635D02*
X0475591Y0020635D01*
X0475394Y0020772D02*
X0475551Y0020930D01*
X0475394Y0020792D02*
X0475394Y0020477D01*
X0477638Y0021599D02*
X0477815Y0021422D01*
X0505413Y0021422D02*
X0505591Y0021599D01*
X0506043Y0020930D02*
X0505669Y0020556D01*
X0505945Y0020635D02*
X0507756Y0020635D01*
X0507835Y0020536D02*
X0507835Y0020753D01*
X0507677Y0020930D01*
X0506043Y0020930D01*
X0508031Y0021698D02*
X0508307Y0021422D01*
X0509961Y0021422D02*
X0510236Y0021698D01*
X0510591Y0020930D02*
X0512224Y0020930D01*
X0512598Y0020556D01*
X0512441Y0020635D02*
X0510630Y0020635D01*
X0510433Y0020772D02*
X0510591Y0020930D01*
X0510433Y0020792D02*
X0510433Y0020477D01*
X0512677Y0021599D02*
X0512854Y0021422D01*
D35*
X0029803Y0019257D03*
X0010118Y0020831D03*
X0008150Y0058430D03*
X0007756Y0079099D03*
X0007953Y0095635D03*
X0007953Y0105871D03*
X0008150Y0115516D03*
X0007953Y0125753D03*
X0007953Y0135989D03*
X0007559Y0145831D03*
X0007953Y0155674D03*
X0007953Y0165910D03*
X0007559Y0176737D03*
X0007953Y0185792D03*
X0007953Y0196028D03*
X0007953Y0215713D03*
X0007953Y0225949D03*
X0007953Y0237367D03*
X0007953Y0250359D03*
X0007953Y0260595D03*
X0047126Y0255083D03*
X0064449Y0259414D03*
X0065039Y0265516D03*
X0065236Y0271619D03*
X0060118Y0272406D03*
X0062087Y0276343D03*
X0056181Y0276343D03*
X0054213Y0272406D03*
X0050276Y0276343D03*
X0048307Y0272406D03*
X0081181Y0265713D03*
X0087480Y0271225D03*
X0098307Y0269453D03*
X0103622Y0255083D03*
X0088071Y0247800D03*
X0108150Y0231264D03*
X0106772Y0227327D03*
X0106378Y0222800D03*
X0112283Y0227524D03*
X0114646Y0231658D03*
X0128425Y0227721D03*
X0129409Y0232052D03*
X0136299Y0233627D03*
X0137677Y0229887D03*
X0147913Y0227131D03*
X0146339Y0223981D03*
X0140827Y0221422D03*
X0141811Y0212761D03*
X0147520Y0215516D03*
X0147520Y0206658D03*
X0155394Y0205477D03*
X0160118Y0199572D03*
X0157362Y0196816D03*
X0154409Y0193469D03*
X0147913Y0190123D03*
X0145157Y0193075D03*
X0149882Y0185792D03*
X0150669Y0181855D03*
X0149094Y0179493D03*
X0153031Y0177524D03*
X0145157Y0174178D03*
X0142598Y0172406D03*
X0140827Y0170241D03*
X0137677Y0173587D03*
X0135709Y0172012D03*
X0142008Y0175556D03*
X0144173Y0166698D03*
X0143780Y0163745D03*
X0150472Y0161383D03*
X0150866Y0166501D03*
X0159331Y0165320D03*
X0169370Y0163745D03*
X0177441Y0163745D03*
X0184331Y0160989D03*
X0188661Y0157052D03*
X0192598Y0157052D03*
X0198898Y0160989D03*
X0204016Y0157052D03*
X0210118Y0161383D03*
X0207165Y0166501D03*
X0209134Y0168666D03*
X0212874Y0166894D03*
X0216220Y0171816D03*
X0220157Y0171619D03*
X0219567Y0175359D03*
X0212283Y0172603D03*
X0209331Y0175949D03*
X0198701Y0172997D03*
X0190039Y0172406D03*
X0188661Y0168666D03*
X0184331Y0174375D03*
X0182165Y0176146D03*
X0178425Y0172209D03*
X0180394Y0170438D03*
X0175276Y0179887D03*
X0177441Y0187367D03*
X0167992Y0187367D03*
X0159724Y0186383D03*
X0139252Y0186186D03*
X0136102Y0184217D03*
X0135512Y0187367D03*
X0133150Y0181855D03*
X0126260Y0186579D03*
X0124291Y0183036D03*
X0118189Y0175162D03*
X0112283Y0171028D03*
X0112677Y0168272D03*
X0107756Y0160989D03*
X0120157Y0162957D03*
X0121535Y0158627D03*
X0128031Y0157642D03*
X0129606Y0152524D03*
X0134134Y0145044D03*
X0135807Y0142780D03*
X0136496Y0147603D03*
X0140236Y0145241D03*
X0141614Y0142682D03*
X0145551Y0142288D03*
X0147126Y0140123D03*
X0143583Y0136973D03*
X0160906Y0128705D03*
X0162480Y0130674D03*
X0164449Y0127327D03*
X0164449Y0124572D03*
X0169567Y0120438D03*
X0169764Y0116894D03*
X0174291Y0114926D03*
X0180197Y0121225D03*
X0180197Y0124572D03*
X0183346Y0136383D03*
X0185118Y0139729D03*
X0188661Y0142879D03*
X0190827Y0148784D03*
X0192598Y0151146D03*
X0195157Y0151343D03*
X0198504Y0149572D03*
X0211693Y0147997D03*
X0220157Y0150162D03*
X0221732Y0152721D03*
X0224488Y0160792D03*
X0233740Y0166304D03*
X0231575Y0169453D03*
X0237677Y0165516D03*
X0241417Y0164926D03*
X0239055Y0161973D03*
X0252244Y0158430D03*
X0250866Y0154296D03*
X0255000Y0154493D03*
X0264449Y0150359D03*
X0262087Y0148390D03*
X0257559Y0144257D03*
X0259724Y0134414D03*
X0255984Y0129887D03*
X0263661Y0123981D03*
X0263661Y0117485D03*
X0276063Y0113942D03*
X0285906Y0113745D03*
X0295945Y0113745D03*
X0303228Y0110005D03*
X0303228Y0100556D03*
X0306181Y0093863D03*
X0299094Y0085792D03*
X0300276Y0079690D03*
X0291811Y0074768D03*
X0288465Y0074768D03*
X0287480Y0079296D03*
X0280984Y0076934D03*
X0295354Y0068469D03*
X0316417Y0079493D03*
X0321535Y0079099D03*
X0331575Y0072603D03*
X0349882Y0082446D03*
X0336102Y0092091D03*
X0332362Y0099178D03*
X0326260Y0100359D03*
X0318780Y0100359D03*
X0318780Y0092879D03*
X0351850Y0109217D03*
X0351850Y0112761D03*
X0351850Y0117682D03*
X0351850Y0121028D03*
X0354213Y0125359D03*
X0354213Y0128902D03*
X0348307Y0126737D03*
X0332362Y0126540D03*
X0313071Y0126146D03*
X0313858Y0143666D03*
X0332559Y0144060D03*
X0347323Y0156461D03*
X0353622Y0157839D03*
X0353622Y0154887D03*
X0355984Y0152131D03*
X0355984Y0148981D03*
X0368780Y0142485D03*
X0370354Y0144060D03*
X0370551Y0151146D03*
X0370354Y0156264D03*
X0370354Y0159020D03*
X0365827Y0162957D03*
X0375079Y0167288D03*
X0379016Y0167288D03*
X0379016Y0170438D03*
X0381969Y0169453D03*
X0387677Y0164138D03*
X0381181Y0161579D03*
X0392992Y0151146D03*
X0387677Y0142879D03*
X0379409Y0134217D03*
X0379409Y0131658D03*
X0376654Y0127524D03*
X0374291Y0126146D03*
X0379213Y0126343D03*
X0385118Y0120831D03*
X0382953Y0115516D03*
X0402047Y0122012D03*
X0408543Y0123194D03*
X0410709Y0121225D03*
X0410709Y0117682D03*
X0404409Y0112367D03*
X0404213Y0103509D03*
X0410512Y0096619D03*
X0419764Y0092288D03*
X0416024Y0082249D03*
X0427047Y0082642D03*
X0435512Y0090123D03*
X0438465Y0087957D03*
X0442402Y0083627D03*
X0451457Y0085792D03*
X0455591Y0083627D03*
X0461299Y0085398D03*
X0465827Y0087957D03*
X0474685Y0090123D03*
X0477244Y0092288D03*
X0478819Y0094650D03*
X0481772Y0099375D03*
X0485709Y0099572D03*
X0501063Y0104099D03*
X0508937Y0107642D03*
X0525472Y0099178D03*
X0532756Y0099572D03*
X0537677Y0096816D03*
X0535709Y0108233D03*
X0525472Y0121225D03*
X0532756Y0127524D03*
X0509134Y0117682D03*
X0507165Y0122800D03*
X0499488Y0117682D03*
X0497520Y0117682D03*
X0498307Y0127524D03*
X0501457Y0135989D03*
X0509921Y0139729D03*
X0509134Y0151737D03*
X0502835Y0149768D03*
X0497520Y0151737D03*
X0497520Y0161776D03*
X0499488Y0161776D03*
X0508937Y0161579D03*
X0506378Y0172997D03*
X0501063Y0180083D03*
X0508150Y0182052D03*
X0514055Y0179690D03*
X0497520Y0187761D03*
X0488465Y0180674D03*
X0483740Y0184808D03*
X0478031Y0184414D03*
X0470551Y0180477D03*
X0466024Y0180280D03*
X0461693Y0166501D03*
X0461693Y0161383D03*
X0465630Y0156658D03*
X0474291Y0156264D03*
X0470551Y0152327D03*
X0461299Y0147603D03*
X0462677Y0138942D03*
X0471142Y0136579D03*
X0471142Y0129887D03*
X0471142Y0127131D03*
X0462677Y0125162D03*
X0463071Y0121225D03*
X0461496Y0117682D03*
X0465630Y0115910D03*
X0472520Y0113154D03*
X0461496Y0106855D03*
X0469370Y0103509D03*
X0467795Y0096619D03*
X0448701Y0098784D03*
X0445354Y0098784D03*
X0442795Y0096619D03*
X0437677Y0096619D03*
X0430984Y0094060D03*
X0431378Y0107642D03*
X0442008Y0107642D03*
X0442008Y0117485D03*
X0432559Y0117682D03*
X0430591Y0117682D03*
X0439055Y0127721D03*
X0434528Y0135792D03*
X0431181Y0139138D03*
X0430197Y0142879D03*
X0439646Y0144847D03*
X0442402Y0151737D03*
X0431378Y0152327D03*
X0430787Y0161776D03*
X0432756Y0161776D03*
X0442205Y0161579D03*
X0439843Y0176737D03*
X0441614Y0182052D03*
X0447126Y0179887D03*
X0434528Y0180083D03*
X0422323Y0181264D03*
X0411496Y0174965D03*
X0411102Y0166698D03*
X0407362Y0167288D03*
X0411102Y0161579D03*
X0403622Y0160792D03*
X0397323Y0161579D03*
X0398701Y0173981D03*
X0404016Y0180674D03*
X0407362Y0184414D03*
X0369961Y0196028D03*
X0357953Y0196225D03*
X0346142Y0184808D03*
X0349488Y0184414D03*
X0343386Y0182839D03*
X0340039Y0184808D03*
X0339646Y0192288D03*
X0341811Y0192288D03*
X0337480Y0192288D03*
X0323701Y0188942D03*
X0320157Y0188942D03*
X0316417Y0188942D03*
X0307953Y0186383D03*
X0302638Y0187367D03*
X0300669Y0190123D03*
X0298701Y0187367D03*
X0295945Y0192288D03*
X0293583Y0192288D03*
X0287677Y0188548D03*
X0281772Y0194453D03*
X0280984Y0201540D03*
X0284331Y0206068D03*
X0287480Y0206068D03*
X0290630Y0206068D03*
X0293386Y0202918D03*
X0296535Y0202918D03*
X0282559Y0208824D03*
X0275079Y0216304D03*
X0275079Y0222406D03*
X0275079Y0227131D03*
X0271535Y0227131D03*
X0268189Y0227131D03*
X0257165Y0224375D03*
X0257165Y0221816D03*
X0254016Y0221028D03*
X0247323Y0217682D03*
X0245157Y0212957D03*
X0247913Y0210989D03*
X0247717Y0205674D03*
X0249488Y0197800D03*
X0255000Y0197406D03*
X0251654Y0189729D03*
X0249685Y0186776D03*
X0248307Y0183824D03*
X0250669Y0182249D03*
X0257362Y0182052D03*
X0257756Y0179099D03*
X0255394Y0177131D03*
X0260709Y0180083D03*
X0259134Y0187170D03*
X0260512Y0189532D03*
X0245945Y0189138D03*
X0238661Y0189926D03*
X0230984Y0183627D03*
X0227638Y0185989D03*
X0224488Y0185989D03*
X0219567Y0188548D03*
X0212283Y0187367D03*
X0199685Y0186973D03*
X0196929Y0186383D03*
X0194370Y0188745D03*
X0187677Y0186383D03*
X0186496Y0184020D03*
X0186299Y0188745D03*
X0184331Y0198390D03*
X0177441Y0202524D03*
X0184134Y0208233D03*
X0184134Y0214729D03*
X0188858Y0219257D03*
X0190630Y0221816D03*
X0197520Y0232249D03*
X0202244Y0234217D03*
X0204606Y0231855D03*
X0202835Y0229690D03*
X0196339Y0238154D03*
X0186299Y0244257D03*
X0187480Y0248194D03*
X0184921Y0251343D03*
X0179803Y0250949D03*
X0180197Y0254099D03*
X0176260Y0256264D03*
X0181772Y0260595D03*
X0191220Y0261383D03*
X0192795Y0262957D03*
X0191614Y0265910D03*
X0199488Y0259611D03*
X0194764Y0254493D03*
X0206575Y0252721D03*
X0213071Y0256461D03*
X0217598Y0251934D03*
X0212480Y0245044D03*
X0215827Y0237564D03*
X0221732Y0238154D03*
X0233543Y0231855D03*
X0230984Y0223981D03*
X0233740Y0223194D03*
X0239646Y0224768D03*
X0244173Y0232249D03*
X0262480Y0238351D03*
X0268780Y0243666D03*
X0276063Y0245635D03*
X0282756Y0238745D03*
X0286693Y0233036D03*
X0298701Y0229690D03*
X0309528Y0228509D03*
X0311890Y0228509D03*
X0317205Y0231855D03*
X0325276Y0231855D03*
X0330000Y0227918D03*
X0329803Y0239532D03*
X0335906Y0239532D03*
X0341220Y0242091D03*
X0359331Y0221816D03*
X0355394Y0209611D03*
X0330591Y0201540D03*
X0326063Y0204887D03*
X0322913Y0204887D03*
X0319764Y0204887D03*
X0317795Y0201737D03*
X0315039Y0201737D03*
X0298898Y0170241D03*
X0294567Y0165910D03*
X0313465Y0157642D03*
X0332559Y0157839D03*
X0340039Y0165123D03*
X0344961Y0165123D03*
X0344764Y0160792D03*
X0349488Y0160792D03*
X0351850Y0163548D03*
X0358543Y0163351D03*
X0403622Y0139926D03*
X0411299Y0131855D03*
X0418780Y0140123D03*
X0441811Y0137957D03*
X0447126Y0135398D03*
X0450472Y0141107D03*
X0478228Y0144060D03*
X0488858Y0136579D03*
X0478228Y0132052D03*
X0478425Y0161776D03*
X0478425Y0166698D03*
X0473898Y0166894D03*
X0509331Y0189335D03*
X0528031Y0193272D03*
X0532559Y0191304D03*
X0528228Y0185398D03*
X0529016Y0166304D03*
X0529213Y0161776D03*
X0537677Y0152327D03*
X0532559Y0143863D03*
X0535118Y0142682D03*
X0529409Y0141698D03*
X0592795Y0151540D03*
X0592795Y0112170D03*
X0592795Y0072800D03*
X0535315Y0081264D03*
X0532559Y0075556D03*
X0525079Y0075949D03*
X0520945Y0073784D03*
X0515827Y0078312D03*
X0511299Y0078705D03*
X0497126Y0085398D03*
X0512874Y0094453D03*
X0471535Y0080280D03*
X0479016Y0066698D03*
X0482165Y0066698D03*
X0482756Y0063745D03*
X0488071Y0062957D03*
X0493386Y0062170D03*
X0493386Y0058824D03*
X0496929Y0058036D03*
X0458544Y0065711D03*
X0412874Y0066894D03*
X0394173Y0072012D03*
X0406575Y0085792D03*
X0383937Y0089729D03*
X0381181Y0089729D03*
X0378425Y0089729D03*
X0375669Y0089729D03*
X0359921Y0093075D03*
X0356181Y0105477D03*
X0279803Y0128115D03*
X0253819Y0104493D03*
X0259528Y0101934D03*
X0270945Y0100162D03*
X0270945Y0092288D03*
X0262480Y0080083D03*
X0259331Y0075556D03*
X0261299Y0072997D03*
X0253622Y0066894D03*
X0250669Y0065713D03*
X0245354Y0075359D03*
X0241220Y0075753D03*
X0230000Y0068863D03*
X0228622Y0070831D03*
X0227244Y0066894D03*
X0226260Y0064532D03*
X0223898Y0063351D03*
X0215433Y0062170D03*
X0207756Y0073587D03*
X0209724Y0075753D03*
X0204409Y0073194D03*
X0199882Y0075556D03*
X0195748Y0071225D03*
X0189252Y0066894D03*
X0191417Y0064138D03*
X0193976Y0060989D03*
X0197913Y0064138D03*
X0182953Y0056855D03*
X0175472Y0063154D03*
X0178819Y0065910D03*
X0179606Y0072800D03*
X0180394Y0075556D03*
X0169567Y0074768D03*
X0166024Y0068863D03*
X0160512Y0070831D03*
X0158150Y0062564D03*
X0155000Y0061383D03*
X0162677Y0059020D03*
X0170157Y0058036D03*
X0130197Y0059020D03*
X0125276Y0060201D03*
X0119764Y0058233D03*
X0115433Y0055674D03*
X0103819Y0071028D03*
X0099291Y0079887D03*
X0096142Y0077721D03*
X0110906Y0082839D03*
X0117795Y0090516D03*
X0120354Y0091304D03*
X0124488Y0080871D03*
X0127441Y0082052D03*
X0134331Y0083824D03*
X0141220Y0084414D03*
X0146929Y0085595D03*
X0150669Y0087761D03*
X0139252Y0095831D03*
X0152441Y0097406D03*
X0159724Y0105280D03*
X0165630Y0108233D03*
X0168189Y0104099D03*
X0171535Y0106264D03*
X0162874Y0100162D03*
X0169961Y0086776D03*
X0182165Y0093469D03*
X0183543Y0091304D03*
X0185315Y0089138D03*
X0181378Y0098784D03*
X0189449Y0112170D03*
X0192205Y0110201D03*
X0194764Y0110201D03*
X0197520Y0109611D03*
X0209134Y0102327D03*
X0213465Y0105674D03*
X0215433Y0111776D03*
X0221929Y0105871D03*
X0226457Y0111579D03*
X0229606Y0107052D03*
X0236693Y0111579D03*
X0247126Y0104887D03*
X0232559Y0120044D03*
X0224488Y0119453D03*
X0224094Y0124375D03*
X0219961Y0126540D03*
X0209528Y0123390D03*
X0209921Y0130871D03*
X0208543Y0135398D03*
X0209724Y0138548D03*
X0199783Y0137268D03*
X0199587Y0134709D03*
X0195945Y0134020D03*
X0185118Y0149178D03*
X0174291Y0154296D03*
X0169370Y0153902D03*
X0163268Y0155083D03*
X0157165Y0155083D03*
X0155394Y0152721D03*
X0171142Y0146816D03*
X0163858Y0143863D03*
X0169370Y0139926D03*
X0153622Y0125753D03*
X0148898Y0121225D03*
X0144961Y0122012D03*
X0136890Y0122012D03*
X0148898Y0116107D03*
X0132559Y0110201D03*
X0127835Y0109020D03*
X0122323Y0101737D03*
X0119764Y0101737D03*
X0108346Y0095831D03*
X0105000Y0099965D03*
X0099291Y0104493D03*
X0099291Y0109414D03*
X0094764Y0117288D03*
X0088071Y0121028D03*
X0079016Y0119453D03*
X0063465Y0127327D03*
X0065433Y0130280D03*
X0073701Y0135398D03*
X0072126Y0137367D03*
X0074488Y0128509D03*
X0061299Y0120831D03*
X0059331Y0117288D03*
X0052047Y0114926D03*
X0055000Y0110792D03*
X0057362Y0104690D03*
X0049291Y0100753D03*
X0061299Y0094847D03*
X0063465Y0091894D03*
X0065433Y0090123D03*
X0059331Y0088942D03*
X0084921Y0092485D03*
X0089449Y0091698D03*
X0091417Y0093863D03*
X0088465Y0095635D03*
X0093583Y0090516D03*
X0128228Y0071816D03*
X0081378Y0065713D03*
X0078031Y0063745D03*
X0080197Y0061776D03*
X0077638Y0059808D03*
X0079803Y0057839D03*
X0069567Y0058430D03*
X0118189Y0022603D03*
X0130197Y0019453D03*
X0140433Y0019453D03*
X0150276Y0022800D03*
X0160512Y0019650D03*
X0170748Y0019650D03*
X0180591Y0022800D03*
X0190236Y0019453D03*
X0200472Y0019453D03*
X0210709Y0022603D03*
X0220157Y0019650D03*
X0230394Y0019453D03*
X0240236Y0022603D03*
X0250079Y0019453D03*
X0260315Y0019453D03*
X0277835Y0019257D03*
X0323110Y0019257D03*
X0359134Y0019453D03*
X0369370Y0019453D03*
X0384921Y0019650D03*
X0399094Y0019453D03*
X0409331Y0019453D03*
X0422126Y0020044D03*
X0433937Y0019453D03*
X0444173Y0019453D03*
X0456378Y0020044D03*
X0468976Y0019453D03*
X0479213Y0019453D03*
X0492795Y0019847D03*
X0504016Y0019453D03*
X0514252Y0019453D03*
X0533543Y0020044D03*
X0553425Y0019257D03*
X0589843Y0021816D03*
X0592795Y0033430D03*
X0592795Y0190910D03*
X0548504Y0215123D03*
X0532559Y0209414D03*
X0506575Y0219847D03*
X0493189Y0209414D03*
X0490236Y0203115D03*
X0485315Y0203509D03*
X0478031Y0200753D03*
X0474882Y0201934D03*
X0473504Y0209414D03*
X0461299Y0227131D03*
X0453622Y0231658D03*
X0453622Y0235595D03*
X0443386Y0252131D03*
X0406575Y0256658D03*
X0404409Y0258824D03*
X0402638Y0255280D03*
X0386102Y0255083D03*
X0386102Y0257642D03*
X0386102Y0260792D03*
X0387677Y0265320D03*
X0410906Y0290910D03*
X0414449Y0291107D03*
X0416811Y0293075D03*
X0432165Y0301934D03*
X0406575Y0311579D03*
X0390630Y0315516D03*
X0385709Y0311186D03*
X0370945Y0311383D03*
X0367598Y0311383D03*
X0360315Y0311383D03*
X0355787Y0311383D03*
X0345551Y0302524D03*
X0343386Y0305280D03*
X0349094Y0297603D03*
X0352244Y0290713D03*
X0350866Y0283627D03*
X0328819Y0280280D03*
X0327835Y0299965D03*
X0331772Y0299965D03*
X0331772Y0303902D03*
X0331772Y0307839D03*
X0327835Y0307839D03*
X0327835Y0303902D03*
X0323898Y0303902D03*
X0323898Y0299965D03*
X0323898Y0307839D03*
X0323504Y0315320D03*
X0328228Y0315320D03*
X0332953Y0315516D03*
X0338268Y0315516D03*
X0338465Y0326934D03*
X0342402Y0326737D03*
X0347323Y0326737D03*
X0355000Y0323981D03*
X0366417Y0323981D03*
X0371142Y0325162D03*
X0367795Y0333036D03*
X0355591Y0344847D03*
X0366024Y0351146D03*
X0366024Y0355477D03*
X0338071Y0349768D03*
X0327835Y0350753D03*
X0327835Y0356658D03*
X0328622Y0367091D03*
X0333937Y0379887D03*
X0362874Y0377918D03*
X0362087Y0387761D03*
X0401457Y0387761D03*
X0440827Y0387761D03*
X0457953Y0368666D03*
X0477441Y0349375D03*
X0454016Y0332446D03*
X0454409Y0322406D03*
X0461693Y0310398D03*
X0463465Y0302131D03*
X0477441Y0310005D03*
X0493189Y0310398D03*
X0508937Y0310005D03*
X0503622Y0297603D03*
X0485315Y0291894D03*
X0497126Y0280280D03*
X0531378Y0280280D03*
X0541811Y0280871D03*
X0552441Y0286973D03*
X0552441Y0261776D03*
X0541220Y0260792D03*
X0536496Y0244453D03*
X0574685Y0237957D03*
X0577638Y0240123D03*
X0577638Y0242682D03*
X0577638Y0245438D03*
X0577638Y0248194D03*
X0577638Y0250949D03*
X0592795Y0269650D03*
X0592795Y0309020D03*
X0575866Y0316304D03*
X0547323Y0333430D03*
X0543976Y0349965D03*
X0532756Y0360398D03*
X0520748Y0348587D03*
X0519173Y0322209D03*
X0458346Y0284611D03*
X0430197Y0280280D03*
X0376260Y0293666D03*
X0327638Y0325162D03*
X0326654Y0327524D03*
X0317402Y0325556D03*
X0306378Y0326934D03*
X0302638Y0324178D03*
X0302638Y0320241D03*
X0306575Y0313942D03*
X0312480Y0315320D03*
X0309134Y0307839D03*
X0307362Y0305083D03*
X0311299Y0302721D03*
X0312874Y0305280D03*
X0303819Y0308233D03*
X0299291Y0309611D03*
X0299882Y0305280D03*
X0296732Y0304887D03*
X0292992Y0304887D03*
X0289449Y0304887D03*
X0286102Y0304887D03*
X0282756Y0304887D03*
X0303622Y0290713D03*
X0295945Y0271816D03*
X0283543Y0265713D03*
X0287087Y0261186D03*
X0286693Y0257642D03*
X0286890Y0255083D03*
X0302244Y0242879D03*
X0305591Y0237564D03*
X0253228Y0245635D03*
X0250669Y0247997D03*
X0252835Y0249965D03*
X0248307Y0249768D03*
X0246339Y0247603D03*
X0238661Y0260005D03*
X0229213Y0253312D03*
X0226457Y0252327D03*
X0213465Y0267879D03*
X0211102Y0267879D03*
X0216024Y0279296D03*
X0225276Y0284020D03*
X0227244Y0286186D03*
X0241220Y0272997D03*
X0249094Y0270044D03*
X0255394Y0275753D03*
X0201063Y0282249D03*
X0193189Y0279690D03*
X0191024Y0276934D03*
X0188268Y0277131D03*
X0184331Y0279296D03*
X0190236Y0283824D03*
X0181378Y0288942D03*
X0190236Y0294060D03*
X0188268Y0300359D03*
X0184134Y0303115D03*
X0160906Y0313351D03*
X0157756Y0310201D03*
X0142795Y0311776D03*
X0136693Y0316107D03*
X0140433Y0319453D03*
X0142008Y0322603D03*
X0140827Y0325753D03*
X0136693Y0325753D03*
X0143189Y0332249D03*
X0146732Y0328705D03*
X0152835Y0332249D03*
X0150669Y0335005D03*
X0150669Y0339729D03*
X0160315Y0337957D03*
X0163661Y0341304D03*
X0160315Y0344650D03*
X0167205Y0344650D03*
X0167205Y0337957D03*
X0176654Y0336186D03*
X0179213Y0340713D03*
X0176260Y0342091D03*
X0184134Y0349965D03*
X0181575Y0353312D03*
X0172520Y0354099D03*
X0164449Y0353902D03*
X0164449Y0356068D03*
X0162874Y0357446D03*
X0160709Y0354493D03*
X0157362Y0354493D03*
X0150472Y0349768D03*
X0149291Y0345241D03*
X0132953Y0356264D03*
X0125669Y0355674D03*
X0122126Y0350753D03*
X0118583Y0350753D03*
X0113661Y0350753D03*
X0109724Y0350556D03*
X0105984Y0355477D03*
X0094173Y0356461D03*
X0090236Y0356461D03*
X0084134Y0364532D03*
X0105197Y0379296D03*
X0114843Y0378705D03*
X0125866Y0387761D03*
X0133346Y0387564D03*
X0133543Y0379690D03*
X0129803Y0372800D03*
X0138858Y0369060D03*
X0140827Y0363548D03*
X0151850Y0365320D03*
X0156575Y0365320D03*
X0160118Y0365320D03*
X0163268Y0365516D03*
X0149488Y0372012D03*
X0144173Y0374178D03*
X0184134Y0371225D03*
X0189449Y0372997D03*
X0192992Y0369847D03*
X0195748Y0373784D03*
X0200079Y0373784D03*
X0204213Y0368863D03*
X0193780Y0351343D03*
X0188268Y0346028D03*
X0202244Y0334611D03*
X0206181Y0327131D03*
X0211693Y0323587D03*
X0211693Y0317682D03*
X0214055Y0313351D03*
X0172717Y0325949D03*
X0156575Y0326343D03*
X0130591Y0318666D03*
X0127047Y0318666D03*
X0121732Y0317091D03*
X0125669Y0310792D03*
X0117992Y0303115D03*
X0122323Y0300359D03*
X0114843Y0292091D03*
X0112283Y0289532D03*
X0095157Y0296028D03*
X0081378Y0302721D03*
X0091614Y0306068D03*
X0103622Y0306855D03*
X0108740Y0317879D03*
X0110512Y0325359D03*
X0112283Y0328115D03*
X0108346Y0328115D03*
X0104606Y0335792D03*
X0107165Y0340320D03*
X0090630Y0341894D03*
X0086299Y0341894D03*
X0077835Y0340910D03*
X0073110Y0341304D03*
X0067992Y0340910D03*
X0053228Y0347800D03*
X0052244Y0357446D03*
X0085709Y0336579D03*
X0081772Y0332642D03*
X0053622Y0315123D03*
X0066024Y0302721D03*
X0070551Y0302721D03*
X0074291Y0306264D03*
X0059528Y0300556D03*
X0007559Y0294847D03*
X0007559Y0334217D03*
X0007559Y0373587D03*
X0010906Y0385398D03*
X0047126Y0387761D03*
X0086496Y0387761D03*
X0190630Y0387957D03*
X0204606Y0387761D03*
X0243976Y0387761D03*
X0268780Y0374768D03*
X0283346Y0387761D03*
X0296535Y0363942D03*
X0281969Y0359217D03*
X0278819Y0359217D03*
X0327835Y0344453D03*
X0438465Y0349178D03*
X0480197Y0387761D03*
X0519567Y0387761D03*
X0558937Y0387761D03*
X0590433Y0385201D03*
X0592795Y0348390D03*
X0493780Y0241501D03*
X0478228Y0235792D03*
X0500276Y0229493D03*
X0449882Y0209414D03*
X0418386Y0209414D03*
X0418976Y0223784D03*
X0390827Y0209414D03*
X0375472Y0229493D03*
X0260906Y0167288D03*
X0258543Y0165320D03*
X0259331Y0161776D03*
X0266417Y0153115D03*
X0278622Y0152327D03*
X0242795Y0147603D03*
X0233740Y0141698D03*
X0232165Y0143863D03*
X0221339Y0136579D03*
X0233937Y0130280D03*
X0232559Y0124768D03*
X0242992Y0124768D03*
X0241220Y0133430D03*
X0215236Y0093075D03*
X0212283Y0093666D03*
X0206181Y0087957D03*
X0202835Y0087957D03*
X0200276Y0089926D03*
X0201260Y0092288D03*
X0231969Y0086973D03*
X0233937Y0088942D03*
X0236496Y0086973D03*
X0239055Y0086383D03*
X0237874Y0082446D03*
X0241811Y0081658D03*
X0247717Y0090910D03*
X0316811Y0049965D03*
X0138465Y0152524D03*
X0125669Y0164729D03*
X0127244Y0166501D03*
X0124291Y0166698D03*
X0109724Y0175556D03*
X0107756Y0177918D03*
X0109331Y0184217D03*
X0099882Y0183036D03*
X0106772Y0188942D03*
X0104213Y0193469D03*
X0104016Y0199375D03*
X0101260Y0203115D03*
X0099291Y0199375D03*
X0094961Y0195438D03*
X0097323Y0206461D03*
X0088465Y0212367D03*
X0095157Y0214138D03*
X0107756Y0212367D03*
X0110709Y0208036D03*
X0112283Y0206461D03*
X0122913Y0203115D03*
X0128228Y0204690D03*
X0136299Y0197209D03*
X0131378Y0211383D03*
X0134134Y0214138D03*
X0126457Y0220044D03*
X0123504Y0218469D03*
X0119571Y0217647D03*
X0140236Y0244650D03*
X0143189Y0245635D03*
X0138268Y0247209D03*
X0147323Y0250753D03*
X0149291Y0253115D03*
X0166220Y0259217D03*
X0169173Y0265713D03*
X0171535Y0265713D03*
X0175669Y0265910D03*
X0171142Y0249572D03*
X0173504Y0248390D03*
X0171535Y0246422D03*
X0169567Y0243863D03*
X0167992Y0241501D03*
X0166614Y0245635D03*
X0173504Y0241894D03*
X0162087Y0239138D03*
X0149094Y0242682D03*
X0177835Y0234611D03*
X0177441Y0227524D03*
X0192598Y0210792D03*
X0195157Y0208233D03*
X0198110Y0201737D03*
X0207953Y0202918D03*
X0213268Y0206855D03*
X0209921Y0214532D03*
X0217008Y0219847D03*
X0225866Y0224768D03*
X0237677Y0215516D03*
X0226850Y0208627D03*
X0223504Y0206855D03*
X0229606Y0203115D03*
X0232362Y0203115D03*
X0228425Y0195241D03*
X0242795Y0178705D03*
X0117205Y0151343D03*
X0109134Y0148194D03*
X0094961Y0150949D03*
X0070945Y0153115D03*
X0069961Y0156461D03*
X0063071Y0154690D03*
X0063071Y0146225D03*
X0057362Y0138548D03*
X0055000Y0140713D03*
X0052047Y0142879D03*
X0074882Y0167485D03*
X0057165Y0171225D03*
X0074488Y0182249D03*
X0062480Y0191304D03*
X0073898Y0200753D03*
X0067795Y0208430D03*
X0062480Y0210792D03*
X0071732Y0220831D03*
X0047717Y0219650D03*
X0134921Y0266304D03*
X0143189Y0270044D03*
X0154213Y0266304D03*
X0147913Y0291894D03*
X0139843Y0292485D03*
X0097323Y0130477D03*
X0117598Y0123981D03*
X0105394Y0019453D03*
X0095157Y0019453D03*
X0079803Y0019060D03*
X0592795Y0230280D03*
D36*
X0572795Y0199296D03*
X0562795Y0199296D03*
X0562992Y0189296D03*
X0572992Y0189296D03*
X0572992Y0179296D03*
X0562992Y0179296D03*
X0563189Y0169296D03*
X0573189Y0169296D03*
X0572992Y0159296D03*
X0562992Y0159296D03*
X0562992Y0149296D03*
X0572992Y0149296D03*
X0573189Y0139296D03*
X0563189Y0139296D03*
X0562992Y0129296D03*
X0572992Y0129296D03*
X0572992Y0119296D03*
X0562992Y0119296D03*
X0562795Y0109296D03*
X0529134Y0049453D03*
X0519134Y0049060D03*
X0509134Y0049060D03*
X0499134Y0049060D03*
X0489134Y0049060D03*
X0479134Y0049060D03*
X0469134Y0049060D03*
X0459134Y0049060D03*
X0449134Y0049060D03*
X0439134Y0049060D03*
X0429134Y0049060D03*
X0419134Y0049060D03*
X0409134Y0049060D03*
X0399134Y0049060D03*
X0389134Y0049060D03*
X0379134Y0049060D03*
X0369134Y0049060D03*
X0359134Y0049060D03*
X0349134Y0049060D03*
X0339134Y0049453D03*
X0349134Y0039060D03*
X0359134Y0039060D03*
X0369134Y0039060D03*
X0379134Y0039060D03*
X0389134Y0039060D03*
X0399134Y0039060D03*
X0409134Y0039060D03*
X0419134Y0039060D03*
X0429134Y0039060D03*
X0439134Y0039060D03*
X0449134Y0039060D03*
X0459134Y0039060D03*
X0469134Y0039060D03*
X0479134Y0039060D03*
X0489134Y0039060D03*
X0499134Y0039060D03*
X0509134Y0039060D03*
X0519134Y0039060D03*
X0529134Y0039453D03*
X0265354Y0039453D03*
X0255354Y0039060D03*
X0245354Y0039060D03*
X0235354Y0039060D03*
X0225354Y0039060D03*
X0215354Y0039060D03*
X0205354Y0039060D03*
X0195354Y0039060D03*
X0185354Y0039060D03*
X0175354Y0039060D03*
X0165354Y0039060D03*
X0155354Y0039060D03*
X0145354Y0039060D03*
X0135354Y0039060D03*
X0125354Y0039060D03*
X0115354Y0039060D03*
X0105354Y0039060D03*
X0095354Y0039060D03*
X0085354Y0039060D03*
X0085354Y0049060D03*
X0075354Y0049453D03*
X0095354Y0049060D03*
X0105354Y0049060D03*
X0115354Y0049060D03*
X0125354Y0049060D03*
X0135354Y0049060D03*
X0145354Y0049060D03*
X0155354Y0049060D03*
X0165354Y0049060D03*
X0175354Y0049060D03*
X0185354Y0049060D03*
X0195354Y0049060D03*
X0205354Y0049060D03*
X0215354Y0049060D03*
X0225354Y0049060D03*
X0235354Y0049060D03*
X0245354Y0049060D03*
X0255354Y0049060D03*
X0265354Y0049453D03*
X0037953Y0090792D03*
X0027953Y0090792D03*
X0027559Y0100792D03*
X0027559Y0110792D03*
X0037559Y0110792D03*
X0037559Y0100792D03*
X0037559Y0120792D03*
X0027559Y0120792D03*
X0027559Y0130792D03*
X0037559Y0130792D03*
X0037559Y0140792D03*
X0027559Y0140792D03*
X0027559Y0150792D03*
X0037559Y0150792D03*
X0037559Y0160792D03*
X0027559Y0160792D03*
X0027559Y0170792D03*
X0037559Y0170792D03*
X0037559Y0180792D03*
X0027559Y0180792D03*
X0027559Y0190792D03*
X0037559Y0190792D03*
X0037559Y0200792D03*
X0027559Y0200792D03*
X0027559Y0210792D03*
X0037559Y0210792D03*
X0037559Y0220792D03*
X0027559Y0220792D03*
X0027559Y0230792D03*
X0027559Y0240792D03*
X0037559Y0240792D03*
X0037559Y0230792D03*
X0037559Y0250792D03*
X0027559Y0250792D03*
X0027559Y0260792D03*
X0037559Y0260792D03*
X0037559Y0270792D03*
X0027559Y0270792D03*
X0037953Y0280792D03*
D37*
G36*
X0132154Y0214889D02*
X0128462Y0218581D01*
X0129650Y0219769D01*
X0133342Y0216077D01*
X0132154Y0214889D01*
G37*
G36*
X0130762Y0213497D02*
X0127070Y0217189D01*
X0128258Y0218377D01*
X0131950Y0214685D01*
X0130762Y0213497D01*
G37*
G36*
X0129370Y0212105D02*
X0125678Y0215797D01*
X0126866Y0216985D01*
X0130558Y0213293D01*
X0129370Y0212105D01*
G37*
G36*
X0127978Y0210713D02*
X0124286Y0214405D01*
X0125474Y0215593D01*
X0129166Y0211901D01*
X0127978Y0210713D01*
G37*
G36*
X0126587Y0209321D02*
X0122895Y0213013D01*
X0124083Y0214201D01*
X0127775Y0210509D01*
X0126587Y0209321D01*
G37*
G36*
X0125195Y0207929D02*
X0121503Y0211621D01*
X0122691Y0212809D01*
X0126383Y0209117D01*
X0125195Y0207929D01*
G37*
G36*
X0123803Y0206537D02*
X0120111Y0210229D01*
X0121299Y0211417D01*
X0124991Y0207725D01*
X0123803Y0206537D01*
G37*
G36*
X0122411Y0205145D02*
X0118719Y0208837D01*
X0119907Y0210025D01*
X0123599Y0206333D01*
X0122411Y0205145D01*
G37*
G36*
X0121019Y0203754D02*
X0117327Y0207446D01*
X0118515Y0208634D01*
X0122207Y0204942D01*
X0121019Y0203754D01*
G37*
G36*
X0119627Y0202362D02*
X0115935Y0206054D01*
X0117123Y0207242D01*
X0120815Y0203550D01*
X0119627Y0202362D01*
G37*
G36*
X0118235Y0200970D02*
X0114543Y0204662D01*
X0115731Y0205850D01*
X0119423Y0202158D01*
X0118235Y0200970D01*
G37*
G36*
X0116843Y0199578D02*
X0113151Y0203270D01*
X0114339Y0204458D01*
X0118031Y0200766D01*
X0116843Y0199578D01*
G37*
G36*
X0115451Y0198186D02*
X0111759Y0201878D01*
X0112947Y0203066D01*
X0116639Y0199374D01*
X0115451Y0198186D01*
G37*
G36*
X0114059Y0196794D02*
X0110367Y0200486D01*
X0111555Y0201674D01*
X0115247Y0197982D01*
X0114059Y0196794D01*
G37*
G36*
X0115247Y0189350D02*
X0111555Y0185658D01*
X0110367Y0186846D01*
X0114059Y0190538D01*
X0115247Y0189350D01*
G37*
G36*
X0116639Y0187958D02*
X0112947Y0184266D01*
X0111759Y0185454D01*
X0115451Y0189146D01*
X0116639Y0187958D01*
G37*
G36*
X0118031Y0186566D02*
X0114339Y0182874D01*
X0113151Y0184062D01*
X0116843Y0187754D01*
X0118031Y0186566D01*
G37*
G36*
X0119423Y0185174D02*
X0115731Y0181482D01*
X0114543Y0182670D01*
X0118235Y0186362D01*
X0119423Y0185174D01*
G37*
G36*
X0120815Y0183782D02*
X0117123Y0180090D01*
X0115935Y0181278D01*
X0119627Y0184970D01*
X0120815Y0183782D01*
G37*
G36*
X0122207Y0182391D02*
X0118515Y0178699D01*
X0117327Y0179887D01*
X0121019Y0183579D01*
X0122207Y0182391D01*
G37*
G36*
X0123599Y0180999D02*
X0119907Y0177307D01*
X0118719Y0178495D01*
X0122411Y0182187D01*
X0123599Y0180999D01*
G37*
G36*
X0124991Y0179607D02*
X0121299Y0175915D01*
X0120111Y0177103D01*
X0123803Y0180795D01*
X0124991Y0179607D01*
G37*
G36*
X0126383Y0178215D02*
X0122691Y0174523D01*
X0121503Y0175711D01*
X0125195Y0179403D01*
X0126383Y0178215D01*
G37*
G36*
X0127775Y0176823D02*
X0124083Y0173131D01*
X0122895Y0174319D01*
X0126587Y0178011D01*
X0127775Y0176823D01*
G37*
G36*
X0129166Y0175431D02*
X0125474Y0171739D01*
X0124286Y0172927D01*
X0127978Y0176619D01*
X0129166Y0175431D01*
G37*
G36*
X0130558Y0174039D02*
X0126866Y0170347D01*
X0125678Y0171535D01*
X0129370Y0175227D01*
X0130558Y0174039D01*
G37*
G36*
X0131950Y0172647D02*
X0128258Y0168955D01*
X0127070Y0170143D01*
X0130762Y0173835D01*
X0131950Y0172647D01*
G37*
G36*
X0133342Y0171255D02*
X0129650Y0167563D01*
X0128462Y0168751D01*
X0132154Y0172443D01*
X0133342Y0171255D01*
G37*
G36*
X0134734Y0169863D02*
X0131042Y0166171D01*
X0129854Y0167359D01*
X0133546Y0171051D01*
X0134734Y0169863D01*
G37*
G36*
X0136126Y0168471D02*
X0132434Y0164779D01*
X0131246Y0165967D01*
X0134938Y0169659D01*
X0136126Y0168471D01*
G37*
G36*
X0137518Y0167079D02*
X0133826Y0163387D01*
X0132638Y0164575D01*
X0136330Y0168267D01*
X0137518Y0167079D01*
G37*
G36*
X0138910Y0165687D02*
X0135218Y0161995D01*
X0134030Y0163183D01*
X0137722Y0166875D01*
X0138910Y0165687D01*
G37*
G36*
X0140302Y0164295D02*
X0136610Y0160603D01*
X0135422Y0161791D01*
X0139114Y0165483D01*
X0140302Y0164295D01*
G37*
G36*
X0141694Y0162903D02*
X0138002Y0159211D01*
X0136814Y0160399D01*
X0140506Y0164091D01*
X0141694Y0162903D01*
G37*
G36*
X0143086Y0161511D02*
X0139394Y0157819D01*
X0138206Y0159007D01*
X0141898Y0162699D01*
X0143086Y0161511D01*
G37*
G36*
X0144478Y0160119D02*
X0140786Y0156427D01*
X0139598Y0157615D01*
X0143290Y0161307D01*
X0144478Y0160119D01*
G37*
G36*
X0145870Y0158728D02*
X0142178Y0155036D01*
X0140990Y0156224D01*
X0144682Y0159916D01*
X0145870Y0158728D01*
G37*
G36*
X0147262Y0157336D02*
X0143570Y0153644D01*
X0142382Y0154832D01*
X0146074Y0158524D01*
X0147262Y0157336D01*
G37*
G36*
X0148654Y0155944D02*
X0144962Y0152252D01*
X0143774Y0153440D01*
X0147466Y0157132D01*
X0148654Y0155944D01*
G37*
G36*
X0150046Y0154552D02*
X0146354Y0150860D01*
X0145166Y0152048D01*
X0148858Y0155740D01*
X0150046Y0154552D01*
G37*
G36*
X0151438Y0153160D02*
X0147746Y0149468D01*
X0146558Y0150656D01*
X0150250Y0154348D01*
X0151438Y0153160D01*
G37*
G36*
X0152829Y0151768D02*
X0149137Y0148076D01*
X0147949Y0149264D01*
X0151641Y0152956D01*
X0152829Y0151768D01*
G37*
G36*
X0154221Y0150376D02*
X0150529Y0146684D01*
X0149341Y0147872D01*
X0153033Y0151564D01*
X0154221Y0150376D01*
G37*
G36*
X0155613Y0148984D02*
X0151921Y0145292D01*
X0150733Y0146480D01*
X0154425Y0150172D01*
X0155613Y0148984D01*
G37*
G36*
X0157005Y0147592D02*
X0153313Y0143900D01*
X0152125Y0145088D01*
X0155817Y0148780D01*
X0157005Y0147592D01*
G37*
G36*
X0158397Y0146200D02*
X0154705Y0142508D01*
X0153517Y0143696D01*
X0157209Y0147388D01*
X0158397Y0146200D01*
G37*
G36*
X0159789Y0144808D02*
X0156097Y0141116D01*
X0154909Y0142304D01*
X0158601Y0145996D01*
X0159789Y0144808D01*
G37*
G36*
X0161181Y0143416D02*
X0157489Y0139724D01*
X0156301Y0140912D01*
X0159993Y0144604D01*
X0161181Y0143416D01*
G37*
G36*
X0162573Y0142024D02*
X0158881Y0138332D01*
X0157693Y0139520D01*
X0161385Y0143212D01*
X0162573Y0142024D01*
G37*
G36*
X0163965Y0140632D02*
X0160273Y0136940D01*
X0159085Y0138128D01*
X0162777Y0141820D01*
X0163965Y0140632D01*
G37*
G36*
X0165357Y0139240D02*
X0161665Y0135548D01*
X0160477Y0136736D01*
X0164169Y0140428D01*
X0165357Y0139240D01*
G37*
G36*
X0166749Y0137848D02*
X0163057Y0134156D01*
X0161869Y0135344D01*
X0165561Y0139036D01*
X0166749Y0137848D01*
G37*
G36*
X0168141Y0136456D02*
X0164449Y0132764D01*
X0163261Y0133952D01*
X0166953Y0137644D01*
X0168141Y0136456D01*
G37*
G36*
X0169533Y0135065D02*
X0165841Y0131373D01*
X0164653Y0132561D01*
X0168345Y0136253D01*
X0169533Y0135065D01*
G37*
G36*
X0170925Y0133673D02*
X0167233Y0129981D01*
X0166045Y0131169D01*
X0169737Y0134861D01*
X0170925Y0133673D01*
G37*
G36*
X0172317Y0132281D02*
X0168625Y0128589D01*
X0167437Y0129777D01*
X0171129Y0133469D01*
X0172317Y0132281D01*
G37*
G36*
X0173709Y0130889D02*
X0170017Y0127197D01*
X0168829Y0128385D01*
X0172521Y0132077D01*
X0173709Y0130889D01*
G37*
G36*
X0175101Y0129497D02*
X0171409Y0125805D01*
X0170221Y0126993D01*
X0173913Y0130685D01*
X0175101Y0129497D01*
G37*
G36*
X0182544Y0130685D02*
X0186236Y0126993D01*
X0185048Y0125805D01*
X0181356Y0129497D01*
X0182544Y0130685D01*
G37*
G36*
X0183936Y0132077D02*
X0187628Y0128385D01*
X0186440Y0127197D01*
X0182748Y0130889D01*
X0183936Y0132077D01*
G37*
G36*
X0185328Y0133469D02*
X0189020Y0129777D01*
X0187832Y0128589D01*
X0184140Y0132281D01*
X0185328Y0133469D01*
G37*
G36*
X0186720Y0134861D02*
X0190412Y0131169D01*
X0189224Y0129981D01*
X0185532Y0133673D01*
X0186720Y0134861D01*
G37*
G36*
X0188112Y0136253D02*
X0191804Y0132561D01*
X0190616Y0131373D01*
X0186924Y0135065D01*
X0188112Y0136253D01*
G37*
G36*
X0189504Y0137644D02*
X0193196Y0133952D01*
X0192008Y0132764D01*
X0188316Y0136456D01*
X0189504Y0137644D01*
G37*
G36*
X0190896Y0139036D02*
X0194588Y0135344D01*
X0193400Y0134156D01*
X0189708Y0137848D01*
X0190896Y0139036D01*
G37*
G36*
X0192288Y0140428D02*
X0195980Y0136736D01*
X0194792Y0135548D01*
X0191100Y0139240D01*
X0192288Y0140428D01*
G37*
G36*
X0193680Y0141820D02*
X0197372Y0138128D01*
X0196184Y0136940D01*
X0192492Y0140632D01*
X0193680Y0141820D01*
G37*
G36*
X0195072Y0143212D02*
X0198764Y0139520D01*
X0197576Y0138332D01*
X0193884Y0142024D01*
X0195072Y0143212D01*
G37*
G36*
X0196464Y0144604D02*
X0200156Y0140912D01*
X0198968Y0139724D01*
X0195276Y0143416D01*
X0196464Y0144604D01*
G37*
G36*
X0197855Y0145996D02*
X0201547Y0142304D01*
X0200359Y0141116D01*
X0196667Y0144808D01*
X0197855Y0145996D01*
G37*
G36*
X0199247Y0147388D02*
X0202939Y0143696D01*
X0201751Y0142508D01*
X0198059Y0146200D01*
X0199247Y0147388D01*
G37*
G36*
X0200639Y0148780D02*
X0204331Y0145088D01*
X0203143Y0143900D01*
X0199451Y0147592D01*
X0200639Y0148780D01*
G37*
G36*
X0202031Y0150172D02*
X0205723Y0146480D01*
X0204535Y0145292D01*
X0200843Y0148984D01*
X0202031Y0150172D01*
G37*
G36*
X0203423Y0151564D02*
X0207115Y0147872D01*
X0205927Y0146684D01*
X0202235Y0150376D01*
X0203423Y0151564D01*
G37*
G36*
X0204815Y0152956D02*
X0208507Y0149264D01*
X0207319Y0148076D01*
X0203627Y0151768D01*
X0204815Y0152956D01*
G37*
G36*
X0206207Y0154348D02*
X0209899Y0150656D01*
X0208711Y0149468D01*
X0205019Y0153160D01*
X0206207Y0154348D01*
G37*
G36*
X0207599Y0155740D02*
X0211291Y0152048D01*
X0210103Y0150860D01*
X0206411Y0154552D01*
X0207599Y0155740D01*
G37*
G36*
X0208991Y0157132D02*
X0212683Y0153440D01*
X0211495Y0152252D01*
X0207803Y0155944D01*
X0208991Y0157132D01*
G37*
G36*
X0210383Y0158524D02*
X0214075Y0154832D01*
X0212887Y0153644D01*
X0209195Y0157336D01*
X0210383Y0158524D01*
G37*
G36*
X0211775Y0159916D02*
X0215467Y0156224D01*
X0214279Y0155036D01*
X0210587Y0158728D01*
X0211775Y0159916D01*
G37*
G36*
X0213167Y0161307D02*
X0216859Y0157615D01*
X0215671Y0156427D01*
X0211979Y0160119D01*
X0213167Y0161307D01*
G37*
G36*
X0214559Y0162699D02*
X0218251Y0159007D01*
X0217063Y0157819D01*
X0213371Y0161511D01*
X0214559Y0162699D01*
G37*
G36*
X0215951Y0164091D02*
X0219643Y0160399D01*
X0218455Y0159211D01*
X0214763Y0162903D01*
X0215951Y0164091D01*
G37*
G36*
X0217343Y0165483D02*
X0221035Y0161791D01*
X0219847Y0160603D01*
X0216155Y0164295D01*
X0217343Y0165483D01*
G37*
G36*
X0218735Y0166875D02*
X0222427Y0163183D01*
X0221239Y0161995D01*
X0217547Y0165687D01*
X0218735Y0166875D01*
G37*
G36*
X0220127Y0168267D02*
X0223819Y0164575D01*
X0222631Y0163387D01*
X0218939Y0167079D01*
X0220127Y0168267D01*
G37*
G36*
X0221518Y0169659D02*
X0225210Y0165967D01*
X0224022Y0164779D01*
X0220330Y0168471D01*
X0221518Y0169659D01*
G37*
G36*
X0222910Y0171051D02*
X0226602Y0167359D01*
X0225414Y0166171D01*
X0221722Y0169863D01*
X0222910Y0171051D01*
G37*
G36*
X0224302Y0172443D02*
X0227994Y0168751D01*
X0226806Y0167563D01*
X0223114Y0171255D01*
X0224302Y0172443D01*
G37*
G36*
X0225694Y0173835D02*
X0229386Y0170143D01*
X0228198Y0168955D01*
X0224506Y0172647D01*
X0225694Y0173835D01*
G37*
G36*
X0227086Y0175227D02*
X0230778Y0171535D01*
X0229590Y0170347D01*
X0225898Y0174039D01*
X0227086Y0175227D01*
G37*
G36*
X0228478Y0176619D02*
X0232170Y0172927D01*
X0230982Y0171739D01*
X0227290Y0175431D01*
X0228478Y0176619D01*
G37*
G36*
X0229870Y0178011D02*
X0233562Y0174319D01*
X0232374Y0173131D01*
X0228682Y0176823D01*
X0229870Y0178011D01*
G37*
G36*
X0231262Y0179403D02*
X0234954Y0175711D01*
X0233766Y0174523D01*
X0230074Y0178215D01*
X0231262Y0179403D01*
G37*
G36*
X0232654Y0180795D02*
X0236346Y0177103D01*
X0235158Y0175915D01*
X0231466Y0179607D01*
X0232654Y0180795D01*
G37*
G36*
X0234046Y0182187D02*
X0237738Y0178495D01*
X0236550Y0177307D01*
X0232858Y0180999D01*
X0234046Y0182187D01*
G37*
G36*
X0235438Y0183579D02*
X0239130Y0179887D01*
X0237942Y0178699D01*
X0234250Y0182391D01*
X0235438Y0183579D01*
G37*
G36*
X0236830Y0184970D02*
X0240522Y0181278D01*
X0239334Y0180090D01*
X0235642Y0183782D01*
X0236830Y0184970D01*
G37*
G36*
X0238222Y0186362D02*
X0241914Y0182670D01*
X0240726Y0181482D01*
X0237034Y0185174D01*
X0238222Y0186362D01*
G37*
G36*
X0239614Y0187754D02*
X0243306Y0184062D01*
X0242118Y0182874D01*
X0238426Y0186566D01*
X0239614Y0187754D01*
G37*
G36*
X0241006Y0189146D02*
X0244698Y0185454D01*
X0243510Y0184266D01*
X0239818Y0187958D01*
X0241006Y0189146D01*
G37*
G36*
X0242398Y0190538D02*
X0246090Y0186846D01*
X0244902Y0185658D01*
X0241210Y0189350D01*
X0242398Y0190538D01*
G37*
G36*
X0241210Y0197982D02*
X0244902Y0201674D01*
X0246090Y0200486D01*
X0242398Y0196794D01*
X0241210Y0197982D01*
G37*
G36*
X0239818Y0199374D02*
X0243510Y0203066D01*
X0244698Y0201878D01*
X0241006Y0198186D01*
X0239818Y0199374D01*
G37*
G36*
X0238426Y0200766D02*
X0242118Y0204458D01*
X0243306Y0203270D01*
X0239614Y0199578D01*
X0238426Y0200766D01*
G37*
G36*
X0237034Y0202158D02*
X0240726Y0205850D01*
X0241914Y0204662D01*
X0238222Y0200970D01*
X0237034Y0202158D01*
G37*
G36*
X0235642Y0203550D02*
X0239334Y0207242D01*
X0240522Y0206054D01*
X0236830Y0202362D01*
X0235642Y0203550D01*
G37*
G36*
X0234250Y0204942D02*
X0237942Y0208634D01*
X0239130Y0207446D01*
X0235438Y0203754D01*
X0234250Y0204942D01*
G37*
G36*
X0232858Y0206333D02*
X0236550Y0210025D01*
X0237738Y0208837D01*
X0234046Y0205145D01*
X0232858Y0206333D01*
G37*
G36*
X0231466Y0207725D02*
X0235158Y0211417D01*
X0236346Y0210229D01*
X0232654Y0206537D01*
X0231466Y0207725D01*
G37*
G36*
X0230074Y0209117D02*
X0233766Y0212809D01*
X0234954Y0211621D01*
X0231262Y0207929D01*
X0230074Y0209117D01*
G37*
G36*
X0228682Y0210509D02*
X0232374Y0214201D01*
X0233562Y0213013D01*
X0229870Y0209321D01*
X0228682Y0210509D01*
G37*
G36*
X0227290Y0211901D02*
X0230982Y0215593D01*
X0232170Y0214405D01*
X0228478Y0210713D01*
X0227290Y0211901D01*
G37*
G36*
X0225898Y0213293D02*
X0229590Y0216985D01*
X0230778Y0215797D01*
X0227086Y0212105D01*
X0225898Y0213293D01*
G37*
G36*
X0224506Y0214685D02*
X0228198Y0218377D01*
X0229386Y0217189D01*
X0225694Y0213497D01*
X0224506Y0214685D01*
G37*
G36*
X0223114Y0216077D02*
X0226806Y0219769D01*
X0227994Y0218581D01*
X0224302Y0214889D01*
X0223114Y0216077D01*
G37*
G36*
X0221722Y0217469D02*
X0225414Y0221161D01*
X0226602Y0219973D01*
X0222910Y0216281D01*
X0221722Y0217469D01*
G37*
G36*
X0220330Y0218861D02*
X0224022Y0222553D01*
X0225210Y0221365D01*
X0221518Y0217673D01*
X0220330Y0218861D01*
G37*
G36*
X0218939Y0220253D02*
X0222631Y0223945D01*
X0223819Y0222757D01*
X0220127Y0219065D01*
X0218939Y0220253D01*
G37*
G36*
X0217547Y0221645D02*
X0221239Y0225337D01*
X0222427Y0224149D01*
X0218735Y0220457D01*
X0217547Y0221645D01*
G37*
G36*
X0216155Y0223037D02*
X0219847Y0226729D01*
X0221035Y0225541D01*
X0217343Y0221849D01*
X0216155Y0223037D01*
G37*
G36*
X0214763Y0224429D02*
X0218455Y0228121D01*
X0219643Y0226933D01*
X0215951Y0223241D01*
X0214763Y0224429D01*
G37*
G36*
X0213371Y0225821D02*
X0217063Y0229513D01*
X0218251Y0228325D01*
X0214559Y0224633D01*
X0213371Y0225821D01*
G37*
G36*
X0211979Y0227213D02*
X0215671Y0230905D01*
X0216859Y0229717D01*
X0213167Y0226025D01*
X0211979Y0227213D01*
G37*
G36*
X0210587Y0228605D02*
X0214279Y0232297D01*
X0215467Y0231109D01*
X0211775Y0227417D01*
X0210587Y0228605D01*
G37*
G36*
X0209195Y0229996D02*
X0212887Y0233688D01*
X0214075Y0232500D01*
X0210383Y0228808D01*
X0209195Y0229996D01*
G37*
G36*
X0207803Y0231388D02*
X0211495Y0235080D01*
X0212683Y0233892D01*
X0208991Y0230200D01*
X0207803Y0231388D01*
G37*
G36*
X0206411Y0232780D02*
X0210103Y0236472D01*
X0211291Y0235284D01*
X0207599Y0231592D01*
X0206411Y0232780D01*
G37*
G36*
X0205019Y0234172D02*
X0208711Y0237864D01*
X0209899Y0236676D01*
X0206207Y0232984D01*
X0205019Y0234172D01*
G37*
G36*
X0203627Y0235564D02*
X0207319Y0239256D01*
X0208507Y0238068D01*
X0204815Y0234376D01*
X0203627Y0235564D01*
G37*
G36*
X0202235Y0236956D02*
X0205927Y0240648D01*
X0207115Y0239460D01*
X0203423Y0235768D01*
X0202235Y0236956D01*
G37*
G36*
X0200843Y0238348D02*
X0204535Y0242040D01*
X0205723Y0240852D01*
X0202031Y0237160D01*
X0200843Y0238348D01*
G37*
G36*
X0199451Y0239740D02*
X0203143Y0243432D01*
X0204331Y0242244D01*
X0200639Y0238552D01*
X0199451Y0239740D01*
G37*
G36*
X0198059Y0241132D02*
X0201751Y0244824D01*
X0202939Y0243636D01*
X0199247Y0239944D01*
X0198059Y0241132D01*
G37*
G36*
X0196667Y0242524D02*
X0200359Y0246216D01*
X0201547Y0245028D01*
X0197855Y0241336D01*
X0196667Y0242524D01*
G37*
G36*
X0195276Y0243916D02*
X0198968Y0247608D01*
X0200156Y0246420D01*
X0196464Y0242728D01*
X0195276Y0243916D01*
G37*
G36*
X0193884Y0245308D02*
X0197576Y0249000D01*
X0198764Y0247812D01*
X0195072Y0244120D01*
X0193884Y0245308D01*
G37*
G36*
X0192492Y0246700D02*
X0196184Y0250392D01*
X0197372Y0249204D01*
X0193680Y0245512D01*
X0192492Y0246700D01*
G37*
G36*
X0191100Y0248092D02*
X0194792Y0251784D01*
X0195980Y0250596D01*
X0192288Y0246904D01*
X0191100Y0248092D01*
G37*
G36*
X0189708Y0249484D02*
X0193400Y0253176D01*
X0194588Y0251988D01*
X0190896Y0248296D01*
X0189708Y0249484D01*
G37*
G36*
X0188316Y0250876D02*
X0192008Y0254568D01*
X0193196Y0253380D01*
X0189504Y0249688D01*
X0188316Y0250876D01*
G37*
G36*
X0186924Y0252268D02*
X0190616Y0255960D01*
X0191804Y0254772D01*
X0188112Y0251080D01*
X0186924Y0252268D01*
G37*
G36*
X0185532Y0253659D02*
X0189224Y0257351D01*
X0190412Y0256163D01*
X0186720Y0252471D01*
X0185532Y0253659D01*
G37*
G36*
X0184140Y0255051D02*
X0187832Y0258743D01*
X0189020Y0257555D01*
X0185328Y0253863D01*
X0184140Y0255051D01*
G37*
G36*
X0182748Y0256443D02*
X0186440Y0260135D01*
X0187628Y0258947D01*
X0183936Y0255255D01*
X0182748Y0256443D01*
G37*
G36*
X0181356Y0257835D02*
X0185048Y0261527D01*
X0186236Y0260339D01*
X0182544Y0256647D01*
X0181356Y0257835D01*
G37*
G36*
X0173913Y0256647D02*
X0170221Y0260339D01*
X0171409Y0261527D01*
X0175101Y0257835D01*
X0173913Y0256647D01*
G37*
G36*
X0172521Y0255255D02*
X0168829Y0258947D01*
X0170017Y0260135D01*
X0173709Y0256443D01*
X0172521Y0255255D01*
G37*
G36*
X0171129Y0253863D02*
X0167437Y0257555D01*
X0168625Y0258743D01*
X0172317Y0255051D01*
X0171129Y0253863D01*
G37*
G36*
X0169737Y0252471D02*
X0166045Y0256163D01*
X0167233Y0257351D01*
X0170925Y0253659D01*
X0169737Y0252471D01*
G37*
G36*
X0168345Y0251080D02*
X0164653Y0254772D01*
X0165841Y0255960D01*
X0169533Y0252268D01*
X0168345Y0251080D01*
G37*
G36*
X0166953Y0249688D02*
X0163261Y0253380D01*
X0164449Y0254568D01*
X0168141Y0250876D01*
X0166953Y0249688D01*
G37*
G36*
X0165561Y0248296D02*
X0161869Y0251988D01*
X0163057Y0253176D01*
X0166749Y0249484D01*
X0165561Y0248296D01*
G37*
G36*
X0164169Y0246904D02*
X0160477Y0250596D01*
X0161665Y0251784D01*
X0165357Y0248092D01*
X0164169Y0246904D01*
G37*
G36*
X0162777Y0245512D02*
X0159085Y0249204D01*
X0160273Y0250392D01*
X0163965Y0246700D01*
X0162777Y0245512D01*
G37*
G36*
X0161385Y0244120D02*
X0157693Y0247812D01*
X0158881Y0249000D01*
X0162573Y0245308D01*
X0161385Y0244120D01*
G37*
G36*
X0159993Y0242728D02*
X0156301Y0246420D01*
X0157489Y0247608D01*
X0161181Y0243916D01*
X0159993Y0242728D01*
G37*
G36*
X0158601Y0241336D02*
X0154909Y0245028D01*
X0156097Y0246216D01*
X0159789Y0242524D01*
X0158601Y0241336D01*
G37*
G36*
X0157209Y0239944D02*
X0153517Y0243636D01*
X0154705Y0244824D01*
X0158397Y0241132D01*
X0157209Y0239944D01*
G37*
G36*
X0155817Y0238552D02*
X0152125Y0242244D01*
X0153313Y0243432D01*
X0157005Y0239740D01*
X0155817Y0238552D01*
G37*
G36*
X0154425Y0237160D02*
X0150733Y0240852D01*
X0151921Y0242040D01*
X0155613Y0238348D01*
X0154425Y0237160D01*
G37*
G36*
X0153033Y0235768D02*
X0149341Y0239460D01*
X0150529Y0240648D01*
X0154221Y0236956D01*
X0153033Y0235768D01*
G37*
G36*
X0151641Y0234376D02*
X0147949Y0238068D01*
X0149137Y0239256D01*
X0152829Y0235564D01*
X0151641Y0234376D01*
G37*
G36*
X0150250Y0232984D02*
X0146558Y0236676D01*
X0147746Y0237864D01*
X0151438Y0234172D01*
X0150250Y0232984D01*
G37*
G36*
X0148858Y0231592D02*
X0145166Y0235284D01*
X0146354Y0236472D01*
X0150046Y0232780D01*
X0148858Y0231592D01*
G37*
G36*
X0147466Y0230200D02*
X0143774Y0233892D01*
X0144962Y0235080D01*
X0148654Y0231388D01*
X0147466Y0230200D01*
G37*
G36*
X0146074Y0228808D02*
X0142382Y0232500D01*
X0143570Y0233688D01*
X0147262Y0229996D01*
X0146074Y0228808D01*
G37*
G36*
X0144682Y0227417D02*
X0140990Y0231109D01*
X0142178Y0232297D01*
X0145870Y0228605D01*
X0144682Y0227417D01*
G37*
G36*
X0143290Y0226025D02*
X0139598Y0229717D01*
X0140786Y0230905D01*
X0144478Y0227213D01*
X0143290Y0226025D01*
G37*
G36*
X0141898Y0224633D02*
X0138206Y0228325D01*
X0139394Y0229513D01*
X0143086Y0225821D01*
X0141898Y0224633D01*
G37*
G36*
X0140506Y0223241D02*
X0136814Y0226933D01*
X0138002Y0228121D01*
X0141694Y0224429D01*
X0140506Y0223241D01*
G37*
G36*
X0139114Y0221849D02*
X0135422Y0225541D01*
X0136610Y0226729D01*
X0140302Y0223037D01*
X0139114Y0221849D01*
G37*
G36*
X0137722Y0220457D02*
X0134030Y0224149D01*
X0135218Y0225337D01*
X0138910Y0221645D01*
X0137722Y0220457D01*
G37*
G36*
X0136330Y0219065D02*
X0132638Y0222757D01*
X0133826Y0223945D01*
X0137518Y0220253D01*
X0136330Y0219065D01*
G37*
G36*
X0134938Y0217673D02*
X0131246Y0221365D01*
X0132434Y0222553D01*
X0136126Y0218861D01*
X0134938Y0217673D01*
G37*
G36*
X0133546Y0216281D02*
X0129854Y0219973D01*
X0131042Y0221161D01*
X0134734Y0217469D01*
X0133546Y0216281D01*
G37*
D38*
X0050275Y0063745D02*
X0050277Y0063833D01*
X0050283Y0063921D01*
X0050293Y0064009D01*
X0050307Y0064097D01*
X0050324Y0064183D01*
X0050346Y0064269D01*
X0050371Y0064353D01*
X0050401Y0064437D01*
X0050433Y0064519D01*
X0050470Y0064599D01*
X0050510Y0064678D01*
X0050554Y0064755D01*
X0050601Y0064830D01*
X0050651Y0064902D01*
X0050705Y0064973D01*
X0050761Y0065040D01*
X0050821Y0065106D01*
X0050883Y0065168D01*
X0050949Y0065228D01*
X0051016Y0065284D01*
X0051087Y0065338D01*
X0051159Y0065388D01*
X0051234Y0065435D01*
X0051311Y0065479D01*
X0051390Y0065519D01*
X0051470Y0065556D01*
X0051552Y0065588D01*
X0051636Y0065618D01*
X0051720Y0065643D01*
X0051806Y0065665D01*
X0051892Y0065682D01*
X0051980Y0065696D01*
X0052068Y0065706D01*
X0052156Y0065712D01*
X0052244Y0065714D01*
X0052332Y0065712D01*
X0052420Y0065706D01*
X0052508Y0065696D01*
X0052596Y0065682D01*
X0052682Y0065665D01*
X0052768Y0065643D01*
X0052852Y0065618D01*
X0052936Y0065588D01*
X0053018Y0065556D01*
X0053098Y0065519D01*
X0053177Y0065479D01*
X0053254Y0065435D01*
X0053329Y0065388D01*
X0053401Y0065338D01*
X0053472Y0065284D01*
X0053539Y0065228D01*
X0053605Y0065168D01*
X0053667Y0065106D01*
X0053727Y0065040D01*
X0053783Y0064973D01*
X0053837Y0064902D01*
X0053887Y0064830D01*
X0053934Y0064755D01*
X0053978Y0064678D01*
X0054018Y0064599D01*
X0054055Y0064519D01*
X0054087Y0064437D01*
X0054117Y0064353D01*
X0054142Y0064269D01*
X0054164Y0064183D01*
X0054181Y0064097D01*
X0054195Y0064009D01*
X0054205Y0063921D01*
X0054211Y0063833D01*
X0054213Y0063745D01*
X0054211Y0063657D01*
X0054205Y0063569D01*
X0054195Y0063481D01*
X0054181Y0063393D01*
X0054164Y0063307D01*
X0054142Y0063221D01*
X0054117Y0063137D01*
X0054087Y0063053D01*
X0054055Y0062971D01*
X0054018Y0062891D01*
X0053978Y0062812D01*
X0053934Y0062735D01*
X0053887Y0062660D01*
X0053837Y0062588D01*
X0053783Y0062517D01*
X0053727Y0062450D01*
X0053667Y0062384D01*
X0053605Y0062322D01*
X0053539Y0062262D01*
X0053472Y0062206D01*
X0053401Y0062152D01*
X0053329Y0062102D01*
X0053254Y0062055D01*
X0053177Y0062011D01*
X0053098Y0061971D01*
X0053018Y0061934D01*
X0052936Y0061902D01*
X0052852Y0061872D01*
X0052768Y0061847D01*
X0052682Y0061825D01*
X0052596Y0061808D01*
X0052508Y0061794D01*
X0052420Y0061784D01*
X0052332Y0061778D01*
X0052244Y0061776D01*
X0052156Y0061778D01*
X0052068Y0061784D01*
X0051980Y0061794D01*
X0051892Y0061808D01*
X0051806Y0061825D01*
X0051720Y0061847D01*
X0051636Y0061872D01*
X0051552Y0061902D01*
X0051470Y0061934D01*
X0051390Y0061971D01*
X0051311Y0062011D01*
X0051234Y0062055D01*
X0051159Y0062102D01*
X0051087Y0062152D01*
X0051016Y0062206D01*
X0050949Y0062262D01*
X0050883Y0062322D01*
X0050821Y0062384D01*
X0050761Y0062450D01*
X0050705Y0062517D01*
X0050651Y0062588D01*
X0050601Y0062660D01*
X0050554Y0062735D01*
X0050510Y0062812D01*
X0050470Y0062891D01*
X0050433Y0062971D01*
X0050401Y0063053D01*
X0050371Y0063137D01*
X0050346Y0063221D01*
X0050324Y0063307D01*
X0050307Y0063393D01*
X0050293Y0063481D01*
X0050283Y0063569D01*
X0050277Y0063657D01*
X0050275Y0063745D01*
X0054212Y0378705D02*
X0054214Y0378793D01*
X0054220Y0378881D01*
X0054230Y0378969D01*
X0054244Y0379057D01*
X0054261Y0379143D01*
X0054283Y0379229D01*
X0054308Y0379313D01*
X0054338Y0379397D01*
X0054370Y0379479D01*
X0054407Y0379559D01*
X0054447Y0379638D01*
X0054491Y0379715D01*
X0054538Y0379790D01*
X0054588Y0379862D01*
X0054642Y0379933D01*
X0054698Y0380000D01*
X0054758Y0380066D01*
X0054820Y0380128D01*
X0054886Y0380188D01*
X0054953Y0380244D01*
X0055024Y0380298D01*
X0055096Y0380348D01*
X0055171Y0380395D01*
X0055248Y0380439D01*
X0055327Y0380479D01*
X0055407Y0380516D01*
X0055489Y0380548D01*
X0055573Y0380578D01*
X0055657Y0380603D01*
X0055743Y0380625D01*
X0055829Y0380642D01*
X0055917Y0380656D01*
X0056005Y0380666D01*
X0056093Y0380672D01*
X0056181Y0380674D01*
X0056269Y0380672D01*
X0056357Y0380666D01*
X0056445Y0380656D01*
X0056533Y0380642D01*
X0056619Y0380625D01*
X0056705Y0380603D01*
X0056789Y0380578D01*
X0056873Y0380548D01*
X0056955Y0380516D01*
X0057035Y0380479D01*
X0057114Y0380439D01*
X0057191Y0380395D01*
X0057266Y0380348D01*
X0057338Y0380298D01*
X0057409Y0380244D01*
X0057476Y0380188D01*
X0057542Y0380128D01*
X0057604Y0380066D01*
X0057664Y0380000D01*
X0057720Y0379933D01*
X0057774Y0379862D01*
X0057824Y0379790D01*
X0057871Y0379715D01*
X0057915Y0379638D01*
X0057955Y0379559D01*
X0057992Y0379479D01*
X0058024Y0379397D01*
X0058054Y0379313D01*
X0058079Y0379229D01*
X0058101Y0379143D01*
X0058118Y0379057D01*
X0058132Y0378969D01*
X0058142Y0378881D01*
X0058148Y0378793D01*
X0058150Y0378705D01*
X0058148Y0378617D01*
X0058142Y0378529D01*
X0058132Y0378441D01*
X0058118Y0378353D01*
X0058101Y0378267D01*
X0058079Y0378181D01*
X0058054Y0378097D01*
X0058024Y0378013D01*
X0057992Y0377931D01*
X0057955Y0377851D01*
X0057915Y0377772D01*
X0057871Y0377695D01*
X0057824Y0377620D01*
X0057774Y0377548D01*
X0057720Y0377477D01*
X0057664Y0377410D01*
X0057604Y0377344D01*
X0057542Y0377282D01*
X0057476Y0377222D01*
X0057409Y0377166D01*
X0057338Y0377112D01*
X0057266Y0377062D01*
X0057191Y0377015D01*
X0057114Y0376971D01*
X0057035Y0376931D01*
X0056955Y0376894D01*
X0056873Y0376862D01*
X0056789Y0376832D01*
X0056705Y0376807D01*
X0056619Y0376785D01*
X0056533Y0376768D01*
X0056445Y0376754D01*
X0056357Y0376744D01*
X0056269Y0376738D01*
X0056181Y0376736D01*
X0056093Y0376738D01*
X0056005Y0376744D01*
X0055917Y0376754D01*
X0055829Y0376768D01*
X0055743Y0376785D01*
X0055657Y0376807D01*
X0055573Y0376832D01*
X0055489Y0376862D01*
X0055407Y0376894D01*
X0055327Y0376931D01*
X0055248Y0376971D01*
X0055171Y0377015D01*
X0055096Y0377062D01*
X0055024Y0377112D01*
X0054953Y0377166D01*
X0054886Y0377222D01*
X0054820Y0377282D01*
X0054758Y0377344D01*
X0054698Y0377410D01*
X0054642Y0377477D01*
X0054588Y0377548D01*
X0054538Y0377620D01*
X0054491Y0377695D01*
X0054447Y0377772D01*
X0054407Y0377851D01*
X0054370Y0377931D01*
X0054338Y0378013D01*
X0054308Y0378097D01*
X0054283Y0378181D01*
X0054261Y0378267D01*
X0054244Y0378353D01*
X0054230Y0378441D01*
X0054220Y0378529D01*
X0054214Y0378617D01*
X0054212Y0378705D01*
X0546338Y0355083D02*
X0546340Y0355171D01*
X0546346Y0355259D01*
X0546356Y0355347D01*
X0546370Y0355435D01*
X0546387Y0355521D01*
X0546409Y0355607D01*
X0546434Y0355691D01*
X0546464Y0355775D01*
X0546496Y0355857D01*
X0546533Y0355937D01*
X0546573Y0356016D01*
X0546617Y0356093D01*
X0546664Y0356168D01*
X0546714Y0356240D01*
X0546768Y0356311D01*
X0546824Y0356378D01*
X0546884Y0356444D01*
X0546946Y0356506D01*
X0547012Y0356566D01*
X0547079Y0356622D01*
X0547150Y0356676D01*
X0547222Y0356726D01*
X0547297Y0356773D01*
X0547374Y0356817D01*
X0547453Y0356857D01*
X0547533Y0356894D01*
X0547615Y0356926D01*
X0547699Y0356956D01*
X0547783Y0356981D01*
X0547869Y0357003D01*
X0547955Y0357020D01*
X0548043Y0357034D01*
X0548131Y0357044D01*
X0548219Y0357050D01*
X0548307Y0357052D01*
X0548395Y0357050D01*
X0548483Y0357044D01*
X0548571Y0357034D01*
X0548659Y0357020D01*
X0548745Y0357003D01*
X0548831Y0356981D01*
X0548915Y0356956D01*
X0548999Y0356926D01*
X0549081Y0356894D01*
X0549161Y0356857D01*
X0549240Y0356817D01*
X0549317Y0356773D01*
X0549392Y0356726D01*
X0549464Y0356676D01*
X0549535Y0356622D01*
X0549602Y0356566D01*
X0549668Y0356506D01*
X0549730Y0356444D01*
X0549790Y0356378D01*
X0549846Y0356311D01*
X0549900Y0356240D01*
X0549950Y0356168D01*
X0549997Y0356093D01*
X0550041Y0356016D01*
X0550081Y0355937D01*
X0550118Y0355857D01*
X0550150Y0355775D01*
X0550180Y0355691D01*
X0550205Y0355607D01*
X0550227Y0355521D01*
X0550244Y0355435D01*
X0550258Y0355347D01*
X0550268Y0355259D01*
X0550274Y0355171D01*
X0550276Y0355083D01*
X0550274Y0354995D01*
X0550268Y0354907D01*
X0550258Y0354819D01*
X0550244Y0354731D01*
X0550227Y0354645D01*
X0550205Y0354559D01*
X0550180Y0354475D01*
X0550150Y0354391D01*
X0550118Y0354309D01*
X0550081Y0354229D01*
X0550041Y0354150D01*
X0549997Y0354073D01*
X0549950Y0353998D01*
X0549900Y0353926D01*
X0549846Y0353855D01*
X0549790Y0353788D01*
X0549730Y0353722D01*
X0549668Y0353660D01*
X0549602Y0353600D01*
X0549535Y0353544D01*
X0549464Y0353490D01*
X0549392Y0353440D01*
X0549317Y0353393D01*
X0549240Y0353349D01*
X0549161Y0353309D01*
X0549081Y0353272D01*
X0548999Y0353240D01*
X0548915Y0353210D01*
X0548831Y0353185D01*
X0548745Y0353163D01*
X0548659Y0353146D01*
X0548571Y0353132D01*
X0548483Y0353122D01*
X0548395Y0353116D01*
X0548307Y0353114D01*
X0548219Y0353116D01*
X0548131Y0353122D01*
X0548043Y0353132D01*
X0547955Y0353146D01*
X0547869Y0353163D01*
X0547783Y0353185D01*
X0547699Y0353210D01*
X0547615Y0353240D01*
X0547533Y0353272D01*
X0547453Y0353309D01*
X0547374Y0353349D01*
X0547297Y0353393D01*
X0547222Y0353440D01*
X0547150Y0353490D01*
X0547079Y0353544D01*
X0547012Y0353600D01*
X0546946Y0353660D01*
X0546884Y0353722D01*
X0546824Y0353788D01*
X0546768Y0353855D01*
X0546714Y0353926D01*
X0546664Y0353998D01*
X0546617Y0354073D01*
X0546573Y0354150D01*
X0546533Y0354229D01*
X0546496Y0354309D01*
X0546464Y0354391D01*
X0546434Y0354475D01*
X0546409Y0354559D01*
X0546387Y0354645D01*
X0546370Y0354731D01*
X0546356Y0354819D01*
X0546346Y0354907D01*
X0546340Y0354995D01*
X0546338Y0355083D01*
D39*
X0341260Y0106264D03*
X0336260Y0106264D03*
X0331260Y0106264D03*
X0326260Y0106264D03*
X0321260Y0106264D03*
X0316260Y0106264D03*
X0311260Y0106264D03*
X0295984Y0106264D03*
X0290984Y0106264D03*
X0285984Y0106264D03*
X0280984Y0106264D03*
X0275984Y0106264D03*
X0270984Y0106264D03*
X0265984Y0106264D03*
X0265984Y0085792D03*
X0270984Y0085792D03*
X0275984Y0085792D03*
X0280984Y0085792D03*
X0285984Y0085792D03*
X0290984Y0085792D03*
X0295984Y0085792D03*
X0311260Y0085792D03*
X0316260Y0085792D03*
X0321260Y0085792D03*
X0326260Y0085792D03*
X0331260Y0085792D03*
X0336260Y0085792D03*
X0341260Y0085792D03*
D40*
X0369902Y0022209D03*
X0409862Y0022209D03*
X0444705Y0022209D03*
X0479744Y0022209D03*
X0514783Y0022209D03*
X0260846Y0022209D03*
X0230925Y0022209D03*
X0201004Y0022209D03*
X0171280Y0022406D03*
X0140965Y0022209D03*
X0105925Y0022209D03*
D41*
X0094626Y0022406D03*
X0129665Y0022406D03*
X0159980Y0022603D03*
X0189705Y0022406D03*
X0219626Y0022406D03*
X0249547Y0022406D03*
X0358602Y0022406D03*
X0398563Y0022406D03*
X0433406Y0022406D03*
X0468445Y0022406D03*
X0503484Y0022406D03*
D42*
X0505197Y0022554D03*
X0506772Y0022554D03*
X0508346Y0022554D03*
X0509921Y0022554D03*
X0511496Y0022554D03*
X0513071Y0022554D03*
X0478031Y0022554D03*
X0476457Y0022554D03*
X0474882Y0022554D03*
X0473307Y0022554D03*
X0471732Y0022554D03*
X0470157Y0022554D03*
X0442992Y0022554D03*
X0441417Y0022554D03*
X0439843Y0022554D03*
X0438268Y0022554D03*
X0436693Y0022554D03*
X0435118Y0022554D03*
X0408150Y0022554D03*
X0406575Y0022554D03*
X0405000Y0022554D03*
X0403425Y0022554D03*
X0401850Y0022554D03*
X0400276Y0022554D03*
X0368189Y0022554D03*
X0366614Y0022554D03*
X0365039Y0022554D03*
X0363465Y0022554D03*
X0361890Y0022554D03*
X0360315Y0022554D03*
X0259134Y0022554D03*
X0257559Y0022554D03*
X0255984Y0022554D03*
X0254409Y0022554D03*
X0252835Y0022554D03*
X0251260Y0022554D03*
X0229213Y0022554D03*
X0227638Y0022554D03*
X0226063Y0022554D03*
X0224488Y0022554D03*
X0222913Y0022554D03*
X0221339Y0022554D03*
X0199291Y0022554D03*
X0197717Y0022554D03*
X0196142Y0022554D03*
X0194567Y0022554D03*
X0192992Y0022554D03*
X0191417Y0022554D03*
X0169567Y0022751D03*
X0167992Y0022751D03*
X0166417Y0022751D03*
X0164843Y0022751D03*
X0163268Y0022751D03*
X0161693Y0022751D03*
X0139252Y0022554D03*
X0137677Y0022554D03*
X0136102Y0022554D03*
X0134528Y0022554D03*
X0132953Y0022554D03*
X0131378Y0022554D03*
X0104213Y0022554D03*
X0102638Y0022554D03*
X0101063Y0022554D03*
X0099488Y0022554D03*
X0097913Y0022554D03*
X0096339Y0022554D03*
D43*
X0096191Y0021392D03*
X0104360Y0021392D03*
X0131230Y0021392D03*
X0139400Y0021392D03*
X0161545Y0021589D03*
X0169715Y0021589D03*
X0191270Y0021392D03*
X0199439Y0021392D03*
X0221191Y0021392D03*
X0229360Y0021392D03*
X0251112Y0021392D03*
X0259281Y0021392D03*
X0360167Y0021392D03*
X0368337Y0021392D03*
X0400128Y0021392D03*
X0408297Y0021392D03*
X0434970Y0021392D03*
X0443140Y0021392D03*
X0470010Y0021392D03*
X0478179Y0021392D03*
X0505049Y0021392D03*
X0513219Y0021392D03*
D44*
X0509695Y0021402D03*
X0508573Y0021402D03*
X0474656Y0021402D03*
X0473533Y0021402D03*
X0439616Y0021402D03*
X0438494Y0021402D03*
X0404774Y0021402D03*
X0403652Y0021402D03*
X0364813Y0021402D03*
X0363691Y0021402D03*
X0255758Y0021402D03*
X0254636Y0021402D03*
X0225837Y0021402D03*
X0224715Y0021402D03*
X0195915Y0021402D03*
X0194793Y0021402D03*
X0166191Y0021599D03*
X0165069Y0021599D03*
X0135876Y0021402D03*
X0134754Y0021402D03*
X0100837Y0021402D03*
X0099715Y0021402D03*
D45*
X0097894Y0019316D03*
X0102657Y0019316D03*
X0132933Y0019316D03*
X0137697Y0019316D03*
X0163248Y0019512D03*
X0168012Y0019512D03*
X0192972Y0019316D03*
X0197736Y0019316D03*
X0222894Y0019316D03*
X0227657Y0019316D03*
X0252815Y0019316D03*
X0257579Y0019316D03*
X0361870Y0019316D03*
X0366634Y0019316D03*
X0401831Y0019316D03*
X0406594Y0019316D03*
X0436673Y0019316D03*
X0441437Y0019316D03*
X0471713Y0019316D03*
X0476476Y0019316D03*
X0506752Y0019316D03*
X0511516Y0019316D03*
D46*
X0272717Y0288154D03*
X0260906Y0288154D03*
D47*
X0241811Y0353509D03*
X0280591Y0354296D03*
X0189252Y0367682D03*
X0375079Y0360595D03*
D48*
X0246220Y0344335D03*
X0236220Y0344335D03*
X0236220Y0334335D03*
X0246220Y0334335D03*
X0506693Y0266146D03*
X0516693Y0266146D03*
X0516693Y0256146D03*
X0516693Y0246146D03*
X0506693Y0246146D03*
X0506693Y0256146D03*
X0506693Y0236146D03*
X0516693Y0236146D03*
D49*
X0288465Y0221225D03*
X0279803Y0221225D03*
D50*
X0294567Y0221422D03*
X0294567Y0228902D03*
X0304803Y0228902D03*
X0304803Y0225162D03*
X0304803Y0221422D03*
X0352047Y0329296D03*
X0352047Y0333036D03*
X0352047Y0336776D03*
X0362284Y0336776D03*
X0362284Y0333036D03*
X0362284Y0329296D03*
D51*
X0374587Y0120831D03*
X0382657Y0120831D03*
X0382657Y0103509D03*
X0374587Y0103509D03*
D52*
X0376654Y0103509D03*
X0378622Y0103509D03*
X0380591Y0103509D03*
X0380591Y0120831D03*
X0378622Y0120831D03*
X0376654Y0120831D03*
D53*
X0391370Y0117170D02*
X0397370Y0117170D01*
X0397370Y0107170D02*
X0391370Y0107170D01*
X0281654Y0158776D02*
X0281654Y0164776D01*
X0271654Y0164776D02*
X0271654Y0158776D01*
X0047283Y0307595D02*
X0047283Y0313595D01*
X0037283Y0313595D02*
X0037283Y0307595D01*
X0027283Y0307595D02*
X0027283Y0313595D01*
D54*
G36*
X0234342Y0162325D02*
X0238794Y0157873D01*
X0234896Y0153975D01*
X0230444Y0158427D01*
X0234342Y0162325D01*
G37*
G36*
X0229609Y0157592D02*
X0234061Y0153140D01*
X0230163Y0149242D01*
X0225711Y0153694D01*
X0229609Y0157592D01*
G37*
G36*
X0240467Y0156200D02*
X0244919Y0151748D01*
X0241021Y0147850D01*
X0236569Y0152302D01*
X0240467Y0156200D01*
G37*
G36*
X0235734Y0151468D02*
X0240186Y0147016D01*
X0236288Y0143118D01*
X0231836Y0147570D01*
X0235734Y0151468D01*
G37*
G36*
X0247728Y0148939D02*
X0252180Y0144487D01*
X0248282Y0140589D01*
X0243830Y0145041D01*
X0247728Y0148939D01*
G37*
G36*
X0242995Y0144206D02*
X0247447Y0139754D01*
X0243549Y0135856D01*
X0239097Y0140308D01*
X0242995Y0144206D01*
G37*
G36*
X0253852Y0142814D02*
X0258304Y0138362D01*
X0254406Y0134464D01*
X0249954Y0138916D01*
X0253852Y0142814D01*
G37*
G36*
X0249120Y0138082D02*
X0253572Y0133630D01*
X0249674Y0129732D01*
X0245222Y0134184D01*
X0249120Y0138082D01*
G37*
D55*
X0203425Y0344060D03*
X0369370Y0341501D03*
X0390827Y0351146D03*
D56*
X0385512Y0354887D03*
X0406575Y0343075D03*
X0406575Y0338351D03*
X0400669Y0314729D03*
X0396535Y0292091D03*
X0376063Y0265516D03*
X0344173Y0235595D03*
X0308150Y0233233D03*
X0270945Y0219650D03*
X0249094Y0236973D03*
X0315433Y0208036D03*
X0282756Y0188942D03*
X0348307Y0148981D03*
X0340630Y0140910D03*
X0323898Y0130477D03*
X0323898Y0126540D03*
X0367598Y0127918D03*
X0396339Y0147800D03*
X0401654Y0147603D03*
X0401654Y0152918D03*
X0306181Y0085792D03*
X0326260Y0078115D03*
X0193189Y0117288D03*
X0130197Y0119847D03*
X0078031Y0077131D03*
X0087677Y0187564D03*
X0239449Y0293272D03*
X0246339Y0293272D03*
X0276260Y0311186D03*
X0276260Y0316107D03*
X0279213Y0340123D03*
X0351457Y0347209D03*
X0422323Y0366894D03*
X0296339Y0284217D03*
X0197913Y0344060D03*
X0137087Y0340320D03*
X0116811Y0315910D03*
X0047126Y0332642D03*
D57*
X0118386Y0331855D03*
X0118386Y0328115D03*
X0128622Y0328115D03*
X0128622Y0335595D03*
X0118386Y0335595D03*
X0300669Y0201737D03*
X0300669Y0194257D03*
X0310906Y0194257D03*
X0310906Y0197997D03*
X0310906Y0201737D03*
D58*
X0355984Y0144453D03*
X0359724Y0144453D03*
X0363465Y0144453D03*
X0363465Y0134217D03*
X0355984Y0134217D03*
D59*
X0010709Y0125221D03*
X0010709Y0155142D03*
X0010709Y0185261D03*
X0010709Y0215182D03*
X0010709Y0249827D03*
X0010709Y0095103D03*
D60*
X0010906Y0106402D03*
X0010906Y0136520D03*
X0010906Y0166442D03*
X0010906Y0196560D03*
X0010906Y0226481D03*
X0010906Y0261127D03*
D61*
X0011053Y0259414D03*
X0011053Y0257839D03*
X0011053Y0256264D03*
X0011053Y0254690D03*
X0011053Y0253115D03*
X0011053Y0251540D03*
X0011053Y0224768D03*
X0011053Y0223194D03*
X0011053Y0221619D03*
X0011053Y0220044D03*
X0011053Y0218469D03*
X0011053Y0216894D03*
X0011053Y0194847D03*
X0011053Y0193272D03*
X0011053Y0191698D03*
X0011053Y0190123D03*
X0011053Y0188548D03*
X0011053Y0186973D03*
X0011053Y0164729D03*
X0011053Y0163154D03*
X0011053Y0161579D03*
X0011053Y0160005D03*
X0011053Y0158430D03*
X0011053Y0156855D03*
X0011053Y0134808D03*
X0011053Y0133233D03*
X0011053Y0131658D03*
X0011053Y0130083D03*
X0011053Y0128509D03*
X0011053Y0126934D03*
X0011053Y0104690D03*
X0011053Y0103115D03*
X0011053Y0101540D03*
X0011053Y0099965D03*
X0011053Y0098390D03*
X0011053Y0096816D03*
D62*
X0009892Y0096668D03*
X0009892Y0104837D03*
X0009892Y0126786D03*
X0009892Y0134955D03*
X0009892Y0156707D03*
X0009892Y0164877D03*
X0009892Y0186825D03*
X0009892Y0194995D03*
X0009892Y0216747D03*
X0009892Y0224916D03*
X0009892Y0251392D03*
X0009892Y0259562D03*
D63*
X0009902Y0256038D03*
X0009902Y0254916D03*
X0009902Y0221392D03*
X0009902Y0220270D03*
X0009902Y0191471D03*
X0009902Y0190349D03*
X0009902Y0161353D03*
X0009902Y0160231D03*
X0009902Y0131432D03*
X0009902Y0130310D03*
X0009902Y0101314D03*
X0009902Y0100192D03*
D64*
X0007815Y0098371D03*
X0007815Y0103135D03*
X0007815Y0128489D03*
X0007815Y0133253D03*
X0007815Y0158410D03*
X0007815Y0163174D03*
X0007815Y0188528D03*
X0007815Y0193292D03*
X0007815Y0218449D03*
X0007815Y0223213D03*
X0007815Y0253095D03*
X0007815Y0257859D03*
D65*
X0293189Y0350753D03*
X0306181Y0359808D03*
X0319173Y0350753D03*
D66*
X0320748Y0379887D03*
X0291614Y0379887D03*
D67*
X0306181Y0375556D03*
D68*
X0189055Y0379690D03*
D69*
X0552441Y0257997D03*
X0552441Y0252997D03*
X0552441Y0247997D03*
X0552441Y0242997D03*
X0552441Y0237997D03*
X0567795Y0237997D03*
X0567795Y0242997D03*
X0567795Y0247997D03*
X0567795Y0252997D03*
X0567795Y0257997D03*
D70*
X0118986Y0378705D03*
D71*
X0111476Y0378686D03*
D72*
X0115236Y0370822D03*
D73*
X0367795Y0304296D03*
X0367795Y0292485D03*
D74*
X0445945Y0324572D03*
X0445945Y0330477D03*
X0461693Y0330477D03*
X0461693Y0324572D03*
X0477441Y0324572D03*
X0477441Y0330477D03*
X0493189Y0330477D03*
X0493189Y0324572D03*
X0508937Y0324572D03*
X0508937Y0330477D03*
X0524685Y0330477D03*
X0524685Y0324572D03*
D75*
X0430394Y0337268D03*
X0422126Y0337268D03*
X0422126Y0349276D03*
X0430394Y0349276D03*
D76*
X0426260Y0349276D03*
X0426260Y0337268D03*
D77*
X0406575Y0350981D03*
X0406575Y0367060D03*
X0258937Y0319816D03*
X0243189Y0319816D03*
X0223504Y0319816D03*
X0223504Y0303737D03*
X0243189Y0303737D03*
X0258937Y0303737D03*
D78*
X0379016Y0374768D03*
X0386890Y0374768D03*
D79*
X0378819Y0331264D03*
D80*
X0378819Y0325162D03*
X0380787Y0325162D03*
X0382756Y0325162D03*
X0376850Y0325162D03*
X0374882Y0325162D03*
X0374882Y0337367D03*
X0376850Y0337367D03*
X0378819Y0337367D03*
X0380787Y0337367D03*
X0382756Y0337367D03*
D81*
X0243346Y0374768D03*
X0223346Y0374768D03*
D82*
X0318583Y0272406D03*
X0337087Y0272406D03*
D83*
X0331969Y0246816D03*
X0315039Y0246816D03*
D84*
X0447913Y0370831D03*
X0447913Y0370831D03*
D85*
X0024685Y0337367D03*
X0024685Y0337367D03*
X0575866Y0069650D03*
X0575866Y0069650D03*
D86*
X0338760Y0294946D03*
X0338760Y0297505D03*
X0338760Y0300064D03*
X0338760Y0302623D03*
X0338760Y0305182D03*
X0338760Y0307741D03*
X0338760Y0310300D03*
X0338760Y0312859D03*
X0316909Y0312859D03*
X0316909Y0310300D03*
X0316909Y0307741D03*
X0316909Y0305182D03*
X0316909Y0302623D03*
X0316909Y0300064D03*
X0316909Y0297505D03*
X0316909Y0294946D03*
D87*
X0327835Y0303902D03*
D88*
X0430965Y0312131D03*
X0435965Y0312131D03*
X0440965Y0312131D03*
X0445965Y0312131D03*
X0445965Y0292131D03*
X0440965Y0292131D03*
X0435965Y0292131D03*
X0430965Y0292131D03*
D89*
X0544469Y0296028D03*
X0544469Y0287170D03*
X0544469Y0304887D03*
X0544469Y0322603D03*
X0544469Y0340320D03*
X0575768Y0340320D03*
X0575768Y0331461D03*
X0575768Y0322603D03*
X0575768Y0304887D03*
X0575768Y0287170D03*
M02*
