G75*
%MOIN*%
%OFA0B0*%
%FSLAX25Y25*%
%IPPOS*%
%LPD*%
%AMOC8*
5,1,8,0,0,1.08239X$1,22.5*
%
%ADD10C,0.00402*%
%ADD11C,0.01585*%
%ADD12R,0.03543X0.03150*%
%ADD13R,0.05906X0.05906*%
%ADD14R,0.04843X0.05906*%
%ADD15R,0.03150X0.05906*%
%ADD16R,0.03150X0.05512*%
%ADD17R,0.02756X0.06890*%
%ADD18R,0.05906X0.03937*%
%ADD19R,0.03937X0.05906*%
%ADD20R,0.01575X0.05315*%
%ADD21R,0.08661X0.02362*%
%ADD22R,0.03937X0.07087*%
%ADD23R,0.06102X0.02362*%
%ADD24C,0.01102*%
%ADD25R,0.01181X0.02362*%
%ADD26R,0.01102X0.00591*%
%ADD27R,0.00591X0.01102*%
%ADD28R,0.04724X0.01181*%
%ADD29R,0.02362X0.08661*%
%ADD30R,0.00984X0.01969*%
%ADD31R,0.00984X0.01575*%
%ADD32R,0.01732X0.02559*%
%ADD33R,0.04528X0.07087*%
%ADD34R,0.03937X0.10630*%
%ADD35R,0.04724X0.02165*%
%ADD36R,0.01181X0.06299*%
%ADD37R,0.05512X0.04724*%
%ADD38R,0.03937X0.02756*%
%ADD39R,0.02756X0.03937*%
%ADD40R,0.01969X0.00984*%
%ADD41R,0.01575X0.00984*%
%ADD42R,0.02559X0.01732*%
%ADD43C,0.01575*%
%ADD44R,0.09449X0.02992*%
%ADD45R,0.03150X0.03543*%
%ADD46R,0.07087X0.04528*%
%ADD47R,0.03150X0.03150*%
%ADD48R,0.03150X0.05709*%
%ADD49R,0.02362X0.05709*%
%ADD50R,0.06969X0.07087*%
%ADD51R,0.01181X0.02559*%
%ADD52R,0.02756X0.04724*%
%ADD53R,0.06299X0.22441*%
%ADD54R,0.09843X0.09055*%
%ADD55R,0.04134X0.01772*%
%ADD56R,0.03937X0.01969*%
%ADD57R,0.03000X0.04500*%
%ADD58R,0.06102X0.05118*%
D10*
X0086098Y0094655D02*
X0086098Y0096615D01*
X0086098Y0094655D02*
X0083744Y0094655D01*
X0083744Y0096615D01*
X0086098Y0096615D01*
X0086098Y0095056D02*
X0083744Y0095056D01*
X0083744Y0095457D02*
X0086098Y0095457D01*
X0086098Y0095858D02*
X0083744Y0095858D01*
X0083744Y0096259D02*
X0086098Y0096259D01*
X0086098Y0098592D02*
X0086098Y0100552D01*
X0086098Y0098592D02*
X0083744Y0098592D01*
X0083744Y0100552D01*
X0086098Y0100552D01*
X0086098Y0098993D02*
X0083744Y0098993D01*
X0083744Y0099394D02*
X0086098Y0099394D01*
X0086098Y0099795D02*
X0083744Y0099795D01*
X0083744Y0100196D02*
X0086098Y0100196D01*
X0083744Y0104103D02*
X0083744Y0106063D01*
X0086098Y0106063D01*
X0086098Y0104103D01*
X0083744Y0104103D01*
X0083744Y0104504D02*
X0086098Y0104504D01*
X0086098Y0104905D02*
X0083744Y0104905D01*
X0083744Y0105306D02*
X0086098Y0105306D01*
X0086098Y0105707D02*
X0083744Y0105707D01*
X0083744Y0108040D02*
X0083744Y0110000D01*
X0086098Y0110000D01*
X0086098Y0108040D01*
X0083744Y0108040D01*
X0083744Y0108441D02*
X0086098Y0108441D01*
X0086098Y0108842D02*
X0083744Y0108842D01*
X0083744Y0109243D02*
X0086098Y0109243D01*
X0086098Y0109644D02*
X0083744Y0109644D01*
X0089847Y0122205D02*
X0091807Y0122205D01*
X0091807Y0119851D01*
X0089847Y0119851D01*
X0089847Y0122205D01*
X0089847Y0120252D02*
X0091807Y0120252D01*
X0091807Y0120653D02*
X0089847Y0120653D01*
X0089847Y0121054D02*
X0091807Y0121054D01*
X0091807Y0121455D02*
X0089847Y0121455D01*
X0089847Y0121856D02*
X0091807Y0121856D01*
X0093784Y0122205D02*
X0095744Y0122205D01*
X0095744Y0119851D01*
X0093784Y0119851D01*
X0093784Y0122205D01*
X0093784Y0120252D02*
X0095744Y0120252D01*
X0095744Y0120653D02*
X0093784Y0120653D01*
X0093784Y0121054D02*
X0095744Y0121054D01*
X0095744Y0121455D02*
X0093784Y0121455D01*
X0093784Y0121856D02*
X0095744Y0121856D01*
X0124287Y0110000D02*
X0124287Y0108040D01*
X0121933Y0108040D01*
X0121933Y0110000D01*
X0124287Y0110000D01*
X0124287Y0108441D02*
X0121933Y0108441D01*
X0121933Y0108842D02*
X0124287Y0108842D01*
X0124287Y0109243D02*
X0121933Y0109243D01*
X0121933Y0109644D02*
X0124287Y0109644D01*
X0124287Y0106063D02*
X0124287Y0104103D01*
X0121933Y0104103D01*
X0121933Y0106063D01*
X0124287Y0106063D01*
X0124287Y0104504D02*
X0121933Y0104504D01*
X0121933Y0104905D02*
X0124287Y0104905D01*
X0124287Y0105306D02*
X0121933Y0105306D01*
X0121933Y0105707D02*
X0124287Y0105707D01*
X0155595Y0126339D02*
X0157555Y0126339D01*
X0157555Y0123985D01*
X0155595Y0123985D01*
X0155595Y0126339D01*
X0155595Y0124386D02*
X0157555Y0124386D01*
X0157555Y0124787D02*
X0155595Y0124787D01*
X0155595Y0125188D02*
X0157555Y0125188D01*
X0157555Y0125589D02*
X0155595Y0125589D01*
X0155595Y0125990D02*
X0157555Y0125990D01*
X0159532Y0126339D02*
X0161492Y0126339D01*
X0161492Y0123985D01*
X0159532Y0123985D01*
X0159532Y0126339D01*
X0159532Y0124386D02*
X0161492Y0124386D01*
X0161492Y0124787D02*
X0159532Y0124787D01*
X0159532Y0125188D02*
X0161492Y0125188D01*
X0161492Y0125589D02*
X0159532Y0125589D01*
X0159532Y0125990D02*
X0161492Y0125990D01*
X0146204Y0145760D02*
X0144818Y0147146D01*
X0146204Y0145760D02*
X0144540Y0144096D01*
X0143154Y0145482D01*
X0144818Y0147146D01*
X0144941Y0144497D02*
X0144139Y0144497D01*
X0143738Y0144898D02*
X0145342Y0144898D01*
X0145743Y0145299D02*
X0143337Y0145299D01*
X0143372Y0145700D02*
X0146144Y0145700D01*
X0145863Y0146101D02*
X0143773Y0146101D01*
X0144174Y0146502D02*
X0145462Y0146502D01*
X0145061Y0146903D02*
X0144575Y0146903D01*
X0143420Y0148543D02*
X0142034Y0149929D01*
X0143420Y0148543D02*
X0141756Y0146879D01*
X0140370Y0148265D01*
X0142034Y0149929D01*
X0142157Y0147280D02*
X0141355Y0147280D01*
X0140954Y0147681D02*
X0142558Y0147681D01*
X0142959Y0148082D02*
X0140553Y0148082D01*
X0140588Y0148483D02*
X0143360Y0148483D01*
X0143079Y0148884D02*
X0140989Y0148884D01*
X0141390Y0149285D02*
X0142678Y0149285D01*
X0142277Y0149686D02*
X0141791Y0149686D01*
X0131933Y0160130D02*
X0130547Y0161516D01*
X0131933Y0160130D02*
X0130269Y0158466D01*
X0128883Y0159852D01*
X0130547Y0161516D01*
X0130670Y0158867D02*
X0129868Y0158867D01*
X0129467Y0159268D02*
X0131071Y0159268D01*
X0131472Y0159669D02*
X0129066Y0159669D01*
X0129101Y0160070D02*
X0131873Y0160070D01*
X0131592Y0160471D02*
X0129502Y0160471D01*
X0129903Y0160872D02*
X0131191Y0160872D01*
X0130790Y0161273D02*
X0130304Y0161273D01*
X0129149Y0162914D02*
X0127763Y0164300D01*
X0129149Y0162914D02*
X0127485Y0161250D01*
X0126099Y0162636D01*
X0127763Y0164300D01*
X0127886Y0161651D02*
X0127084Y0161651D01*
X0126683Y0162052D02*
X0128287Y0162052D01*
X0128688Y0162453D02*
X0126282Y0162453D01*
X0126317Y0162854D02*
X0129089Y0162854D01*
X0128808Y0163255D02*
X0126718Y0163255D01*
X0127119Y0163656D02*
X0128407Y0163656D01*
X0128006Y0164057D02*
X0127520Y0164057D01*
X0113921Y0178240D02*
X0112535Y0179626D01*
X0113921Y0178240D02*
X0112257Y0176576D01*
X0110871Y0177962D01*
X0112535Y0179626D01*
X0112658Y0176977D02*
X0111856Y0176977D01*
X0111455Y0177378D02*
X0113059Y0177378D01*
X0113460Y0177779D02*
X0111054Y0177779D01*
X0111089Y0178180D02*
X0113861Y0178180D01*
X0113580Y0178581D02*
X0111490Y0178581D01*
X0111891Y0178982D02*
X0113179Y0178982D01*
X0112778Y0179383D02*
X0112292Y0179383D01*
X0111137Y0181024D02*
X0109751Y0182410D01*
X0111137Y0181024D02*
X0109473Y0179360D01*
X0108087Y0180746D01*
X0109751Y0182410D01*
X0109874Y0179761D02*
X0109072Y0179761D01*
X0108671Y0180162D02*
X0110275Y0180162D01*
X0110676Y0180563D02*
X0108270Y0180563D01*
X0108305Y0180964D02*
X0111077Y0180964D01*
X0110796Y0181365D02*
X0108706Y0181365D01*
X0109107Y0181766D02*
X0110395Y0181766D01*
X0109994Y0182167D02*
X0109508Y0182167D01*
X0113688Y0207580D02*
X0115074Y0208966D01*
X0113688Y0207580D02*
X0112024Y0209244D01*
X0113410Y0210630D01*
X0115074Y0208966D01*
X0114089Y0207981D02*
X0113287Y0207981D01*
X0112886Y0208382D02*
X0114490Y0208382D01*
X0114891Y0208783D02*
X0112485Y0208783D01*
X0112084Y0209184D02*
X0114856Y0209184D01*
X0114455Y0209585D02*
X0112365Y0209585D01*
X0112766Y0209986D02*
X0114054Y0209986D01*
X0113653Y0210387D02*
X0113167Y0210387D01*
X0116472Y0210364D02*
X0117858Y0211750D01*
X0116472Y0210364D02*
X0114808Y0212028D01*
X0116194Y0213414D01*
X0117858Y0211750D01*
X0116873Y0210765D02*
X0116071Y0210765D01*
X0115670Y0211166D02*
X0117274Y0211166D01*
X0117675Y0211567D02*
X0115269Y0211567D01*
X0114868Y0211968D02*
X0117640Y0211968D01*
X0117239Y0212369D02*
X0115149Y0212369D01*
X0115550Y0212770D02*
X0116838Y0212770D01*
X0116437Y0213171D02*
X0115951Y0213171D01*
X0106579Y0214340D02*
X0106579Y0216300D01*
X0108933Y0216300D01*
X0108933Y0214340D01*
X0106579Y0214340D01*
X0106579Y0214741D02*
X0108933Y0214741D01*
X0108933Y0215142D02*
X0106579Y0215142D01*
X0106579Y0215543D02*
X0108933Y0215543D01*
X0108933Y0215944D02*
X0106579Y0215944D01*
X0106579Y0218277D02*
X0106579Y0220237D01*
X0108933Y0220237D01*
X0108933Y0218277D01*
X0106579Y0218277D01*
X0106579Y0218678D02*
X0108933Y0218678D01*
X0108933Y0219079D02*
X0106579Y0219079D01*
X0106579Y0219480D02*
X0108933Y0219480D01*
X0108933Y0219881D02*
X0106579Y0219881D01*
X0131700Y0227166D02*
X0133086Y0228552D01*
X0131700Y0227166D02*
X0130036Y0228830D01*
X0131422Y0230216D01*
X0133086Y0228552D01*
X0132101Y0227567D02*
X0131299Y0227567D01*
X0130898Y0227968D02*
X0132502Y0227968D01*
X0132903Y0228369D02*
X0130497Y0228369D01*
X0130096Y0228770D02*
X0132868Y0228770D01*
X0132467Y0229171D02*
X0130377Y0229171D01*
X0130778Y0229572D02*
X0132066Y0229572D01*
X0131665Y0229973D02*
X0131179Y0229973D01*
X0134484Y0229950D02*
X0135870Y0231336D01*
X0134484Y0229950D02*
X0132820Y0231614D01*
X0134206Y0233000D01*
X0135870Y0231336D01*
X0134885Y0230351D02*
X0134083Y0230351D01*
X0133682Y0230752D02*
X0135286Y0230752D01*
X0135687Y0231153D02*
X0133281Y0231153D01*
X0132880Y0231554D02*
X0135652Y0231554D01*
X0135251Y0231955D02*
X0133161Y0231955D01*
X0133562Y0232356D02*
X0134850Y0232356D01*
X0134449Y0232757D02*
X0133963Y0232757D01*
X0147054Y0243800D02*
X0148440Y0245186D01*
X0147054Y0243800D02*
X0145390Y0245464D01*
X0146776Y0246850D01*
X0148440Y0245186D01*
X0147455Y0244201D02*
X0146653Y0244201D01*
X0146252Y0244602D02*
X0147856Y0244602D01*
X0148257Y0245003D02*
X0145851Y0245003D01*
X0145450Y0245404D02*
X0148222Y0245404D01*
X0147821Y0245805D02*
X0145731Y0245805D01*
X0146132Y0246206D02*
X0147420Y0246206D01*
X0147019Y0246607D02*
X0146533Y0246607D01*
X0149838Y0246584D02*
X0151224Y0247970D01*
X0149838Y0246584D02*
X0148174Y0248248D01*
X0149560Y0249634D01*
X0151224Y0247970D01*
X0150239Y0246985D02*
X0149437Y0246985D01*
X0149036Y0247386D02*
X0150640Y0247386D01*
X0151041Y0247787D02*
X0148635Y0247787D01*
X0148234Y0248188D02*
X0151006Y0248188D01*
X0150605Y0248589D02*
X0148515Y0248589D01*
X0148916Y0248990D02*
X0150204Y0248990D01*
X0149803Y0249391D02*
X0149317Y0249391D01*
X0163983Y0259647D02*
X0165369Y0261033D01*
X0163983Y0259647D02*
X0162319Y0261311D01*
X0163705Y0262697D01*
X0165369Y0261033D01*
X0164384Y0260048D02*
X0163582Y0260048D01*
X0163181Y0260449D02*
X0164785Y0260449D01*
X0165186Y0260850D02*
X0162780Y0260850D01*
X0162379Y0261251D02*
X0165151Y0261251D01*
X0164750Y0261652D02*
X0162660Y0261652D01*
X0163061Y0262053D02*
X0164349Y0262053D01*
X0163948Y0262454D02*
X0163462Y0262454D01*
X0166767Y0262431D02*
X0168153Y0263817D01*
X0166767Y0262431D02*
X0165103Y0264095D01*
X0166489Y0265481D01*
X0168153Y0263817D01*
X0167168Y0262832D02*
X0166366Y0262832D01*
X0165965Y0263233D02*
X0167569Y0263233D01*
X0167970Y0263634D02*
X0165564Y0263634D01*
X0165163Y0264035D02*
X0167935Y0264035D01*
X0167534Y0264436D02*
X0165444Y0264436D01*
X0165845Y0264837D02*
X0167133Y0264837D01*
X0166732Y0265238D02*
X0166246Y0265238D01*
X0194298Y0261347D02*
X0195684Y0259961D01*
X0194020Y0258297D01*
X0192634Y0259683D01*
X0194298Y0261347D01*
X0194421Y0258698D02*
X0193619Y0258698D01*
X0193218Y0259099D02*
X0194822Y0259099D01*
X0195223Y0259500D02*
X0192817Y0259500D01*
X0192852Y0259901D02*
X0195624Y0259901D01*
X0195343Y0260302D02*
X0193253Y0260302D01*
X0193654Y0260703D02*
X0194942Y0260703D01*
X0194541Y0261104D02*
X0194055Y0261104D01*
X0197082Y0258563D02*
X0198468Y0257177D01*
X0196804Y0255513D01*
X0195418Y0256899D01*
X0197082Y0258563D01*
X0197205Y0255914D02*
X0196403Y0255914D01*
X0196002Y0256315D02*
X0197606Y0256315D01*
X0198007Y0256716D02*
X0195601Y0256716D01*
X0195636Y0257117D02*
X0198408Y0257117D01*
X0198127Y0257518D02*
X0196037Y0257518D01*
X0196438Y0257919D02*
X0197726Y0257919D01*
X0197325Y0258320D02*
X0196839Y0258320D01*
X0204807Y0255481D02*
X0206767Y0255481D01*
X0204807Y0255481D02*
X0204807Y0257835D01*
X0206767Y0257835D01*
X0206767Y0255481D01*
X0206767Y0255882D02*
X0204807Y0255882D01*
X0204807Y0256283D02*
X0206767Y0256283D01*
X0206767Y0256684D02*
X0204807Y0256684D01*
X0204807Y0257085D02*
X0206767Y0257085D01*
X0206767Y0257486D02*
X0204807Y0257486D01*
X0208744Y0255481D02*
X0210704Y0255481D01*
X0208744Y0255481D02*
X0208744Y0257835D01*
X0210704Y0257835D01*
X0210704Y0255481D01*
X0210704Y0255882D02*
X0208744Y0255882D01*
X0208744Y0256283D02*
X0210704Y0256283D01*
X0210704Y0256684D02*
X0208744Y0256684D01*
X0208744Y0257085D02*
X0210704Y0257085D01*
X0210704Y0257486D02*
X0208744Y0257486D01*
X0208874Y0242754D02*
X0210260Y0241368D01*
X0208874Y0242754D02*
X0210538Y0244418D01*
X0211924Y0243032D01*
X0210260Y0241368D01*
X0210661Y0241769D02*
X0209859Y0241769D01*
X0209458Y0242170D02*
X0211062Y0242170D01*
X0211463Y0242571D02*
X0209057Y0242571D01*
X0209092Y0242972D02*
X0211864Y0242972D01*
X0211583Y0243373D02*
X0209493Y0243373D01*
X0209894Y0243774D02*
X0211182Y0243774D01*
X0210781Y0244175D02*
X0210295Y0244175D01*
X0211658Y0239970D02*
X0213044Y0238584D01*
X0211658Y0239970D02*
X0213322Y0241634D01*
X0214708Y0240248D01*
X0213044Y0238584D01*
X0213445Y0238985D02*
X0212643Y0238985D01*
X0212242Y0239386D02*
X0213846Y0239386D01*
X0214247Y0239787D02*
X0211841Y0239787D01*
X0211876Y0240188D02*
X0214648Y0240188D01*
X0214367Y0240589D02*
X0212277Y0240589D01*
X0212678Y0240990D02*
X0213966Y0240990D01*
X0213565Y0241391D02*
X0213079Y0241391D01*
X0225410Y0230352D02*
X0226796Y0228966D01*
X0225410Y0230352D02*
X0227074Y0232016D01*
X0228460Y0230630D01*
X0226796Y0228966D01*
X0227197Y0229367D02*
X0226395Y0229367D01*
X0225994Y0229768D02*
X0227598Y0229768D01*
X0227999Y0230169D02*
X0225593Y0230169D01*
X0225628Y0230570D02*
X0228400Y0230570D01*
X0228119Y0230971D02*
X0226029Y0230971D01*
X0226430Y0231372D02*
X0227718Y0231372D01*
X0227317Y0231773D02*
X0226831Y0231773D01*
X0228194Y0227568D02*
X0229580Y0226182D01*
X0228194Y0227568D02*
X0229858Y0229232D01*
X0231244Y0227846D01*
X0229580Y0226182D01*
X0229981Y0226583D02*
X0229179Y0226583D01*
X0228778Y0226984D02*
X0230382Y0226984D01*
X0230783Y0227385D02*
X0228377Y0227385D01*
X0228412Y0227786D02*
X0231184Y0227786D01*
X0230903Y0228187D02*
X0228813Y0228187D01*
X0229214Y0228588D02*
X0230502Y0228588D01*
X0230101Y0228989D02*
X0229615Y0228989D01*
X0234367Y0227846D02*
X0235753Y0229232D01*
X0237417Y0227568D01*
X0236031Y0226182D01*
X0234367Y0227846D01*
X0235630Y0226583D02*
X0236432Y0226583D01*
X0236833Y0226984D02*
X0235229Y0226984D01*
X0234828Y0227385D02*
X0237234Y0227385D01*
X0237199Y0227786D02*
X0234427Y0227786D01*
X0234708Y0228187D02*
X0236798Y0228187D01*
X0236397Y0228588D02*
X0235109Y0228588D01*
X0235510Y0228989D02*
X0235996Y0228989D01*
X0237150Y0230630D02*
X0238536Y0232016D01*
X0240200Y0230352D01*
X0238814Y0228966D01*
X0237150Y0230630D01*
X0238413Y0229367D02*
X0239215Y0229367D01*
X0239616Y0229768D02*
X0238012Y0229768D01*
X0237611Y0230169D02*
X0240017Y0230169D01*
X0239982Y0230570D02*
X0237210Y0230570D01*
X0237491Y0230971D02*
X0239581Y0230971D01*
X0239180Y0231372D02*
X0237892Y0231372D01*
X0238293Y0231773D02*
X0238779Y0231773D01*
X0250083Y0214528D02*
X0252043Y0214528D01*
X0252043Y0212174D01*
X0250083Y0212174D01*
X0250083Y0214528D01*
X0250083Y0212575D02*
X0252043Y0212575D01*
X0252043Y0212976D02*
X0250083Y0212976D01*
X0250083Y0213377D02*
X0252043Y0213377D01*
X0252043Y0213778D02*
X0250083Y0213778D01*
X0250083Y0214179D02*
X0252043Y0214179D01*
X0254020Y0214528D02*
X0255980Y0214528D01*
X0255980Y0212174D01*
X0254020Y0212174D01*
X0254020Y0214528D01*
X0254020Y0212575D02*
X0255980Y0212575D01*
X0255980Y0212976D02*
X0254020Y0212976D01*
X0254020Y0213377D02*
X0255980Y0213377D01*
X0255980Y0213778D02*
X0254020Y0213778D01*
X0254020Y0214179D02*
X0255980Y0214179D01*
X0255980Y0209804D02*
X0254020Y0209804D01*
X0255980Y0209804D02*
X0255980Y0207450D01*
X0254020Y0207450D01*
X0254020Y0209804D01*
X0254020Y0207851D02*
X0255980Y0207851D01*
X0255980Y0208252D02*
X0254020Y0208252D01*
X0254020Y0208653D02*
X0255980Y0208653D01*
X0255980Y0209054D02*
X0254020Y0209054D01*
X0254020Y0209455D02*
X0255980Y0209455D01*
X0252043Y0209804D02*
X0250083Y0209804D01*
X0252043Y0209804D02*
X0252043Y0207450D01*
X0250083Y0207450D01*
X0250083Y0209804D01*
X0250083Y0207851D02*
X0252043Y0207851D01*
X0252043Y0208252D02*
X0250083Y0208252D01*
X0250083Y0208653D02*
X0252043Y0208653D01*
X0252043Y0209054D02*
X0250083Y0209054D01*
X0250083Y0209455D02*
X0252043Y0209455D01*
X0245426Y0206497D02*
X0244040Y0207883D01*
X0245704Y0209547D01*
X0247090Y0208161D01*
X0245426Y0206497D01*
X0245827Y0206898D02*
X0245025Y0206898D01*
X0244624Y0207299D02*
X0246228Y0207299D01*
X0246629Y0207700D02*
X0244223Y0207700D01*
X0244258Y0208101D02*
X0247030Y0208101D01*
X0246749Y0208502D02*
X0244659Y0208502D01*
X0245060Y0208903D02*
X0246348Y0208903D01*
X0245947Y0209304D02*
X0245461Y0209304D01*
X0242642Y0209281D02*
X0241256Y0210667D01*
X0242920Y0212331D01*
X0244306Y0210945D01*
X0242642Y0209281D01*
X0243043Y0209682D02*
X0242241Y0209682D01*
X0241840Y0210083D02*
X0243444Y0210083D01*
X0243845Y0210484D02*
X0241439Y0210484D01*
X0241474Y0210885D02*
X0244246Y0210885D01*
X0243965Y0211286D02*
X0241875Y0211286D01*
X0242276Y0211687D02*
X0243564Y0211687D01*
X0243163Y0212088D02*
X0242677Y0212088D01*
X0250083Y0202725D02*
X0252043Y0202725D01*
X0250083Y0202725D02*
X0250083Y0205079D01*
X0252043Y0205079D01*
X0252043Y0202725D01*
X0252043Y0203126D02*
X0250083Y0203126D01*
X0250083Y0203527D02*
X0252043Y0203527D01*
X0252043Y0203928D02*
X0250083Y0203928D01*
X0250083Y0204329D02*
X0252043Y0204329D01*
X0252043Y0204730D02*
X0250083Y0204730D01*
X0254020Y0202725D02*
X0255980Y0202725D01*
X0254020Y0202725D02*
X0254020Y0205079D01*
X0255980Y0205079D01*
X0255980Y0202725D01*
X0255980Y0203126D02*
X0254020Y0203126D01*
X0254020Y0203527D02*
X0255980Y0203527D01*
X0255980Y0203928D02*
X0254020Y0203928D01*
X0254020Y0204329D02*
X0255980Y0204329D01*
X0255980Y0204730D02*
X0254020Y0204730D01*
X0267603Y0206466D02*
X0267603Y0208426D01*
X0269957Y0208426D01*
X0269957Y0206466D01*
X0267603Y0206466D01*
X0267603Y0206867D02*
X0269957Y0206867D01*
X0269957Y0207268D02*
X0267603Y0207268D01*
X0267603Y0207669D02*
X0269957Y0207669D01*
X0269957Y0208070D02*
X0267603Y0208070D01*
X0267603Y0210403D02*
X0267603Y0212363D01*
X0269957Y0212363D01*
X0269957Y0210403D01*
X0267603Y0210403D01*
X0267603Y0210804D02*
X0269957Y0210804D01*
X0269957Y0211205D02*
X0267603Y0211205D01*
X0267603Y0211606D02*
X0269957Y0211606D01*
X0269957Y0212007D02*
X0267603Y0212007D01*
X0275075Y0212363D02*
X0275075Y0210403D01*
X0272721Y0210403D01*
X0272721Y0212363D01*
X0275075Y0212363D01*
X0275075Y0210804D02*
X0272721Y0210804D01*
X0272721Y0211205D02*
X0275075Y0211205D01*
X0275075Y0211606D02*
X0272721Y0211606D01*
X0272721Y0212007D02*
X0275075Y0212007D01*
X0275075Y0208426D02*
X0275075Y0206466D01*
X0272721Y0206466D01*
X0272721Y0208426D01*
X0275075Y0208426D01*
X0275075Y0206867D02*
X0272721Y0206867D01*
X0272721Y0207268D02*
X0275075Y0207268D01*
X0275075Y0207669D02*
X0272721Y0207669D01*
X0272721Y0208070D02*
X0275075Y0208070D01*
X0292406Y0200552D02*
X0292406Y0198592D01*
X0292406Y0200552D02*
X0294760Y0200552D01*
X0294760Y0198592D01*
X0292406Y0198592D01*
X0292406Y0198993D02*
X0294760Y0198993D01*
X0294760Y0199394D02*
X0292406Y0199394D01*
X0292406Y0199795D02*
X0294760Y0199795D01*
X0294760Y0200196D02*
X0292406Y0200196D01*
X0292406Y0196615D02*
X0292406Y0194655D01*
X0292406Y0196615D02*
X0294760Y0196615D01*
X0294760Y0194655D01*
X0292406Y0194655D01*
X0292406Y0195056D02*
X0294760Y0195056D01*
X0294760Y0195457D02*
X0292406Y0195457D01*
X0292406Y0195858D02*
X0294760Y0195858D01*
X0294760Y0196259D02*
X0292406Y0196259D01*
X0305989Y0206859D02*
X0307949Y0206859D01*
X0305989Y0206859D02*
X0305989Y0209213D01*
X0307949Y0209213D01*
X0307949Y0206859D01*
X0307949Y0207260D02*
X0305989Y0207260D01*
X0305989Y0207661D02*
X0307949Y0207661D01*
X0307949Y0208062D02*
X0305989Y0208062D01*
X0305989Y0208463D02*
X0307949Y0208463D01*
X0307949Y0208864D02*
X0305989Y0208864D01*
X0309926Y0206859D02*
X0311886Y0206859D01*
X0309926Y0206859D02*
X0309926Y0209213D01*
X0311886Y0209213D01*
X0311886Y0206859D01*
X0311886Y0207260D02*
X0309926Y0207260D01*
X0309926Y0207661D02*
X0311886Y0207661D01*
X0311886Y0208062D02*
X0309926Y0208062D01*
X0309926Y0208463D02*
X0311886Y0208463D01*
X0311886Y0208864D02*
X0309926Y0208864D01*
X0304602Y0217284D02*
X0302642Y0217284D01*
X0304602Y0217284D02*
X0304602Y0214930D01*
X0302642Y0214930D01*
X0302642Y0217284D01*
X0302642Y0215331D02*
X0304602Y0215331D01*
X0304602Y0215732D02*
X0302642Y0215732D01*
X0302642Y0216133D02*
X0304602Y0216133D01*
X0304602Y0216534D02*
X0302642Y0216534D01*
X0302642Y0216935D02*
X0304602Y0216935D01*
X0300665Y0217284D02*
X0298705Y0217284D01*
X0300665Y0217284D02*
X0300665Y0214930D01*
X0298705Y0214930D01*
X0298705Y0217284D01*
X0298705Y0215331D02*
X0300665Y0215331D01*
X0300665Y0215732D02*
X0298705Y0215732D01*
X0298705Y0216133D02*
X0300665Y0216133D01*
X0300665Y0216534D02*
X0298705Y0216534D01*
X0298705Y0216935D02*
X0300665Y0216935D01*
X0309138Y0220245D02*
X0309138Y0222205D01*
X0311492Y0222205D01*
X0311492Y0220245D01*
X0309138Y0220245D01*
X0309138Y0220646D02*
X0311492Y0220646D01*
X0311492Y0221047D02*
X0309138Y0221047D01*
X0309138Y0221448D02*
X0311492Y0221448D01*
X0311492Y0221849D02*
X0309138Y0221849D01*
X0309138Y0224182D02*
X0309138Y0226142D01*
X0311492Y0226142D01*
X0311492Y0224182D01*
X0309138Y0224182D01*
X0309138Y0224583D02*
X0311492Y0224583D01*
X0311492Y0224984D02*
X0309138Y0224984D01*
X0309138Y0225385D02*
X0311492Y0225385D01*
X0311492Y0225786D02*
X0309138Y0225786D01*
X0303224Y0235197D02*
X0301264Y0235197D01*
X0303224Y0235197D02*
X0303224Y0232843D01*
X0301264Y0232843D01*
X0301264Y0235197D01*
X0301264Y0233244D02*
X0303224Y0233244D01*
X0303224Y0233645D02*
X0301264Y0233645D01*
X0301264Y0234046D02*
X0303224Y0234046D01*
X0303224Y0234447D02*
X0301264Y0234447D01*
X0301264Y0234848D02*
X0303224Y0234848D01*
X0303224Y0237568D02*
X0301264Y0237568D01*
X0301264Y0239922D01*
X0303224Y0239922D01*
X0303224Y0237568D01*
X0303224Y0237969D02*
X0301264Y0237969D01*
X0301264Y0238370D02*
X0303224Y0238370D01*
X0303224Y0238771D02*
X0301264Y0238771D01*
X0301264Y0239172D02*
X0303224Y0239172D01*
X0303224Y0239573D02*
X0301264Y0239573D01*
X0299287Y0237568D02*
X0297327Y0237568D01*
X0297327Y0239922D01*
X0299287Y0239922D01*
X0299287Y0237568D01*
X0299287Y0237969D02*
X0297327Y0237969D01*
X0297327Y0238370D02*
X0299287Y0238370D01*
X0299287Y0238771D02*
X0297327Y0238771D01*
X0297327Y0239172D02*
X0299287Y0239172D01*
X0299287Y0239573D02*
X0297327Y0239573D01*
X0295350Y0237568D02*
X0293390Y0237568D01*
X0293390Y0239922D01*
X0295350Y0239922D01*
X0295350Y0237568D01*
X0295350Y0237969D02*
X0293390Y0237969D01*
X0293390Y0238370D02*
X0295350Y0238370D01*
X0295350Y0238771D02*
X0293390Y0238771D01*
X0293390Y0239172D02*
X0295350Y0239172D01*
X0295350Y0239573D02*
X0293390Y0239573D01*
X0291413Y0237568D02*
X0289453Y0237568D01*
X0289453Y0239922D01*
X0291413Y0239922D01*
X0291413Y0237568D01*
X0291413Y0237969D02*
X0289453Y0237969D01*
X0289453Y0238370D02*
X0291413Y0238370D01*
X0291413Y0238771D02*
X0289453Y0238771D01*
X0289453Y0239172D02*
X0291413Y0239172D01*
X0291413Y0239573D02*
X0289453Y0239573D01*
X0289453Y0235197D02*
X0291413Y0235197D01*
X0291413Y0232843D01*
X0289453Y0232843D01*
X0289453Y0235197D01*
X0289453Y0233244D02*
X0291413Y0233244D01*
X0291413Y0233645D02*
X0289453Y0233645D01*
X0289453Y0234046D02*
X0291413Y0234046D01*
X0291413Y0234447D02*
X0289453Y0234447D01*
X0289453Y0234848D02*
X0291413Y0234848D01*
X0293390Y0235197D02*
X0295350Y0235197D01*
X0295350Y0232843D01*
X0293390Y0232843D01*
X0293390Y0235197D01*
X0293390Y0233244D02*
X0295350Y0233244D01*
X0295350Y0233645D02*
X0293390Y0233645D01*
X0293390Y0234046D02*
X0295350Y0234046D01*
X0295350Y0234447D02*
X0293390Y0234447D01*
X0293390Y0234848D02*
X0295350Y0234848D01*
X0297327Y0235197D02*
X0299287Y0235197D01*
X0299287Y0232843D01*
X0297327Y0232843D01*
X0297327Y0235197D01*
X0297327Y0233244D02*
X0299287Y0233244D01*
X0299287Y0233645D02*
X0297327Y0233645D01*
X0297327Y0234046D02*
X0299287Y0234046D01*
X0299287Y0234447D02*
X0297327Y0234447D01*
X0297327Y0234848D02*
X0299287Y0234848D01*
X0281579Y0235394D02*
X0281579Y0233434D01*
X0281579Y0235394D02*
X0283933Y0235394D01*
X0283933Y0233434D01*
X0281579Y0233434D01*
X0281579Y0233835D02*
X0283933Y0233835D01*
X0283933Y0234236D02*
X0281579Y0234236D01*
X0281579Y0234637D02*
X0283933Y0234637D01*
X0283933Y0235038D02*
X0281579Y0235038D01*
X0281579Y0231457D02*
X0281579Y0229497D01*
X0281579Y0231457D02*
X0283933Y0231457D01*
X0283933Y0229497D01*
X0281579Y0229497D01*
X0281579Y0229898D02*
X0283933Y0229898D01*
X0283933Y0230299D02*
X0281579Y0230299D01*
X0281579Y0230700D02*
X0283933Y0230700D01*
X0283933Y0231101D02*
X0281579Y0231101D01*
X0315831Y0199370D02*
X0315831Y0197410D01*
X0315831Y0199370D02*
X0318185Y0199370D01*
X0318185Y0197410D01*
X0315831Y0197410D01*
X0315831Y0197811D02*
X0318185Y0197811D01*
X0318185Y0198212D02*
X0315831Y0198212D01*
X0315831Y0198613D02*
X0318185Y0198613D01*
X0318185Y0199014D02*
X0315831Y0199014D01*
X0315831Y0195433D02*
X0315831Y0193473D01*
X0315831Y0195433D02*
X0318185Y0195433D01*
X0318185Y0193473D01*
X0315831Y0193473D01*
X0315831Y0193874D02*
X0318185Y0193874D01*
X0318185Y0194275D02*
X0315831Y0194275D01*
X0315831Y0194676D02*
X0318185Y0194676D01*
X0318185Y0195077D02*
X0315831Y0195077D01*
X0253586Y0175628D02*
X0252200Y0174242D01*
X0250536Y0175906D01*
X0251922Y0177292D01*
X0253586Y0175628D01*
X0252601Y0174643D02*
X0251799Y0174643D01*
X0251398Y0175044D02*
X0253002Y0175044D01*
X0253403Y0175445D02*
X0250997Y0175445D01*
X0250596Y0175846D02*
X0253368Y0175846D01*
X0252967Y0176247D02*
X0250877Y0176247D01*
X0251278Y0176648D02*
X0252566Y0176648D01*
X0252165Y0177049D02*
X0251679Y0177049D01*
X0250043Y0179171D02*
X0248657Y0177785D01*
X0246993Y0179449D01*
X0248379Y0180835D01*
X0250043Y0179171D01*
X0249058Y0178186D02*
X0248256Y0178186D01*
X0247855Y0178587D02*
X0249459Y0178587D01*
X0249860Y0178988D02*
X0247454Y0178988D01*
X0247053Y0179389D02*
X0249825Y0179389D01*
X0249424Y0179790D02*
X0247334Y0179790D01*
X0247735Y0180191D02*
X0249023Y0180191D01*
X0248622Y0180592D02*
X0248136Y0180592D01*
X0247259Y0176387D02*
X0245873Y0175001D01*
X0244209Y0176665D01*
X0245595Y0178051D01*
X0247259Y0176387D01*
X0246274Y0175402D02*
X0245472Y0175402D01*
X0245071Y0175803D02*
X0246675Y0175803D01*
X0247076Y0176204D02*
X0244670Y0176204D01*
X0244269Y0176605D02*
X0247041Y0176605D01*
X0246640Y0177006D02*
X0244550Y0177006D01*
X0244951Y0177407D02*
X0246239Y0177407D01*
X0245838Y0177808D02*
X0245352Y0177808D01*
X0250802Y0172844D02*
X0249416Y0171458D01*
X0247752Y0173122D01*
X0249138Y0174508D01*
X0250802Y0172844D01*
X0249817Y0171859D02*
X0249015Y0171859D01*
X0248614Y0172260D02*
X0250218Y0172260D01*
X0250619Y0172661D02*
X0248213Y0172661D01*
X0247812Y0173062D02*
X0250584Y0173062D01*
X0250183Y0173463D02*
X0248093Y0173463D01*
X0248494Y0173864D02*
X0249782Y0173864D01*
X0249381Y0174265D02*
X0248895Y0174265D01*
X0245229Y0172567D02*
X0243843Y0171181D01*
X0245229Y0172567D02*
X0246893Y0170903D01*
X0245507Y0169517D01*
X0243843Y0171181D01*
X0245106Y0169918D02*
X0245908Y0169918D01*
X0246309Y0170319D02*
X0244705Y0170319D01*
X0244304Y0170720D02*
X0246710Y0170720D01*
X0246675Y0171121D02*
X0243903Y0171121D01*
X0244184Y0171522D02*
X0246274Y0171522D01*
X0245873Y0171923D02*
X0244585Y0171923D01*
X0244986Y0172324D02*
X0245472Y0172324D01*
X0242445Y0169783D02*
X0241059Y0168397D01*
X0242445Y0169783D02*
X0244109Y0168119D01*
X0242723Y0166733D01*
X0241059Y0168397D01*
X0242322Y0167134D02*
X0243124Y0167134D01*
X0243525Y0167535D02*
X0241921Y0167535D01*
X0241520Y0167936D02*
X0243926Y0167936D01*
X0243891Y0168337D02*
X0241119Y0168337D01*
X0241400Y0168738D02*
X0243490Y0168738D01*
X0243089Y0169139D02*
X0241801Y0169139D01*
X0242202Y0169540D02*
X0242688Y0169540D01*
X0240791Y0171691D02*
X0239405Y0170305D01*
X0237741Y0171969D01*
X0239127Y0173355D01*
X0240791Y0171691D01*
X0239806Y0170706D02*
X0239004Y0170706D01*
X0238603Y0171107D02*
X0240207Y0171107D01*
X0240608Y0171508D02*
X0238202Y0171508D01*
X0237801Y0171909D02*
X0240573Y0171909D01*
X0240172Y0172310D02*
X0238082Y0172310D01*
X0238483Y0172711D02*
X0239771Y0172711D01*
X0239370Y0173112D02*
X0238884Y0173112D01*
X0238007Y0168907D02*
X0236621Y0167521D01*
X0234957Y0169185D01*
X0236343Y0170571D01*
X0238007Y0168907D01*
X0237022Y0167922D02*
X0236220Y0167922D01*
X0235819Y0168323D02*
X0237423Y0168323D01*
X0237824Y0168724D02*
X0235418Y0168724D01*
X0235017Y0169125D02*
X0237789Y0169125D01*
X0237388Y0169526D02*
X0235298Y0169526D01*
X0235699Y0169927D02*
X0236987Y0169927D01*
X0236586Y0170328D02*
X0236100Y0170328D01*
X0244603Y0164854D02*
X0245989Y0166240D01*
X0247653Y0164576D01*
X0246267Y0163190D01*
X0244603Y0164854D01*
X0245866Y0163591D02*
X0246668Y0163591D01*
X0247069Y0163992D02*
X0245465Y0163992D01*
X0245064Y0164393D02*
X0247470Y0164393D01*
X0247435Y0164794D02*
X0244663Y0164794D01*
X0244944Y0165195D02*
X0247034Y0165195D01*
X0246633Y0165596D02*
X0245345Y0165596D01*
X0245746Y0165997D02*
X0246232Y0165997D01*
X0247387Y0167638D02*
X0248773Y0169024D01*
X0250437Y0167360D01*
X0249051Y0165974D01*
X0247387Y0167638D01*
X0248650Y0166375D02*
X0249452Y0166375D01*
X0249853Y0166776D02*
X0248249Y0166776D01*
X0247848Y0167177D02*
X0250254Y0167177D01*
X0250219Y0167578D02*
X0247447Y0167578D01*
X0247728Y0167979D02*
X0249818Y0167979D01*
X0249417Y0168380D02*
X0248129Y0168380D01*
X0248530Y0168781D02*
X0249016Y0168781D01*
X0252316Y0165481D02*
X0250930Y0164095D01*
X0252316Y0165481D02*
X0253980Y0163817D01*
X0252594Y0162431D01*
X0250930Y0164095D01*
X0252193Y0162832D02*
X0252995Y0162832D01*
X0253396Y0163233D02*
X0251792Y0163233D01*
X0251391Y0163634D02*
X0253797Y0163634D01*
X0253762Y0164035D02*
X0250990Y0164035D01*
X0251271Y0164436D02*
X0253361Y0164436D01*
X0252960Y0164837D02*
X0251672Y0164837D01*
X0252073Y0165238D02*
X0252559Y0165238D01*
X0249532Y0162697D02*
X0248146Y0161311D01*
X0249532Y0162697D02*
X0251196Y0161033D01*
X0249810Y0159647D01*
X0248146Y0161311D01*
X0249409Y0160048D02*
X0250211Y0160048D01*
X0250612Y0160449D02*
X0249008Y0160449D01*
X0248607Y0160850D02*
X0251013Y0160850D01*
X0250978Y0161251D02*
X0248206Y0161251D01*
X0248487Y0161652D02*
X0250577Y0161652D01*
X0250176Y0162053D02*
X0248888Y0162053D01*
X0249289Y0162454D02*
X0249775Y0162454D01*
X0243716Y0159370D02*
X0242330Y0160756D01*
X0243716Y0159370D02*
X0242052Y0157706D01*
X0240666Y0159092D01*
X0242330Y0160756D01*
X0242453Y0158107D02*
X0241651Y0158107D01*
X0241250Y0158508D02*
X0242854Y0158508D01*
X0243255Y0158909D02*
X0240849Y0158909D01*
X0240884Y0159310D02*
X0243656Y0159310D01*
X0243375Y0159711D02*
X0241285Y0159711D01*
X0241686Y0160112D02*
X0242974Y0160112D01*
X0242573Y0160513D02*
X0242087Y0160513D01*
X0245114Y0157972D02*
X0246500Y0156586D01*
X0244836Y0154922D01*
X0243450Y0156308D01*
X0245114Y0157972D01*
X0245237Y0155323D02*
X0244435Y0155323D01*
X0244034Y0155724D02*
X0245638Y0155724D01*
X0246039Y0156125D02*
X0243633Y0156125D01*
X0243668Y0156526D02*
X0246440Y0156526D01*
X0246159Y0156927D02*
X0244069Y0156927D01*
X0244470Y0157328D02*
X0245758Y0157328D01*
X0245357Y0157729D02*
X0244871Y0157729D01*
X0252960Y0150520D02*
X0254346Y0149134D01*
X0252682Y0147470D01*
X0251296Y0148856D01*
X0252960Y0150520D01*
X0253083Y0147871D02*
X0252281Y0147871D01*
X0251880Y0148272D02*
X0253484Y0148272D01*
X0253885Y0148673D02*
X0251479Y0148673D01*
X0251514Y0149074D02*
X0254286Y0149074D01*
X0254005Y0149475D02*
X0251915Y0149475D01*
X0252316Y0149876D02*
X0253604Y0149876D01*
X0253203Y0150277D02*
X0252717Y0150277D01*
X0255744Y0147736D02*
X0257130Y0146350D01*
X0255466Y0144686D01*
X0254080Y0146072D01*
X0255744Y0147736D01*
X0255867Y0145087D02*
X0255065Y0145087D01*
X0254664Y0145488D02*
X0256268Y0145488D01*
X0256669Y0145889D02*
X0254263Y0145889D01*
X0254298Y0146290D02*
X0257070Y0146290D01*
X0256789Y0146691D02*
X0254699Y0146691D01*
X0255100Y0147092D02*
X0256388Y0147092D01*
X0255987Y0147493D02*
X0255501Y0147493D01*
X0270555Y0151150D02*
X0272515Y0151150D01*
X0270555Y0151150D02*
X0270555Y0153504D01*
X0272515Y0153504D01*
X0272515Y0151150D01*
X0272515Y0151551D02*
X0270555Y0151551D01*
X0270555Y0151952D02*
X0272515Y0151952D01*
X0272515Y0152353D02*
X0270555Y0152353D01*
X0270555Y0152754D02*
X0272515Y0152754D01*
X0272515Y0153155D02*
X0270555Y0153155D01*
X0274492Y0151150D02*
X0276452Y0151150D01*
X0274492Y0151150D02*
X0274492Y0153504D01*
X0276452Y0153504D01*
X0276452Y0151150D01*
X0276452Y0151551D02*
X0274492Y0151551D01*
X0274492Y0151952D02*
X0276452Y0151952D01*
X0276452Y0152353D02*
X0274492Y0152353D01*
X0274492Y0152754D02*
X0276452Y0152754D01*
X0276452Y0153155D02*
X0274492Y0153155D01*
X0247484Y0128830D02*
X0246098Y0130216D01*
X0247484Y0128830D02*
X0245820Y0127166D01*
X0244434Y0128552D01*
X0246098Y0130216D01*
X0246221Y0127567D02*
X0245419Y0127567D01*
X0245018Y0127968D02*
X0246622Y0127968D01*
X0247023Y0128369D02*
X0244617Y0128369D01*
X0244652Y0128770D02*
X0247424Y0128770D01*
X0247143Y0129171D02*
X0245053Y0129171D01*
X0245454Y0129572D02*
X0246742Y0129572D01*
X0246341Y0129973D02*
X0245855Y0129973D01*
X0244700Y0131614D02*
X0243314Y0133000D01*
X0244700Y0131614D02*
X0243036Y0129950D01*
X0241650Y0131336D01*
X0243314Y0133000D01*
X0243437Y0130351D02*
X0242635Y0130351D01*
X0242234Y0130752D02*
X0243838Y0130752D01*
X0244239Y0131153D02*
X0241833Y0131153D01*
X0241868Y0131554D02*
X0244640Y0131554D01*
X0244359Y0131955D02*
X0242269Y0131955D01*
X0242670Y0132356D02*
X0243958Y0132356D01*
X0243557Y0132757D02*
X0243071Y0132757D01*
X0240988Y0136114D02*
X0239602Y0137500D01*
X0240988Y0136114D02*
X0239324Y0134450D01*
X0237938Y0135836D01*
X0239602Y0137500D01*
X0239725Y0134851D02*
X0238923Y0134851D01*
X0238522Y0135252D02*
X0240126Y0135252D01*
X0240527Y0135653D02*
X0238121Y0135653D01*
X0238156Y0136054D02*
X0240928Y0136054D01*
X0240647Y0136455D02*
X0238557Y0136455D01*
X0238958Y0136856D02*
X0240246Y0136856D01*
X0239845Y0137257D02*
X0239359Y0137257D01*
X0238204Y0138898D02*
X0236818Y0140284D01*
X0238204Y0138898D02*
X0236540Y0137234D01*
X0235154Y0138620D01*
X0236818Y0140284D01*
X0236941Y0137635D02*
X0236139Y0137635D01*
X0235738Y0138036D02*
X0237342Y0138036D01*
X0237743Y0138437D02*
X0235337Y0138437D01*
X0235372Y0138838D02*
X0238144Y0138838D01*
X0237863Y0139239D02*
X0235773Y0139239D01*
X0236174Y0139640D02*
X0237462Y0139640D01*
X0237061Y0140041D02*
X0236575Y0140041D01*
X0233668Y0137134D02*
X0235054Y0135748D01*
X0233390Y0134084D01*
X0232004Y0135470D01*
X0233668Y0137134D01*
X0233791Y0134485D02*
X0232989Y0134485D01*
X0232588Y0134886D02*
X0234192Y0134886D01*
X0234593Y0135287D02*
X0232187Y0135287D01*
X0232222Y0135688D02*
X0234994Y0135688D01*
X0234713Y0136089D02*
X0232623Y0136089D01*
X0233024Y0136490D02*
X0234312Y0136490D01*
X0233911Y0136891D02*
X0233425Y0136891D01*
X0230662Y0136812D02*
X0229276Y0138198D01*
X0230940Y0139862D01*
X0232326Y0138476D01*
X0230662Y0136812D01*
X0231063Y0137213D02*
X0230261Y0137213D01*
X0229860Y0137614D02*
X0231464Y0137614D01*
X0231865Y0138015D02*
X0229459Y0138015D01*
X0229494Y0138416D02*
X0232266Y0138416D01*
X0231985Y0138817D02*
X0229895Y0138817D01*
X0230296Y0139218D02*
X0231584Y0139218D01*
X0231183Y0139619D02*
X0230697Y0139619D01*
X0227878Y0139596D02*
X0226492Y0140982D01*
X0228156Y0142646D01*
X0229542Y0141260D01*
X0227878Y0139596D01*
X0228279Y0139997D02*
X0227477Y0139997D01*
X0227076Y0140398D02*
X0228680Y0140398D01*
X0229081Y0140799D02*
X0226675Y0140799D01*
X0226710Y0141200D02*
X0229482Y0141200D01*
X0229201Y0141601D02*
X0227111Y0141601D01*
X0227512Y0142002D02*
X0228800Y0142002D01*
X0228399Y0142403D02*
X0227913Y0142403D01*
X0226815Y0143988D02*
X0225429Y0145374D01*
X0226815Y0143988D02*
X0225151Y0142324D01*
X0223765Y0143710D01*
X0225429Y0145374D01*
X0225552Y0142725D02*
X0224750Y0142725D01*
X0224349Y0143126D02*
X0225953Y0143126D01*
X0226354Y0143527D02*
X0223948Y0143527D01*
X0223983Y0143928D02*
X0226755Y0143928D01*
X0226474Y0144329D02*
X0224384Y0144329D01*
X0224785Y0144730D02*
X0226073Y0144730D01*
X0225672Y0145131D02*
X0225186Y0145131D01*
X0224031Y0146772D02*
X0222645Y0148158D01*
X0224031Y0146772D02*
X0222367Y0145108D01*
X0220981Y0146494D01*
X0222645Y0148158D01*
X0222768Y0145509D02*
X0221966Y0145509D01*
X0221565Y0145910D02*
X0223169Y0145910D01*
X0223570Y0146311D02*
X0221164Y0146311D01*
X0221199Y0146712D02*
X0223971Y0146712D01*
X0223690Y0147113D02*
X0221600Y0147113D01*
X0222001Y0147514D02*
X0223289Y0147514D01*
X0222888Y0147915D02*
X0222402Y0147915D01*
X0224130Y0149643D02*
X0225516Y0148257D01*
X0224130Y0149643D02*
X0225794Y0151307D01*
X0227180Y0149921D01*
X0225516Y0148257D01*
X0225917Y0148658D02*
X0225115Y0148658D01*
X0224714Y0149059D02*
X0226318Y0149059D01*
X0226719Y0149460D02*
X0224313Y0149460D01*
X0224348Y0149861D02*
X0227120Y0149861D01*
X0226839Y0150262D02*
X0224749Y0150262D01*
X0225150Y0150663D02*
X0226438Y0150663D01*
X0226037Y0151064D02*
X0225551Y0151064D01*
X0226914Y0146859D02*
X0228300Y0145473D01*
X0226914Y0146859D02*
X0228578Y0148523D01*
X0229964Y0147137D01*
X0228300Y0145473D01*
X0228701Y0145874D02*
X0227899Y0145874D01*
X0227498Y0146275D02*
X0229102Y0146275D01*
X0229503Y0146676D02*
X0227097Y0146676D01*
X0227132Y0147077D02*
X0229904Y0147077D01*
X0229623Y0147478D02*
X0227533Y0147478D01*
X0227934Y0147879D02*
X0229222Y0147879D01*
X0228821Y0148280D02*
X0228335Y0148280D01*
X0216855Y0153642D02*
X0215469Y0152256D01*
X0216855Y0153642D02*
X0218519Y0151978D01*
X0217133Y0150592D01*
X0215469Y0152256D01*
X0216732Y0150993D02*
X0217534Y0150993D01*
X0217935Y0151394D02*
X0216331Y0151394D01*
X0215930Y0151795D02*
X0218336Y0151795D01*
X0218301Y0152196D02*
X0215529Y0152196D01*
X0215810Y0152597D02*
X0217900Y0152597D01*
X0217499Y0152998D02*
X0216211Y0152998D01*
X0216612Y0153399D02*
X0217098Y0153399D01*
X0218253Y0155039D02*
X0219639Y0156425D01*
X0221303Y0154761D01*
X0219917Y0153375D01*
X0218253Y0155039D01*
X0219516Y0153776D02*
X0220318Y0153776D01*
X0220719Y0154177D02*
X0219115Y0154177D01*
X0218714Y0154578D02*
X0221120Y0154578D01*
X0221085Y0154979D02*
X0218313Y0154979D01*
X0218594Y0155380D02*
X0220684Y0155380D01*
X0220283Y0155781D02*
X0218995Y0155781D01*
X0219396Y0156182D02*
X0219882Y0156182D01*
X0207828Y0142252D02*
X0206442Y0140866D01*
X0207828Y0142252D02*
X0209492Y0140588D01*
X0208106Y0139202D01*
X0206442Y0140866D01*
X0207705Y0139603D02*
X0208507Y0139603D01*
X0208908Y0140004D02*
X0207304Y0140004D01*
X0206903Y0140405D02*
X0209309Y0140405D01*
X0209274Y0140806D02*
X0206502Y0140806D01*
X0206783Y0141207D02*
X0208873Y0141207D01*
X0208472Y0141608D02*
X0207184Y0141608D01*
X0207585Y0142009D02*
X0208071Y0142009D01*
X0205044Y0139468D02*
X0203658Y0138082D01*
X0205044Y0139468D02*
X0206708Y0137804D01*
X0205322Y0136418D01*
X0203658Y0138082D01*
X0204921Y0136819D02*
X0205723Y0136819D01*
X0206124Y0137220D02*
X0204520Y0137220D01*
X0204119Y0137621D02*
X0206525Y0137621D01*
X0206490Y0138022D02*
X0203718Y0138022D01*
X0203999Y0138423D02*
X0206089Y0138423D01*
X0205688Y0138824D02*
X0204400Y0138824D01*
X0204801Y0139225D02*
X0205287Y0139225D01*
X0214377Y0131694D02*
X0215763Y0133080D01*
X0214377Y0131694D02*
X0212713Y0133358D01*
X0214099Y0134744D01*
X0215763Y0133080D01*
X0214778Y0132095D02*
X0213976Y0132095D01*
X0213575Y0132496D02*
X0215179Y0132496D01*
X0215580Y0132897D02*
X0213174Y0132897D01*
X0212773Y0133298D02*
X0215545Y0133298D01*
X0215144Y0133699D02*
X0213054Y0133699D01*
X0213455Y0134100D02*
X0214743Y0134100D01*
X0214342Y0134501D02*
X0213856Y0134501D01*
X0217161Y0134478D02*
X0218547Y0135864D01*
X0217161Y0134478D02*
X0215497Y0136142D01*
X0216883Y0137528D01*
X0218547Y0135864D01*
X0217562Y0134879D02*
X0216760Y0134879D01*
X0216359Y0135280D02*
X0217963Y0135280D01*
X0218364Y0135681D02*
X0215958Y0135681D01*
X0215557Y0136082D02*
X0218329Y0136082D01*
X0217928Y0136483D02*
X0215838Y0136483D01*
X0216239Y0136884D02*
X0217527Y0136884D01*
X0217126Y0137285D02*
X0216640Y0137285D01*
X0234335Y0123591D02*
X0236295Y0123591D01*
X0234335Y0123591D02*
X0234335Y0125945D01*
X0236295Y0125945D01*
X0236295Y0123591D01*
X0236295Y0123992D02*
X0234335Y0123992D01*
X0234335Y0124393D02*
X0236295Y0124393D01*
X0236295Y0124794D02*
X0234335Y0124794D01*
X0234335Y0125195D02*
X0236295Y0125195D01*
X0236295Y0125596D02*
X0234335Y0125596D01*
X0238272Y0123591D02*
X0240232Y0123591D01*
X0238272Y0123591D02*
X0238272Y0125945D01*
X0240232Y0125945D01*
X0240232Y0123591D01*
X0240232Y0123992D02*
X0238272Y0123992D01*
X0238272Y0124393D02*
X0240232Y0124393D01*
X0240232Y0124794D02*
X0238272Y0124794D01*
X0238272Y0125195D02*
X0240232Y0125195D01*
X0240232Y0125596D02*
X0238272Y0125596D01*
X0238272Y0118867D02*
X0240232Y0118867D01*
X0238272Y0118867D02*
X0238272Y0121221D01*
X0240232Y0121221D01*
X0240232Y0118867D01*
X0240232Y0119268D02*
X0238272Y0119268D01*
X0238272Y0119669D02*
X0240232Y0119669D01*
X0240232Y0120070D02*
X0238272Y0120070D01*
X0238272Y0120471D02*
X0240232Y0120471D01*
X0240232Y0120872D02*
X0238272Y0120872D01*
X0236295Y0118867D02*
X0234335Y0118867D01*
X0234335Y0121221D01*
X0236295Y0121221D01*
X0236295Y0118867D01*
X0236295Y0119268D02*
X0234335Y0119268D01*
X0234335Y0119669D02*
X0236295Y0119669D01*
X0236295Y0120070D02*
X0234335Y0120070D01*
X0234335Y0120471D02*
X0236295Y0120471D01*
X0236295Y0120872D02*
X0234335Y0120872D01*
X0223271Y0121691D02*
X0221885Y0120305D01*
X0220221Y0121969D01*
X0221607Y0123355D01*
X0223271Y0121691D01*
X0222286Y0120706D02*
X0221484Y0120706D01*
X0221083Y0121107D02*
X0222687Y0121107D01*
X0223088Y0121508D02*
X0220682Y0121508D01*
X0220281Y0121909D02*
X0223053Y0121909D01*
X0222652Y0122310D02*
X0220562Y0122310D01*
X0220963Y0122711D02*
X0222251Y0122711D01*
X0221850Y0123112D02*
X0221364Y0123112D01*
X0220487Y0118907D02*
X0219101Y0117521D01*
X0217437Y0119185D01*
X0218823Y0120571D01*
X0220487Y0118907D01*
X0219502Y0117922D02*
X0218700Y0117922D01*
X0218299Y0118323D02*
X0219903Y0118323D01*
X0220304Y0118724D02*
X0217898Y0118724D01*
X0217497Y0119125D02*
X0220269Y0119125D01*
X0219868Y0119526D02*
X0217778Y0119526D01*
X0218179Y0119927D02*
X0219467Y0119927D01*
X0219066Y0120328D02*
X0218580Y0120328D01*
X0210705Y0119655D02*
X0210705Y0121615D01*
X0210705Y0119655D02*
X0208351Y0119655D01*
X0208351Y0121615D01*
X0210705Y0121615D01*
X0210705Y0120056D02*
X0208351Y0120056D01*
X0208351Y0120457D02*
X0210705Y0120457D01*
X0210705Y0120858D02*
X0208351Y0120858D01*
X0208351Y0121259D02*
X0210705Y0121259D01*
X0210705Y0117678D02*
X0210705Y0115718D01*
X0208351Y0115718D01*
X0208351Y0117678D01*
X0210705Y0117678D01*
X0210705Y0116119D02*
X0208351Y0116119D01*
X0208351Y0116520D02*
X0210705Y0116520D01*
X0210705Y0116921D02*
X0208351Y0116921D01*
X0208351Y0117322D02*
X0210705Y0117322D01*
X0236452Y0134350D02*
X0237838Y0132964D01*
X0236174Y0131300D01*
X0234788Y0132686D01*
X0236452Y0134350D01*
X0236575Y0131701D02*
X0235773Y0131701D01*
X0235372Y0132102D02*
X0236976Y0132102D01*
X0237377Y0132503D02*
X0234971Y0132503D01*
X0235006Y0132904D02*
X0237778Y0132904D01*
X0237497Y0133305D02*
X0235407Y0133305D01*
X0235808Y0133706D02*
X0237096Y0133706D01*
X0236695Y0134107D02*
X0236209Y0134107D01*
X0258351Y0109804D02*
X0258351Y0107844D01*
X0258351Y0109804D02*
X0260705Y0109804D01*
X0260705Y0107844D01*
X0258351Y0107844D01*
X0258351Y0108245D02*
X0260705Y0108245D01*
X0260705Y0108646D02*
X0258351Y0108646D01*
X0258351Y0109047D02*
X0260705Y0109047D01*
X0260705Y0109448D02*
X0258351Y0109448D01*
X0258351Y0105867D02*
X0258351Y0103907D01*
X0258351Y0105867D02*
X0260705Y0105867D01*
X0260705Y0103907D01*
X0258351Y0103907D01*
X0258351Y0104308D02*
X0260705Y0104308D01*
X0260705Y0104709D02*
X0258351Y0104709D01*
X0258351Y0105110D02*
X0260705Y0105110D01*
X0260705Y0105511D02*
X0258351Y0105511D01*
X0258351Y0085985D02*
X0260311Y0085985D01*
X0260311Y0083631D01*
X0258351Y0083631D01*
X0258351Y0085985D01*
X0258351Y0084032D02*
X0260311Y0084032D01*
X0260311Y0084433D02*
X0258351Y0084433D01*
X0258351Y0084834D02*
X0260311Y0084834D01*
X0260311Y0085235D02*
X0258351Y0085235D01*
X0258351Y0085636D02*
X0260311Y0085636D01*
X0256374Y0085985D02*
X0254414Y0085985D01*
X0256374Y0085985D02*
X0256374Y0083631D01*
X0254414Y0083631D01*
X0254414Y0085985D01*
X0254414Y0084032D02*
X0256374Y0084032D01*
X0256374Y0084433D02*
X0254414Y0084433D01*
X0254414Y0084834D02*
X0256374Y0084834D01*
X0256374Y0085235D02*
X0254414Y0085235D01*
X0254414Y0085636D02*
X0256374Y0085636D01*
X0256374Y0081260D02*
X0254414Y0081260D01*
X0256374Y0081260D02*
X0256374Y0078906D01*
X0254414Y0078906D01*
X0254414Y0081260D01*
X0254414Y0079307D02*
X0256374Y0079307D01*
X0256374Y0079708D02*
X0254414Y0079708D01*
X0254414Y0080109D02*
X0256374Y0080109D01*
X0256374Y0080510D02*
X0254414Y0080510D01*
X0254414Y0080911D02*
X0256374Y0080911D01*
X0258351Y0081260D02*
X0260311Y0081260D01*
X0260311Y0078906D01*
X0258351Y0078906D01*
X0258351Y0081260D01*
X0258351Y0079307D02*
X0260311Y0079307D01*
X0260311Y0079708D02*
X0258351Y0079708D01*
X0258351Y0080109D02*
X0260311Y0080109D01*
X0260311Y0080510D02*
X0258351Y0080510D01*
X0258351Y0080911D02*
X0260311Y0080911D01*
X0302051Y0102332D02*
X0302051Y0104292D01*
X0304405Y0104292D01*
X0304405Y0102332D01*
X0302051Y0102332D01*
X0302051Y0102733D02*
X0304405Y0102733D01*
X0304405Y0103134D02*
X0302051Y0103134D01*
X0302051Y0103535D02*
X0304405Y0103535D01*
X0304405Y0103936D02*
X0302051Y0103936D01*
X0302051Y0106269D02*
X0302051Y0108229D01*
X0304405Y0108229D01*
X0304405Y0106269D01*
X0302051Y0106269D01*
X0302051Y0106670D02*
X0304405Y0106670D01*
X0304405Y0107071D02*
X0302051Y0107071D01*
X0302051Y0107472D02*
X0304405Y0107472D01*
X0304405Y0107873D02*
X0302051Y0107873D01*
X0349484Y0139536D02*
X0349484Y0141496D01*
X0349484Y0139536D02*
X0347130Y0139536D01*
X0347130Y0141496D01*
X0349484Y0141496D01*
X0349484Y0139937D02*
X0347130Y0139937D01*
X0347130Y0140338D02*
X0349484Y0140338D01*
X0349484Y0140739D02*
X0347130Y0140739D01*
X0347130Y0141140D02*
X0349484Y0141140D01*
X0349484Y0143473D02*
X0349484Y0145433D01*
X0349484Y0143473D02*
X0347130Y0143473D01*
X0347130Y0145433D01*
X0349484Y0145433D01*
X0349484Y0143874D02*
X0347130Y0143874D01*
X0347130Y0144275D02*
X0349484Y0144275D01*
X0349484Y0144676D02*
X0347130Y0144676D01*
X0347130Y0145077D02*
X0349484Y0145077D01*
X0358351Y0149969D02*
X0360311Y0149969D01*
X0358351Y0149969D02*
X0358351Y0152323D01*
X0360311Y0152323D01*
X0360311Y0149969D01*
X0360311Y0150370D02*
X0358351Y0150370D01*
X0358351Y0150771D02*
X0360311Y0150771D01*
X0360311Y0151172D02*
X0358351Y0151172D01*
X0358351Y0151573D02*
X0360311Y0151573D01*
X0360311Y0151974D02*
X0358351Y0151974D01*
X0362288Y0149969D02*
X0364248Y0149969D01*
X0362288Y0149969D02*
X0362288Y0152323D01*
X0364248Y0152323D01*
X0364248Y0149969D01*
X0364248Y0150370D02*
X0362288Y0150370D01*
X0362288Y0150771D02*
X0364248Y0150771D01*
X0364248Y0151172D02*
X0362288Y0151172D01*
X0362288Y0151573D02*
X0364248Y0151573D01*
X0364248Y0151974D02*
X0362288Y0151974D01*
X0370555Y0135206D02*
X0372515Y0135206D01*
X0370555Y0135206D02*
X0370555Y0137560D01*
X0372515Y0137560D01*
X0372515Y0135206D01*
X0372515Y0135607D02*
X0370555Y0135607D01*
X0370555Y0136008D02*
X0372515Y0136008D01*
X0372515Y0136409D02*
X0370555Y0136409D01*
X0370555Y0136810D02*
X0372515Y0136810D01*
X0372515Y0137211D02*
X0370555Y0137211D01*
X0374492Y0135206D02*
X0376452Y0135206D01*
X0374492Y0135206D02*
X0374492Y0137560D01*
X0376452Y0137560D01*
X0376452Y0135206D01*
X0376452Y0135607D02*
X0374492Y0135607D01*
X0374492Y0136008D02*
X0376452Y0136008D01*
X0376452Y0136409D02*
X0374492Y0136409D01*
X0374492Y0136810D02*
X0376452Y0136810D01*
X0376452Y0137211D02*
X0374492Y0137211D01*
X0374492Y0130481D02*
X0376452Y0130481D01*
X0374492Y0130481D02*
X0374492Y0132835D01*
X0376452Y0132835D01*
X0376452Y0130481D01*
X0376452Y0130882D02*
X0374492Y0130882D01*
X0374492Y0131283D02*
X0376452Y0131283D01*
X0376452Y0131684D02*
X0374492Y0131684D01*
X0374492Y0132085D02*
X0376452Y0132085D01*
X0376452Y0132486D02*
X0374492Y0132486D01*
X0372515Y0130481D02*
X0370555Y0130481D01*
X0370555Y0132835D01*
X0372515Y0132835D01*
X0372515Y0130481D01*
X0372515Y0130882D02*
X0370555Y0130882D01*
X0370555Y0131283D02*
X0372515Y0131283D01*
X0372515Y0131684D02*
X0370555Y0131684D01*
X0370555Y0132085D02*
X0372515Y0132085D01*
X0372515Y0132486D02*
X0370555Y0132486D01*
X0362673Y0125166D02*
X0360713Y0125166D01*
X0360713Y0127520D01*
X0362673Y0127520D01*
X0362673Y0125166D01*
X0362673Y0125567D02*
X0360713Y0125567D01*
X0360713Y0125968D02*
X0362673Y0125968D01*
X0362673Y0126369D02*
X0360713Y0126369D01*
X0360713Y0126770D02*
X0362673Y0126770D01*
X0362673Y0127171D02*
X0360713Y0127171D01*
X0358736Y0125166D02*
X0356776Y0125166D01*
X0356776Y0127520D01*
X0358736Y0127520D01*
X0358736Y0125166D01*
X0358736Y0125567D02*
X0356776Y0125567D01*
X0356776Y0125968D02*
X0358736Y0125968D01*
X0358736Y0126369D02*
X0356776Y0126369D01*
X0356776Y0126770D02*
X0358736Y0126770D01*
X0358736Y0127171D02*
X0356776Y0127171D01*
X0371540Y0097402D02*
X0371540Y0095442D01*
X0371540Y0097402D02*
X0373894Y0097402D01*
X0373894Y0095442D01*
X0371540Y0095442D01*
X0371540Y0095843D02*
X0373894Y0095843D01*
X0373894Y0096244D02*
X0371540Y0096244D01*
X0371540Y0096645D02*
X0373894Y0096645D01*
X0373894Y0097046D02*
X0371540Y0097046D01*
X0371540Y0093465D02*
X0371540Y0091505D01*
X0371540Y0093465D02*
X0373894Y0093465D01*
X0373894Y0091505D01*
X0371540Y0091505D01*
X0371540Y0091906D02*
X0373894Y0091906D01*
X0373894Y0092307D02*
X0371540Y0092307D01*
X0371540Y0092708D02*
X0373894Y0092708D01*
X0373894Y0093109D02*
X0371540Y0093109D01*
X0378618Y0093465D02*
X0378618Y0091505D01*
X0376264Y0091505D01*
X0376264Y0093465D01*
X0378618Y0093465D01*
X0378618Y0091906D02*
X0376264Y0091906D01*
X0376264Y0092307D02*
X0378618Y0092307D01*
X0378618Y0092708D02*
X0376264Y0092708D01*
X0376264Y0093109D02*
X0378618Y0093109D01*
X0378618Y0095442D02*
X0378618Y0097402D01*
X0378618Y0095442D02*
X0376264Y0095442D01*
X0376264Y0097402D01*
X0378618Y0097402D01*
X0378618Y0095843D02*
X0376264Y0095843D01*
X0376264Y0096244D02*
X0378618Y0096244D01*
X0378618Y0096645D02*
X0376264Y0096645D01*
X0376264Y0097046D02*
X0378618Y0097046D01*
X0383342Y0097402D02*
X0383342Y0095442D01*
X0380988Y0095442D01*
X0380988Y0097402D01*
X0383342Y0097402D01*
X0383342Y0095843D02*
X0380988Y0095843D01*
X0380988Y0096244D02*
X0383342Y0096244D01*
X0383342Y0096645D02*
X0380988Y0096645D01*
X0380988Y0097046D02*
X0383342Y0097046D01*
X0388067Y0097402D02*
X0388067Y0095442D01*
X0385713Y0095442D01*
X0385713Y0097402D01*
X0388067Y0097402D01*
X0388067Y0095843D02*
X0385713Y0095843D01*
X0385713Y0096244D02*
X0388067Y0096244D01*
X0388067Y0096645D02*
X0385713Y0096645D01*
X0385713Y0097046D02*
X0388067Y0097046D01*
X0388067Y0093465D02*
X0388067Y0091505D01*
X0385713Y0091505D01*
X0385713Y0093465D01*
X0388067Y0093465D01*
X0388067Y0091906D02*
X0385713Y0091906D01*
X0385713Y0092307D02*
X0388067Y0092307D01*
X0388067Y0092708D02*
X0385713Y0092708D01*
X0385713Y0093109D02*
X0388067Y0093109D01*
X0383342Y0093465D02*
X0383342Y0091505D01*
X0380988Y0091505D01*
X0380988Y0093465D01*
X0383342Y0093465D01*
X0383342Y0091906D02*
X0380988Y0091906D01*
X0380988Y0092307D02*
X0383342Y0092307D01*
X0383342Y0092708D02*
X0380988Y0092708D01*
X0380988Y0093109D02*
X0383342Y0093109D01*
X0405989Y0104686D02*
X0407949Y0104686D01*
X0407949Y0102332D01*
X0405989Y0102332D01*
X0405989Y0104686D01*
X0405989Y0102733D02*
X0407949Y0102733D01*
X0407949Y0103134D02*
X0405989Y0103134D01*
X0405989Y0103535D02*
X0407949Y0103535D01*
X0407949Y0103936D02*
X0405989Y0103936D01*
X0405989Y0104337D02*
X0407949Y0104337D01*
X0409926Y0104686D02*
X0411886Y0104686D01*
X0411886Y0102332D01*
X0409926Y0102332D01*
X0409926Y0104686D01*
X0409926Y0102733D02*
X0411886Y0102733D01*
X0411886Y0103134D02*
X0409926Y0103134D01*
X0409926Y0103535D02*
X0411886Y0103535D01*
X0411886Y0103936D02*
X0409926Y0103936D01*
X0409926Y0104337D02*
X0411886Y0104337D01*
X0413863Y0104686D02*
X0415823Y0104686D01*
X0415823Y0102332D01*
X0413863Y0102332D01*
X0413863Y0104686D01*
X0413863Y0102733D02*
X0415823Y0102733D01*
X0415823Y0103134D02*
X0413863Y0103134D01*
X0413863Y0103535D02*
X0415823Y0103535D01*
X0415823Y0103936D02*
X0413863Y0103936D01*
X0413863Y0104337D02*
X0415823Y0104337D01*
X0417800Y0104686D02*
X0419760Y0104686D01*
X0419760Y0102332D01*
X0417800Y0102332D01*
X0417800Y0104686D01*
X0417800Y0102733D02*
X0419760Y0102733D01*
X0419760Y0103134D02*
X0417800Y0103134D01*
X0417800Y0103535D02*
X0419760Y0103535D01*
X0419760Y0103936D02*
X0417800Y0103936D01*
X0417800Y0104337D02*
X0419760Y0104337D01*
X0419760Y0109410D02*
X0417800Y0109410D01*
X0419760Y0109410D02*
X0419760Y0107056D01*
X0417800Y0107056D01*
X0417800Y0109410D01*
X0417800Y0107457D02*
X0419760Y0107457D01*
X0419760Y0107858D02*
X0417800Y0107858D01*
X0417800Y0108259D02*
X0419760Y0108259D01*
X0419760Y0108660D02*
X0417800Y0108660D01*
X0417800Y0109061D02*
X0419760Y0109061D01*
X0419760Y0111780D02*
X0417800Y0111780D01*
X0417800Y0114134D01*
X0419760Y0114134D01*
X0419760Y0111780D01*
X0419760Y0112181D02*
X0417800Y0112181D01*
X0417800Y0112582D02*
X0419760Y0112582D01*
X0419760Y0112983D02*
X0417800Y0112983D01*
X0417800Y0113384D02*
X0419760Y0113384D01*
X0419760Y0113785D02*
X0417800Y0113785D01*
X0415823Y0111780D02*
X0413863Y0111780D01*
X0413863Y0114134D01*
X0415823Y0114134D01*
X0415823Y0111780D01*
X0415823Y0112181D02*
X0413863Y0112181D01*
X0413863Y0112582D02*
X0415823Y0112582D01*
X0415823Y0112983D02*
X0413863Y0112983D01*
X0413863Y0113384D02*
X0415823Y0113384D01*
X0415823Y0113785D02*
X0413863Y0113785D01*
X0413863Y0118859D02*
X0415823Y0118859D01*
X0415823Y0116505D01*
X0413863Y0116505D01*
X0413863Y0118859D01*
X0413863Y0116906D02*
X0415823Y0116906D01*
X0415823Y0117307D02*
X0413863Y0117307D01*
X0413863Y0117708D02*
X0415823Y0117708D01*
X0415823Y0118109D02*
X0413863Y0118109D01*
X0413863Y0118510D02*
X0415823Y0118510D01*
X0417800Y0118859D02*
X0419760Y0118859D01*
X0419760Y0116505D01*
X0417800Y0116505D01*
X0417800Y0118859D01*
X0417800Y0116906D02*
X0419760Y0116906D01*
X0419760Y0117307D02*
X0417800Y0117307D01*
X0417800Y0117708D02*
X0419760Y0117708D01*
X0419760Y0118109D02*
X0417800Y0118109D01*
X0417800Y0118510D02*
X0419760Y0118510D01*
X0419760Y0123583D02*
X0417800Y0123583D01*
X0419760Y0123583D02*
X0419760Y0121229D01*
X0417800Y0121229D01*
X0417800Y0123583D01*
X0417800Y0121630D02*
X0419760Y0121630D01*
X0419760Y0122031D02*
X0417800Y0122031D01*
X0417800Y0122432D02*
X0419760Y0122432D01*
X0419760Y0122833D02*
X0417800Y0122833D01*
X0417800Y0123234D02*
X0419760Y0123234D01*
X0419760Y0125954D02*
X0417800Y0125954D01*
X0417800Y0128308D01*
X0419760Y0128308D01*
X0419760Y0125954D01*
X0419760Y0126355D02*
X0417800Y0126355D01*
X0417800Y0126756D02*
X0419760Y0126756D01*
X0419760Y0127157D02*
X0417800Y0127157D01*
X0417800Y0127558D02*
X0419760Y0127558D01*
X0419760Y0127959D02*
X0417800Y0127959D01*
X0415823Y0125954D02*
X0413863Y0125954D01*
X0413863Y0128308D01*
X0415823Y0128308D01*
X0415823Y0125954D01*
X0415823Y0126355D02*
X0413863Y0126355D01*
X0413863Y0126756D02*
X0415823Y0126756D01*
X0415823Y0127157D02*
X0413863Y0127157D01*
X0413863Y0127558D02*
X0415823Y0127558D01*
X0415823Y0127959D02*
X0413863Y0127959D01*
X0412279Y0125954D02*
X0410319Y0125954D01*
X0410319Y0128308D01*
X0412279Y0128308D01*
X0412279Y0125954D01*
X0412279Y0126355D02*
X0410319Y0126355D01*
X0410319Y0126756D02*
X0412279Y0126756D01*
X0412279Y0127157D02*
X0410319Y0127157D01*
X0410319Y0127558D02*
X0412279Y0127558D01*
X0412279Y0127959D02*
X0410319Y0127959D01*
X0408342Y0125954D02*
X0406382Y0125954D01*
X0406382Y0128308D01*
X0408342Y0128308D01*
X0408342Y0125954D01*
X0408342Y0126355D02*
X0406382Y0126355D01*
X0406382Y0126756D02*
X0408342Y0126756D01*
X0408342Y0127157D02*
X0406382Y0127157D01*
X0406382Y0127558D02*
X0408342Y0127558D01*
X0408342Y0127959D02*
X0406382Y0127959D01*
X0413863Y0133032D02*
X0415823Y0133032D01*
X0415823Y0130678D01*
X0413863Y0130678D01*
X0413863Y0133032D01*
X0413863Y0131079D02*
X0415823Y0131079D01*
X0415823Y0131480D02*
X0413863Y0131480D01*
X0413863Y0131881D02*
X0415823Y0131881D01*
X0415823Y0132282D02*
X0413863Y0132282D01*
X0413863Y0132683D02*
X0415823Y0132683D01*
X0417800Y0133032D02*
X0419760Y0133032D01*
X0419760Y0130678D01*
X0417800Y0130678D01*
X0417800Y0133032D01*
X0417800Y0131079D02*
X0419760Y0131079D01*
X0419760Y0131480D02*
X0417800Y0131480D01*
X0417800Y0131881D02*
X0419760Y0131881D01*
X0419760Y0132282D02*
X0417800Y0132282D01*
X0417800Y0132683D02*
X0419760Y0132683D01*
X0419760Y0137756D02*
X0417800Y0137756D01*
X0419760Y0137756D02*
X0419760Y0135402D01*
X0417800Y0135402D01*
X0417800Y0137756D01*
X0417800Y0135803D02*
X0419760Y0135803D01*
X0419760Y0136204D02*
X0417800Y0136204D01*
X0417800Y0136605D02*
X0419760Y0136605D01*
X0419760Y0137006D02*
X0417800Y0137006D01*
X0417800Y0137407D02*
X0419760Y0137407D01*
X0415823Y0137756D02*
X0413863Y0137756D01*
X0415823Y0137756D02*
X0415823Y0135402D01*
X0413863Y0135402D01*
X0413863Y0137756D01*
X0413863Y0135803D02*
X0415823Y0135803D01*
X0415823Y0136204D02*
X0413863Y0136204D01*
X0413863Y0136605D02*
X0415823Y0136605D01*
X0415823Y0137006D02*
X0413863Y0137006D01*
X0413863Y0137407D02*
X0415823Y0137407D01*
X0412279Y0137756D02*
X0410319Y0137756D01*
X0412279Y0137756D02*
X0412279Y0135402D01*
X0410319Y0135402D01*
X0410319Y0137756D01*
X0410319Y0135803D02*
X0412279Y0135803D01*
X0412279Y0136204D02*
X0410319Y0136204D01*
X0410319Y0136605D02*
X0412279Y0136605D01*
X0412279Y0137006D02*
X0410319Y0137006D01*
X0410319Y0137407D02*
X0412279Y0137407D01*
X0408342Y0137756D02*
X0406382Y0137756D01*
X0408342Y0137756D02*
X0408342Y0135402D01*
X0406382Y0135402D01*
X0406382Y0137756D01*
X0406382Y0135803D02*
X0408342Y0135803D01*
X0408342Y0136204D02*
X0406382Y0136204D01*
X0406382Y0136605D02*
X0408342Y0136605D01*
X0408342Y0137006D02*
X0406382Y0137006D01*
X0406382Y0137407D02*
X0408342Y0137407D01*
X0408342Y0148780D02*
X0406382Y0148780D01*
X0408342Y0148780D02*
X0408342Y0146426D01*
X0406382Y0146426D01*
X0406382Y0148780D01*
X0406382Y0146827D02*
X0408342Y0146827D01*
X0408342Y0147228D02*
X0406382Y0147228D01*
X0406382Y0147629D02*
X0408342Y0147629D01*
X0408342Y0148030D02*
X0406382Y0148030D01*
X0406382Y0148431D02*
X0408342Y0148431D01*
X0410319Y0148780D02*
X0412279Y0148780D01*
X0412279Y0146426D01*
X0410319Y0146426D01*
X0410319Y0148780D01*
X0410319Y0146827D02*
X0412279Y0146827D01*
X0412279Y0147228D02*
X0410319Y0147228D01*
X0410319Y0147629D02*
X0412279Y0147629D01*
X0412279Y0148030D02*
X0410319Y0148030D01*
X0410319Y0148431D02*
X0412279Y0148431D01*
X0413863Y0148780D02*
X0415823Y0148780D01*
X0415823Y0146426D01*
X0413863Y0146426D01*
X0413863Y0148780D01*
X0413863Y0146827D02*
X0415823Y0146827D01*
X0415823Y0147228D02*
X0413863Y0147228D01*
X0413863Y0147629D02*
X0415823Y0147629D01*
X0415823Y0148030D02*
X0413863Y0148030D01*
X0413863Y0148431D02*
X0415823Y0148431D01*
X0417800Y0148780D02*
X0419760Y0148780D01*
X0419760Y0146426D01*
X0417800Y0146426D01*
X0417800Y0148780D01*
X0417800Y0146827D02*
X0419760Y0146827D01*
X0419760Y0147228D02*
X0417800Y0147228D01*
X0417800Y0147629D02*
X0419760Y0147629D01*
X0419760Y0148030D02*
X0417800Y0148030D01*
X0417800Y0148431D02*
X0419760Y0148431D01*
X0419760Y0153504D02*
X0417800Y0153504D01*
X0419760Y0153504D02*
X0419760Y0151150D01*
X0417800Y0151150D01*
X0417800Y0153504D01*
X0417800Y0151551D02*
X0419760Y0151551D01*
X0419760Y0151952D02*
X0417800Y0151952D01*
X0417800Y0152353D02*
X0419760Y0152353D01*
X0419760Y0152754D02*
X0417800Y0152754D01*
X0417800Y0153155D02*
X0419760Y0153155D01*
X0419760Y0155875D02*
X0417800Y0155875D01*
X0417800Y0158229D01*
X0419760Y0158229D01*
X0419760Y0155875D01*
X0419760Y0156276D02*
X0417800Y0156276D01*
X0417800Y0156677D02*
X0419760Y0156677D01*
X0419760Y0157078D02*
X0417800Y0157078D01*
X0417800Y0157479D02*
X0419760Y0157479D01*
X0419760Y0157880D02*
X0417800Y0157880D01*
X0415823Y0155875D02*
X0413863Y0155875D01*
X0413863Y0158229D01*
X0415823Y0158229D01*
X0415823Y0155875D01*
X0415823Y0156276D02*
X0413863Y0156276D01*
X0413863Y0156677D02*
X0415823Y0156677D01*
X0415823Y0157078D02*
X0413863Y0157078D01*
X0413863Y0157479D02*
X0415823Y0157479D01*
X0415823Y0157880D02*
X0413863Y0157880D01*
X0413863Y0162953D02*
X0415823Y0162953D01*
X0415823Y0160599D01*
X0413863Y0160599D01*
X0413863Y0162953D01*
X0413863Y0161000D02*
X0415823Y0161000D01*
X0415823Y0161401D02*
X0413863Y0161401D01*
X0413863Y0161802D02*
X0415823Y0161802D01*
X0415823Y0162203D02*
X0413863Y0162203D01*
X0413863Y0162604D02*
X0415823Y0162604D01*
X0417800Y0162953D02*
X0419760Y0162953D01*
X0419760Y0160599D01*
X0417800Y0160599D01*
X0417800Y0162953D01*
X0417800Y0161000D02*
X0419760Y0161000D01*
X0419760Y0161401D02*
X0417800Y0161401D01*
X0417800Y0161802D02*
X0419760Y0161802D01*
X0419760Y0162203D02*
X0417800Y0162203D01*
X0417800Y0162604D02*
X0419760Y0162604D01*
X0419760Y0167678D02*
X0417800Y0167678D01*
X0419760Y0167678D02*
X0419760Y0165324D01*
X0417800Y0165324D01*
X0417800Y0167678D01*
X0417800Y0165725D02*
X0419760Y0165725D01*
X0419760Y0166126D02*
X0417800Y0166126D01*
X0417800Y0166527D02*
X0419760Y0166527D01*
X0419760Y0166928D02*
X0417800Y0166928D01*
X0417800Y0167329D02*
X0419760Y0167329D01*
X0419760Y0170048D02*
X0417800Y0170048D01*
X0417800Y0172402D01*
X0419760Y0172402D01*
X0419760Y0170048D01*
X0419760Y0170449D02*
X0417800Y0170449D01*
X0417800Y0170850D02*
X0419760Y0170850D01*
X0419760Y0171251D02*
X0417800Y0171251D01*
X0417800Y0171652D02*
X0419760Y0171652D01*
X0419760Y0172053D02*
X0417800Y0172053D01*
X0415823Y0170048D02*
X0413863Y0170048D01*
X0413863Y0172402D01*
X0415823Y0172402D01*
X0415823Y0170048D01*
X0415823Y0170449D02*
X0413863Y0170449D01*
X0413863Y0170850D02*
X0415823Y0170850D01*
X0415823Y0171251D02*
X0413863Y0171251D01*
X0413863Y0171652D02*
X0415823Y0171652D01*
X0415823Y0172053D02*
X0413863Y0172053D01*
X0412279Y0170048D02*
X0410319Y0170048D01*
X0410319Y0172402D01*
X0412279Y0172402D01*
X0412279Y0170048D01*
X0412279Y0170449D02*
X0410319Y0170449D01*
X0410319Y0170850D02*
X0412279Y0170850D01*
X0412279Y0171251D02*
X0410319Y0171251D01*
X0410319Y0171652D02*
X0412279Y0171652D01*
X0412279Y0172053D02*
X0410319Y0172053D01*
X0408342Y0170048D02*
X0406382Y0170048D01*
X0406382Y0172402D01*
X0408342Y0172402D01*
X0408342Y0170048D01*
X0408342Y0170449D02*
X0406382Y0170449D01*
X0406382Y0170850D02*
X0408342Y0170850D01*
X0408342Y0171251D02*
X0406382Y0171251D01*
X0406382Y0171652D02*
X0408342Y0171652D01*
X0408342Y0172053D02*
X0406382Y0172053D01*
X0413863Y0177126D02*
X0415823Y0177126D01*
X0415823Y0174772D01*
X0413863Y0174772D01*
X0413863Y0177126D01*
X0413863Y0175173D02*
X0415823Y0175173D01*
X0415823Y0175574D02*
X0413863Y0175574D01*
X0413863Y0175975D02*
X0415823Y0175975D01*
X0415823Y0176376D02*
X0413863Y0176376D01*
X0413863Y0176777D02*
X0415823Y0176777D01*
X0417800Y0177126D02*
X0419760Y0177126D01*
X0419760Y0174772D01*
X0417800Y0174772D01*
X0417800Y0177126D01*
X0417800Y0175173D02*
X0419760Y0175173D01*
X0419760Y0175574D02*
X0417800Y0175574D01*
X0417800Y0175975D02*
X0419760Y0175975D01*
X0419760Y0176376D02*
X0417800Y0176376D01*
X0417800Y0176777D02*
X0419760Y0176777D01*
X0419760Y0181851D02*
X0417800Y0181851D01*
X0419760Y0181851D02*
X0419760Y0179497D01*
X0417800Y0179497D01*
X0417800Y0181851D01*
X0417800Y0179898D02*
X0419760Y0179898D01*
X0419760Y0180299D02*
X0417800Y0180299D01*
X0417800Y0180700D02*
X0419760Y0180700D01*
X0419760Y0181101D02*
X0417800Y0181101D01*
X0417800Y0181502D02*
X0419760Y0181502D01*
X0415823Y0181851D02*
X0413863Y0181851D01*
X0415823Y0181851D02*
X0415823Y0179497D01*
X0413863Y0179497D01*
X0413863Y0181851D01*
X0413863Y0179898D02*
X0415823Y0179898D01*
X0415823Y0180299D02*
X0413863Y0180299D01*
X0413863Y0180700D02*
X0415823Y0180700D01*
X0415823Y0181101D02*
X0413863Y0181101D01*
X0413863Y0181502D02*
X0415823Y0181502D01*
X0412279Y0181851D02*
X0410319Y0181851D01*
X0412279Y0181851D02*
X0412279Y0179497D01*
X0410319Y0179497D01*
X0410319Y0181851D01*
X0410319Y0179898D02*
X0412279Y0179898D01*
X0412279Y0180299D02*
X0410319Y0180299D01*
X0410319Y0180700D02*
X0412279Y0180700D01*
X0412279Y0181101D02*
X0410319Y0181101D01*
X0410319Y0181502D02*
X0412279Y0181502D01*
X0408342Y0181851D02*
X0406382Y0181851D01*
X0408342Y0181851D02*
X0408342Y0179497D01*
X0406382Y0179497D01*
X0406382Y0181851D01*
X0406382Y0179898D02*
X0408342Y0179898D01*
X0408342Y0180299D02*
X0406382Y0180299D01*
X0406382Y0180700D02*
X0408342Y0180700D01*
X0408342Y0181101D02*
X0406382Y0181101D01*
X0406382Y0181502D02*
X0408342Y0181502D01*
X0413863Y0167678D02*
X0415823Y0167678D01*
X0415823Y0165324D01*
X0413863Y0165324D01*
X0413863Y0167678D01*
X0413863Y0165725D02*
X0415823Y0165725D01*
X0415823Y0166126D02*
X0413863Y0166126D01*
X0413863Y0166527D02*
X0415823Y0166527D01*
X0415823Y0166928D02*
X0413863Y0166928D01*
X0413863Y0167329D02*
X0415823Y0167329D01*
X0408539Y0161575D02*
X0408539Y0159615D01*
X0406185Y0159615D01*
X0406185Y0161575D01*
X0408539Y0161575D01*
X0408539Y0160016D02*
X0406185Y0160016D01*
X0406185Y0160417D02*
X0408539Y0160417D01*
X0408539Y0160818D02*
X0406185Y0160818D01*
X0406185Y0161219D02*
X0408539Y0161219D01*
X0408539Y0157638D02*
X0408539Y0155678D01*
X0406185Y0155678D01*
X0406185Y0157638D01*
X0408539Y0157638D01*
X0408539Y0156079D02*
X0406185Y0156079D01*
X0406185Y0156480D02*
X0408539Y0156480D01*
X0408539Y0156881D02*
X0406185Y0156881D01*
X0406185Y0157282D02*
X0408539Y0157282D01*
X0408342Y0151150D02*
X0406382Y0151150D01*
X0406382Y0153504D01*
X0408342Y0153504D01*
X0408342Y0151150D01*
X0408342Y0151551D02*
X0406382Y0151551D01*
X0406382Y0151952D02*
X0408342Y0151952D01*
X0408342Y0152353D02*
X0406382Y0152353D01*
X0406382Y0152754D02*
X0408342Y0152754D01*
X0408342Y0153155D02*
X0406382Y0153155D01*
X0410319Y0151150D02*
X0412279Y0151150D01*
X0410319Y0151150D02*
X0410319Y0153504D01*
X0412279Y0153504D01*
X0412279Y0151150D01*
X0412279Y0151551D02*
X0410319Y0151551D01*
X0410319Y0151952D02*
X0412279Y0151952D01*
X0412279Y0152353D02*
X0410319Y0152353D01*
X0410319Y0152754D02*
X0412279Y0152754D01*
X0412279Y0153155D02*
X0410319Y0153155D01*
X0413863Y0153504D02*
X0415823Y0153504D01*
X0415823Y0151150D01*
X0413863Y0151150D01*
X0413863Y0153504D01*
X0413863Y0151551D02*
X0415823Y0151551D01*
X0415823Y0151952D02*
X0413863Y0151952D01*
X0413863Y0152353D02*
X0415823Y0152353D01*
X0415823Y0152754D02*
X0413863Y0152754D01*
X0413863Y0153155D02*
X0415823Y0153155D01*
X0433548Y0138552D02*
X0435508Y0138552D01*
X0433548Y0138552D02*
X0433548Y0140906D01*
X0435508Y0140906D01*
X0435508Y0138552D01*
X0435508Y0138953D02*
X0433548Y0138953D01*
X0433548Y0139354D02*
X0435508Y0139354D01*
X0435508Y0139755D02*
X0433548Y0139755D01*
X0433548Y0140156D02*
X0435508Y0140156D01*
X0435508Y0140557D02*
X0433548Y0140557D01*
X0437485Y0138552D02*
X0439445Y0138552D01*
X0437485Y0138552D02*
X0437485Y0140906D01*
X0439445Y0140906D01*
X0439445Y0138552D01*
X0439445Y0138953D02*
X0437485Y0138953D01*
X0437485Y0139354D02*
X0439445Y0139354D01*
X0439445Y0139755D02*
X0437485Y0139755D01*
X0437485Y0140156D02*
X0439445Y0140156D01*
X0439445Y0140557D02*
X0437485Y0140557D01*
X0453233Y0143268D02*
X0455193Y0143268D01*
X0455193Y0140914D01*
X0453233Y0140914D01*
X0453233Y0143268D01*
X0453233Y0141315D02*
X0455193Y0141315D01*
X0455193Y0141716D02*
X0453233Y0141716D01*
X0453233Y0142117D02*
X0455193Y0142117D01*
X0455193Y0142518D02*
X0453233Y0142518D01*
X0453233Y0142919D02*
X0455193Y0142919D01*
X0457170Y0143268D02*
X0459130Y0143268D01*
X0459130Y0140914D01*
X0457170Y0140914D01*
X0457170Y0143268D01*
X0457170Y0141315D02*
X0459130Y0141315D01*
X0459130Y0141716D02*
X0457170Y0141716D01*
X0457170Y0142117D02*
X0459130Y0142117D01*
X0459130Y0142518D02*
X0457170Y0142518D01*
X0457170Y0142919D02*
X0459130Y0142919D01*
X0459130Y0146426D02*
X0457170Y0146426D01*
X0457170Y0148780D01*
X0459130Y0148780D01*
X0459130Y0146426D01*
X0459130Y0146827D02*
X0457170Y0146827D01*
X0457170Y0147228D02*
X0459130Y0147228D01*
X0459130Y0147629D02*
X0457170Y0147629D01*
X0457170Y0148030D02*
X0459130Y0148030D01*
X0459130Y0148431D02*
X0457170Y0148431D01*
X0455193Y0146426D02*
X0453233Y0146426D01*
X0453233Y0148780D01*
X0455193Y0148780D01*
X0455193Y0146426D01*
X0455193Y0146827D02*
X0453233Y0146827D01*
X0453233Y0147228D02*
X0455193Y0147228D01*
X0455193Y0147629D02*
X0453233Y0147629D01*
X0453233Y0148030D02*
X0455193Y0148030D01*
X0455193Y0148431D02*
X0453233Y0148431D01*
X0453233Y0151150D02*
X0455193Y0151150D01*
X0453233Y0151150D02*
X0453233Y0153504D01*
X0455193Y0153504D01*
X0455193Y0151150D01*
X0455193Y0151551D02*
X0453233Y0151551D01*
X0453233Y0151952D02*
X0455193Y0151952D01*
X0455193Y0152353D02*
X0453233Y0152353D01*
X0453233Y0152754D02*
X0455193Y0152754D01*
X0455193Y0153155D02*
X0453233Y0153155D01*
X0453233Y0158229D02*
X0455193Y0158229D01*
X0455193Y0155875D01*
X0453233Y0155875D01*
X0453233Y0158229D01*
X0453233Y0156276D02*
X0455193Y0156276D01*
X0455193Y0156677D02*
X0453233Y0156677D01*
X0453233Y0157078D02*
X0455193Y0157078D01*
X0455193Y0157479D02*
X0453233Y0157479D01*
X0453233Y0157880D02*
X0455193Y0157880D01*
X0457170Y0158229D02*
X0459130Y0158229D01*
X0459130Y0155875D01*
X0457170Y0155875D01*
X0457170Y0158229D01*
X0457170Y0156276D02*
X0459130Y0156276D01*
X0459130Y0156677D02*
X0457170Y0156677D01*
X0457170Y0157078D02*
X0459130Y0157078D01*
X0459130Y0157479D02*
X0457170Y0157479D01*
X0457170Y0157880D02*
X0459130Y0157880D01*
X0459130Y0160599D02*
X0457170Y0160599D01*
X0457170Y0162953D01*
X0459130Y0162953D01*
X0459130Y0160599D01*
X0459130Y0161000D02*
X0457170Y0161000D01*
X0457170Y0161401D02*
X0459130Y0161401D01*
X0459130Y0161802D02*
X0457170Y0161802D01*
X0457170Y0162203D02*
X0459130Y0162203D01*
X0459130Y0162604D02*
X0457170Y0162604D01*
X0455193Y0160599D02*
X0453233Y0160599D01*
X0453233Y0162953D01*
X0455193Y0162953D01*
X0455193Y0160599D01*
X0455193Y0161000D02*
X0453233Y0161000D01*
X0453233Y0161401D02*
X0455193Y0161401D01*
X0455193Y0161802D02*
X0453233Y0161802D01*
X0453233Y0162203D02*
X0455193Y0162203D01*
X0455193Y0162604D02*
X0453233Y0162604D01*
X0453233Y0165324D02*
X0455193Y0165324D01*
X0453233Y0165324D02*
X0453233Y0167678D01*
X0455193Y0167678D01*
X0455193Y0165324D01*
X0455193Y0165725D02*
X0453233Y0165725D01*
X0453233Y0166126D02*
X0455193Y0166126D01*
X0455193Y0166527D02*
X0453233Y0166527D01*
X0453233Y0166928D02*
X0455193Y0166928D01*
X0455193Y0167329D02*
X0453233Y0167329D01*
X0453233Y0172402D02*
X0455193Y0172402D01*
X0455193Y0170048D01*
X0453233Y0170048D01*
X0453233Y0172402D01*
X0453233Y0170449D02*
X0455193Y0170449D01*
X0455193Y0170850D02*
X0453233Y0170850D01*
X0453233Y0171251D02*
X0455193Y0171251D01*
X0455193Y0171652D02*
X0453233Y0171652D01*
X0453233Y0172053D02*
X0455193Y0172053D01*
X0457170Y0172402D02*
X0459130Y0172402D01*
X0459130Y0170048D01*
X0457170Y0170048D01*
X0457170Y0172402D01*
X0457170Y0170449D02*
X0459130Y0170449D01*
X0459130Y0170850D02*
X0457170Y0170850D01*
X0457170Y0171251D02*
X0459130Y0171251D01*
X0459130Y0171652D02*
X0457170Y0171652D01*
X0457170Y0172053D02*
X0459130Y0172053D01*
X0459130Y0174772D02*
X0457170Y0174772D01*
X0457170Y0177126D01*
X0459130Y0177126D01*
X0459130Y0174772D01*
X0459130Y0175173D02*
X0457170Y0175173D01*
X0457170Y0175574D02*
X0459130Y0175574D01*
X0459130Y0175975D02*
X0457170Y0175975D01*
X0457170Y0176376D02*
X0459130Y0176376D01*
X0459130Y0176777D02*
X0457170Y0176777D01*
X0455193Y0174772D02*
X0453233Y0174772D01*
X0453233Y0177126D01*
X0455193Y0177126D01*
X0455193Y0174772D01*
X0455193Y0175173D02*
X0453233Y0175173D01*
X0453233Y0175574D02*
X0455193Y0175574D01*
X0455193Y0175975D02*
X0453233Y0175975D01*
X0453233Y0176376D02*
X0455193Y0176376D01*
X0455193Y0176777D02*
X0453233Y0176777D01*
X0453233Y0179497D02*
X0455193Y0179497D01*
X0453233Y0179497D02*
X0453233Y0181851D01*
X0455193Y0181851D01*
X0455193Y0179497D01*
X0455193Y0179898D02*
X0453233Y0179898D01*
X0453233Y0180299D02*
X0455193Y0180299D01*
X0455193Y0180700D02*
X0453233Y0180700D01*
X0453233Y0181101D02*
X0455193Y0181101D01*
X0455193Y0181502D02*
X0453233Y0181502D01*
X0453233Y0186575D02*
X0455193Y0186575D01*
X0455193Y0184221D01*
X0453233Y0184221D01*
X0453233Y0186575D01*
X0453233Y0184622D02*
X0455193Y0184622D01*
X0455193Y0185023D02*
X0453233Y0185023D01*
X0453233Y0185424D02*
X0455193Y0185424D01*
X0455193Y0185825D02*
X0453233Y0185825D01*
X0453233Y0186226D02*
X0455193Y0186226D01*
X0457170Y0186575D02*
X0459130Y0186575D01*
X0459130Y0184221D01*
X0457170Y0184221D01*
X0457170Y0186575D01*
X0457170Y0184622D02*
X0459130Y0184622D01*
X0459130Y0185023D02*
X0457170Y0185023D01*
X0457170Y0185424D02*
X0459130Y0185424D01*
X0459130Y0185825D02*
X0457170Y0185825D01*
X0457170Y0186226D02*
X0459130Y0186226D01*
X0459130Y0179497D02*
X0457170Y0179497D01*
X0457170Y0181851D01*
X0459130Y0181851D01*
X0459130Y0179497D01*
X0459130Y0179898D02*
X0457170Y0179898D01*
X0457170Y0180299D02*
X0459130Y0180299D01*
X0459130Y0180700D02*
X0457170Y0180700D01*
X0457170Y0181101D02*
X0459130Y0181101D01*
X0459130Y0181502D02*
X0457170Y0181502D01*
X0461303Y0181260D02*
X0461303Y0179300D01*
X0461303Y0181260D02*
X0463657Y0181260D01*
X0463657Y0179300D01*
X0461303Y0179300D01*
X0461303Y0179701D02*
X0463657Y0179701D01*
X0463657Y0180102D02*
X0461303Y0180102D01*
X0461303Y0180503D02*
X0463657Y0180503D01*
X0463657Y0180904D02*
X0461303Y0180904D01*
X0461303Y0177323D02*
X0461303Y0175363D01*
X0461303Y0177323D02*
X0463657Y0177323D01*
X0463657Y0175363D01*
X0461303Y0175363D01*
X0461303Y0175764D02*
X0463657Y0175764D01*
X0463657Y0176165D02*
X0461303Y0176165D01*
X0461303Y0176566D02*
X0463657Y0176566D01*
X0463657Y0176967D02*
X0461303Y0176967D01*
X0473311Y0181851D02*
X0475271Y0181851D01*
X0475271Y0179497D01*
X0473311Y0179497D01*
X0473311Y0181851D01*
X0473311Y0179898D02*
X0475271Y0179898D01*
X0475271Y0180299D02*
X0473311Y0180299D01*
X0473311Y0180700D02*
X0475271Y0180700D01*
X0475271Y0181101D02*
X0473311Y0181101D01*
X0473311Y0181502D02*
X0475271Y0181502D01*
X0477248Y0181851D02*
X0479208Y0181851D01*
X0479208Y0179497D01*
X0477248Y0179497D01*
X0477248Y0181851D01*
X0477248Y0179898D02*
X0479208Y0179898D01*
X0479208Y0180299D02*
X0477248Y0180299D01*
X0477248Y0180700D02*
X0479208Y0180700D01*
X0479208Y0181101D02*
X0477248Y0181101D01*
X0477248Y0181502D02*
X0479208Y0181502D01*
X0480792Y0181851D02*
X0482752Y0181851D01*
X0482752Y0179497D01*
X0480792Y0179497D01*
X0480792Y0181851D01*
X0480792Y0179898D02*
X0482752Y0179898D01*
X0482752Y0180299D02*
X0480792Y0180299D01*
X0480792Y0180700D02*
X0482752Y0180700D01*
X0482752Y0181101D02*
X0480792Y0181101D01*
X0480792Y0181502D02*
X0482752Y0181502D01*
X0484729Y0181851D02*
X0486689Y0181851D01*
X0486689Y0179497D01*
X0484729Y0179497D01*
X0484729Y0181851D01*
X0484729Y0179898D02*
X0486689Y0179898D01*
X0486689Y0180299D02*
X0484729Y0180299D01*
X0484729Y0180700D02*
X0486689Y0180700D01*
X0486689Y0181101D02*
X0484729Y0181101D01*
X0484729Y0181502D02*
X0486689Y0181502D01*
X0486689Y0177126D02*
X0484729Y0177126D01*
X0486689Y0177126D02*
X0486689Y0174772D01*
X0484729Y0174772D01*
X0484729Y0177126D01*
X0484729Y0175173D02*
X0486689Y0175173D01*
X0486689Y0175574D02*
X0484729Y0175574D01*
X0484729Y0175975D02*
X0486689Y0175975D01*
X0486689Y0176376D02*
X0484729Y0176376D01*
X0484729Y0176777D02*
X0486689Y0176777D01*
X0482752Y0177126D02*
X0480792Y0177126D01*
X0482752Y0177126D02*
X0482752Y0174772D01*
X0480792Y0174772D01*
X0480792Y0177126D01*
X0480792Y0175173D02*
X0482752Y0175173D01*
X0482752Y0175574D02*
X0480792Y0175574D01*
X0480792Y0175975D02*
X0482752Y0175975D01*
X0482752Y0176376D02*
X0480792Y0176376D01*
X0480792Y0176777D02*
X0482752Y0176777D01*
X0482752Y0170048D02*
X0480792Y0170048D01*
X0480792Y0172402D01*
X0482752Y0172402D01*
X0482752Y0170048D01*
X0482752Y0170449D02*
X0480792Y0170449D01*
X0480792Y0170850D02*
X0482752Y0170850D01*
X0482752Y0171251D02*
X0480792Y0171251D01*
X0480792Y0171652D02*
X0482752Y0171652D01*
X0482752Y0172053D02*
X0480792Y0172053D01*
X0479208Y0170048D02*
X0477248Y0170048D01*
X0477248Y0172402D01*
X0479208Y0172402D01*
X0479208Y0170048D01*
X0479208Y0170449D02*
X0477248Y0170449D01*
X0477248Y0170850D02*
X0479208Y0170850D01*
X0479208Y0171251D02*
X0477248Y0171251D01*
X0477248Y0171652D02*
X0479208Y0171652D01*
X0479208Y0172053D02*
X0477248Y0172053D01*
X0475271Y0170048D02*
X0473311Y0170048D01*
X0473311Y0172402D01*
X0475271Y0172402D01*
X0475271Y0170048D01*
X0475271Y0170449D02*
X0473311Y0170449D01*
X0473311Y0170850D02*
X0475271Y0170850D01*
X0475271Y0171251D02*
X0473311Y0171251D01*
X0473311Y0171652D02*
X0475271Y0171652D01*
X0475271Y0172053D02*
X0473311Y0172053D01*
X0480792Y0167678D02*
X0482752Y0167678D01*
X0482752Y0165324D01*
X0480792Y0165324D01*
X0480792Y0167678D01*
X0480792Y0165725D02*
X0482752Y0165725D01*
X0482752Y0166126D02*
X0480792Y0166126D01*
X0480792Y0166527D02*
X0482752Y0166527D01*
X0482752Y0166928D02*
X0480792Y0166928D01*
X0480792Y0167329D02*
X0482752Y0167329D01*
X0484729Y0167678D02*
X0486689Y0167678D01*
X0486689Y0165324D01*
X0484729Y0165324D01*
X0484729Y0167678D01*
X0484729Y0165725D02*
X0486689Y0165725D01*
X0486689Y0166126D02*
X0484729Y0166126D01*
X0484729Y0166527D02*
X0486689Y0166527D01*
X0486689Y0166928D02*
X0484729Y0166928D01*
X0484729Y0167329D02*
X0486689Y0167329D01*
X0486689Y0170048D02*
X0484729Y0170048D01*
X0484729Y0172402D01*
X0486689Y0172402D01*
X0486689Y0170048D01*
X0486689Y0170449D02*
X0484729Y0170449D01*
X0484729Y0170850D02*
X0486689Y0170850D01*
X0486689Y0171251D02*
X0484729Y0171251D01*
X0484729Y0171652D02*
X0486689Y0171652D01*
X0486689Y0172053D02*
X0484729Y0172053D01*
X0484729Y0162953D02*
X0486689Y0162953D01*
X0486689Y0160599D01*
X0484729Y0160599D01*
X0484729Y0162953D01*
X0484729Y0161000D02*
X0486689Y0161000D01*
X0486689Y0161401D02*
X0484729Y0161401D01*
X0484729Y0161802D02*
X0486689Y0161802D01*
X0486689Y0162203D02*
X0484729Y0162203D01*
X0484729Y0162604D02*
X0486689Y0162604D01*
X0482752Y0162953D02*
X0480792Y0162953D01*
X0482752Y0162953D02*
X0482752Y0160599D01*
X0480792Y0160599D01*
X0480792Y0162953D01*
X0480792Y0161000D02*
X0482752Y0161000D01*
X0482752Y0161401D02*
X0480792Y0161401D01*
X0480792Y0161802D02*
X0482752Y0161802D01*
X0482752Y0162203D02*
X0480792Y0162203D01*
X0480792Y0162604D02*
X0482752Y0162604D01*
X0482752Y0155875D02*
X0480792Y0155875D01*
X0480792Y0158229D01*
X0482752Y0158229D01*
X0482752Y0155875D01*
X0482752Y0156276D02*
X0480792Y0156276D01*
X0480792Y0156677D02*
X0482752Y0156677D01*
X0482752Y0157078D02*
X0480792Y0157078D01*
X0480792Y0157479D02*
X0482752Y0157479D01*
X0482752Y0157880D02*
X0480792Y0157880D01*
X0484729Y0155875D02*
X0486689Y0155875D01*
X0484729Y0155875D02*
X0484729Y0158229D01*
X0486689Y0158229D01*
X0486689Y0155875D01*
X0486689Y0156276D02*
X0484729Y0156276D01*
X0484729Y0156677D02*
X0486689Y0156677D01*
X0486689Y0157078D02*
X0484729Y0157078D01*
X0484729Y0157479D02*
X0486689Y0157479D01*
X0486689Y0157880D02*
X0484729Y0157880D01*
X0484729Y0153504D02*
X0486689Y0153504D01*
X0486689Y0151150D01*
X0484729Y0151150D01*
X0484729Y0153504D01*
X0484729Y0151551D02*
X0486689Y0151551D01*
X0486689Y0151952D02*
X0484729Y0151952D01*
X0484729Y0152353D02*
X0486689Y0152353D01*
X0486689Y0152754D02*
X0484729Y0152754D01*
X0484729Y0153155D02*
X0486689Y0153155D01*
X0482752Y0153504D02*
X0480792Y0153504D01*
X0482752Y0153504D02*
X0482752Y0151150D01*
X0480792Y0151150D01*
X0480792Y0153504D01*
X0480792Y0151551D02*
X0482752Y0151551D01*
X0482752Y0151952D02*
X0480792Y0151952D01*
X0480792Y0152353D02*
X0482752Y0152353D01*
X0482752Y0152754D02*
X0480792Y0152754D01*
X0480792Y0153155D02*
X0482752Y0153155D01*
X0479208Y0151150D02*
X0477248Y0151150D01*
X0477248Y0153504D01*
X0479208Y0153504D01*
X0479208Y0151150D01*
X0479208Y0151551D02*
X0477248Y0151551D01*
X0477248Y0151952D02*
X0479208Y0151952D01*
X0479208Y0152353D02*
X0477248Y0152353D01*
X0477248Y0152754D02*
X0479208Y0152754D01*
X0479208Y0153155D02*
X0477248Y0153155D01*
X0475271Y0151150D02*
X0473311Y0151150D01*
X0473311Y0153504D01*
X0475271Y0153504D01*
X0475271Y0151150D01*
X0475271Y0151551D02*
X0473311Y0151551D01*
X0473311Y0151952D02*
X0475271Y0151952D01*
X0475271Y0152353D02*
X0473311Y0152353D01*
X0473311Y0152754D02*
X0475271Y0152754D01*
X0475271Y0153155D02*
X0473311Y0153155D01*
X0466610Y0153504D02*
X0464650Y0153504D01*
X0466610Y0153504D02*
X0466610Y0151150D01*
X0464650Y0151150D01*
X0464650Y0153504D01*
X0464650Y0151551D02*
X0466610Y0151551D01*
X0466610Y0151952D02*
X0464650Y0151952D01*
X0464650Y0152353D02*
X0466610Y0152353D01*
X0466610Y0152754D02*
X0464650Y0152754D01*
X0464650Y0153155D02*
X0466610Y0153155D01*
X0462673Y0153504D02*
X0460713Y0153504D01*
X0462673Y0153504D02*
X0462673Y0151150D01*
X0460713Y0151150D01*
X0460713Y0153504D01*
X0460713Y0151551D02*
X0462673Y0151551D01*
X0462673Y0151952D02*
X0460713Y0151952D01*
X0460713Y0152353D02*
X0462673Y0152353D01*
X0462673Y0152754D02*
X0460713Y0152754D01*
X0460713Y0153155D02*
X0462673Y0153155D01*
X0459130Y0151150D02*
X0457170Y0151150D01*
X0457170Y0153504D01*
X0459130Y0153504D01*
X0459130Y0151150D01*
X0459130Y0151551D02*
X0457170Y0151551D01*
X0457170Y0151952D02*
X0459130Y0151952D01*
X0459130Y0152353D02*
X0457170Y0152353D01*
X0457170Y0152754D02*
X0459130Y0152754D01*
X0459130Y0153155D02*
X0457170Y0153155D01*
X0463666Y0146426D02*
X0465626Y0146426D01*
X0463666Y0146426D02*
X0463666Y0148780D01*
X0465626Y0148780D01*
X0465626Y0146426D01*
X0465626Y0146827D02*
X0463666Y0146827D01*
X0463666Y0147228D02*
X0465626Y0147228D01*
X0465626Y0147629D02*
X0463666Y0147629D01*
X0463666Y0148030D02*
X0465626Y0148030D01*
X0465626Y0148431D02*
X0463666Y0148431D01*
X0467603Y0146426D02*
X0469563Y0146426D01*
X0467603Y0146426D02*
X0467603Y0148780D01*
X0469563Y0148780D01*
X0469563Y0146426D01*
X0469563Y0146827D02*
X0467603Y0146827D01*
X0467603Y0147228D02*
X0469563Y0147228D01*
X0469563Y0147629D02*
X0467603Y0147629D01*
X0467603Y0148030D02*
X0469563Y0148030D01*
X0469563Y0148431D02*
X0467603Y0148431D01*
X0473311Y0148780D02*
X0475271Y0148780D01*
X0475271Y0146426D01*
X0473311Y0146426D01*
X0473311Y0148780D01*
X0473311Y0146827D02*
X0475271Y0146827D01*
X0475271Y0147228D02*
X0473311Y0147228D01*
X0473311Y0147629D02*
X0475271Y0147629D01*
X0475271Y0148030D02*
X0473311Y0148030D01*
X0473311Y0148431D02*
X0475271Y0148431D01*
X0477248Y0148780D02*
X0479208Y0148780D01*
X0479208Y0146426D01*
X0477248Y0146426D01*
X0477248Y0148780D01*
X0477248Y0146827D02*
X0479208Y0146827D01*
X0479208Y0147228D02*
X0477248Y0147228D01*
X0477248Y0147629D02*
X0479208Y0147629D01*
X0479208Y0148030D02*
X0477248Y0148030D01*
X0477248Y0148431D02*
X0479208Y0148431D01*
X0480792Y0148780D02*
X0482752Y0148780D01*
X0482752Y0146426D01*
X0480792Y0146426D01*
X0480792Y0148780D01*
X0480792Y0146827D02*
X0482752Y0146827D01*
X0482752Y0147228D02*
X0480792Y0147228D01*
X0480792Y0147629D02*
X0482752Y0147629D01*
X0482752Y0148030D02*
X0480792Y0148030D01*
X0480792Y0148431D02*
X0482752Y0148431D01*
X0484729Y0148780D02*
X0486689Y0148780D01*
X0486689Y0146426D01*
X0484729Y0146426D01*
X0484729Y0148780D01*
X0484729Y0146827D02*
X0486689Y0146827D01*
X0486689Y0147228D02*
X0484729Y0147228D01*
X0484729Y0147629D02*
X0486689Y0147629D01*
X0486689Y0148030D02*
X0484729Y0148030D01*
X0484729Y0148431D02*
X0486689Y0148431D01*
X0486689Y0137756D02*
X0484729Y0137756D01*
X0486689Y0137756D02*
X0486689Y0135402D01*
X0484729Y0135402D01*
X0484729Y0137756D01*
X0484729Y0135803D02*
X0486689Y0135803D01*
X0486689Y0136204D02*
X0484729Y0136204D01*
X0484729Y0136605D02*
X0486689Y0136605D01*
X0486689Y0137006D02*
X0484729Y0137006D01*
X0484729Y0137407D02*
X0486689Y0137407D01*
X0482752Y0137756D02*
X0480792Y0137756D01*
X0482752Y0137756D02*
X0482752Y0135402D01*
X0480792Y0135402D01*
X0480792Y0137756D01*
X0480792Y0135803D02*
X0482752Y0135803D01*
X0482752Y0136204D02*
X0480792Y0136204D01*
X0480792Y0136605D02*
X0482752Y0136605D01*
X0482752Y0137006D02*
X0480792Y0137006D01*
X0480792Y0137407D02*
X0482752Y0137407D01*
X0479208Y0137756D02*
X0477248Y0137756D01*
X0479208Y0137756D02*
X0479208Y0135402D01*
X0477248Y0135402D01*
X0477248Y0137756D01*
X0477248Y0135803D02*
X0479208Y0135803D01*
X0479208Y0136204D02*
X0477248Y0136204D01*
X0477248Y0136605D02*
X0479208Y0136605D01*
X0479208Y0137006D02*
X0477248Y0137006D01*
X0477248Y0137407D02*
X0479208Y0137407D01*
X0475271Y0137756D02*
X0473311Y0137756D01*
X0475271Y0137756D02*
X0475271Y0135402D01*
X0473311Y0135402D01*
X0473311Y0137756D01*
X0473311Y0135803D02*
X0475271Y0135803D01*
X0475271Y0136204D02*
X0473311Y0136204D01*
X0473311Y0136605D02*
X0475271Y0136605D01*
X0475271Y0137006D02*
X0473311Y0137006D01*
X0473311Y0137407D02*
X0475271Y0137407D01*
X0480792Y0133032D02*
X0482752Y0133032D01*
X0482752Y0130678D01*
X0480792Y0130678D01*
X0480792Y0133032D01*
X0480792Y0131079D02*
X0482752Y0131079D01*
X0482752Y0131480D02*
X0480792Y0131480D01*
X0480792Y0131881D02*
X0482752Y0131881D01*
X0482752Y0132282D02*
X0480792Y0132282D01*
X0480792Y0132683D02*
X0482752Y0132683D01*
X0484729Y0133032D02*
X0486689Y0133032D01*
X0486689Y0130678D01*
X0484729Y0130678D01*
X0484729Y0133032D01*
X0484729Y0131079D02*
X0486689Y0131079D01*
X0486689Y0131480D02*
X0484729Y0131480D01*
X0484729Y0131881D02*
X0486689Y0131881D01*
X0486689Y0132282D02*
X0484729Y0132282D01*
X0484729Y0132683D02*
X0486689Y0132683D01*
X0486689Y0125954D02*
X0484729Y0125954D01*
X0484729Y0128308D01*
X0486689Y0128308D01*
X0486689Y0125954D01*
X0486689Y0126355D02*
X0484729Y0126355D01*
X0484729Y0126756D02*
X0486689Y0126756D01*
X0486689Y0127157D02*
X0484729Y0127157D01*
X0484729Y0127558D02*
X0486689Y0127558D01*
X0486689Y0127959D02*
X0484729Y0127959D01*
X0482752Y0125954D02*
X0480792Y0125954D01*
X0480792Y0128308D01*
X0482752Y0128308D01*
X0482752Y0125954D01*
X0482752Y0126355D02*
X0480792Y0126355D01*
X0480792Y0126756D02*
X0482752Y0126756D01*
X0482752Y0127157D02*
X0480792Y0127157D01*
X0480792Y0127558D02*
X0482752Y0127558D01*
X0482752Y0127959D02*
X0480792Y0127959D01*
X0479208Y0125954D02*
X0477248Y0125954D01*
X0477248Y0128308D01*
X0479208Y0128308D01*
X0479208Y0125954D01*
X0479208Y0126355D02*
X0477248Y0126355D01*
X0477248Y0126756D02*
X0479208Y0126756D01*
X0479208Y0127157D02*
X0477248Y0127157D01*
X0477248Y0127558D02*
X0479208Y0127558D01*
X0479208Y0127959D02*
X0477248Y0127959D01*
X0475271Y0125954D02*
X0473311Y0125954D01*
X0473311Y0128308D01*
X0475271Y0128308D01*
X0475271Y0125954D01*
X0475271Y0126355D02*
X0473311Y0126355D01*
X0473311Y0126756D02*
X0475271Y0126756D01*
X0475271Y0127157D02*
X0473311Y0127157D01*
X0473311Y0127558D02*
X0475271Y0127558D01*
X0475271Y0127959D02*
X0473311Y0127959D01*
X0480792Y0123583D02*
X0482752Y0123583D01*
X0482752Y0121229D01*
X0480792Y0121229D01*
X0480792Y0123583D01*
X0480792Y0121630D02*
X0482752Y0121630D01*
X0482752Y0122031D02*
X0480792Y0122031D01*
X0480792Y0122432D02*
X0482752Y0122432D01*
X0482752Y0122833D02*
X0480792Y0122833D01*
X0480792Y0123234D02*
X0482752Y0123234D01*
X0484729Y0123583D02*
X0486689Y0123583D01*
X0486689Y0121229D01*
X0484729Y0121229D01*
X0484729Y0123583D01*
X0484729Y0121630D02*
X0486689Y0121630D01*
X0486689Y0122031D02*
X0484729Y0122031D01*
X0484729Y0122432D02*
X0486689Y0122432D01*
X0486689Y0122833D02*
X0484729Y0122833D01*
X0484729Y0123234D02*
X0486689Y0123234D01*
X0486689Y0118859D02*
X0484729Y0118859D01*
X0486689Y0118859D02*
X0486689Y0116505D01*
X0484729Y0116505D01*
X0484729Y0118859D01*
X0484729Y0116906D02*
X0486689Y0116906D01*
X0486689Y0117307D02*
X0484729Y0117307D01*
X0484729Y0117708D02*
X0486689Y0117708D01*
X0486689Y0118109D02*
X0484729Y0118109D01*
X0484729Y0118510D02*
X0486689Y0118510D01*
X0482752Y0118859D02*
X0480792Y0118859D01*
X0482752Y0118859D02*
X0482752Y0116505D01*
X0480792Y0116505D01*
X0480792Y0118859D01*
X0480792Y0116906D02*
X0482752Y0116906D01*
X0482752Y0117307D02*
X0480792Y0117307D01*
X0480792Y0117708D02*
X0482752Y0117708D01*
X0482752Y0118109D02*
X0480792Y0118109D01*
X0480792Y0118510D02*
X0482752Y0118510D01*
X0482752Y0111780D02*
X0480792Y0111780D01*
X0480792Y0114134D01*
X0482752Y0114134D01*
X0482752Y0111780D01*
X0482752Y0112181D02*
X0480792Y0112181D01*
X0480792Y0112582D02*
X0482752Y0112582D01*
X0482752Y0112983D02*
X0480792Y0112983D01*
X0480792Y0113384D02*
X0482752Y0113384D01*
X0482752Y0113785D02*
X0480792Y0113785D01*
X0484729Y0111780D02*
X0486689Y0111780D01*
X0484729Y0111780D02*
X0484729Y0114134D01*
X0486689Y0114134D01*
X0486689Y0111780D01*
X0486689Y0112181D02*
X0484729Y0112181D01*
X0484729Y0112582D02*
X0486689Y0112582D01*
X0486689Y0112983D02*
X0484729Y0112983D01*
X0484729Y0113384D02*
X0486689Y0113384D01*
X0486689Y0113785D02*
X0484729Y0113785D01*
X0484729Y0109410D02*
X0486689Y0109410D01*
X0486689Y0107056D01*
X0484729Y0107056D01*
X0484729Y0109410D01*
X0484729Y0107457D02*
X0486689Y0107457D01*
X0486689Y0107858D02*
X0484729Y0107858D01*
X0484729Y0108259D02*
X0486689Y0108259D01*
X0486689Y0108660D02*
X0484729Y0108660D01*
X0484729Y0109061D02*
X0486689Y0109061D01*
X0482752Y0109410D02*
X0480792Y0109410D01*
X0482752Y0109410D02*
X0482752Y0107056D01*
X0480792Y0107056D01*
X0480792Y0109410D01*
X0480792Y0107457D02*
X0482752Y0107457D01*
X0482752Y0107858D02*
X0480792Y0107858D01*
X0480792Y0108259D02*
X0482752Y0108259D01*
X0482752Y0108660D02*
X0480792Y0108660D01*
X0480792Y0109061D02*
X0482752Y0109061D01*
X0479208Y0107056D02*
X0477248Y0107056D01*
X0477248Y0109410D01*
X0479208Y0109410D01*
X0479208Y0107056D01*
X0479208Y0107457D02*
X0477248Y0107457D01*
X0477248Y0107858D02*
X0479208Y0107858D01*
X0479208Y0108259D02*
X0477248Y0108259D01*
X0477248Y0108660D02*
X0479208Y0108660D01*
X0479208Y0109061D02*
X0477248Y0109061D01*
X0475271Y0107056D02*
X0473311Y0107056D01*
X0473311Y0109410D01*
X0475271Y0109410D01*
X0475271Y0107056D01*
X0475271Y0107457D02*
X0473311Y0107457D01*
X0473311Y0107858D02*
X0475271Y0107858D01*
X0475271Y0108259D02*
X0473311Y0108259D01*
X0473311Y0108660D02*
X0475271Y0108660D01*
X0475271Y0109061D02*
X0473311Y0109061D01*
X0466610Y0114134D02*
X0464650Y0114134D01*
X0466610Y0114134D02*
X0466610Y0111780D01*
X0464650Y0111780D01*
X0464650Y0114134D01*
X0464650Y0112181D02*
X0466610Y0112181D01*
X0466610Y0112582D02*
X0464650Y0112582D01*
X0464650Y0112983D02*
X0466610Y0112983D01*
X0466610Y0113384D02*
X0464650Y0113384D01*
X0464650Y0113785D02*
X0466610Y0113785D01*
X0462673Y0114134D02*
X0460713Y0114134D01*
X0462673Y0114134D02*
X0462673Y0111780D01*
X0460713Y0111780D01*
X0460713Y0114134D01*
X0460713Y0112181D02*
X0462673Y0112181D01*
X0462673Y0112582D02*
X0460713Y0112582D01*
X0460713Y0112983D02*
X0462673Y0112983D01*
X0462673Y0113384D02*
X0460713Y0113384D01*
X0460713Y0113785D02*
X0462673Y0113785D01*
X0459130Y0114134D02*
X0457170Y0114134D01*
X0459130Y0114134D02*
X0459130Y0111780D01*
X0457170Y0111780D01*
X0457170Y0114134D01*
X0457170Y0112181D02*
X0459130Y0112181D01*
X0459130Y0112582D02*
X0457170Y0112582D01*
X0457170Y0112983D02*
X0459130Y0112983D01*
X0459130Y0113384D02*
X0457170Y0113384D01*
X0457170Y0113785D02*
X0459130Y0113785D01*
X0459130Y0116505D02*
X0457170Y0116505D01*
X0457170Y0118859D01*
X0459130Y0118859D01*
X0459130Y0116505D01*
X0459130Y0116906D02*
X0457170Y0116906D01*
X0457170Y0117307D02*
X0459130Y0117307D01*
X0459130Y0117708D02*
X0457170Y0117708D01*
X0457170Y0118109D02*
X0459130Y0118109D01*
X0459130Y0118510D02*
X0457170Y0118510D01*
X0455193Y0116505D02*
X0453233Y0116505D01*
X0453233Y0118859D01*
X0455193Y0118859D01*
X0455193Y0116505D01*
X0455193Y0116906D02*
X0453233Y0116906D01*
X0453233Y0117307D02*
X0455193Y0117307D01*
X0455193Y0117708D02*
X0453233Y0117708D01*
X0453233Y0118109D02*
X0455193Y0118109D01*
X0455193Y0118510D02*
X0453233Y0118510D01*
X0453233Y0121229D02*
X0455193Y0121229D01*
X0453233Y0121229D02*
X0453233Y0123583D01*
X0455193Y0123583D01*
X0455193Y0121229D01*
X0455193Y0121630D02*
X0453233Y0121630D01*
X0453233Y0122031D02*
X0455193Y0122031D01*
X0455193Y0122432D02*
X0453233Y0122432D01*
X0453233Y0122833D02*
X0455193Y0122833D01*
X0455193Y0123234D02*
X0453233Y0123234D01*
X0453233Y0128308D02*
X0455193Y0128308D01*
X0455193Y0125954D01*
X0453233Y0125954D01*
X0453233Y0128308D01*
X0453233Y0126355D02*
X0455193Y0126355D01*
X0455193Y0126756D02*
X0453233Y0126756D01*
X0453233Y0127157D02*
X0455193Y0127157D01*
X0455193Y0127558D02*
X0453233Y0127558D01*
X0453233Y0127959D02*
X0455193Y0127959D01*
X0457170Y0128308D02*
X0459130Y0128308D01*
X0459130Y0125954D01*
X0457170Y0125954D01*
X0457170Y0128308D01*
X0457170Y0126355D02*
X0459130Y0126355D01*
X0459130Y0126756D02*
X0457170Y0126756D01*
X0457170Y0127157D02*
X0459130Y0127157D01*
X0459130Y0127558D02*
X0457170Y0127558D01*
X0457170Y0127959D02*
X0459130Y0127959D01*
X0463854Y0127332D02*
X0463854Y0129292D01*
X0463854Y0127332D02*
X0461500Y0127332D01*
X0461500Y0129292D01*
X0463854Y0129292D01*
X0463854Y0127733D02*
X0461500Y0127733D01*
X0461500Y0128134D02*
X0463854Y0128134D01*
X0463854Y0128535D02*
X0461500Y0128535D01*
X0461500Y0128936D02*
X0463854Y0128936D01*
X0463854Y0131269D02*
X0463854Y0133229D01*
X0463854Y0131269D02*
X0461500Y0131269D01*
X0461500Y0133229D01*
X0463854Y0133229D01*
X0463854Y0131670D02*
X0461500Y0131670D01*
X0461500Y0132071D02*
X0463854Y0132071D01*
X0463854Y0132472D02*
X0461500Y0132472D01*
X0461500Y0132873D02*
X0463854Y0132873D01*
X0459130Y0130678D02*
X0457170Y0130678D01*
X0457170Y0133032D01*
X0459130Y0133032D01*
X0459130Y0130678D01*
X0459130Y0131079D02*
X0457170Y0131079D01*
X0457170Y0131480D02*
X0459130Y0131480D01*
X0459130Y0131881D02*
X0457170Y0131881D01*
X0457170Y0132282D02*
X0459130Y0132282D01*
X0459130Y0132683D02*
X0457170Y0132683D01*
X0455193Y0130678D02*
X0453233Y0130678D01*
X0453233Y0133032D01*
X0455193Y0133032D01*
X0455193Y0130678D01*
X0455193Y0131079D02*
X0453233Y0131079D01*
X0453233Y0131480D02*
X0455193Y0131480D01*
X0455193Y0131881D02*
X0453233Y0131881D01*
X0453233Y0132282D02*
X0455193Y0132282D01*
X0455193Y0132683D02*
X0453233Y0132683D01*
X0453233Y0135402D02*
X0455193Y0135402D01*
X0453233Y0135402D02*
X0453233Y0137756D01*
X0455193Y0137756D01*
X0455193Y0135402D01*
X0455193Y0135803D02*
X0453233Y0135803D01*
X0453233Y0136204D02*
X0455193Y0136204D01*
X0455193Y0136605D02*
X0453233Y0136605D01*
X0453233Y0137006D02*
X0455193Y0137006D01*
X0455193Y0137407D02*
X0453233Y0137407D01*
X0457170Y0135402D02*
X0459130Y0135402D01*
X0457170Y0135402D02*
X0457170Y0137756D01*
X0459130Y0137756D01*
X0459130Y0135402D01*
X0459130Y0135803D02*
X0457170Y0135803D01*
X0457170Y0136204D02*
X0459130Y0136204D01*
X0459130Y0136605D02*
X0457170Y0136605D01*
X0457170Y0137006D02*
X0459130Y0137006D01*
X0459130Y0137407D02*
X0457170Y0137407D01*
X0457170Y0121229D02*
X0459130Y0121229D01*
X0457170Y0121229D02*
X0457170Y0123583D01*
X0459130Y0123583D01*
X0459130Y0121229D01*
X0459130Y0121630D02*
X0457170Y0121630D01*
X0457170Y0122031D02*
X0459130Y0122031D01*
X0459130Y0122432D02*
X0457170Y0122432D01*
X0457170Y0122833D02*
X0459130Y0122833D01*
X0459130Y0123234D02*
X0457170Y0123234D01*
X0455193Y0114134D02*
X0453233Y0114134D01*
X0455193Y0114134D02*
X0455193Y0111780D01*
X0453233Y0111780D01*
X0453233Y0114134D01*
X0453233Y0112181D02*
X0455193Y0112181D01*
X0455193Y0112582D02*
X0453233Y0112582D01*
X0453233Y0112983D02*
X0455193Y0112983D01*
X0455193Y0113384D02*
X0453233Y0113384D01*
X0453233Y0113785D02*
X0455193Y0113785D01*
X0455193Y0107056D02*
X0453233Y0107056D01*
X0453233Y0109410D01*
X0455193Y0109410D01*
X0455193Y0107056D01*
X0455193Y0107457D02*
X0453233Y0107457D01*
X0453233Y0107858D02*
X0455193Y0107858D01*
X0455193Y0108259D02*
X0453233Y0108259D01*
X0453233Y0108660D02*
X0455193Y0108660D01*
X0455193Y0109061D02*
X0453233Y0109061D01*
X0457170Y0107056D02*
X0459130Y0107056D01*
X0457170Y0107056D02*
X0457170Y0109410D01*
X0459130Y0109410D01*
X0459130Y0107056D01*
X0459130Y0107457D02*
X0457170Y0107457D01*
X0457170Y0107858D02*
X0459130Y0107858D01*
X0459130Y0108259D02*
X0457170Y0108259D01*
X0457170Y0108660D02*
X0459130Y0108660D01*
X0459130Y0109061D02*
X0457170Y0109061D01*
X0457170Y0102332D02*
X0459130Y0102332D01*
X0457170Y0102332D02*
X0457170Y0104686D01*
X0459130Y0104686D01*
X0459130Y0102332D01*
X0459130Y0102733D02*
X0457170Y0102733D01*
X0457170Y0103134D02*
X0459130Y0103134D01*
X0459130Y0103535D02*
X0457170Y0103535D01*
X0457170Y0103936D02*
X0459130Y0103936D01*
X0459130Y0104337D02*
X0457170Y0104337D01*
X0455193Y0102332D02*
X0453233Y0102332D01*
X0453233Y0104686D01*
X0455193Y0104686D01*
X0455193Y0102332D01*
X0455193Y0102733D02*
X0453233Y0102733D01*
X0453233Y0103134D02*
X0455193Y0103134D01*
X0455193Y0103535D02*
X0453233Y0103535D01*
X0453233Y0103936D02*
X0455193Y0103936D01*
X0455193Y0104337D02*
X0453233Y0104337D01*
X0460713Y0102332D02*
X0462673Y0102332D01*
X0460713Y0102332D02*
X0460713Y0104686D01*
X0462673Y0104686D01*
X0462673Y0102332D01*
X0462673Y0102733D02*
X0460713Y0102733D01*
X0460713Y0103134D02*
X0462673Y0103134D01*
X0462673Y0103535D02*
X0460713Y0103535D01*
X0460713Y0103936D02*
X0462673Y0103936D01*
X0462673Y0104337D02*
X0460713Y0104337D01*
X0464650Y0102332D02*
X0466610Y0102332D01*
X0464650Y0102332D02*
X0464650Y0104686D01*
X0466610Y0104686D01*
X0466610Y0102332D01*
X0466610Y0102733D02*
X0464650Y0102733D01*
X0464650Y0103134D02*
X0466610Y0103134D01*
X0466610Y0103535D02*
X0464650Y0103535D01*
X0464650Y0103936D02*
X0466610Y0103936D01*
X0466610Y0104337D02*
X0464650Y0104337D01*
X0473311Y0104686D02*
X0475271Y0104686D01*
X0475271Y0102332D01*
X0473311Y0102332D01*
X0473311Y0104686D01*
X0473311Y0102733D02*
X0475271Y0102733D01*
X0475271Y0103134D02*
X0473311Y0103134D01*
X0473311Y0103535D02*
X0475271Y0103535D01*
X0475271Y0103936D02*
X0473311Y0103936D01*
X0473311Y0104337D02*
X0475271Y0104337D01*
X0477248Y0104686D02*
X0479208Y0104686D01*
X0479208Y0102332D01*
X0477248Y0102332D01*
X0477248Y0104686D01*
X0477248Y0102733D02*
X0479208Y0102733D01*
X0479208Y0103134D02*
X0477248Y0103134D01*
X0477248Y0103535D02*
X0479208Y0103535D01*
X0479208Y0103936D02*
X0477248Y0103936D01*
X0477248Y0104337D02*
X0479208Y0104337D01*
X0480792Y0104686D02*
X0482752Y0104686D01*
X0482752Y0102332D01*
X0480792Y0102332D01*
X0480792Y0104686D01*
X0480792Y0102733D02*
X0482752Y0102733D01*
X0482752Y0103134D02*
X0480792Y0103134D01*
X0480792Y0103535D02*
X0482752Y0103535D01*
X0482752Y0103936D02*
X0480792Y0103936D01*
X0480792Y0104337D02*
X0482752Y0104337D01*
X0484729Y0104686D02*
X0486689Y0104686D01*
X0486689Y0102332D01*
X0484729Y0102332D01*
X0484729Y0104686D01*
X0484729Y0102733D02*
X0486689Y0102733D01*
X0486689Y0103134D02*
X0484729Y0103134D01*
X0484729Y0103535D02*
X0486689Y0103535D01*
X0486689Y0103936D02*
X0484729Y0103936D01*
X0484729Y0104337D02*
X0486689Y0104337D01*
X0520555Y0102332D02*
X0522515Y0102332D01*
X0520555Y0102332D02*
X0520555Y0104686D01*
X0522515Y0104686D01*
X0522515Y0102332D01*
X0522515Y0102733D02*
X0520555Y0102733D01*
X0520555Y0103134D02*
X0522515Y0103134D01*
X0522515Y0103535D02*
X0520555Y0103535D01*
X0520555Y0103936D02*
X0522515Y0103936D01*
X0522515Y0104337D02*
X0520555Y0104337D01*
X0520555Y0107056D02*
X0522515Y0107056D01*
X0520555Y0107056D02*
X0520555Y0109410D01*
X0522515Y0109410D01*
X0522515Y0107056D01*
X0522515Y0107457D02*
X0520555Y0107457D01*
X0520555Y0107858D02*
X0522515Y0107858D01*
X0522515Y0108259D02*
X0520555Y0108259D01*
X0520555Y0108660D02*
X0522515Y0108660D01*
X0522515Y0109061D02*
X0520555Y0109061D01*
X0520555Y0114134D02*
X0522515Y0114134D01*
X0522515Y0111780D01*
X0520555Y0111780D01*
X0520555Y0114134D01*
X0520555Y0112181D02*
X0522515Y0112181D01*
X0522515Y0112582D02*
X0520555Y0112582D01*
X0520555Y0112983D02*
X0522515Y0112983D01*
X0522515Y0113384D02*
X0520555Y0113384D01*
X0520555Y0113785D02*
X0522515Y0113785D01*
X0524492Y0114134D02*
X0526452Y0114134D01*
X0526452Y0111780D01*
X0524492Y0111780D01*
X0524492Y0114134D01*
X0524492Y0112181D02*
X0526452Y0112181D01*
X0526452Y0112582D02*
X0524492Y0112582D01*
X0524492Y0112983D02*
X0526452Y0112983D01*
X0526452Y0113384D02*
X0524492Y0113384D01*
X0524492Y0113785D02*
X0526452Y0113785D01*
X0526452Y0116505D02*
X0524492Y0116505D01*
X0524492Y0118859D01*
X0526452Y0118859D01*
X0526452Y0116505D01*
X0526452Y0116906D02*
X0524492Y0116906D01*
X0524492Y0117307D02*
X0526452Y0117307D01*
X0526452Y0117708D02*
X0524492Y0117708D01*
X0524492Y0118109D02*
X0526452Y0118109D01*
X0526452Y0118510D02*
X0524492Y0118510D01*
X0522515Y0116505D02*
X0520555Y0116505D01*
X0520555Y0118859D01*
X0522515Y0118859D01*
X0522515Y0116505D01*
X0522515Y0116906D02*
X0520555Y0116906D01*
X0520555Y0117307D02*
X0522515Y0117307D01*
X0522515Y0117708D02*
X0520555Y0117708D01*
X0520555Y0118109D02*
X0522515Y0118109D01*
X0522515Y0118510D02*
X0520555Y0118510D01*
X0524886Y0126347D02*
X0526846Y0126347D01*
X0524886Y0126347D02*
X0524886Y0128701D01*
X0526846Y0128701D01*
X0526846Y0126347D01*
X0526846Y0126748D02*
X0524886Y0126748D01*
X0524886Y0127149D02*
X0526846Y0127149D01*
X0526846Y0127550D02*
X0524886Y0127550D01*
X0524886Y0127951D02*
X0526846Y0127951D01*
X0526846Y0128352D02*
X0524886Y0128352D01*
X0524886Y0133426D02*
X0526846Y0133426D01*
X0526846Y0131072D01*
X0524886Y0131072D01*
X0524886Y0133426D01*
X0524886Y0131473D02*
X0526846Y0131473D01*
X0526846Y0131874D02*
X0524886Y0131874D01*
X0524886Y0132275D02*
X0526846Y0132275D01*
X0526846Y0132676D02*
X0524886Y0132676D01*
X0524886Y0133077D02*
X0526846Y0133077D01*
X0526846Y0135796D02*
X0524886Y0135796D01*
X0524886Y0138150D01*
X0526846Y0138150D01*
X0526846Y0135796D01*
X0526846Y0136197D02*
X0524886Y0136197D01*
X0524886Y0136598D02*
X0526846Y0136598D01*
X0526846Y0136999D02*
X0524886Y0136999D01*
X0524886Y0137400D02*
X0526846Y0137400D01*
X0526846Y0137801D02*
X0524886Y0137801D01*
X0522909Y0135796D02*
X0520949Y0135796D01*
X0520949Y0138150D01*
X0522909Y0138150D01*
X0522909Y0135796D01*
X0522909Y0136197D02*
X0520949Y0136197D01*
X0520949Y0136598D02*
X0522909Y0136598D01*
X0522909Y0136999D02*
X0520949Y0136999D01*
X0520949Y0137400D02*
X0522909Y0137400D01*
X0522909Y0137801D02*
X0520949Y0137801D01*
X0520949Y0140521D02*
X0522909Y0140521D01*
X0520949Y0140521D02*
X0520949Y0142875D01*
X0522909Y0142875D01*
X0522909Y0140521D01*
X0522909Y0140922D02*
X0520949Y0140922D01*
X0520949Y0141323D02*
X0522909Y0141323D01*
X0522909Y0141724D02*
X0520949Y0141724D01*
X0520949Y0142125D02*
X0522909Y0142125D01*
X0522909Y0142526D02*
X0520949Y0142526D01*
X0524886Y0140521D02*
X0526846Y0140521D01*
X0524886Y0140521D02*
X0524886Y0142875D01*
X0526846Y0142875D01*
X0526846Y0140521D01*
X0526846Y0140922D02*
X0524886Y0140922D01*
X0524886Y0141323D02*
X0526846Y0141323D01*
X0526846Y0141724D02*
X0524886Y0141724D01*
X0524886Y0142125D02*
X0526846Y0142125D01*
X0526846Y0142526D02*
X0524886Y0142526D01*
X0524492Y0146426D02*
X0526452Y0146426D01*
X0524492Y0146426D02*
X0524492Y0148780D01*
X0526452Y0148780D01*
X0526452Y0146426D01*
X0526452Y0146827D02*
X0524492Y0146827D01*
X0524492Y0147228D02*
X0526452Y0147228D01*
X0526452Y0147629D02*
X0524492Y0147629D01*
X0524492Y0148030D02*
X0526452Y0148030D01*
X0526452Y0148431D02*
X0524492Y0148431D01*
X0522515Y0146426D02*
X0520555Y0146426D01*
X0520555Y0148780D01*
X0522515Y0148780D01*
X0522515Y0146426D01*
X0522515Y0146827D02*
X0520555Y0146827D01*
X0520555Y0147228D02*
X0522515Y0147228D01*
X0522515Y0147629D02*
X0520555Y0147629D01*
X0520555Y0148030D02*
X0522515Y0148030D01*
X0522515Y0148431D02*
X0520555Y0148431D01*
X0520555Y0151150D02*
X0522515Y0151150D01*
X0520555Y0151150D02*
X0520555Y0153504D01*
X0522515Y0153504D01*
X0522515Y0151150D01*
X0522515Y0151551D02*
X0520555Y0151551D01*
X0520555Y0151952D02*
X0522515Y0151952D01*
X0522515Y0152353D02*
X0520555Y0152353D01*
X0520555Y0152754D02*
X0522515Y0152754D01*
X0522515Y0153155D02*
X0520555Y0153155D01*
X0520555Y0158229D02*
X0522515Y0158229D01*
X0522515Y0155875D01*
X0520555Y0155875D01*
X0520555Y0158229D01*
X0520555Y0156276D02*
X0522515Y0156276D01*
X0522515Y0156677D02*
X0520555Y0156677D01*
X0520555Y0157078D02*
X0522515Y0157078D01*
X0522515Y0157479D02*
X0520555Y0157479D01*
X0520555Y0157880D02*
X0522515Y0157880D01*
X0524492Y0158229D02*
X0526452Y0158229D01*
X0526452Y0155875D01*
X0524492Y0155875D01*
X0524492Y0158229D01*
X0524492Y0156276D02*
X0526452Y0156276D01*
X0526452Y0156677D02*
X0524492Y0156677D01*
X0524492Y0157078D02*
X0526452Y0157078D01*
X0526452Y0157479D02*
X0524492Y0157479D01*
X0524492Y0157880D02*
X0526452Y0157880D01*
X0526452Y0160599D02*
X0524492Y0160599D01*
X0524492Y0162953D01*
X0526452Y0162953D01*
X0526452Y0160599D01*
X0526452Y0161000D02*
X0524492Y0161000D01*
X0524492Y0161401D02*
X0526452Y0161401D01*
X0526452Y0161802D02*
X0524492Y0161802D01*
X0524492Y0162203D02*
X0526452Y0162203D01*
X0526452Y0162604D02*
X0524492Y0162604D01*
X0522515Y0160599D02*
X0520555Y0160599D01*
X0520555Y0162953D01*
X0522515Y0162953D01*
X0522515Y0160599D01*
X0522515Y0161000D02*
X0520555Y0161000D01*
X0520555Y0161401D02*
X0522515Y0161401D01*
X0522515Y0161802D02*
X0520555Y0161802D01*
X0520555Y0162203D02*
X0522515Y0162203D01*
X0522515Y0162604D02*
X0520555Y0162604D01*
X0520555Y0165324D02*
X0522515Y0165324D01*
X0520555Y0165324D02*
X0520555Y0167678D01*
X0522515Y0167678D01*
X0522515Y0165324D01*
X0522515Y0165725D02*
X0520555Y0165725D01*
X0520555Y0166126D02*
X0522515Y0166126D01*
X0522515Y0166527D02*
X0520555Y0166527D01*
X0520555Y0166928D02*
X0522515Y0166928D01*
X0522515Y0167329D02*
X0520555Y0167329D01*
X0520555Y0172402D02*
X0522515Y0172402D01*
X0522515Y0170048D01*
X0520555Y0170048D01*
X0520555Y0172402D01*
X0520555Y0170449D02*
X0522515Y0170449D01*
X0522515Y0170850D02*
X0520555Y0170850D01*
X0520555Y0171251D02*
X0522515Y0171251D01*
X0522515Y0171652D02*
X0520555Y0171652D01*
X0520555Y0172053D02*
X0522515Y0172053D01*
X0524492Y0172402D02*
X0526452Y0172402D01*
X0526452Y0170048D01*
X0524492Y0170048D01*
X0524492Y0172402D01*
X0524492Y0170449D02*
X0526452Y0170449D01*
X0526452Y0170850D02*
X0524492Y0170850D01*
X0524492Y0171251D02*
X0526452Y0171251D01*
X0526452Y0171652D02*
X0524492Y0171652D01*
X0524492Y0172053D02*
X0526452Y0172053D01*
X0526452Y0174772D02*
X0524492Y0174772D01*
X0524492Y0177126D01*
X0526452Y0177126D01*
X0526452Y0174772D01*
X0526452Y0175173D02*
X0524492Y0175173D01*
X0524492Y0175574D02*
X0526452Y0175574D01*
X0526452Y0175975D02*
X0524492Y0175975D01*
X0524492Y0176376D02*
X0526452Y0176376D01*
X0526452Y0176777D02*
X0524492Y0176777D01*
X0522515Y0174772D02*
X0520555Y0174772D01*
X0520555Y0177126D01*
X0522515Y0177126D01*
X0522515Y0174772D01*
X0522515Y0175173D02*
X0520555Y0175173D01*
X0520555Y0175574D02*
X0522515Y0175574D01*
X0522515Y0175975D02*
X0520555Y0175975D01*
X0520555Y0176376D02*
X0522515Y0176376D01*
X0522515Y0176777D02*
X0520555Y0176777D01*
X0520555Y0179497D02*
X0522515Y0179497D01*
X0520555Y0179497D02*
X0520555Y0181851D01*
X0522515Y0181851D01*
X0522515Y0179497D01*
X0522515Y0179898D02*
X0520555Y0179898D01*
X0520555Y0180299D02*
X0522515Y0180299D01*
X0522515Y0180700D02*
X0520555Y0180700D01*
X0520555Y0181101D02*
X0522515Y0181101D01*
X0522515Y0181502D02*
X0520555Y0181502D01*
X0520555Y0186575D02*
X0522515Y0186575D01*
X0522515Y0184221D01*
X0520555Y0184221D01*
X0520555Y0186575D01*
X0520555Y0184622D02*
X0522515Y0184622D01*
X0522515Y0185023D02*
X0520555Y0185023D01*
X0520555Y0185424D02*
X0522515Y0185424D01*
X0522515Y0185825D02*
X0520555Y0185825D01*
X0520555Y0186226D02*
X0522515Y0186226D01*
X0524492Y0186575D02*
X0526452Y0186575D01*
X0526452Y0184221D01*
X0524492Y0184221D01*
X0524492Y0186575D01*
X0524492Y0184622D02*
X0526452Y0184622D01*
X0526452Y0185023D02*
X0524492Y0185023D01*
X0524492Y0185424D02*
X0526452Y0185424D01*
X0526452Y0185825D02*
X0524492Y0185825D01*
X0524492Y0186226D02*
X0526452Y0186226D01*
X0526452Y0179497D02*
X0524492Y0179497D01*
X0524492Y0181851D01*
X0526452Y0181851D01*
X0526452Y0179497D01*
X0526452Y0179898D02*
X0524492Y0179898D01*
X0524492Y0180299D02*
X0526452Y0180299D01*
X0526452Y0180700D02*
X0524492Y0180700D01*
X0524492Y0181101D02*
X0526452Y0181101D01*
X0526452Y0181502D02*
X0524492Y0181502D01*
X0528626Y0181260D02*
X0528626Y0179300D01*
X0528626Y0181260D02*
X0530980Y0181260D01*
X0530980Y0179300D01*
X0528626Y0179300D01*
X0528626Y0179701D02*
X0530980Y0179701D01*
X0530980Y0180102D02*
X0528626Y0180102D01*
X0528626Y0180503D02*
X0530980Y0180503D01*
X0530980Y0180904D02*
X0528626Y0180904D01*
X0528626Y0177323D02*
X0528626Y0175363D01*
X0528626Y0177323D02*
X0530980Y0177323D01*
X0530980Y0175363D01*
X0528626Y0175363D01*
X0528626Y0175764D02*
X0530980Y0175764D01*
X0530980Y0176165D02*
X0528626Y0176165D01*
X0528626Y0176566D02*
X0530980Y0176566D01*
X0530980Y0176967D02*
X0528626Y0176967D01*
X0526452Y0165324D02*
X0524492Y0165324D01*
X0524492Y0167678D01*
X0526452Y0167678D01*
X0526452Y0165324D01*
X0526452Y0165725D02*
X0524492Y0165725D01*
X0524492Y0166126D02*
X0526452Y0166126D01*
X0526452Y0166527D02*
X0524492Y0166527D01*
X0524492Y0166928D02*
X0526452Y0166928D01*
X0526452Y0167329D02*
X0524492Y0167329D01*
X0524492Y0151150D02*
X0526452Y0151150D01*
X0524492Y0151150D02*
X0524492Y0153504D01*
X0526452Y0153504D01*
X0526452Y0151150D01*
X0526452Y0151551D02*
X0524492Y0151551D01*
X0524492Y0151952D02*
X0526452Y0151952D01*
X0526452Y0152353D02*
X0524492Y0152353D01*
X0524492Y0152754D02*
X0526452Y0152754D01*
X0526452Y0153155D02*
X0524492Y0153155D01*
X0528036Y0153504D02*
X0529996Y0153504D01*
X0529996Y0151150D01*
X0528036Y0151150D01*
X0528036Y0153504D01*
X0528036Y0151551D02*
X0529996Y0151551D01*
X0529996Y0151952D02*
X0528036Y0151952D01*
X0528036Y0152353D02*
X0529996Y0152353D01*
X0529996Y0152754D02*
X0528036Y0152754D01*
X0528036Y0153155D02*
X0529996Y0153155D01*
X0531973Y0153504D02*
X0533933Y0153504D01*
X0533933Y0151150D01*
X0531973Y0151150D01*
X0531973Y0153504D01*
X0531973Y0151551D02*
X0533933Y0151551D01*
X0533933Y0151952D02*
X0531973Y0151952D01*
X0531973Y0152353D02*
X0533933Y0152353D01*
X0533933Y0152754D02*
X0531973Y0152754D01*
X0531973Y0153155D02*
X0533933Y0153155D01*
X0533933Y0146426D02*
X0531973Y0146426D01*
X0531973Y0148780D01*
X0533933Y0148780D01*
X0533933Y0146426D01*
X0533933Y0146827D02*
X0531973Y0146827D01*
X0531973Y0147228D02*
X0533933Y0147228D01*
X0533933Y0147629D02*
X0531973Y0147629D01*
X0531973Y0148030D02*
X0533933Y0148030D01*
X0533933Y0148431D02*
X0531973Y0148431D01*
X0529996Y0146426D02*
X0528036Y0146426D01*
X0528036Y0148780D01*
X0529996Y0148780D01*
X0529996Y0146426D01*
X0529996Y0146827D02*
X0528036Y0146827D01*
X0528036Y0147228D02*
X0529996Y0147228D01*
X0529996Y0147629D02*
X0528036Y0147629D01*
X0528036Y0148030D02*
X0529996Y0148030D01*
X0529996Y0148431D02*
X0528036Y0148431D01*
X0522909Y0133426D02*
X0520949Y0133426D01*
X0522909Y0133426D02*
X0522909Y0131072D01*
X0520949Y0131072D01*
X0520949Y0133426D01*
X0520949Y0131473D02*
X0522909Y0131473D01*
X0522909Y0131874D02*
X0520949Y0131874D01*
X0520949Y0132275D02*
X0522909Y0132275D01*
X0522909Y0132676D02*
X0520949Y0132676D01*
X0520949Y0133077D02*
X0522909Y0133077D01*
X0528823Y0126347D02*
X0530783Y0126347D01*
X0528823Y0126347D02*
X0528823Y0128701D01*
X0530783Y0128701D01*
X0530783Y0126347D01*
X0530783Y0126748D02*
X0528823Y0126748D01*
X0528823Y0127149D02*
X0530783Y0127149D01*
X0530783Y0127550D02*
X0528823Y0127550D01*
X0528823Y0127951D02*
X0530783Y0127951D01*
X0530783Y0128352D02*
X0528823Y0128352D01*
X0506374Y0138552D02*
X0504414Y0138552D01*
X0504414Y0140906D01*
X0506374Y0140906D01*
X0506374Y0138552D01*
X0506374Y0138953D02*
X0504414Y0138953D01*
X0504414Y0139354D02*
X0506374Y0139354D01*
X0506374Y0139755D02*
X0504414Y0139755D01*
X0504414Y0140156D02*
X0506374Y0140156D01*
X0506374Y0140557D02*
X0504414Y0140557D01*
X0502437Y0138552D02*
X0500477Y0138552D01*
X0500477Y0140906D01*
X0502437Y0140906D01*
X0502437Y0138552D01*
X0502437Y0138953D02*
X0500477Y0138953D01*
X0500477Y0139354D02*
X0502437Y0139354D01*
X0502437Y0139755D02*
X0500477Y0139755D01*
X0500477Y0140156D02*
X0502437Y0140156D01*
X0502437Y0140557D02*
X0500477Y0140557D01*
X0459130Y0165324D02*
X0457170Y0165324D01*
X0457170Y0167678D01*
X0459130Y0167678D01*
X0459130Y0165324D01*
X0459130Y0165725D02*
X0457170Y0165725D01*
X0457170Y0166126D02*
X0459130Y0166126D01*
X0459130Y0166527D02*
X0457170Y0166527D01*
X0457170Y0166928D02*
X0459130Y0166928D01*
X0459130Y0167329D02*
X0457170Y0167329D01*
X0439445Y0183040D02*
X0437485Y0183040D01*
X0437485Y0185394D01*
X0439445Y0185394D01*
X0439445Y0183040D01*
X0439445Y0183441D02*
X0437485Y0183441D01*
X0437485Y0183842D02*
X0439445Y0183842D01*
X0439445Y0184243D02*
X0437485Y0184243D01*
X0437485Y0184644D02*
X0439445Y0184644D01*
X0439445Y0185045D02*
X0437485Y0185045D01*
X0435508Y0183040D02*
X0433548Y0183040D01*
X0433548Y0185394D01*
X0435508Y0185394D01*
X0435508Y0183040D01*
X0435508Y0183441D02*
X0433548Y0183441D01*
X0433548Y0183842D02*
X0435508Y0183842D01*
X0435508Y0184243D02*
X0433548Y0184243D01*
X0433548Y0184644D02*
X0435508Y0184644D01*
X0435508Y0185045D02*
X0433548Y0185045D01*
X0500083Y0182843D02*
X0502043Y0182843D01*
X0500083Y0182843D02*
X0500083Y0185197D01*
X0502043Y0185197D01*
X0502043Y0182843D01*
X0502043Y0183244D02*
X0500083Y0183244D01*
X0500083Y0183645D02*
X0502043Y0183645D01*
X0502043Y0184046D02*
X0500083Y0184046D01*
X0500083Y0184447D02*
X0502043Y0184447D01*
X0502043Y0184848D02*
X0500083Y0184848D01*
X0504020Y0182843D02*
X0505980Y0182843D01*
X0504020Y0182843D02*
X0504020Y0185197D01*
X0505980Y0185197D01*
X0505980Y0182843D01*
X0505980Y0183244D02*
X0504020Y0183244D01*
X0504020Y0183645D02*
X0505980Y0183645D01*
X0505980Y0184046D02*
X0504020Y0184046D01*
X0504020Y0184447D02*
X0505980Y0184447D01*
X0505980Y0184848D02*
X0504020Y0184848D01*
X0415823Y0123583D02*
X0413863Y0123583D01*
X0415823Y0123583D02*
X0415823Y0121229D01*
X0413863Y0121229D01*
X0413863Y0123583D01*
X0413863Y0121630D02*
X0415823Y0121630D01*
X0415823Y0122031D02*
X0413863Y0122031D01*
X0413863Y0122432D02*
X0415823Y0122432D01*
X0415823Y0122833D02*
X0413863Y0122833D01*
X0413863Y0123234D02*
X0415823Y0123234D01*
X0415823Y0109410D02*
X0413863Y0109410D01*
X0415823Y0109410D02*
X0415823Y0107056D01*
X0413863Y0107056D01*
X0413863Y0109410D01*
X0413863Y0107457D02*
X0415823Y0107457D01*
X0415823Y0107858D02*
X0413863Y0107858D01*
X0413863Y0108259D02*
X0415823Y0108259D01*
X0415823Y0108660D02*
X0413863Y0108660D01*
X0413863Y0109061D02*
X0415823Y0109061D01*
X0411886Y0107056D02*
X0409926Y0107056D01*
X0409926Y0109410D01*
X0411886Y0109410D01*
X0411886Y0107056D01*
X0411886Y0107457D02*
X0409926Y0107457D01*
X0409926Y0107858D02*
X0411886Y0107858D01*
X0411886Y0108259D02*
X0409926Y0108259D01*
X0409926Y0108660D02*
X0411886Y0108660D01*
X0411886Y0109061D02*
X0409926Y0109061D01*
X0407949Y0107056D02*
X0405989Y0107056D01*
X0405989Y0109410D01*
X0407949Y0109410D01*
X0407949Y0107056D01*
X0407949Y0107457D02*
X0405989Y0107457D01*
X0405989Y0107858D02*
X0407949Y0107858D01*
X0407949Y0108259D02*
X0405989Y0108259D01*
X0405989Y0108660D02*
X0407949Y0108660D01*
X0407949Y0109061D02*
X0405989Y0109061D01*
X0524492Y0107056D02*
X0526452Y0107056D01*
X0524492Y0107056D02*
X0524492Y0109410D01*
X0526452Y0109410D01*
X0526452Y0107056D01*
X0526452Y0107457D02*
X0524492Y0107457D01*
X0524492Y0107858D02*
X0526452Y0107858D01*
X0526452Y0108259D02*
X0524492Y0108259D01*
X0524492Y0108660D02*
X0526452Y0108660D01*
X0526452Y0109061D02*
X0524492Y0109061D01*
X0528036Y0109410D02*
X0529996Y0109410D01*
X0529996Y0107056D01*
X0528036Y0107056D01*
X0528036Y0109410D01*
X0528036Y0107457D02*
X0529996Y0107457D01*
X0529996Y0107858D02*
X0528036Y0107858D01*
X0528036Y0108259D02*
X0529996Y0108259D01*
X0529996Y0108660D02*
X0528036Y0108660D01*
X0528036Y0109061D02*
X0529996Y0109061D01*
X0531973Y0109410D02*
X0533933Y0109410D01*
X0533933Y0107056D01*
X0531973Y0107056D01*
X0531973Y0109410D01*
X0531973Y0107457D02*
X0533933Y0107457D01*
X0533933Y0107858D02*
X0531973Y0107858D01*
X0531973Y0108259D02*
X0533933Y0108259D01*
X0533933Y0108660D02*
X0531973Y0108660D01*
X0531973Y0109061D02*
X0533933Y0109061D01*
X0533933Y0102332D02*
X0531973Y0102332D01*
X0531973Y0104686D01*
X0533933Y0104686D01*
X0533933Y0102332D01*
X0533933Y0102733D02*
X0531973Y0102733D01*
X0531973Y0103134D02*
X0533933Y0103134D01*
X0533933Y0103535D02*
X0531973Y0103535D01*
X0531973Y0103936D02*
X0533933Y0103936D01*
X0533933Y0104337D02*
X0531973Y0104337D01*
X0529996Y0102332D02*
X0528036Y0102332D01*
X0528036Y0104686D01*
X0529996Y0104686D01*
X0529996Y0102332D01*
X0529996Y0102733D02*
X0528036Y0102733D01*
X0528036Y0103134D02*
X0529996Y0103134D01*
X0529996Y0103535D02*
X0528036Y0103535D01*
X0528036Y0103936D02*
X0529996Y0103936D01*
X0529996Y0104337D02*
X0528036Y0104337D01*
X0526452Y0102332D02*
X0524492Y0102332D01*
X0524492Y0104686D01*
X0526452Y0104686D01*
X0526452Y0102332D01*
X0526452Y0102733D02*
X0524492Y0102733D01*
X0524492Y0103134D02*
X0526452Y0103134D01*
X0526452Y0103535D02*
X0524492Y0103535D01*
X0524492Y0103936D02*
X0526452Y0103936D01*
X0526452Y0104337D02*
X0524492Y0104337D01*
X0344760Y0248001D02*
X0344760Y0249961D01*
X0344760Y0248001D02*
X0342406Y0248001D01*
X0342406Y0249961D01*
X0344760Y0249961D01*
X0344760Y0248402D02*
X0342406Y0248402D01*
X0342406Y0248803D02*
X0344760Y0248803D01*
X0344760Y0249204D02*
X0342406Y0249204D01*
X0342406Y0249605D02*
X0344760Y0249605D01*
X0344760Y0251938D02*
X0344760Y0253898D01*
X0344760Y0251938D02*
X0342406Y0251938D01*
X0342406Y0253898D01*
X0344760Y0253898D01*
X0344760Y0252339D02*
X0342406Y0252339D01*
X0342406Y0252740D02*
X0344760Y0252740D01*
X0344760Y0253141D02*
X0342406Y0253141D01*
X0342406Y0253542D02*
X0344760Y0253542D01*
X0343981Y0291890D02*
X0345941Y0291890D01*
X0345941Y0289536D01*
X0343981Y0289536D01*
X0343981Y0291890D01*
X0343981Y0289937D02*
X0345941Y0289937D01*
X0345941Y0290338D02*
X0343981Y0290338D01*
X0343981Y0290739D02*
X0345941Y0290739D01*
X0345941Y0291140D02*
X0343981Y0291140D01*
X0343981Y0291541D02*
X0345941Y0291541D01*
X0347918Y0291890D02*
X0349878Y0291890D01*
X0349878Y0289536D01*
X0347918Y0289536D01*
X0347918Y0291890D01*
X0347918Y0289937D02*
X0349878Y0289937D01*
X0349878Y0290338D02*
X0347918Y0290338D01*
X0347918Y0290739D02*
X0349878Y0290739D01*
X0349878Y0291140D02*
X0347918Y0291140D01*
X0347918Y0291541D02*
X0349878Y0291541D01*
X0350280Y0299576D02*
X0350280Y0301536D01*
X0352634Y0301536D01*
X0352634Y0299576D01*
X0350280Y0299576D01*
X0350280Y0299977D02*
X0352634Y0299977D01*
X0352634Y0300378D02*
X0350280Y0300378D01*
X0350280Y0300779D02*
X0352634Y0300779D01*
X0352634Y0301180D02*
X0350280Y0301180D01*
X0350280Y0303513D02*
X0350280Y0305473D01*
X0352634Y0305473D01*
X0352634Y0303513D01*
X0350280Y0303513D01*
X0350280Y0303914D02*
X0352634Y0303914D01*
X0352634Y0304315D02*
X0350280Y0304315D01*
X0350280Y0304716D02*
X0352634Y0304716D01*
X0352634Y0305117D02*
X0350280Y0305117D01*
X0350477Y0310197D02*
X0352437Y0310197D01*
X0352437Y0307843D01*
X0350477Y0307843D01*
X0350477Y0310197D01*
X0350477Y0308244D02*
X0352437Y0308244D01*
X0352437Y0308645D02*
X0350477Y0308645D01*
X0350477Y0309046D02*
X0352437Y0309046D01*
X0352437Y0309447D02*
X0350477Y0309447D01*
X0350477Y0309848D02*
X0352437Y0309848D01*
X0352437Y0314922D02*
X0350477Y0314922D01*
X0352437Y0314922D02*
X0352437Y0312568D01*
X0350477Y0312568D01*
X0350477Y0314922D01*
X0350477Y0312969D02*
X0352437Y0312969D01*
X0352437Y0313370D02*
X0350477Y0313370D01*
X0350477Y0313771D02*
X0352437Y0313771D01*
X0352437Y0314172D02*
X0350477Y0314172D01*
X0350477Y0314573D02*
X0352437Y0314573D01*
X0352437Y0319646D02*
X0350477Y0319646D01*
X0352437Y0319646D02*
X0352437Y0317292D01*
X0350477Y0317292D01*
X0350477Y0319646D01*
X0350477Y0317693D02*
X0352437Y0317693D01*
X0352437Y0318094D02*
X0350477Y0318094D01*
X0350477Y0318495D02*
X0352437Y0318495D01*
X0352437Y0318896D02*
X0350477Y0318896D01*
X0350477Y0319297D02*
X0352437Y0319297D01*
X0352437Y0322017D02*
X0350477Y0322017D01*
X0350477Y0324371D01*
X0352437Y0324371D01*
X0352437Y0322017D01*
X0352437Y0322418D02*
X0350477Y0322418D01*
X0350477Y0322819D02*
X0352437Y0322819D01*
X0352437Y0323220D02*
X0350477Y0323220D01*
X0350477Y0323621D02*
X0352437Y0323621D01*
X0352437Y0324022D02*
X0350477Y0324022D01*
X0348500Y0322017D02*
X0346540Y0322017D01*
X0346540Y0324371D01*
X0348500Y0324371D01*
X0348500Y0322017D01*
X0348500Y0322418D02*
X0346540Y0322418D01*
X0346540Y0322819D02*
X0348500Y0322819D01*
X0348500Y0323220D02*
X0346540Y0323220D01*
X0346540Y0323621D02*
X0348500Y0323621D01*
X0348500Y0324022D02*
X0346540Y0324022D01*
X0341225Y0323583D02*
X0341225Y0321623D01*
X0341225Y0323583D02*
X0343579Y0323583D01*
X0343579Y0321623D01*
X0341225Y0321623D01*
X0341225Y0322024D02*
X0343579Y0322024D01*
X0343579Y0322425D02*
X0341225Y0322425D01*
X0341225Y0322826D02*
X0343579Y0322826D01*
X0343579Y0323227D02*
X0341225Y0323227D01*
X0338854Y0323583D02*
X0338854Y0321623D01*
X0336500Y0321623D01*
X0336500Y0323583D01*
X0338854Y0323583D01*
X0338854Y0322024D02*
X0336500Y0322024D01*
X0336500Y0322425D02*
X0338854Y0322425D01*
X0338854Y0322826D02*
X0336500Y0322826D01*
X0336500Y0323227D02*
X0338854Y0323227D01*
X0338854Y0319646D02*
X0338854Y0317686D01*
X0336500Y0317686D01*
X0336500Y0319646D01*
X0338854Y0319646D01*
X0338854Y0318087D02*
X0336500Y0318087D01*
X0336500Y0318488D02*
X0338854Y0318488D01*
X0338854Y0318889D02*
X0336500Y0318889D01*
X0336500Y0319290D02*
X0338854Y0319290D01*
X0341225Y0319646D02*
X0341225Y0317686D01*
X0341225Y0319646D02*
X0343579Y0319646D01*
X0343579Y0317686D01*
X0341225Y0317686D01*
X0341225Y0318087D02*
X0343579Y0318087D01*
X0343579Y0318488D02*
X0341225Y0318488D01*
X0341225Y0318889D02*
X0343579Y0318889D01*
X0343579Y0319290D02*
X0341225Y0319290D01*
X0346540Y0319646D02*
X0348500Y0319646D01*
X0348500Y0317292D01*
X0346540Y0317292D01*
X0346540Y0319646D01*
X0346540Y0317693D02*
X0348500Y0317693D01*
X0348500Y0318094D02*
X0346540Y0318094D01*
X0346540Y0318495D02*
X0348500Y0318495D01*
X0348500Y0318896D02*
X0346540Y0318896D01*
X0346540Y0319297D02*
X0348500Y0319297D01*
X0348500Y0314922D02*
X0346540Y0314922D01*
X0348500Y0314922D02*
X0348500Y0312568D01*
X0346540Y0312568D01*
X0346540Y0314922D01*
X0346540Y0312969D02*
X0348500Y0312969D01*
X0348500Y0313370D02*
X0346540Y0313370D01*
X0346540Y0313771D02*
X0348500Y0313771D01*
X0348500Y0314172D02*
X0346540Y0314172D01*
X0346540Y0314573D02*
X0348500Y0314573D01*
X0348500Y0310197D02*
X0346540Y0310197D01*
X0348500Y0310197D02*
X0348500Y0307843D01*
X0346540Y0307843D01*
X0346540Y0310197D01*
X0346540Y0308244D02*
X0348500Y0308244D01*
X0348500Y0308645D02*
X0346540Y0308645D01*
X0346540Y0309046D02*
X0348500Y0309046D01*
X0348500Y0309447D02*
X0346540Y0309447D01*
X0346540Y0309848D02*
X0348500Y0309848D01*
X0357366Y0325158D02*
X0359326Y0325158D01*
X0359326Y0322804D01*
X0357366Y0322804D01*
X0357366Y0325158D01*
X0357366Y0323205D02*
X0359326Y0323205D01*
X0359326Y0323606D02*
X0357366Y0323606D01*
X0357366Y0324007D02*
X0359326Y0324007D01*
X0359326Y0324408D02*
X0357366Y0324408D01*
X0357366Y0324809D02*
X0359326Y0324809D01*
X0361303Y0325158D02*
X0363263Y0325158D01*
X0363263Y0322804D01*
X0361303Y0322804D01*
X0361303Y0325158D01*
X0361303Y0323205D02*
X0363263Y0323205D01*
X0363263Y0323606D02*
X0361303Y0323606D01*
X0361303Y0324007D02*
X0363263Y0324007D01*
X0363263Y0324408D02*
X0361303Y0324408D01*
X0361303Y0324809D02*
X0363263Y0324809D01*
X0366618Y0320040D02*
X0366618Y0318080D01*
X0366618Y0320040D02*
X0368972Y0320040D01*
X0368972Y0318080D01*
X0366618Y0318080D01*
X0366618Y0318481D02*
X0368972Y0318481D01*
X0368972Y0318882D02*
X0366618Y0318882D01*
X0366618Y0319283D02*
X0368972Y0319283D01*
X0368972Y0319684D02*
X0366618Y0319684D01*
X0366618Y0316103D02*
X0366618Y0314143D01*
X0366618Y0316103D02*
X0368972Y0316103D01*
X0368972Y0314143D01*
X0366618Y0314143D01*
X0366618Y0314544D02*
X0368972Y0314544D01*
X0368972Y0314945D02*
X0366618Y0314945D01*
X0366618Y0315346D02*
X0368972Y0315346D01*
X0368972Y0315747D02*
X0366618Y0315747D01*
X0373697Y0316103D02*
X0373697Y0314143D01*
X0371343Y0314143D01*
X0371343Y0316103D01*
X0373697Y0316103D01*
X0373697Y0314544D02*
X0371343Y0314544D01*
X0371343Y0314945D02*
X0373697Y0314945D01*
X0373697Y0315346D02*
X0371343Y0315346D01*
X0371343Y0315747D02*
X0373697Y0315747D01*
X0373697Y0318080D02*
X0373697Y0320040D01*
X0373697Y0318080D02*
X0371343Y0318080D01*
X0371343Y0320040D01*
X0373697Y0320040D01*
X0373697Y0318481D02*
X0371343Y0318481D01*
X0371343Y0318882D02*
X0373697Y0318882D01*
X0373697Y0319283D02*
X0371343Y0319283D01*
X0371343Y0319684D02*
X0373697Y0319684D01*
X0389642Y0323985D02*
X0389642Y0325945D01*
X0389642Y0323985D02*
X0387288Y0323985D01*
X0387288Y0325945D01*
X0389642Y0325945D01*
X0389642Y0324386D02*
X0387288Y0324386D01*
X0387288Y0324787D02*
X0389642Y0324787D01*
X0389642Y0325188D02*
X0387288Y0325188D01*
X0387288Y0325589D02*
X0389642Y0325589D01*
X0389642Y0327922D02*
X0389642Y0329882D01*
X0389642Y0327922D02*
X0387288Y0327922D01*
X0387288Y0329882D01*
X0389642Y0329882D01*
X0389642Y0328323D02*
X0387288Y0328323D01*
X0387288Y0328724D02*
X0389642Y0328724D01*
X0389642Y0329125D02*
X0387288Y0329125D01*
X0387288Y0329526D02*
X0389642Y0329526D01*
X0387288Y0332253D02*
X0387288Y0334213D01*
X0389642Y0334213D01*
X0389642Y0332253D01*
X0387288Y0332253D01*
X0387288Y0332654D02*
X0389642Y0332654D01*
X0389642Y0333055D02*
X0387288Y0333055D01*
X0387288Y0333456D02*
X0389642Y0333456D01*
X0389642Y0333857D02*
X0387288Y0333857D01*
X0387288Y0336190D02*
X0387288Y0338150D01*
X0389642Y0338150D01*
X0389642Y0336190D01*
X0387288Y0336190D01*
X0387288Y0336591D02*
X0389642Y0336591D01*
X0389642Y0336992D02*
X0387288Y0336992D01*
X0387288Y0337393D02*
X0389642Y0337393D01*
X0389642Y0337794D02*
X0387288Y0337794D01*
X0363460Y0340521D02*
X0361500Y0340521D01*
X0361500Y0342875D01*
X0363460Y0342875D01*
X0363460Y0340521D01*
X0363460Y0340922D02*
X0361500Y0340922D01*
X0361500Y0341323D02*
X0363460Y0341323D01*
X0363460Y0341724D02*
X0361500Y0341724D01*
X0361500Y0342125D02*
X0363460Y0342125D01*
X0363460Y0342526D02*
X0361500Y0342526D01*
X0359523Y0340521D02*
X0357563Y0340521D01*
X0357563Y0342875D01*
X0359523Y0342875D01*
X0359523Y0340521D01*
X0359523Y0340922D02*
X0357563Y0340922D01*
X0357563Y0341323D02*
X0359523Y0341323D01*
X0359523Y0341724D02*
X0357563Y0341724D01*
X0357563Y0342125D02*
X0359523Y0342125D01*
X0359523Y0342526D02*
X0357563Y0342526D01*
X0344571Y0337953D02*
X0344571Y0335993D01*
X0344571Y0337953D02*
X0346925Y0337953D01*
X0346925Y0335993D01*
X0344571Y0335993D01*
X0344571Y0336394D02*
X0346925Y0336394D01*
X0346925Y0336795D02*
X0344571Y0336795D01*
X0344571Y0337196D02*
X0346925Y0337196D01*
X0346925Y0337597D02*
X0344571Y0337597D01*
X0344571Y0334016D02*
X0344571Y0332056D01*
X0344571Y0334016D02*
X0346925Y0334016D01*
X0346925Y0332056D01*
X0344571Y0332056D01*
X0344571Y0332457D02*
X0346925Y0332457D01*
X0346925Y0332858D02*
X0344571Y0332858D01*
X0344571Y0333259D02*
X0346925Y0333259D01*
X0346925Y0333660D02*
X0344571Y0333660D01*
X0335901Y0328701D02*
X0333941Y0328701D01*
X0335901Y0328701D02*
X0335901Y0326347D01*
X0333941Y0326347D01*
X0333941Y0328701D01*
X0333941Y0326748D02*
X0335901Y0326748D01*
X0335901Y0327149D02*
X0333941Y0327149D01*
X0333941Y0327550D02*
X0335901Y0327550D01*
X0335901Y0327951D02*
X0333941Y0327951D01*
X0333941Y0328352D02*
X0335901Y0328352D01*
X0331964Y0328701D02*
X0330004Y0328701D01*
X0331964Y0328701D02*
X0331964Y0326347D01*
X0330004Y0326347D01*
X0330004Y0328701D01*
X0330004Y0326748D02*
X0331964Y0326748D01*
X0331964Y0327149D02*
X0330004Y0327149D01*
X0330004Y0327550D02*
X0331964Y0327550D01*
X0331964Y0327951D02*
X0330004Y0327951D01*
X0330004Y0328352D02*
X0331964Y0328352D01*
X0331776Y0323583D02*
X0331776Y0321623D01*
X0331776Y0323583D02*
X0334130Y0323583D01*
X0334130Y0321623D01*
X0331776Y0321623D01*
X0331776Y0322024D02*
X0334130Y0322024D01*
X0334130Y0322425D02*
X0331776Y0322425D01*
X0331776Y0322826D02*
X0334130Y0322826D01*
X0334130Y0323227D02*
X0331776Y0323227D01*
X0329405Y0323583D02*
X0329405Y0321623D01*
X0327051Y0321623D01*
X0327051Y0323583D01*
X0329405Y0323583D01*
X0329405Y0322024D02*
X0327051Y0322024D01*
X0327051Y0322425D02*
X0329405Y0322425D01*
X0329405Y0322826D02*
X0327051Y0322826D01*
X0327051Y0323227D02*
X0329405Y0323227D01*
X0329405Y0319646D02*
X0329405Y0317686D01*
X0327051Y0317686D01*
X0327051Y0319646D01*
X0329405Y0319646D01*
X0329405Y0318087D02*
X0327051Y0318087D01*
X0327051Y0318488D02*
X0329405Y0318488D01*
X0329405Y0318889D02*
X0327051Y0318889D01*
X0327051Y0319290D02*
X0329405Y0319290D01*
X0331776Y0319646D02*
X0331776Y0317686D01*
X0331776Y0319646D02*
X0334130Y0319646D01*
X0334130Y0317686D01*
X0331776Y0317686D01*
X0331776Y0318087D02*
X0334130Y0318087D01*
X0334130Y0318488D02*
X0331776Y0318488D01*
X0331776Y0318889D02*
X0334130Y0318889D01*
X0334130Y0319290D02*
X0331776Y0319290D01*
X0322327Y0319646D02*
X0322327Y0317686D01*
X0322327Y0319646D02*
X0324681Y0319646D01*
X0324681Y0317686D01*
X0322327Y0317686D01*
X0322327Y0318087D02*
X0324681Y0318087D01*
X0324681Y0318488D02*
X0322327Y0318488D01*
X0322327Y0318889D02*
X0324681Y0318889D01*
X0324681Y0319290D02*
X0322327Y0319290D01*
X0322327Y0321623D02*
X0322327Y0323583D01*
X0324681Y0323583D01*
X0324681Y0321623D01*
X0322327Y0321623D01*
X0322327Y0322024D02*
X0324681Y0322024D01*
X0324681Y0322425D02*
X0322327Y0322425D01*
X0322327Y0322826D02*
X0324681Y0322826D01*
X0324681Y0323227D02*
X0322327Y0323227D01*
X0322918Y0326347D02*
X0324878Y0326347D01*
X0322918Y0326347D02*
X0322918Y0328701D01*
X0324878Y0328701D01*
X0324878Y0326347D01*
X0324878Y0326748D02*
X0322918Y0326748D01*
X0322918Y0327149D02*
X0324878Y0327149D01*
X0324878Y0327550D02*
X0322918Y0327550D01*
X0322918Y0327951D02*
X0324878Y0327951D01*
X0324878Y0328352D02*
X0322918Y0328352D01*
X0320941Y0326347D02*
X0318981Y0326347D01*
X0318981Y0328701D01*
X0320941Y0328701D01*
X0320941Y0326347D01*
X0320941Y0326748D02*
X0318981Y0326748D01*
X0318981Y0327149D02*
X0320941Y0327149D01*
X0320941Y0327550D02*
X0318981Y0327550D01*
X0318981Y0327951D02*
X0320941Y0327951D01*
X0320941Y0328352D02*
X0318981Y0328352D01*
X0318981Y0333426D02*
X0320941Y0333426D01*
X0320941Y0331072D01*
X0318981Y0331072D01*
X0318981Y0333426D01*
X0318981Y0331473D02*
X0320941Y0331473D01*
X0320941Y0331874D02*
X0318981Y0331874D01*
X0318981Y0332275D02*
X0320941Y0332275D01*
X0320941Y0332676D02*
X0318981Y0332676D01*
X0318981Y0333077D02*
X0320941Y0333077D01*
X0322918Y0333426D02*
X0324878Y0333426D01*
X0324878Y0331072D01*
X0322918Y0331072D01*
X0322918Y0333426D01*
X0322918Y0331473D02*
X0324878Y0331473D01*
X0324878Y0331874D02*
X0322918Y0331874D01*
X0322918Y0332275D02*
X0324878Y0332275D01*
X0324878Y0332676D02*
X0322918Y0332676D01*
X0322918Y0333077D02*
X0324878Y0333077D01*
X0315035Y0325757D02*
X0313075Y0325757D01*
X0313075Y0328111D01*
X0315035Y0328111D01*
X0315035Y0325757D01*
X0315035Y0326158D02*
X0313075Y0326158D01*
X0313075Y0326559D02*
X0315035Y0326559D01*
X0315035Y0326960D02*
X0313075Y0326960D01*
X0313075Y0327361D02*
X0315035Y0327361D01*
X0315035Y0327762D02*
X0313075Y0327762D01*
X0311098Y0325757D02*
X0309138Y0325757D01*
X0309138Y0328111D01*
X0311098Y0328111D01*
X0311098Y0325757D01*
X0311098Y0326158D02*
X0309138Y0326158D01*
X0309138Y0326559D02*
X0311098Y0326559D01*
X0311098Y0326960D02*
X0309138Y0326960D01*
X0309138Y0327361D02*
X0311098Y0327361D01*
X0311098Y0327762D02*
X0309138Y0327762D01*
X0303036Y0306063D02*
X0303036Y0304103D01*
X0303036Y0306063D02*
X0305390Y0306063D01*
X0305390Y0304103D01*
X0303036Y0304103D01*
X0303036Y0304504D02*
X0305390Y0304504D01*
X0305390Y0304905D02*
X0303036Y0304905D01*
X0303036Y0305306D02*
X0305390Y0305306D01*
X0305390Y0305707D02*
X0303036Y0305707D01*
X0303036Y0302126D02*
X0303036Y0300166D01*
X0303036Y0302126D02*
X0305390Y0302126D01*
X0305390Y0300166D01*
X0303036Y0300166D01*
X0303036Y0300567D02*
X0305390Y0300567D01*
X0305390Y0300968D02*
X0303036Y0300968D01*
X0303036Y0301369D02*
X0305390Y0301369D01*
X0305390Y0301770D02*
X0303036Y0301770D01*
X0305792Y0289536D02*
X0307752Y0289536D01*
X0305792Y0289536D02*
X0305792Y0291890D01*
X0307752Y0291890D01*
X0307752Y0289536D01*
X0307752Y0289937D02*
X0305792Y0289937D01*
X0305792Y0290338D02*
X0307752Y0290338D01*
X0307752Y0290739D02*
X0305792Y0290739D01*
X0305792Y0291140D02*
X0307752Y0291140D01*
X0307752Y0291541D02*
X0305792Y0291541D01*
X0309729Y0289536D02*
X0311689Y0289536D01*
X0309729Y0289536D02*
X0309729Y0291890D01*
X0311689Y0291890D01*
X0311689Y0289536D01*
X0311689Y0289937D02*
X0309729Y0289937D01*
X0309729Y0290338D02*
X0311689Y0290338D01*
X0311689Y0290739D02*
X0309729Y0290739D01*
X0309729Y0291140D02*
X0311689Y0291140D01*
X0311689Y0291541D02*
X0309729Y0291541D01*
X0238075Y0283229D02*
X0238075Y0281269D01*
X0238075Y0283229D02*
X0240429Y0283229D01*
X0240429Y0281269D01*
X0238075Y0281269D01*
X0238075Y0281670D02*
X0240429Y0281670D01*
X0240429Y0282071D02*
X0238075Y0282071D01*
X0238075Y0282472D02*
X0240429Y0282472D01*
X0240429Y0282873D02*
X0238075Y0282873D01*
X0238075Y0279292D02*
X0238075Y0277332D01*
X0238075Y0279292D02*
X0240429Y0279292D01*
X0240429Y0277332D01*
X0238075Y0277332D01*
X0238075Y0277733D02*
X0240429Y0277733D01*
X0240429Y0278134D02*
X0238075Y0278134D01*
X0238075Y0278535D02*
X0240429Y0278535D01*
X0240429Y0278936D02*
X0238075Y0278936D01*
X0154405Y0327914D02*
X0152445Y0327914D01*
X0154405Y0327914D02*
X0154405Y0325560D01*
X0152445Y0325560D01*
X0152445Y0327914D01*
X0152445Y0325961D02*
X0154405Y0325961D01*
X0154405Y0326362D02*
X0152445Y0326362D01*
X0152445Y0326763D02*
X0154405Y0326763D01*
X0154405Y0327164D02*
X0152445Y0327164D01*
X0152445Y0327565D02*
X0154405Y0327565D01*
X0150468Y0327914D02*
X0148508Y0327914D01*
X0150468Y0327914D02*
X0150468Y0325560D01*
X0148508Y0325560D01*
X0148508Y0327914D01*
X0148508Y0325961D02*
X0150468Y0325961D01*
X0150468Y0326362D02*
X0148508Y0326362D01*
X0148508Y0326763D02*
X0150468Y0326763D01*
X0150468Y0327164D02*
X0148508Y0327164D01*
X0148508Y0327565D02*
X0150468Y0327565D01*
X0143784Y0334615D02*
X0143784Y0336575D01*
X0146138Y0336575D01*
X0146138Y0334615D01*
X0143784Y0334615D01*
X0143784Y0335016D02*
X0146138Y0335016D01*
X0146138Y0335417D02*
X0143784Y0335417D01*
X0143784Y0335818D02*
X0146138Y0335818D01*
X0146138Y0336219D02*
X0143784Y0336219D01*
X0143784Y0338552D02*
X0143784Y0340512D01*
X0146138Y0340512D01*
X0146138Y0338552D01*
X0143784Y0338552D01*
X0143784Y0338953D02*
X0146138Y0338953D01*
X0146138Y0339354D02*
X0143784Y0339354D01*
X0143784Y0339755D02*
X0146138Y0339755D01*
X0146138Y0340156D02*
X0143784Y0340156D01*
X0139453Y0343080D02*
X0139453Y0345040D01*
X0141807Y0345040D01*
X0141807Y0343080D01*
X0139453Y0343080D01*
X0139453Y0343481D02*
X0141807Y0343481D01*
X0141807Y0343882D02*
X0139453Y0343882D01*
X0139453Y0344283D02*
X0141807Y0344283D01*
X0141807Y0344684D02*
X0139453Y0344684D01*
X0139453Y0347017D02*
X0139453Y0348977D01*
X0141807Y0348977D01*
X0141807Y0347017D01*
X0139453Y0347017D01*
X0139453Y0347418D02*
X0141807Y0347418D01*
X0141807Y0347819D02*
X0139453Y0347819D01*
X0139453Y0348220D02*
X0141807Y0348220D01*
X0141807Y0348621D02*
X0139453Y0348621D01*
X0139650Y0350954D02*
X0141610Y0350954D01*
X0139650Y0350954D02*
X0139650Y0353308D01*
X0141610Y0353308D01*
X0141610Y0350954D01*
X0141610Y0351355D02*
X0139650Y0351355D01*
X0139650Y0351756D02*
X0141610Y0351756D01*
X0141610Y0352157D02*
X0139650Y0352157D01*
X0139650Y0352558D02*
X0141610Y0352558D01*
X0141610Y0352959D02*
X0139650Y0352959D01*
X0137673Y0350954D02*
X0135713Y0350954D01*
X0135713Y0353308D01*
X0137673Y0353308D01*
X0137673Y0350954D01*
X0137673Y0351355D02*
X0135713Y0351355D01*
X0135713Y0351756D02*
X0137673Y0351756D01*
X0137673Y0352157D02*
X0135713Y0352157D01*
X0135713Y0352558D02*
X0137673Y0352558D01*
X0137673Y0352959D02*
X0135713Y0352959D01*
X0135713Y0355678D02*
X0137673Y0355678D01*
X0135713Y0355678D02*
X0135713Y0358032D01*
X0137673Y0358032D01*
X0137673Y0355678D01*
X0137673Y0356079D02*
X0135713Y0356079D01*
X0135713Y0356480D02*
X0137673Y0356480D01*
X0137673Y0356881D02*
X0135713Y0356881D01*
X0135713Y0357282D02*
X0137673Y0357282D01*
X0137673Y0357683D02*
X0135713Y0357683D01*
X0138067Y0360796D02*
X0138067Y0362756D01*
X0138067Y0360796D02*
X0135713Y0360796D01*
X0135713Y0362756D01*
X0138067Y0362756D01*
X0138067Y0361197D02*
X0135713Y0361197D01*
X0135713Y0361598D02*
X0138067Y0361598D01*
X0138067Y0361999D02*
X0135713Y0361999D01*
X0135713Y0362400D02*
X0138067Y0362400D01*
X0138067Y0364733D02*
X0138067Y0366693D01*
X0138067Y0364733D02*
X0135713Y0364733D01*
X0135713Y0366693D01*
X0138067Y0366693D01*
X0138067Y0365134D02*
X0135713Y0365134D01*
X0135713Y0365535D02*
X0138067Y0365535D01*
X0138067Y0365936D02*
X0135713Y0365936D01*
X0135713Y0366337D02*
X0138067Y0366337D01*
X0132366Y0372017D02*
X0132366Y0373977D01*
X0134720Y0373977D01*
X0134720Y0372017D01*
X0132366Y0372017D01*
X0132366Y0372418D02*
X0134720Y0372418D01*
X0134720Y0372819D02*
X0132366Y0372819D01*
X0132366Y0373220D02*
X0134720Y0373220D01*
X0134720Y0373621D02*
X0132366Y0373621D01*
X0132366Y0375954D02*
X0132366Y0377914D01*
X0134720Y0377914D01*
X0134720Y0375954D01*
X0132366Y0375954D01*
X0132366Y0376355D02*
X0134720Y0376355D01*
X0134720Y0376756D02*
X0132366Y0376756D01*
X0132366Y0377157D02*
X0134720Y0377157D01*
X0134720Y0377558D02*
X0132366Y0377558D01*
X0126846Y0377914D02*
X0126846Y0375954D01*
X0124492Y0375954D01*
X0124492Y0377914D01*
X0126846Y0377914D01*
X0126846Y0376355D02*
X0124492Y0376355D01*
X0124492Y0376756D02*
X0126846Y0376756D01*
X0126846Y0377157D02*
X0124492Y0377157D01*
X0124492Y0377558D02*
X0126846Y0377558D01*
X0126846Y0373977D02*
X0126846Y0372017D01*
X0124492Y0372017D01*
X0124492Y0373977D01*
X0126846Y0373977D01*
X0126846Y0372418D02*
X0124492Y0372418D01*
X0124492Y0372819D02*
X0126846Y0372819D01*
X0126846Y0373220D02*
X0124492Y0373220D01*
X0124492Y0373621D02*
X0126846Y0373621D01*
X0106177Y0374576D02*
X0106177Y0376536D01*
X0106177Y0374576D02*
X0103823Y0374576D01*
X0103823Y0376536D01*
X0106177Y0376536D01*
X0106177Y0374977D02*
X0103823Y0374977D01*
X0103823Y0375378D02*
X0106177Y0375378D01*
X0106177Y0375779D02*
X0103823Y0375779D01*
X0103823Y0376180D02*
X0106177Y0376180D01*
X0106177Y0372599D02*
X0106177Y0370639D01*
X0103823Y0370639D01*
X0103823Y0372599D01*
X0106177Y0372599D01*
X0106177Y0371040D02*
X0103823Y0371040D01*
X0103823Y0371441D02*
X0106177Y0371441D01*
X0106177Y0371842D02*
X0103823Y0371842D01*
X0103823Y0372243D02*
X0106177Y0372243D01*
X0087082Y0355087D02*
X0085122Y0355087D01*
X0085122Y0357441D01*
X0087082Y0357441D01*
X0087082Y0355087D01*
X0087082Y0355488D02*
X0085122Y0355488D01*
X0085122Y0355889D02*
X0087082Y0355889D01*
X0087082Y0356290D02*
X0085122Y0356290D01*
X0085122Y0356691D02*
X0087082Y0356691D01*
X0087082Y0357092D02*
X0085122Y0357092D01*
X0083145Y0355087D02*
X0081185Y0355087D01*
X0081185Y0357441D01*
X0083145Y0357441D01*
X0083145Y0355087D01*
X0083145Y0355488D02*
X0081185Y0355488D01*
X0081185Y0355889D02*
X0083145Y0355889D01*
X0083145Y0356290D02*
X0081185Y0356290D01*
X0081185Y0356691D02*
X0083145Y0356691D01*
X0083145Y0357092D02*
X0081185Y0357092D01*
X0113657Y0336772D02*
X0113657Y0334812D01*
X0111303Y0334812D01*
X0111303Y0336772D01*
X0113657Y0336772D01*
X0113657Y0335213D02*
X0111303Y0335213D01*
X0111303Y0335614D02*
X0113657Y0335614D01*
X0113657Y0336015D02*
X0111303Y0336015D01*
X0111303Y0336416D02*
X0113657Y0336416D01*
X0113657Y0332835D02*
X0113657Y0330875D01*
X0111303Y0330875D01*
X0111303Y0332835D01*
X0113657Y0332835D01*
X0113657Y0331276D02*
X0111303Y0331276D01*
X0111303Y0331677D02*
X0113657Y0331677D01*
X0113657Y0332078D02*
X0111303Y0332078D01*
X0111303Y0332479D02*
X0113657Y0332479D01*
X0115831Y0322402D02*
X0117791Y0322402D01*
X0117791Y0320048D01*
X0115831Y0320048D01*
X0115831Y0322402D01*
X0115831Y0320449D02*
X0117791Y0320449D01*
X0117791Y0320850D02*
X0115831Y0320850D01*
X0115831Y0321251D02*
X0117791Y0321251D01*
X0117791Y0321652D02*
X0115831Y0321652D01*
X0115831Y0322053D02*
X0117791Y0322053D01*
X0119768Y0322402D02*
X0121728Y0322402D01*
X0121728Y0320048D01*
X0119768Y0320048D01*
X0119768Y0322402D01*
X0119768Y0320449D02*
X0121728Y0320449D01*
X0121728Y0320850D02*
X0119768Y0320850D01*
X0119768Y0321251D02*
X0121728Y0321251D01*
X0121728Y0321652D02*
X0119768Y0321652D01*
X0119768Y0322053D02*
X0121728Y0322053D01*
X0125674Y0323189D02*
X0127634Y0323189D01*
X0127634Y0320835D01*
X0125674Y0320835D01*
X0125674Y0323189D01*
X0125674Y0321236D02*
X0127634Y0321236D01*
X0127634Y0321637D02*
X0125674Y0321637D01*
X0125674Y0322038D02*
X0127634Y0322038D01*
X0127634Y0322439D02*
X0125674Y0322439D01*
X0125674Y0322840D02*
X0127634Y0322840D01*
X0129611Y0323189D02*
X0131571Y0323189D01*
X0131571Y0320835D01*
X0129611Y0320835D01*
X0129611Y0323189D01*
X0129611Y0321236D02*
X0131571Y0321236D01*
X0131571Y0321637D02*
X0129611Y0321637D01*
X0129611Y0322038D02*
X0131571Y0322038D01*
X0131571Y0322439D02*
X0129611Y0322439D01*
X0129611Y0322840D02*
X0131571Y0322840D01*
X0137870Y0322017D02*
X0137870Y0323977D01*
X0137870Y0322017D02*
X0135516Y0322017D01*
X0135516Y0323977D01*
X0137870Y0323977D01*
X0137870Y0322418D02*
X0135516Y0322418D01*
X0135516Y0322819D02*
X0137870Y0322819D01*
X0137870Y0323220D02*
X0135516Y0323220D01*
X0135516Y0323621D02*
X0137870Y0323621D01*
X0137870Y0320040D02*
X0137870Y0318080D01*
X0135516Y0318080D01*
X0135516Y0320040D01*
X0137870Y0320040D01*
X0137870Y0318481D02*
X0135516Y0318481D01*
X0135516Y0318882D02*
X0137870Y0318882D01*
X0137870Y0319283D02*
X0135516Y0319283D01*
X0135516Y0319684D02*
X0137870Y0319684D01*
X0136098Y0311772D02*
X0136098Y0309812D01*
X0133744Y0309812D01*
X0133744Y0311772D01*
X0136098Y0311772D01*
X0136098Y0310213D02*
X0133744Y0310213D01*
X0133744Y0310614D02*
X0136098Y0310614D01*
X0136098Y0311015D02*
X0133744Y0311015D01*
X0133744Y0311416D02*
X0136098Y0311416D01*
X0136098Y0307835D02*
X0136098Y0305875D01*
X0133744Y0305875D01*
X0133744Y0307835D01*
X0136098Y0307835D01*
X0136098Y0306276D02*
X0133744Y0306276D01*
X0133744Y0306677D02*
X0136098Y0306677D01*
X0136098Y0307078D02*
X0133744Y0307078D01*
X0133744Y0307479D02*
X0136098Y0307479D01*
X0131374Y0307835D02*
X0131374Y0305875D01*
X0129020Y0305875D01*
X0129020Y0307835D01*
X0131374Y0307835D01*
X0131374Y0306276D02*
X0129020Y0306276D01*
X0129020Y0306677D02*
X0131374Y0306677D01*
X0131374Y0307078D02*
X0129020Y0307078D01*
X0129020Y0307479D02*
X0131374Y0307479D01*
X0131374Y0309812D02*
X0131374Y0311772D01*
X0131374Y0309812D02*
X0129020Y0309812D01*
X0129020Y0311772D01*
X0131374Y0311772D01*
X0131374Y0310213D02*
X0129020Y0310213D01*
X0129020Y0310614D02*
X0131374Y0310614D01*
X0131374Y0311015D02*
X0129020Y0311015D01*
X0129020Y0311416D02*
X0131374Y0311416D01*
X0132957Y0328513D02*
X0132957Y0330473D01*
X0135311Y0330473D01*
X0135311Y0328513D01*
X0132957Y0328513D01*
X0132957Y0328914D02*
X0135311Y0328914D01*
X0135311Y0329315D02*
X0132957Y0329315D01*
X0132957Y0329716D02*
X0135311Y0329716D01*
X0135311Y0330117D02*
X0132957Y0330117D01*
X0132957Y0332450D02*
X0132957Y0334410D01*
X0135311Y0334410D01*
X0135311Y0332450D01*
X0132957Y0332450D01*
X0132957Y0332851D02*
X0135311Y0332851D01*
X0135311Y0333252D02*
X0132957Y0333252D01*
X0132957Y0333653D02*
X0135311Y0333653D01*
X0135311Y0334054D02*
X0132957Y0334054D01*
X0137681Y0334410D02*
X0137681Y0332450D01*
X0137681Y0334410D02*
X0140035Y0334410D01*
X0140035Y0332450D01*
X0137681Y0332450D01*
X0137681Y0332851D02*
X0140035Y0332851D01*
X0140035Y0333252D02*
X0137681Y0333252D01*
X0137681Y0333653D02*
X0140035Y0333653D01*
X0140035Y0334054D02*
X0137681Y0334054D01*
X0137681Y0330473D02*
X0137681Y0328513D01*
X0137681Y0330473D02*
X0140035Y0330473D01*
X0140035Y0328513D01*
X0137681Y0328513D01*
X0137681Y0328914D02*
X0140035Y0328914D01*
X0140035Y0329315D02*
X0137681Y0329315D01*
X0137681Y0329716D02*
X0140035Y0329716D01*
X0140035Y0330117D02*
X0137681Y0330117D01*
X0139650Y0355678D02*
X0141610Y0355678D01*
X0139650Y0355678D02*
X0139650Y0358032D01*
X0141610Y0358032D01*
X0141610Y0355678D01*
X0141610Y0356079D02*
X0139650Y0356079D01*
X0139650Y0356480D02*
X0141610Y0356480D01*
X0141610Y0356881D02*
X0139650Y0356881D01*
X0139650Y0357282D02*
X0141610Y0357282D01*
X0141610Y0357683D02*
X0139650Y0357683D01*
X0151453Y0356859D02*
X0151453Y0358819D01*
X0151453Y0356859D02*
X0149099Y0356859D01*
X0149099Y0358819D01*
X0151453Y0358819D01*
X0151453Y0357260D02*
X0149099Y0357260D01*
X0149099Y0357661D02*
X0151453Y0357661D01*
X0151453Y0358062D02*
X0149099Y0358062D01*
X0149099Y0358463D02*
X0151453Y0358463D01*
X0151453Y0360796D02*
X0151453Y0362756D01*
X0151453Y0360796D02*
X0149099Y0360796D01*
X0149099Y0362756D01*
X0151453Y0362756D01*
X0151453Y0361197D02*
X0149099Y0361197D01*
X0149099Y0361598D02*
X0151453Y0361598D01*
X0151453Y0361999D02*
X0149099Y0361999D01*
X0149099Y0362400D02*
X0151453Y0362400D01*
X0156177Y0362756D02*
X0156177Y0360796D01*
X0153823Y0360796D01*
X0153823Y0362756D01*
X0156177Y0362756D01*
X0156177Y0361197D02*
X0153823Y0361197D01*
X0153823Y0361598D02*
X0156177Y0361598D01*
X0156177Y0361999D02*
X0153823Y0361999D01*
X0153823Y0362400D02*
X0156177Y0362400D01*
X0160901Y0362756D02*
X0160901Y0360796D01*
X0158547Y0360796D01*
X0158547Y0362756D01*
X0160901Y0362756D01*
X0160901Y0361197D02*
X0158547Y0361197D01*
X0158547Y0361598D02*
X0160901Y0361598D01*
X0160901Y0361999D02*
X0158547Y0361999D01*
X0158547Y0362400D02*
X0160901Y0362400D01*
X0160901Y0358819D02*
X0160901Y0356859D01*
X0158547Y0356859D01*
X0158547Y0358819D01*
X0160901Y0358819D01*
X0160901Y0357260D02*
X0158547Y0357260D01*
X0158547Y0357661D02*
X0160901Y0357661D01*
X0160901Y0358062D02*
X0158547Y0358062D01*
X0158547Y0358463D02*
X0160901Y0358463D01*
X0156177Y0358819D02*
X0156177Y0356859D01*
X0153823Y0356859D01*
X0153823Y0358819D01*
X0156177Y0358819D01*
X0156177Y0357260D02*
X0153823Y0357260D01*
X0153823Y0357661D02*
X0156177Y0357661D01*
X0156177Y0358062D02*
X0153823Y0358062D01*
X0153823Y0358463D02*
X0156177Y0358463D01*
X0188075Y0358237D02*
X0188075Y0360197D01*
X0190429Y0360197D01*
X0190429Y0358237D01*
X0188075Y0358237D01*
X0188075Y0358638D02*
X0190429Y0358638D01*
X0190429Y0359039D02*
X0188075Y0359039D01*
X0188075Y0359440D02*
X0190429Y0359440D01*
X0190429Y0359841D02*
X0188075Y0359841D01*
X0188075Y0356260D02*
X0188075Y0354300D01*
X0188075Y0356260D02*
X0190429Y0356260D01*
X0190429Y0354300D01*
X0188075Y0354300D01*
X0188075Y0354701D02*
X0190429Y0354701D01*
X0190429Y0355102D02*
X0188075Y0355102D01*
X0188075Y0355503D02*
X0190429Y0355503D01*
X0190429Y0355904D02*
X0188075Y0355904D01*
X0192799Y0356260D02*
X0192799Y0354300D01*
X0192799Y0356260D02*
X0195153Y0356260D01*
X0195153Y0354300D01*
X0192799Y0354300D01*
X0192799Y0354701D02*
X0195153Y0354701D01*
X0195153Y0355102D02*
X0192799Y0355102D01*
X0192799Y0355503D02*
X0195153Y0355503D01*
X0195153Y0355904D02*
X0192799Y0355904D01*
X0192799Y0358237D02*
X0192799Y0360197D01*
X0195153Y0360197D01*
X0195153Y0358237D01*
X0192799Y0358237D01*
X0192799Y0358638D02*
X0195153Y0358638D01*
X0195153Y0359039D02*
X0192799Y0359039D01*
X0192799Y0359440D02*
X0195153Y0359440D01*
X0195153Y0359841D02*
X0192799Y0359841D01*
X0194374Y0376544D02*
X0194374Y0378504D01*
X0196728Y0378504D01*
X0196728Y0376544D01*
X0194374Y0376544D01*
X0194374Y0376945D02*
X0196728Y0376945D01*
X0196728Y0377346D02*
X0194374Y0377346D01*
X0194374Y0377747D02*
X0196728Y0377747D01*
X0196728Y0378148D02*
X0194374Y0378148D01*
X0194374Y0380481D02*
X0194374Y0382441D01*
X0196728Y0382441D01*
X0196728Y0380481D01*
X0194374Y0380481D01*
X0194374Y0380882D02*
X0196728Y0380882D01*
X0196728Y0381283D02*
X0194374Y0381283D01*
X0194374Y0381684D02*
X0196728Y0381684D01*
X0196728Y0382085D02*
X0194374Y0382085D01*
X0199099Y0382441D02*
X0199099Y0380481D01*
X0199099Y0382441D02*
X0201453Y0382441D01*
X0201453Y0380481D01*
X0199099Y0380481D01*
X0199099Y0380882D02*
X0201453Y0380882D01*
X0201453Y0381283D02*
X0199099Y0381283D01*
X0199099Y0381684D02*
X0201453Y0381684D01*
X0201453Y0382085D02*
X0199099Y0382085D01*
X0199099Y0378504D02*
X0199099Y0376544D01*
X0199099Y0378504D02*
X0201453Y0378504D01*
X0201453Y0376544D01*
X0199099Y0376544D01*
X0199099Y0376945D02*
X0201453Y0376945D01*
X0201453Y0377346D02*
X0199099Y0377346D01*
X0199099Y0377747D02*
X0201453Y0377747D01*
X0201453Y0378148D02*
X0199099Y0378148D01*
X0090437Y0300945D02*
X0090437Y0298985D01*
X0090437Y0300945D02*
X0092791Y0300945D01*
X0092791Y0298985D01*
X0090437Y0298985D01*
X0090437Y0299386D02*
X0092791Y0299386D01*
X0092791Y0299787D02*
X0090437Y0299787D01*
X0090437Y0300188D02*
X0092791Y0300188D01*
X0092791Y0300589D02*
X0090437Y0300589D01*
X0090437Y0297008D02*
X0090437Y0295048D01*
X0090437Y0297008D02*
X0092791Y0297008D01*
X0092791Y0295048D01*
X0090437Y0295048D01*
X0090437Y0295449D02*
X0092791Y0295449D01*
X0092791Y0295850D02*
X0090437Y0295850D01*
X0090437Y0296251D02*
X0092791Y0296251D01*
X0092791Y0296652D02*
X0090437Y0296652D01*
X0080201Y0297008D02*
X0080201Y0295048D01*
X0080201Y0297008D02*
X0082555Y0297008D01*
X0082555Y0295048D01*
X0080201Y0295048D01*
X0080201Y0295449D02*
X0082555Y0295449D01*
X0082555Y0295850D02*
X0080201Y0295850D01*
X0080201Y0296251D02*
X0082555Y0296251D01*
X0082555Y0296652D02*
X0080201Y0296652D01*
X0080201Y0298985D02*
X0080201Y0300945D01*
X0082555Y0300945D01*
X0082555Y0298985D01*
X0080201Y0298985D01*
X0080201Y0299386D02*
X0082555Y0299386D01*
X0082555Y0299787D02*
X0080201Y0299787D01*
X0080201Y0300188D02*
X0082555Y0300188D01*
X0082555Y0300589D02*
X0080201Y0300589D01*
X0075083Y0300945D02*
X0075083Y0298985D01*
X0075083Y0300945D02*
X0077437Y0300945D01*
X0077437Y0298985D01*
X0075083Y0298985D01*
X0075083Y0299386D02*
X0077437Y0299386D01*
X0077437Y0299787D02*
X0075083Y0299787D01*
X0075083Y0300188D02*
X0077437Y0300188D01*
X0077437Y0300589D02*
X0075083Y0300589D01*
X0069965Y0300945D02*
X0069965Y0298985D01*
X0069965Y0300945D02*
X0072319Y0300945D01*
X0072319Y0298985D01*
X0069965Y0298985D01*
X0069965Y0299386D02*
X0072319Y0299386D01*
X0072319Y0299787D02*
X0069965Y0299787D01*
X0069965Y0300188D02*
X0072319Y0300188D01*
X0072319Y0300589D02*
X0069965Y0300589D01*
X0064847Y0300945D02*
X0064847Y0298985D01*
X0064847Y0300945D02*
X0067201Y0300945D01*
X0067201Y0298985D01*
X0064847Y0298985D01*
X0064847Y0299386D02*
X0067201Y0299386D01*
X0067201Y0299787D02*
X0064847Y0299787D01*
X0064847Y0300188D02*
X0067201Y0300188D01*
X0067201Y0300589D02*
X0064847Y0300589D01*
X0064847Y0297008D02*
X0064847Y0295048D01*
X0064847Y0297008D02*
X0067201Y0297008D01*
X0067201Y0295048D01*
X0064847Y0295048D01*
X0064847Y0295449D02*
X0067201Y0295449D01*
X0067201Y0295850D02*
X0064847Y0295850D01*
X0064847Y0296251D02*
X0067201Y0296251D01*
X0067201Y0296652D02*
X0064847Y0296652D01*
X0069965Y0297008D02*
X0069965Y0295048D01*
X0069965Y0297008D02*
X0072319Y0297008D01*
X0072319Y0295048D01*
X0069965Y0295048D01*
X0069965Y0295449D02*
X0072319Y0295449D01*
X0072319Y0295850D02*
X0069965Y0295850D01*
X0069965Y0296251D02*
X0072319Y0296251D01*
X0072319Y0296652D02*
X0069965Y0296652D01*
X0075083Y0297008D02*
X0075083Y0295048D01*
X0075083Y0297008D02*
X0077437Y0297008D01*
X0077437Y0295048D01*
X0075083Y0295048D01*
X0075083Y0295449D02*
X0077437Y0295449D01*
X0077437Y0295850D02*
X0075083Y0295850D01*
X0075083Y0296251D02*
X0077437Y0296251D01*
X0077437Y0296652D02*
X0075083Y0296652D01*
X0422712Y0325560D02*
X0422712Y0327520D01*
X0422712Y0325560D02*
X0420358Y0325560D01*
X0420358Y0327520D01*
X0422712Y0327520D01*
X0422712Y0325961D02*
X0420358Y0325961D01*
X0420358Y0326362D02*
X0422712Y0326362D01*
X0422712Y0326763D02*
X0420358Y0326763D01*
X0420358Y0327164D02*
X0422712Y0327164D01*
X0422712Y0329497D02*
X0422712Y0331457D01*
X0422712Y0329497D02*
X0420358Y0329497D01*
X0420358Y0331457D01*
X0422712Y0331457D01*
X0422712Y0329898D02*
X0420358Y0329898D01*
X0420358Y0330299D02*
X0422712Y0330299D01*
X0422712Y0330700D02*
X0420358Y0330700D01*
X0420358Y0331101D02*
X0422712Y0331101D01*
X0427437Y0331457D02*
X0427437Y0329497D01*
X0425083Y0329497D01*
X0425083Y0331457D01*
X0427437Y0331457D01*
X0427437Y0329898D02*
X0425083Y0329898D01*
X0425083Y0330299D02*
X0427437Y0330299D01*
X0427437Y0330700D02*
X0425083Y0330700D01*
X0425083Y0331101D02*
X0427437Y0331101D01*
X0432161Y0331457D02*
X0432161Y0329497D01*
X0429807Y0329497D01*
X0429807Y0331457D01*
X0432161Y0331457D01*
X0432161Y0329898D02*
X0429807Y0329898D01*
X0429807Y0330299D02*
X0432161Y0330299D01*
X0432161Y0330700D02*
X0429807Y0330700D01*
X0429807Y0331101D02*
X0432161Y0331101D01*
X0432161Y0327520D02*
X0432161Y0325560D01*
X0429807Y0325560D01*
X0429807Y0327520D01*
X0432161Y0327520D01*
X0432161Y0325961D02*
X0429807Y0325961D01*
X0429807Y0326362D02*
X0432161Y0326362D01*
X0432161Y0326763D02*
X0429807Y0326763D01*
X0429807Y0327164D02*
X0432161Y0327164D01*
X0427437Y0327520D02*
X0427437Y0325560D01*
X0425083Y0325560D01*
X0425083Y0327520D01*
X0427437Y0327520D01*
X0427437Y0325961D02*
X0425083Y0325961D01*
X0425083Y0326362D02*
X0427437Y0326362D01*
X0427437Y0326763D02*
X0425083Y0326763D01*
X0425083Y0327164D02*
X0427437Y0327164D01*
X0453036Y0305276D02*
X0453036Y0303316D01*
X0453036Y0305276D02*
X0455390Y0305276D01*
X0455390Y0303316D01*
X0453036Y0303316D01*
X0453036Y0303717D02*
X0455390Y0303717D01*
X0455390Y0304118D02*
X0453036Y0304118D01*
X0453036Y0304519D02*
X0455390Y0304519D01*
X0455390Y0304920D02*
X0453036Y0304920D01*
X0453036Y0301339D02*
X0453036Y0299379D01*
X0453036Y0301339D02*
X0455390Y0301339D01*
X0455390Y0299379D01*
X0453036Y0299379D01*
X0453036Y0299780D02*
X0455390Y0299780D01*
X0455390Y0300181D02*
X0453036Y0300181D01*
X0453036Y0300582D02*
X0455390Y0300582D01*
X0455390Y0300983D02*
X0453036Y0300983D01*
X0460516Y0313158D02*
X0460516Y0315118D01*
X0462870Y0315118D01*
X0462870Y0313158D01*
X0460516Y0313158D01*
X0460516Y0313559D02*
X0462870Y0313559D01*
X0462870Y0313960D02*
X0460516Y0313960D01*
X0460516Y0314361D02*
X0462870Y0314361D01*
X0462870Y0314762D02*
X0460516Y0314762D01*
X0460516Y0317095D02*
X0460516Y0319055D01*
X0462870Y0319055D01*
X0462870Y0317095D01*
X0460516Y0317095D01*
X0460516Y0317496D02*
X0462870Y0317496D01*
X0462870Y0317897D02*
X0460516Y0317897D01*
X0460516Y0318298D02*
X0462870Y0318298D01*
X0462870Y0318699D02*
X0460516Y0318699D01*
X0476264Y0319055D02*
X0476264Y0317095D01*
X0476264Y0319055D02*
X0478618Y0319055D01*
X0478618Y0317095D01*
X0476264Y0317095D01*
X0476264Y0317496D02*
X0478618Y0317496D01*
X0478618Y0317897D02*
X0476264Y0317897D01*
X0476264Y0318298D02*
X0478618Y0318298D01*
X0478618Y0318699D02*
X0476264Y0318699D01*
X0476264Y0315118D02*
X0476264Y0313158D01*
X0476264Y0315118D02*
X0478618Y0315118D01*
X0478618Y0313158D01*
X0476264Y0313158D01*
X0476264Y0313559D02*
X0478618Y0313559D01*
X0478618Y0313960D02*
X0476264Y0313960D01*
X0476264Y0314361D02*
X0478618Y0314361D01*
X0478618Y0314762D02*
X0476264Y0314762D01*
X0492012Y0315118D02*
X0492012Y0313158D01*
X0492012Y0315118D02*
X0494366Y0315118D01*
X0494366Y0313158D01*
X0492012Y0313158D01*
X0492012Y0313559D02*
X0494366Y0313559D01*
X0494366Y0313960D02*
X0492012Y0313960D01*
X0492012Y0314361D02*
X0494366Y0314361D01*
X0494366Y0314762D02*
X0492012Y0314762D01*
X0492012Y0317095D02*
X0492012Y0319055D01*
X0494366Y0319055D01*
X0494366Y0317095D01*
X0492012Y0317095D01*
X0492012Y0317496D02*
X0494366Y0317496D01*
X0494366Y0317897D02*
X0492012Y0317897D01*
X0492012Y0318298D02*
X0494366Y0318298D01*
X0494366Y0318699D02*
X0492012Y0318699D01*
X0507760Y0319055D02*
X0507760Y0317095D01*
X0507760Y0319055D02*
X0510114Y0319055D01*
X0510114Y0317095D01*
X0507760Y0317095D01*
X0507760Y0317496D02*
X0510114Y0317496D01*
X0510114Y0317897D02*
X0507760Y0317897D01*
X0507760Y0318298D02*
X0510114Y0318298D01*
X0510114Y0318699D02*
X0507760Y0318699D01*
X0507760Y0315118D02*
X0507760Y0313158D01*
X0507760Y0315118D02*
X0510114Y0315118D01*
X0510114Y0313158D01*
X0507760Y0313158D01*
X0507760Y0313559D02*
X0510114Y0313559D01*
X0510114Y0313960D02*
X0507760Y0313960D01*
X0507760Y0314361D02*
X0510114Y0314361D01*
X0510114Y0314762D02*
X0507760Y0314762D01*
X0523508Y0315118D02*
X0523508Y0313158D01*
X0523508Y0315118D02*
X0525862Y0315118D01*
X0525862Y0313158D01*
X0523508Y0313158D01*
X0523508Y0313559D02*
X0525862Y0313559D01*
X0525862Y0313960D02*
X0523508Y0313960D01*
X0523508Y0314361D02*
X0525862Y0314361D01*
X0525862Y0314762D02*
X0523508Y0314762D01*
X0523508Y0317095D02*
X0523508Y0319055D01*
X0525862Y0319055D01*
X0525862Y0317095D01*
X0523508Y0317095D01*
X0523508Y0317496D02*
X0525862Y0317496D01*
X0525862Y0317897D02*
X0523508Y0317897D01*
X0523508Y0318298D02*
X0525862Y0318298D01*
X0525862Y0318699D02*
X0523508Y0318699D01*
X0532760Y0348788D02*
X0532760Y0350748D01*
X0535114Y0350748D01*
X0535114Y0348788D01*
X0532760Y0348788D01*
X0532760Y0349189D02*
X0535114Y0349189D01*
X0535114Y0349590D02*
X0532760Y0349590D01*
X0532760Y0349991D02*
X0535114Y0349991D01*
X0535114Y0350392D02*
X0532760Y0350392D01*
X0532760Y0352725D02*
X0532760Y0354685D01*
X0535114Y0354685D01*
X0535114Y0352725D01*
X0532760Y0352725D01*
X0532760Y0353126D02*
X0535114Y0353126D01*
X0535114Y0353527D02*
X0532760Y0353527D01*
X0532760Y0353928D02*
X0535114Y0353928D01*
X0535114Y0354329D02*
X0532760Y0354329D01*
D11*
X0387181Y0315029D02*
X0384237Y0315029D01*
X0384237Y0319153D01*
X0387181Y0319153D01*
X0387181Y0315029D01*
X0387181Y0316613D02*
X0384237Y0316613D01*
X0384237Y0318197D02*
X0387181Y0318197D01*
X0380094Y0315029D02*
X0377150Y0315029D01*
X0377150Y0319153D01*
X0380094Y0319153D01*
X0380094Y0315029D01*
X0380094Y0316613D02*
X0377150Y0316613D01*
X0377150Y0318197D02*
X0380094Y0318197D01*
X0360802Y0305768D02*
X0360802Y0302824D01*
X0356678Y0302824D01*
X0356678Y0305768D01*
X0360802Y0305768D01*
X0360802Y0304408D02*
X0356678Y0304408D01*
X0360802Y0298681D02*
X0360802Y0295737D01*
X0356678Y0295737D01*
X0356678Y0298681D01*
X0360802Y0298681D01*
X0360802Y0297321D02*
X0356678Y0297321D01*
X0315921Y0322893D02*
X0312977Y0322893D01*
X0315921Y0322893D02*
X0315921Y0318769D01*
X0312977Y0318769D01*
X0312977Y0322893D01*
X0312977Y0320353D02*
X0315921Y0320353D01*
X0315921Y0321937D02*
X0312977Y0321937D01*
X0308834Y0322893D02*
X0305890Y0322893D01*
X0308834Y0322893D02*
X0308834Y0318769D01*
X0305890Y0318769D01*
X0305890Y0322893D01*
X0305890Y0320353D02*
X0308834Y0320353D01*
X0308834Y0321937D02*
X0305890Y0321937D01*
X0291127Y0317973D02*
X0291127Y0315029D01*
X0291127Y0317973D02*
X0295251Y0317973D01*
X0295251Y0315029D01*
X0291127Y0315029D01*
X0291127Y0316613D02*
X0295251Y0316613D01*
X0291127Y0310886D02*
X0291127Y0307942D01*
X0291127Y0310886D02*
X0295251Y0310886D01*
X0295251Y0307942D01*
X0291127Y0307942D01*
X0291127Y0309526D02*
X0295251Y0309526D01*
X0282662Y0310886D02*
X0282662Y0307942D01*
X0282662Y0310886D02*
X0286786Y0310886D01*
X0286786Y0307942D01*
X0282662Y0307942D01*
X0282662Y0309526D02*
X0286786Y0309526D01*
X0282662Y0315029D02*
X0282662Y0317973D01*
X0286786Y0317973D01*
X0286786Y0315029D01*
X0282662Y0315029D01*
X0282662Y0316613D02*
X0286786Y0316613D01*
X0286786Y0301634D02*
X0286786Y0298690D01*
X0282662Y0298690D01*
X0282662Y0301634D01*
X0286786Y0301634D01*
X0286786Y0300274D02*
X0282662Y0300274D01*
X0286786Y0294547D02*
X0286786Y0291603D01*
X0282662Y0291603D01*
X0282662Y0294547D01*
X0286786Y0294547D01*
X0286786Y0293187D02*
X0282662Y0293187D01*
X0295251Y0294547D02*
X0295251Y0291603D01*
X0291127Y0291603D01*
X0291127Y0294547D01*
X0295251Y0294547D01*
X0295251Y0293187D02*
X0291127Y0293187D01*
X0295251Y0298690D02*
X0295251Y0301634D01*
X0295251Y0298690D02*
X0291127Y0298690D01*
X0291127Y0301634D01*
X0295251Y0301634D01*
X0295251Y0300274D02*
X0291127Y0300274D01*
X0247032Y0284114D02*
X0247032Y0281170D01*
X0247032Y0284114D02*
X0251156Y0284114D01*
X0251156Y0281170D01*
X0247032Y0281170D01*
X0247032Y0282754D02*
X0251156Y0282754D01*
X0247032Y0277028D02*
X0247032Y0274084D01*
X0247032Y0277028D02*
X0251156Y0277028D01*
X0251156Y0274084D01*
X0247032Y0274084D01*
X0247032Y0275668D02*
X0251156Y0275668D01*
X0214346Y0260895D02*
X0211402Y0260895D01*
X0211402Y0265019D01*
X0214346Y0265019D01*
X0214346Y0260895D01*
X0214346Y0262479D02*
X0211402Y0262479D01*
X0211402Y0264063D02*
X0214346Y0264063D01*
X0207259Y0260895D02*
X0204315Y0260895D01*
X0204315Y0265019D01*
X0207259Y0265019D01*
X0207259Y0260895D01*
X0207259Y0262479D02*
X0204315Y0262479D01*
X0204315Y0264063D02*
X0207259Y0264063D01*
X0270251Y0239626D02*
X0270251Y0236682D01*
X0266127Y0236682D01*
X0266127Y0239626D01*
X0270251Y0239626D01*
X0270251Y0238266D02*
X0266127Y0238266D01*
X0270251Y0232540D02*
X0270251Y0229596D01*
X0266127Y0229596D01*
X0266127Y0232540D01*
X0270251Y0232540D01*
X0270251Y0231180D02*
X0266127Y0231180D01*
X0278519Y0232540D02*
X0278519Y0229596D01*
X0274395Y0229596D01*
X0274395Y0232540D01*
X0278519Y0232540D01*
X0278519Y0231180D02*
X0274395Y0231180D01*
X0278519Y0236682D02*
X0278519Y0239626D01*
X0278519Y0236682D02*
X0274395Y0236682D01*
X0274395Y0239626D01*
X0278519Y0239626D01*
X0278519Y0238266D02*
X0274395Y0238266D01*
X0319464Y0229193D02*
X0319464Y0226249D01*
X0315340Y0226249D01*
X0315340Y0229193D01*
X0319464Y0229193D01*
X0319464Y0227833D02*
X0315340Y0227833D01*
X0319464Y0222107D02*
X0319464Y0219163D01*
X0315340Y0219163D01*
X0315340Y0222107D01*
X0319464Y0222107D01*
X0319464Y0220747D02*
X0315340Y0220747D01*
X0327338Y0222107D02*
X0327338Y0219163D01*
X0323214Y0219163D01*
X0323214Y0222107D01*
X0327338Y0222107D01*
X0327338Y0220747D02*
X0323214Y0220747D01*
X0327338Y0226249D02*
X0327338Y0229193D01*
X0327338Y0226249D02*
X0323214Y0226249D01*
X0323214Y0229193D01*
X0327338Y0229193D01*
X0327338Y0227833D02*
X0323214Y0227833D01*
X0289739Y0202618D02*
X0289739Y0199674D01*
X0285615Y0199674D01*
X0285615Y0202618D01*
X0289739Y0202618D01*
X0289739Y0201258D02*
X0285615Y0201258D01*
X0289739Y0195532D02*
X0289739Y0192588D01*
X0285615Y0192588D01*
X0285615Y0195532D01*
X0289739Y0195532D01*
X0289739Y0194172D02*
X0285615Y0194172D01*
X0262759Y0173707D02*
X0260678Y0171626D01*
X0257763Y0174541D01*
X0259844Y0176622D01*
X0262759Y0173707D01*
X0262262Y0173210D02*
X0259094Y0173210D01*
X0258016Y0174794D02*
X0261672Y0174794D01*
X0260088Y0176378D02*
X0259600Y0176378D01*
X0257748Y0168696D02*
X0255667Y0166615D01*
X0252752Y0169530D01*
X0254833Y0171611D01*
X0257748Y0168696D01*
X0257251Y0168199D02*
X0254083Y0168199D01*
X0253005Y0169783D02*
X0256661Y0169783D01*
X0255077Y0171367D02*
X0254589Y0171367D01*
X0325172Y0191407D02*
X0325172Y0194351D01*
X0325172Y0191407D02*
X0321048Y0191407D01*
X0321048Y0194351D01*
X0325172Y0194351D01*
X0325172Y0192991D02*
X0321048Y0192991D01*
X0325172Y0198493D02*
X0325172Y0201437D01*
X0325172Y0198493D02*
X0321048Y0198493D01*
X0321048Y0201437D01*
X0325172Y0201437D01*
X0325172Y0200077D02*
X0321048Y0200077D01*
X0357071Y0159901D02*
X0360015Y0159901D01*
X0360015Y0155777D01*
X0357071Y0155777D01*
X0357071Y0159901D01*
X0357071Y0157361D02*
X0360015Y0157361D01*
X0360015Y0158945D02*
X0357071Y0158945D01*
X0364158Y0159901D02*
X0367102Y0159901D01*
X0367102Y0155777D01*
X0364158Y0155777D01*
X0364158Y0159901D01*
X0364158Y0157361D02*
X0367102Y0157361D01*
X0367102Y0158945D02*
X0364158Y0158945D01*
X0364740Y0121319D02*
X0361796Y0121319D01*
X0364740Y0121319D02*
X0364740Y0117195D01*
X0361796Y0117195D01*
X0361796Y0121319D01*
X0361796Y0118779D02*
X0364740Y0118779D01*
X0364740Y0120363D02*
X0361796Y0120363D01*
X0357653Y0121319D02*
X0354709Y0121319D01*
X0357653Y0121319D02*
X0357653Y0117195D01*
X0354709Y0117195D01*
X0354709Y0121319D01*
X0354709Y0118779D02*
X0357653Y0118779D01*
X0357653Y0120363D02*
X0354709Y0120363D01*
X0354709Y0113051D02*
X0357653Y0113051D01*
X0357653Y0108927D01*
X0354709Y0108927D01*
X0354709Y0113051D01*
X0354709Y0110511D02*
X0357653Y0110511D01*
X0357653Y0112095D02*
X0354709Y0112095D01*
X0361796Y0113051D02*
X0364740Y0113051D01*
X0364740Y0108927D01*
X0361796Y0108927D01*
X0361796Y0113051D01*
X0361796Y0110511D02*
X0364740Y0110511D01*
X0364740Y0112095D02*
X0361796Y0112095D01*
X0161984Y0120433D02*
X0159040Y0120433D01*
X0161984Y0120433D02*
X0161984Y0116309D01*
X0159040Y0116309D01*
X0159040Y0120433D01*
X0159040Y0117893D02*
X0161984Y0117893D01*
X0161984Y0119477D02*
X0159040Y0119477D01*
X0154897Y0120433D02*
X0151953Y0120433D01*
X0154897Y0120433D02*
X0154897Y0116309D01*
X0151953Y0116309D01*
X0151953Y0120433D01*
X0151953Y0117893D02*
X0154897Y0117893D01*
X0154897Y0119477D02*
X0151953Y0119477D01*
X0099001Y0212666D02*
X0099001Y0215610D01*
X0103125Y0215610D01*
X0103125Y0212666D01*
X0099001Y0212666D01*
X0099001Y0214250D02*
X0103125Y0214250D01*
X0099001Y0219753D02*
X0099001Y0222697D01*
X0103125Y0222697D01*
X0103125Y0219753D01*
X0099001Y0219753D01*
X0099001Y0221337D02*
X0103125Y0221337D01*
X0144473Y0322303D02*
X0147417Y0322303D01*
X0147417Y0318179D01*
X0144473Y0318179D01*
X0144473Y0322303D01*
X0144473Y0319763D02*
X0147417Y0319763D01*
X0147417Y0321347D02*
X0144473Y0321347D01*
X0151559Y0322303D02*
X0154503Y0322303D01*
X0154503Y0318179D01*
X0151559Y0318179D01*
X0151559Y0322303D01*
X0151559Y0319763D02*
X0154503Y0319763D01*
X0154503Y0321347D02*
X0151559Y0321347D01*
X0121039Y0345728D02*
X0118095Y0345728D01*
X0121039Y0345728D02*
X0121039Y0341604D01*
X0118095Y0341604D01*
X0118095Y0345728D01*
X0118095Y0343188D02*
X0121039Y0343188D01*
X0121039Y0344772D02*
X0118095Y0344772D01*
X0113952Y0345728D02*
X0111008Y0345728D01*
X0113952Y0345728D02*
X0113952Y0341604D01*
X0111008Y0341604D01*
X0111008Y0345728D01*
X0111008Y0343188D02*
X0113952Y0343188D01*
X0113952Y0344772D02*
X0111008Y0344772D01*
X0109631Y0354005D02*
X0109631Y0356949D01*
X0113755Y0356949D01*
X0113755Y0354005D01*
X0109631Y0354005D01*
X0109631Y0355589D02*
X0113755Y0355589D01*
X0118095Y0356949D02*
X0118095Y0354005D01*
X0118095Y0356949D02*
X0122219Y0356949D01*
X0122219Y0354005D01*
X0118095Y0354005D01*
X0118095Y0355589D02*
X0122219Y0355589D01*
X0118095Y0361092D02*
X0118095Y0364036D01*
X0122219Y0364036D01*
X0122219Y0361092D01*
X0118095Y0361092D01*
X0118095Y0362676D02*
X0122219Y0362676D01*
X0109631Y0364036D02*
X0109631Y0361092D01*
X0109631Y0364036D02*
X0113755Y0364036D01*
X0113755Y0361092D01*
X0109631Y0361092D01*
X0109631Y0362676D02*
X0113755Y0362676D01*
X0370063Y0355374D02*
X0373007Y0355374D01*
X0373007Y0351250D01*
X0370063Y0351250D01*
X0370063Y0355374D01*
X0370063Y0352834D02*
X0373007Y0352834D01*
X0373007Y0354418D02*
X0370063Y0354418D01*
X0377150Y0355374D02*
X0380094Y0355374D01*
X0380094Y0351250D01*
X0377150Y0351250D01*
X0377150Y0355374D01*
X0377150Y0352834D02*
X0380094Y0352834D01*
X0380094Y0354418D02*
X0377150Y0354418D01*
D12*
X0203228Y0125753D03*
X0195354Y0122012D03*
X0203228Y0118272D03*
D13*
X0059402Y0347741D03*
D14*
X0104409Y0347741D03*
D15*
X0105071Y0317820D03*
D16*
X0058024Y0315261D03*
D17*
X0069047Y0348233D03*
X0073378Y0348233D03*
X0077709Y0348233D03*
X0082039Y0348233D03*
X0086370Y0348233D03*
X0090701Y0348233D03*
X0095031Y0348233D03*
X0099362Y0348233D03*
D18*
X0103693Y0311914D03*
D19*
X0059598Y0305713D03*
D20*
X0161299Y0372111D03*
X0163858Y0372111D03*
X0166417Y0372111D03*
X0168976Y0372111D03*
X0171535Y0372111D03*
D21*
X0113661Y0114552D03*
X0113661Y0109552D03*
X0113661Y0104552D03*
X0113661Y0099552D03*
X0093189Y0099552D03*
X0093189Y0104552D03*
X0093189Y0109552D03*
X0093189Y0114552D03*
D22*
G36*
X0218408Y0122931D02*
X0215625Y0120148D01*
X0210616Y0125157D01*
X0213399Y0127940D01*
X0218408Y0122931D01*
G37*
G36*
X0225368Y0129891D02*
X0222585Y0127108D01*
X0217576Y0132117D01*
X0220359Y0134900D01*
X0225368Y0129891D01*
G37*
D23*
X0425866Y0127682D03*
X0425866Y0122682D03*
X0425866Y0117682D03*
X0425866Y0112682D03*
X0425866Y0107682D03*
X0425866Y0102682D03*
X0447126Y0102682D03*
X0447126Y0107682D03*
X0447126Y0112682D03*
X0447126Y0117682D03*
X0447126Y0122682D03*
X0447126Y0127682D03*
X0447126Y0132682D03*
X0447126Y0146776D03*
X0447126Y0151776D03*
X0447126Y0156776D03*
X0447126Y0161776D03*
X0447126Y0166776D03*
X0447126Y0171776D03*
X0447126Y0176776D03*
X0425866Y0176776D03*
X0425866Y0171776D03*
X0425866Y0166776D03*
X0425866Y0161776D03*
X0425866Y0156776D03*
X0425866Y0151776D03*
X0425866Y0146776D03*
X0425866Y0132682D03*
X0492795Y0132682D03*
X0492795Y0127682D03*
X0492795Y0122682D03*
X0492795Y0117682D03*
X0492795Y0112682D03*
X0492795Y0107682D03*
X0492795Y0102682D03*
X0514055Y0102682D03*
X0514055Y0107682D03*
X0514055Y0112682D03*
X0514055Y0117682D03*
X0514055Y0122682D03*
X0514055Y0127682D03*
X0514055Y0132682D03*
X0514055Y0146776D03*
X0514055Y0151776D03*
X0514055Y0156776D03*
X0514055Y0161776D03*
X0514055Y0166776D03*
X0514055Y0171776D03*
X0514055Y0176776D03*
X0492795Y0176776D03*
X0492795Y0171776D03*
X0492795Y0166776D03*
X0492795Y0161776D03*
X0492795Y0156776D03*
X0492795Y0151776D03*
X0492795Y0146776D03*
D24*
X0174094Y0334414D02*
X0172126Y0334414D01*
X0172126Y0336383D02*
X0174094Y0336383D01*
X0174094Y0338351D02*
X0172126Y0338351D01*
X0172126Y0340320D02*
X0174094Y0340320D01*
X0174094Y0342288D02*
X0172126Y0342288D01*
X0172126Y0344257D02*
X0174094Y0344257D01*
X0174094Y0346225D02*
X0172126Y0346225D01*
X0172126Y0348194D02*
X0174094Y0348194D01*
X0170551Y0349768D02*
X0170551Y0351737D01*
X0168583Y0351737D02*
X0168583Y0349768D01*
X0166614Y0349768D02*
X0166614Y0351737D01*
X0164646Y0351737D02*
X0164646Y0349768D01*
X0162677Y0349768D02*
X0162677Y0351737D01*
X0160709Y0351737D02*
X0160709Y0349768D01*
X0158740Y0349768D02*
X0158740Y0351737D01*
X0156772Y0351737D02*
X0156772Y0349768D01*
X0155197Y0348194D02*
X0153228Y0348194D01*
X0153228Y0346225D02*
X0155197Y0346225D01*
X0155197Y0344257D02*
X0153228Y0344257D01*
X0153228Y0342288D02*
X0155197Y0342288D01*
X0155197Y0340320D02*
X0153228Y0340320D01*
X0153228Y0338351D02*
X0155197Y0338351D01*
X0155197Y0336383D02*
X0153228Y0336383D01*
X0153228Y0334414D02*
X0155197Y0334414D01*
X0156772Y0332839D02*
X0156772Y0330871D01*
X0158740Y0330871D02*
X0158740Y0332839D01*
X0160709Y0332839D02*
X0160709Y0330871D01*
X0162677Y0330871D02*
X0162677Y0332839D01*
X0164646Y0332839D02*
X0164646Y0330871D01*
X0166614Y0330871D02*
X0166614Y0332839D01*
X0168583Y0332839D02*
X0168583Y0330871D01*
X0170551Y0330871D02*
X0170551Y0332839D01*
D25*
X0168583Y0337367D03*
X0166614Y0337367D03*
X0164646Y0337367D03*
X0162677Y0337367D03*
X0160709Y0337367D03*
X0158740Y0337367D03*
X0158740Y0341304D03*
X0160709Y0341304D03*
X0162677Y0341304D03*
X0164646Y0341304D03*
X0166614Y0341304D03*
X0168583Y0341304D03*
X0168583Y0345241D03*
X0166614Y0345241D03*
X0164646Y0345241D03*
X0162677Y0345241D03*
X0160709Y0345241D03*
X0158740Y0345241D03*
D26*
X0158740Y0352032D03*
X0156772Y0352032D03*
X0160709Y0352032D03*
X0162677Y0352032D03*
X0164646Y0352032D03*
X0166614Y0352032D03*
X0168583Y0352032D03*
X0170551Y0352032D03*
X0170551Y0330575D03*
X0168583Y0330575D03*
X0166614Y0330575D03*
X0164646Y0330575D03*
X0162677Y0330575D03*
X0160709Y0330575D03*
X0158740Y0330575D03*
X0156772Y0330575D03*
D27*
X0152933Y0334414D03*
X0152933Y0336383D03*
X0152933Y0338351D03*
X0152933Y0340320D03*
X0152933Y0342288D03*
X0152933Y0344257D03*
X0152933Y0346225D03*
X0152933Y0348194D03*
X0174390Y0348194D03*
X0174390Y0346225D03*
X0174390Y0344257D03*
X0174390Y0342288D03*
X0174390Y0340320D03*
X0174390Y0338351D03*
X0174390Y0336383D03*
X0174390Y0334414D03*
D28*
G36*
X0173913Y0257000D02*
X0170574Y0260339D01*
X0171409Y0261174D01*
X0174748Y0257835D01*
X0173913Y0257000D01*
G37*
G36*
X0172521Y0255608D02*
X0169182Y0258947D01*
X0170017Y0259782D01*
X0173356Y0256443D01*
X0172521Y0255608D01*
G37*
G36*
X0171129Y0254216D02*
X0167790Y0257555D01*
X0168625Y0258390D01*
X0171964Y0255051D01*
X0171129Y0254216D01*
G37*
G36*
X0169737Y0252824D02*
X0166398Y0256163D01*
X0167233Y0256998D01*
X0170572Y0253659D01*
X0169737Y0252824D01*
G37*
G36*
X0168345Y0251433D02*
X0165006Y0254772D01*
X0165841Y0255607D01*
X0169180Y0252268D01*
X0168345Y0251433D01*
G37*
G36*
X0166953Y0250041D02*
X0163614Y0253380D01*
X0164449Y0254215D01*
X0167788Y0250876D01*
X0166953Y0250041D01*
G37*
G36*
X0165561Y0248649D02*
X0162222Y0251988D01*
X0163057Y0252823D01*
X0166396Y0249484D01*
X0165561Y0248649D01*
G37*
G36*
X0164169Y0247257D02*
X0160830Y0250596D01*
X0161665Y0251431D01*
X0165004Y0248092D01*
X0164169Y0247257D01*
G37*
G36*
X0162777Y0245865D02*
X0159438Y0249204D01*
X0160273Y0250039D01*
X0163612Y0246700D01*
X0162777Y0245865D01*
G37*
G36*
X0161385Y0244473D02*
X0158046Y0247812D01*
X0158881Y0248647D01*
X0162220Y0245308D01*
X0161385Y0244473D01*
G37*
G36*
X0159993Y0243081D02*
X0156654Y0246420D01*
X0157489Y0247255D01*
X0160828Y0243916D01*
X0159993Y0243081D01*
G37*
G36*
X0158601Y0241689D02*
X0155262Y0245028D01*
X0156097Y0245863D01*
X0159436Y0242524D01*
X0158601Y0241689D01*
G37*
G36*
X0157209Y0240297D02*
X0153870Y0243636D01*
X0154705Y0244471D01*
X0158044Y0241132D01*
X0157209Y0240297D01*
G37*
G36*
X0155817Y0238905D02*
X0152478Y0242244D01*
X0153313Y0243079D01*
X0156652Y0239740D01*
X0155817Y0238905D01*
G37*
G36*
X0154425Y0237513D02*
X0151086Y0240852D01*
X0151921Y0241687D01*
X0155260Y0238348D01*
X0154425Y0237513D01*
G37*
G36*
X0153033Y0236121D02*
X0149694Y0239460D01*
X0150529Y0240295D01*
X0153868Y0236956D01*
X0153033Y0236121D01*
G37*
G36*
X0151641Y0234729D02*
X0148302Y0238068D01*
X0149137Y0238903D01*
X0152476Y0235564D01*
X0151641Y0234729D01*
G37*
G36*
X0150250Y0233337D02*
X0146911Y0236676D01*
X0147746Y0237511D01*
X0151085Y0234172D01*
X0150250Y0233337D01*
G37*
G36*
X0148858Y0231945D02*
X0145519Y0235284D01*
X0146354Y0236119D01*
X0149693Y0232780D01*
X0148858Y0231945D01*
G37*
G36*
X0147466Y0230553D02*
X0144127Y0233892D01*
X0144962Y0234727D01*
X0148301Y0231388D01*
X0147466Y0230553D01*
G37*
G36*
X0146074Y0229161D02*
X0142735Y0232500D01*
X0143570Y0233335D01*
X0146909Y0229996D01*
X0146074Y0229161D01*
G37*
G36*
X0144682Y0227770D02*
X0141343Y0231109D01*
X0142178Y0231944D01*
X0145517Y0228605D01*
X0144682Y0227770D01*
G37*
G36*
X0143290Y0226378D02*
X0139951Y0229717D01*
X0140786Y0230552D01*
X0144125Y0227213D01*
X0143290Y0226378D01*
G37*
G36*
X0141898Y0224986D02*
X0138559Y0228325D01*
X0139394Y0229160D01*
X0142733Y0225821D01*
X0141898Y0224986D01*
G37*
G36*
X0140506Y0223594D02*
X0137167Y0226933D01*
X0138002Y0227768D01*
X0141341Y0224429D01*
X0140506Y0223594D01*
G37*
G36*
X0139114Y0222202D02*
X0135775Y0225541D01*
X0136610Y0226376D01*
X0139949Y0223037D01*
X0139114Y0222202D01*
G37*
G36*
X0137722Y0220810D02*
X0134383Y0224149D01*
X0135218Y0224984D01*
X0138557Y0221645D01*
X0137722Y0220810D01*
G37*
G36*
X0136330Y0219418D02*
X0132991Y0222757D01*
X0133826Y0223592D01*
X0137165Y0220253D01*
X0136330Y0219418D01*
G37*
G36*
X0134938Y0218026D02*
X0131599Y0221365D01*
X0132434Y0222200D01*
X0135773Y0218861D01*
X0134938Y0218026D01*
G37*
G36*
X0133546Y0216634D02*
X0130207Y0219973D01*
X0131042Y0220808D01*
X0134381Y0217469D01*
X0133546Y0216634D01*
G37*
G36*
X0132154Y0215242D02*
X0128815Y0218581D01*
X0129650Y0219416D01*
X0132989Y0216077D01*
X0132154Y0215242D01*
G37*
G36*
X0130762Y0213850D02*
X0127423Y0217189D01*
X0128258Y0218024D01*
X0131597Y0214685D01*
X0130762Y0213850D01*
G37*
G36*
X0129370Y0212458D02*
X0126031Y0215797D01*
X0126866Y0216632D01*
X0130205Y0213293D01*
X0129370Y0212458D01*
G37*
G36*
X0127978Y0211066D02*
X0124639Y0214405D01*
X0125474Y0215240D01*
X0128813Y0211901D01*
X0127978Y0211066D01*
G37*
G36*
X0126587Y0209674D02*
X0123248Y0213013D01*
X0124083Y0213848D01*
X0127422Y0210509D01*
X0126587Y0209674D01*
G37*
G36*
X0125195Y0208282D02*
X0121856Y0211621D01*
X0122691Y0212456D01*
X0126030Y0209117D01*
X0125195Y0208282D01*
G37*
G36*
X0123803Y0206890D02*
X0120464Y0210229D01*
X0121299Y0211064D01*
X0124638Y0207725D01*
X0123803Y0206890D01*
G37*
G36*
X0122411Y0205498D02*
X0119072Y0208837D01*
X0119907Y0209672D01*
X0123246Y0206333D01*
X0122411Y0205498D01*
G37*
G36*
X0121019Y0204107D02*
X0117680Y0207446D01*
X0118515Y0208281D01*
X0121854Y0204942D01*
X0121019Y0204107D01*
G37*
G36*
X0119627Y0202715D02*
X0116288Y0206054D01*
X0117123Y0206889D01*
X0120462Y0203550D01*
X0119627Y0202715D01*
G37*
G36*
X0118235Y0201323D02*
X0114896Y0204662D01*
X0115731Y0205497D01*
X0119070Y0202158D01*
X0118235Y0201323D01*
G37*
G36*
X0116843Y0199931D02*
X0113504Y0203270D01*
X0114339Y0204105D01*
X0117678Y0200766D01*
X0116843Y0199931D01*
G37*
G36*
X0115451Y0198539D02*
X0112112Y0201878D01*
X0112947Y0202713D01*
X0116286Y0199374D01*
X0115451Y0198539D01*
G37*
G36*
X0114059Y0197147D02*
X0110720Y0200486D01*
X0111555Y0201321D01*
X0114894Y0197982D01*
X0114059Y0197147D01*
G37*
G36*
X0114894Y0189350D02*
X0111555Y0186011D01*
X0110720Y0186846D01*
X0114059Y0190185D01*
X0114894Y0189350D01*
G37*
G36*
X0116286Y0187958D02*
X0112947Y0184619D01*
X0112112Y0185454D01*
X0115451Y0188793D01*
X0116286Y0187958D01*
G37*
G36*
X0117678Y0186566D02*
X0114339Y0183227D01*
X0113504Y0184062D01*
X0116843Y0187401D01*
X0117678Y0186566D01*
G37*
G36*
X0119070Y0185174D02*
X0115731Y0181835D01*
X0114896Y0182670D01*
X0118235Y0186009D01*
X0119070Y0185174D01*
G37*
G36*
X0120462Y0183782D02*
X0117123Y0180443D01*
X0116288Y0181278D01*
X0119627Y0184617D01*
X0120462Y0183782D01*
G37*
G36*
X0121854Y0182391D02*
X0118515Y0179052D01*
X0117680Y0179887D01*
X0121019Y0183226D01*
X0121854Y0182391D01*
G37*
G36*
X0123246Y0180999D02*
X0119907Y0177660D01*
X0119072Y0178495D01*
X0122411Y0181834D01*
X0123246Y0180999D01*
G37*
G36*
X0124638Y0179607D02*
X0121299Y0176268D01*
X0120464Y0177103D01*
X0123803Y0180442D01*
X0124638Y0179607D01*
G37*
G36*
X0126030Y0178215D02*
X0122691Y0174876D01*
X0121856Y0175711D01*
X0125195Y0179050D01*
X0126030Y0178215D01*
G37*
G36*
X0127422Y0176823D02*
X0124083Y0173484D01*
X0123248Y0174319D01*
X0126587Y0177658D01*
X0127422Y0176823D01*
G37*
G36*
X0128813Y0175431D02*
X0125474Y0172092D01*
X0124639Y0172927D01*
X0127978Y0176266D01*
X0128813Y0175431D01*
G37*
G36*
X0130205Y0174039D02*
X0126866Y0170700D01*
X0126031Y0171535D01*
X0129370Y0174874D01*
X0130205Y0174039D01*
G37*
G36*
X0131597Y0172647D02*
X0128258Y0169308D01*
X0127423Y0170143D01*
X0130762Y0173482D01*
X0131597Y0172647D01*
G37*
G36*
X0132989Y0171255D02*
X0129650Y0167916D01*
X0128815Y0168751D01*
X0132154Y0172090D01*
X0132989Y0171255D01*
G37*
G36*
X0134381Y0169863D02*
X0131042Y0166524D01*
X0130207Y0167359D01*
X0133546Y0170698D01*
X0134381Y0169863D01*
G37*
G36*
X0135773Y0168471D02*
X0132434Y0165132D01*
X0131599Y0165967D01*
X0134938Y0169306D01*
X0135773Y0168471D01*
G37*
G36*
X0137165Y0167079D02*
X0133826Y0163740D01*
X0132991Y0164575D01*
X0136330Y0167914D01*
X0137165Y0167079D01*
G37*
G36*
X0138557Y0165687D02*
X0135218Y0162348D01*
X0134383Y0163183D01*
X0137722Y0166522D01*
X0138557Y0165687D01*
G37*
G36*
X0139949Y0164295D02*
X0136610Y0160956D01*
X0135775Y0161791D01*
X0139114Y0165130D01*
X0139949Y0164295D01*
G37*
G36*
X0141341Y0162903D02*
X0138002Y0159564D01*
X0137167Y0160399D01*
X0140506Y0163738D01*
X0141341Y0162903D01*
G37*
G36*
X0142733Y0161511D02*
X0139394Y0158172D01*
X0138559Y0159007D01*
X0141898Y0162346D01*
X0142733Y0161511D01*
G37*
G36*
X0144125Y0160119D02*
X0140786Y0156780D01*
X0139951Y0157615D01*
X0143290Y0160954D01*
X0144125Y0160119D01*
G37*
G36*
X0145517Y0158728D02*
X0142178Y0155389D01*
X0141343Y0156224D01*
X0144682Y0159563D01*
X0145517Y0158728D01*
G37*
G36*
X0146909Y0157336D02*
X0143570Y0153997D01*
X0142735Y0154832D01*
X0146074Y0158171D01*
X0146909Y0157336D01*
G37*
G36*
X0148301Y0155944D02*
X0144962Y0152605D01*
X0144127Y0153440D01*
X0147466Y0156779D01*
X0148301Y0155944D01*
G37*
G36*
X0149693Y0154552D02*
X0146354Y0151213D01*
X0145519Y0152048D01*
X0148858Y0155387D01*
X0149693Y0154552D01*
G37*
G36*
X0151085Y0153160D02*
X0147746Y0149821D01*
X0146911Y0150656D01*
X0150250Y0153995D01*
X0151085Y0153160D01*
G37*
G36*
X0152476Y0151768D02*
X0149137Y0148429D01*
X0148302Y0149264D01*
X0151641Y0152603D01*
X0152476Y0151768D01*
G37*
G36*
X0153868Y0150376D02*
X0150529Y0147037D01*
X0149694Y0147872D01*
X0153033Y0151211D01*
X0153868Y0150376D01*
G37*
G36*
X0155260Y0148984D02*
X0151921Y0145645D01*
X0151086Y0146480D01*
X0154425Y0149819D01*
X0155260Y0148984D01*
G37*
G36*
X0156652Y0147592D02*
X0153313Y0144253D01*
X0152478Y0145088D01*
X0155817Y0148427D01*
X0156652Y0147592D01*
G37*
G36*
X0158044Y0146200D02*
X0154705Y0142861D01*
X0153870Y0143696D01*
X0157209Y0147035D01*
X0158044Y0146200D01*
G37*
G36*
X0159436Y0144808D02*
X0156097Y0141469D01*
X0155262Y0142304D01*
X0158601Y0145643D01*
X0159436Y0144808D01*
G37*
G36*
X0160828Y0143416D02*
X0157489Y0140077D01*
X0156654Y0140912D01*
X0159993Y0144251D01*
X0160828Y0143416D01*
G37*
G36*
X0162220Y0142024D02*
X0158881Y0138685D01*
X0158046Y0139520D01*
X0161385Y0142859D01*
X0162220Y0142024D01*
G37*
G36*
X0163612Y0140632D02*
X0160273Y0137293D01*
X0159438Y0138128D01*
X0162777Y0141467D01*
X0163612Y0140632D01*
G37*
G36*
X0165004Y0139240D02*
X0161665Y0135901D01*
X0160830Y0136736D01*
X0164169Y0140075D01*
X0165004Y0139240D01*
G37*
G36*
X0166396Y0137848D02*
X0163057Y0134509D01*
X0162222Y0135344D01*
X0165561Y0138683D01*
X0166396Y0137848D01*
G37*
G36*
X0167788Y0136456D02*
X0164449Y0133117D01*
X0163614Y0133952D01*
X0166953Y0137291D01*
X0167788Y0136456D01*
G37*
G36*
X0169180Y0135065D02*
X0165841Y0131726D01*
X0165006Y0132561D01*
X0168345Y0135900D01*
X0169180Y0135065D01*
G37*
G36*
X0170572Y0133673D02*
X0167233Y0130334D01*
X0166398Y0131169D01*
X0169737Y0134508D01*
X0170572Y0133673D01*
G37*
G36*
X0171964Y0132281D02*
X0168625Y0128942D01*
X0167790Y0129777D01*
X0171129Y0133116D01*
X0171964Y0132281D01*
G37*
G36*
X0173356Y0130889D02*
X0170017Y0127550D01*
X0169182Y0128385D01*
X0172521Y0131724D01*
X0173356Y0130889D01*
G37*
G36*
X0174748Y0129497D02*
X0171409Y0126158D01*
X0170574Y0126993D01*
X0173913Y0130332D01*
X0174748Y0129497D01*
G37*
G36*
X0182544Y0130332D02*
X0185883Y0126993D01*
X0185048Y0126158D01*
X0181709Y0129497D01*
X0182544Y0130332D01*
G37*
G36*
X0183936Y0131724D02*
X0187275Y0128385D01*
X0186440Y0127550D01*
X0183101Y0130889D01*
X0183936Y0131724D01*
G37*
G36*
X0185328Y0133116D02*
X0188667Y0129777D01*
X0187832Y0128942D01*
X0184493Y0132281D01*
X0185328Y0133116D01*
G37*
G36*
X0186720Y0134508D02*
X0190059Y0131169D01*
X0189224Y0130334D01*
X0185885Y0133673D01*
X0186720Y0134508D01*
G37*
G36*
X0188112Y0135900D02*
X0191451Y0132561D01*
X0190616Y0131726D01*
X0187277Y0135065D01*
X0188112Y0135900D01*
G37*
G36*
X0189504Y0137291D02*
X0192843Y0133952D01*
X0192008Y0133117D01*
X0188669Y0136456D01*
X0189504Y0137291D01*
G37*
G36*
X0190896Y0138683D02*
X0194235Y0135344D01*
X0193400Y0134509D01*
X0190061Y0137848D01*
X0190896Y0138683D01*
G37*
G36*
X0192288Y0140075D02*
X0195627Y0136736D01*
X0194792Y0135901D01*
X0191453Y0139240D01*
X0192288Y0140075D01*
G37*
G36*
X0193680Y0141467D02*
X0197019Y0138128D01*
X0196184Y0137293D01*
X0192845Y0140632D01*
X0193680Y0141467D01*
G37*
G36*
X0195072Y0142859D02*
X0198411Y0139520D01*
X0197576Y0138685D01*
X0194237Y0142024D01*
X0195072Y0142859D01*
G37*
G36*
X0196464Y0144251D02*
X0199803Y0140912D01*
X0198968Y0140077D01*
X0195629Y0143416D01*
X0196464Y0144251D01*
G37*
G36*
X0197855Y0145643D02*
X0201194Y0142304D01*
X0200359Y0141469D01*
X0197020Y0144808D01*
X0197855Y0145643D01*
G37*
G36*
X0199247Y0147035D02*
X0202586Y0143696D01*
X0201751Y0142861D01*
X0198412Y0146200D01*
X0199247Y0147035D01*
G37*
G36*
X0200639Y0148427D02*
X0203978Y0145088D01*
X0203143Y0144253D01*
X0199804Y0147592D01*
X0200639Y0148427D01*
G37*
G36*
X0202031Y0149819D02*
X0205370Y0146480D01*
X0204535Y0145645D01*
X0201196Y0148984D01*
X0202031Y0149819D01*
G37*
G36*
X0203423Y0151211D02*
X0206762Y0147872D01*
X0205927Y0147037D01*
X0202588Y0150376D01*
X0203423Y0151211D01*
G37*
G36*
X0204815Y0152603D02*
X0208154Y0149264D01*
X0207319Y0148429D01*
X0203980Y0151768D01*
X0204815Y0152603D01*
G37*
G36*
X0206207Y0153995D02*
X0209546Y0150656D01*
X0208711Y0149821D01*
X0205372Y0153160D01*
X0206207Y0153995D01*
G37*
G36*
X0207599Y0155387D02*
X0210938Y0152048D01*
X0210103Y0151213D01*
X0206764Y0154552D01*
X0207599Y0155387D01*
G37*
G36*
X0208991Y0156779D02*
X0212330Y0153440D01*
X0211495Y0152605D01*
X0208156Y0155944D01*
X0208991Y0156779D01*
G37*
G36*
X0210383Y0158171D02*
X0213722Y0154832D01*
X0212887Y0153997D01*
X0209548Y0157336D01*
X0210383Y0158171D01*
G37*
G36*
X0211775Y0159563D02*
X0215114Y0156224D01*
X0214279Y0155389D01*
X0210940Y0158728D01*
X0211775Y0159563D01*
G37*
G36*
X0213167Y0160954D02*
X0216506Y0157615D01*
X0215671Y0156780D01*
X0212332Y0160119D01*
X0213167Y0160954D01*
G37*
G36*
X0214559Y0162346D02*
X0217898Y0159007D01*
X0217063Y0158172D01*
X0213724Y0161511D01*
X0214559Y0162346D01*
G37*
G36*
X0215951Y0163738D02*
X0219290Y0160399D01*
X0218455Y0159564D01*
X0215116Y0162903D01*
X0215951Y0163738D01*
G37*
G36*
X0217343Y0165130D02*
X0220682Y0161791D01*
X0219847Y0160956D01*
X0216508Y0164295D01*
X0217343Y0165130D01*
G37*
G36*
X0218735Y0166522D02*
X0222074Y0163183D01*
X0221239Y0162348D01*
X0217900Y0165687D01*
X0218735Y0166522D01*
G37*
G36*
X0220127Y0167914D02*
X0223466Y0164575D01*
X0222631Y0163740D01*
X0219292Y0167079D01*
X0220127Y0167914D01*
G37*
G36*
X0221518Y0169306D02*
X0224857Y0165967D01*
X0224022Y0165132D01*
X0220683Y0168471D01*
X0221518Y0169306D01*
G37*
G36*
X0222910Y0170698D02*
X0226249Y0167359D01*
X0225414Y0166524D01*
X0222075Y0169863D01*
X0222910Y0170698D01*
G37*
G36*
X0224302Y0172090D02*
X0227641Y0168751D01*
X0226806Y0167916D01*
X0223467Y0171255D01*
X0224302Y0172090D01*
G37*
G36*
X0225694Y0173482D02*
X0229033Y0170143D01*
X0228198Y0169308D01*
X0224859Y0172647D01*
X0225694Y0173482D01*
G37*
G36*
X0227086Y0174874D02*
X0230425Y0171535D01*
X0229590Y0170700D01*
X0226251Y0174039D01*
X0227086Y0174874D01*
G37*
G36*
X0228478Y0176266D02*
X0231817Y0172927D01*
X0230982Y0172092D01*
X0227643Y0175431D01*
X0228478Y0176266D01*
G37*
G36*
X0229870Y0177658D02*
X0233209Y0174319D01*
X0232374Y0173484D01*
X0229035Y0176823D01*
X0229870Y0177658D01*
G37*
G36*
X0231262Y0179050D02*
X0234601Y0175711D01*
X0233766Y0174876D01*
X0230427Y0178215D01*
X0231262Y0179050D01*
G37*
G36*
X0232654Y0180442D02*
X0235993Y0177103D01*
X0235158Y0176268D01*
X0231819Y0179607D01*
X0232654Y0180442D01*
G37*
G36*
X0234046Y0181834D02*
X0237385Y0178495D01*
X0236550Y0177660D01*
X0233211Y0180999D01*
X0234046Y0181834D01*
G37*
G36*
X0235438Y0183226D02*
X0238777Y0179887D01*
X0237942Y0179052D01*
X0234603Y0182391D01*
X0235438Y0183226D01*
G37*
G36*
X0236830Y0184617D02*
X0240169Y0181278D01*
X0239334Y0180443D01*
X0235995Y0183782D01*
X0236830Y0184617D01*
G37*
G36*
X0238222Y0186009D02*
X0241561Y0182670D01*
X0240726Y0181835D01*
X0237387Y0185174D01*
X0238222Y0186009D01*
G37*
G36*
X0239614Y0187401D02*
X0242953Y0184062D01*
X0242118Y0183227D01*
X0238779Y0186566D01*
X0239614Y0187401D01*
G37*
G36*
X0241006Y0188793D02*
X0244345Y0185454D01*
X0243510Y0184619D01*
X0240171Y0187958D01*
X0241006Y0188793D01*
G37*
G36*
X0242398Y0190185D02*
X0245737Y0186846D01*
X0244902Y0186011D01*
X0241563Y0189350D01*
X0242398Y0190185D01*
G37*
G36*
X0241563Y0197982D02*
X0244902Y0201321D01*
X0245737Y0200486D01*
X0242398Y0197147D01*
X0241563Y0197982D01*
G37*
G36*
X0240171Y0199374D02*
X0243510Y0202713D01*
X0244345Y0201878D01*
X0241006Y0198539D01*
X0240171Y0199374D01*
G37*
G36*
X0238779Y0200766D02*
X0242118Y0204105D01*
X0242953Y0203270D01*
X0239614Y0199931D01*
X0238779Y0200766D01*
G37*
G36*
X0237387Y0202158D02*
X0240726Y0205497D01*
X0241561Y0204662D01*
X0238222Y0201323D01*
X0237387Y0202158D01*
G37*
G36*
X0235995Y0203550D02*
X0239334Y0206889D01*
X0240169Y0206054D01*
X0236830Y0202715D01*
X0235995Y0203550D01*
G37*
G36*
X0234603Y0204942D02*
X0237942Y0208281D01*
X0238777Y0207446D01*
X0235438Y0204107D01*
X0234603Y0204942D01*
G37*
G36*
X0233211Y0206333D02*
X0236550Y0209672D01*
X0237385Y0208837D01*
X0234046Y0205498D01*
X0233211Y0206333D01*
G37*
G36*
X0231819Y0207725D02*
X0235158Y0211064D01*
X0235993Y0210229D01*
X0232654Y0206890D01*
X0231819Y0207725D01*
G37*
G36*
X0230427Y0209117D02*
X0233766Y0212456D01*
X0234601Y0211621D01*
X0231262Y0208282D01*
X0230427Y0209117D01*
G37*
G36*
X0229035Y0210509D02*
X0232374Y0213848D01*
X0233209Y0213013D01*
X0229870Y0209674D01*
X0229035Y0210509D01*
G37*
G36*
X0227643Y0211901D02*
X0230982Y0215240D01*
X0231817Y0214405D01*
X0228478Y0211066D01*
X0227643Y0211901D01*
G37*
G36*
X0226251Y0213293D02*
X0229590Y0216632D01*
X0230425Y0215797D01*
X0227086Y0212458D01*
X0226251Y0213293D01*
G37*
G36*
X0224859Y0214685D02*
X0228198Y0218024D01*
X0229033Y0217189D01*
X0225694Y0213850D01*
X0224859Y0214685D01*
G37*
G36*
X0223467Y0216077D02*
X0226806Y0219416D01*
X0227641Y0218581D01*
X0224302Y0215242D01*
X0223467Y0216077D01*
G37*
G36*
X0222075Y0217469D02*
X0225414Y0220808D01*
X0226249Y0219973D01*
X0222910Y0216634D01*
X0222075Y0217469D01*
G37*
G36*
X0220683Y0218861D02*
X0224022Y0222200D01*
X0224857Y0221365D01*
X0221518Y0218026D01*
X0220683Y0218861D01*
G37*
G36*
X0219292Y0220253D02*
X0222631Y0223592D01*
X0223466Y0222757D01*
X0220127Y0219418D01*
X0219292Y0220253D01*
G37*
G36*
X0217900Y0221645D02*
X0221239Y0224984D01*
X0222074Y0224149D01*
X0218735Y0220810D01*
X0217900Y0221645D01*
G37*
G36*
X0216508Y0223037D02*
X0219847Y0226376D01*
X0220682Y0225541D01*
X0217343Y0222202D01*
X0216508Y0223037D01*
G37*
G36*
X0215116Y0224429D02*
X0218455Y0227768D01*
X0219290Y0226933D01*
X0215951Y0223594D01*
X0215116Y0224429D01*
G37*
G36*
X0213724Y0225821D02*
X0217063Y0229160D01*
X0217898Y0228325D01*
X0214559Y0224986D01*
X0213724Y0225821D01*
G37*
G36*
X0212332Y0227213D02*
X0215671Y0230552D01*
X0216506Y0229717D01*
X0213167Y0226378D01*
X0212332Y0227213D01*
G37*
G36*
X0210940Y0228605D02*
X0214279Y0231944D01*
X0215114Y0231109D01*
X0211775Y0227770D01*
X0210940Y0228605D01*
G37*
G36*
X0209548Y0229996D02*
X0212887Y0233335D01*
X0213722Y0232500D01*
X0210383Y0229161D01*
X0209548Y0229996D01*
G37*
G36*
X0208156Y0231388D02*
X0211495Y0234727D01*
X0212330Y0233892D01*
X0208991Y0230553D01*
X0208156Y0231388D01*
G37*
G36*
X0206764Y0232780D02*
X0210103Y0236119D01*
X0210938Y0235284D01*
X0207599Y0231945D01*
X0206764Y0232780D01*
G37*
G36*
X0205372Y0234172D02*
X0208711Y0237511D01*
X0209546Y0236676D01*
X0206207Y0233337D01*
X0205372Y0234172D01*
G37*
G36*
X0203980Y0235564D02*
X0207319Y0238903D01*
X0208154Y0238068D01*
X0204815Y0234729D01*
X0203980Y0235564D01*
G37*
G36*
X0202588Y0236956D02*
X0205927Y0240295D01*
X0206762Y0239460D01*
X0203423Y0236121D01*
X0202588Y0236956D01*
G37*
G36*
X0201196Y0238348D02*
X0204535Y0241687D01*
X0205370Y0240852D01*
X0202031Y0237513D01*
X0201196Y0238348D01*
G37*
G36*
X0199804Y0239740D02*
X0203143Y0243079D01*
X0203978Y0242244D01*
X0200639Y0238905D01*
X0199804Y0239740D01*
G37*
G36*
X0198412Y0241132D02*
X0201751Y0244471D01*
X0202586Y0243636D01*
X0199247Y0240297D01*
X0198412Y0241132D01*
G37*
G36*
X0197020Y0242524D02*
X0200359Y0245863D01*
X0201194Y0245028D01*
X0197855Y0241689D01*
X0197020Y0242524D01*
G37*
G36*
X0195629Y0243916D02*
X0198968Y0247255D01*
X0199803Y0246420D01*
X0196464Y0243081D01*
X0195629Y0243916D01*
G37*
G36*
X0194237Y0245308D02*
X0197576Y0248647D01*
X0198411Y0247812D01*
X0195072Y0244473D01*
X0194237Y0245308D01*
G37*
G36*
X0192845Y0246700D02*
X0196184Y0250039D01*
X0197019Y0249204D01*
X0193680Y0245865D01*
X0192845Y0246700D01*
G37*
G36*
X0191453Y0248092D02*
X0194792Y0251431D01*
X0195627Y0250596D01*
X0192288Y0247257D01*
X0191453Y0248092D01*
G37*
G36*
X0190061Y0249484D02*
X0193400Y0252823D01*
X0194235Y0251988D01*
X0190896Y0248649D01*
X0190061Y0249484D01*
G37*
G36*
X0188669Y0250876D02*
X0192008Y0254215D01*
X0192843Y0253380D01*
X0189504Y0250041D01*
X0188669Y0250876D01*
G37*
G36*
X0187277Y0252268D02*
X0190616Y0255607D01*
X0191451Y0254772D01*
X0188112Y0251433D01*
X0187277Y0252268D01*
G37*
G36*
X0185885Y0253659D02*
X0189224Y0256998D01*
X0190059Y0256163D01*
X0186720Y0252824D01*
X0185885Y0253659D01*
G37*
G36*
X0184493Y0255051D02*
X0187832Y0258390D01*
X0188667Y0257555D01*
X0185328Y0254216D01*
X0184493Y0255051D01*
G37*
G36*
X0183101Y0256443D02*
X0186440Y0259782D01*
X0187275Y0258947D01*
X0183936Y0255608D01*
X0183101Y0256443D01*
G37*
G36*
X0181709Y0257835D02*
X0185048Y0261174D01*
X0185883Y0260339D01*
X0182544Y0257000D01*
X0181709Y0257835D01*
G37*
D29*
X0265984Y0106264D03*
X0270984Y0106264D03*
X0275984Y0106264D03*
X0280984Y0106264D03*
X0285984Y0106264D03*
X0290984Y0106264D03*
X0295984Y0106264D03*
X0311260Y0106264D03*
X0316260Y0106264D03*
X0321260Y0106264D03*
X0326260Y0106264D03*
X0331260Y0106264D03*
X0336260Y0106264D03*
X0341260Y0106264D03*
X0341260Y0085792D03*
X0336260Y0085792D03*
X0331260Y0085792D03*
X0326260Y0085792D03*
X0321260Y0085792D03*
X0316260Y0085792D03*
X0311260Y0085792D03*
X0295984Y0085792D03*
X0290984Y0085792D03*
X0285984Y0085792D03*
X0280984Y0085792D03*
X0275984Y0085792D03*
X0270984Y0085792D03*
X0265984Y0085792D03*
D30*
X0260709Y0022209D03*
X0230787Y0022209D03*
X0200866Y0022209D03*
X0171142Y0022406D03*
X0140827Y0022209D03*
X0105787Y0022209D03*
X0369764Y0022209D03*
X0409724Y0022209D03*
X0444567Y0022209D03*
X0479606Y0022209D03*
X0514646Y0022209D03*
D31*
X0094764Y0022406D03*
X0096339Y0022406D03*
X0097913Y0022406D03*
X0099488Y0022406D03*
X0101063Y0022406D03*
X0102638Y0022406D03*
X0104213Y0022406D03*
X0129803Y0022406D03*
X0131378Y0022406D03*
X0132953Y0022406D03*
X0134528Y0022406D03*
X0136102Y0022406D03*
X0137677Y0022406D03*
X0139252Y0022406D03*
X0160118Y0022603D03*
X0161693Y0022603D03*
X0163268Y0022603D03*
X0164843Y0022603D03*
X0166417Y0022603D03*
X0167992Y0022603D03*
X0169567Y0022603D03*
X0189843Y0022406D03*
X0191417Y0022406D03*
X0192992Y0022406D03*
X0194567Y0022406D03*
X0196142Y0022406D03*
X0197717Y0022406D03*
X0199291Y0022406D03*
X0219764Y0022406D03*
X0221339Y0022406D03*
X0222913Y0022406D03*
X0224488Y0022406D03*
X0226063Y0022406D03*
X0227638Y0022406D03*
X0229213Y0022406D03*
X0249685Y0022406D03*
X0251260Y0022406D03*
X0252835Y0022406D03*
X0254409Y0022406D03*
X0255984Y0022406D03*
X0257559Y0022406D03*
X0259134Y0022406D03*
X0358740Y0022406D03*
X0360315Y0022406D03*
X0361890Y0022406D03*
X0363465Y0022406D03*
X0365039Y0022406D03*
X0366614Y0022406D03*
X0368189Y0022406D03*
X0398701Y0022406D03*
X0400276Y0022406D03*
X0401850Y0022406D03*
X0403425Y0022406D03*
X0405000Y0022406D03*
X0406575Y0022406D03*
X0408150Y0022406D03*
X0433543Y0022406D03*
X0435118Y0022406D03*
X0436693Y0022406D03*
X0438268Y0022406D03*
X0439843Y0022406D03*
X0441417Y0022406D03*
X0442992Y0022406D03*
X0468583Y0022406D03*
X0470157Y0022406D03*
X0471732Y0022406D03*
X0473307Y0022406D03*
X0474882Y0022406D03*
X0476457Y0022406D03*
X0478031Y0022406D03*
X0503622Y0022406D03*
X0505197Y0022406D03*
X0506772Y0022406D03*
X0508346Y0022406D03*
X0509921Y0022406D03*
X0511496Y0022406D03*
X0513071Y0022406D03*
D32*
X0511476Y0019749D03*
X0506791Y0019749D03*
X0476437Y0019749D03*
X0471752Y0019749D03*
X0441398Y0019749D03*
X0436713Y0019749D03*
X0406555Y0019749D03*
X0401870Y0019749D03*
X0366594Y0019749D03*
X0361909Y0019749D03*
X0257539Y0019749D03*
X0252854Y0019749D03*
X0227618Y0019749D03*
X0222933Y0019749D03*
X0197697Y0019749D03*
X0193012Y0019749D03*
X0167972Y0019946D03*
X0163287Y0019946D03*
X0137657Y0019749D03*
X0132972Y0019749D03*
X0102618Y0019749D03*
X0097933Y0019749D03*
D33*
X0260906Y0288154D03*
X0272717Y0288154D03*
D34*
X0279803Y0221225D03*
X0288465Y0221225D03*
D35*
X0294567Y0221422D03*
X0294567Y0228902D03*
X0304803Y0228902D03*
X0304803Y0225162D03*
X0304803Y0221422D03*
X0352047Y0329296D03*
X0352047Y0333036D03*
X0352047Y0336776D03*
X0362284Y0336776D03*
X0362284Y0333036D03*
X0362284Y0329296D03*
D36*
X0374685Y0120831D03*
X0376654Y0120831D03*
X0378622Y0120831D03*
X0380591Y0120831D03*
X0382559Y0120831D03*
X0382559Y0103509D03*
X0380591Y0103509D03*
X0378622Y0103509D03*
X0376654Y0103509D03*
X0374685Y0103509D03*
D37*
G36*
X0253851Y0142257D02*
X0257747Y0138361D01*
X0254407Y0135021D01*
X0250511Y0138917D01*
X0253851Y0142257D01*
G37*
G36*
X0248283Y0141146D02*
X0244387Y0145042D01*
X0247727Y0148382D01*
X0251623Y0144486D01*
X0248283Y0141146D01*
G37*
G36*
X0243550Y0136413D02*
X0239654Y0140309D01*
X0242994Y0143649D01*
X0246890Y0139753D01*
X0243550Y0136413D01*
G37*
G36*
X0249119Y0137525D02*
X0253015Y0133629D01*
X0249675Y0130289D01*
X0245779Y0134185D01*
X0249119Y0137525D01*
G37*
G36*
X0235733Y0150911D02*
X0239629Y0147015D01*
X0236289Y0143675D01*
X0232393Y0147571D01*
X0235733Y0150911D01*
G37*
G36*
X0240466Y0155643D02*
X0244362Y0151747D01*
X0241022Y0148407D01*
X0237126Y0152303D01*
X0240466Y0155643D01*
G37*
G36*
X0234897Y0154532D02*
X0231001Y0158428D01*
X0234341Y0161768D01*
X0238237Y0157872D01*
X0234897Y0154532D01*
G37*
G36*
X0230164Y0149799D02*
X0226268Y0153695D01*
X0229608Y0157035D01*
X0233504Y0153139D01*
X0230164Y0149799D01*
G37*
D38*
X0300669Y0194257D03*
X0300669Y0201737D03*
X0310906Y0201737D03*
X0310906Y0197997D03*
X0310906Y0194257D03*
X0128622Y0328115D03*
X0118386Y0328115D03*
X0118386Y0331855D03*
X0118386Y0335595D03*
X0128622Y0335595D03*
D39*
X0355984Y0144453D03*
X0359724Y0144453D03*
X0363465Y0144453D03*
X0363465Y0134217D03*
X0355984Y0134217D03*
D40*
X0010709Y0125359D03*
X0010709Y0155280D03*
X0010709Y0185398D03*
X0010709Y0215320D03*
X0010709Y0249965D03*
X0010709Y0095241D03*
D41*
X0010906Y0096816D03*
X0010906Y0098390D03*
X0010906Y0099965D03*
X0010906Y0101540D03*
X0010906Y0103115D03*
X0010906Y0104690D03*
X0010906Y0106264D03*
X0010906Y0126934D03*
X0010906Y0128509D03*
X0010906Y0130083D03*
X0010906Y0131658D03*
X0010906Y0133233D03*
X0010906Y0134808D03*
X0010906Y0136383D03*
X0010906Y0156855D03*
X0010906Y0158430D03*
X0010906Y0160005D03*
X0010906Y0161579D03*
X0010906Y0163154D03*
X0010906Y0164729D03*
X0010906Y0166304D03*
X0010906Y0186973D03*
X0010906Y0188548D03*
X0010906Y0190123D03*
X0010906Y0191698D03*
X0010906Y0193272D03*
X0010906Y0194847D03*
X0010906Y0196422D03*
X0010906Y0216894D03*
X0010906Y0218469D03*
X0010906Y0220044D03*
X0010906Y0221619D03*
X0010906Y0223194D03*
X0010906Y0224768D03*
X0010906Y0226343D03*
X0010906Y0251540D03*
X0010906Y0253115D03*
X0010906Y0254690D03*
X0010906Y0256264D03*
X0010906Y0257839D03*
X0010906Y0259414D03*
X0010906Y0260989D03*
D42*
X0008248Y0257820D03*
X0008248Y0253135D03*
X0008248Y0223174D03*
X0008248Y0218489D03*
X0008248Y0193253D03*
X0008248Y0188568D03*
X0008248Y0163135D03*
X0008248Y0158449D03*
X0008248Y0133213D03*
X0008248Y0128528D03*
X0008248Y0103095D03*
X0008248Y0098410D03*
D43*
X0171935Y0358182D02*
X0170821Y0359296D01*
X0171935Y0358182D02*
X0170405Y0356652D01*
X0169291Y0357766D01*
X0170821Y0359296D01*
X0171891Y0358226D02*
X0169751Y0358226D01*
X0167481Y0362637D02*
X0166367Y0363751D01*
X0167481Y0362637D02*
X0165951Y0361107D01*
X0164837Y0362221D01*
X0166367Y0363751D01*
X0167437Y0362681D02*
X0165297Y0362681D01*
D44*
X0552441Y0257997D03*
X0552441Y0252997D03*
X0552441Y0247997D03*
X0552441Y0242997D03*
X0552441Y0237997D03*
X0567795Y0237997D03*
X0567795Y0242997D03*
X0567795Y0247997D03*
X0567795Y0252997D03*
X0567795Y0257997D03*
D45*
X0118976Y0378705D03*
X0111496Y0378705D03*
X0115236Y0370831D03*
D46*
X0367795Y0304296D03*
X0367795Y0292485D03*
D47*
X0445945Y0324572D03*
X0445945Y0330477D03*
X0461693Y0330477D03*
X0461693Y0324572D03*
X0477441Y0324572D03*
X0477441Y0330477D03*
X0493189Y0330477D03*
X0493189Y0324572D03*
X0508937Y0324572D03*
X0508937Y0330477D03*
X0524685Y0330477D03*
X0524685Y0324572D03*
D48*
X0430394Y0337268D03*
X0422126Y0337268D03*
X0422126Y0349276D03*
X0430394Y0349276D03*
D49*
X0426260Y0349276D03*
X0426260Y0337268D03*
D50*
X0406575Y0350981D03*
X0406575Y0367060D03*
X0258937Y0319816D03*
X0243189Y0319816D03*
X0223504Y0319816D03*
X0223504Y0303737D03*
X0243189Y0303737D03*
X0258937Y0303737D03*
D51*
X0374882Y0325162D03*
X0376850Y0325162D03*
X0378819Y0325162D03*
X0380787Y0325162D03*
X0382756Y0325162D03*
X0382756Y0337367D03*
X0380787Y0337367D03*
X0378819Y0337367D03*
X0376850Y0337367D03*
X0374882Y0337367D03*
D52*
X0376260Y0331264D03*
X0381378Y0331264D03*
D53*
X0337087Y0272406D03*
X0318583Y0272406D03*
D54*
X0315039Y0246816D03*
X0331969Y0246816D03*
D55*
X0338760Y0294946D03*
X0338760Y0297505D03*
X0338760Y0300064D03*
X0338760Y0302623D03*
X0338760Y0305182D03*
X0338760Y0307741D03*
X0338760Y0310300D03*
X0338760Y0312859D03*
X0316909Y0312859D03*
X0316909Y0310300D03*
X0316909Y0307741D03*
X0316909Y0305182D03*
X0316909Y0302623D03*
X0316909Y0300064D03*
X0316909Y0297505D03*
X0316909Y0294946D03*
D56*
X0324882Y0297997D03*
X0324882Y0301934D03*
X0324882Y0305871D03*
X0324882Y0309808D03*
X0330787Y0309808D03*
X0330787Y0305871D03*
X0330787Y0301934D03*
X0330787Y0297997D03*
D57*
X0430965Y0292131D03*
X0435965Y0292131D03*
X0440965Y0292131D03*
X0445965Y0292131D03*
X0445965Y0312131D03*
X0440965Y0312131D03*
X0435965Y0312131D03*
X0430965Y0312131D03*
D58*
X0544469Y0304887D03*
X0544469Y0296028D03*
X0544469Y0287170D03*
X0575768Y0287170D03*
X0575768Y0304887D03*
X0575768Y0322603D03*
X0575768Y0331461D03*
X0575768Y0340320D03*
X0544469Y0340320D03*
X0544469Y0322603D03*
M02*
