G75*
%MOIN*%
%OFA0B0*%
%FSLAX25Y25*%
%IPPOS*%
%LPD*%
%AMOC8*
5,1,8,0,0,1.08239X$1,22.5*
%
%ADD10C,0.00000*%
D10*
X0002491Y0016501D02*
X0593042Y0016501D01*
X0593042Y0390516D01*
X0002491Y0390556D01*
X0002491Y0016501D01*
X0019863Y0040123D02*
X0019865Y0040281D01*
X0019871Y0040438D01*
X0019881Y0040596D01*
X0019895Y0040753D01*
X0019913Y0040909D01*
X0019934Y0041066D01*
X0019960Y0041221D01*
X0019990Y0041376D01*
X0020023Y0041530D01*
X0020061Y0041683D01*
X0020102Y0041836D01*
X0020147Y0041987D01*
X0020196Y0042137D01*
X0020249Y0042285D01*
X0020305Y0042433D01*
X0020366Y0042578D01*
X0020429Y0042723D01*
X0020497Y0042865D01*
X0020568Y0043006D01*
X0020642Y0043145D01*
X0020720Y0043282D01*
X0020802Y0043417D01*
X0020886Y0043550D01*
X0020975Y0043681D01*
X0021066Y0043809D01*
X0021161Y0043936D01*
X0021258Y0044059D01*
X0021359Y0044181D01*
X0021463Y0044299D01*
X0021570Y0044415D01*
X0021680Y0044528D01*
X0021792Y0044639D01*
X0021908Y0044746D01*
X0022026Y0044851D01*
X0022146Y0044953D01*
X0022269Y0045051D01*
X0022395Y0045147D01*
X0022523Y0045239D01*
X0022653Y0045328D01*
X0022785Y0045414D01*
X0022920Y0045496D01*
X0023057Y0045575D01*
X0023195Y0045650D01*
X0023335Y0045722D01*
X0023478Y0045790D01*
X0023621Y0045855D01*
X0023767Y0045916D01*
X0023914Y0045973D01*
X0024062Y0046027D01*
X0024212Y0046077D01*
X0024362Y0046123D01*
X0024514Y0046165D01*
X0024667Y0046204D01*
X0024821Y0046238D01*
X0024976Y0046269D01*
X0025131Y0046295D01*
X0025287Y0046318D01*
X0025444Y0046337D01*
X0025601Y0046352D01*
X0025758Y0046363D01*
X0025916Y0046370D01*
X0026074Y0046373D01*
X0026231Y0046372D01*
X0026389Y0046367D01*
X0026546Y0046358D01*
X0026704Y0046345D01*
X0026860Y0046328D01*
X0027017Y0046307D01*
X0027172Y0046283D01*
X0027327Y0046254D01*
X0027482Y0046221D01*
X0027635Y0046185D01*
X0027788Y0046144D01*
X0027939Y0046100D01*
X0028089Y0046052D01*
X0028238Y0046001D01*
X0028386Y0045945D01*
X0028532Y0045886D01*
X0028677Y0045823D01*
X0028820Y0045756D01*
X0028961Y0045686D01*
X0029100Y0045613D01*
X0029238Y0045536D01*
X0029374Y0045455D01*
X0029507Y0045371D01*
X0029638Y0045284D01*
X0029767Y0045193D01*
X0029894Y0045099D01*
X0030019Y0045002D01*
X0030140Y0044902D01*
X0030260Y0044799D01*
X0030376Y0044693D01*
X0030490Y0044584D01*
X0030602Y0044472D01*
X0030710Y0044358D01*
X0030815Y0044240D01*
X0030918Y0044120D01*
X0031017Y0043998D01*
X0031113Y0043873D01*
X0031206Y0043745D01*
X0031296Y0043616D01*
X0031382Y0043484D01*
X0031466Y0043350D01*
X0031545Y0043214D01*
X0031622Y0043076D01*
X0031694Y0042936D01*
X0031763Y0042794D01*
X0031829Y0042651D01*
X0031891Y0042506D01*
X0031949Y0042359D01*
X0032004Y0042211D01*
X0032055Y0042062D01*
X0032102Y0041911D01*
X0032145Y0041760D01*
X0032184Y0041607D01*
X0032220Y0041453D01*
X0032251Y0041299D01*
X0032279Y0041144D01*
X0032303Y0040988D01*
X0032323Y0040831D01*
X0032339Y0040674D01*
X0032351Y0040517D01*
X0032359Y0040360D01*
X0032363Y0040202D01*
X0032363Y0040044D01*
X0032359Y0039886D01*
X0032351Y0039729D01*
X0032339Y0039572D01*
X0032323Y0039415D01*
X0032303Y0039258D01*
X0032279Y0039102D01*
X0032251Y0038947D01*
X0032220Y0038793D01*
X0032184Y0038639D01*
X0032145Y0038486D01*
X0032102Y0038335D01*
X0032055Y0038184D01*
X0032004Y0038035D01*
X0031949Y0037887D01*
X0031891Y0037740D01*
X0031829Y0037595D01*
X0031763Y0037452D01*
X0031694Y0037310D01*
X0031622Y0037170D01*
X0031545Y0037032D01*
X0031466Y0036896D01*
X0031382Y0036762D01*
X0031296Y0036630D01*
X0031206Y0036501D01*
X0031113Y0036373D01*
X0031017Y0036248D01*
X0030918Y0036126D01*
X0030815Y0036006D01*
X0030710Y0035888D01*
X0030602Y0035774D01*
X0030490Y0035662D01*
X0030376Y0035553D01*
X0030260Y0035447D01*
X0030140Y0035344D01*
X0030019Y0035244D01*
X0029894Y0035147D01*
X0029767Y0035053D01*
X0029638Y0034962D01*
X0029507Y0034875D01*
X0029374Y0034791D01*
X0029238Y0034710D01*
X0029100Y0034633D01*
X0028961Y0034560D01*
X0028820Y0034490D01*
X0028677Y0034423D01*
X0028532Y0034360D01*
X0028386Y0034301D01*
X0028238Y0034245D01*
X0028089Y0034194D01*
X0027939Y0034146D01*
X0027788Y0034102D01*
X0027635Y0034061D01*
X0027482Y0034025D01*
X0027327Y0033992D01*
X0027172Y0033963D01*
X0027017Y0033939D01*
X0026860Y0033918D01*
X0026704Y0033901D01*
X0026546Y0033888D01*
X0026389Y0033879D01*
X0026231Y0033874D01*
X0026074Y0033873D01*
X0025916Y0033876D01*
X0025758Y0033883D01*
X0025601Y0033894D01*
X0025444Y0033909D01*
X0025287Y0033928D01*
X0025131Y0033951D01*
X0024976Y0033977D01*
X0024821Y0034008D01*
X0024667Y0034042D01*
X0024514Y0034081D01*
X0024362Y0034123D01*
X0024212Y0034169D01*
X0024062Y0034219D01*
X0023914Y0034273D01*
X0023767Y0034330D01*
X0023621Y0034391D01*
X0023478Y0034456D01*
X0023335Y0034524D01*
X0023195Y0034596D01*
X0023057Y0034671D01*
X0022920Y0034750D01*
X0022785Y0034832D01*
X0022653Y0034918D01*
X0022523Y0035007D01*
X0022395Y0035099D01*
X0022269Y0035195D01*
X0022146Y0035293D01*
X0022026Y0035395D01*
X0021908Y0035500D01*
X0021792Y0035607D01*
X0021680Y0035718D01*
X0021570Y0035831D01*
X0021463Y0035947D01*
X0021359Y0036065D01*
X0021258Y0036187D01*
X0021161Y0036310D01*
X0021066Y0036437D01*
X0020975Y0036565D01*
X0020886Y0036696D01*
X0020802Y0036829D01*
X0020720Y0036964D01*
X0020642Y0037101D01*
X0020568Y0037240D01*
X0020497Y0037381D01*
X0020429Y0037523D01*
X0020366Y0037668D01*
X0020305Y0037813D01*
X0020249Y0037961D01*
X0020196Y0038109D01*
X0020147Y0038259D01*
X0020102Y0038410D01*
X0020061Y0038563D01*
X0020023Y0038716D01*
X0019990Y0038870D01*
X0019960Y0039025D01*
X0019934Y0039180D01*
X0019913Y0039337D01*
X0019895Y0039493D01*
X0019881Y0039650D01*
X0019871Y0039808D01*
X0019865Y0039965D01*
X0019863Y0040123D01*
X0019863Y0366894D02*
X0019865Y0367052D01*
X0019871Y0367209D01*
X0019881Y0367367D01*
X0019895Y0367524D01*
X0019913Y0367680D01*
X0019934Y0367837D01*
X0019960Y0367992D01*
X0019990Y0368147D01*
X0020023Y0368301D01*
X0020061Y0368454D01*
X0020102Y0368607D01*
X0020147Y0368758D01*
X0020196Y0368908D01*
X0020249Y0369056D01*
X0020305Y0369204D01*
X0020366Y0369349D01*
X0020429Y0369494D01*
X0020497Y0369636D01*
X0020568Y0369777D01*
X0020642Y0369916D01*
X0020720Y0370053D01*
X0020802Y0370188D01*
X0020886Y0370321D01*
X0020975Y0370452D01*
X0021066Y0370580D01*
X0021161Y0370707D01*
X0021258Y0370830D01*
X0021359Y0370952D01*
X0021463Y0371070D01*
X0021570Y0371186D01*
X0021680Y0371299D01*
X0021792Y0371410D01*
X0021908Y0371517D01*
X0022026Y0371622D01*
X0022146Y0371724D01*
X0022269Y0371822D01*
X0022395Y0371918D01*
X0022523Y0372010D01*
X0022653Y0372099D01*
X0022785Y0372185D01*
X0022920Y0372267D01*
X0023057Y0372346D01*
X0023195Y0372421D01*
X0023335Y0372493D01*
X0023478Y0372561D01*
X0023621Y0372626D01*
X0023767Y0372687D01*
X0023914Y0372744D01*
X0024062Y0372798D01*
X0024212Y0372848D01*
X0024362Y0372894D01*
X0024514Y0372936D01*
X0024667Y0372975D01*
X0024821Y0373009D01*
X0024976Y0373040D01*
X0025131Y0373066D01*
X0025287Y0373089D01*
X0025444Y0373108D01*
X0025601Y0373123D01*
X0025758Y0373134D01*
X0025916Y0373141D01*
X0026074Y0373144D01*
X0026231Y0373143D01*
X0026389Y0373138D01*
X0026546Y0373129D01*
X0026704Y0373116D01*
X0026860Y0373099D01*
X0027017Y0373078D01*
X0027172Y0373054D01*
X0027327Y0373025D01*
X0027482Y0372992D01*
X0027635Y0372956D01*
X0027788Y0372915D01*
X0027939Y0372871D01*
X0028089Y0372823D01*
X0028238Y0372772D01*
X0028386Y0372716D01*
X0028532Y0372657D01*
X0028677Y0372594D01*
X0028820Y0372527D01*
X0028961Y0372457D01*
X0029100Y0372384D01*
X0029238Y0372307D01*
X0029374Y0372226D01*
X0029507Y0372142D01*
X0029638Y0372055D01*
X0029767Y0371964D01*
X0029894Y0371870D01*
X0030019Y0371773D01*
X0030140Y0371673D01*
X0030260Y0371570D01*
X0030376Y0371464D01*
X0030490Y0371355D01*
X0030602Y0371243D01*
X0030710Y0371129D01*
X0030815Y0371011D01*
X0030918Y0370891D01*
X0031017Y0370769D01*
X0031113Y0370644D01*
X0031206Y0370516D01*
X0031296Y0370387D01*
X0031382Y0370255D01*
X0031466Y0370121D01*
X0031545Y0369985D01*
X0031622Y0369847D01*
X0031694Y0369707D01*
X0031763Y0369565D01*
X0031829Y0369422D01*
X0031891Y0369277D01*
X0031949Y0369130D01*
X0032004Y0368982D01*
X0032055Y0368833D01*
X0032102Y0368682D01*
X0032145Y0368531D01*
X0032184Y0368378D01*
X0032220Y0368224D01*
X0032251Y0368070D01*
X0032279Y0367915D01*
X0032303Y0367759D01*
X0032323Y0367602D01*
X0032339Y0367445D01*
X0032351Y0367288D01*
X0032359Y0367131D01*
X0032363Y0366973D01*
X0032363Y0366815D01*
X0032359Y0366657D01*
X0032351Y0366500D01*
X0032339Y0366343D01*
X0032323Y0366186D01*
X0032303Y0366029D01*
X0032279Y0365873D01*
X0032251Y0365718D01*
X0032220Y0365564D01*
X0032184Y0365410D01*
X0032145Y0365257D01*
X0032102Y0365106D01*
X0032055Y0364955D01*
X0032004Y0364806D01*
X0031949Y0364658D01*
X0031891Y0364511D01*
X0031829Y0364366D01*
X0031763Y0364223D01*
X0031694Y0364081D01*
X0031622Y0363941D01*
X0031545Y0363803D01*
X0031466Y0363667D01*
X0031382Y0363533D01*
X0031296Y0363401D01*
X0031206Y0363272D01*
X0031113Y0363144D01*
X0031017Y0363019D01*
X0030918Y0362897D01*
X0030815Y0362777D01*
X0030710Y0362659D01*
X0030602Y0362545D01*
X0030490Y0362433D01*
X0030376Y0362324D01*
X0030260Y0362218D01*
X0030140Y0362115D01*
X0030019Y0362015D01*
X0029894Y0361918D01*
X0029767Y0361824D01*
X0029638Y0361733D01*
X0029507Y0361646D01*
X0029374Y0361562D01*
X0029238Y0361481D01*
X0029100Y0361404D01*
X0028961Y0361331D01*
X0028820Y0361261D01*
X0028677Y0361194D01*
X0028532Y0361131D01*
X0028386Y0361072D01*
X0028238Y0361016D01*
X0028089Y0360965D01*
X0027939Y0360917D01*
X0027788Y0360873D01*
X0027635Y0360832D01*
X0027482Y0360796D01*
X0027327Y0360763D01*
X0027172Y0360734D01*
X0027017Y0360710D01*
X0026860Y0360689D01*
X0026704Y0360672D01*
X0026546Y0360659D01*
X0026389Y0360650D01*
X0026231Y0360645D01*
X0026074Y0360644D01*
X0025916Y0360647D01*
X0025758Y0360654D01*
X0025601Y0360665D01*
X0025444Y0360680D01*
X0025287Y0360699D01*
X0025131Y0360722D01*
X0024976Y0360748D01*
X0024821Y0360779D01*
X0024667Y0360813D01*
X0024514Y0360852D01*
X0024362Y0360894D01*
X0024212Y0360940D01*
X0024062Y0360990D01*
X0023914Y0361044D01*
X0023767Y0361101D01*
X0023621Y0361162D01*
X0023478Y0361227D01*
X0023335Y0361295D01*
X0023195Y0361367D01*
X0023057Y0361442D01*
X0022920Y0361521D01*
X0022785Y0361603D01*
X0022653Y0361689D01*
X0022523Y0361778D01*
X0022395Y0361870D01*
X0022269Y0361966D01*
X0022146Y0362064D01*
X0022026Y0362166D01*
X0021908Y0362271D01*
X0021792Y0362378D01*
X0021680Y0362489D01*
X0021570Y0362602D01*
X0021463Y0362718D01*
X0021359Y0362836D01*
X0021258Y0362958D01*
X0021161Y0363081D01*
X0021066Y0363208D01*
X0020975Y0363336D01*
X0020886Y0363467D01*
X0020802Y0363600D01*
X0020720Y0363735D01*
X0020642Y0363872D01*
X0020568Y0364011D01*
X0020497Y0364152D01*
X0020429Y0364294D01*
X0020366Y0364439D01*
X0020305Y0364584D01*
X0020249Y0364732D01*
X0020196Y0364880D01*
X0020147Y0365030D01*
X0020102Y0365181D01*
X0020061Y0365334D01*
X0020023Y0365487D01*
X0019990Y0365641D01*
X0019960Y0365796D01*
X0019934Y0365951D01*
X0019913Y0366108D01*
X0019895Y0366264D01*
X0019881Y0366421D01*
X0019871Y0366579D01*
X0019865Y0366736D01*
X0019863Y0366894D01*
X0298948Y0375556D02*
X0298950Y0375693D01*
X0298956Y0375831D01*
X0298966Y0375968D01*
X0298980Y0376104D01*
X0298998Y0376241D01*
X0299020Y0376376D01*
X0299046Y0376511D01*
X0299075Y0376645D01*
X0299109Y0376779D01*
X0299146Y0376911D01*
X0299188Y0377042D01*
X0299233Y0377172D01*
X0299282Y0377300D01*
X0299334Y0377427D01*
X0299391Y0377552D01*
X0299450Y0377676D01*
X0299514Y0377798D01*
X0299581Y0377918D01*
X0299651Y0378036D01*
X0299725Y0378152D01*
X0299802Y0378266D01*
X0299883Y0378377D01*
X0299966Y0378486D01*
X0300053Y0378593D01*
X0300143Y0378696D01*
X0300236Y0378798D01*
X0300332Y0378896D01*
X0300430Y0378992D01*
X0300532Y0379085D01*
X0300635Y0379175D01*
X0300742Y0379262D01*
X0300851Y0379345D01*
X0300962Y0379426D01*
X0301076Y0379503D01*
X0301192Y0379577D01*
X0301310Y0379647D01*
X0301430Y0379714D01*
X0301552Y0379778D01*
X0301676Y0379837D01*
X0301801Y0379894D01*
X0301928Y0379946D01*
X0302056Y0379995D01*
X0302186Y0380040D01*
X0302317Y0380082D01*
X0302449Y0380119D01*
X0302583Y0380153D01*
X0302717Y0380182D01*
X0302852Y0380208D01*
X0302987Y0380230D01*
X0303124Y0380248D01*
X0303260Y0380262D01*
X0303397Y0380272D01*
X0303535Y0380278D01*
X0303672Y0380280D01*
X0303809Y0380278D01*
X0303947Y0380272D01*
X0304084Y0380262D01*
X0304220Y0380248D01*
X0304357Y0380230D01*
X0304492Y0380208D01*
X0304627Y0380182D01*
X0304761Y0380153D01*
X0304895Y0380119D01*
X0305027Y0380082D01*
X0305158Y0380040D01*
X0305288Y0379995D01*
X0305416Y0379946D01*
X0305543Y0379894D01*
X0305668Y0379837D01*
X0305792Y0379778D01*
X0305914Y0379714D01*
X0306034Y0379647D01*
X0306152Y0379577D01*
X0306268Y0379503D01*
X0306382Y0379426D01*
X0306493Y0379345D01*
X0306602Y0379262D01*
X0306709Y0379175D01*
X0306812Y0379085D01*
X0306914Y0378992D01*
X0307012Y0378896D01*
X0307108Y0378798D01*
X0307201Y0378696D01*
X0307291Y0378593D01*
X0307378Y0378486D01*
X0307461Y0378377D01*
X0307542Y0378266D01*
X0307619Y0378152D01*
X0307693Y0378036D01*
X0307763Y0377918D01*
X0307830Y0377798D01*
X0307894Y0377676D01*
X0307953Y0377552D01*
X0308010Y0377427D01*
X0308062Y0377300D01*
X0308111Y0377172D01*
X0308156Y0377042D01*
X0308198Y0376911D01*
X0308235Y0376779D01*
X0308269Y0376645D01*
X0308298Y0376511D01*
X0308324Y0376376D01*
X0308346Y0376241D01*
X0308364Y0376104D01*
X0308378Y0375968D01*
X0308388Y0375831D01*
X0308394Y0375693D01*
X0308396Y0375556D01*
X0308394Y0375419D01*
X0308388Y0375281D01*
X0308378Y0375144D01*
X0308364Y0375008D01*
X0308346Y0374871D01*
X0308324Y0374736D01*
X0308298Y0374601D01*
X0308269Y0374467D01*
X0308235Y0374333D01*
X0308198Y0374201D01*
X0308156Y0374070D01*
X0308111Y0373940D01*
X0308062Y0373812D01*
X0308010Y0373685D01*
X0307953Y0373560D01*
X0307894Y0373436D01*
X0307830Y0373314D01*
X0307763Y0373194D01*
X0307693Y0373076D01*
X0307619Y0372960D01*
X0307542Y0372846D01*
X0307461Y0372735D01*
X0307378Y0372626D01*
X0307291Y0372519D01*
X0307201Y0372416D01*
X0307108Y0372314D01*
X0307012Y0372216D01*
X0306914Y0372120D01*
X0306812Y0372027D01*
X0306709Y0371937D01*
X0306602Y0371850D01*
X0306493Y0371767D01*
X0306382Y0371686D01*
X0306268Y0371609D01*
X0306152Y0371535D01*
X0306034Y0371465D01*
X0305914Y0371398D01*
X0305792Y0371334D01*
X0305668Y0371275D01*
X0305543Y0371218D01*
X0305416Y0371166D01*
X0305288Y0371117D01*
X0305158Y0371072D01*
X0305027Y0371030D01*
X0304895Y0370993D01*
X0304761Y0370959D01*
X0304627Y0370930D01*
X0304492Y0370904D01*
X0304357Y0370882D01*
X0304220Y0370864D01*
X0304084Y0370850D01*
X0303947Y0370840D01*
X0303809Y0370834D01*
X0303672Y0370832D01*
X0303535Y0370834D01*
X0303397Y0370840D01*
X0303260Y0370850D01*
X0303124Y0370864D01*
X0302987Y0370882D01*
X0302852Y0370904D01*
X0302717Y0370930D01*
X0302583Y0370959D01*
X0302449Y0370993D01*
X0302317Y0371030D01*
X0302186Y0371072D01*
X0302056Y0371117D01*
X0301928Y0371166D01*
X0301801Y0371218D01*
X0301676Y0371275D01*
X0301552Y0371334D01*
X0301430Y0371398D01*
X0301310Y0371465D01*
X0301192Y0371535D01*
X0301076Y0371609D01*
X0300962Y0371686D01*
X0300851Y0371767D01*
X0300742Y0371850D01*
X0300635Y0371937D01*
X0300532Y0372027D01*
X0300430Y0372120D01*
X0300332Y0372216D01*
X0300236Y0372314D01*
X0300143Y0372416D01*
X0300053Y0372519D01*
X0299966Y0372626D01*
X0299883Y0372735D01*
X0299802Y0372846D01*
X0299725Y0372960D01*
X0299651Y0373076D01*
X0299581Y0373194D01*
X0299514Y0373314D01*
X0299450Y0373436D01*
X0299391Y0373560D01*
X0299334Y0373685D01*
X0299282Y0373812D01*
X0299233Y0373940D01*
X0299188Y0374070D01*
X0299146Y0374201D01*
X0299109Y0374333D01*
X0299075Y0374467D01*
X0299046Y0374601D01*
X0299020Y0374736D01*
X0298998Y0374871D01*
X0298980Y0375008D01*
X0298966Y0375144D01*
X0298956Y0375281D01*
X0298950Y0375419D01*
X0298948Y0375556D01*
X0563170Y0366894D02*
X0563172Y0367052D01*
X0563178Y0367209D01*
X0563188Y0367367D01*
X0563202Y0367524D01*
X0563220Y0367680D01*
X0563241Y0367837D01*
X0563267Y0367992D01*
X0563297Y0368147D01*
X0563330Y0368301D01*
X0563368Y0368454D01*
X0563409Y0368607D01*
X0563454Y0368758D01*
X0563503Y0368908D01*
X0563556Y0369056D01*
X0563612Y0369204D01*
X0563673Y0369349D01*
X0563736Y0369494D01*
X0563804Y0369636D01*
X0563875Y0369777D01*
X0563949Y0369916D01*
X0564027Y0370053D01*
X0564109Y0370188D01*
X0564193Y0370321D01*
X0564282Y0370452D01*
X0564373Y0370580D01*
X0564468Y0370707D01*
X0564565Y0370830D01*
X0564666Y0370952D01*
X0564770Y0371070D01*
X0564877Y0371186D01*
X0564987Y0371299D01*
X0565099Y0371410D01*
X0565215Y0371517D01*
X0565333Y0371622D01*
X0565453Y0371724D01*
X0565576Y0371822D01*
X0565702Y0371918D01*
X0565830Y0372010D01*
X0565960Y0372099D01*
X0566092Y0372185D01*
X0566227Y0372267D01*
X0566364Y0372346D01*
X0566502Y0372421D01*
X0566642Y0372493D01*
X0566785Y0372561D01*
X0566928Y0372626D01*
X0567074Y0372687D01*
X0567221Y0372744D01*
X0567369Y0372798D01*
X0567519Y0372848D01*
X0567669Y0372894D01*
X0567821Y0372936D01*
X0567974Y0372975D01*
X0568128Y0373009D01*
X0568283Y0373040D01*
X0568438Y0373066D01*
X0568594Y0373089D01*
X0568751Y0373108D01*
X0568908Y0373123D01*
X0569065Y0373134D01*
X0569223Y0373141D01*
X0569381Y0373144D01*
X0569538Y0373143D01*
X0569696Y0373138D01*
X0569853Y0373129D01*
X0570011Y0373116D01*
X0570167Y0373099D01*
X0570324Y0373078D01*
X0570479Y0373054D01*
X0570634Y0373025D01*
X0570789Y0372992D01*
X0570942Y0372956D01*
X0571095Y0372915D01*
X0571246Y0372871D01*
X0571396Y0372823D01*
X0571545Y0372772D01*
X0571693Y0372716D01*
X0571839Y0372657D01*
X0571984Y0372594D01*
X0572127Y0372527D01*
X0572268Y0372457D01*
X0572407Y0372384D01*
X0572545Y0372307D01*
X0572681Y0372226D01*
X0572814Y0372142D01*
X0572945Y0372055D01*
X0573074Y0371964D01*
X0573201Y0371870D01*
X0573326Y0371773D01*
X0573447Y0371673D01*
X0573567Y0371570D01*
X0573683Y0371464D01*
X0573797Y0371355D01*
X0573909Y0371243D01*
X0574017Y0371129D01*
X0574122Y0371011D01*
X0574225Y0370891D01*
X0574324Y0370769D01*
X0574420Y0370644D01*
X0574513Y0370516D01*
X0574603Y0370387D01*
X0574689Y0370255D01*
X0574773Y0370121D01*
X0574852Y0369985D01*
X0574929Y0369847D01*
X0575001Y0369707D01*
X0575070Y0369565D01*
X0575136Y0369422D01*
X0575198Y0369277D01*
X0575256Y0369130D01*
X0575311Y0368982D01*
X0575362Y0368833D01*
X0575409Y0368682D01*
X0575452Y0368531D01*
X0575491Y0368378D01*
X0575527Y0368224D01*
X0575558Y0368070D01*
X0575586Y0367915D01*
X0575610Y0367759D01*
X0575630Y0367602D01*
X0575646Y0367445D01*
X0575658Y0367288D01*
X0575666Y0367131D01*
X0575670Y0366973D01*
X0575670Y0366815D01*
X0575666Y0366657D01*
X0575658Y0366500D01*
X0575646Y0366343D01*
X0575630Y0366186D01*
X0575610Y0366029D01*
X0575586Y0365873D01*
X0575558Y0365718D01*
X0575527Y0365564D01*
X0575491Y0365410D01*
X0575452Y0365257D01*
X0575409Y0365106D01*
X0575362Y0364955D01*
X0575311Y0364806D01*
X0575256Y0364658D01*
X0575198Y0364511D01*
X0575136Y0364366D01*
X0575070Y0364223D01*
X0575001Y0364081D01*
X0574929Y0363941D01*
X0574852Y0363803D01*
X0574773Y0363667D01*
X0574689Y0363533D01*
X0574603Y0363401D01*
X0574513Y0363272D01*
X0574420Y0363144D01*
X0574324Y0363019D01*
X0574225Y0362897D01*
X0574122Y0362777D01*
X0574017Y0362659D01*
X0573909Y0362545D01*
X0573797Y0362433D01*
X0573683Y0362324D01*
X0573567Y0362218D01*
X0573447Y0362115D01*
X0573326Y0362015D01*
X0573201Y0361918D01*
X0573074Y0361824D01*
X0572945Y0361733D01*
X0572814Y0361646D01*
X0572681Y0361562D01*
X0572545Y0361481D01*
X0572407Y0361404D01*
X0572268Y0361331D01*
X0572127Y0361261D01*
X0571984Y0361194D01*
X0571839Y0361131D01*
X0571693Y0361072D01*
X0571545Y0361016D01*
X0571396Y0360965D01*
X0571246Y0360917D01*
X0571095Y0360873D01*
X0570942Y0360832D01*
X0570789Y0360796D01*
X0570634Y0360763D01*
X0570479Y0360734D01*
X0570324Y0360710D01*
X0570167Y0360689D01*
X0570011Y0360672D01*
X0569853Y0360659D01*
X0569696Y0360650D01*
X0569538Y0360645D01*
X0569381Y0360644D01*
X0569223Y0360647D01*
X0569065Y0360654D01*
X0568908Y0360665D01*
X0568751Y0360680D01*
X0568594Y0360699D01*
X0568438Y0360722D01*
X0568283Y0360748D01*
X0568128Y0360779D01*
X0567974Y0360813D01*
X0567821Y0360852D01*
X0567669Y0360894D01*
X0567519Y0360940D01*
X0567369Y0360990D01*
X0567221Y0361044D01*
X0567074Y0361101D01*
X0566928Y0361162D01*
X0566785Y0361227D01*
X0566642Y0361295D01*
X0566502Y0361367D01*
X0566364Y0361442D01*
X0566227Y0361521D01*
X0566092Y0361603D01*
X0565960Y0361689D01*
X0565830Y0361778D01*
X0565702Y0361870D01*
X0565576Y0361966D01*
X0565453Y0362064D01*
X0565333Y0362166D01*
X0565215Y0362271D01*
X0565099Y0362378D01*
X0564987Y0362489D01*
X0564877Y0362602D01*
X0564770Y0362718D01*
X0564666Y0362836D01*
X0564565Y0362958D01*
X0564468Y0363081D01*
X0564373Y0363208D01*
X0564282Y0363336D01*
X0564193Y0363467D01*
X0564109Y0363600D01*
X0564027Y0363735D01*
X0563949Y0363872D01*
X0563875Y0364011D01*
X0563804Y0364152D01*
X0563736Y0364294D01*
X0563673Y0364439D01*
X0563612Y0364584D01*
X0563556Y0364732D01*
X0563503Y0364880D01*
X0563454Y0365030D01*
X0563409Y0365181D01*
X0563368Y0365334D01*
X0563330Y0365487D01*
X0563297Y0365641D01*
X0563267Y0365796D01*
X0563241Y0365951D01*
X0563220Y0366108D01*
X0563202Y0366264D01*
X0563188Y0366421D01*
X0563178Y0366579D01*
X0563172Y0366736D01*
X0563170Y0366894D01*
X0563170Y0040123D02*
X0563172Y0040281D01*
X0563178Y0040438D01*
X0563188Y0040596D01*
X0563202Y0040753D01*
X0563220Y0040909D01*
X0563241Y0041066D01*
X0563267Y0041221D01*
X0563297Y0041376D01*
X0563330Y0041530D01*
X0563368Y0041683D01*
X0563409Y0041836D01*
X0563454Y0041987D01*
X0563503Y0042137D01*
X0563556Y0042285D01*
X0563612Y0042433D01*
X0563673Y0042578D01*
X0563736Y0042723D01*
X0563804Y0042865D01*
X0563875Y0043006D01*
X0563949Y0043145D01*
X0564027Y0043282D01*
X0564109Y0043417D01*
X0564193Y0043550D01*
X0564282Y0043681D01*
X0564373Y0043809D01*
X0564468Y0043936D01*
X0564565Y0044059D01*
X0564666Y0044181D01*
X0564770Y0044299D01*
X0564877Y0044415D01*
X0564987Y0044528D01*
X0565099Y0044639D01*
X0565215Y0044746D01*
X0565333Y0044851D01*
X0565453Y0044953D01*
X0565576Y0045051D01*
X0565702Y0045147D01*
X0565830Y0045239D01*
X0565960Y0045328D01*
X0566092Y0045414D01*
X0566227Y0045496D01*
X0566364Y0045575D01*
X0566502Y0045650D01*
X0566642Y0045722D01*
X0566785Y0045790D01*
X0566928Y0045855D01*
X0567074Y0045916D01*
X0567221Y0045973D01*
X0567369Y0046027D01*
X0567519Y0046077D01*
X0567669Y0046123D01*
X0567821Y0046165D01*
X0567974Y0046204D01*
X0568128Y0046238D01*
X0568283Y0046269D01*
X0568438Y0046295D01*
X0568594Y0046318D01*
X0568751Y0046337D01*
X0568908Y0046352D01*
X0569065Y0046363D01*
X0569223Y0046370D01*
X0569381Y0046373D01*
X0569538Y0046372D01*
X0569696Y0046367D01*
X0569853Y0046358D01*
X0570011Y0046345D01*
X0570167Y0046328D01*
X0570324Y0046307D01*
X0570479Y0046283D01*
X0570634Y0046254D01*
X0570789Y0046221D01*
X0570942Y0046185D01*
X0571095Y0046144D01*
X0571246Y0046100D01*
X0571396Y0046052D01*
X0571545Y0046001D01*
X0571693Y0045945D01*
X0571839Y0045886D01*
X0571984Y0045823D01*
X0572127Y0045756D01*
X0572268Y0045686D01*
X0572407Y0045613D01*
X0572545Y0045536D01*
X0572681Y0045455D01*
X0572814Y0045371D01*
X0572945Y0045284D01*
X0573074Y0045193D01*
X0573201Y0045099D01*
X0573326Y0045002D01*
X0573447Y0044902D01*
X0573567Y0044799D01*
X0573683Y0044693D01*
X0573797Y0044584D01*
X0573909Y0044472D01*
X0574017Y0044358D01*
X0574122Y0044240D01*
X0574225Y0044120D01*
X0574324Y0043998D01*
X0574420Y0043873D01*
X0574513Y0043745D01*
X0574603Y0043616D01*
X0574689Y0043484D01*
X0574773Y0043350D01*
X0574852Y0043214D01*
X0574929Y0043076D01*
X0575001Y0042936D01*
X0575070Y0042794D01*
X0575136Y0042651D01*
X0575198Y0042506D01*
X0575256Y0042359D01*
X0575311Y0042211D01*
X0575362Y0042062D01*
X0575409Y0041911D01*
X0575452Y0041760D01*
X0575491Y0041607D01*
X0575527Y0041453D01*
X0575558Y0041299D01*
X0575586Y0041144D01*
X0575610Y0040988D01*
X0575630Y0040831D01*
X0575646Y0040674D01*
X0575658Y0040517D01*
X0575666Y0040360D01*
X0575670Y0040202D01*
X0575670Y0040044D01*
X0575666Y0039886D01*
X0575658Y0039729D01*
X0575646Y0039572D01*
X0575630Y0039415D01*
X0575610Y0039258D01*
X0575586Y0039102D01*
X0575558Y0038947D01*
X0575527Y0038793D01*
X0575491Y0038639D01*
X0575452Y0038486D01*
X0575409Y0038335D01*
X0575362Y0038184D01*
X0575311Y0038035D01*
X0575256Y0037887D01*
X0575198Y0037740D01*
X0575136Y0037595D01*
X0575070Y0037452D01*
X0575001Y0037310D01*
X0574929Y0037170D01*
X0574852Y0037032D01*
X0574773Y0036896D01*
X0574689Y0036762D01*
X0574603Y0036630D01*
X0574513Y0036501D01*
X0574420Y0036373D01*
X0574324Y0036248D01*
X0574225Y0036126D01*
X0574122Y0036006D01*
X0574017Y0035888D01*
X0573909Y0035774D01*
X0573797Y0035662D01*
X0573683Y0035553D01*
X0573567Y0035447D01*
X0573447Y0035344D01*
X0573326Y0035244D01*
X0573201Y0035147D01*
X0573074Y0035053D01*
X0572945Y0034962D01*
X0572814Y0034875D01*
X0572681Y0034791D01*
X0572545Y0034710D01*
X0572407Y0034633D01*
X0572268Y0034560D01*
X0572127Y0034490D01*
X0571984Y0034423D01*
X0571839Y0034360D01*
X0571693Y0034301D01*
X0571545Y0034245D01*
X0571396Y0034194D01*
X0571246Y0034146D01*
X0571095Y0034102D01*
X0570942Y0034061D01*
X0570789Y0034025D01*
X0570634Y0033992D01*
X0570479Y0033963D01*
X0570324Y0033939D01*
X0570167Y0033918D01*
X0570011Y0033901D01*
X0569853Y0033888D01*
X0569696Y0033879D01*
X0569538Y0033874D01*
X0569381Y0033873D01*
X0569223Y0033876D01*
X0569065Y0033883D01*
X0568908Y0033894D01*
X0568751Y0033909D01*
X0568594Y0033928D01*
X0568438Y0033951D01*
X0568283Y0033977D01*
X0568128Y0034008D01*
X0567974Y0034042D01*
X0567821Y0034081D01*
X0567669Y0034123D01*
X0567519Y0034169D01*
X0567369Y0034219D01*
X0567221Y0034273D01*
X0567074Y0034330D01*
X0566928Y0034391D01*
X0566785Y0034456D01*
X0566642Y0034524D01*
X0566502Y0034596D01*
X0566364Y0034671D01*
X0566227Y0034750D01*
X0566092Y0034832D01*
X0565960Y0034918D01*
X0565830Y0035007D01*
X0565702Y0035099D01*
X0565576Y0035195D01*
X0565453Y0035293D01*
X0565333Y0035395D01*
X0565215Y0035500D01*
X0565099Y0035607D01*
X0564987Y0035718D01*
X0564877Y0035831D01*
X0564770Y0035947D01*
X0564666Y0036065D01*
X0564565Y0036187D01*
X0564468Y0036310D01*
X0564373Y0036437D01*
X0564282Y0036565D01*
X0564193Y0036696D01*
X0564109Y0036829D01*
X0564027Y0036964D01*
X0563949Y0037101D01*
X0563875Y0037240D01*
X0563804Y0037381D01*
X0563736Y0037523D01*
X0563673Y0037668D01*
X0563612Y0037813D01*
X0563556Y0037961D01*
X0563503Y0038109D01*
X0563454Y0038259D01*
X0563409Y0038410D01*
X0563368Y0038563D01*
X0563330Y0038716D01*
X0563297Y0038870D01*
X0563267Y0039025D01*
X0563241Y0039180D01*
X0563220Y0039337D01*
X0563202Y0039493D01*
X0563188Y0039650D01*
X0563178Y0039808D01*
X0563172Y0039965D01*
X0563170Y0040123D01*
M02*
