G75*
%MOIN*%
%OFA0B0*%
%FSLAX25Y25*%
%IPPOS*%
%LPD*%
%AMOC8*
5,1,8,0,0,1.08239X$1,22.5*
%
%ADD10C,0.09800*%
%ADD11C,0.05750*%
%ADD12C,0.13300*%
%ADD13C,0.02584*%
%ADD14R,0.05524X0.05524*%
%ADD15C,0.05524*%
%ADD16C,0.04737*%
%ADD17C,0.03556*%
%ADD18C,0.03937*%
%ADD19OC8,0.06800*%
%ADD20C,0.06800*%
%ADD21C,0.06800*%
%ADD22C,0.04343*%
%ADD23C,0.06706*%
%ADD24C,0.13560*%
%ADD25C,0.14150*%
%ADD26C,0.10249*%
%ADD27C,0.02600*%
D10*
X0150089Y0382642D03*
X0177727Y0382642D03*
D11*
X0173456Y0370831D03*
X0154361Y0370831D03*
D12*
X0026113Y0366894D03*
X0026113Y0040123D03*
X0569420Y0040123D03*
X0569420Y0366894D03*
D13*
X0431034Y0254296D03*
X0418042Y0254296D03*
X0350522Y0251737D03*
X0350522Y0240516D03*
X0293830Y0213351D03*
X0228475Y0223981D03*
X0301704Y0294453D03*
X0130444Y0356264D03*
X0305247Y0092879D03*
D14*
X0328751Y0039060D03*
X0570483Y0109296D03*
X0076782Y0039060D03*
X0025050Y0280792D03*
D15*
X0025050Y0270792D03*
X0035050Y0270792D03*
X0035050Y0280792D03*
X0035050Y0260792D03*
X0035050Y0250792D03*
X0025050Y0250792D03*
X0025050Y0260792D03*
X0025050Y0240792D03*
X0025050Y0230792D03*
X0035050Y0230792D03*
X0035050Y0240792D03*
X0035050Y0220792D03*
X0035050Y0210792D03*
X0025050Y0210792D03*
X0025050Y0220792D03*
X0025050Y0200792D03*
X0025050Y0190792D03*
X0035050Y0190792D03*
X0035050Y0200792D03*
X0035050Y0180792D03*
X0035050Y0170792D03*
X0025050Y0170792D03*
X0025050Y0180792D03*
X0025050Y0160792D03*
X0025050Y0150792D03*
X0035050Y0150792D03*
X0035050Y0160792D03*
X0035050Y0140792D03*
X0035050Y0130792D03*
X0025050Y0130792D03*
X0025050Y0140792D03*
X0025050Y0120792D03*
X0025050Y0110792D03*
X0035050Y0110792D03*
X0035050Y0120792D03*
X0035050Y0100792D03*
X0025050Y0100792D03*
X0025050Y0090792D03*
X0035050Y0090792D03*
X0076782Y0049060D03*
X0086782Y0049060D03*
X0096782Y0049060D03*
X0106782Y0049060D03*
X0116782Y0049060D03*
X0126782Y0049060D03*
X0136782Y0049060D03*
X0146782Y0049060D03*
X0156782Y0049060D03*
X0166782Y0049060D03*
X0176782Y0049060D03*
X0186782Y0049060D03*
X0196782Y0049060D03*
X0206782Y0049060D03*
X0216782Y0049060D03*
X0226782Y0049060D03*
X0236782Y0049060D03*
X0246782Y0049060D03*
X0256782Y0049060D03*
X0266782Y0049060D03*
X0266782Y0039060D03*
X0256782Y0039060D03*
X0246782Y0039060D03*
X0236782Y0039060D03*
X0226782Y0039060D03*
X0216782Y0039060D03*
X0206782Y0039060D03*
X0196782Y0039060D03*
X0186782Y0039060D03*
X0176782Y0039060D03*
X0166782Y0039060D03*
X0156782Y0039060D03*
X0146782Y0039060D03*
X0136782Y0039060D03*
X0126782Y0039060D03*
X0116782Y0039060D03*
X0106782Y0039060D03*
X0096782Y0039060D03*
X0086782Y0039060D03*
X0328751Y0049060D03*
X0338751Y0049060D03*
X0348751Y0049060D03*
X0358751Y0049060D03*
X0368751Y0049060D03*
X0378751Y0049060D03*
X0388751Y0049060D03*
X0398751Y0049060D03*
X0408751Y0049060D03*
X0418751Y0049060D03*
X0428751Y0049060D03*
X0438751Y0049060D03*
X0448751Y0049060D03*
X0458751Y0049060D03*
X0468751Y0049060D03*
X0478751Y0049060D03*
X0488751Y0049060D03*
X0498751Y0049060D03*
X0508751Y0049060D03*
X0518751Y0049060D03*
X0518751Y0039060D03*
X0508751Y0039060D03*
X0498751Y0039060D03*
X0488751Y0039060D03*
X0478751Y0039060D03*
X0468751Y0039060D03*
X0458751Y0039060D03*
X0448751Y0039060D03*
X0438751Y0039060D03*
X0428751Y0039060D03*
X0418751Y0039060D03*
X0408751Y0039060D03*
X0398751Y0039060D03*
X0388751Y0039060D03*
X0378751Y0039060D03*
X0368751Y0039060D03*
X0358751Y0039060D03*
X0348751Y0039060D03*
X0338751Y0039060D03*
X0560483Y0109296D03*
X0560483Y0119296D03*
X0560483Y0129296D03*
X0570483Y0129296D03*
X0570483Y0119296D03*
X0570483Y0139296D03*
X0560483Y0139296D03*
X0560483Y0149296D03*
X0570483Y0149296D03*
X0570483Y0159296D03*
X0560483Y0159296D03*
X0560483Y0169296D03*
X0570483Y0169296D03*
X0570483Y0179296D03*
X0560483Y0179296D03*
X0560483Y0189296D03*
X0570483Y0189296D03*
X0570483Y0199296D03*
X0560483Y0199296D03*
D16*
X0502491Y0090123D03*
X0329656Y0094847D03*
X0311940Y0096422D03*
X0274932Y0096422D03*
X0087530Y0085792D03*
X0348948Y0268469D03*
X0268042Y0328115D03*
X0229853Y0301737D03*
X0256822Y0369060D03*
X0257019Y0382249D03*
X0437530Y0356658D03*
X0475326Y0331461D03*
X0069420Y0362957D03*
D17*
X0081625Y0368272D03*
X0084971Y0336579D03*
X0118830Y0312564D03*
X0126113Y0290910D03*
X0151704Y0343863D03*
X0151704Y0350162D03*
X0134578Y0346028D03*
X0135562Y0361579D03*
X0172570Y0354296D03*
X0202885Y0344650D03*
X0333200Y0371816D03*
X0343436Y0367288D03*
X0353475Y0369060D03*
X0373357Y0353509D03*
X0401704Y0346619D03*
X0350326Y0283233D03*
X0392648Y0272012D03*
X0292255Y0253312D03*
X0277688Y0250753D03*
X0223357Y0217682D03*
X0233987Y0200359D03*
X0251310Y0200753D03*
X0282412Y0191894D03*
X0308396Y0204493D03*
X0256822Y0157839D03*
X0239499Y0149965D03*
X0196389Y0140713D03*
X0196585Y0131855D03*
X0160365Y0135792D03*
X0161349Y0147209D03*
X0089105Y0116501D03*
X0083200Y0122800D03*
X0083200Y0133824D03*
X0072176Y0128312D03*
X0071389Y0139335D03*
X0083200Y0144847D03*
X0071389Y0150359D03*
X0071389Y0161383D03*
X0083200Y0155871D03*
X0133200Y0211776D03*
X0134971Y0221422D03*
X0115483Y0232642D03*
X0119814Y0236186D03*
X0106034Y0233036D03*
X0339499Y0148981D03*
X0365089Y0133627D03*
X0419814Y0140123D03*
X0432412Y0152327D03*
X0445601Y0151934D03*
X0443830Y0139138D03*
X0484971Y0142288D03*
X0490877Y0151737D03*
X0511349Y0151737D03*
X0491270Y0180674D03*
X0511546Y0183627D03*
X0444617Y0183627D03*
X0419814Y0185398D03*
X0439499Y0111579D03*
X0432609Y0108233D03*
X0485759Y0096619D03*
X0502491Y0107642D03*
X0283593Y0077918D03*
X0258396Y0079493D03*
X0230444Y0078509D03*
X0219420Y0080280D03*
D18*
X0047766Y0063745D02*
X0047768Y0063833D01*
X0047774Y0063921D01*
X0047784Y0064009D01*
X0047798Y0064097D01*
X0047815Y0064183D01*
X0047837Y0064269D01*
X0047862Y0064353D01*
X0047892Y0064437D01*
X0047924Y0064519D01*
X0047961Y0064599D01*
X0048001Y0064678D01*
X0048045Y0064755D01*
X0048092Y0064830D01*
X0048142Y0064902D01*
X0048196Y0064973D01*
X0048252Y0065040D01*
X0048312Y0065106D01*
X0048374Y0065168D01*
X0048440Y0065228D01*
X0048507Y0065284D01*
X0048578Y0065338D01*
X0048650Y0065388D01*
X0048725Y0065435D01*
X0048802Y0065479D01*
X0048881Y0065519D01*
X0048961Y0065556D01*
X0049043Y0065588D01*
X0049127Y0065618D01*
X0049211Y0065643D01*
X0049297Y0065665D01*
X0049383Y0065682D01*
X0049471Y0065696D01*
X0049559Y0065706D01*
X0049647Y0065712D01*
X0049735Y0065714D01*
X0049823Y0065712D01*
X0049911Y0065706D01*
X0049999Y0065696D01*
X0050087Y0065682D01*
X0050173Y0065665D01*
X0050259Y0065643D01*
X0050343Y0065618D01*
X0050427Y0065588D01*
X0050509Y0065556D01*
X0050589Y0065519D01*
X0050668Y0065479D01*
X0050745Y0065435D01*
X0050820Y0065388D01*
X0050892Y0065338D01*
X0050963Y0065284D01*
X0051030Y0065228D01*
X0051096Y0065168D01*
X0051158Y0065106D01*
X0051218Y0065040D01*
X0051274Y0064973D01*
X0051328Y0064902D01*
X0051378Y0064830D01*
X0051425Y0064755D01*
X0051469Y0064678D01*
X0051509Y0064599D01*
X0051546Y0064519D01*
X0051578Y0064437D01*
X0051608Y0064353D01*
X0051633Y0064269D01*
X0051655Y0064183D01*
X0051672Y0064097D01*
X0051686Y0064009D01*
X0051696Y0063921D01*
X0051702Y0063833D01*
X0051704Y0063745D01*
X0051702Y0063657D01*
X0051696Y0063569D01*
X0051686Y0063481D01*
X0051672Y0063393D01*
X0051655Y0063307D01*
X0051633Y0063221D01*
X0051608Y0063137D01*
X0051578Y0063053D01*
X0051546Y0062971D01*
X0051509Y0062891D01*
X0051469Y0062812D01*
X0051425Y0062735D01*
X0051378Y0062660D01*
X0051328Y0062588D01*
X0051274Y0062517D01*
X0051218Y0062450D01*
X0051158Y0062384D01*
X0051096Y0062322D01*
X0051030Y0062262D01*
X0050963Y0062206D01*
X0050892Y0062152D01*
X0050820Y0062102D01*
X0050745Y0062055D01*
X0050668Y0062011D01*
X0050589Y0061971D01*
X0050509Y0061934D01*
X0050427Y0061902D01*
X0050343Y0061872D01*
X0050259Y0061847D01*
X0050173Y0061825D01*
X0050087Y0061808D01*
X0049999Y0061794D01*
X0049911Y0061784D01*
X0049823Y0061778D01*
X0049735Y0061776D01*
X0049647Y0061778D01*
X0049559Y0061784D01*
X0049471Y0061794D01*
X0049383Y0061808D01*
X0049297Y0061825D01*
X0049211Y0061847D01*
X0049127Y0061872D01*
X0049043Y0061902D01*
X0048961Y0061934D01*
X0048881Y0061971D01*
X0048802Y0062011D01*
X0048725Y0062055D01*
X0048650Y0062102D01*
X0048578Y0062152D01*
X0048507Y0062206D01*
X0048440Y0062262D01*
X0048374Y0062322D01*
X0048312Y0062384D01*
X0048252Y0062450D01*
X0048196Y0062517D01*
X0048142Y0062588D01*
X0048092Y0062660D01*
X0048045Y0062735D01*
X0048001Y0062812D01*
X0047961Y0062891D01*
X0047924Y0062971D01*
X0047892Y0063053D01*
X0047862Y0063137D01*
X0047837Y0063221D01*
X0047815Y0063307D01*
X0047798Y0063393D01*
X0047784Y0063481D01*
X0047774Y0063569D01*
X0047768Y0063657D01*
X0047766Y0063745D01*
X0020207Y0335398D02*
X0020209Y0335486D01*
X0020215Y0335574D01*
X0020225Y0335662D01*
X0020239Y0335750D01*
X0020256Y0335836D01*
X0020278Y0335922D01*
X0020303Y0336006D01*
X0020333Y0336090D01*
X0020365Y0336172D01*
X0020402Y0336252D01*
X0020442Y0336331D01*
X0020486Y0336408D01*
X0020533Y0336483D01*
X0020583Y0336555D01*
X0020637Y0336626D01*
X0020693Y0336693D01*
X0020753Y0336759D01*
X0020815Y0336821D01*
X0020881Y0336881D01*
X0020948Y0336937D01*
X0021019Y0336991D01*
X0021091Y0337041D01*
X0021166Y0337088D01*
X0021243Y0337132D01*
X0021322Y0337172D01*
X0021402Y0337209D01*
X0021484Y0337241D01*
X0021568Y0337271D01*
X0021652Y0337296D01*
X0021738Y0337318D01*
X0021824Y0337335D01*
X0021912Y0337349D01*
X0022000Y0337359D01*
X0022088Y0337365D01*
X0022176Y0337367D01*
X0022264Y0337365D01*
X0022352Y0337359D01*
X0022440Y0337349D01*
X0022528Y0337335D01*
X0022614Y0337318D01*
X0022700Y0337296D01*
X0022784Y0337271D01*
X0022868Y0337241D01*
X0022950Y0337209D01*
X0023030Y0337172D01*
X0023109Y0337132D01*
X0023186Y0337088D01*
X0023261Y0337041D01*
X0023333Y0336991D01*
X0023404Y0336937D01*
X0023471Y0336881D01*
X0023537Y0336821D01*
X0023599Y0336759D01*
X0023659Y0336693D01*
X0023715Y0336626D01*
X0023769Y0336555D01*
X0023819Y0336483D01*
X0023866Y0336408D01*
X0023910Y0336331D01*
X0023950Y0336252D01*
X0023987Y0336172D01*
X0024019Y0336090D01*
X0024049Y0336006D01*
X0024074Y0335922D01*
X0024096Y0335836D01*
X0024113Y0335750D01*
X0024127Y0335662D01*
X0024137Y0335574D01*
X0024143Y0335486D01*
X0024145Y0335398D01*
X0024143Y0335310D01*
X0024137Y0335222D01*
X0024127Y0335134D01*
X0024113Y0335046D01*
X0024096Y0334960D01*
X0024074Y0334874D01*
X0024049Y0334790D01*
X0024019Y0334706D01*
X0023987Y0334624D01*
X0023950Y0334544D01*
X0023910Y0334465D01*
X0023866Y0334388D01*
X0023819Y0334313D01*
X0023769Y0334241D01*
X0023715Y0334170D01*
X0023659Y0334103D01*
X0023599Y0334037D01*
X0023537Y0333975D01*
X0023471Y0333915D01*
X0023404Y0333859D01*
X0023333Y0333805D01*
X0023261Y0333755D01*
X0023186Y0333708D01*
X0023109Y0333664D01*
X0023030Y0333624D01*
X0022950Y0333587D01*
X0022868Y0333555D01*
X0022784Y0333525D01*
X0022700Y0333500D01*
X0022614Y0333478D01*
X0022528Y0333461D01*
X0022440Y0333447D01*
X0022352Y0333437D01*
X0022264Y0333431D01*
X0022176Y0333429D01*
X0022088Y0333431D01*
X0022000Y0333437D01*
X0021912Y0333447D01*
X0021824Y0333461D01*
X0021738Y0333478D01*
X0021652Y0333500D01*
X0021568Y0333525D01*
X0021484Y0333555D01*
X0021402Y0333587D01*
X0021322Y0333624D01*
X0021243Y0333664D01*
X0021166Y0333708D01*
X0021091Y0333755D01*
X0021019Y0333805D01*
X0020948Y0333859D01*
X0020881Y0333915D01*
X0020815Y0333975D01*
X0020753Y0334037D01*
X0020693Y0334103D01*
X0020637Y0334170D01*
X0020583Y0334241D01*
X0020533Y0334313D01*
X0020486Y0334388D01*
X0020442Y0334465D01*
X0020402Y0334544D01*
X0020365Y0334624D01*
X0020333Y0334706D01*
X0020303Y0334790D01*
X0020278Y0334874D01*
X0020256Y0334960D01*
X0020239Y0335046D01*
X0020225Y0335134D01*
X0020215Y0335222D01*
X0020209Y0335310D01*
X0020207Y0335398D01*
X0543829Y0355083D02*
X0543831Y0355171D01*
X0543837Y0355259D01*
X0543847Y0355347D01*
X0543861Y0355435D01*
X0543878Y0355521D01*
X0543900Y0355607D01*
X0543925Y0355691D01*
X0543955Y0355775D01*
X0543987Y0355857D01*
X0544024Y0355937D01*
X0544064Y0356016D01*
X0544108Y0356093D01*
X0544155Y0356168D01*
X0544205Y0356240D01*
X0544259Y0356311D01*
X0544315Y0356378D01*
X0544375Y0356444D01*
X0544437Y0356506D01*
X0544503Y0356566D01*
X0544570Y0356622D01*
X0544641Y0356676D01*
X0544713Y0356726D01*
X0544788Y0356773D01*
X0544865Y0356817D01*
X0544944Y0356857D01*
X0545024Y0356894D01*
X0545106Y0356926D01*
X0545190Y0356956D01*
X0545274Y0356981D01*
X0545360Y0357003D01*
X0545446Y0357020D01*
X0545534Y0357034D01*
X0545622Y0357044D01*
X0545710Y0357050D01*
X0545798Y0357052D01*
X0545886Y0357050D01*
X0545974Y0357044D01*
X0546062Y0357034D01*
X0546150Y0357020D01*
X0546236Y0357003D01*
X0546322Y0356981D01*
X0546406Y0356956D01*
X0546490Y0356926D01*
X0546572Y0356894D01*
X0546652Y0356857D01*
X0546731Y0356817D01*
X0546808Y0356773D01*
X0546883Y0356726D01*
X0546955Y0356676D01*
X0547026Y0356622D01*
X0547093Y0356566D01*
X0547159Y0356506D01*
X0547221Y0356444D01*
X0547281Y0356378D01*
X0547337Y0356311D01*
X0547391Y0356240D01*
X0547441Y0356168D01*
X0547488Y0356093D01*
X0547532Y0356016D01*
X0547572Y0355937D01*
X0547609Y0355857D01*
X0547641Y0355775D01*
X0547671Y0355691D01*
X0547696Y0355607D01*
X0547718Y0355521D01*
X0547735Y0355435D01*
X0547749Y0355347D01*
X0547759Y0355259D01*
X0547765Y0355171D01*
X0547767Y0355083D01*
X0547765Y0354995D01*
X0547759Y0354907D01*
X0547749Y0354819D01*
X0547735Y0354731D01*
X0547718Y0354645D01*
X0547696Y0354559D01*
X0547671Y0354475D01*
X0547641Y0354391D01*
X0547609Y0354309D01*
X0547572Y0354229D01*
X0547532Y0354150D01*
X0547488Y0354073D01*
X0547441Y0353998D01*
X0547391Y0353926D01*
X0547337Y0353855D01*
X0547281Y0353788D01*
X0547221Y0353722D01*
X0547159Y0353660D01*
X0547093Y0353600D01*
X0547026Y0353544D01*
X0546955Y0353490D01*
X0546883Y0353440D01*
X0546808Y0353393D01*
X0546731Y0353349D01*
X0546652Y0353309D01*
X0546572Y0353272D01*
X0546490Y0353240D01*
X0546406Y0353210D01*
X0546322Y0353185D01*
X0546236Y0353163D01*
X0546150Y0353146D01*
X0546062Y0353132D01*
X0545974Y0353122D01*
X0545886Y0353116D01*
X0545798Y0353114D01*
X0545710Y0353116D01*
X0545622Y0353122D01*
X0545534Y0353132D01*
X0545446Y0353146D01*
X0545360Y0353163D01*
X0545274Y0353185D01*
X0545190Y0353210D01*
X0545106Y0353240D01*
X0545024Y0353272D01*
X0544944Y0353309D01*
X0544865Y0353349D01*
X0544788Y0353393D01*
X0544713Y0353440D01*
X0544641Y0353490D01*
X0544570Y0353544D01*
X0544503Y0353600D01*
X0544437Y0353660D01*
X0544375Y0353722D01*
X0544315Y0353788D01*
X0544259Y0353855D01*
X0544205Y0353926D01*
X0544155Y0353998D01*
X0544108Y0354073D01*
X0544064Y0354150D01*
X0544024Y0354229D01*
X0543987Y0354309D01*
X0543955Y0354391D01*
X0543925Y0354475D01*
X0543900Y0354559D01*
X0543878Y0354645D01*
X0543861Y0354731D01*
X0543847Y0354819D01*
X0543837Y0354907D01*
X0543831Y0354995D01*
X0543829Y0355083D01*
D19*
X0235837Y0369768D03*
X0225837Y0369768D03*
X0225837Y0379768D03*
X0235837Y0379768D03*
D20*
X0230444Y0343524D02*
X0230444Y0337524D01*
X0230444Y0327524D02*
X0230444Y0321524D01*
X0220444Y0321524D02*
X0220444Y0327524D01*
X0240444Y0327524D02*
X0240444Y0321524D01*
X0269144Y0164776D02*
X0269144Y0158776D01*
X0279144Y0158776D02*
X0279144Y0164776D01*
X0388861Y0117170D02*
X0394861Y0117170D01*
X0394861Y0107170D02*
X0388861Y0107170D01*
D21*
X0240444Y0337524D03*
X0220444Y0337524D03*
D22*
X0235759Y0298981D03*
X0227097Y0276343D03*
X0277688Y0245044D03*
X0283987Y0227918D03*
X0312924Y0208036D03*
X0338908Y0200949D03*
X0341861Y0192091D03*
X0320601Y0187367D03*
X0278081Y0188548D03*
X0345798Y0148981D03*
X0365089Y0127918D03*
X0400916Y0113351D03*
X0406625Y0113351D03*
X0461349Y0140516D03*
X0468633Y0141501D03*
X0399144Y0147603D03*
X0399144Y0152918D03*
X0480641Y0209217D03*
X0480444Y0216501D03*
X0504656Y0230477D03*
X0539893Y0222012D03*
X0545207Y0205674D03*
X0418239Y0265713D03*
X0399341Y0272012D03*
X0402097Y0292485D03*
X0390286Y0326343D03*
X0378869Y0330280D03*
X0407412Y0346619D03*
X0406822Y0352721D03*
X0433593Y0350753D03*
X0433593Y0346028D03*
X0246585Y0236973D03*
X0143239Y0262367D03*
X0110956Y0216107D03*
X0086546Y0198390D03*
X0073357Y0197603D03*
X0141861Y0117682D03*
X0189105Y0116894D03*
X0186349Y0096619D03*
X0303672Y0085792D03*
X0323751Y0076343D03*
X0352097Y0066698D03*
X0300522Y0047209D03*
X0300522Y0040910D03*
X0348751Y0024572D03*
X0474932Y0076146D03*
X0499144Y0078115D03*
X0143830Y0312564D03*
X0144223Y0330280D03*
X0134578Y0340320D03*
X0143436Y0357839D03*
X0114302Y0315910D03*
X0061546Y0370831D03*
D23*
X0555837Y0335989D03*
X0555837Y0318272D03*
X0555837Y0304887D03*
X0581428Y0304887D03*
X0581428Y0318272D03*
X0581428Y0335989D03*
X0581428Y0287170D03*
X0555837Y0287170D03*
D24*
X0316664Y0350753D03*
X0303672Y0359808D03*
X0290680Y0350753D03*
D25*
X0289105Y0379887D03*
X0318239Y0379887D03*
D26*
X0303672Y0375556D03*
D27*
X0005050Y0019257D03*
X0039105Y0019257D03*
X0078475Y0019257D03*
X0108593Y0032249D03*
X0111743Y0032052D03*
X0131822Y0034217D03*
X0140877Y0033824D03*
X0157215Y0019257D03*
X0165089Y0033627D03*
X0168633Y0033430D03*
X0172176Y0034217D03*
X0181822Y0035398D03*
X0171389Y0044847D03*
X0173948Y0065123D03*
X0179853Y0064335D03*
X0184381Y0070044D03*
X0187530Y0070241D03*
X0181231Y0075949D03*
X0178672Y0075949D03*
X0175916Y0076737D03*
X0173357Y0077524D03*
X0171585Y0075359D03*
X0168633Y0075556D03*
X0167058Y0072603D03*
X0165680Y0080674D03*
X0171192Y0082446D03*
X0173554Y0081264D03*
X0178672Y0085005D03*
X0180837Y0086579D03*
X0176900Y0087367D03*
X0180247Y0094847D03*
X0175522Y0097406D03*
X0167845Y0100753D03*
X0171192Y0103509D03*
X0167058Y0107839D03*
X0159971Y0107052D03*
X0158003Y0105083D03*
X0155641Y0103115D03*
X0162137Y0098981D03*
X0151704Y0091698D03*
X0151900Y0088942D03*
X0153081Y0079296D03*
X0155837Y0079296D03*
X0149341Y0075753D03*
X0146979Y0075753D03*
X0142452Y0074965D03*
X0139302Y0071816D03*
X0130837Y0073784D03*
X0129263Y0071619D03*
X0123554Y0064729D03*
X0116861Y0064729D03*
X0103278Y0073587D03*
X0100522Y0071225D03*
X0097373Y0074572D03*
X0095601Y0080083D03*
X0097767Y0082249D03*
X0105444Y0090713D03*
X0085956Y0095635D03*
X0082412Y0092485D03*
X0077097Y0090910D03*
X0073751Y0091107D03*
X0065286Y0085595D03*
X0065286Y0080083D03*
X0073751Y0076146D03*
X0077097Y0077327D03*
X0085168Y0067682D03*
X0113908Y0076737D03*
X0123357Y0086973D03*
X0120601Y0088154D03*
X0129263Y0084217D03*
X0129656Y0093469D03*
X0119814Y0101737D03*
X0117255Y0101737D03*
X0102097Y0100556D03*
X0097176Y0104296D03*
X0097373Y0109414D03*
X0092255Y0117288D03*
X0095995Y0119257D03*
X0094617Y0122209D03*
X0096979Y0125359D03*
X0091074Y0128312D03*
X0076900Y0128312D03*
X0076900Y0133824D03*
X0066467Y0133824D03*
X0066467Y0128312D03*
X0062530Y0129296D03*
X0062137Y0123390D03*
X0066467Y0122800D03*
X0076900Y0122800D03*
X0077294Y0116698D03*
X0078081Y0109414D03*
X0078081Y0105083D03*
X0050522Y0123194D03*
X0049341Y0129690D03*
X0066467Y0139335D03*
X0066467Y0144847D03*
X0076900Y0144847D03*
X0076900Y0139335D03*
X0091270Y0141501D03*
X0093633Y0145044D03*
X0093633Y0148587D03*
X0107412Y0147406D03*
X0107412Y0139335D03*
X0109578Y0135005D03*
X0106428Y0133824D03*
X0113908Y0131068D03*
X0116664Y0126737D03*
X0106625Y0124572D03*
X0113711Y0120044D03*
X0127294Y0134808D03*
X0131428Y0144453D03*
X0133987Y0147603D03*
X0137727Y0145241D03*
X0139302Y0142879D03*
X0142648Y0141894D03*
X0144617Y0140123D03*
X0148357Y0143075D03*
X0153672Y0136579D03*
X0156034Y0135398D03*
X0159971Y0130674D03*
X0158396Y0128705D03*
X0162137Y0127524D03*
X0162530Y0123587D03*
X0168633Y0123981D03*
X0171782Y0114926D03*
X0176704Y0113942D03*
X0186349Y0111973D03*
X0190680Y0107249D03*
X0195404Y0107446D03*
X0208003Y0100753D03*
X0212530Y0109414D03*
X0223751Y0109414D03*
X0227491Y0107052D03*
X0234184Y0114138D03*
X0240286Y0115320D03*
X0249144Y0116304D03*
X0254066Y0111383D03*
X0240286Y0109414D03*
X0248554Y0100753D03*
X0244223Y0097012D03*
X0253475Y0090516D03*
X0255641Y0084808D03*
X0263515Y0078902D03*
X0265680Y0072603D03*
X0279263Y0076343D03*
X0285956Y0073587D03*
X0289302Y0073587D03*
X0299932Y0081264D03*
X0313908Y0079493D03*
X0319026Y0079099D03*
X0329066Y0072603D03*
X0319026Y0070438D03*
X0313908Y0070044D03*
X0334578Y0061579D03*
X0341270Y0067485D03*
X0347373Y0082446D03*
X0345601Y0086973D03*
X0351900Y0091107D03*
X0357215Y0089138D03*
X0359774Y0093075D03*
X0365877Y0092485D03*
X0364893Y0088745D03*
X0374538Y0084611D03*
X0378869Y0088154D03*
X0383593Y0088154D03*
X0392452Y0084611D03*
X0396585Y0085005D03*
X0393042Y0090910D03*
X0399774Y0092446D03*
X0408396Y0095241D03*
X0408396Y0100556D03*
X0413318Y0099178D03*
X0401113Y0103509D03*
X0401113Y0108036D03*
X0399538Y0122012D03*
X0406034Y0123194D03*
X0408790Y0131855D03*
X0401113Y0139926D03*
X0388121Y0145044D03*
X0385168Y0142879D03*
X0390483Y0151146D03*
X0394814Y0161579D03*
X0388121Y0165320D03*
X0385168Y0164138D03*
X0378672Y0161579D03*
X0376507Y0167288D03*
X0376507Y0170438D03*
X0379459Y0169453D03*
X0372570Y0167288D03*
X0363121Y0162957D03*
X0356034Y0163351D03*
X0349341Y0163548D03*
X0346979Y0160792D03*
X0342255Y0160792D03*
X0342452Y0164926D03*
X0337530Y0164926D03*
X0330050Y0157839D03*
X0310956Y0157642D03*
X0311349Y0143666D03*
X0330050Y0144060D03*
X0344814Y0156461D03*
X0351113Y0157839D03*
X0351113Y0154887D03*
X0353475Y0152131D03*
X0353475Y0148981D03*
X0365089Y0151146D03*
X0366270Y0146422D03*
X0366270Y0142485D03*
X0376900Y0134414D03*
X0376900Y0132052D03*
X0374144Y0127524D03*
X0371782Y0126146D03*
X0376704Y0126343D03*
X0381231Y0126146D03*
X0383987Y0126146D03*
X0383593Y0121816D03*
X0351704Y0125359D03*
X0351704Y0128902D03*
X0345798Y0126737D03*
X0349341Y0121028D03*
X0349341Y0117682D03*
X0349341Y0112761D03*
X0349341Y0109217D03*
X0353672Y0105477D03*
X0333593Y0092091D03*
X0329853Y0099178D03*
X0323751Y0100359D03*
X0316270Y0100359D03*
X0316270Y0092879D03*
X0300719Y0100556D03*
X0304263Y0111973D03*
X0310562Y0126146D03*
X0329853Y0126540D03*
X0295601Y0146028D03*
X0276113Y0152327D03*
X0263908Y0152721D03*
X0261940Y0150359D03*
X0259578Y0148390D03*
X0258396Y0153902D03*
X0256822Y0161776D03*
X0256034Y0165320D03*
X0258396Y0167288D03*
X0254263Y0177918D03*
X0252097Y0178312D03*
X0248357Y0181658D03*
X0245798Y0183824D03*
X0247176Y0186776D03*
X0249144Y0189729D03*
X0243436Y0189138D03*
X0236349Y0190123D03*
X0232412Y0189335D03*
X0228475Y0183627D03*
X0225326Y0185989D03*
X0221979Y0185989D03*
X0217058Y0188548D03*
X0225916Y0195241D03*
X0225129Y0201343D03*
X0223160Y0201343D03*
X0227097Y0203115D03*
X0229853Y0203115D03*
X0224341Y0208627D03*
X0220995Y0206855D03*
X0219420Y0213745D03*
X0223357Y0224768D03*
X0231231Y0223194D03*
X0237137Y0224768D03*
X0240680Y0232446D03*
X0231034Y0231855D03*
X0226507Y0233824D03*
X0219223Y0238154D03*
X0213318Y0237564D03*
X0198948Y0235005D03*
X0194420Y0231068D03*
X0201113Y0228902D03*
X0202294Y0226146D03*
X0203672Y0223587D03*
X0206625Y0225556D03*
X0197176Y0224375D03*
X0188121Y0221816D03*
X0186349Y0219257D03*
X0181625Y0214729D03*
X0190680Y0210792D03*
X0192648Y0208233D03*
X0204656Y0213351D03*
X0197176Y0217288D03*
X0205641Y0203312D03*
X0182019Y0198194D03*
X0174735Y0209020D03*
X0157609Y0199572D03*
X0154853Y0196816D03*
X0152097Y0193272D03*
X0145404Y0190123D03*
X0142255Y0192288D03*
X0142845Y0197209D03*
X0141467Y0199572D03*
X0146782Y0201343D03*
X0152885Y0205477D03*
X0145011Y0206658D03*
X0136152Y0213351D03*
X0131625Y0214138D03*
X0128672Y0211579D03*
X0123948Y0220044D03*
X0120995Y0218469D03*
X0117062Y0217647D03*
X0106428Y0225162D03*
X0103869Y0222800D03*
X0109971Y0227327D03*
X0128475Y0233824D03*
X0134971Y0234020D03*
X0136546Y0232249D03*
X0140286Y0235989D03*
X0136349Y0237957D03*
X0143436Y0239532D03*
X0146585Y0242682D03*
X0139893Y0246422D03*
X0144814Y0250753D03*
X0147176Y0252721D03*
X0136940Y0257839D03*
X0134774Y0255871D03*
X0131822Y0249965D03*
X0131034Y0247406D03*
X0130247Y0245044D03*
X0126310Y0246422D03*
X0126310Y0249178D03*
X0110759Y0248587D03*
X0105641Y0249768D03*
X0101113Y0251146D03*
X0098751Y0252327D03*
X0092648Y0260989D03*
X0092648Y0279493D03*
X0099144Y0280871D03*
X0101113Y0283430D03*
X0105641Y0281068D03*
X0110956Y0278902D03*
X0123751Y0277524D03*
X0127294Y0274768D03*
X0128475Y0272406D03*
X0132412Y0266304D03*
X0139302Y0269650D03*
X0141664Y0271816D03*
X0136546Y0276737D03*
X0151704Y0266304D03*
X0166664Y0265713D03*
X0169026Y0265713D03*
X0177688Y0264532D03*
X0179263Y0260595D03*
X0177885Y0254099D03*
X0177885Y0250949D03*
X0182609Y0251934D03*
X0185168Y0248194D03*
X0183987Y0244257D03*
X0171389Y0244847D03*
X0169026Y0246422D03*
X0170995Y0248390D03*
X0168633Y0249572D03*
X0164105Y0245635D03*
X0164499Y0242288D03*
X0167058Y0243666D03*
X0170995Y0241894D03*
X0159578Y0239138D03*
X0156625Y0232642D03*
X0144420Y0226343D03*
X0142255Y0222997D03*
X0142648Y0219847D03*
X0143436Y0217288D03*
X0136152Y0218666D03*
X0122373Y0203115D03*
X0133790Y0197209D03*
X0133003Y0187564D03*
X0133593Y0181855D03*
X0139499Y0174768D03*
X0140089Y0172209D03*
X0138121Y0170438D03*
X0141270Y0168075D03*
X0148357Y0166501D03*
X0147963Y0161383D03*
X0154656Y0155083D03*
X0152885Y0152721D03*
X0159578Y0151146D03*
X0160365Y0154690D03*
X0166861Y0153902D03*
X0171782Y0154296D03*
X0181822Y0160989D03*
X0174932Y0163745D03*
X0166861Y0163745D03*
X0175916Y0172209D03*
X0177885Y0170438D03*
X0181822Y0174375D03*
X0179656Y0176146D03*
X0173357Y0179887D03*
X0174538Y0186973D03*
X0165483Y0187564D03*
X0183790Y0186973D03*
X0194026Y0185792D03*
X0186152Y0172406D03*
X0184381Y0168666D03*
X0196389Y0160989D03*
X0204656Y0166501D03*
X0206625Y0168666D03*
X0209578Y0166698D03*
X0209578Y0164138D03*
X0207609Y0161383D03*
X0219223Y0152721D03*
X0217648Y0150162D03*
X0209184Y0147997D03*
X0193239Y0147406D03*
X0187530Y0148784D03*
X0183200Y0144453D03*
X0185365Y0140910D03*
X0182215Y0137957D03*
X0189696Y0130674D03*
X0191270Y0128312D03*
X0188908Y0124178D03*
X0184971Y0123194D03*
X0185562Y0126737D03*
X0197078Y0134709D03*
X0197274Y0137268D03*
X0206231Y0135595D03*
X0207215Y0138154D03*
X0207609Y0131068D03*
X0217452Y0126540D03*
X0221585Y0124375D03*
X0221979Y0119453D03*
X0217845Y0114926D03*
X0207215Y0122406D03*
X0230050Y0120044D03*
X0230050Y0124768D03*
X0231428Y0130280D03*
X0240680Y0128705D03*
X0240680Y0125162D03*
X0253475Y0129690D03*
X0257215Y0134414D03*
X0262137Y0126540D03*
X0259971Y0124768D03*
X0265286Y0122406D03*
X0281231Y0123390D03*
X0275129Y0134217D03*
X0263515Y0143272D03*
X0254459Y0144453D03*
X0240286Y0147603D03*
X0248357Y0154296D03*
X0249735Y0158430D03*
X0238908Y0164926D03*
X0236546Y0161973D03*
X0235168Y0165516D03*
X0231231Y0166304D03*
X0229066Y0169453D03*
X0222176Y0160792D03*
X0217648Y0171619D03*
X0217058Y0175359D03*
X0213711Y0171422D03*
X0209774Y0172603D03*
X0240286Y0178705D03*
X0255444Y0182052D03*
X0258200Y0180083D03*
X0257215Y0186579D03*
X0258003Y0189532D03*
X0252491Y0197406D03*
X0246979Y0197800D03*
X0245207Y0205674D03*
X0245404Y0210989D03*
X0242648Y0212957D03*
X0235168Y0215516D03*
X0251507Y0221028D03*
X0254656Y0221816D03*
X0254656Y0224375D03*
X0266664Y0226540D03*
X0290483Y0214729D03*
X0290483Y0211579D03*
X0288121Y0208824D03*
X0288121Y0206068D03*
X0284971Y0206068D03*
X0284971Y0208824D03*
X0281822Y0208824D03*
X0281822Y0206068D03*
X0277885Y0208824D03*
X0274341Y0208824D03*
X0266467Y0212761D03*
X0265877Y0198981D03*
X0279459Y0201343D03*
X0279263Y0194453D03*
X0285168Y0188548D03*
X0291074Y0192288D03*
X0293436Y0192288D03*
X0298160Y0190123D03*
X0296192Y0187367D03*
X0300129Y0187367D03*
X0305444Y0186383D03*
X0312530Y0201737D03*
X0315286Y0201737D03*
X0317255Y0204887D03*
X0320404Y0204887D03*
X0323554Y0204887D03*
X0337333Y0207052D03*
X0356231Y0204887D03*
X0355444Y0196225D03*
X0367452Y0196028D03*
X0375916Y0205871D03*
X0369814Y0213351D03*
X0366664Y0213351D03*
X0363515Y0213351D03*
X0360365Y0213351D03*
X0372963Y0215910D03*
X0389302Y0211186D03*
X0407019Y0211186D03*
X0426704Y0211186D03*
X0432019Y0206855D03*
X0446389Y0211186D03*
X0464893Y0212761D03*
X0475326Y0204690D03*
X0475522Y0200556D03*
X0472373Y0201737D03*
X0480641Y0204099D03*
X0506625Y0211579D03*
X0505444Y0216501D03*
X0529066Y0211973D03*
X0545995Y0215123D03*
X0530050Y0191304D03*
X0525522Y0193272D03*
X0525719Y0185398D03*
X0511546Y0179690D03*
X0506822Y0189532D03*
X0498554Y0180083D03*
X0485956Y0180674D03*
X0481231Y0184808D03*
X0475522Y0184414D03*
X0468042Y0180477D03*
X0463515Y0180280D03*
X0461349Y0168666D03*
X0471389Y0166894D03*
X0475916Y0161776D03*
X0471782Y0156264D03*
X0468042Y0152327D03*
X0463121Y0156658D03*
X0458790Y0147603D03*
X0447963Y0141107D03*
X0444617Y0135398D03*
X0439696Y0139138D03*
X0437137Y0144847D03*
X0439893Y0151737D03*
X0428869Y0152327D03*
X0427688Y0142879D03*
X0428672Y0139138D03*
X0416270Y0140123D03*
X0436546Y0127721D03*
X0462530Y0121619D03*
X0463121Y0115910D03*
X0470011Y0113154D03*
X0458987Y0106855D03*
X0449932Y0098981D03*
X0453278Y0098784D03*
X0459971Y0092879D03*
X0465483Y0097209D03*
X0468239Y0095241D03*
X0469814Y0091304D03*
X0474538Y0093272D03*
X0472176Y0086973D03*
X0463121Y0085005D03*
X0462727Y0080280D03*
X0463515Y0077327D03*
X0467648Y0078115D03*
X0454853Y0076343D03*
X0443239Y0078509D03*
X0436743Y0077131D03*
X0432412Y0077524D03*
X0429381Y0077170D03*
X0426113Y0075949D03*
X0421389Y0070438D03*
X0414105Y0077327D03*
X0403672Y0076737D03*
X0399696Y0076934D03*
X0396979Y0076737D03*
X0392648Y0076343D03*
X0389893Y0070438D03*
X0395207Y0063548D03*
X0401900Y0063548D03*
X0406822Y0070044D03*
X0415680Y0060398D03*
X0426507Y0059611D03*
X0427885Y0062761D03*
X0433790Y0064729D03*
X0447963Y0063942D03*
X0460562Y0062367D03*
X0468042Y0061579D03*
X0470011Y0059217D03*
X0484578Y0069060D03*
X0492845Y0078115D03*
X0495798Y0076146D03*
X0504066Y0075949D03*
X0507412Y0078115D03*
X0507609Y0070438D03*
X0501113Y0063942D03*
X0496389Y0061186D03*
X0488515Y0044060D03*
X0485365Y0034217D03*
X0472176Y0019257D03*
X0511546Y0019257D03*
X0550916Y0019257D03*
X0590286Y0019257D03*
X0590286Y0033430D03*
X0590286Y0072800D03*
X0535168Y0088942D03*
X0532806Y0082642D03*
X0522570Y0080280D03*
X0518633Y0091698D03*
X0510365Y0095241D03*
X0522963Y0099178D03*
X0530050Y0098587D03*
X0533200Y0108233D03*
X0527491Y0117879D03*
X0504656Y0122800D03*
X0486349Y0136579D03*
X0475719Y0132052D03*
X0468633Y0127131D03*
X0475719Y0144060D03*
X0495011Y0151737D03*
X0506625Y0151737D03*
X0526900Y0141698D03*
X0530050Y0143863D03*
X0535168Y0152327D03*
X0590286Y0151540D03*
X0590286Y0112170D03*
X0506428Y0107642D03*
X0483200Y0099572D03*
X0479263Y0099375D03*
X0438908Y0102721D03*
X0436743Y0097603D03*
X0433593Y0095635D03*
X0430444Y0094060D03*
X0421389Y0083627D03*
X0391270Y0096225D03*
X0377097Y0076934D03*
X0370995Y0076343D03*
X0368239Y0077524D03*
X0364302Y0076737D03*
X0360759Y0077131D03*
X0357412Y0076934D03*
X0374538Y0070044D03*
X0369617Y0063548D03*
X0362924Y0063942D03*
X0385759Y0060792D03*
X0393436Y0019257D03*
X0432806Y0019257D03*
X0354066Y0019257D03*
X0314696Y0019257D03*
X0275326Y0019257D03*
X0235956Y0019257D03*
X0196585Y0019257D03*
X0251507Y0044060D03*
X0259971Y0045635D03*
X0261349Y0061776D03*
X0251507Y0061383D03*
X0251507Y0068075D03*
X0247963Y0067485D03*
X0245995Y0072603D03*
X0242255Y0076343D03*
X0239302Y0079887D03*
X0233790Y0076934D03*
X0232806Y0082249D03*
X0230444Y0084414D03*
X0225129Y0088548D03*
X0228475Y0090910D03*
X0221389Y0091304D03*
X0219026Y0094650D03*
X0214105Y0091501D03*
X0211152Y0088942D03*
X0203081Y0091304D03*
X0199341Y0090910D03*
X0195601Y0093469D03*
X0193042Y0088942D03*
X0195011Y0083430D03*
X0201113Y0081855D03*
X0203475Y0080477D03*
X0207215Y0083036D03*
X0213318Y0082249D03*
X0219420Y0084414D03*
X0208003Y0076737D03*
X0200326Y0076146D03*
X0195995Y0077131D03*
X0188121Y0083233D03*
X0168830Y0089335D03*
X0165089Y0087367D03*
X0146782Y0105871D03*
X0142648Y0110201D03*
X0139105Y0110201D03*
X0146389Y0116107D03*
X0146389Y0121225D03*
X0143436Y0123981D03*
X0141664Y0121816D03*
X0151113Y0125753D03*
X0151704Y0128312D03*
X0142255Y0127918D03*
X0161349Y0143863D03*
X0165680Y0143075D03*
X0168239Y0138745D03*
X0176704Y0147012D03*
X0136152Y0152721D03*
X0125719Y0157446D03*
X0119026Y0158627D03*
X0115877Y0162170D03*
X0117058Y0164532D03*
X0115483Y0166698D03*
X0114302Y0169257D03*
X0110168Y0168272D03*
X0109774Y0171028D03*
X0107215Y0175556D03*
X0105247Y0177918D03*
X0103278Y0180674D03*
X0094026Y0181855D03*
X0090877Y0192288D03*
X0088515Y0195241D03*
X0085562Y0195241D03*
X0082806Y0195241D03*
X0082806Y0198194D03*
X0090286Y0198194D03*
X0092058Y0204296D03*
X0092845Y0207249D03*
X0097176Y0203115D03*
X0096782Y0196619D03*
X0100719Y0194847D03*
X0121782Y0183036D03*
X0123751Y0186579D03*
X0142058Y0174178D03*
X0135168Y0173587D03*
X0133200Y0172012D03*
X0124735Y0166501D03*
X0123160Y0164729D03*
X0121782Y0166698D03*
X0105050Y0160989D03*
X0093633Y0170044D03*
X0076507Y0161383D03*
X0076900Y0155871D03*
X0076900Y0150359D03*
X0066467Y0150359D03*
X0062137Y0152918D03*
X0066467Y0155871D03*
X0066467Y0161383D03*
X0062137Y0159611D03*
X0050719Y0152918D03*
X0045995Y0159611D03*
X0062530Y0181264D03*
X0062530Y0186776D03*
X0044420Y0190713D03*
X0043633Y0182839D03*
X0005050Y0176737D03*
X0005050Y0216107D03*
X0048751Y0216698D03*
X0048751Y0223784D03*
X0062530Y0223390D03*
X0062530Y0217485D03*
X0067452Y0233824D03*
X0062727Y0244650D03*
X0062137Y0249375D03*
X0049932Y0243469D03*
X0046782Y0249768D03*
X0005050Y0255477D03*
X0065483Y0285989D03*
X0071782Y0286579D03*
X0068633Y0296422D03*
X0078869Y0296422D03*
X0089105Y0296422D03*
X0092452Y0285595D03*
X0117058Y0300359D03*
X0119814Y0296028D03*
X0124735Y0286579D03*
X0128278Y0286579D03*
X0134774Y0285595D03*
X0145404Y0291894D03*
X0140877Y0306461D03*
X0132412Y0311776D03*
X0137924Y0319453D03*
X0138318Y0325753D03*
X0134184Y0325753D03*
X0143239Y0325949D03*
X0140680Y0332249D03*
X0148160Y0335005D03*
X0148160Y0339729D03*
X0146782Y0345241D03*
X0147963Y0349768D03*
X0154853Y0354493D03*
X0158200Y0354493D03*
X0170011Y0354099D03*
X0179066Y0353312D03*
X0181625Y0349965D03*
X0185956Y0346028D03*
X0178475Y0343272D03*
X0176113Y0340910D03*
X0173751Y0342091D03*
X0174144Y0336186D03*
X0177097Y0336383D03*
X0163121Y0339335D03*
X0159184Y0339335D03*
X0159184Y0343272D03*
X0163121Y0343272D03*
X0170207Y0326343D03*
X0154066Y0325556D03*
X0158396Y0313351D03*
X0155247Y0311776D03*
X0181625Y0300753D03*
X0185956Y0296028D03*
X0179066Y0288745D03*
X0187727Y0284020D03*
X0190680Y0281068D03*
X0181822Y0279296D03*
X0185365Y0276540D03*
X0188121Y0276540D03*
X0189105Y0265910D03*
X0190286Y0262957D03*
X0188711Y0261383D03*
X0173751Y0256264D03*
X0201507Y0248784D03*
X0204066Y0252721D03*
X0210562Y0256461D03*
X0215089Y0251540D03*
X0210956Y0267879D03*
X0208593Y0267879D03*
X0198554Y0282249D03*
X0222373Y0293469D03*
X0234971Y0293469D03*
X0211546Y0313351D03*
X0209184Y0317682D03*
X0209184Y0323587D03*
X0203672Y0327131D03*
X0199735Y0334611D03*
X0217255Y0345831D03*
X0217255Y0348194D03*
X0200522Y0361776D03*
X0196192Y0354690D03*
X0191467Y0354690D03*
X0179066Y0361776D03*
X0181625Y0371225D03*
X0186940Y0372997D03*
X0190483Y0369847D03*
X0193239Y0373784D03*
X0197570Y0373784D03*
X0202097Y0387761D03*
X0188121Y0387957D03*
X0160759Y0365516D03*
X0157609Y0365320D03*
X0154066Y0365320D03*
X0149341Y0365320D03*
X0146979Y0372012D03*
X0142058Y0379690D03*
X0142058Y0387761D03*
X0123357Y0387761D03*
X0127294Y0372800D03*
X0136349Y0369060D03*
X0138318Y0363548D03*
X0126310Y0350556D03*
X0121979Y0350556D03*
X0118436Y0350556D03*
X0113711Y0350556D03*
X0109774Y0349375D03*
X0108987Y0355674D03*
X0104656Y0340320D03*
X0102097Y0335792D03*
X0105837Y0331658D03*
X0105837Y0328115D03*
X0109774Y0328115D03*
X0106231Y0317879D03*
X0108790Y0311776D03*
X0119223Y0317091D03*
X0121979Y0317091D03*
X0088121Y0341894D03*
X0083987Y0340516D03*
X0082412Y0336579D03*
X0078869Y0333036D03*
X0075326Y0340910D03*
X0070601Y0341304D03*
X0065483Y0340910D03*
X0050719Y0347800D03*
X0049735Y0357446D03*
X0081625Y0364532D03*
X0087727Y0356461D03*
X0091664Y0356461D03*
X0083987Y0387761D03*
X0044617Y0387761D03*
X0005247Y0387761D03*
X0005050Y0373587D03*
X0005050Y0334217D03*
X0051113Y0315123D03*
X0057019Y0300556D03*
X0005050Y0294847D03*
X0103869Y0212367D03*
X0106034Y0212367D03*
X0147373Y0185792D03*
X0148160Y0181855D03*
X0146585Y0179493D03*
X0150522Y0177524D03*
X0120207Y0153115D03*
X0120207Y0146225D03*
X0113908Y0138745D03*
X0218830Y0136579D03*
X0229656Y0143863D03*
X0231231Y0141698D03*
X0292058Y0165910D03*
X0296389Y0170241D03*
X0337530Y0184808D03*
X0343633Y0184808D03*
X0346979Y0184611D03*
X0337333Y0196619D03*
X0314105Y0216304D03*
X0311349Y0216304D03*
X0308593Y0216304D03*
X0305444Y0216304D03*
X0302688Y0216304D03*
X0299932Y0216304D03*
X0295601Y0218272D03*
X0298357Y0222209D03*
X0326310Y0226146D03*
X0329066Y0226146D03*
X0329066Y0228902D03*
X0326310Y0228902D03*
X0326310Y0231658D03*
X0329066Y0231658D03*
X0329066Y0234414D03*
X0326310Y0234414D03*
X0343239Y0234414D03*
X0343239Y0231658D03*
X0343239Y0228902D03*
X0343239Y0226146D03*
X0345995Y0226146D03*
X0345995Y0228902D03*
X0345995Y0231658D03*
X0345995Y0234414D03*
X0340089Y0222603D03*
X0337333Y0222603D03*
X0334578Y0222603D03*
X0334578Y0219847D03*
X0337333Y0219847D03*
X0340089Y0219847D03*
X0331822Y0219847D03*
X0331822Y0222603D03*
X0307806Y0241501D03*
X0303475Y0244650D03*
X0282412Y0247209D03*
X0292255Y0258036D03*
X0305444Y0268666D03*
X0274735Y0262761D03*
X0256822Y0249768D03*
X0254853Y0247603D03*
X0259184Y0245635D03*
X0270011Y0284020D03*
X0272176Y0286186D03*
X0276507Y0285398D03*
X0278278Y0288745D03*
X0274144Y0290713D03*
X0279853Y0310398D03*
X0276704Y0311186D03*
X0276507Y0314335D03*
X0272373Y0312761D03*
X0272373Y0317091D03*
X0267648Y0317091D03*
X0283987Y0315123D03*
X0300916Y0338154D03*
X0304853Y0338154D03*
X0308790Y0338154D03*
X0325326Y0344453D03*
X0325326Y0350753D03*
X0325326Y0356658D03*
X0341861Y0345241D03*
X0352688Y0331658D03*
X0371585Y0321028D03*
X0382215Y0332052D03*
X0385365Y0328115D03*
X0395404Y0321225D03*
X0400326Y0321028D03*
X0404263Y0324178D03*
X0407019Y0310595D03*
X0419814Y0292091D03*
X0421585Y0284808D03*
X0424341Y0284808D03*
X0427097Y0284808D03*
X0429853Y0287564D03*
X0434578Y0287564D03*
X0440877Y0287564D03*
X0440877Y0290713D03*
X0445995Y0293863D03*
X0453869Y0297012D03*
X0458593Y0301737D03*
X0458593Y0304493D03*
X0464499Y0305674D03*
X0464499Y0310005D03*
X0464499Y0313548D03*
X0464499Y0318863D03*
X0464499Y0322603D03*
X0464499Y0326146D03*
X0464499Y0330083D03*
X0464499Y0334414D03*
X0464499Y0338351D03*
X0464499Y0342682D03*
X0464499Y0346619D03*
X0464499Y0350162D03*
X0464499Y0353705D03*
X0455444Y0368666D03*
X0438318Y0387761D03*
X0477688Y0387761D03*
X0517058Y0387761D03*
X0556428Y0387761D03*
X0590286Y0387761D03*
X0530247Y0360398D03*
X0534184Y0348587D03*
X0590286Y0348390D03*
X0590286Y0309020D03*
X0534578Y0291894D03*
X0509774Y0284414D03*
X0483593Y0277721D03*
X0469223Y0280477D03*
X0469223Y0284414D03*
X0464499Y0287564D03*
X0460168Y0287564D03*
X0455837Y0287564D03*
X0451507Y0287564D03*
X0446782Y0287564D03*
X0462924Y0294257D03*
X0418042Y0281264D03*
X0414105Y0278509D03*
X0413908Y0285398D03*
X0387924Y0284414D03*
X0350326Y0278902D03*
X0384971Y0251737D03*
X0384971Y0248981D03*
X0384971Y0246225D03*
X0384971Y0243469D03*
X0387727Y0243469D03*
X0387727Y0246225D03*
X0387727Y0248981D03*
X0387727Y0251737D03*
X0389302Y0240713D03*
X0389302Y0237957D03*
X0392058Y0237957D03*
X0394814Y0237957D03*
X0397570Y0237957D03*
X0400326Y0237957D03*
X0403081Y0237957D03*
X0403081Y0240713D03*
X0400326Y0240713D03*
X0397570Y0240713D03*
X0394814Y0240713D03*
X0392058Y0240713D03*
X0405837Y0240713D03*
X0405837Y0237957D03*
X0408593Y0237957D03*
X0408593Y0240713D03*
X0411349Y0243469D03*
X0411349Y0246225D03*
X0411349Y0248981D03*
X0411349Y0251737D03*
X0414105Y0251737D03*
X0414105Y0248981D03*
X0414105Y0246225D03*
X0414105Y0243469D03*
X0451113Y0239729D03*
X0451113Y0235595D03*
X0451113Y0231658D03*
X0458790Y0227131D03*
X0470404Y0224768D03*
X0475129Y0226934D03*
X0475719Y0235792D03*
X0473948Y0247406D03*
X0462727Y0249965D03*
X0474538Y0261383D03*
X0503278Y0252918D03*
X0528081Y0260989D03*
X0534184Y0250162D03*
X0544814Y0263351D03*
X0549932Y0261776D03*
X0572176Y0237761D03*
X0590286Y0230280D03*
X0590286Y0190910D03*
X0590286Y0269650D03*
X0444617Y0179887D03*
X0440089Y0185201D03*
X0432019Y0181264D03*
X0437333Y0176737D03*
X0426113Y0187564D03*
X0419814Y0181264D03*
X0408987Y0174965D03*
X0401507Y0180674D03*
X0404853Y0184414D03*
X0396192Y0173981D03*
X0404853Y0167288D03*
X0408593Y0166698D03*
X0408593Y0161579D03*
X0368633Y0157839D03*
X0428869Y0107642D03*
X0439499Y0107642D03*
X0304853Y0044453D03*
X0281822Y0061186D03*
X0241270Y0064729D03*
X0234184Y0063154D03*
X0219026Y0071816D03*
X0211152Y0070044D03*
X0206231Y0063942D03*
X0200326Y0063942D03*
X0156822Y0070044D03*
X0151113Y0064335D03*
X0144814Y0064729D03*
X0117845Y0019257D03*
X0005050Y0058627D03*
X0005050Y0097997D03*
X0005050Y0137367D03*
X0175326Y0234611D03*
X0290877Y0202918D03*
X0294026Y0202918D03*
X0270995Y0099965D03*
X0270995Y0092879D03*
X0258987Y0094453D03*
X0257019Y0101737D03*
X0385759Y0336776D03*
X0373357Y0349178D03*
X0377491Y0353705D03*
X0379853Y0353705D03*
X0397963Y0358430D03*
X0397963Y0361973D03*
X0398948Y0387761D03*
X0359578Y0387761D03*
X0340286Y0384217D03*
X0338711Y0372012D03*
X0343436Y0372209D03*
X0347767Y0372012D03*
X0294026Y0363942D03*
X0279459Y0359217D03*
X0276310Y0359217D03*
X0270207Y0374768D03*
X0280837Y0387761D03*
X0241467Y0387761D03*
M02*
