G75*
%MOIN*%
%OFA0B0*%
%FSLAX25Y25*%
%IPPOS*%
%LPD*%
%AMOC8*
5,1,8,0,0,1.08239X$1,22.5*
%
%ADD10C,0.00402*%
%ADD11C,0.01585*%
%ADD12R,0.03543X0.03150*%
%ADD13R,0.05906X0.05906*%
%ADD14R,0.05118X0.05906*%
%ADD15R,0.03150X0.05906*%
%ADD16R,0.03150X0.05512*%
%ADD17R,0.02756X0.06890*%
%ADD18R,0.05906X0.03937*%
%ADD19R,0.03937X0.05906*%
%ADD20R,0.01575X0.05315*%
%ADD21R,0.08661X0.02362*%
%ADD22R,0.03937X0.07087*%
%ADD23R,0.06102X0.02362*%
%ADD24C,0.01102*%
%ADD25R,0.01181X0.02362*%
%ADD26R,0.01102X0.00591*%
%ADD27R,0.00591X0.01102*%
%ADD28R,0.04724X0.01181*%
%ADD29R,0.02362X0.08661*%
%ADD30R,0.00984X0.01969*%
%ADD31R,0.00984X0.01575*%
%ADD32R,0.01732X0.02559*%
%ADD33R,0.04528X0.07087*%
%ADD34R,0.03937X0.10630*%
%ADD35R,0.04724X0.02165*%
%ADD36R,0.02717X0.03858*%
%ADD37R,0.02756X0.01654*%
%ADD38R,0.01811X0.01654*%
%ADD39R,0.01181X0.06299*%
%ADD40R,0.05512X0.04724*%
%ADD41R,0.03937X0.02756*%
%ADD42R,0.02756X0.03937*%
%ADD43R,0.01969X0.00984*%
%ADD44R,0.01575X0.00984*%
%ADD45R,0.02559X0.01732*%
%ADD46R,0.03000X0.04500*%
%ADD47R,0.03150X0.03543*%
%ADD48R,0.01654X0.02362*%
%ADD49R,0.06299X0.10630*%
%ADD50R,0.09055X0.09843*%
%ADD51C,0.01575*%
%ADD52R,0.09449X0.02992*%
%ADD53C,0.00906*%
%ADD54R,0.02559X0.03543*%
%ADD55R,0.00866X0.02362*%
%ADD56R,0.03150X0.03150*%
%ADD57R,0.03150X0.05709*%
%ADD58R,0.02362X0.05709*%
D10*
X0083589Y0096448D02*
X0083589Y0098408D01*
X0083589Y0096448D02*
X0081235Y0096448D01*
X0081235Y0098408D01*
X0083589Y0098408D01*
X0083589Y0096849D02*
X0081235Y0096849D01*
X0081235Y0097250D02*
X0083589Y0097250D01*
X0083589Y0097651D02*
X0081235Y0097651D01*
X0081235Y0098052D02*
X0083589Y0098052D01*
X0083589Y0100385D02*
X0083589Y0102345D01*
X0083589Y0100385D02*
X0081235Y0100385D01*
X0081235Y0102345D01*
X0083589Y0102345D01*
X0083589Y0100786D02*
X0081235Y0100786D01*
X0081235Y0101187D02*
X0083589Y0101187D01*
X0083589Y0101588D02*
X0081235Y0101588D01*
X0081235Y0101989D02*
X0083589Y0101989D01*
X0081235Y0105897D02*
X0081235Y0107857D01*
X0083589Y0107857D01*
X0083589Y0105897D01*
X0081235Y0105897D01*
X0081235Y0106298D02*
X0083589Y0106298D01*
X0083589Y0106699D02*
X0081235Y0106699D01*
X0081235Y0107100D02*
X0083589Y0107100D01*
X0083589Y0107501D02*
X0081235Y0107501D01*
X0081235Y0109834D02*
X0081235Y0111794D01*
X0083589Y0111794D01*
X0083589Y0109834D01*
X0081235Y0109834D01*
X0081235Y0110235D02*
X0083589Y0110235D01*
X0083589Y0110636D02*
X0081235Y0110636D01*
X0081235Y0111037D02*
X0083589Y0111037D01*
X0083589Y0111438D02*
X0081235Y0111438D01*
X0087338Y0123999D02*
X0089298Y0123999D01*
X0089298Y0121645D01*
X0087338Y0121645D01*
X0087338Y0123999D01*
X0087338Y0122046D02*
X0089298Y0122046D01*
X0089298Y0122447D02*
X0087338Y0122447D01*
X0087338Y0122848D02*
X0089298Y0122848D01*
X0089298Y0123249D02*
X0087338Y0123249D01*
X0087338Y0123650D02*
X0089298Y0123650D01*
X0091275Y0123999D02*
X0093235Y0123999D01*
X0093235Y0121645D01*
X0091275Y0121645D01*
X0091275Y0123999D01*
X0091275Y0122046D02*
X0093235Y0122046D01*
X0093235Y0122447D02*
X0091275Y0122447D01*
X0091275Y0122848D02*
X0093235Y0122848D01*
X0093235Y0123249D02*
X0091275Y0123249D01*
X0091275Y0123650D02*
X0093235Y0123650D01*
X0121778Y0111794D02*
X0121778Y0109834D01*
X0119424Y0109834D01*
X0119424Y0111794D01*
X0121778Y0111794D01*
X0121778Y0110235D02*
X0119424Y0110235D01*
X0119424Y0110636D02*
X0121778Y0110636D01*
X0121778Y0111037D02*
X0119424Y0111037D01*
X0119424Y0111438D02*
X0121778Y0111438D01*
X0121778Y0107857D02*
X0121778Y0105897D01*
X0119424Y0105897D01*
X0119424Y0107857D01*
X0121778Y0107857D01*
X0121778Y0106298D02*
X0119424Y0106298D01*
X0119424Y0106699D02*
X0121778Y0106699D01*
X0121778Y0107100D02*
X0119424Y0107100D01*
X0119424Y0107501D02*
X0121778Y0107501D01*
X0153086Y0128132D02*
X0155046Y0128132D01*
X0155046Y0125778D01*
X0153086Y0125778D01*
X0153086Y0128132D01*
X0153086Y0126179D02*
X0155046Y0126179D01*
X0155046Y0126580D02*
X0153086Y0126580D01*
X0153086Y0126981D02*
X0155046Y0126981D01*
X0155046Y0127382D02*
X0153086Y0127382D01*
X0153086Y0127783D02*
X0155046Y0127783D01*
X0157023Y0128132D02*
X0158983Y0128132D01*
X0158983Y0125778D01*
X0157023Y0125778D01*
X0157023Y0128132D01*
X0157023Y0126179D02*
X0158983Y0126179D01*
X0158983Y0126580D02*
X0157023Y0126580D01*
X0157023Y0126981D02*
X0158983Y0126981D01*
X0158983Y0127382D02*
X0157023Y0127382D01*
X0157023Y0127783D02*
X0158983Y0127783D01*
X0143695Y0147553D02*
X0142309Y0148939D01*
X0143695Y0147553D02*
X0142031Y0145889D01*
X0140645Y0147275D01*
X0142309Y0148939D01*
X0142432Y0146290D02*
X0141630Y0146290D01*
X0141229Y0146691D02*
X0142833Y0146691D01*
X0143234Y0147092D02*
X0140828Y0147092D01*
X0140863Y0147493D02*
X0143635Y0147493D01*
X0143354Y0147894D02*
X0141264Y0147894D01*
X0141665Y0148295D02*
X0142953Y0148295D01*
X0142552Y0148696D02*
X0142066Y0148696D01*
X0140911Y0150337D02*
X0139525Y0151723D01*
X0140911Y0150337D02*
X0139247Y0148673D01*
X0137861Y0150059D01*
X0139525Y0151723D01*
X0139648Y0149074D02*
X0138846Y0149074D01*
X0138445Y0149475D02*
X0140049Y0149475D01*
X0140450Y0149876D02*
X0138044Y0149876D01*
X0138079Y0150277D02*
X0140851Y0150277D01*
X0140570Y0150678D02*
X0138480Y0150678D01*
X0138881Y0151079D02*
X0140169Y0151079D01*
X0139768Y0151480D02*
X0139282Y0151480D01*
X0129424Y0161923D02*
X0128038Y0163309D01*
X0129424Y0161923D02*
X0127760Y0160259D01*
X0126374Y0161645D01*
X0128038Y0163309D01*
X0128161Y0160660D02*
X0127359Y0160660D01*
X0126958Y0161061D02*
X0128562Y0161061D01*
X0128963Y0161462D02*
X0126557Y0161462D01*
X0126592Y0161863D02*
X0129364Y0161863D01*
X0129083Y0162264D02*
X0126993Y0162264D01*
X0127394Y0162665D02*
X0128682Y0162665D01*
X0128281Y0163066D02*
X0127795Y0163066D01*
X0126640Y0164707D02*
X0125254Y0166093D01*
X0126640Y0164707D02*
X0124976Y0163043D01*
X0123590Y0164429D01*
X0125254Y0166093D01*
X0125377Y0163444D02*
X0124575Y0163444D01*
X0124174Y0163845D02*
X0125778Y0163845D01*
X0126179Y0164246D02*
X0123773Y0164246D01*
X0123808Y0164647D02*
X0126580Y0164647D01*
X0126299Y0165048D02*
X0124209Y0165048D01*
X0124610Y0165449D02*
X0125898Y0165449D01*
X0125497Y0165850D02*
X0125011Y0165850D01*
X0111412Y0180033D02*
X0110026Y0181419D01*
X0111412Y0180033D02*
X0109748Y0178369D01*
X0108362Y0179755D01*
X0110026Y0181419D01*
X0110149Y0178770D02*
X0109347Y0178770D01*
X0108946Y0179171D02*
X0110550Y0179171D01*
X0110951Y0179572D02*
X0108545Y0179572D01*
X0108580Y0179973D02*
X0111352Y0179973D01*
X0111071Y0180374D02*
X0108981Y0180374D01*
X0109382Y0180775D02*
X0110670Y0180775D01*
X0110269Y0181176D02*
X0109783Y0181176D01*
X0108628Y0182817D02*
X0107242Y0184203D01*
X0108628Y0182817D02*
X0106964Y0181153D01*
X0105578Y0182539D01*
X0107242Y0184203D01*
X0107365Y0181554D02*
X0106563Y0181554D01*
X0106162Y0181955D02*
X0107766Y0181955D01*
X0108167Y0182356D02*
X0105761Y0182356D01*
X0105796Y0182757D02*
X0108568Y0182757D01*
X0108287Y0183158D02*
X0106197Y0183158D01*
X0106598Y0183559D02*
X0107886Y0183559D01*
X0107485Y0183960D02*
X0106999Y0183960D01*
X0111179Y0209373D02*
X0112565Y0210759D01*
X0111179Y0209373D02*
X0109515Y0211037D01*
X0110901Y0212423D01*
X0112565Y0210759D01*
X0111580Y0209774D02*
X0110778Y0209774D01*
X0110377Y0210175D02*
X0111981Y0210175D01*
X0112382Y0210576D02*
X0109976Y0210576D01*
X0109575Y0210977D02*
X0112347Y0210977D01*
X0111946Y0211378D02*
X0109856Y0211378D01*
X0110257Y0211779D02*
X0111545Y0211779D01*
X0111144Y0212180D02*
X0110658Y0212180D01*
X0113963Y0212157D02*
X0115349Y0213543D01*
X0113963Y0212157D02*
X0112299Y0213821D01*
X0113685Y0215207D01*
X0115349Y0213543D01*
X0114364Y0212558D02*
X0113562Y0212558D01*
X0113161Y0212959D02*
X0114765Y0212959D01*
X0115166Y0213360D02*
X0112760Y0213360D01*
X0112359Y0213761D02*
X0115131Y0213761D01*
X0114730Y0214162D02*
X0112640Y0214162D01*
X0113041Y0214563D02*
X0114329Y0214563D01*
X0113928Y0214964D02*
X0113442Y0214964D01*
X0104070Y0216133D02*
X0104070Y0218093D01*
X0106424Y0218093D01*
X0106424Y0216133D01*
X0104070Y0216133D01*
X0104070Y0216534D02*
X0106424Y0216534D01*
X0106424Y0216935D02*
X0104070Y0216935D01*
X0104070Y0217336D02*
X0106424Y0217336D01*
X0106424Y0217737D02*
X0104070Y0217737D01*
X0104070Y0220070D02*
X0104070Y0222030D01*
X0106424Y0222030D01*
X0106424Y0220070D01*
X0104070Y0220070D01*
X0104070Y0220471D02*
X0106424Y0220471D01*
X0106424Y0220872D02*
X0104070Y0220872D01*
X0104070Y0221273D02*
X0106424Y0221273D01*
X0106424Y0221674D02*
X0104070Y0221674D01*
X0129191Y0228960D02*
X0130577Y0230346D01*
X0129191Y0228960D02*
X0127527Y0230624D01*
X0128913Y0232010D01*
X0130577Y0230346D01*
X0129592Y0229361D02*
X0128790Y0229361D01*
X0128389Y0229762D02*
X0129993Y0229762D01*
X0130394Y0230163D02*
X0127988Y0230163D01*
X0127587Y0230564D02*
X0130359Y0230564D01*
X0129958Y0230965D02*
X0127868Y0230965D01*
X0128269Y0231366D02*
X0129557Y0231366D01*
X0129156Y0231767D02*
X0128670Y0231767D01*
X0131975Y0231744D02*
X0133361Y0233130D01*
X0131975Y0231744D02*
X0130311Y0233408D01*
X0131697Y0234794D01*
X0133361Y0233130D01*
X0132376Y0232145D02*
X0131574Y0232145D01*
X0131173Y0232546D02*
X0132777Y0232546D01*
X0133178Y0232947D02*
X0130772Y0232947D01*
X0130371Y0233348D02*
X0133143Y0233348D01*
X0132742Y0233749D02*
X0130652Y0233749D01*
X0131053Y0234150D02*
X0132341Y0234150D01*
X0131940Y0234551D02*
X0131454Y0234551D01*
X0144545Y0245594D02*
X0145931Y0246980D01*
X0144545Y0245594D02*
X0142881Y0247258D01*
X0144267Y0248644D01*
X0145931Y0246980D01*
X0144946Y0245995D02*
X0144144Y0245995D01*
X0143743Y0246396D02*
X0145347Y0246396D01*
X0145748Y0246797D02*
X0143342Y0246797D01*
X0142941Y0247198D02*
X0145713Y0247198D01*
X0145312Y0247599D02*
X0143222Y0247599D01*
X0143623Y0248000D02*
X0144911Y0248000D01*
X0144510Y0248401D02*
X0144024Y0248401D01*
X0147329Y0248377D02*
X0148715Y0249763D01*
X0147329Y0248377D02*
X0145665Y0250041D01*
X0147051Y0251427D01*
X0148715Y0249763D01*
X0147730Y0248778D02*
X0146928Y0248778D01*
X0146527Y0249179D02*
X0148131Y0249179D01*
X0148532Y0249580D02*
X0146126Y0249580D01*
X0145725Y0249981D02*
X0148497Y0249981D01*
X0148096Y0250382D02*
X0146006Y0250382D01*
X0146407Y0250783D02*
X0147695Y0250783D01*
X0147294Y0251184D02*
X0146808Y0251184D01*
X0161474Y0261440D02*
X0162860Y0262826D01*
X0161474Y0261440D02*
X0159810Y0263104D01*
X0161196Y0264490D01*
X0162860Y0262826D01*
X0161875Y0261841D02*
X0161073Y0261841D01*
X0160672Y0262242D02*
X0162276Y0262242D01*
X0162677Y0262643D02*
X0160271Y0262643D01*
X0159870Y0263044D02*
X0162642Y0263044D01*
X0162241Y0263445D02*
X0160151Y0263445D01*
X0160552Y0263846D02*
X0161840Y0263846D01*
X0161439Y0264247D02*
X0160953Y0264247D01*
X0164258Y0264224D02*
X0165644Y0265610D01*
X0164258Y0264224D02*
X0162594Y0265888D01*
X0163980Y0267274D01*
X0165644Y0265610D01*
X0164659Y0264625D02*
X0163857Y0264625D01*
X0163456Y0265026D02*
X0165060Y0265026D01*
X0165461Y0265427D02*
X0163055Y0265427D01*
X0162654Y0265828D02*
X0165426Y0265828D01*
X0165025Y0266229D02*
X0162935Y0266229D01*
X0163336Y0266630D02*
X0164624Y0266630D01*
X0164223Y0267031D02*
X0163737Y0267031D01*
X0191789Y0263140D02*
X0193175Y0261754D01*
X0191511Y0260090D01*
X0190125Y0261476D01*
X0191789Y0263140D01*
X0191912Y0260491D02*
X0191110Y0260491D01*
X0190709Y0260892D02*
X0192313Y0260892D01*
X0192714Y0261293D02*
X0190308Y0261293D01*
X0190343Y0261694D02*
X0193115Y0261694D01*
X0192834Y0262095D02*
X0190744Y0262095D01*
X0191145Y0262496D02*
X0192433Y0262496D01*
X0192032Y0262897D02*
X0191546Y0262897D01*
X0194573Y0260356D02*
X0195959Y0258970D01*
X0194295Y0257306D01*
X0192909Y0258692D01*
X0194573Y0260356D01*
X0194696Y0257707D02*
X0193894Y0257707D01*
X0193493Y0258108D02*
X0195097Y0258108D01*
X0195498Y0258509D02*
X0193092Y0258509D01*
X0193127Y0258910D02*
X0195899Y0258910D01*
X0195618Y0259311D02*
X0193528Y0259311D01*
X0193929Y0259712D02*
X0195217Y0259712D01*
X0194816Y0260113D02*
X0194330Y0260113D01*
X0202298Y0257274D02*
X0204258Y0257274D01*
X0202298Y0257274D02*
X0202298Y0259628D01*
X0204258Y0259628D01*
X0204258Y0257274D01*
X0204258Y0257675D02*
X0202298Y0257675D01*
X0202298Y0258076D02*
X0204258Y0258076D01*
X0204258Y0258477D02*
X0202298Y0258477D01*
X0202298Y0258878D02*
X0204258Y0258878D01*
X0204258Y0259279D02*
X0202298Y0259279D01*
X0206235Y0257274D02*
X0208195Y0257274D01*
X0206235Y0257274D02*
X0206235Y0259628D01*
X0208195Y0259628D01*
X0208195Y0257274D01*
X0208195Y0257675D02*
X0206235Y0257675D01*
X0206235Y0258076D02*
X0208195Y0258076D01*
X0208195Y0258477D02*
X0206235Y0258477D01*
X0206235Y0258878D02*
X0208195Y0258878D01*
X0208195Y0259279D02*
X0206235Y0259279D01*
X0206365Y0244547D02*
X0207751Y0243161D01*
X0206365Y0244547D02*
X0208029Y0246211D01*
X0209415Y0244825D01*
X0207751Y0243161D01*
X0208152Y0243562D02*
X0207350Y0243562D01*
X0206949Y0243963D02*
X0208553Y0243963D01*
X0208954Y0244364D02*
X0206548Y0244364D01*
X0206583Y0244765D02*
X0209355Y0244765D01*
X0209074Y0245166D02*
X0206984Y0245166D01*
X0207385Y0245567D02*
X0208673Y0245567D01*
X0208272Y0245968D02*
X0207786Y0245968D01*
X0209149Y0241763D02*
X0210535Y0240377D01*
X0209149Y0241763D02*
X0210813Y0243427D01*
X0212199Y0242041D01*
X0210535Y0240377D01*
X0210936Y0240778D02*
X0210134Y0240778D01*
X0209733Y0241179D02*
X0211337Y0241179D01*
X0211738Y0241580D02*
X0209332Y0241580D01*
X0209367Y0241981D02*
X0212139Y0241981D01*
X0211858Y0242382D02*
X0209768Y0242382D01*
X0210169Y0242783D02*
X0211457Y0242783D01*
X0211056Y0243184D02*
X0210570Y0243184D01*
X0222901Y0232145D02*
X0224287Y0230759D01*
X0222901Y0232145D02*
X0224565Y0233809D01*
X0225951Y0232423D01*
X0224287Y0230759D01*
X0224688Y0231160D02*
X0223886Y0231160D01*
X0223485Y0231561D02*
X0225089Y0231561D01*
X0225490Y0231962D02*
X0223084Y0231962D01*
X0223119Y0232363D02*
X0225891Y0232363D01*
X0225610Y0232764D02*
X0223520Y0232764D01*
X0223921Y0233165D02*
X0225209Y0233165D01*
X0224808Y0233566D02*
X0224322Y0233566D01*
X0225685Y0229361D02*
X0227071Y0227975D01*
X0225685Y0229361D02*
X0227349Y0231025D01*
X0228735Y0229639D01*
X0227071Y0227975D01*
X0227472Y0228376D02*
X0226670Y0228376D01*
X0226269Y0228777D02*
X0227873Y0228777D01*
X0228274Y0229178D02*
X0225868Y0229178D01*
X0225903Y0229579D02*
X0228675Y0229579D01*
X0228394Y0229980D02*
X0226304Y0229980D01*
X0226705Y0230381D02*
X0227993Y0230381D01*
X0227592Y0230782D02*
X0227106Y0230782D01*
X0231857Y0229639D02*
X0233243Y0231025D01*
X0234907Y0229361D01*
X0233521Y0227975D01*
X0231857Y0229639D01*
X0233120Y0228376D02*
X0233922Y0228376D01*
X0234323Y0228777D02*
X0232719Y0228777D01*
X0232318Y0229178D02*
X0234724Y0229178D01*
X0234689Y0229579D02*
X0231917Y0229579D01*
X0232198Y0229980D02*
X0234288Y0229980D01*
X0233887Y0230381D02*
X0232599Y0230381D01*
X0233000Y0230782D02*
X0233486Y0230782D01*
X0234641Y0232423D02*
X0236027Y0233809D01*
X0237691Y0232145D01*
X0236305Y0230759D01*
X0234641Y0232423D01*
X0235904Y0231160D02*
X0236706Y0231160D01*
X0237107Y0231561D02*
X0235503Y0231561D01*
X0235102Y0231962D02*
X0237508Y0231962D01*
X0237473Y0232363D02*
X0234701Y0232363D01*
X0234982Y0232764D02*
X0237072Y0232764D01*
X0236671Y0233165D02*
X0235383Y0233165D01*
X0235784Y0233566D02*
X0236270Y0233566D01*
X0247574Y0216321D02*
X0249534Y0216321D01*
X0249534Y0213967D01*
X0247574Y0213967D01*
X0247574Y0216321D01*
X0247574Y0214368D02*
X0249534Y0214368D01*
X0249534Y0214769D02*
X0247574Y0214769D01*
X0247574Y0215170D02*
X0249534Y0215170D01*
X0249534Y0215571D02*
X0247574Y0215571D01*
X0247574Y0215972D02*
X0249534Y0215972D01*
X0251511Y0216321D02*
X0253471Y0216321D01*
X0253471Y0213967D01*
X0251511Y0213967D01*
X0251511Y0216321D01*
X0251511Y0214368D02*
X0253471Y0214368D01*
X0253471Y0214769D02*
X0251511Y0214769D01*
X0251511Y0215170D02*
X0253471Y0215170D01*
X0253471Y0215571D02*
X0251511Y0215571D01*
X0251511Y0215972D02*
X0253471Y0215972D01*
X0253471Y0211597D02*
X0251511Y0211597D01*
X0253471Y0211597D02*
X0253471Y0209243D01*
X0251511Y0209243D01*
X0251511Y0211597D01*
X0251511Y0209644D02*
X0253471Y0209644D01*
X0253471Y0210045D02*
X0251511Y0210045D01*
X0251511Y0210446D02*
X0253471Y0210446D01*
X0253471Y0210847D02*
X0251511Y0210847D01*
X0251511Y0211248D02*
X0253471Y0211248D01*
X0249534Y0211597D02*
X0247574Y0211597D01*
X0249534Y0211597D02*
X0249534Y0209243D01*
X0247574Y0209243D01*
X0247574Y0211597D01*
X0247574Y0209644D02*
X0249534Y0209644D01*
X0249534Y0210045D02*
X0247574Y0210045D01*
X0247574Y0210446D02*
X0249534Y0210446D01*
X0249534Y0210847D02*
X0247574Y0210847D01*
X0247574Y0211248D02*
X0249534Y0211248D01*
X0242917Y0208290D02*
X0241531Y0209676D01*
X0243195Y0211340D01*
X0244581Y0209954D01*
X0242917Y0208290D01*
X0243318Y0208691D02*
X0242516Y0208691D01*
X0242115Y0209092D02*
X0243719Y0209092D01*
X0244120Y0209493D02*
X0241714Y0209493D01*
X0241749Y0209894D02*
X0244521Y0209894D01*
X0244240Y0210295D02*
X0242150Y0210295D01*
X0242551Y0210696D02*
X0243839Y0210696D01*
X0243438Y0211097D02*
X0242952Y0211097D01*
X0240133Y0211074D02*
X0238747Y0212460D01*
X0240411Y0214124D01*
X0241797Y0212738D01*
X0240133Y0211074D01*
X0240534Y0211475D02*
X0239732Y0211475D01*
X0239331Y0211876D02*
X0240935Y0211876D01*
X0241336Y0212277D02*
X0238930Y0212277D01*
X0238965Y0212678D02*
X0241737Y0212678D01*
X0241456Y0213079D02*
X0239366Y0213079D01*
X0239767Y0213480D02*
X0241055Y0213480D01*
X0240654Y0213881D02*
X0240168Y0213881D01*
X0247574Y0204519D02*
X0249534Y0204519D01*
X0247574Y0204519D02*
X0247574Y0206873D01*
X0249534Y0206873D01*
X0249534Y0204519D01*
X0249534Y0204920D02*
X0247574Y0204920D01*
X0247574Y0205321D02*
X0249534Y0205321D01*
X0249534Y0205722D02*
X0247574Y0205722D01*
X0247574Y0206123D02*
X0249534Y0206123D01*
X0249534Y0206524D02*
X0247574Y0206524D01*
X0251511Y0204519D02*
X0253471Y0204519D01*
X0251511Y0204519D02*
X0251511Y0206873D01*
X0253471Y0206873D01*
X0253471Y0204519D01*
X0253471Y0204920D02*
X0251511Y0204920D01*
X0251511Y0205321D02*
X0253471Y0205321D01*
X0253471Y0205722D02*
X0251511Y0205722D01*
X0251511Y0206123D02*
X0253471Y0206123D01*
X0253471Y0206524D02*
X0251511Y0206524D01*
X0247534Y0180964D02*
X0246148Y0179578D01*
X0244484Y0181242D01*
X0245870Y0182628D01*
X0247534Y0180964D01*
X0246549Y0179979D02*
X0245747Y0179979D01*
X0245346Y0180380D02*
X0246950Y0180380D01*
X0247351Y0180781D02*
X0244945Y0180781D01*
X0244544Y0181182D02*
X0247316Y0181182D01*
X0246915Y0181583D02*
X0244825Y0181583D01*
X0245226Y0181984D02*
X0246514Y0181984D01*
X0246113Y0182385D02*
X0245627Y0182385D01*
X0244750Y0178180D02*
X0243364Y0176794D01*
X0241700Y0178458D01*
X0243086Y0179844D01*
X0244750Y0178180D01*
X0243765Y0177195D02*
X0242963Y0177195D01*
X0242562Y0177596D02*
X0244166Y0177596D01*
X0244567Y0177997D02*
X0242161Y0177997D01*
X0241760Y0178398D02*
X0244532Y0178398D01*
X0244131Y0178799D02*
X0242041Y0178799D01*
X0242442Y0179200D02*
X0243730Y0179200D01*
X0243329Y0179601D02*
X0242843Y0179601D01*
X0249691Y0176035D02*
X0251077Y0177421D01*
X0249691Y0176035D02*
X0248027Y0177699D01*
X0249413Y0179085D01*
X0251077Y0177421D01*
X0250092Y0176436D02*
X0249290Y0176436D01*
X0248889Y0176837D02*
X0250493Y0176837D01*
X0250894Y0177238D02*
X0248488Y0177238D01*
X0248087Y0177639D02*
X0250859Y0177639D01*
X0250458Y0178040D02*
X0248368Y0178040D01*
X0248769Y0178441D02*
X0250057Y0178441D01*
X0249656Y0178842D02*
X0249170Y0178842D01*
X0248293Y0174637D02*
X0246907Y0173251D01*
X0245243Y0174915D01*
X0246629Y0176301D01*
X0248293Y0174637D01*
X0247308Y0173652D02*
X0246506Y0173652D01*
X0246105Y0174053D02*
X0247709Y0174053D01*
X0248110Y0174454D02*
X0245704Y0174454D01*
X0245303Y0174855D02*
X0248075Y0174855D01*
X0247674Y0175256D02*
X0245584Y0175256D01*
X0245985Y0175657D02*
X0247273Y0175657D01*
X0246872Y0176058D02*
X0246386Y0176058D01*
X0242720Y0174361D02*
X0241334Y0172975D01*
X0242720Y0174361D02*
X0244384Y0172697D01*
X0242998Y0171311D01*
X0241334Y0172975D01*
X0242597Y0171712D02*
X0243399Y0171712D01*
X0243800Y0172113D02*
X0242196Y0172113D01*
X0241795Y0172514D02*
X0244201Y0172514D01*
X0244166Y0172915D02*
X0241394Y0172915D01*
X0241675Y0173316D02*
X0243765Y0173316D01*
X0243364Y0173717D02*
X0242076Y0173717D01*
X0242477Y0174118D02*
X0242963Y0174118D01*
X0239936Y0171577D02*
X0238550Y0170191D01*
X0239936Y0171577D02*
X0241600Y0169913D01*
X0240214Y0168527D01*
X0238550Y0170191D01*
X0239813Y0168928D02*
X0240615Y0168928D01*
X0241016Y0169329D02*
X0239412Y0169329D01*
X0239011Y0169730D02*
X0241417Y0169730D01*
X0241382Y0170131D02*
X0238610Y0170131D01*
X0238891Y0170532D02*
X0240981Y0170532D01*
X0240580Y0170933D02*
X0239292Y0170933D01*
X0239693Y0171334D02*
X0240179Y0171334D01*
X0238282Y0173484D02*
X0236896Y0172098D01*
X0235232Y0173762D01*
X0236618Y0175148D01*
X0238282Y0173484D01*
X0237297Y0172499D02*
X0236495Y0172499D01*
X0236094Y0172900D02*
X0237698Y0172900D01*
X0238099Y0173301D02*
X0235693Y0173301D01*
X0235292Y0173702D02*
X0238064Y0173702D01*
X0237663Y0174103D02*
X0235573Y0174103D01*
X0235974Y0174504D02*
X0237262Y0174504D01*
X0236861Y0174905D02*
X0236375Y0174905D01*
X0235498Y0170700D02*
X0234112Y0169314D01*
X0232448Y0170978D01*
X0233834Y0172364D01*
X0235498Y0170700D01*
X0234513Y0169715D02*
X0233711Y0169715D01*
X0233310Y0170116D02*
X0234914Y0170116D01*
X0235315Y0170517D02*
X0232909Y0170517D01*
X0232508Y0170918D02*
X0235280Y0170918D01*
X0234879Y0171319D02*
X0232789Y0171319D01*
X0233190Y0171720D02*
X0234478Y0171720D01*
X0234077Y0172121D02*
X0233591Y0172121D01*
X0242094Y0166647D02*
X0243480Y0168033D01*
X0245144Y0166369D01*
X0243758Y0164983D01*
X0242094Y0166647D01*
X0243357Y0165384D02*
X0244159Y0165384D01*
X0244560Y0165785D02*
X0242956Y0165785D01*
X0242555Y0166186D02*
X0244961Y0166186D01*
X0244926Y0166587D02*
X0242154Y0166587D01*
X0242435Y0166988D02*
X0244525Y0166988D01*
X0244124Y0167389D02*
X0242836Y0167389D01*
X0243237Y0167790D02*
X0243723Y0167790D01*
X0244878Y0169431D02*
X0246264Y0170817D01*
X0247928Y0169153D01*
X0246542Y0167767D01*
X0244878Y0169431D01*
X0246141Y0168168D02*
X0246943Y0168168D01*
X0247344Y0168569D02*
X0245740Y0168569D01*
X0245339Y0168970D02*
X0247745Y0168970D01*
X0247710Y0169371D02*
X0244938Y0169371D01*
X0245219Y0169772D02*
X0247309Y0169772D01*
X0246908Y0170173D02*
X0245620Y0170173D01*
X0246021Y0170574D02*
X0246507Y0170574D01*
X0249807Y0167274D02*
X0248421Y0165888D01*
X0249807Y0167274D02*
X0251471Y0165610D01*
X0250085Y0164224D01*
X0248421Y0165888D01*
X0249684Y0164625D02*
X0250486Y0164625D01*
X0250887Y0165026D02*
X0249283Y0165026D01*
X0248882Y0165427D02*
X0251288Y0165427D01*
X0251253Y0165828D02*
X0248481Y0165828D01*
X0248762Y0166229D02*
X0250852Y0166229D01*
X0250451Y0166630D02*
X0249163Y0166630D01*
X0249564Y0167031D02*
X0250050Y0167031D01*
X0247023Y0164490D02*
X0245637Y0163104D01*
X0247023Y0164490D02*
X0248687Y0162826D01*
X0247301Y0161440D01*
X0245637Y0163104D01*
X0246900Y0161841D02*
X0247702Y0161841D01*
X0248103Y0162242D02*
X0246499Y0162242D01*
X0246098Y0162643D02*
X0248504Y0162643D01*
X0248469Y0163044D02*
X0245697Y0163044D01*
X0245978Y0163445D02*
X0248068Y0163445D01*
X0247667Y0163846D02*
X0246379Y0163846D01*
X0246780Y0164247D02*
X0247266Y0164247D01*
X0241207Y0161163D02*
X0239821Y0162549D01*
X0241207Y0161163D02*
X0239543Y0159499D01*
X0238157Y0160885D01*
X0239821Y0162549D01*
X0239944Y0159900D02*
X0239142Y0159900D01*
X0238741Y0160301D02*
X0240345Y0160301D01*
X0240746Y0160702D02*
X0238340Y0160702D01*
X0238375Y0161103D02*
X0241147Y0161103D01*
X0240866Y0161504D02*
X0238776Y0161504D01*
X0239177Y0161905D02*
X0240465Y0161905D01*
X0240064Y0162306D02*
X0239578Y0162306D01*
X0242605Y0159766D02*
X0243991Y0158380D01*
X0242327Y0156716D01*
X0240941Y0158102D01*
X0242605Y0159766D01*
X0242728Y0157117D02*
X0241926Y0157117D01*
X0241525Y0157518D02*
X0243129Y0157518D01*
X0243530Y0157919D02*
X0241124Y0157919D01*
X0241159Y0158320D02*
X0243931Y0158320D01*
X0243650Y0158721D02*
X0241560Y0158721D01*
X0241961Y0159122D02*
X0243249Y0159122D01*
X0242848Y0159523D02*
X0242362Y0159523D01*
X0250451Y0152313D02*
X0251837Y0150927D01*
X0250173Y0149263D01*
X0248787Y0150649D01*
X0250451Y0152313D01*
X0250574Y0149664D02*
X0249772Y0149664D01*
X0249371Y0150065D02*
X0250975Y0150065D01*
X0251376Y0150466D02*
X0248970Y0150466D01*
X0249005Y0150867D02*
X0251777Y0150867D01*
X0251496Y0151268D02*
X0249406Y0151268D01*
X0249807Y0151669D02*
X0251095Y0151669D01*
X0250694Y0152070D02*
X0250208Y0152070D01*
X0253234Y0149529D02*
X0254620Y0148143D01*
X0252956Y0146479D01*
X0251570Y0147865D01*
X0253234Y0149529D01*
X0253357Y0146880D02*
X0252555Y0146880D01*
X0252154Y0147281D02*
X0253758Y0147281D01*
X0254159Y0147682D02*
X0251753Y0147682D01*
X0251788Y0148083D02*
X0254560Y0148083D01*
X0254279Y0148484D02*
X0252189Y0148484D01*
X0252590Y0148885D02*
X0253878Y0148885D01*
X0253477Y0149286D02*
X0252991Y0149286D01*
X0268046Y0152944D02*
X0270006Y0152944D01*
X0268046Y0152944D02*
X0268046Y0155298D01*
X0270006Y0155298D01*
X0270006Y0152944D01*
X0270006Y0153345D02*
X0268046Y0153345D01*
X0268046Y0153746D02*
X0270006Y0153746D01*
X0270006Y0154147D02*
X0268046Y0154147D01*
X0268046Y0154548D02*
X0270006Y0154548D01*
X0270006Y0154949D02*
X0268046Y0154949D01*
X0271983Y0152944D02*
X0273943Y0152944D01*
X0271983Y0152944D02*
X0271983Y0155298D01*
X0273943Y0155298D01*
X0273943Y0152944D01*
X0273943Y0153345D02*
X0271983Y0153345D01*
X0271983Y0153746D02*
X0273943Y0153746D01*
X0273943Y0154147D02*
X0271983Y0154147D01*
X0271983Y0154548D02*
X0273943Y0154548D01*
X0273943Y0154949D02*
X0271983Y0154949D01*
X0242191Y0133408D02*
X0240805Y0134794D01*
X0242191Y0133408D02*
X0240527Y0131744D01*
X0239141Y0133130D01*
X0240805Y0134794D01*
X0240928Y0132145D02*
X0240126Y0132145D01*
X0239725Y0132546D02*
X0241329Y0132546D01*
X0241730Y0132947D02*
X0239324Y0132947D01*
X0239359Y0133348D02*
X0242131Y0133348D01*
X0241850Y0133749D02*
X0239760Y0133749D01*
X0240161Y0134150D02*
X0241449Y0134150D01*
X0241048Y0134551D02*
X0240562Y0134551D01*
X0238479Y0137907D02*
X0237093Y0139293D01*
X0238479Y0137907D02*
X0236815Y0136243D01*
X0235429Y0137629D01*
X0237093Y0139293D01*
X0237216Y0136644D02*
X0236414Y0136644D01*
X0236013Y0137045D02*
X0237617Y0137045D01*
X0238018Y0137446D02*
X0235612Y0137446D01*
X0235647Y0137847D02*
X0238419Y0137847D01*
X0238138Y0138248D02*
X0236048Y0138248D01*
X0236449Y0138649D02*
X0237737Y0138649D01*
X0237336Y0139050D02*
X0236850Y0139050D01*
X0235695Y0140691D02*
X0234309Y0142077D01*
X0235695Y0140691D02*
X0234031Y0139027D01*
X0232645Y0140413D01*
X0234309Y0142077D01*
X0234432Y0139428D02*
X0233630Y0139428D01*
X0233229Y0139829D02*
X0234833Y0139829D01*
X0235234Y0140230D02*
X0232828Y0140230D01*
X0232863Y0140631D02*
X0235635Y0140631D01*
X0235354Y0141032D02*
X0233264Y0141032D01*
X0233665Y0141433D02*
X0234953Y0141433D01*
X0234552Y0141834D02*
X0234066Y0141834D01*
X0231159Y0138927D02*
X0232545Y0137541D01*
X0230881Y0135877D01*
X0229495Y0137263D01*
X0231159Y0138927D01*
X0231282Y0136278D02*
X0230480Y0136278D01*
X0230079Y0136679D02*
X0231683Y0136679D01*
X0232084Y0137080D02*
X0229678Y0137080D01*
X0229713Y0137481D02*
X0232485Y0137481D01*
X0232204Y0137882D02*
X0230114Y0137882D01*
X0230515Y0138283D02*
X0231803Y0138283D01*
X0231402Y0138684D02*
X0230916Y0138684D01*
X0228153Y0138605D02*
X0226767Y0139991D01*
X0228431Y0141655D01*
X0229817Y0140269D01*
X0228153Y0138605D01*
X0228554Y0139006D02*
X0227752Y0139006D01*
X0227351Y0139407D02*
X0228955Y0139407D01*
X0229356Y0139808D02*
X0226950Y0139808D01*
X0226985Y0140209D02*
X0229757Y0140209D01*
X0229476Y0140610D02*
X0227386Y0140610D01*
X0227787Y0141011D02*
X0229075Y0141011D01*
X0228674Y0141412D02*
X0228188Y0141412D01*
X0225369Y0141389D02*
X0223983Y0142775D01*
X0225647Y0144439D01*
X0227033Y0143053D01*
X0225369Y0141389D01*
X0225770Y0141790D02*
X0224968Y0141790D01*
X0224567Y0142191D02*
X0226171Y0142191D01*
X0226572Y0142592D02*
X0224166Y0142592D01*
X0224201Y0142993D02*
X0226973Y0142993D01*
X0226692Y0143394D02*
X0224602Y0143394D01*
X0225003Y0143795D02*
X0226291Y0143795D01*
X0225890Y0144196D02*
X0225404Y0144196D01*
X0224306Y0145781D02*
X0222920Y0147167D01*
X0224306Y0145781D02*
X0222642Y0144117D01*
X0221256Y0145503D01*
X0222920Y0147167D01*
X0223043Y0144518D02*
X0222241Y0144518D01*
X0221840Y0144919D02*
X0223444Y0144919D01*
X0223845Y0145320D02*
X0221439Y0145320D01*
X0221474Y0145721D02*
X0224246Y0145721D01*
X0223965Y0146122D02*
X0221875Y0146122D01*
X0222276Y0146523D02*
X0223564Y0146523D01*
X0223163Y0146924D02*
X0222677Y0146924D01*
X0221522Y0148565D02*
X0220136Y0149951D01*
X0221522Y0148565D02*
X0219858Y0146901D01*
X0218472Y0148287D01*
X0220136Y0149951D01*
X0220259Y0147302D02*
X0219457Y0147302D01*
X0219056Y0147703D02*
X0220660Y0147703D01*
X0221061Y0148104D02*
X0218655Y0148104D01*
X0218690Y0148505D02*
X0221462Y0148505D01*
X0221181Y0148906D02*
X0219091Y0148906D01*
X0219492Y0149307D02*
X0220780Y0149307D01*
X0220379Y0149708D02*
X0219893Y0149708D01*
X0221621Y0151437D02*
X0223007Y0150051D01*
X0221621Y0151437D02*
X0223285Y0153101D01*
X0224671Y0151715D01*
X0223007Y0150051D01*
X0223408Y0150452D02*
X0222606Y0150452D01*
X0222205Y0150853D02*
X0223809Y0150853D01*
X0224210Y0151254D02*
X0221804Y0151254D01*
X0221839Y0151655D02*
X0224611Y0151655D01*
X0224330Y0152056D02*
X0222240Y0152056D01*
X0222641Y0152457D02*
X0223929Y0152457D01*
X0223528Y0152858D02*
X0223042Y0152858D01*
X0224405Y0148653D02*
X0225791Y0147267D01*
X0224405Y0148653D02*
X0226069Y0150317D01*
X0227455Y0148931D01*
X0225791Y0147267D01*
X0226192Y0147668D02*
X0225390Y0147668D01*
X0224989Y0148069D02*
X0226593Y0148069D01*
X0226994Y0148470D02*
X0224588Y0148470D01*
X0224623Y0148871D02*
X0227395Y0148871D01*
X0227114Y0149272D02*
X0225024Y0149272D01*
X0225425Y0149673D02*
X0226713Y0149673D01*
X0226312Y0150074D02*
X0225826Y0150074D01*
X0217130Y0158219D02*
X0215744Y0156833D01*
X0217130Y0158219D02*
X0218794Y0156555D01*
X0217408Y0155169D01*
X0215744Y0156833D01*
X0217007Y0155570D02*
X0217809Y0155570D01*
X0218210Y0155971D02*
X0216606Y0155971D01*
X0216205Y0156372D02*
X0218611Y0156372D01*
X0218576Y0156773D02*
X0215804Y0156773D01*
X0216085Y0157174D02*
X0218175Y0157174D01*
X0217774Y0157575D02*
X0216486Y0157575D01*
X0216887Y0157976D02*
X0217373Y0157976D01*
X0214346Y0155435D02*
X0212960Y0154049D01*
X0214346Y0155435D02*
X0216010Y0153771D01*
X0214624Y0152385D01*
X0212960Y0154049D01*
X0214223Y0152786D02*
X0215025Y0152786D01*
X0215426Y0153187D02*
X0213822Y0153187D01*
X0213421Y0153588D02*
X0215827Y0153588D01*
X0215792Y0153989D02*
X0213020Y0153989D01*
X0213301Y0154390D02*
X0215391Y0154390D01*
X0214990Y0154791D02*
X0213702Y0154791D01*
X0214103Y0155192D02*
X0214589Y0155192D01*
X0205319Y0144046D02*
X0203933Y0142660D01*
X0205319Y0144046D02*
X0206983Y0142382D01*
X0205597Y0140996D01*
X0203933Y0142660D01*
X0205196Y0141397D02*
X0205998Y0141397D01*
X0206399Y0141798D02*
X0204795Y0141798D01*
X0204394Y0142199D02*
X0206800Y0142199D01*
X0206765Y0142600D02*
X0203993Y0142600D01*
X0204274Y0143001D02*
X0206364Y0143001D01*
X0205963Y0143402D02*
X0204675Y0143402D01*
X0205076Y0143803D02*
X0205562Y0143803D01*
X0202535Y0141262D02*
X0201149Y0139876D01*
X0202535Y0141262D02*
X0204199Y0139598D01*
X0202813Y0138212D01*
X0201149Y0139876D01*
X0202412Y0138613D02*
X0203214Y0138613D01*
X0203615Y0139014D02*
X0202011Y0139014D01*
X0201610Y0139415D02*
X0204016Y0139415D01*
X0203981Y0139816D02*
X0201209Y0139816D01*
X0201490Y0140217D02*
X0203580Y0140217D01*
X0203179Y0140618D02*
X0201891Y0140618D01*
X0202292Y0141019D02*
X0202778Y0141019D01*
X0211868Y0133487D02*
X0213254Y0134873D01*
X0211868Y0133487D02*
X0210204Y0135151D01*
X0211590Y0136537D01*
X0213254Y0134873D01*
X0212269Y0133888D02*
X0211467Y0133888D01*
X0211066Y0134289D02*
X0212670Y0134289D01*
X0213071Y0134690D02*
X0210665Y0134690D01*
X0210264Y0135091D02*
X0213036Y0135091D01*
X0212635Y0135492D02*
X0210545Y0135492D01*
X0210946Y0135893D02*
X0212234Y0135893D01*
X0211833Y0136294D02*
X0211347Y0136294D01*
X0214652Y0136271D02*
X0216038Y0137657D01*
X0214652Y0136271D02*
X0212988Y0137935D01*
X0214374Y0139321D01*
X0216038Y0137657D01*
X0215053Y0136672D02*
X0214251Y0136672D01*
X0213850Y0137073D02*
X0215454Y0137073D01*
X0215855Y0137474D02*
X0213449Y0137474D01*
X0213048Y0137875D02*
X0215820Y0137875D01*
X0215419Y0138276D02*
X0213329Y0138276D01*
X0213730Y0138677D02*
X0215018Y0138677D01*
X0214617Y0139078D02*
X0214131Y0139078D01*
X0233943Y0136144D02*
X0235329Y0134758D01*
X0233665Y0133094D01*
X0232279Y0134480D01*
X0233943Y0136144D01*
X0234066Y0133495D02*
X0233264Y0133495D01*
X0232863Y0133896D02*
X0234467Y0133896D01*
X0234868Y0134297D02*
X0232462Y0134297D01*
X0232497Y0134698D02*
X0235269Y0134698D01*
X0234988Y0135099D02*
X0232898Y0135099D01*
X0233299Y0135500D02*
X0234587Y0135500D01*
X0234186Y0135901D02*
X0233700Y0135901D01*
X0243589Y0132010D02*
X0244975Y0130624D01*
X0243311Y0128960D01*
X0241925Y0130346D01*
X0243589Y0132010D01*
X0243712Y0129361D02*
X0242910Y0129361D01*
X0242509Y0129762D02*
X0244113Y0129762D01*
X0244514Y0130163D02*
X0242108Y0130163D01*
X0242143Y0130564D02*
X0244915Y0130564D01*
X0244634Y0130965D02*
X0242544Y0130965D01*
X0242945Y0131366D02*
X0244233Y0131366D01*
X0243832Y0131767D02*
X0243346Y0131767D01*
X0237723Y0125385D02*
X0235763Y0125385D01*
X0235763Y0127739D01*
X0237723Y0127739D01*
X0237723Y0125385D01*
X0237723Y0125786D02*
X0235763Y0125786D01*
X0235763Y0126187D02*
X0237723Y0126187D01*
X0237723Y0126588D02*
X0235763Y0126588D01*
X0235763Y0126989D02*
X0237723Y0126989D01*
X0237723Y0127390D02*
X0235763Y0127390D01*
X0233786Y0125385D02*
X0231826Y0125385D01*
X0231826Y0127739D01*
X0233786Y0127739D01*
X0233786Y0125385D01*
X0233786Y0125786D02*
X0231826Y0125786D01*
X0231826Y0126187D02*
X0233786Y0126187D01*
X0233786Y0126588D02*
X0231826Y0126588D01*
X0231826Y0126989D02*
X0233786Y0126989D01*
X0233786Y0127390D02*
X0231826Y0127390D01*
X0231826Y0120660D02*
X0233786Y0120660D01*
X0231826Y0120660D02*
X0231826Y0123014D01*
X0233786Y0123014D01*
X0233786Y0120660D01*
X0233786Y0121061D02*
X0231826Y0121061D01*
X0231826Y0121462D02*
X0233786Y0121462D01*
X0233786Y0121863D02*
X0231826Y0121863D01*
X0231826Y0122264D02*
X0233786Y0122264D01*
X0233786Y0122665D02*
X0231826Y0122665D01*
X0235763Y0120660D02*
X0237723Y0120660D01*
X0235763Y0120660D02*
X0235763Y0123014D01*
X0237723Y0123014D01*
X0237723Y0120660D01*
X0237723Y0121061D02*
X0235763Y0121061D01*
X0235763Y0121462D02*
X0237723Y0121462D01*
X0237723Y0121863D02*
X0235763Y0121863D01*
X0235763Y0122264D02*
X0237723Y0122264D01*
X0237723Y0122665D02*
X0235763Y0122665D01*
X0220762Y0123484D02*
X0219376Y0122098D01*
X0217712Y0123762D01*
X0219098Y0125148D01*
X0220762Y0123484D01*
X0219777Y0122499D02*
X0218975Y0122499D01*
X0218574Y0122900D02*
X0220178Y0122900D01*
X0220579Y0123301D02*
X0218173Y0123301D01*
X0217772Y0123702D02*
X0220544Y0123702D01*
X0220143Y0124103D02*
X0218053Y0124103D01*
X0218454Y0124504D02*
X0219742Y0124504D01*
X0219341Y0124905D02*
X0218855Y0124905D01*
X0217978Y0120700D02*
X0216592Y0119314D01*
X0214928Y0120978D01*
X0216314Y0122364D01*
X0217978Y0120700D01*
X0216993Y0119715D02*
X0216191Y0119715D01*
X0215790Y0120116D02*
X0217394Y0120116D01*
X0217795Y0120517D02*
X0215389Y0120517D01*
X0214988Y0120918D02*
X0217760Y0120918D01*
X0217359Y0121319D02*
X0215269Y0121319D01*
X0215670Y0121720D02*
X0216958Y0121720D01*
X0216557Y0122121D02*
X0216071Y0122121D01*
X0208196Y0121448D02*
X0208196Y0123408D01*
X0208196Y0121448D02*
X0205842Y0121448D01*
X0205842Y0123408D01*
X0208196Y0123408D01*
X0208196Y0121849D02*
X0205842Y0121849D01*
X0205842Y0122250D02*
X0208196Y0122250D01*
X0208196Y0122651D02*
X0205842Y0122651D01*
X0205842Y0123052D02*
X0208196Y0123052D01*
X0208196Y0119471D02*
X0208196Y0117511D01*
X0205842Y0117511D01*
X0205842Y0119471D01*
X0208196Y0119471D01*
X0208196Y0117912D02*
X0205842Y0117912D01*
X0205842Y0118313D02*
X0208196Y0118313D01*
X0208196Y0118714D02*
X0205842Y0118714D01*
X0205842Y0119115D02*
X0208196Y0119115D01*
X0255842Y0111597D02*
X0255842Y0109637D01*
X0255842Y0111597D02*
X0258196Y0111597D01*
X0258196Y0109637D01*
X0255842Y0109637D01*
X0255842Y0110038D02*
X0258196Y0110038D01*
X0258196Y0110439D02*
X0255842Y0110439D01*
X0255842Y0110840D02*
X0258196Y0110840D01*
X0258196Y0111241D02*
X0255842Y0111241D01*
X0255842Y0107660D02*
X0255842Y0105700D01*
X0255842Y0107660D02*
X0258196Y0107660D01*
X0258196Y0105700D01*
X0255842Y0105700D01*
X0255842Y0106101D02*
X0258196Y0106101D01*
X0258196Y0106502D02*
X0255842Y0106502D01*
X0255842Y0106903D02*
X0258196Y0106903D01*
X0258196Y0107304D02*
X0255842Y0107304D01*
X0255842Y0087778D02*
X0257802Y0087778D01*
X0257802Y0085424D01*
X0255842Y0085424D01*
X0255842Y0087778D01*
X0255842Y0085825D02*
X0257802Y0085825D01*
X0257802Y0086226D02*
X0255842Y0086226D01*
X0255842Y0086627D02*
X0257802Y0086627D01*
X0257802Y0087028D02*
X0255842Y0087028D01*
X0255842Y0087429D02*
X0257802Y0087429D01*
X0253865Y0087778D02*
X0251905Y0087778D01*
X0253865Y0087778D02*
X0253865Y0085424D01*
X0251905Y0085424D01*
X0251905Y0087778D01*
X0251905Y0085825D02*
X0253865Y0085825D01*
X0253865Y0086226D02*
X0251905Y0086226D01*
X0251905Y0086627D02*
X0253865Y0086627D01*
X0253865Y0087028D02*
X0251905Y0087028D01*
X0251905Y0087429D02*
X0253865Y0087429D01*
X0253865Y0083054D02*
X0251905Y0083054D01*
X0253865Y0083054D02*
X0253865Y0080700D01*
X0251905Y0080700D01*
X0251905Y0083054D01*
X0251905Y0081101D02*
X0253865Y0081101D01*
X0253865Y0081502D02*
X0251905Y0081502D01*
X0251905Y0081903D02*
X0253865Y0081903D01*
X0253865Y0082304D02*
X0251905Y0082304D01*
X0251905Y0082705D02*
X0253865Y0082705D01*
X0255842Y0083054D02*
X0257802Y0083054D01*
X0257802Y0080700D01*
X0255842Y0080700D01*
X0255842Y0083054D01*
X0255842Y0081101D02*
X0257802Y0081101D01*
X0257802Y0081502D02*
X0255842Y0081502D01*
X0255842Y0081903D02*
X0257802Y0081903D01*
X0257802Y0082304D02*
X0255842Y0082304D01*
X0255842Y0082705D02*
X0257802Y0082705D01*
X0299542Y0104125D02*
X0299542Y0106085D01*
X0301896Y0106085D01*
X0301896Y0104125D01*
X0299542Y0104125D01*
X0299542Y0104526D02*
X0301896Y0104526D01*
X0301896Y0104927D02*
X0299542Y0104927D01*
X0299542Y0105328D02*
X0301896Y0105328D01*
X0301896Y0105729D02*
X0299542Y0105729D01*
X0299542Y0108062D02*
X0299542Y0110022D01*
X0301896Y0110022D01*
X0301896Y0108062D01*
X0299542Y0108062D01*
X0299542Y0108463D02*
X0301896Y0108463D01*
X0301896Y0108864D02*
X0299542Y0108864D01*
X0299542Y0109265D02*
X0301896Y0109265D01*
X0301896Y0109666D02*
X0299542Y0109666D01*
X0346975Y0141330D02*
X0346975Y0143290D01*
X0346975Y0141330D02*
X0344621Y0141330D01*
X0344621Y0143290D01*
X0346975Y0143290D01*
X0346975Y0141731D02*
X0344621Y0141731D01*
X0344621Y0142132D02*
X0346975Y0142132D01*
X0346975Y0142533D02*
X0344621Y0142533D01*
X0344621Y0142934D02*
X0346975Y0142934D01*
X0346975Y0145267D02*
X0346975Y0147227D01*
X0346975Y0145267D02*
X0344621Y0145267D01*
X0344621Y0147227D01*
X0346975Y0147227D01*
X0346975Y0145668D02*
X0344621Y0145668D01*
X0344621Y0146069D02*
X0346975Y0146069D01*
X0346975Y0146470D02*
X0344621Y0146470D01*
X0344621Y0146871D02*
X0346975Y0146871D01*
X0355842Y0151763D02*
X0357802Y0151763D01*
X0355842Y0151763D02*
X0355842Y0154117D01*
X0357802Y0154117D01*
X0357802Y0151763D01*
X0357802Y0152164D02*
X0355842Y0152164D01*
X0355842Y0152565D02*
X0357802Y0152565D01*
X0357802Y0152966D02*
X0355842Y0152966D01*
X0355842Y0153367D02*
X0357802Y0153367D01*
X0357802Y0153768D02*
X0355842Y0153768D01*
X0359779Y0151763D02*
X0361739Y0151763D01*
X0359779Y0151763D02*
X0359779Y0154117D01*
X0361739Y0154117D01*
X0361739Y0151763D01*
X0361739Y0152164D02*
X0359779Y0152164D01*
X0359779Y0152565D02*
X0361739Y0152565D01*
X0361739Y0152966D02*
X0359779Y0152966D01*
X0359779Y0153367D02*
X0361739Y0153367D01*
X0361739Y0153768D02*
X0359779Y0153768D01*
X0368046Y0136999D02*
X0370006Y0136999D01*
X0368046Y0136999D02*
X0368046Y0139353D01*
X0370006Y0139353D01*
X0370006Y0136999D01*
X0370006Y0137400D02*
X0368046Y0137400D01*
X0368046Y0137801D02*
X0370006Y0137801D01*
X0370006Y0138202D02*
X0368046Y0138202D01*
X0368046Y0138603D02*
X0370006Y0138603D01*
X0370006Y0139004D02*
X0368046Y0139004D01*
X0371983Y0136999D02*
X0373943Y0136999D01*
X0371983Y0136999D02*
X0371983Y0139353D01*
X0373943Y0139353D01*
X0373943Y0136999D01*
X0373943Y0137400D02*
X0371983Y0137400D01*
X0371983Y0137801D02*
X0373943Y0137801D01*
X0373943Y0138202D02*
X0371983Y0138202D01*
X0371983Y0138603D02*
X0373943Y0138603D01*
X0373943Y0139004D02*
X0371983Y0139004D01*
X0371983Y0132274D02*
X0373943Y0132274D01*
X0371983Y0132274D02*
X0371983Y0134628D01*
X0373943Y0134628D01*
X0373943Y0132274D01*
X0373943Y0132675D02*
X0371983Y0132675D01*
X0371983Y0133076D02*
X0373943Y0133076D01*
X0373943Y0133477D02*
X0371983Y0133477D01*
X0371983Y0133878D02*
X0373943Y0133878D01*
X0373943Y0134279D02*
X0371983Y0134279D01*
X0370006Y0132274D02*
X0368046Y0132274D01*
X0368046Y0134628D01*
X0370006Y0134628D01*
X0370006Y0132274D01*
X0370006Y0132675D02*
X0368046Y0132675D01*
X0368046Y0133076D02*
X0370006Y0133076D01*
X0370006Y0133477D02*
X0368046Y0133477D01*
X0368046Y0133878D02*
X0370006Y0133878D01*
X0370006Y0134279D02*
X0368046Y0134279D01*
X0360164Y0126959D02*
X0358204Y0126959D01*
X0358204Y0129313D01*
X0360164Y0129313D01*
X0360164Y0126959D01*
X0360164Y0127360D02*
X0358204Y0127360D01*
X0358204Y0127761D02*
X0360164Y0127761D01*
X0360164Y0128162D02*
X0358204Y0128162D01*
X0358204Y0128563D02*
X0360164Y0128563D01*
X0360164Y0128964D02*
X0358204Y0128964D01*
X0356227Y0126959D02*
X0354267Y0126959D01*
X0354267Y0129313D01*
X0356227Y0129313D01*
X0356227Y0126959D01*
X0356227Y0127360D02*
X0354267Y0127360D01*
X0354267Y0127761D02*
X0356227Y0127761D01*
X0356227Y0128162D02*
X0354267Y0128162D01*
X0354267Y0128563D02*
X0356227Y0128563D01*
X0356227Y0128964D02*
X0354267Y0128964D01*
X0369030Y0099195D02*
X0369030Y0097235D01*
X0369030Y0099195D02*
X0371384Y0099195D01*
X0371384Y0097235D01*
X0369030Y0097235D01*
X0369030Y0097636D02*
X0371384Y0097636D01*
X0371384Y0098037D02*
X0369030Y0098037D01*
X0369030Y0098438D02*
X0371384Y0098438D01*
X0371384Y0098839D02*
X0369030Y0098839D01*
X0369030Y0095258D02*
X0369030Y0093298D01*
X0369030Y0095258D02*
X0371384Y0095258D01*
X0371384Y0093298D01*
X0369030Y0093298D01*
X0369030Y0093699D02*
X0371384Y0093699D01*
X0371384Y0094100D02*
X0369030Y0094100D01*
X0369030Y0094501D02*
X0371384Y0094501D01*
X0371384Y0094902D02*
X0369030Y0094902D01*
X0376109Y0095258D02*
X0376109Y0093298D01*
X0373755Y0093298D01*
X0373755Y0095258D01*
X0376109Y0095258D01*
X0376109Y0093699D02*
X0373755Y0093699D01*
X0373755Y0094100D02*
X0376109Y0094100D01*
X0376109Y0094501D02*
X0373755Y0094501D01*
X0373755Y0094902D02*
X0376109Y0094902D01*
X0376109Y0097235D02*
X0376109Y0099195D01*
X0376109Y0097235D02*
X0373755Y0097235D01*
X0373755Y0099195D01*
X0376109Y0099195D01*
X0376109Y0097636D02*
X0373755Y0097636D01*
X0373755Y0098037D02*
X0376109Y0098037D01*
X0376109Y0098438D02*
X0373755Y0098438D01*
X0373755Y0098839D02*
X0376109Y0098839D01*
X0380833Y0099195D02*
X0380833Y0097235D01*
X0378479Y0097235D01*
X0378479Y0099195D01*
X0380833Y0099195D01*
X0380833Y0097636D02*
X0378479Y0097636D01*
X0378479Y0098037D02*
X0380833Y0098037D01*
X0380833Y0098438D02*
X0378479Y0098438D01*
X0378479Y0098839D02*
X0380833Y0098839D01*
X0385558Y0099195D02*
X0385558Y0097235D01*
X0383204Y0097235D01*
X0383204Y0099195D01*
X0385558Y0099195D01*
X0385558Y0097636D02*
X0383204Y0097636D01*
X0383204Y0098037D02*
X0385558Y0098037D01*
X0385558Y0098438D02*
X0383204Y0098438D01*
X0383204Y0098839D02*
X0385558Y0098839D01*
X0385558Y0095258D02*
X0385558Y0093298D01*
X0383204Y0093298D01*
X0383204Y0095258D01*
X0385558Y0095258D01*
X0385558Y0093699D02*
X0383204Y0093699D01*
X0383204Y0094100D02*
X0385558Y0094100D01*
X0385558Y0094501D02*
X0383204Y0094501D01*
X0383204Y0094902D02*
X0385558Y0094902D01*
X0380833Y0095258D02*
X0380833Y0093298D01*
X0378479Y0093298D01*
X0378479Y0095258D01*
X0380833Y0095258D01*
X0380833Y0093699D02*
X0378479Y0093699D01*
X0378479Y0094100D02*
X0380833Y0094100D01*
X0380833Y0094501D02*
X0378479Y0094501D01*
X0378479Y0094902D02*
X0380833Y0094902D01*
X0403479Y0106479D02*
X0405439Y0106479D01*
X0405439Y0104125D01*
X0403479Y0104125D01*
X0403479Y0106479D01*
X0403479Y0104526D02*
X0405439Y0104526D01*
X0405439Y0104927D02*
X0403479Y0104927D01*
X0403479Y0105328D02*
X0405439Y0105328D01*
X0405439Y0105729D02*
X0403479Y0105729D01*
X0403479Y0106130D02*
X0405439Y0106130D01*
X0407416Y0106479D02*
X0409376Y0106479D01*
X0409376Y0104125D01*
X0407416Y0104125D01*
X0407416Y0106479D01*
X0407416Y0104526D02*
X0409376Y0104526D01*
X0409376Y0104927D02*
X0407416Y0104927D01*
X0407416Y0105328D02*
X0409376Y0105328D01*
X0409376Y0105729D02*
X0407416Y0105729D01*
X0407416Y0106130D02*
X0409376Y0106130D01*
X0411353Y0106479D02*
X0413313Y0106479D01*
X0413313Y0104125D01*
X0411353Y0104125D01*
X0411353Y0106479D01*
X0411353Y0104526D02*
X0413313Y0104526D01*
X0413313Y0104927D02*
X0411353Y0104927D01*
X0411353Y0105328D02*
X0413313Y0105328D01*
X0413313Y0105729D02*
X0411353Y0105729D01*
X0411353Y0106130D02*
X0413313Y0106130D01*
X0415290Y0106479D02*
X0417250Y0106479D01*
X0417250Y0104125D01*
X0415290Y0104125D01*
X0415290Y0106479D01*
X0415290Y0104526D02*
X0417250Y0104526D01*
X0417250Y0104927D02*
X0415290Y0104927D01*
X0415290Y0105328D02*
X0417250Y0105328D01*
X0417250Y0105729D02*
X0415290Y0105729D01*
X0415290Y0106130D02*
X0417250Y0106130D01*
X0417250Y0111203D02*
X0415290Y0111203D01*
X0417250Y0111203D02*
X0417250Y0108849D01*
X0415290Y0108849D01*
X0415290Y0111203D01*
X0415290Y0109250D02*
X0417250Y0109250D01*
X0417250Y0109651D02*
X0415290Y0109651D01*
X0415290Y0110052D02*
X0417250Y0110052D01*
X0417250Y0110453D02*
X0415290Y0110453D01*
X0415290Y0110854D02*
X0417250Y0110854D01*
X0417250Y0113574D02*
X0415290Y0113574D01*
X0415290Y0115928D01*
X0417250Y0115928D01*
X0417250Y0113574D01*
X0417250Y0113975D02*
X0415290Y0113975D01*
X0415290Y0114376D02*
X0417250Y0114376D01*
X0417250Y0114777D02*
X0415290Y0114777D01*
X0415290Y0115178D02*
X0417250Y0115178D01*
X0417250Y0115579D02*
X0415290Y0115579D01*
X0413313Y0113574D02*
X0411353Y0113574D01*
X0411353Y0115928D01*
X0413313Y0115928D01*
X0413313Y0113574D01*
X0413313Y0113975D02*
X0411353Y0113975D01*
X0411353Y0114376D02*
X0413313Y0114376D01*
X0413313Y0114777D02*
X0411353Y0114777D01*
X0411353Y0115178D02*
X0413313Y0115178D01*
X0413313Y0115579D02*
X0411353Y0115579D01*
X0411353Y0120652D02*
X0413313Y0120652D01*
X0413313Y0118298D01*
X0411353Y0118298D01*
X0411353Y0120652D01*
X0411353Y0118699D02*
X0413313Y0118699D01*
X0413313Y0119100D02*
X0411353Y0119100D01*
X0411353Y0119501D02*
X0413313Y0119501D01*
X0413313Y0119902D02*
X0411353Y0119902D01*
X0411353Y0120303D02*
X0413313Y0120303D01*
X0415290Y0120652D02*
X0417250Y0120652D01*
X0417250Y0118298D01*
X0415290Y0118298D01*
X0415290Y0120652D01*
X0415290Y0118699D02*
X0417250Y0118699D01*
X0417250Y0119100D02*
X0415290Y0119100D01*
X0415290Y0119501D02*
X0417250Y0119501D01*
X0417250Y0119902D02*
X0415290Y0119902D01*
X0415290Y0120303D02*
X0417250Y0120303D01*
X0417250Y0125376D02*
X0415290Y0125376D01*
X0417250Y0125376D02*
X0417250Y0123022D01*
X0415290Y0123022D01*
X0415290Y0125376D01*
X0415290Y0123423D02*
X0417250Y0123423D01*
X0417250Y0123824D02*
X0415290Y0123824D01*
X0415290Y0124225D02*
X0417250Y0124225D01*
X0417250Y0124626D02*
X0415290Y0124626D01*
X0415290Y0125027D02*
X0417250Y0125027D01*
X0417250Y0127747D02*
X0415290Y0127747D01*
X0415290Y0130101D01*
X0417250Y0130101D01*
X0417250Y0127747D01*
X0417250Y0128148D02*
X0415290Y0128148D01*
X0415290Y0128549D02*
X0417250Y0128549D01*
X0417250Y0128950D02*
X0415290Y0128950D01*
X0415290Y0129351D02*
X0417250Y0129351D01*
X0417250Y0129752D02*
X0415290Y0129752D01*
X0413313Y0127747D02*
X0411353Y0127747D01*
X0411353Y0130101D01*
X0413313Y0130101D01*
X0413313Y0127747D01*
X0413313Y0128148D02*
X0411353Y0128148D01*
X0411353Y0128549D02*
X0413313Y0128549D01*
X0413313Y0128950D02*
X0411353Y0128950D01*
X0411353Y0129351D02*
X0413313Y0129351D01*
X0413313Y0129752D02*
X0411353Y0129752D01*
X0409770Y0127747D02*
X0407810Y0127747D01*
X0407810Y0130101D01*
X0409770Y0130101D01*
X0409770Y0127747D01*
X0409770Y0128148D02*
X0407810Y0128148D01*
X0407810Y0128549D02*
X0409770Y0128549D01*
X0409770Y0128950D02*
X0407810Y0128950D01*
X0407810Y0129351D02*
X0409770Y0129351D01*
X0409770Y0129752D02*
X0407810Y0129752D01*
X0405833Y0127747D02*
X0403873Y0127747D01*
X0403873Y0130101D01*
X0405833Y0130101D01*
X0405833Y0127747D01*
X0405833Y0128148D02*
X0403873Y0128148D01*
X0403873Y0128549D02*
X0405833Y0128549D01*
X0405833Y0128950D02*
X0403873Y0128950D01*
X0403873Y0129351D02*
X0405833Y0129351D01*
X0405833Y0129752D02*
X0403873Y0129752D01*
X0411353Y0134825D02*
X0413313Y0134825D01*
X0413313Y0132471D01*
X0411353Y0132471D01*
X0411353Y0134825D01*
X0411353Y0132872D02*
X0413313Y0132872D01*
X0413313Y0133273D02*
X0411353Y0133273D01*
X0411353Y0133674D02*
X0413313Y0133674D01*
X0413313Y0134075D02*
X0411353Y0134075D01*
X0411353Y0134476D02*
X0413313Y0134476D01*
X0415290Y0134825D02*
X0417250Y0134825D01*
X0417250Y0132471D01*
X0415290Y0132471D01*
X0415290Y0134825D01*
X0415290Y0132872D02*
X0417250Y0132872D01*
X0417250Y0133273D02*
X0415290Y0133273D01*
X0415290Y0133674D02*
X0417250Y0133674D01*
X0417250Y0134075D02*
X0415290Y0134075D01*
X0415290Y0134476D02*
X0417250Y0134476D01*
X0417250Y0139550D02*
X0415290Y0139550D01*
X0417250Y0139550D02*
X0417250Y0137196D01*
X0415290Y0137196D01*
X0415290Y0139550D01*
X0415290Y0137597D02*
X0417250Y0137597D01*
X0417250Y0137998D02*
X0415290Y0137998D01*
X0415290Y0138399D02*
X0417250Y0138399D01*
X0417250Y0138800D02*
X0415290Y0138800D01*
X0415290Y0139201D02*
X0417250Y0139201D01*
X0413313Y0139550D02*
X0411353Y0139550D01*
X0413313Y0139550D02*
X0413313Y0137196D01*
X0411353Y0137196D01*
X0411353Y0139550D01*
X0411353Y0137597D02*
X0413313Y0137597D01*
X0413313Y0137998D02*
X0411353Y0137998D01*
X0411353Y0138399D02*
X0413313Y0138399D01*
X0413313Y0138800D02*
X0411353Y0138800D01*
X0411353Y0139201D02*
X0413313Y0139201D01*
X0409770Y0139550D02*
X0407810Y0139550D01*
X0409770Y0139550D02*
X0409770Y0137196D01*
X0407810Y0137196D01*
X0407810Y0139550D01*
X0407810Y0137597D02*
X0409770Y0137597D01*
X0409770Y0137998D02*
X0407810Y0137998D01*
X0407810Y0138399D02*
X0409770Y0138399D01*
X0409770Y0138800D02*
X0407810Y0138800D01*
X0407810Y0139201D02*
X0409770Y0139201D01*
X0405833Y0139550D02*
X0403873Y0139550D01*
X0405833Y0139550D02*
X0405833Y0137196D01*
X0403873Y0137196D01*
X0403873Y0139550D01*
X0403873Y0137597D02*
X0405833Y0137597D01*
X0405833Y0137998D02*
X0403873Y0137998D01*
X0403873Y0138399D02*
X0405833Y0138399D01*
X0405833Y0138800D02*
X0403873Y0138800D01*
X0403873Y0139201D02*
X0405833Y0139201D01*
X0405833Y0150573D02*
X0403873Y0150573D01*
X0405833Y0150573D02*
X0405833Y0148219D01*
X0403873Y0148219D01*
X0403873Y0150573D01*
X0403873Y0148620D02*
X0405833Y0148620D01*
X0405833Y0149021D02*
X0403873Y0149021D01*
X0403873Y0149422D02*
X0405833Y0149422D01*
X0405833Y0149823D02*
X0403873Y0149823D01*
X0403873Y0150224D02*
X0405833Y0150224D01*
X0407810Y0150573D02*
X0409770Y0150573D01*
X0409770Y0148219D01*
X0407810Y0148219D01*
X0407810Y0150573D01*
X0407810Y0148620D02*
X0409770Y0148620D01*
X0409770Y0149021D02*
X0407810Y0149021D01*
X0407810Y0149422D02*
X0409770Y0149422D01*
X0409770Y0149823D02*
X0407810Y0149823D01*
X0407810Y0150224D02*
X0409770Y0150224D01*
X0411353Y0150573D02*
X0413313Y0150573D01*
X0413313Y0148219D01*
X0411353Y0148219D01*
X0411353Y0150573D01*
X0411353Y0148620D02*
X0413313Y0148620D01*
X0413313Y0149021D02*
X0411353Y0149021D01*
X0411353Y0149422D02*
X0413313Y0149422D01*
X0413313Y0149823D02*
X0411353Y0149823D01*
X0411353Y0150224D02*
X0413313Y0150224D01*
X0415290Y0150573D02*
X0417250Y0150573D01*
X0417250Y0148219D01*
X0415290Y0148219D01*
X0415290Y0150573D01*
X0415290Y0148620D02*
X0417250Y0148620D01*
X0417250Y0149021D02*
X0415290Y0149021D01*
X0415290Y0149422D02*
X0417250Y0149422D01*
X0417250Y0149823D02*
X0415290Y0149823D01*
X0415290Y0150224D02*
X0417250Y0150224D01*
X0417250Y0155298D02*
X0415290Y0155298D01*
X0417250Y0155298D02*
X0417250Y0152944D01*
X0415290Y0152944D01*
X0415290Y0155298D01*
X0415290Y0153345D02*
X0417250Y0153345D01*
X0417250Y0153746D02*
X0415290Y0153746D01*
X0415290Y0154147D02*
X0417250Y0154147D01*
X0417250Y0154548D02*
X0415290Y0154548D01*
X0415290Y0154949D02*
X0417250Y0154949D01*
X0417250Y0157668D02*
X0415290Y0157668D01*
X0415290Y0160022D01*
X0417250Y0160022D01*
X0417250Y0157668D01*
X0417250Y0158069D02*
X0415290Y0158069D01*
X0415290Y0158470D02*
X0417250Y0158470D01*
X0417250Y0158871D02*
X0415290Y0158871D01*
X0415290Y0159272D02*
X0417250Y0159272D01*
X0417250Y0159673D02*
X0415290Y0159673D01*
X0413313Y0157668D02*
X0411353Y0157668D01*
X0411353Y0160022D01*
X0413313Y0160022D01*
X0413313Y0157668D01*
X0413313Y0158069D02*
X0411353Y0158069D01*
X0411353Y0158470D02*
X0413313Y0158470D01*
X0413313Y0158871D02*
X0411353Y0158871D01*
X0411353Y0159272D02*
X0413313Y0159272D01*
X0413313Y0159673D02*
X0411353Y0159673D01*
X0411353Y0164747D02*
X0413313Y0164747D01*
X0413313Y0162393D01*
X0411353Y0162393D01*
X0411353Y0164747D01*
X0411353Y0162794D02*
X0413313Y0162794D01*
X0413313Y0163195D02*
X0411353Y0163195D01*
X0411353Y0163596D02*
X0413313Y0163596D01*
X0413313Y0163997D02*
X0411353Y0163997D01*
X0411353Y0164398D02*
X0413313Y0164398D01*
X0415290Y0164747D02*
X0417250Y0164747D01*
X0417250Y0162393D01*
X0415290Y0162393D01*
X0415290Y0164747D01*
X0415290Y0162794D02*
X0417250Y0162794D01*
X0417250Y0163195D02*
X0415290Y0163195D01*
X0415290Y0163596D02*
X0417250Y0163596D01*
X0417250Y0163997D02*
X0415290Y0163997D01*
X0415290Y0164398D02*
X0417250Y0164398D01*
X0417250Y0169471D02*
X0415290Y0169471D01*
X0417250Y0169471D02*
X0417250Y0167117D01*
X0415290Y0167117D01*
X0415290Y0169471D01*
X0415290Y0167518D02*
X0417250Y0167518D01*
X0417250Y0167919D02*
X0415290Y0167919D01*
X0415290Y0168320D02*
X0417250Y0168320D01*
X0417250Y0168721D02*
X0415290Y0168721D01*
X0415290Y0169122D02*
X0417250Y0169122D01*
X0417250Y0171841D02*
X0415290Y0171841D01*
X0415290Y0174195D01*
X0417250Y0174195D01*
X0417250Y0171841D01*
X0417250Y0172242D02*
X0415290Y0172242D01*
X0415290Y0172643D02*
X0417250Y0172643D01*
X0417250Y0173044D02*
X0415290Y0173044D01*
X0415290Y0173445D02*
X0417250Y0173445D01*
X0417250Y0173846D02*
X0415290Y0173846D01*
X0413313Y0171841D02*
X0411353Y0171841D01*
X0411353Y0174195D01*
X0413313Y0174195D01*
X0413313Y0171841D01*
X0413313Y0172242D02*
X0411353Y0172242D01*
X0411353Y0172643D02*
X0413313Y0172643D01*
X0413313Y0173044D02*
X0411353Y0173044D01*
X0411353Y0173445D02*
X0413313Y0173445D01*
X0413313Y0173846D02*
X0411353Y0173846D01*
X0409770Y0171841D02*
X0407810Y0171841D01*
X0407810Y0174195D01*
X0409770Y0174195D01*
X0409770Y0171841D01*
X0409770Y0172242D02*
X0407810Y0172242D01*
X0407810Y0172643D02*
X0409770Y0172643D01*
X0409770Y0173044D02*
X0407810Y0173044D01*
X0407810Y0173445D02*
X0409770Y0173445D01*
X0409770Y0173846D02*
X0407810Y0173846D01*
X0405833Y0171841D02*
X0403873Y0171841D01*
X0403873Y0174195D01*
X0405833Y0174195D01*
X0405833Y0171841D01*
X0405833Y0172242D02*
X0403873Y0172242D01*
X0403873Y0172643D02*
X0405833Y0172643D01*
X0405833Y0173044D02*
X0403873Y0173044D01*
X0403873Y0173445D02*
X0405833Y0173445D01*
X0405833Y0173846D02*
X0403873Y0173846D01*
X0411353Y0178920D02*
X0413313Y0178920D01*
X0413313Y0176566D01*
X0411353Y0176566D01*
X0411353Y0178920D01*
X0411353Y0176967D02*
X0413313Y0176967D01*
X0413313Y0177368D02*
X0411353Y0177368D01*
X0411353Y0177769D02*
X0413313Y0177769D01*
X0413313Y0178170D02*
X0411353Y0178170D01*
X0411353Y0178571D02*
X0413313Y0178571D01*
X0415290Y0178920D02*
X0417250Y0178920D01*
X0417250Y0176566D01*
X0415290Y0176566D01*
X0415290Y0178920D01*
X0415290Y0176967D02*
X0417250Y0176967D01*
X0417250Y0177368D02*
X0415290Y0177368D01*
X0415290Y0177769D02*
X0417250Y0177769D01*
X0417250Y0178170D02*
X0415290Y0178170D01*
X0415290Y0178571D02*
X0417250Y0178571D01*
X0417250Y0183644D02*
X0415290Y0183644D01*
X0417250Y0183644D02*
X0417250Y0181290D01*
X0415290Y0181290D01*
X0415290Y0183644D01*
X0415290Y0181691D02*
X0417250Y0181691D01*
X0417250Y0182092D02*
X0415290Y0182092D01*
X0415290Y0182493D02*
X0417250Y0182493D01*
X0417250Y0182894D02*
X0415290Y0182894D01*
X0415290Y0183295D02*
X0417250Y0183295D01*
X0413313Y0183644D02*
X0411353Y0183644D01*
X0413313Y0183644D02*
X0413313Y0181290D01*
X0411353Y0181290D01*
X0411353Y0183644D01*
X0411353Y0181691D02*
X0413313Y0181691D01*
X0413313Y0182092D02*
X0411353Y0182092D01*
X0411353Y0182493D02*
X0413313Y0182493D01*
X0413313Y0182894D02*
X0411353Y0182894D01*
X0411353Y0183295D02*
X0413313Y0183295D01*
X0409770Y0183644D02*
X0407810Y0183644D01*
X0409770Y0183644D02*
X0409770Y0181290D01*
X0407810Y0181290D01*
X0407810Y0183644D01*
X0407810Y0181691D02*
X0409770Y0181691D01*
X0409770Y0182092D02*
X0407810Y0182092D01*
X0407810Y0182493D02*
X0409770Y0182493D01*
X0409770Y0182894D02*
X0407810Y0182894D01*
X0407810Y0183295D02*
X0409770Y0183295D01*
X0405833Y0183644D02*
X0403873Y0183644D01*
X0405833Y0183644D02*
X0405833Y0181290D01*
X0403873Y0181290D01*
X0403873Y0183644D01*
X0403873Y0181691D02*
X0405833Y0181691D01*
X0405833Y0182092D02*
X0403873Y0182092D01*
X0403873Y0182493D02*
X0405833Y0182493D01*
X0405833Y0182894D02*
X0403873Y0182894D01*
X0403873Y0183295D02*
X0405833Y0183295D01*
X0411353Y0169471D02*
X0413313Y0169471D01*
X0413313Y0167117D01*
X0411353Y0167117D01*
X0411353Y0169471D01*
X0411353Y0167518D02*
X0413313Y0167518D01*
X0413313Y0167919D02*
X0411353Y0167919D01*
X0411353Y0168320D02*
X0413313Y0168320D01*
X0413313Y0168721D02*
X0411353Y0168721D01*
X0411353Y0169122D02*
X0413313Y0169122D01*
X0406030Y0163368D02*
X0406030Y0161408D01*
X0403676Y0161408D01*
X0403676Y0163368D01*
X0406030Y0163368D01*
X0406030Y0161809D02*
X0403676Y0161809D01*
X0403676Y0162210D02*
X0406030Y0162210D01*
X0406030Y0162611D02*
X0403676Y0162611D01*
X0403676Y0163012D02*
X0406030Y0163012D01*
X0406030Y0159431D02*
X0406030Y0157471D01*
X0403676Y0157471D01*
X0403676Y0159431D01*
X0406030Y0159431D01*
X0406030Y0157872D02*
X0403676Y0157872D01*
X0403676Y0158273D02*
X0406030Y0158273D01*
X0406030Y0158674D02*
X0403676Y0158674D01*
X0403676Y0159075D02*
X0406030Y0159075D01*
X0405833Y0152944D02*
X0403873Y0152944D01*
X0403873Y0155298D01*
X0405833Y0155298D01*
X0405833Y0152944D01*
X0405833Y0153345D02*
X0403873Y0153345D01*
X0403873Y0153746D02*
X0405833Y0153746D01*
X0405833Y0154147D02*
X0403873Y0154147D01*
X0403873Y0154548D02*
X0405833Y0154548D01*
X0405833Y0154949D02*
X0403873Y0154949D01*
X0407810Y0152944D02*
X0409770Y0152944D01*
X0407810Y0152944D02*
X0407810Y0155298D01*
X0409770Y0155298D01*
X0409770Y0152944D01*
X0409770Y0153345D02*
X0407810Y0153345D01*
X0407810Y0153746D02*
X0409770Y0153746D01*
X0409770Y0154147D02*
X0407810Y0154147D01*
X0407810Y0154548D02*
X0409770Y0154548D01*
X0409770Y0154949D02*
X0407810Y0154949D01*
X0411353Y0155298D02*
X0413313Y0155298D01*
X0413313Y0152944D01*
X0411353Y0152944D01*
X0411353Y0155298D01*
X0411353Y0153345D02*
X0413313Y0153345D01*
X0413313Y0153746D02*
X0411353Y0153746D01*
X0411353Y0154147D02*
X0413313Y0154147D01*
X0413313Y0154548D02*
X0411353Y0154548D01*
X0411353Y0154949D02*
X0413313Y0154949D01*
X0431039Y0138574D02*
X0432999Y0138574D01*
X0431039Y0138574D02*
X0431039Y0140928D01*
X0432999Y0140928D01*
X0432999Y0138574D01*
X0432999Y0138975D02*
X0431039Y0138975D01*
X0431039Y0139376D02*
X0432999Y0139376D01*
X0432999Y0139777D02*
X0431039Y0139777D01*
X0431039Y0140178D02*
X0432999Y0140178D01*
X0432999Y0140579D02*
X0431039Y0140579D01*
X0434976Y0138574D02*
X0436936Y0138574D01*
X0434976Y0138574D02*
X0434976Y0140928D01*
X0436936Y0140928D01*
X0436936Y0138574D01*
X0436936Y0138975D02*
X0434976Y0138975D01*
X0434976Y0139376D02*
X0436936Y0139376D01*
X0436936Y0139777D02*
X0434976Y0139777D01*
X0434976Y0140178D02*
X0436936Y0140178D01*
X0436936Y0140579D02*
X0434976Y0140579D01*
X0450724Y0137196D02*
X0452684Y0137196D01*
X0450724Y0137196D02*
X0450724Y0139550D01*
X0452684Y0139550D01*
X0452684Y0137196D01*
X0452684Y0137597D02*
X0450724Y0137597D01*
X0450724Y0137998D02*
X0452684Y0137998D01*
X0452684Y0138399D02*
X0450724Y0138399D01*
X0450724Y0138800D02*
X0452684Y0138800D01*
X0452684Y0139201D02*
X0450724Y0139201D01*
X0450724Y0145062D02*
X0452684Y0145062D01*
X0452684Y0142708D01*
X0450724Y0142708D01*
X0450724Y0145062D01*
X0450724Y0143109D02*
X0452684Y0143109D01*
X0452684Y0143510D02*
X0450724Y0143510D01*
X0450724Y0143911D02*
X0452684Y0143911D01*
X0452684Y0144312D02*
X0450724Y0144312D01*
X0450724Y0144713D02*
X0452684Y0144713D01*
X0454661Y0145062D02*
X0456621Y0145062D01*
X0456621Y0142708D01*
X0454661Y0142708D01*
X0454661Y0145062D01*
X0454661Y0143109D02*
X0456621Y0143109D01*
X0456621Y0143510D02*
X0454661Y0143510D01*
X0454661Y0143911D02*
X0456621Y0143911D01*
X0456621Y0144312D02*
X0454661Y0144312D01*
X0454661Y0144713D02*
X0456621Y0144713D01*
X0456621Y0148219D02*
X0454661Y0148219D01*
X0454661Y0150573D01*
X0456621Y0150573D01*
X0456621Y0148219D01*
X0456621Y0148620D02*
X0454661Y0148620D01*
X0454661Y0149021D02*
X0456621Y0149021D01*
X0456621Y0149422D02*
X0454661Y0149422D01*
X0454661Y0149823D02*
X0456621Y0149823D01*
X0456621Y0150224D02*
X0454661Y0150224D01*
X0452684Y0148219D02*
X0450724Y0148219D01*
X0450724Y0150573D01*
X0452684Y0150573D01*
X0452684Y0148219D01*
X0452684Y0148620D02*
X0450724Y0148620D01*
X0450724Y0149021D02*
X0452684Y0149021D01*
X0452684Y0149422D02*
X0450724Y0149422D01*
X0450724Y0149823D02*
X0452684Y0149823D01*
X0452684Y0150224D02*
X0450724Y0150224D01*
X0450724Y0152944D02*
X0452684Y0152944D01*
X0450724Y0152944D02*
X0450724Y0155298D01*
X0452684Y0155298D01*
X0452684Y0152944D01*
X0452684Y0153345D02*
X0450724Y0153345D01*
X0450724Y0153746D02*
X0452684Y0153746D01*
X0452684Y0154147D02*
X0450724Y0154147D01*
X0450724Y0154548D02*
X0452684Y0154548D01*
X0452684Y0154949D02*
X0450724Y0154949D01*
X0450724Y0160022D02*
X0452684Y0160022D01*
X0452684Y0157668D01*
X0450724Y0157668D01*
X0450724Y0160022D01*
X0450724Y0158069D02*
X0452684Y0158069D01*
X0452684Y0158470D02*
X0450724Y0158470D01*
X0450724Y0158871D02*
X0452684Y0158871D01*
X0452684Y0159272D02*
X0450724Y0159272D01*
X0450724Y0159673D02*
X0452684Y0159673D01*
X0454661Y0160022D02*
X0456621Y0160022D01*
X0456621Y0157668D01*
X0454661Y0157668D01*
X0454661Y0160022D01*
X0454661Y0158069D02*
X0456621Y0158069D01*
X0456621Y0158470D02*
X0454661Y0158470D01*
X0454661Y0158871D02*
X0456621Y0158871D01*
X0456621Y0159272D02*
X0454661Y0159272D01*
X0454661Y0159673D02*
X0456621Y0159673D01*
X0456621Y0162393D02*
X0454661Y0162393D01*
X0454661Y0164747D01*
X0456621Y0164747D01*
X0456621Y0162393D01*
X0456621Y0162794D02*
X0454661Y0162794D01*
X0454661Y0163195D02*
X0456621Y0163195D01*
X0456621Y0163596D02*
X0454661Y0163596D01*
X0454661Y0163997D02*
X0456621Y0163997D01*
X0456621Y0164398D02*
X0454661Y0164398D01*
X0452684Y0162393D02*
X0450724Y0162393D01*
X0450724Y0164747D01*
X0452684Y0164747D01*
X0452684Y0162393D01*
X0452684Y0162794D02*
X0450724Y0162794D01*
X0450724Y0163195D02*
X0452684Y0163195D01*
X0452684Y0163596D02*
X0450724Y0163596D01*
X0450724Y0163997D02*
X0452684Y0163997D01*
X0452684Y0164398D02*
X0450724Y0164398D01*
X0450724Y0167117D02*
X0452684Y0167117D01*
X0450724Y0167117D02*
X0450724Y0169471D01*
X0452684Y0169471D01*
X0452684Y0167117D01*
X0452684Y0167518D02*
X0450724Y0167518D01*
X0450724Y0167919D02*
X0452684Y0167919D01*
X0452684Y0168320D02*
X0450724Y0168320D01*
X0450724Y0168721D02*
X0452684Y0168721D01*
X0452684Y0169122D02*
X0450724Y0169122D01*
X0450724Y0174195D02*
X0452684Y0174195D01*
X0452684Y0171841D01*
X0450724Y0171841D01*
X0450724Y0174195D01*
X0450724Y0172242D02*
X0452684Y0172242D01*
X0452684Y0172643D02*
X0450724Y0172643D01*
X0450724Y0173044D02*
X0452684Y0173044D01*
X0452684Y0173445D02*
X0450724Y0173445D01*
X0450724Y0173846D02*
X0452684Y0173846D01*
X0454661Y0174195D02*
X0456621Y0174195D01*
X0456621Y0171841D01*
X0454661Y0171841D01*
X0454661Y0174195D01*
X0454661Y0172242D02*
X0456621Y0172242D01*
X0456621Y0172643D02*
X0454661Y0172643D01*
X0454661Y0173044D02*
X0456621Y0173044D01*
X0456621Y0173445D02*
X0454661Y0173445D01*
X0454661Y0173846D02*
X0456621Y0173846D01*
X0456621Y0176566D02*
X0454661Y0176566D01*
X0454661Y0178920D01*
X0456621Y0178920D01*
X0456621Y0176566D01*
X0456621Y0176967D02*
X0454661Y0176967D01*
X0454661Y0177368D02*
X0456621Y0177368D01*
X0456621Y0177769D02*
X0454661Y0177769D01*
X0454661Y0178170D02*
X0456621Y0178170D01*
X0456621Y0178571D02*
X0454661Y0178571D01*
X0452684Y0176566D02*
X0450724Y0176566D01*
X0450724Y0178920D01*
X0452684Y0178920D01*
X0452684Y0176566D01*
X0452684Y0176967D02*
X0450724Y0176967D01*
X0450724Y0177368D02*
X0452684Y0177368D01*
X0452684Y0177769D02*
X0450724Y0177769D01*
X0450724Y0178170D02*
X0452684Y0178170D01*
X0452684Y0178571D02*
X0450724Y0178571D01*
X0450724Y0181290D02*
X0452684Y0181290D01*
X0450724Y0181290D02*
X0450724Y0183644D01*
X0452684Y0183644D01*
X0452684Y0181290D01*
X0452684Y0181691D02*
X0450724Y0181691D01*
X0450724Y0182092D02*
X0452684Y0182092D01*
X0452684Y0182493D02*
X0450724Y0182493D01*
X0450724Y0182894D02*
X0452684Y0182894D01*
X0452684Y0183295D02*
X0450724Y0183295D01*
X0450724Y0188369D02*
X0452684Y0188369D01*
X0452684Y0186015D01*
X0450724Y0186015D01*
X0450724Y0188369D01*
X0450724Y0186416D02*
X0452684Y0186416D01*
X0452684Y0186817D02*
X0450724Y0186817D01*
X0450724Y0187218D02*
X0452684Y0187218D01*
X0452684Y0187619D02*
X0450724Y0187619D01*
X0450724Y0188020D02*
X0452684Y0188020D01*
X0454661Y0188369D02*
X0456621Y0188369D01*
X0456621Y0186015D01*
X0454661Y0186015D01*
X0454661Y0188369D01*
X0454661Y0186416D02*
X0456621Y0186416D01*
X0456621Y0186817D02*
X0454661Y0186817D01*
X0454661Y0187218D02*
X0456621Y0187218D01*
X0456621Y0187619D02*
X0454661Y0187619D01*
X0454661Y0188020D02*
X0456621Y0188020D01*
X0456621Y0181290D02*
X0454661Y0181290D01*
X0454661Y0183644D01*
X0456621Y0183644D01*
X0456621Y0181290D01*
X0456621Y0181691D02*
X0454661Y0181691D01*
X0454661Y0182092D02*
X0456621Y0182092D01*
X0456621Y0182493D02*
X0454661Y0182493D01*
X0454661Y0182894D02*
X0456621Y0182894D01*
X0456621Y0183295D02*
X0454661Y0183295D01*
X0458794Y0183053D02*
X0458794Y0181093D01*
X0458794Y0183053D02*
X0461148Y0183053D01*
X0461148Y0181093D01*
X0458794Y0181093D01*
X0458794Y0181494D02*
X0461148Y0181494D01*
X0461148Y0181895D02*
X0458794Y0181895D01*
X0458794Y0182296D02*
X0461148Y0182296D01*
X0461148Y0182697D02*
X0458794Y0182697D01*
X0458794Y0179116D02*
X0458794Y0177156D01*
X0458794Y0179116D02*
X0461148Y0179116D01*
X0461148Y0177156D01*
X0458794Y0177156D01*
X0458794Y0177557D02*
X0461148Y0177557D01*
X0461148Y0177958D02*
X0458794Y0177958D01*
X0458794Y0178359D02*
X0461148Y0178359D01*
X0461148Y0178760D02*
X0458794Y0178760D01*
X0456621Y0167117D02*
X0454661Y0167117D01*
X0454661Y0169471D01*
X0456621Y0169471D01*
X0456621Y0167117D01*
X0456621Y0167518D02*
X0454661Y0167518D01*
X0454661Y0167919D02*
X0456621Y0167919D01*
X0456621Y0168320D02*
X0454661Y0168320D01*
X0454661Y0168721D02*
X0456621Y0168721D01*
X0456621Y0169122D02*
X0454661Y0169122D01*
X0470802Y0171841D02*
X0472762Y0171841D01*
X0470802Y0171841D02*
X0470802Y0174195D01*
X0472762Y0174195D01*
X0472762Y0171841D01*
X0472762Y0172242D02*
X0470802Y0172242D01*
X0470802Y0172643D02*
X0472762Y0172643D01*
X0472762Y0173044D02*
X0470802Y0173044D01*
X0470802Y0173445D02*
X0472762Y0173445D01*
X0472762Y0173846D02*
X0470802Y0173846D01*
X0474739Y0171841D02*
X0476699Y0171841D01*
X0474739Y0171841D02*
X0474739Y0174195D01*
X0476699Y0174195D01*
X0476699Y0171841D01*
X0476699Y0172242D02*
X0474739Y0172242D01*
X0474739Y0172643D02*
X0476699Y0172643D01*
X0476699Y0173044D02*
X0474739Y0173044D01*
X0474739Y0173445D02*
X0476699Y0173445D01*
X0476699Y0173846D02*
X0474739Y0173846D01*
X0478283Y0171841D02*
X0480243Y0171841D01*
X0478283Y0171841D02*
X0478283Y0174195D01*
X0480243Y0174195D01*
X0480243Y0171841D01*
X0480243Y0172242D02*
X0478283Y0172242D01*
X0478283Y0172643D02*
X0480243Y0172643D01*
X0480243Y0173044D02*
X0478283Y0173044D01*
X0478283Y0173445D02*
X0480243Y0173445D01*
X0480243Y0173846D02*
X0478283Y0173846D01*
X0478283Y0178920D02*
X0480243Y0178920D01*
X0480243Y0176566D01*
X0478283Y0176566D01*
X0478283Y0178920D01*
X0478283Y0176967D02*
X0480243Y0176967D01*
X0480243Y0177368D02*
X0478283Y0177368D01*
X0478283Y0177769D02*
X0480243Y0177769D01*
X0480243Y0178170D02*
X0478283Y0178170D01*
X0478283Y0178571D02*
X0480243Y0178571D01*
X0482220Y0178920D02*
X0484180Y0178920D01*
X0484180Y0176566D01*
X0482220Y0176566D01*
X0482220Y0178920D01*
X0482220Y0176967D02*
X0484180Y0176967D01*
X0484180Y0177368D02*
X0482220Y0177368D01*
X0482220Y0177769D02*
X0484180Y0177769D01*
X0484180Y0178170D02*
X0482220Y0178170D01*
X0482220Y0178571D02*
X0484180Y0178571D01*
X0484180Y0183644D02*
X0482220Y0183644D01*
X0484180Y0183644D02*
X0484180Y0181290D01*
X0482220Y0181290D01*
X0482220Y0183644D01*
X0482220Y0181691D02*
X0484180Y0181691D01*
X0484180Y0182092D02*
X0482220Y0182092D01*
X0482220Y0182493D02*
X0484180Y0182493D01*
X0484180Y0182894D02*
X0482220Y0182894D01*
X0482220Y0183295D02*
X0484180Y0183295D01*
X0480243Y0183644D02*
X0478283Y0183644D01*
X0480243Y0183644D02*
X0480243Y0181290D01*
X0478283Y0181290D01*
X0478283Y0183644D01*
X0478283Y0181691D02*
X0480243Y0181691D01*
X0480243Y0182092D02*
X0478283Y0182092D01*
X0478283Y0182493D02*
X0480243Y0182493D01*
X0480243Y0182894D02*
X0478283Y0182894D01*
X0478283Y0183295D02*
X0480243Y0183295D01*
X0476699Y0183644D02*
X0474739Y0183644D01*
X0476699Y0183644D02*
X0476699Y0181290D01*
X0474739Y0181290D01*
X0474739Y0183644D01*
X0474739Y0181691D02*
X0476699Y0181691D01*
X0476699Y0182092D02*
X0474739Y0182092D01*
X0474739Y0182493D02*
X0476699Y0182493D01*
X0476699Y0182894D02*
X0474739Y0182894D01*
X0474739Y0183295D02*
X0476699Y0183295D01*
X0472762Y0183644D02*
X0470802Y0183644D01*
X0472762Y0183644D02*
X0472762Y0181290D01*
X0470802Y0181290D01*
X0470802Y0183644D01*
X0470802Y0181691D02*
X0472762Y0181691D01*
X0472762Y0182092D02*
X0470802Y0182092D01*
X0470802Y0182493D02*
X0472762Y0182493D01*
X0472762Y0182894D02*
X0470802Y0182894D01*
X0470802Y0183295D02*
X0472762Y0183295D01*
X0482220Y0171841D02*
X0484180Y0171841D01*
X0482220Y0171841D02*
X0482220Y0174195D01*
X0484180Y0174195D01*
X0484180Y0171841D01*
X0484180Y0172242D02*
X0482220Y0172242D01*
X0482220Y0172643D02*
X0484180Y0172643D01*
X0484180Y0173044D02*
X0482220Y0173044D01*
X0482220Y0173445D02*
X0484180Y0173445D01*
X0484180Y0173846D02*
X0482220Y0173846D01*
X0482220Y0169471D02*
X0484180Y0169471D01*
X0484180Y0167117D01*
X0482220Y0167117D01*
X0482220Y0169471D01*
X0482220Y0167518D02*
X0484180Y0167518D01*
X0484180Y0167919D02*
X0482220Y0167919D01*
X0482220Y0168320D02*
X0484180Y0168320D01*
X0484180Y0168721D02*
X0482220Y0168721D01*
X0482220Y0169122D02*
X0484180Y0169122D01*
X0480243Y0169471D02*
X0478283Y0169471D01*
X0480243Y0169471D02*
X0480243Y0167117D01*
X0478283Y0167117D01*
X0478283Y0169471D01*
X0478283Y0167518D02*
X0480243Y0167518D01*
X0480243Y0167919D02*
X0478283Y0167919D01*
X0478283Y0168320D02*
X0480243Y0168320D01*
X0480243Y0168721D02*
X0478283Y0168721D01*
X0478283Y0169122D02*
X0480243Y0169122D01*
X0480243Y0164747D02*
X0478283Y0164747D01*
X0480243Y0164747D02*
X0480243Y0162393D01*
X0478283Y0162393D01*
X0478283Y0164747D01*
X0478283Y0162794D02*
X0480243Y0162794D01*
X0480243Y0163195D02*
X0478283Y0163195D01*
X0478283Y0163596D02*
X0480243Y0163596D01*
X0480243Y0163997D02*
X0478283Y0163997D01*
X0478283Y0164398D02*
X0480243Y0164398D01*
X0482220Y0164747D02*
X0484180Y0164747D01*
X0484180Y0162393D01*
X0482220Y0162393D01*
X0482220Y0164747D01*
X0482220Y0162794D02*
X0484180Y0162794D01*
X0484180Y0163195D02*
X0482220Y0163195D01*
X0482220Y0163596D02*
X0484180Y0163596D01*
X0484180Y0163997D02*
X0482220Y0163997D01*
X0482220Y0164398D02*
X0484180Y0164398D01*
X0484180Y0157668D02*
X0482220Y0157668D01*
X0482220Y0160022D01*
X0484180Y0160022D01*
X0484180Y0157668D01*
X0484180Y0158069D02*
X0482220Y0158069D01*
X0482220Y0158470D02*
X0484180Y0158470D01*
X0484180Y0158871D02*
X0482220Y0158871D01*
X0482220Y0159272D02*
X0484180Y0159272D01*
X0484180Y0159673D02*
X0482220Y0159673D01*
X0480243Y0157668D02*
X0478283Y0157668D01*
X0478283Y0160022D01*
X0480243Y0160022D01*
X0480243Y0157668D01*
X0480243Y0158069D02*
X0478283Y0158069D01*
X0478283Y0158470D02*
X0480243Y0158470D01*
X0480243Y0158871D02*
X0478283Y0158871D01*
X0478283Y0159272D02*
X0480243Y0159272D01*
X0480243Y0159673D02*
X0478283Y0159673D01*
X0478283Y0155298D02*
X0480243Y0155298D01*
X0480243Y0152944D01*
X0478283Y0152944D01*
X0478283Y0155298D01*
X0478283Y0153345D02*
X0480243Y0153345D01*
X0480243Y0153746D02*
X0478283Y0153746D01*
X0478283Y0154147D02*
X0480243Y0154147D01*
X0480243Y0154548D02*
X0478283Y0154548D01*
X0478283Y0154949D02*
X0480243Y0154949D01*
X0482220Y0155298D02*
X0484180Y0155298D01*
X0484180Y0152944D01*
X0482220Y0152944D01*
X0482220Y0155298D01*
X0482220Y0153345D02*
X0484180Y0153345D01*
X0484180Y0153746D02*
X0482220Y0153746D01*
X0482220Y0154147D02*
X0484180Y0154147D01*
X0484180Y0154548D02*
X0482220Y0154548D01*
X0482220Y0154949D02*
X0484180Y0154949D01*
X0476699Y0152944D02*
X0474739Y0152944D01*
X0474739Y0155298D01*
X0476699Y0155298D01*
X0476699Y0152944D01*
X0476699Y0153345D02*
X0474739Y0153345D01*
X0474739Y0153746D02*
X0476699Y0153746D01*
X0476699Y0154147D02*
X0474739Y0154147D01*
X0474739Y0154548D02*
X0476699Y0154548D01*
X0476699Y0154949D02*
X0474739Y0154949D01*
X0472762Y0152944D02*
X0470802Y0152944D01*
X0470802Y0155298D01*
X0472762Y0155298D01*
X0472762Y0152944D01*
X0472762Y0153345D02*
X0470802Y0153345D01*
X0470802Y0153746D02*
X0472762Y0153746D01*
X0472762Y0154147D02*
X0470802Y0154147D01*
X0470802Y0154548D02*
X0472762Y0154548D01*
X0472762Y0154949D02*
X0470802Y0154949D01*
X0470802Y0150573D02*
X0472762Y0150573D01*
X0472762Y0148219D01*
X0470802Y0148219D01*
X0470802Y0150573D01*
X0470802Y0148620D02*
X0472762Y0148620D01*
X0472762Y0149021D02*
X0470802Y0149021D01*
X0470802Y0149422D02*
X0472762Y0149422D01*
X0472762Y0149823D02*
X0470802Y0149823D01*
X0470802Y0150224D02*
X0472762Y0150224D01*
X0474739Y0150573D02*
X0476699Y0150573D01*
X0476699Y0148219D01*
X0474739Y0148219D01*
X0474739Y0150573D01*
X0474739Y0148620D02*
X0476699Y0148620D01*
X0476699Y0149021D02*
X0474739Y0149021D01*
X0474739Y0149422D02*
X0476699Y0149422D01*
X0476699Y0149823D02*
X0474739Y0149823D01*
X0474739Y0150224D02*
X0476699Y0150224D01*
X0478283Y0150573D02*
X0480243Y0150573D01*
X0480243Y0148219D01*
X0478283Y0148219D01*
X0478283Y0150573D01*
X0478283Y0148620D02*
X0480243Y0148620D01*
X0480243Y0149021D02*
X0478283Y0149021D01*
X0478283Y0149422D02*
X0480243Y0149422D01*
X0480243Y0149823D02*
X0478283Y0149823D01*
X0478283Y0150224D02*
X0480243Y0150224D01*
X0482220Y0150573D02*
X0484180Y0150573D01*
X0484180Y0148219D01*
X0482220Y0148219D01*
X0482220Y0150573D01*
X0482220Y0148620D02*
X0484180Y0148620D01*
X0484180Y0149021D02*
X0482220Y0149021D01*
X0482220Y0149422D02*
X0484180Y0149422D01*
X0484180Y0149823D02*
X0482220Y0149823D01*
X0482220Y0150224D02*
X0484180Y0150224D01*
X0497968Y0138574D02*
X0499928Y0138574D01*
X0497968Y0138574D02*
X0497968Y0140928D01*
X0499928Y0140928D01*
X0499928Y0138574D01*
X0499928Y0138975D02*
X0497968Y0138975D01*
X0497968Y0139376D02*
X0499928Y0139376D01*
X0499928Y0139777D02*
X0497968Y0139777D01*
X0497968Y0140178D02*
X0499928Y0140178D01*
X0499928Y0140579D02*
X0497968Y0140579D01*
X0501905Y0138574D02*
X0503865Y0138574D01*
X0501905Y0138574D02*
X0501905Y0140928D01*
X0503865Y0140928D01*
X0503865Y0138574D01*
X0503865Y0138975D02*
X0501905Y0138975D01*
X0501905Y0139376D02*
X0503865Y0139376D01*
X0503865Y0139777D02*
X0501905Y0139777D01*
X0501905Y0140178D02*
X0503865Y0140178D01*
X0503865Y0140579D02*
X0501905Y0140579D01*
X0518440Y0137589D02*
X0520400Y0137589D01*
X0518440Y0137589D02*
X0518440Y0139943D01*
X0520400Y0139943D01*
X0520400Y0137589D01*
X0520400Y0137990D02*
X0518440Y0137990D01*
X0518440Y0138391D02*
X0520400Y0138391D01*
X0520400Y0138792D02*
X0518440Y0138792D01*
X0518440Y0139193D02*
X0520400Y0139193D01*
X0520400Y0139594D02*
X0518440Y0139594D01*
X0518440Y0142314D02*
X0520400Y0142314D01*
X0518440Y0142314D02*
X0518440Y0144668D01*
X0520400Y0144668D01*
X0520400Y0142314D01*
X0520400Y0142715D02*
X0518440Y0142715D01*
X0518440Y0143116D02*
X0520400Y0143116D01*
X0520400Y0143517D02*
X0518440Y0143517D01*
X0518440Y0143918D02*
X0520400Y0143918D01*
X0520400Y0144319D02*
X0518440Y0144319D01*
X0522377Y0142314D02*
X0524337Y0142314D01*
X0522377Y0142314D02*
X0522377Y0144668D01*
X0524337Y0144668D01*
X0524337Y0142314D01*
X0524337Y0142715D02*
X0522377Y0142715D01*
X0522377Y0143116D02*
X0524337Y0143116D01*
X0524337Y0143517D02*
X0522377Y0143517D01*
X0522377Y0143918D02*
X0524337Y0143918D01*
X0524337Y0144319D02*
X0522377Y0144319D01*
X0521983Y0148219D02*
X0523943Y0148219D01*
X0521983Y0148219D02*
X0521983Y0150573D01*
X0523943Y0150573D01*
X0523943Y0148219D01*
X0523943Y0148620D02*
X0521983Y0148620D01*
X0521983Y0149021D02*
X0523943Y0149021D01*
X0523943Y0149422D02*
X0521983Y0149422D01*
X0521983Y0149823D02*
X0523943Y0149823D01*
X0523943Y0150224D02*
X0521983Y0150224D01*
X0520006Y0148219D02*
X0518046Y0148219D01*
X0518046Y0150573D01*
X0520006Y0150573D01*
X0520006Y0148219D01*
X0520006Y0148620D02*
X0518046Y0148620D01*
X0518046Y0149021D02*
X0520006Y0149021D01*
X0520006Y0149422D02*
X0518046Y0149422D01*
X0518046Y0149823D02*
X0520006Y0149823D01*
X0520006Y0150224D02*
X0518046Y0150224D01*
X0518046Y0152944D02*
X0520006Y0152944D01*
X0518046Y0152944D02*
X0518046Y0155298D01*
X0520006Y0155298D01*
X0520006Y0152944D01*
X0520006Y0153345D02*
X0518046Y0153345D01*
X0518046Y0153746D02*
X0520006Y0153746D01*
X0520006Y0154147D02*
X0518046Y0154147D01*
X0518046Y0154548D02*
X0520006Y0154548D01*
X0520006Y0154949D02*
X0518046Y0154949D01*
X0518046Y0160022D02*
X0520006Y0160022D01*
X0520006Y0157668D01*
X0518046Y0157668D01*
X0518046Y0160022D01*
X0518046Y0158069D02*
X0520006Y0158069D01*
X0520006Y0158470D02*
X0518046Y0158470D01*
X0518046Y0158871D02*
X0520006Y0158871D01*
X0520006Y0159272D02*
X0518046Y0159272D01*
X0518046Y0159673D02*
X0520006Y0159673D01*
X0521983Y0160022D02*
X0523943Y0160022D01*
X0523943Y0157668D01*
X0521983Y0157668D01*
X0521983Y0160022D01*
X0521983Y0158069D02*
X0523943Y0158069D01*
X0523943Y0158470D02*
X0521983Y0158470D01*
X0521983Y0158871D02*
X0523943Y0158871D01*
X0523943Y0159272D02*
X0521983Y0159272D01*
X0521983Y0159673D02*
X0523943Y0159673D01*
X0523943Y0162393D02*
X0521983Y0162393D01*
X0521983Y0164747D01*
X0523943Y0164747D01*
X0523943Y0162393D01*
X0523943Y0162794D02*
X0521983Y0162794D01*
X0521983Y0163195D02*
X0523943Y0163195D01*
X0523943Y0163596D02*
X0521983Y0163596D01*
X0521983Y0163997D02*
X0523943Y0163997D01*
X0523943Y0164398D02*
X0521983Y0164398D01*
X0520006Y0162393D02*
X0518046Y0162393D01*
X0518046Y0164747D01*
X0520006Y0164747D01*
X0520006Y0162393D01*
X0520006Y0162794D02*
X0518046Y0162794D01*
X0518046Y0163195D02*
X0520006Y0163195D01*
X0520006Y0163596D02*
X0518046Y0163596D01*
X0518046Y0163997D02*
X0520006Y0163997D01*
X0520006Y0164398D02*
X0518046Y0164398D01*
X0518046Y0167117D02*
X0520006Y0167117D01*
X0518046Y0167117D02*
X0518046Y0169471D01*
X0520006Y0169471D01*
X0520006Y0167117D01*
X0520006Y0167518D02*
X0518046Y0167518D01*
X0518046Y0167919D02*
X0520006Y0167919D01*
X0520006Y0168320D02*
X0518046Y0168320D01*
X0518046Y0168721D02*
X0520006Y0168721D01*
X0520006Y0169122D02*
X0518046Y0169122D01*
X0518046Y0174195D02*
X0520006Y0174195D01*
X0520006Y0171841D01*
X0518046Y0171841D01*
X0518046Y0174195D01*
X0518046Y0172242D02*
X0520006Y0172242D01*
X0520006Y0172643D02*
X0518046Y0172643D01*
X0518046Y0173044D02*
X0520006Y0173044D01*
X0520006Y0173445D02*
X0518046Y0173445D01*
X0518046Y0173846D02*
X0520006Y0173846D01*
X0521983Y0174195D02*
X0523943Y0174195D01*
X0523943Y0171841D01*
X0521983Y0171841D01*
X0521983Y0174195D01*
X0521983Y0172242D02*
X0523943Y0172242D01*
X0523943Y0172643D02*
X0521983Y0172643D01*
X0521983Y0173044D02*
X0523943Y0173044D01*
X0523943Y0173445D02*
X0521983Y0173445D01*
X0521983Y0173846D02*
X0523943Y0173846D01*
X0523943Y0176566D02*
X0521983Y0176566D01*
X0521983Y0178920D01*
X0523943Y0178920D01*
X0523943Y0176566D01*
X0523943Y0176967D02*
X0521983Y0176967D01*
X0521983Y0177368D02*
X0523943Y0177368D01*
X0523943Y0177769D02*
X0521983Y0177769D01*
X0521983Y0178170D02*
X0523943Y0178170D01*
X0523943Y0178571D02*
X0521983Y0178571D01*
X0520006Y0176566D02*
X0518046Y0176566D01*
X0518046Y0178920D01*
X0520006Y0178920D01*
X0520006Y0176566D01*
X0520006Y0176967D02*
X0518046Y0176967D01*
X0518046Y0177368D02*
X0520006Y0177368D01*
X0520006Y0177769D02*
X0518046Y0177769D01*
X0518046Y0178170D02*
X0520006Y0178170D01*
X0520006Y0178571D02*
X0518046Y0178571D01*
X0518046Y0181290D02*
X0520006Y0181290D01*
X0518046Y0181290D02*
X0518046Y0183644D01*
X0520006Y0183644D01*
X0520006Y0181290D01*
X0520006Y0181691D02*
X0518046Y0181691D01*
X0518046Y0182092D02*
X0520006Y0182092D01*
X0520006Y0182493D02*
X0518046Y0182493D01*
X0518046Y0182894D02*
X0520006Y0182894D01*
X0520006Y0183295D02*
X0518046Y0183295D01*
X0518046Y0188369D02*
X0520006Y0188369D01*
X0520006Y0186015D01*
X0518046Y0186015D01*
X0518046Y0188369D01*
X0518046Y0186416D02*
X0520006Y0186416D01*
X0520006Y0186817D02*
X0518046Y0186817D01*
X0518046Y0187218D02*
X0520006Y0187218D01*
X0520006Y0187619D02*
X0518046Y0187619D01*
X0518046Y0188020D02*
X0520006Y0188020D01*
X0521983Y0188369D02*
X0523943Y0188369D01*
X0523943Y0186015D01*
X0521983Y0186015D01*
X0521983Y0188369D01*
X0521983Y0186416D02*
X0523943Y0186416D01*
X0523943Y0186817D02*
X0521983Y0186817D01*
X0521983Y0187218D02*
X0523943Y0187218D01*
X0523943Y0187619D02*
X0521983Y0187619D01*
X0521983Y0188020D02*
X0523943Y0188020D01*
X0523943Y0181290D02*
X0521983Y0181290D01*
X0521983Y0183644D01*
X0523943Y0183644D01*
X0523943Y0181290D01*
X0523943Y0181691D02*
X0521983Y0181691D01*
X0521983Y0182092D02*
X0523943Y0182092D01*
X0523943Y0182493D02*
X0521983Y0182493D01*
X0521983Y0182894D02*
X0523943Y0182894D01*
X0523943Y0183295D02*
X0521983Y0183295D01*
X0526117Y0183053D02*
X0526117Y0181093D01*
X0526117Y0183053D02*
X0528471Y0183053D01*
X0528471Y0181093D01*
X0526117Y0181093D01*
X0526117Y0181494D02*
X0528471Y0181494D01*
X0528471Y0181895D02*
X0526117Y0181895D01*
X0526117Y0182296D02*
X0528471Y0182296D01*
X0528471Y0182697D02*
X0526117Y0182697D01*
X0526117Y0179116D02*
X0526117Y0177156D01*
X0526117Y0179116D02*
X0528471Y0179116D01*
X0528471Y0177156D01*
X0526117Y0177156D01*
X0526117Y0177557D02*
X0528471Y0177557D01*
X0528471Y0177958D02*
X0526117Y0177958D01*
X0526117Y0178359D02*
X0528471Y0178359D01*
X0528471Y0178760D02*
X0526117Y0178760D01*
X0523943Y0167117D02*
X0521983Y0167117D01*
X0521983Y0169471D01*
X0523943Y0169471D01*
X0523943Y0167117D01*
X0523943Y0167518D02*
X0521983Y0167518D01*
X0521983Y0167919D02*
X0523943Y0167919D01*
X0523943Y0168320D02*
X0521983Y0168320D01*
X0521983Y0168721D02*
X0523943Y0168721D01*
X0523943Y0169122D02*
X0521983Y0169122D01*
X0521983Y0152944D02*
X0523943Y0152944D01*
X0521983Y0152944D02*
X0521983Y0155298D01*
X0523943Y0155298D01*
X0523943Y0152944D01*
X0523943Y0153345D02*
X0521983Y0153345D01*
X0521983Y0153746D02*
X0523943Y0153746D01*
X0523943Y0154147D02*
X0521983Y0154147D01*
X0521983Y0154548D02*
X0523943Y0154548D01*
X0523943Y0154949D02*
X0521983Y0154949D01*
X0525527Y0155298D02*
X0527487Y0155298D01*
X0527487Y0152944D01*
X0525527Y0152944D01*
X0525527Y0155298D01*
X0525527Y0153345D02*
X0527487Y0153345D01*
X0527487Y0153746D02*
X0525527Y0153746D01*
X0525527Y0154147D02*
X0527487Y0154147D01*
X0527487Y0154548D02*
X0525527Y0154548D01*
X0525527Y0154949D02*
X0527487Y0154949D01*
X0529464Y0155298D02*
X0531424Y0155298D01*
X0531424Y0152944D01*
X0529464Y0152944D01*
X0529464Y0155298D01*
X0529464Y0153345D02*
X0531424Y0153345D01*
X0531424Y0153746D02*
X0529464Y0153746D01*
X0529464Y0154147D02*
X0531424Y0154147D01*
X0531424Y0154548D02*
X0529464Y0154548D01*
X0529464Y0154949D02*
X0531424Y0154949D01*
X0531424Y0148219D02*
X0529464Y0148219D01*
X0529464Y0150573D01*
X0531424Y0150573D01*
X0531424Y0148219D01*
X0531424Y0148620D02*
X0529464Y0148620D01*
X0529464Y0149021D02*
X0531424Y0149021D01*
X0531424Y0149422D02*
X0529464Y0149422D01*
X0529464Y0149823D02*
X0531424Y0149823D01*
X0531424Y0150224D02*
X0529464Y0150224D01*
X0527487Y0148219D02*
X0525527Y0148219D01*
X0525527Y0150573D01*
X0527487Y0150573D01*
X0527487Y0148219D01*
X0527487Y0148620D02*
X0525527Y0148620D01*
X0525527Y0149021D02*
X0527487Y0149021D01*
X0527487Y0149422D02*
X0525527Y0149422D01*
X0525527Y0149823D02*
X0527487Y0149823D01*
X0527487Y0150224D02*
X0525527Y0150224D01*
X0524337Y0137589D02*
X0522377Y0137589D01*
X0522377Y0139943D01*
X0524337Y0139943D01*
X0524337Y0137589D01*
X0524337Y0137990D02*
X0522377Y0137990D01*
X0522377Y0138391D02*
X0524337Y0138391D01*
X0524337Y0138792D02*
X0522377Y0138792D01*
X0522377Y0139193D02*
X0524337Y0139193D01*
X0524337Y0139594D02*
X0522377Y0139594D01*
X0522377Y0135219D02*
X0524337Y0135219D01*
X0524337Y0132865D01*
X0522377Y0132865D01*
X0522377Y0135219D01*
X0522377Y0133266D02*
X0524337Y0133266D01*
X0524337Y0133667D02*
X0522377Y0133667D01*
X0522377Y0134068D02*
X0524337Y0134068D01*
X0524337Y0134469D02*
X0522377Y0134469D01*
X0522377Y0134870D02*
X0524337Y0134870D01*
X0520400Y0135219D02*
X0518440Y0135219D01*
X0520400Y0135219D02*
X0520400Y0132865D01*
X0518440Y0132865D01*
X0518440Y0135219D01*
X0518440Y0133266D02*
X0520400Y0133266D01*
X0520400Y0133667D02*
X0518440Y0133667D01*
X0518440Y0134068D02*
X0520400Y0134068D01*
X0520400Y0134469D02*
X0518440Y0134469D01*
X0518440Y0134870D02*
X0520400Y0134870D01*
X0522377Y0128141D02*
X0524337Y0128141D01*
X0522377Y0128141D02*
X0522377Y0130495D01*
X0524337Y0130495D01*
X0524337Y0128141D01*
X0524337Y0128542D02*
X0522377Y0128542D01*
X0522377Y0128943D02*
X0524337Y0128943D01*
X0524337Y0129344D02*
X0522377Y0129344D01*
X0522377Y0129745D02*
X0524337Y0129745D01*
X0524337Y0130146D02*
X0522377Y0130146D01*
X0526314Y0128141D02*
X0528274Y0128141D01*
X0526314Y0128141D02*
X0526314Y0130495D01*
X0528274Y0130495D01*
X0528274Y0128141D01*
X0528274Y0128542D02*
X0526314Y0128542D01*
X0526314Y0128943D02*
X0528274Y0128943D01*
X0528274Y0129344D02*
X0526314Y0129344D01*
X0526314Y0129745D02*
X0528274Y0129745D01*
X0528274Y0130146D02*
X0526314Y0130146D01*
X0523943Y0118298D02*
X0521983Y0118298D01*
X0521983Y0120652D01*
X0523943Y0120652D01*
X0523943Y0118298D01*
X0523943Y0118699D02*
X0521983Y0118699D01*
X0521983Y0119100D02*
X0523943Y0119100D01*
X0523943Y0119501D02*
X0521983Y0119501D01*
X0521983Y0119902D02*
X0523943Y0119902D01*
X0523943Y0120303D02*
X0521983Y0120303D01*
X0520006Y0118298D02*
X0518046Y0118298D01*
X0518046Y0120652D01*
X0520006Y0120652D01*
X0520006Y0118298D01*
X0520006Y0118699D02*
X0518046Y0118699D01*
X0518046Y0119100D02*
X0520006Y0119100D01*
X0520006Y0119501D02*
X0518046Y0119501D01*
X0518046Y0119902D02*
X0520006Y0119902D01*
X0520006Y0120303D02*
X0518046Y0120303D01*
X0518046Y0115928D02*
X0520006Y0115928D01*
X0520006Y0113574D01*
X0518046Y0113574D01*
X0518046Y0115928D01*
X0518046Y0113975D02*
X0520006Y0113975D01*
X0520006Y0114376D02*
X0518046Y0114376D01*
X0518046Y0114777D02*
X0520006Y0114777D01*
X0520006Y0115178D02*
X0518046Y0115178D01*
X0518046Y0115579D02*
X0520006Y0115579D01*
X0521983Y0115928D02*
X0523943Y0115928D01*
X0523943Y0113574D01*
X0521983Y0113574D01*
X0521983Y0115928D01*
X0521983Y0113975D02*
X0523943Y0113975D01*
X0523943Y0114376D02*
X0521983Y0114376D01*
X0521983Y0114777D02*
X0523943Y0114777D01*
X0523943Y0115178D02*
X0521983Y0115178D01*
X0521983Y0115579D02*
X0523943Y0115579D01*
X0523943Y0108849D02*
X0521983Y0108849D01*
X0521983Y0111203D01*
X0523943Y0111203D01*
X0523943Y0108849D01*
X0523943Y0109250D02*
X0521983Y0109250D01*
X0521983Y0109651D02*
X0523943Y0109651D01*
X0523943Y0110052D02*
X0521983Y0110052D01*
X0521983Y0110453D02*
X0523943Y0110453D01*
X0523943Y0110854D02*
X0521983Y0110854D01*
X0520006Y0108849D02*
X0518046Y0108849D01*
X0518046Y0111203D01*
X0520006Y0111203D01*
X0520006Y0108849D01*
X0520006Y0109250D02*
X0518046Y0109250D01*
X0518046Y0109651D02*
X0520006Y0109651D01*
X0520006Y0110052D02*
X0518046Y0110052D01*
X0518046Y0110453D02*
X0520006Y0110453D01*
X0520006Y0110854D02*
X0518046Y0110854D01*
X0518046Y0104125D02*
X0520006Y0104125D01*
X0518046Y0104125D02*
X0518046Y0106479D01*
X0520006Y0106479D01*
X0520006Y0104125D01*
X0520006Y0104526D02*
X0518046Y0104526D01*
X0518046Y0104927D02*
X0520006Y0104927D01*
X0520006Y0105328D02*
X0518046Y0105328D01*
X0518046Y0105729D02*
X0520006Y0105729D01*
X0520006Y0106130D02*
X0518046Y0106130D01*
X0521983Y0104125D02*
X0523943Y0104125D01*
X0521983Y0104125D02*
X0521983Y0106479D01*
X0523943Y0106479D01*
X0523943Y0104125D01*
X0523943Y0104526D02*
X0521983Y0104526D01*
X0521983Y0104927D02*
X0523943Y0104927D01*
X0523943Y0105328D02*
X0521983Y0105328D01*
X0521983Y0105729D02*
X0523943Y0105729D01*
X0523943Y0106130D02*
X0521983Y0106130D01*
X0525527Y0104125D02*
X0527487Y0104125D01*
X0525527Y0104125D02*
X0525527Y0106479D01*
X0527487Y0106479D01*
X0527487Y0104125D01*
X0527487Y0104526D02*
X0525527Y0104526D01*
X0525527Y0104927D02*
X0527487Y0104927D01*
X0527487Y0105328D02*
X0525527Y0105328D01*
X0525527Y0105729D02*
X0527487Y0105729D01*
X0527487Y0106130D02*
X0525527Y0106130D01*
X0525527Y0111203D02*
X0527487Y0111203D01*
X0527487Y0108849D01*
X0525527Y0108849D01*
X0525527Y0111203D01*
X0525527Y0109250D02*
X0527487Y0109250D01*
X0527487Y0109651D02*
X0525527Y0109651D01*
X0525527Y0110052D02*
X0527487Y0110052D01*
X0527487Y0110453D02*
X0525527Y0110453D01*
X0525527Y0110854D02*
X0527487Y0110854D01*
X0529464Y0111203D02*
X0531424Y0111203D01*
X0531424Y0108849D01*
X0529464Y0108849D01*
X0529464Y0111203D01*
X0529464Y0109250D02*
X0531424Y0109250D01*
X0531424Y0109651D02*
X0529464Y0109651D01*
X0529464Y0110052D02*
X0531424Y0110052D01*
X0531424Y0110453D02*
X0529464Y0110453D01*
X0529464Y0110854D02*
X0531424Y0110854D01*
X0531424Y0104125D02*
X0529464Y0104125D01*
X0529464Y0106479D01*
X0531424Y0106479D01*
X0531424Y0104125D01*
X0531424Y0104526D02*
X0529464Y0104526D01*
X0529464Y0104927D02*
X0531424Y0104927D01*
X0531424Y0105328D02*
X0529464Y0105328D01*
X0529464Y0105729D02*
X0531424Y0105729D01*
X0531424Y0106130D02*
X0529464Y0106130D01*
X0484180Y0106479D02*
X0482220Y0106479D01*
X0484180Y0106479D02*
X0484180Y0104125D01*
X0482220Y0104125D01*
X0482220Y0106479D01*
X0482220Y0104526D02*
X0484180Y0104526D01*
X0484180Y0104927D02*
X0482220Y0104927D01*
X0482220Y0105328D02*
X0484180Y0105328D01*
X0484180Y0105729D02*
X0482220Y0105729D01*
X0482220Y0106130D02*
X0484180Y0106130D01*
X0484180Y0111203D02*
X0482220Y0111203D01*
X0484180Y0111203D02*
X0484180Y0108849D01*
X0482220Y0108849D01*
X0482220Y0111203D01*
X0482220Y0109250D02*
X0484180Y0109250D01*
X0484180Y0109651D02*
X0482220Y0109651D01*
X0482220Y0110052D02*
X0484180Y0110052D01*
X0484180Y0110453D02*
X0482220Y0110453D01*
X0482220Y0110854D02*
X0484180Y0110854D01*
X0484180Y0113574D02*
X0482220Y0113574D01*
X0482220Y0115928D01*
X0484180Y0115928D01*
X0484180Y0113574D01*
X0484180Y0113975D02*
X0482220Y0113975D01*
X0482220Y0114376D02*
X0484180Y0114376D01*
X0484180Y0114777D02*
X0482220Y0114777D01*
X0482220Y0115178D02*
X0484180Y0115178D01*
X0484180Y0115579D02*
X0482220Y0115579D01*
X0480243Y0113574D02*
X0478283Y0113574D01*
X0478283Y0115928D01*
X0480243Y0115928D01*
X0480243Y0113574D01*
X0480243Y0113975D02*
X0478283Y0113975D01*
X0478283Y0114376D02*
X0480243Y0114376D01*
X0480243Y0114777D02*
X0478283Y0114777D01*
X0478283Y0115178D02*
X0480243Y0115178D01*
X0480243Y0115579D02*
X0478283Y0115579D01*
X0478283Y0120652D02*
X0480243Y0120652D01*
X0480243Y0118298D01*
X0478283Y0118298D01*
X0478283Y0120652D01*
X0478283Y0118699D02*
X0480243Y0118699D01*
X0480243Y0119100D02*
X0478283Y0119100D01*
X0478283Y0119501D02*
X0480243Y0119501D01*
X0480243Y0119902D02*
X0478283Y0119902D01*
X0478283Y0120303D02*
X0480243Y0120303D01*
X0482220Y0120652D02*
X0484180Y0120652D01*
X0484180Y0118298D01*
X0482220Y0118298D01*
X0482220Y0120652D01*
X0482220Y0118699D02*
X0484180Y0118699D01*
X0484180Y0119100D02*
X0482220Y0119100D01*
X0482220Y0119501D02*
X0484180Y0119501D01*
X0484180Y0119902D02*
X0482220Y0119902D01*
X0482220Y0120303D02*
X0484180Y0120303D01*
X0484180Y0125376D02*
X0482220Y0125376D01*
X0484180Y0125376D02*
X0484180Y0123022D01*
X0482220Y0123022D01*
X0482220Y0125376D01*
X0482220Y0123423D02*
X0484180Y0123423D01*
X0484180Y0123824D02*
X0482220Y0123824D01*
X0482220Y0124225D02*
X0484180Y0124225D01*
X0484180Y0124626D02*
X0482220Y0124626D01*
X0482220Y0125027D02*
X0484180Y0125027D01*
X0484180Y0127747D02*
X0482220Y0127747D01*
X0482220Y0130101D01*
X0484180Y0130101D01*
X0484180Y0127747D01*
X0484180Y0128148D02*
X0482220Y0128148D01*
X0482220Y0128549D02*
X0484180Y0128549D01*
X0484180Y0128950D02*
X0482220Y0128950D01*
X0482220Y0129351D02*
X0484180Y0129351D01*
X0484180Y0129752D02*
X0482220Y0129752D01*
X0480243Y0127747D02*
X0478283Y0127747D01*
X0478283Y0130101D01*
X0480243Y0130101D01*
X0480243Y0127747D01*
X0480243Y0128148D02*
X0478283Y0128148D01*
X0478283Y0128549D02*
X0480243Y0128549D01*
X0480243Y0128950D02*
X0478283Y0128950D01*
X0478283Y0129351D02*
X0480243Y0129351D01*
X0480243Y0129752D02*
X0478283Y0129752D01*
X0476699Y0127747D02*
X0474739Y0127747D01*
X0474739Y0130101D01*
X0476699Y0130101D01*
X0476699Y0127747D01*
X0476699Y0128148D02*
X0474739Y0128148D01*
X0474739Y0128549D02*
X0476699Y0128549D01*
X0476699Y0128950D02*
X0474739Y0128950D01*
X0474739Y0129351D02*
X0476699Y0129351D01*
X0476699Y0129752D02*
X0474739Y0129752D01*
X0472762Y0127747D02*
X0470802Y0127747D01*
X0470802Y0130101D01*
X0472762Y0130101D01*
X0472762Y0127747D01*
X0472762Y0128148D02*
X0470802Y0128148D01*
X0470802Y0128549D02*
X0472762Y0128549D01*
X0472762Y0128950D02*
X0470802Y0128950D01*
X0470802Y0129351D02*
X0472762Y0129351D01*
X0472762Y0129752D02*
X0470802Y0129752D01*
X0478283Y0134825D02*
X0480243Y0134825D01*
X0480243Y0132471D01*
X0478283Y0132471D01*
X0478283Y0134825D01*
X0478283Y0132872D02*
X0480243Y0132872D01*
X0480243Y0133273D02*
X0478283Y0133273D01*
X0478283Y0133674D02*
X0480243Y0133674D01*
X0480243Y0134075D02*
X0478283Y0134075D01*
X0478283Y0134476D02*
X0480243Y0134476D01*
X0482220Y0134825D02*
X0484180Y0134825D01*
X0484180Y0132471D01*
X0482220Y0132471D01*
X0482220Y0134825D01*
X0482220Y0132872D02*
X0484180Y0132872D01*
X0484180Y0133273D02*
X0482220Y0133273D01*
X0482220Y0133674D02*
X0484180Y0133674D01*
X0484180Y0134075D02*
X0482220Y0134075D01*
X0482220Y0134476D02*
X0484180Y0134476D01*
X0484180Y0139550D02*
X0482220Y0139550D01*
X0484180Y0139550D02*
X0484180Y0137196D01*
X0482220Y0137196D01*
X0482220Y0139550D01*
X0482220Y0137597D02*
X0484180Y0137597D01*
X0484180Y0137998D02*
X0482220Y0137998D01*
X0482220Y0138399D02*
X0484180Y0138399D01*
X0484180Y0138800D02*
X0482220Y0138800D01*
X0482220Y0139201D02*
X0484180Y0139201D01*
X0480243Y0139550D02*
X0478283Y0139550D01*
X0480243Y0139550D02*
X0480243Y0137196D01*
X0478283Y0137196D01*
X0478283Y0139550D01*
X0478283Y0137597D02*
X0480243Y0137597D01*
X0480243Y0137998D02*
X0478283Y0137998D01*
X0478283Y0138399D02*
X0480243Y0138399D01*
X0480243Y0138800D02*
X0478283Y0138800D01*
X0478283Y0139201D02*
X0480243Y0139201D01*
X0476699Y0139550D02*
X0474739Y0139550D01*
X0476699Y0139550D02*
X0476699Y0137196D01*
X0474739Y0137196D01*
X0474739Y0139550D01*
X0474739Y0137597D02*
X0476699Y0137597D01*
X0476699Y0137998D02*
X0474739Y0137998D01*
X0474739Y0138399D02*
X0476699Y0138399D01*
X0476699Y0138800D02*
X0474739Y0138800D01*
X0474739Y0139201D02*
X0476699Y0139201D01*
X0472762Y0139550D02*
X0470802Y0139550D01*
X0472762Y0139550D02*
X0472762Y0137196D01*
X0470802Y0137196D01*
X0470802Y0139550D01*
X0470802Y0137597D02*
X0472762Y0137597D01*
X0472762Y0137998D02*
X0470802Y0137998D01*
X0470802Y0138399D02*
X0472762Y0138399D01*
X0472762Y0138800D02*
X0470802Y0138800D01*
X0470802Y0139201D02*
X0472762Y0139201D01*
X0467054Y0148219D02*
X0465094Y0148219D01*
X0465094Y0150573D01*
X0467054Y0150573D01*
X0467054Y0148219D01*
X0467054Y0148620D02*
X0465094Y0148620D01*
X0465094Y0149021D02*
X0467054Y0149021D01*
X0467054Y0149422D02*
X0465094Y0149422D01*
X0465094Y0149823D02*
X0467054Y0149823D01*
X0467054Y0150224D02*
X0465094Y0150224D01*
X0463117Y0148219D02*
X0461157Y0148219D01*
X0461157Y0150573D01*
X0463117Y0150573D01*
X0463117Y0148219D01*
X0463117Y0148620D02*
X0461157Y0148620D01*
X0461157Y0149021D02*
X0463117Y0149021D01*
X0463117Y0149422D02*
X0461157Y0149422D01*
X0461157Y0149823D02*
X0463117Y0149823D01*
X0463117Y0150224D02*
X0461157Y0150224D01*
X0462141Y0155298D02*
X0464101Y0155298D01*
X0464101Y0152944D01*
X0462141Y0152944D01*
X0462141Y0155298D01*
X0462141Y0153345D02*
X0464101Y0153345D01*
X0464101Y0153746D02*
X0462141Y0153746D01*
X0462141Y0154147D02*
X0464101Y0154147D01*
X0464101Y0154548D02*
X0462141Y0154548D01*
X0462141Y0154949D02*
X0464101Y0154949D01*
X0460164Y0155298D02*
X0458204Y0155298D01*
X0460164Y0155298D02*
X0460164Y0152944D01*
X0458204Y0152944D01*
X0458204Y0155298D01*
X0458204Y0153345D02*
X0460164Y0153345D01*
X0460164Y0153746D02*
X0458204Y0153746D01*
X0458204Y0154147D02*
X0460164Y0154147D01*
X0460164Y0154548D02*
X0458204Y0154548D01*
X0458204Y0154949D02*
X0460164Y0154949D01*
X0456621Y0152944D02*
X0454661Y0152944D01*
X0454661Y0155298D01*
X0456621Y0155298D01*
X0456621Y0152944D01*
X0456621Y0153345D02*
X0454661Y0153345D01*
X0454661Y0153746D02*
X0456621Y0153746D01*
X0456621Y0154147D02*
X0454661Y0154147D01*
X0454661Y0154548D02*
X0456621Y0154548D01*
X0456621Y0154949D02*
X0454661Y0154949D01*
X0454661Y0137196D02*
X0456621Y0137196D01*
X0454661Y0137196D02*
X0454661Y0139550D01*
X0456621Y0139550D01*
X0456621Y0137196D01*
X0456621Y0137597D02*
X0454661Y0137597D01*
X0454661Y0137998D02*
X0456621Y0137998D01*
X0456621Y0138399D02*
X0454661Y0138399D01*
X0454661Y0138800D02*
X0456621Y0138800D01*
X0456621Y0139201D02*
X0454661Y0139201D01*
X0454661Y0132471D02*
X0456621Y0132471D01*
X0454661Y0132471D02*
X0454661Y0134825D01*
X0456621Y0134825D01*
X0456621Y0132471D01*
X0456621Y0132872D02*
X0454661Y0132872D01*
X0454661Y0133273D02*
X0456621Y0133273D01*
X0456621Y0133674D02*
X0454661Y0133674D01*
X0454661Y0134075D02*
X0456621Y0134075D01*
X0456621Y0134476D02*
X0454661Y0134476D01*
X0452684Y0132471D02*
X0450724Y0132471D01*
X0450724Y0134825D01*
X0452684Y0134825D01*
X0452684Y0132471D01*
X0452684Y0132872D02*
X0450724Y0132872D01*
X0450724Y0133273D02*
X0452684Y0133273D01*
X0452684Y0133674D02*
X0450724Y0133674D01*
X0450724Y0134075D02*
X0452684Y0134075D01*
X0452684Y0134476D02*
X0450724Y0134476D01*
X0450724Y0130101D02*
X0452684Y0130101D01*
X0452684Y0127747D01*
X0450724Y0127747D01*
X0450724Y0130101D01*
X0450724Y0128148D02*
X0452684Y0128148D01*
X0452684Y0128549D02*
X0450724Y0128549D01*
X0450724Y0128950D02*
X0452684Y0128950D01*
X0452684Y0129351D02*
X0450724Y0129351D01*
X0450724Y0129752D02*
X0452684Y0129752D01*
X0454661Y0130101D02*
X0456621Y0130101D01*
X0456621Y0127747D01*
X0454661Y0127747D01*
X0454661Y0130101D01*
X0454661Y0128148D02*
X0456621Y0128148D01*
X0456621Y0128549D02*
X0454661Y0128549D01*
X0454661Y0128950D02*
X0456621Y0128950D01*
X0456621Y0129351D02*
X0454661Y0129351D01*
X0454661Y0129752D02*
X0456621Y0129752D01*
X0461345Y0129125D02*
X0461345Y0131085D01*
X0461345Y0129125D02*
X0458991Y0129125D01*
X0458991Y0131085D01*
X0461345Y0131085D01*
X0461345Y0129526D02*
X0458991Y0129526D01*
X0458991Y0129927D02*
X0461345Y0129927D01*
X0461345Y0130328D02*
X0458991Y0130328D01*
X0458991Y0130729D02*
X0461345Y0130729D01*
X0461345Y0133062D02*
X0461345Y0135022D01*
X0461345Y0133062D02*
X0458991Y0133062D01*
X0458991Y0135022D01*
X0461345Y0135022D01*
X0461345Y0133463D02*
X0458991Y0133463D01*
X0458991Y0133864D02*
X0461345Y0133864D01*
X0461345Y0134265D02*
X0458991Y0134265D01*
X0458991Y0134666D02*
X0461345Y0134666D01*
X0456621Y0123022D02*
X0454661Y0123022D01*
X0454661Y0125376D01*
X0456621Y0125376D01*
X0456621Y0123022D01*
X0456621Y0123423D02*
X0454661Y0123423D01*
X0454661Y0123824D02*
X0456621Y0123824D01*
X0456621Y0124225D02*
X0454661Y0124225D01*
X0454661Y0124626D02*
X0456621Y0124626D01*
X0456621Y0125027D02*
X0454661Y0125027D01*
X0452684Y0123022D02*
X0450724Y0123022D01*
X0450724Y0125376D01*
X0452684Y0125376D01*
X0452684Y0123022D01*
X0452684Y0123423D02*
X0450724Y0123423D01*
X0450724Y0123824D02*
X0452684Y0123824D01*
X0452684Y0124225D02*
X0450724Y0124225D01*
X0450724Y0124626D02*
X0452684Y0124626D01*
X0452684Y0125027D02*
X0450724Y0125027D01*
X0450724Y0118298D02*
X0452684Y0118298D01*
X0450724Y0118298D02*
X0450724Y0120652D01*
X0452684Y0120652D01*
X0452684Y0118298D01*
X0452684Y0118699D02*
X0450724Y0118699D01*
X0450724Y0119100D02*
X0452684Y0119100D01*
X0452684Y0119501D02*
X0450724Y0119501D01*
X0450724Y0119902D02*
X0452684Y0119902D01*
X0452684Y0120303D02*
X0450724Y0120303D01*
X0454661Y0118298D02*
X0456621Y0118298D01*
X0454661Y0118298D02*
X0454661Y0120652D01*
X0456621Y0120652D01*
X0456621Y0118298D01*
X0456621Y0118699D02*
X0454661Y0118699D01*
X0454661Y0119100D02*
X0456621Y0119100D01*
X0456621Y0119501D02*
X0454661Y0119501D01*
X0454661Y0119902D02*
X0456621Y0119902D01*
X0456621Y0120303D02*
X0454661Y0120303D01*
X0454661Y0115928D02*
X0456621Y0115928D01*
X0456621Y0113574D01*
X0454661Y0113574D01*
X0454661Y0115928D01*
X0454661Y0113975D02*
X0456621Y0113975D01*
X0456621Y0114376D02*
X0454661Y0114376D01*
X0454661Y0114777D02*
X0456621Y0114777D01*
X0456621Y0115178D02*
X0454661Y0115178D01*
X0454661Y0115579D02*
X0456621Y0115579D01*
X0458204Y0115928D02*
X0460164Y0115928D01*
X0460164Y0113574D01*
X0458204Y0113574D01*
X0458204Y0115928D01*
X0458204Y0113975D02*
X0460164Y0113975D01*
X0460164Y0114376D02*
X0458204Y0114376D01*
X0458204Y0114777D02*
X0460164Y0114777D01*
X0460164Y0115178D02*
X0458204Y0115178D01*
X0458204Y0115579D02*
X0460164Y0115579D01*
X0462141Y0115928D02*
X0464101Y0115928D01*
X0464101Y0113574D01*
X0462141Y0113574D01*
X0462141Y0115928D01*
X0462141Y0113975D02*
X0464101Y0113975D01*
X0464101Y0114376D02*
X0462141Y0114376D01*
X0462141Y0114777D02*
X0464101Y0114777D01*
X0464101Y0115178D02*
X0462141Y0115178D01*
X0462141Y0115579D02*
X0464101Y0115579D01*
X0470802Y0108849D02*
X0472762Y0108849D01*
X0470802Y0108849D02*
X0470802Y0111203D01*
X0472762Y0111203D01*
X0472762Y0108849D01*
X0472762Y0109250D02*
X0470802Y0109250D01*
X0470802Y0109651D02*
X0472762Y0109651D01*
X0472762Y0110052D02*
X0470802Y0110052D01*
X0470802Y0110453D02*
X0472762Y0110453D01*
X0472762Y0110854D02*
X0470802Y0110854D01*
X0474739Y0108849D02*
X0476699Y0108849D01*
X0474739Y0108849D02*
X0474739Y0111203D01*
X0476699Y0111203D01*
X0476699Y0108849D01*
X0476699Y0109250D02*
X0474739Y0109250D01*
X0474739Y0109651D02*
X0476699Y0109651D01*
X0476699Y0110052D02*
X0474739Y0110052D01*
X0474739Y0110453D02*
X0476699Y0110453D01*
X0476699Y0110854D02*
X0474739Y0110854D01*
X0478283Y0111203D02*
X0480243Y0111203D01*
X0480243Y0108849D01*
X0478283Y0108849D01*
X0478283Y0111203D01*
X0478283Y0109250D02*
X0480243Y0109250D01*
X0480243Y0109651D02*
X0478283Y0109651D01*
X0478283Y0110052D02*
X0480243Y0110052D01*
X0480243Y0110453D02*
X0478283Y0110453D01*
X0478283Y0110854D02*
X0480243Y0110854D01*
X0480243Y0106479D02*
X0478283Y0106479D01*
X0480243Y0106479D02*
X0480243Y0104125D01*
X0478283Y0104125D01*
X0478283Y0106479D01*
X0478283Y0104526D02*
X0480243Y0104526D01*
X0480243Y0104927D02*
X0478283Y0104927D01*
X0478283Y0105328D02*
X0480243Y0105328D01*
X0480243Y0105729D02*
X0478283Y0105729D01*
X0478283Y0106130D02*
X0480243Y0106130D01*
X0476699Y0106479D02*
X0474739Y0106479D01*
X0476699Y0106479D02*
X0476699Y0104125D01*
X0474739Y0104125D01*
X0474739Y0106479D01*
X0474739Y0104526D02*
X0476699Y0104526D01*
X0476699Y0104927D02*
X0474739Y0104927D01*
X0474739Y0105328D02*
X0476699Y0105328D01*
X0476699Y0105729D02*
X0474739Y0105729D01*
X0474739Y0106130D02*
X0476699Y0106130D01*
X0472762Y0106479D02*
X0470802Y0106479D01*
X0472762Y0106479D02*
X0472762Y0104125D01*
X0470802Y0104125D01*
X0470802Y0106479D01*
X0470802Y0104526D02*
X0472762Y0104526D01*
X0472762Y0104927D02*
X0470802Y0104927D01*
X0470802Y0105328D02*
X0472762Y0105328D01*
X0472762Y0105729D02*
X0470802Y0105729D01*
X0470802Y0106130D02*
X0472762Y0106130D01*
X0464101Y0104125D02*
X0462141Y0104125D01*
X0462141Y0106479D01*
X0464101Y0106479D01*
X0464101Y0104125D01*
X0464101Y0104526D02*
X0462141Y0104526D01*
X0462141Y0104927D02*
X0464101Y0104927D01*
X0464101Y0105328D02*
X0462141Y0105328D01*
X0462141Y0105729D02*
X0464101Y0105729D01*
X0464101Y0106130D02*
X0462141Y0106130D01*
X0460164Y0104125D02*
X0458204Y0104125D01*
X0458204Y0106479D01*
X0460164Y0106479D01*
X0460164Y0104125D01*
X0460164Y0104526D02*
X0458204Y0104526D01*
X0458204Y0104927D02*
X0460164Y0104927D01*
X0460164Y0105328D02*
X0458204Y0105328D01*
X0458204Y0105729D02*
X0460164Y0105729D01*
X0460164Y0106130D02*
X0458204Y0106130D01*
X0456621Y0104125D02*
X0454661Y0104125D01*
X0454661Y0106479D01*
X0456621Y0106479D01*
X0456621Y0104125D01*
X0456621Y0104526D02*
X0454661Y0104526D01*
X0454661Y0104927D02*
X0456621Y0104927D01*
X0456621Y0105328D02*
X0454661Y0105328D01*
X0454661Y0105729D02*
X0456621Y0105729D01*
X0456621Y0106130D02*
X0454661Y0106130D01*
X0452684Y0104125D02*
X0450724Y0104125D01*
X0450724Y0106479D01*
X0452684Y0106479D01*
X0452684Y0104125D01*
X0452684Y0104526D02*
X0450724Y0104526D01*
X0450724Y0104927D02*
X0452684Y0104927D01*
X0452684Y0105328D02*
X0450724Y0105328D01*
X0450724Y0105729D02*
X0452684Y0105729D01*
X0452684Y0106130D02*
X0450724Y0106130D01*
X0450724Y0108849D02*
X0452684Y0108849D01*
X0450724Y0108849D02*
X0450724Y0111203D01*
X0452684Y0111203D01*
X0452684Y0108849D01*
X0452684Y0109250D02*
X0450724Y0109250D01*
X0450724Y0109651D02*
X0452684Y0109651D01*
X0452684Y0110052D02*
X0450724Y0110052D01*
X0450724Y0110453D02*
X0452684Y0110453D01*
X0452684Y0110854D02*
X0450724Y0110854D01*
X0450724Y0115928D02*
X0452684Y0115928D01*
X0452684Y0113574D01*
X0450724Y0113574D01*
X0450724Y0115928D01*
X0450724Y0113975D02*
X0452684Y0113975D01*
X0452684Y0114376D02*
X0450724Y0114376D01*
X0450724Y0114777D02*
X0452684Y0114777D01*
X0452684Y0115178D02*
X0450724Y0115178D01*
X0450724Y0115579D02*
X0452684Y0115579D01*
X0454661Y0108849D02*
X0456621Y0108849D01*
X0454661Y0108849D02*
X0454661Y0111203D01*
X0456621Y0111203D01*
X0456621Y0108849D01*
X0456621Y0109250D02*
X0454661Y0109250D01*
X0454661Y0109651D02*
X0456621Y0109651D01*
X0456621Y0110052D02*
X0454661Y0110052D01*
X0454661Y0110453D02*
X0456621Y0110453D01*
X0456621Y0110854D02*
X0454661Y0110854D01*
X0478283Y0125376D02*
X0480243Y0125376D01*
X0480243Y0123022D01*
X0478283Y0123022D01*
X0478283Y0125376D01*
X0478283Y0123423D02*
X0480243Y0123423D01*
X0480243Y0123824D02*
X0478283Y0123824D01*
X0478283Y0124225D02*
X0480243Y0124225D01*
X0480243Y0124626D02*
X0478283Y0124626D01*
X0478283Y0125027D02*
X0480243Y0125027D01*
X0413313Y0125376D02*
X0411353Y0125376D01*
X0413313Y0125376D02*
X0413313Y0123022D01*
X0411353Y0123022D01*
X0411353Y0125376D01*
X0411353Y0123423D02*
X0413313Y0123423D01*
X0413313Y0123824D02*
X0411353Y0123824D01*
X0411353Y0124225D02*
X0413313Y0124225D01*
X0413313Y0124626D02*
X0411353Y0124626D01*
X0411353Y0125027D02*
X0413313Y0125027D01*
X0413313Y0111203D02*
X0411353Y0111203D01*
X0413313Y0111203D02*
X0413313Y0108849D01*
X0411353Y0108849D01*
X0411353Y0111203D01*
X0411353Y0109250D02*
X0413313Y0109250D01*
X0413313Y0109651D02*
X0411353Y0109651D01*
X0411353Y0110052D02*
X0413313Y0110052D01*
X0413313Y0110453D02*
X0411353Y0110453D01*
X0411353Y0110854D02*
X0413313Y0110854D01*
X0409376Y0108849D02*
X0407416Y0108849D01*
X0407416Y0111203D01*
X0409376Y0111203D01*
X0409376Y0108849D01*
X0409376Y0109250D02*
X0407416Y0109250D01*
X0407416Y0109651D02*
X0409376Y0109651D01*
X0409376Y0110052D02*
X0407416Y0110052D01*
X0407416Y0110453D02*
X0409376Y0110453D01*
X0409376Y0110854D02*
X0407416Y0110854D01*
X0405439Y0108849D02*
X0403479Y0108849D01*
X0403479Y0111203D01*
X0405439Y0111203D01*
X0405439Y0108849D01*
X0405439Y0109250D02*
X0403479Y0109250D01*
X0403479Y0109651D02*
X0405439Y0109651D01*
X0405439Y0110052D02*
X0403479Y0110052D01*
X0403479Y0110453D02*
X0405439Y0110453D01*
X0405439Y0110854D02*
X0403479Y0110854D01*
X0431039Y0182668D02*
X0432999Y0182668D01*
X0431039Y0182668D02*
X0431039Y0185022D01*
X0432999Y0185022D01*
X0432999Y0182668D01*
X0432999Y0183069D02*
X0431039Y0183069D01*
X0431039Y0183470D02*
X0432999Y0183470D01*
X0432999Y0183871D02*
X0431039Y0183871D01*
X0431039Y0184272D02*
X0432999Y0184272D01*
X0432999Y0184673D02*
X0431039Y0184673D01*
X0434976Y0182668D02*
X0436936Y0182668D01*
X0434976Y0182668D02*
X0434976Y0185022D01*
X0436936Y0185022D01*
X0436936Y0182668D01*
X0436936Y0183069D02*
X0434976Y0183069D01*
X0434976Y0183470D02*
X0436936Y0183470D01*
X0436936Y0183871D02*
X0434976Y0183871D01*
X0434976Y0184272D02*
X0436936Y0184272D01*
X0436936Y0184673D02*
X0434976Y0184673D01*
X0485960Y0208652D02*
X0487920Y0208652D01*
X0485960Y0208652D02*
X0485960Y0211006D01*
X0487920Y0211006D01*
X0487920Y0208652D01*
X0487920Y0209053D02*
X0485960Y0209053D01*
X0485960Y0209454D02*
X0487920Y0209454D01*
X0487920Y0209855D02*
X0485960Y0209855D01*
X0485960Y0210256D02*
X0487920Y0210256D01*
X0487920Y0210657D02*
X0485960Y0210657D01*
X0485960Y0213377D02*
X0487920Y0213377D01*
X0485960Y0213377D02*
X0485960Y0215731D01*
X0487920Y0215731D01*
X0487920Y0213377D01*
X0487920Y0213778D02*
X0485960Y0213778D01*
X0485960Y0214179D02*
X0487920Y0214179D01*
X0487920Y0214580D02*
X0485960Y0214580D01*
X0485960Y0214981D02*
X0487920Y0214981D01*
X0487920Y0215382D02*
X0485960Y0215382D01*
X0489897Y0213377D02*
X0491857Y0213377D01*
X0489897Y0213377D02*
X0489897Y0215731D01*
X0491857Y0215731D01*
X0491857Y0213377D01*
X0491857Y0213778D02*
X0489897Y0213778D01*
X0489897Y0214179D02*
X0491857Y0214179D01*
X0491857Y0214580D02*
X0489897Y0214580D01*
X0489897Y0214981D02*
X0491857Y0214981D01*
X0491857Y0215382D02*
X0489897Y0215382D01*
X0495015Y0215731D02*
X0496975Y0215731D01*
X0496975Y0213377D01*
X0495015Y0213377D01*
X0495015Y0215731D01*
X0495015Y0213778D02*
X0496975Y0213778D01*
X0496975Y0214179D02*
X0495015Y0214179D01*
X0495015Y0214580D02*
X0496975Y0214580D01*
X0496975Y0214981D02*
X0495015Y0214981D01*
X0495015Y0215382D02*
X0496975Y0215382D01*
X0498952Y0215731D02*
X0500912Y0215731D01*
X0500912Y0213377D01*
X0498952Y0213377D01*
X0498952Y0215731D01*
X0498952Y0213778D02*
X0500912Y0213778D01*
X0500912Y0214179D02*
X0498952Y0214179D01*
X0498952Y0214580D02*
X0500912Y0214580D01*
X0500912Y0214981D02*
X0498952Y0214981D01*
X0498952Y0215382D02*
X0500912Y0215382D01*
X0500912Y0211006D02*
X0498952Y0211006D01*
X0500912Y0211006D02*
X0500912Y0208652D01*
X0498952Y0208652D01*
X0498952Y0211006D01*
X0498952Y0209053D02*
X0500912Y0209053D01*
X0500912Y0209454D02*
X0498952Y0209454D01*
X0498952Y0209855D02*
X0500912Y0209855D01*
X0500912Y0210256D02*
X0498952Y0210256D01*
X0498952Y0210657D02*
X0500912Y0210657D01*
X0496975Y0211006D02*
X0495015Y0211006D01*
X0496975Y0211006D02*
X0496975Y0208652D01*
X0495015Y0208652D01*
X0495015Y0211006D01*
X0495015Y0209053D02*
X0496975Y0209053D01*
X0496975Y0209454D02*
X0495015Y0209454D01*
X0495015Y0209855D02*
X0496975Y0209855D01*
X0496975Y0210256D02*
X0495015Y0210256D01*
X0495015Y0210657D02*
X0496975Y0210657D01*
X0491857Y0208652D02*
X0489897Y0208652D01*
X0489897Y0211006D01*
X0491857Y0211006D01*
X0491857Y0208652D01*
X0491857Y0209053D02*
X0489897Y0209053D01*
X0489897Y0209454D02*
X0491857Y0209454D01*
X0491857Y0209855D02*
X0489897Y0209855D01*
X0489897Y0210256D02*
X0491857Y0210256D01*
X0491857Y0210657D02*
X0489897Y0210657D01*
X0480046Y0227550D02*
X0480046Y0229510D01*
X0480046Y0227550D02*
X0477692Y0227550D01*
X0477692Y0229510D01*
X0480046Y0229510D01*
X0480046Y0227951D02*
X0477692Y0227951D01*
X0477692Y0228352D02*
X0480046Y0228352D01*
X0480046Y0228753D02*
X0477692Y0228753D01*
X0477692Y0229154D02*
X0480046Y0229154D01*
X0480046Y0231487D02*
X0480046Y0233447D01*
X0480046Y0231487D02*
X0477692Y0231487D01*
X0477692Y0233447D01*
X0480046Y0233447D01*
X0480046Y0231888D02*
X0477692Y0231888D01*
X0477692Y0232289D02*
X0480046Y0232289D01*
X0480046Y0232690D02*
X0477692Y0232690D01*
X0477692Y0233091D02*
X0480046Y0233091D01*
X0480243Y0236408D02*
X0480243Y0238368D01*
X0480243Y0236408D02*
X0477889Y0236408D01*
X0477889Y0238368D01*
X0480243Y0238368D01*
X0480243Y0236809D02*
X0477889Y0236809D01*
X0477889Y0237210D02*
X0480243Y0237210D01*
X0480243Y0237611D02*
X0477889Y0237611D01*
X0477889Y0238012D02*
X0480243Y0238012D01*
X0480243Y0240345D02*
X0480243Y0242305D01*
X0480243Y0240345D02*
X0477889Y0240345D01*
X0477889Y0242305D01*
X0480243Y0242305D01*
X0480243Y0240746D02*
X0477889Y0240746D01*
X0477889Y0241147D02*
X0480243Y0241147D01*
X0480243Y0241548D02*
X0477889Y0241548D01*
X0477889Y0241949D02*
X0480243Y0241949D01*
X0494818Y0245070D02*
X0494818Y0247030D01*
X0497172Y0247030D01*
X0497172Y0245070D01*
X0494818Y0245070D01*
X0494818Y0245471D02*
X0497172Y0245471D01*
X0497172Y0245872D02*
X0494818Y0245872D01*
X0494818Y0246273D02*
X0497172Y0246273D01*
X0497172Y0246674D02*
X0494818Y0246674D01*
X0494818Y0249007D02*
X0494818Y0250967D01*
X0497172Y0250967D01*
X0497172Y0249007D01*
X0494818Y0249007D01*
X0494818Y0249408D02*
X0497172Y0249408D01*
X0497172Y0249809D02*
X0494818Y0249809D01*
X0494818Y0250210D02*
X0497172Y0250210D01*
X0497172Y0250611D02*
X0494818Y0250611D01*
X0495409Y0255888D02*
X0497369Y0255888D01*
X0497369Y0253534D01*
X0495409Y0253534D01*
X0495409Y0255888D01*
X0495409Y0253935D02*
X0497369Y0253935D01*
X0497369Y0254336D02*
X0495409Y0254336D01*
X0495409Y0254737D02*
X0497369Y0254737D01*
X0497369Y0255138D02*
X0495409Y0255138D01*
X0495409Y0255539D02*
X0497369Y0255539D01*
X0499346Y0255888D02*
X0501306Y0255888D01*
X0501306Y0253534D01*
X0499346Y0253534D01*
X0499346Y0255888D01*
X0499346Y0253935D02*
X0501306Y0253935D01*
X0501306Y0254336D02*
X0499346Y0254336D01*
X0499346Y0254737D02*
X0501306Y0254737D01*
X0501306Y0255138D02*
X0499346Y0255138D01*
X0499346Y0255539D02*
X0501306Y0255539D01*
X0499542Y0250967D02*
X0499542Y0249007D01*
X0499542Y0250967D02*
X0501896Y0250967D01*
X0501896Y0249007D01*
X0499542Y0249007D01*
X0499542Y0249408D02*
X0501896Y0249408D01*
X0501896Y0249809D02*
X0499542Y0249809D01*
X0499542Y0250210D02*
X0501896Y0250210D01*
X0501896Y0250611D02*
X0499542Y0250611D01*
X0499542Y0247030D02*
X0499542Y0245070D01*
X0499542Y0247030D02*
X0501896Y0247030D01*
X0501896Y0245070D01*
X0499542Y0245070D01*
X0499542Y0245471D02*
X0501896Y0245471D01*
X0501896Y0245872D02*
X0499542Y0245872D01*
X0499542Y0246273D02*
X0501896Y0246273D01*
X0501896Y0246674D02*
X0499542Y0246674D01*
X0453471Y0295062D02*
X0451511Y0295062D01*
X0453471Y0295062D02*
X0453471Y0292708D01*
X0451511Y0292708D01*
X0451511Y0295062D01*
X0451511Y0293109D02*
X0453471Y0293109D01*
X0453471Y0293510D02*
X0451511Y0293510D01*
X0451511Y0293911D02*
X0453471Y0293911D01*
X0453471Y0294312D02*
X0451511Y0294312D01*
X0451511Y0294713D02*
X0453471Y0294713D01*
X0449534Y0295062D02*
X0447574Y0295062D01*
X0449534Y0295062D02*
X0449534Y0292708D01*
X0447574Y0292708D01*
X0447574Y0295062D01*
X0447574Y0293109D02*
X0449534Y0293109D01*
X0449534Y0293510D02*
X0447574Y0293510D01*
X0447574Y0293911D02*
X0449534Y0293911D01*
X0449534Y0294312D02*
X0447574Y0294312D01*
X0447574Y0294713D02*
X0449534Y0294713D01*
X0442259Y0308259D02*
X0442259Y0310219D01*
X0444613Y0310219D01*
X0444613Y0308259D01*
X0442259Y0308259D01*
X0442259Y0308660D02*
X0444613Y0308660D01*
X0444613Y0309061D02*
X0442259Y0309061D01*
X0442259Y0309462D02*
X0444613Y0309462D01*
X0444613Y0309863D02*
X0442259Y0309863D01*
X0442259Y0312196D02*
X0442259Y0314156D01*
X0444613Y0314156D01*
X0444613Y0312196D01*
X0442259Y0312196D01*
X0442259Y0312597D02*
X0444613Y0312597D01*
X0444613Y0312998D02*
X0442259Y0312998D01*
X0442259Y0313399D02*
X0444613Y0313399D01*
X0444613Y0313800D02*
X0442259Y0313800D01*
X0426511Y0314156D02*
X0426511Y0312196D01*
X0426511Y0314156D02*
X0428865Y0314156D01*
X0428865Y0312196D01*
X0426511Y0312196D01*
X0426511Y0312597D02*
X0428865Y0312597D01*
X0428865Y0312998D02*
X0426511Y0312998D01*
X0426511Y0313399D02*
X0428865Y0313399D01*
X0428865Y0313800D02*
X0426511Y0313800D01*
X0426511Y0310219D02*
X0426511Y0308259D01*
X0426511Y0310219D02*
X0428865Y0310219D01*
X0428865Y0308259D01*
X0426511Y0308259D01*
X0426511Y0308660D02*
X0428865Y0308660D01*
X0428865Y0309061D02*
X0426511Y0309061D01*
X0426511Y0309462D02*
X0428865Y0309462D01*
X0428865Y0309863D02*
X0426511Y0309863D01*
X0410763Y0310219D02*
X0410763Y0308259D01*
X0410763Y0310219D02*
X0413117Y0310219D01*
X0413117Y0308259D01*
X0410763Y0308259D01*
X0410763Y0308660D02*
X0413117Y0308660D01*
X0413117Y0309061D02*
X0410763Y0309061D01*
X0410763Y0309462D02*
X0413117Y0309462D01*
X0413117Y0309863D02*
X0410763Y0309863D01*
X0410763Y0312196D02*
X0410763Y0314156D01*
X0413117Y0314156D01*
X0413117Y0312196D01*
X0410763Y0312196D01*
X0410763Y0312597D02*
X0413117Y0312597D01*
X0413117Y0312998D02*
X0410763Y0312998D01*
X0410763Y0313399D02*
X0413117Y0313399D01*
X0413117Y0313800D02*
X0410763Y0313800D01*
X0400920Y0286990D02*
X0400920Y0285030D01*
X0400920Y0286990D02*
X0403274Y0286990D01*
X0403274Y0285030D01*
X0400920Y0285030D01*
X0400920Y0285431D02*
X0403274Y0285431D01*
X0403274Y0285832D02*
X0400920Y0285832D01*
X0400920Y0286233D02*
X0403274Y0286233D01*
X0403274Y0286634D02*
X0400920Y0286634D01*
X0400920Y0283053D02*
X0400920Y0281093D01*
X0400920Y0283053D02*
X0403274Y0283053D01*
X0403274Y0281093D01*
X0400920Y0281093D01*
X0400920Y0281494D02*
X0403274Y0281494D01*
X0403274Y0281895D02*
X0400920Y0281895D01*
X0400920Y0282296D02*
X0403274Y0282296D01*
X0403274Y0282697D02*
X0400920Y0282697D01*
X0386936Y0286400D02*
X0384976Y0286400D01*
X0386936Y0286400D02*
X0386936Y0284046D01*
X0384976Y0284046D01*
X0384976Y0286400D01*
X0384976Y0284447D02*
X0386936Y0284447D01*
X0386936Y0284848D02*
X0384976Y0284848D01*
X0384976Y0285249D02*
X0386936Y0285249D01*
X0386936Y0285650D02*
X0384976Y0285650D01*
X0384976Y0286051D02*
X0386936Y0286051D01*
X0382999Y0286400D02*
X0381039Y0286400D01*
X0382999Y0286400D02*
X0382999Y0284046D01*
X0381039Y0284046D01*
X0381039Y0286400D01*
X0381039Y0284447D02*
X0382999Y0284447D01*
X0382999Y0284848D02*
X0381039Y0284848D01*
X0381039Y0285249D02*
X0382999Y0285249D01*
X0382999Y0285650D02*
X0381039Y0285650D01*
X0381039Y0286051D02*
X0382999Y0286051D01*
X0369424Y0305503D02*
X0369424Y0307463D01*
X0371778Y0307463D01*
X0371778Y0305503D01*
X0369424Y0305503D01*
X0369424Y0305904D02*
X0371778Y0305904D01*
X0371778Y0306305D02*
X0369424Y0306305D01*
X0369424Y0306706D02*
X0371778Y0306706D01*
X0371778Y0307107D02*
X0369424Y0307107D01*
X0369424Y0309440D02*
X0369424Y0311400D01*
X0371778Y0311400D01*
X0371778Y0309440D01*
X0369424Y0309440D01*
X0369424Y0309841D02*
X0371778Y0309841D01*
X0371778Y0310242D02*
X0369424Y0310242D01*
X0369424Y0310643D02*
X0371778Y0310643D01*
X0371778Y0311044D02*
X0369424Y0311044D01*
X0369424Y0314558D02*
X0369424Y0316518D01*
X0371778Y0316518D01*
X0371778Y0314558D01*
X0369424Y0314558D01*
X0369424Y0314959D02*
X0371778Y0314959D01*
X0371778Y0315360D02*
X0369424Y0315360D01*
X0369424Y0315761D02*
X0371778Y0315761D01*
X0371778Y0316162D02*
X0369424Y0316162D01*
X0369424Y0318495D02*
X0369424Y0320455D01*
X0371778Y0320455D01*
X0371778Y0318495D01*
X0369424Y0318495D01*
X0369424Y0318896D02*
X0371778Y0318896D01*
X0371778Y0319297D02*
X0369424Y0319297D01*
X0369424Y0319698D02*
X0371778Y0319698D01*
X0371778Y0320099D02*
X0369424Y0320099D01*
X0335566Y0287778D02*
X0335566Y0285818D01*
X0335566Y0287778D02*
X0337920Y0287778D01*
X0337920Y0285818D01*
X0335566Y0285818D01*
X0335566Y0286219D02*
X0337920Y0286219D01*
X0337920Y0286620D02*
X0335566Y0286620D01*
X0335566Y0287021D02*
X0337920Y0287021D01*
X0337920Y0287422D02*
X0335566Y0287422D01*
X0335566Y0283841D02*
X0335566Y0281881D01*
X0335566Y0283841D02*
X0337920Y0283841D01*
X0337920Y0281881D01*
X0335566Y0281881D01*
X0335566Y0282282D02*
X0337920Y0282282D01*
X0337920Y0282683D02*
X0335566Y0282683D01*
X0335566Y0283084D02*
X0337920Y0283084D01*
X0337920Y0283485D02*
X0335566Y0283485D01*
X0334779Y0276361D02*
X0334779Y0274401D01*
X0334779Y0276361D02*
X0337133Y0276361D01*
X0337133Y0274401D01*
X0334779Y0274401D01*
X0334779Y0274802D02*
X0337133Y0274802D01*
X0337133Y0275203D02*
X0334779Y0275203D01*
X0334779Y0275604D02*
X0337133Y0275604D01*
X0337133Y0276005D02*
X0334779Y0276005D01*
X0334779Y0272424D02*
X0334779Y0270464D01*
X0334779Y0272424D02*
X0337133Y0272424D01*
X0337133Y0270464D01*
X0334779Y0270464D01*
X0334779Y0270865D02*
X0337133Y0270865D01*
X0337133Y0271266D02*
X0334779Y0271266D01*
X0334779Y0271667D02*
X0337133Y0271667D01*
X0337133Y0272068D02*
X0334779Y0272068D01*
X0337133Y0268487D02*
X0337133Y0266527D01*
X0334779Y0266527D01*
X0334779Y0268487D01*
X0337133Y0268487D01*
X0337133Y0266928D02*
X0334779Y0266928D01*
X0334779Y0267329D02*
X0337133Y0267329D01*
X0337133Y0267730D02*
X0334779Y0267730D01*
X0334779Y0268131D02*
X0337133Y0268131D01*
X0341857Y0268487D02*
X0341857Y0266527D01*
X0339503Y0266527D01*
X0339503Y0268487D01*
X0341857Y0268487D01*
X0341857Y0266928D02*
X0339503Y0266928D01*
X0339503Y0267329D02*
X0341857Y0267329D01*
X0341857Y0267730D02*
X0339503Y0267730D01*
X0339503Y0268131D02*
X0341857Y0268131D01*
X0341275Y0270463D02*
X0343235Y0270463D01*
X0341275Y0270463D02*
X0341275Y0272817D01*
X0343235Y0272817D01*
X0343235Y0270463D01*
X0343235Y0270864D02*
X0341275Y0270864D01*
X0341275Y0271265D02*
X0343235Y0271265D01*
X0343235Y0271666D02*
X0341275Y0271666D01*
X0341275Y0272067D02*
X0343235Y0272067D01*
X0343235Y0272468D02*
X0341275Y0272468D01*
X0345212Y0270463D02*
X0347172Y0270463D01*
X0345212Y0270463D02*
X0345212Y0272817D01*
X0347172Y0272817D01*
X0347172Y0270463D01*
X0347172Y0270864D02*
X0345212Y0270864D01*
X0345212Y0271265D02*
X0347172Y0271265D01*
X0347172Y0271666D02*
X0345212Y0271666D01*
X0345212Y0272067D02*
X0347172Y0272067D01*
X0347172Y0272468D02*
X0345212Y0272468D01*
X0341857Y0264550D02*
X0341857Y0262590D01*
X0339503Y0262590D01*
X0339503Y0264550D01*
X0341857Y0264550D01*
X0341857Y0262991D02*
X0339503Y0262991D01*
X0339503Y0263392D02*
X0341857Y0263392D01*
X0341857Y0263793D02*
X0339503Y0263793D01*
X0339503Y0264194D02*
X0341857Y0264194D01*
X0337133Y0264550D02*
X0337133Y0262590D01*
X0334779Y0262590D01*
X0334779Y0264550D01*
X0337133Y0264550D01*
X0337133Y0262991D02*
X0334779Y0262991D01*
X0334779Y0263392D02*
X0337133Y0263392D01*
X0337133Y0263793D02*
X0334779Y0263793D01*
X0334779Y0264194D02*
X0337133Y0264194D01*
X0312731Y0280306D02*
X0312731Y0282266D01*
X0315085Y0282266D01*
X0315085Y0280306D01*
X0312731Y0280306D01*
X0312731Y0280707D02*
X0315085Y0280707D01*
X0315085Y0281108D02*
X0312731Y0281108D01*
X0312731Y0281509D02*
X0315085Y0281509D01*
X0315085Y0281910D02*
X0312731Y0281910D01*
X0312731Y0284243D02*
X0312731Y0286203D01*
X0315085Y0286203D01*
X0315085Y0284243D01*
X0312731Y0284243D01*
X0312731Y0284644D02*
X0315085Y0284644D01*
X0315085Y0285045D02*
X0312731Y0285045D01*
X0312731Y0285446D02*
X0315085Y0285446D01*
X0315085Y0285847D02*
X0312731Y0285847D01*
X0310558Y0273022D02*
X0308598Y0273022D01*
X0308598Y0275376D01*
X0310558Y0275376D01*
X0310558Y0273022D01*
X0310558Y0273423D02*
X0308598Y0273423D01*
X0308598Y0273824D02*
X0310558Y0273824D01*
X0310558Y0274225D02*
X0308598Y0274225D01*
X0308598Y0274626D02*
X0310558Y0274626D01*
X0310558Y0275027D02*
X0308598Y0275027D01*
X0306621Y0273022D02*
X0304661Y0273022D01*
X0304661Y0275376D01*
X0306621Y0275376D01*
X0306621Y0273022D01*
X0306621Y0273423D02*
X0304661Y0273423D01*
X0304661Y0273824D02*
X0306621Y0273824D01*
X0306621Y0274225D02*
X0304661Y0274225D01*
X0304661Y0274626D02*
X0306621Y0274626D01*
X0306621Y0275027D02*
X0304661Y0275027D01*
X0304661Y0268298D02*
X0306621Y0268298D01*
X0304661Y0268298D02*
X0304661Y0270652D01*
X0306621Y0270652D01*
X0306621Y0268298D01*
X0306621Y0268699D02*
X0304661Y0268699D01*
X0304661Y0269100D02*
X0306621Y0269100D01*
X0306621Y0269501D02*
X0304661Y0269501D01*
X0304661Y0269902D02*
X0306621Y0269902D01*
X0306621Y0270303D02*
X0304661Y0270303D01*
X0308598Y0268298D02*
X0310558Y0268298D01*
X0308598Y0268298D02*
X0308598Y0270652D01*
X0310558Y0270652D01*
X0310558Y0268298D01*
X0310558Y0268699D02*
X0308598Y0268699D01*
X0308598Y0269100D02*
X0310558Y0269100D01*
X0310558Y0269501D02*
X0308598Y0269501D01*
X0308598Y0269902D02*
X0310558Y0269902D01*
X0310558Y0270303D02*
X0308598Y0270303D01*
X0308598Y0263574D02*
X0310558Y0263574D01*
X0308598Y0263574D02*
X0308598Y0265928D01*
X0310558Y0265928D01*
X0310558Y0263574D01*
X0310558Y0263975D02*
X0308598Y0263975D01*
X0308598Y0264376D02*
X0310558Y0264376D01*
X0310558Y0264777D02*
X0308598Y0264777D01*
X0308598Y0265178D02*
X0310558Y0265178D01*
X0310558Y0265579D02*
X0308598Y0265579D01*
X0306621Y0263574D02*
X0304661Y0263574D01*
X0304661Y0265928D01*
X0306621Y0265928D01*
X0306621Y0263574D01*
X0306621Y0263975D02*
X0304661Y0263975D01*
X0304661Y0264376D02*
X0306621Y0264376D01*
X0306621Y0264777D02*
X0304661Y0264777D01*
X0304661Y0265178D02*
X0306621Y0265178D01*
X0306621Y0265579D02*
X0304661Y0265579D01*
X0296187Y0255109D02*
X0294227Y0255109D01*
X0294227Y0257463D01*
X0296187Y0257463D01*
X0296187Y0255109D01*
X0296187Y0255510D02*
X0294227Y0255510D01*
X0294227Y0255911D02*
X0296187Y0255911D01*
X0296187Y0256312D02*
X0294227Y0256312D01*
X0294227Y0256713D02*
X0296187Y0256713D01*
X0296187Y0257114D02*
X0294227Y0257114D01*
X0292250Y0255109D02*
X0290290Y0255109D01*
X0290290Y0257463D01*
X0292250Y0257463D01*
X0292250Y0255109D01*
X0292250Y0255510D02*
X0290290Y0255510D01*
X0290290Y0255911D02*
X0292250Y0255911D01*
X0292250Y0256312D02*
X0290290Y0256312D01*
X0290290Y0256713D02*
X0292250Y0256713D01*
X0292250Y0257114D02*
X0290290Y0257114D01*
X0288313Y0255109D02*
X0286353Y0255109D01*
X0286353Y0257463D01*
X0288313Y0257463D01*
X0288313Y0255109D01*
X0288313Y0255510D02*
X0286353Y0255510D01*
X0286353Y0255911D02*
X0288313Y0255911D01*
X0288313Y0256312D02*
X0286353Y0256312D01*
X0286353Y0256713D02*
X0288313Y0256713D01*
X0288313Y0257114D02*
X0286353Y0257114D01*
X0284376Y0255109D02*
X0282416Y0255109D01*
X0282416Y0257463D01*
X0284376Y0257463D01*
X0284376Y0255109D01*
X0284376Y0255510D02*
X0282416Y0255510D01*
X0282416Y0255911D02*
X0284376Y0255911D01*
X0284376Y0256312D02*
X0282416Y0256312D01*
X0282416Y0256713D02*
X0284376Y0256713D01*
X0284376Y0257114D02*
X0282416Y0257114D01*
X0282416Y0252739D02*
X0284376Y0252739D01*
X0284376Y0250385D01*
X0282416Y0250385D01*
X0282416Y0252739D01*
X0282416Y0250786D02*
X0284376Y0250786D01*
X0284376Y0251187D02*
X0282416Y0251187D01*
X0282416Y0251588D02*
X0284376Y0251588D01*
X0284376Y0251989D02*
X0282416Y0251989D01*
X0282416Y0252390D02*
X0284376Y0252390D01*
X0286353Y0252739D02*
X0288313Y0252739D01*
X0288313Y0250385D01*
X0286353Y0250385D01*
X0286353Y0252739D01*
X0286353Y0250786D02*
X0288313Y0250786D01*
X0288313Y0251187D02*
X0286353Y0251187D01*
X0286353Y0251588D02*
X0288313Y0251588D01*
X0288313Y0251989D02*
X0286353Y0251989D01*
X0286353Y0252390D02*
X0288313Y0252390D01*
X0290290Y0252739D02*
X0292250Y0252739D01*
X0292250Y0250385D01*
X0290290Y0250385D01*
X0290290Y0252739D01*
X0290290Y0250786D02*
X0292250Y0250786D01*
X0292250Y0251187D02*
X0290290Y0251187D01*
X0290290Y0251588D02*
X0292250Y0251588D01*
X0292250Y0251989D02*
X0290290Y0251989D01*
X0290290Y0252390D02*
X0292250Y0252390D01*
X0294227Y0252739D02*
X0296187Y0252739D01*
X0296187Y0250385D01*
X0294227Y0250385D01*
X0294227Y0252739D01*
X0294227Y0250786D02*
X0296187Y0250786D01*
X0296187Y0251187D02*
X0294227Y0251187D01*
X0294227Y0251588D02*
X0296187Y0251588D01*
X0296187Y0251989D02*
X0294227Y0251989D01*
X0294227Y0252390D02*
X0296187Y0252390D01*
X0302101Y0243683D02*
X0302101Y0241723D01*
X0302101Y0243683D02*
X0304455Y0243683D01*
X0304455Y0241723D01*
X0302101Y0241723D01*
X0302101Y0242124D02*
X0304455Y0242124D01*
X0304455Y0242525D02*
X0302101Y0242525D01*
X0302101Y0242926D02*
X0304455Y0242926D01*
X0304455Y0243327D02*
X0302101Y0243327D01*
X0302101Y0239746D02*
X0302101Y0237786D01*
X0302101Y0239746D02*
X0304455Y0239746D01*
X0304455Y0237786D01*
X0302101Y0237786D01*
X0302101Y0238187D02*
X0304455Y0238187D01*
X0304455Y0238588D02*
X0302101Y0238588D01*
X0302101Y0238989D02*
X0304455Y0238989D01*
X0304455Y0239390D02*
X0302101Y0239390D01*
X0297565Y0234825D02*
X0295605Y0234825D01*
X0297565Y0234825D02*
X0297565Y0232471D01*
X0295605Y0232471D01*
X0295605Y0234825D01*
X0295605Y0232872D02*
X0297565Y0232872D01*
X0297565Y0233273D02*
X0295605Y0233273D01*
X0295605Y0233674D02*
X0297565Y0233674D01*
X0297565Y0234075D02*
X0295605Y0234075D01*
X0295605Y0234476D02*
X0297565Y0234476D01*
X0293628Y0234825D02*
X0291668Y0234825D01*
X0293628Y0234825D02*
X0293628Y0232471D01*
X0291668Y0232471D01*
X0291668Y0234825D01*
X0291668Y0232872D02*
X0293628Y0232872D01*
X0293628Y0233273D02*
X0291668Y0233273D01*
X0291668Y0233674D02*
X0293628Y0233674D01*
X0293628Y0234075D02*
X0291668Y0234075D01*
X0291668Y0234476D02*
X0293628Y0234476D01*
X0274542Y0247038D02*
X0274542Y0248998D01*
X0276896Y0248998D01*
X0276896Y0247038D01*
X0274542Y0247038D01*
X0274542Y0247439D02*
X0276896Y0247439D01*
X0276896Y0247840D02*
X0274542Y0247840D01*
X0274542Y0248241D02*
X0276896Y0248241D01*
X0276896Y0248642D02*
X0274542Y0248642D01*
X0274542Y0250975D02*
X0274542Y0252935D01*
X0276896Y0252935D01*
X0276896Y0250975D01*
X0274542Y0250975D01*
X0274542Y0251376D02*
X0276896Y0251376D01*
X0276896Y0251777D02*
X0274542Y0251777D01*
X0274542Y0252178D02*
X0276896Y0252178D01*
X0276896Y0252579D02*
X0274542Y0252579D01*
X0303479Y0208652D02*
X0305439Y0208652D01*
X0303479Y0208652D02*
X0303479Y0211006D01*
X0305439Y0211006D01*
X0305439Y0208652D01*
X0305439Y0209053D02*
X0303479Y0209053D01*
X0303479Y0209454D02*
X0305439Y0209454D01*
X0305439Y0209855D02*
X0303479Y0209855D01*
X0303479Y0210256D02*
X0305439Y0210256D01*
X0305439Y0210657D02*
X0303479Y0210657D01*
X0307416Y0208652D02*
X0309376Y0208652D01*
X0307416Y0208652D02*
X0307416Y0211006D01*
X0309376Y0211006D01*
X0309376Y0208652D01*
X0309376Y0209053D02*
X0307416Y0209053D01*
X0307416Y0209454D02*
X0309376Y0209454D01*
X0309376Y0209855D02*
X0307416Y0209855D01*
X0307416Y0210256D02*
X0309376Y0210256D01*
X0309376Y0210657D02*
X0307416Y0210657D01*
X0313322Y0201164D02*
X0313322Y0199204D01*
X0313322Y0201164D02*
X0315676Y0201164D01*
X0315676Y0199204D01*
X0313322Y0199204D01*
X0313322Y0199605D02*
X0315676Y0199605D01*
X0315676Y0200006D02*
X0313322Y0200006D01*
X0313322Y0200407D02*
X0315676Y0200407D01*
X0315676Y0200808D02*
X0313322Y0200808D01*
X0313322Y0197227D02*
X0313322Y0195267D01*
X0313322Y0197227D02*
X0315676Y0197227D01*
X0315676Y0195267D01*
X0313322Y0195267D01*
X0313322Y0195668D02*
X0315676Y0195668D01*
X0315676Y0196069D02*
X0313322Y0196069D01*
X0313322Y0196470D02*
X0315676Y0196470D01*
X0315676Y0196871D02*
X0313322Y0196871D01*
X0289897Y0196448D02*
X0289897Y0198408D01*
X0292251Y0198408D01*
X0292251Y0196448D01*
X0289897Y0196448D01*
X0289897Y0196849D02*
X0292251Y0196849D01*
X0292251Y0197250D02*
X0289897Y0197250D01*
X0289897Y0197651D02*
X0292251Y0197651D01*
X0292251Y0198052D02*
X0289897Y0198052D01*
X0289897Y0200385D02*
X0289897Y0202345D01*
X0292251Y0202345D01*
X0292251Y0200385D01*
X0289897Y0200385D01*
X0289897Y0200786D02*
X0292251Y0200786D01*
X0292251Y0201187D02*
X0289897Y0201187D01*
X0289897Y0201588D02*
X0292251Y0201588D01*
X0292251Y0201989D02*
X0289897Y0201989D01*
X0230054Y0294479D02*
X0230054Y0296439D01*
X0232408Y0296439D01*
X0232408Y0294479D01*
X0230054Y0294479D01*
X0230054Y0294880D02*
X0232408Y0294880D01*
X0232408Y0295281D02*
X0230054Y0295281D01*
X0230054Y0295682D02*
X0232408Y0295682D01*
X0232408Y0296083D02*
X0230054Y0296083D01*
X0230054Y0298416D02*
X0230054Y0300376D01*
X0232408Y0300376D01*
X0232408Y0298416D01*
X0230054Y0298416D01*
X0230054Y0298817D02*
X0232408Y0298817D01*
X0232408Y0299218D02*
X0230054Y0299218D01*
X0230054Y0299619D02*
X0232408Y0299619D01*
X0232408Y0300020D02*
X0230054Y0300020D01*
X0224542Y0300376D02*
X0224542Y0298416D01*
X0224542Y0300376D02*
X0226896Y0300376D01*
X0226896Y0298416D01*
X0224542Y0298416D01*
X0224542Y0298817D02*
X0226896Y0298817D01*
X0226896Y0299218D02*
X0224542Y0299218D01*
X0224542Y0299619D02*
X0226896Y0299619D01*
X0226896Y0300020D02*
X0224542Y0300020D01*
X0224542Y0296439D02*
X0224542Y0294479D01*
X0224542Y0296439D02*
X0226896Y0296439D01*
X0226896Y0294479D01*
X0224542Y0294479D01*
X0224542Y0294880D02*
X0226896Y0294880D01*
X0226896Y0295281D02*
X0224542Y0295281D01*
X0224542Y0295682D02*
X0226896Y0295682D01*
X0226896Y0296083D02*
X0224542Y0296083D01*
X0151896Y0331676D02*
X0149936Y0331676D01*
X0151896Y0331676D02*
X0151896Y0329322D01*
X0149936Y0329322D01*
X0149936Y0331676D01*
X0149936Y0329723D02*
X0151896Y0329723D01*
X0151896Y0330124D02*
X0149936Y0330124D01*
X0149936Y0330525D02*
X0151896Y0330525D01*
X0151896Y0330926D02*
X0149936Y0330926D01*
X0149936Y0331327D02*
X0151896Y0331327D01*
X0147959Y0331676D02*
X0145999Y0331676D01*
X0147959Y0331676D02*
X0147959Y0329322D01*
X0145999Y0329322D01*
X0145999Y0331676D01*
X0145999Y0329723D02*
X0147959Y0329723D01*
X0147959Y0330124D02*
X0145999Y0330124D01*
X0145999Y0330525D02*
X0147959Y0330525D01*
X0147959Y0330926D02*
X0145999Y0330926D01*
X0145999Y0331327D02*
X0147959Y0331327D01*
X0141275Y0336408D02*
X0141275Y0338368D01*
X0143629Y0338368D01*
X0143629Y0336408D01*
X0141275Y0336408D01*
X0141275Y0336809D02*
X0143629Y0336809D01*
X0143629Y0337210D02*
X0141275Y0337210D01*
X0141275Y0337611D02*
X0143629Y0337611D01*
X0143629Y0338012D02*
X0141275Y0338012D01*
X0141275Y0340345D02*
X0141275Y0342305D01*
X0143629Y0342305D01*
X0143629Y0340345D01*
X0141275Y0340345D01*
X0141275Y0340746D02*
X0143629Y0340746D01*
X0143629Y0341147D02*
X0141275Y0341147D01*
X0141275Y0341548D02*
X0143629Y0341548D01*
X0143629Y0341949D02*
X0141275Y0341949D01*
X0136944Y0344873D02*
X0136944Y0346833D01*
X0139298Y0346833D01*
X0139298Y0344873D01*
X0136944Y0344873D01*
X0136944Y0345274D02*
X0139298Y0345274D01*
X0139298Y0345675D02*
X0136944Y0345675D01*
X0136944Y0346076D02*
X0139298Y0346076D01*
X0139298Y0346477D02*
X0136944Y0346477D01*
X0136944Y0348810D02*
X0136944Y0350770D01*
X0139298Y0350770D01*
X0139298Y0348810D01*
X0136944Y0348810D01*
X0136944Y0349211D02*
X0139298Y0349211D01*
X0139298Y0349612D02*
X0136944Y0349612D01*
X0136944Y0350013D02*
X0139298Y0350013D01*
X0139298Y0350414D02*
X0136944Y0350414D01*
X0137141Y0352747D02*
X0139101Y0352747D01*
X0137141Y0352747D02*
X0137141Y0355101D01*
X0139101Y0355101D01*
X0139101Y0352747D01*
X0139101Y0353148D02*
X0137141Y0353148D01*
X0137141Y0353549D02*
X0139101Y0353549D01*
X0139101Y0353950D02*
X0137141Y0353950D01*
X0137141Y0354351D02*
X0139101Y0354351D01*
X0139101Y0354752D02*
X0137141Y0354752D01*
X0135164Y0352747D02*
X0133204Y0352747D01*
X0133204Y0355101D01*
X0135164Y0355101D01*
X0135164Y0352747D01*
X0135164Y0353148D02*
X0133204Y0353148D01*
X0133204Y0353549D02*
X0135164Y0353549D01*
X0135164Y0353950D02*
X0133204Y0353950D01*
X0133204Y0354351D02*
X0135164Y0354351D01*
X0135164Y0354752D02*
X0133204Y0354752D01*
X0133204Y0357471D02*
X0135164Y0357471D01*
X0133204Y0357471D02*
X0133204Y0359825D01*
X0135164Y0359825D01*
X0135164Y0357471D01*
X0135164Y0357872D02*
X0133204Y0357872D01*
X0133204Y0358273D02*
X0135164Y0358273D01*
X0135164Y0358674D02*
X0133204Y0358674D01*
X0133204Y0359075D02*
X0135164Y0359075D01*
X0135164Y0359476D02*
X0133204Y0359476D01*
X0135558Y0362590D02*
X0135558Y0364550D01*
X0135558Y0362590D02*
X0133204Y0362590D01*
X0133204Y0364550D01*
X0135558Y0364550D01*
X0135558Y0362991D02*
X0133204Y0362991D01*
X0133204Y0363392D02*
X0135558Y0363392D01*
X0135558Y0363793D02*
X0133204Y0363793D01*
X0133204Y0364194D02*
X0135558Y0364194D01*
X0135558Y0366527D02*
X0135558Y0368487D01*
X0135558Y0366527D02*
X0133204Y0366527D01*
X0133204Y0368487D01*
X0135558Y0368487D01*
X0135558Y0366928D02*
X0133204Y0366928D01*
X0133204Y0367329D02*
X0135558Y0367329D01*
X0135558Y0367730D02*
X0133204Y0367730D01*
X0133204Y0368131D02*
X0135558Y0368131D01*
X0129857Y0373810D02*
X0129857Y0375770D01*
X0132211Y0375770D01*
X0132211Y0373810D01*
X0129857Y0373810D01*
X0129857Y0374211D02*
X0132211Y0374211D01*
X0132211Y0374612D02*
X0129857Y0374612D01*
X0129857Y0375013D02*
X0132211Y0375013D01*
X0132211Y0375414D02*
X0129857Y0375414D01*
X0129857Y0377747D02*
X0129857Y0379707D01*
X0132211Y0379707D01*
X0132211Y0377747D01*
X0129857Y0377747D01*
X0129857Y0378148D02*
X0132211Y0378148D01*
X0132211Y0378549D02*
X0129857Y0378549D01*
X0129857Y0378950D02*
X0132211Y0378950D01*
X0132211Y0379351D02*
X0129857Y0379351D01*
X0124337Y0379707D02*
X0124337Y0377747D01*
X0121983Y0377747D01*
X0121983Y0379707D01*
X0124337Y0379707D01*
X0124337Y0378148D02*
X0121983Y0378148D01*
X0121983Y0378549D02*
X0124337Y0378549D01*
X0124337Y0378950D02*
X0121983Y0378950D01*
X0121983Y0379351D02*
X0124337Y0379351D01*
X0124337Y0375770D02*
X0124337Y0373810D01*
X0121983Y0373810D01*
X0121983Y0375770D01*
X0124337Y0375770D01*
X0124337Y0374211D02*
X0121983Y0374211D01*
X0121983Y0374612D02*
X0124337Y0374612D01*
X0124337Y0375013D02*
X0121983Y0375013D01*
X0121983Y0375414D02*
X0124337Y0375414D01*
X0137141Y0357471D02*
X0139101Y0357471D01*
X0137141Y0357471D02*
X0137141Y0359825D01*
X0139101Y0359825D01*
X0139101Y0357471D01*
X0139101Y0357872D02*
X0137141Y0357872D01*
X0137141Y0358273D02*
X0139101Y0358273D01*
X0139101Y0358674D02*
X0137141Y0358674D01*
X0137141Y0359075D02*
X0139101Y0359075D01*
X0139101Y0359476D02*
X0137141Y0359476D01*
X0148944Y0358653D02*
X0148944Y0360613D01*
X0148944Y0358653D02*
X0146590Y0358653D01*
X0146590Y0360613D01*
X0148944Y0360613D01*
X0148944Y0359054D02*
X0146590Y0359054D01*
X0146590Y0359455D02*
X0148944Y0359455D01*
X0148944Y0359856D02*
X0146590Y0359856D01*
X0146590Y0360257D02*
X0148944Y0360257D01*
X0148944Y0362590D02*
X0148944Y0364550D01*
X0148944Y0362590D02*
X0146590Y0362590D01*
X0146590Y0364550D01*
X0148944Y0364550D01*
X0148944Y0362991D02*
X0146590Y0362991D01*
X0146590Y0363392D02*
X0148944Y0363392D01*
X0148944Y0363793D02*
X0146590Y0363793D01*
X0146590Y0364194D02*
X0148944Y0364194D01*
X0153668Y0364550D02*
X0153668Y0362590D01*
X0151314Y0362590D01*
X0151314Y0364550D01*
X0153668Y0364550D01*
X0153668Y0362991D02*
X0151314Y0362991D01*
X0151314Y0363392D02*
X0153668Y0363392D01*
X0153668Y0363793D02*
X0151314Y0363793D01*
X0151314Y0364194D02*
X0153668Y0364194D01*
X0158392Y0364550D02*
X0158392Y0362590D01*
X0156038Y0362590D01*
X0156038Y0364550D01*
X0158392Y0364550D01*
X0158392Y0362991D02*
X0156038Y0362991D01*
X0156038Y0363392D02*
X0158392Y0363392D01*
X0158392Y0363793D02*
X0156038Y0363793D01*
X0156038Y0364194D02*
X0158392Y0364194D01*
X0158392Y0360613D02*
X0158392Y0358653D01*
X0156038Y0358653D01*
X0156038Y0360613D01*
X0158392Y0360613D01*
X0158392Y0359054D02*
X0156038Y0359054D01*
X0156038Y0359455D02*
X0158392Y0359455D01*
X0158392Y0359856D02*
X0156038Y0359856D01*
X0156038Y0360257D02*
X0158392Y0360257D01*
X0153668Y0360613D02*
X0153668Y0358653D01*
X0151314Y0358653D01*
X0151314Y0360613D01*
X0153668Y0360613D01*
X0153668Y0359054D02*
X0151314Y0359054D01*
X0151314Y0359455D02*
X0153668Y0359455D01*
X0153668Y0359856D02*
X0151314Y0359856D01*
X0151314Y0360257D02*
X0153668Y0360257D01*
X0135172Y0336203D02*
X0135172Y0334243D01*
X0135172Y0336203D02*
X0137526Y0336203D01*
X0137526Y0334243D01*
X0135172Y0334243D01*
X0135172Y0334644D02*
X0137526Y0334644D01*
X0137526Y0335045D02*
X0135172Y0335045D01*
X0135172Y0335446D02*
X0137526Y0335446D01*
X0137526Y0335847D02*
X0135172Y0335847D01*
X0130448Y0336203D02*
X0130448Y0334243D01*
X0130448Y0336203D02*
X0132802Y0336203D01*
X0132802Y0334243D01*
X0130448Y0334243D01*
X0130448Y0334644D02*
X0132802Y0334644D01*
X0132802Y0335045D02*
X0130448Y0335045D01*
X0130448Y0335446D02*
X0132802Y0335446D01*
X0132802Y0335847D02*
X0130448Y0335847D01*
X0130448Y0332266D02*
X0130448Y0330306D01*
X0130448Y0332266D02*
X0132802Y0332266D01*
X0132802Y0330306D01*
X0130448Y0330306D01*
X0130448Y0330707D02*
X0132802Y0330707D01*
X0132802Y0331108D02*
X0130448Y0331108D01*
X0130448Y0331509D02*
X0132802Y0331509D01*
X0132802Y0331910D02*
X0130448Y0331910D01*
X0135172Y0332266D02*
X0135172Y0330306D01*
X0135172Y0332266D02*
X0137526Y0332266D01*
X0137526Y0330306D01*
X0135172Y0330306D01*
X0135172Y0330707D02*
X0137526Y0330707D01*
X0137526Y0331108D02*
X0135172Y0331108D01*
X0135172Y0331509D02*
X0137526Y0331509D01*
X0137526Y0331910D02*
X0135172Y0331910D01*
X0135361Y0325770D02*
X0135361Y0323810D01*
X0133007Y0323810D01*
X0133007Y0325770D01*
X0135361Y0325770D01*
X0135361Y0324211D02*
X0133007Y0324211D01*
X0133007Y0324612D02*
X0135361Y0324612D01*
X0135361Y0325013D02*
X0133007Y0325013D01*
X0133007Y0325414D02*
X0135361Y0325414D01*
X0135361Y0321833D02*
X0135361Y0319873D01*
X0133007Y0319873D01*
X0133007Y0321833D01*
X0135361Y0321833D01*
X0135361Y0320274D02*
X0133007Y0320274D01*
X0133007Y0320675D02*
X0135361Y0320675D01*
X0135361Y0321076D02*
X0133007Y0321076D01*
X0133007Y0321477D02*
X0135361Y0321477D01*
X0129061Y0325573D02*
X0127101Y0325573D01*
X0129061Y0325573D02*
X0129061Y0323219D01*
X0127101Y0323219D01*
X0127101Y0325573D01*
X0127101Y0323620D02*
X0129061Y0323620D01*
X0129061Y0324021D02*
X0127101Y0324021D01*
X0127101Y0324422D02*
X0129061Y0324422D01*
X0129061Y0324823D02*
X0127101Y0324823D01*
X0127101Y0325224D02*
X0129061Y0325224D01*
X0125124Y0325573D02*
X0123164Y0325573D01*
X0125124Y0325573D02*
X0125124Y0323219D01*
X0123164Y0323219D01*
X0123164Y0325573D01*
X0123164Y0323620D02*
X0125124Y0323620D01*
X0125124Y0324021D02*
X0123164Y0324021D01*
X0123164Y0324422D02*
X0125124Y0324422D01*
X0125124Y0324823D02*
X0123164Y0324823D01*
X0123164Y0325224D02*
X0125124Y0325224D01*
X0119219Y0324195D02*
X0117259Y0324195D01*
X0119219Y0324195D02*
X0119219Y0321841D01*
X0117259Y0321841D01*
X0117259Y0324195D01*
X0117259Y0322242D02*
X0119219Y0322242D01*
X0119219Y0322643D02*
X0117259Y0322643D01*
X0117259Y0323044D02*
X0119219Y0323044D01*
X0119219Y0323445D02*
X0117259Y0323445D01*
X0117259Y0323846D02*
X0119219Y0323846D01*
X0115282Y0324195D02*
X0113322Y0324195D01*
X0115282Y0324195D02*
X0115282Y0321841D01*
X0113322Y0321841D01*
X0113322Y0324195D01*
X0113322Y0322242D02*
X0115282Y0322242D01*
X0115282Y0322643D02*
X0113322Y0322643D01*
X0113322Y0323044D02*
X0115282Y0323044D01*
X0115282Y0323445D02*
X0113322Y0323445D01*
X0113322Y0323846D02*
X0115282Y0323846D01*
X0111148Y0332668D02*
X0111148Y0334628D01*
X0111148Y0332668D02*
X0108794Y0332668D01*
X0108794Y0334628D01*
X0111148Y0334628D01*
X0111148Y0333069D02*
X0108794Y0333069D01*
X0108794Y0333470D02*
X0111148Y0333470D01*
X0111148Y0333871D02*
X0108794Y0333871D01*
X0108794Y0334272D02*
X0111148Y0334272D01*
X0111148Y0336605D02*
X0111148Y0338565D01*
X0111148Y0336605D02*
X0108794Y0336605D01*
X0108794Y0338565D01*
X0111148Y0338565D01*
X0111148Y0337006D02*
X0108794Y0337006D01*
X0108794Y0337407D02*
X0111148Y0337407D01*
X0111148Y0337808D02*
X0108794Y0337808D01*
X0108794Y0338209D02*
X0111148Y0338209D01*
X0084573Y0356881D02*
X0082613Y0356881D01*
X0082613Y0359235D01*
X0084573Y0359235D01*
X0084573Y0356881D01*
X0084573Y0357282D02*
X0082613Y0357282D01*
X0082613Y0357683D02*
X0084573Y0357683D01*
X0084573Y0358084D02*
X0082613Y0358084D01*
X0082613Y0358485D02*
X0084573Y0358485D01*
X0084573Y0358886D02*
X0082613Y0358886D01*
X0080636Y0356881D02*
X0078676Y0356881D01*
X0078676Y0359235D01*
X0080636Y0359235D01*
X0080636Y0356881D01*
X0080636Y0357282D02*
X0078676Y0357282D01*
X0078676Y0357683D02*
X0080636Y0357683D01*
X0080636Y0358084D02*
X0078676Y0358084D01*
X0078676Y0358485D02*
X0080636Y0358485D01*
X0080636Y0358886D02*
X0078676Y0358886D01*
X0103668Y0372432D02*
X0103668Y0374392D01*
X0103668Y0372432D02*
X0101314Y0372432D01*
X0101314Y0374392D01*
X0103668Y0374392D01*
X0103668Y0372833D02*
X0101314Y0372833D01*
X0101314Y0373234D02*
X0103668Y0373234D01*
X0103668Y0373635D02*
X0101314Y0373635D01*
X0101314Y0374036D02*
X0103668Y0374036D01*
X0103668Y0376369D02*
X0103668Y0378329D01*
X0103668Y0376369D02*
X0101314Y0376369D01*
X0101314Y0378329D01*
X0103668Y0378329D01*
X0103668Y0376770D02*
X0101314Y0376770D01*
X0101314Y0377171D02*
X0103668Y0377171D01*
X0103668Y0377572D02*
X0101314Y0377572D01*
X0101314Y0377973D02*
X0103668Y0377973D01*
X0190290Y0367699D02*
X0190290Y0365739D01*
X0190290Y0367699D02*
X0192644Y0367699D01*
X0192644Y0365739D01*
X0190290Y0365739D01*
X0190290Y0366140D02*
X0192644Y0366140D01*
X0192644Y0366541D02*
X0190290Y0366541D01*
X0190290Y0366942D02*
X0192644Y0366942D01*
X0192644Y0367343D02*
X0190290Y0367343D01*
X0190290Y0363762D02*
X0190290Y0361802D01*
X0190290Y0363762D02*
X0192644Y0363762D01*
X0192644Y0361802D01*
X0190290Y0361802D01*
X0190290Y0362203D02*
X0192644Y0362203D01*
X0192644Y0362604D02*
X0190290Y0362604D01*
X0190290Y0363005D02*
X0192644Y0363005D01*
X0192644Y0363406D02*
X0190290Y0363406D01*
X0195015Y0363762D02*
X0195015Y0361802D01*
X0195015Y0363762D02*
X0197369Y0363762D01*
X0197369Y0361802D01*
X0195015Y0361802D01*
X0195015Y0362203D02*
X0197369Y0362203D01*
X0197369Y0362604D02*
X0195015Y0362604D01*
X0195015Y0363005D02*
X0197369Y0363005D01*
X0197369Y0363406D02*
X0195015Y0363406D01*
X0195015Y0365739D02*
X0195015Y0367699D01*
X0197369Y0367699D01*
X0197369Y0365739D01*
X0195015Y0365739D01*
X0195015Y0366140D02*
X0197369Y0366140D01*
X0197369Y0366541D02*
X0195015Y0366541D01*
X0195015Y0366942D02*
X0197369Y0366942D01*
X0197369Y0367343D02*
X0195015Y0367343D01*
X0191865Y0378338D02*
X0191865Y0380298D01*
X0194219Y0380298D01*
X0194219Y0378338D01*
X0191865Y0378338D01*
X0191865Y0378739D02*
X0194219Y0378739D01*
X0194219Y0379140D02*
X0191865Y0379140D01*
X0191865Y0379541D02*
X0194219Y0379541D01*
X0194219Y0379942D02*
X0191865Y0379942D01*
X0191865Y0382275D02*
X0191865Y0384235D01*
X0194219Y0384235D01*
X0194219Y0382275D01*
X0191865Y0382275D01*
X0191865Y0382676D02*
X0194219Y0382676D01*
X0194219Y0383077D02*
X0191865Y0383077D01*
X0191865Y0383478D02*
X0194219Y0383478D01*
X0194219Y0383879D02*
X0191865Y0383879D01*
X0196590Y0384235D02*
X0196590Y0382275D01*
X0196590Y0384235D02*
X0198944Y0384235D01*
X0198944Y0382275D01*
X0196590Y0382275D01*
X0196590Y0382676D02*
X0198944Y0382676D01*
X0198944Y0383077D02*
X0196590Y0383077D01*
X0196590Y0383478D02*
X0198944Y0383478D01*
X0198944Y0383879D02*
X0196590Y0383879D01*
X0196590Y0380298D02*
X0196590Y0378338D01*
X0196590Y0380298D02*
X0198944Y0380298D01*
X0198944Y0378338D01*
X0196590Y0378338D01*
X0196590Y0378739D02*
X0198944Y0378739D01*
X0198944Y0379140D02*
X0196590Y0379140D01*
X0196590Y0379541D02*
X0198944Y0379541D01*
X0198944Y0379942D02*
X0196590Y0379942D01*
X0133589Y0313565D02*
X0133589Y0311605D01*
X0131235Y0311605D01*
X0131235Y0313565D01*
X0133589Y0313565D01*
X0133589Y0312006D02*
X0131235Y0312006D01*
X0131235Y0312407D02*
X0133589Y0312407D01*
X0133589Y0312808D02*
X0131235Y0312808D01*
X0131235Y0313209D02*
X0133589Y0313209D01*
X0133589Y0309628D02*
X0133589Y0307668D01*
X0131235Y0307668D01*
X0131235Y0309628D01*
X0133589Y0309628D01*
X0133589Y0308069D02*
X0131235Y0308069D01*
X0131235Y0308470D02*
X0133589Y0308470D01*
X0133589Y0308871D02*
X0131235Y0308871D01*
X0131235Y0309272D02*
X0133589Y0309272D01*
X0128865Y0309628D02*
X0128865Y0307668D01*
X0126511Y0307668D01*
X0126511Y0309628D01*
X0128865Y0309628D01*
X0128865Y0308069D02*
X0126511Y0308069D01*
X0126511Y0308470D02*
X0128865Y0308470D01*
X0128865Y0308871D02*
X0126511Y0308871D01*
X0126511Y0309272D02*
X0128865Y0309272D01*
X0128865Y0311605D02*
X0128865Y0313565D01*
X0128865Y0311605D02*
X0126511Y0311605D01*
X0126511Y0313565D01*
X0128865Y0313565D01*
X0128865Y0312006D02*
X0126511Y0312006D01*
X0126511Y0312407D02*
X0128865Y0312407D01*
X0128865Y0312808D02*
X0126511Y0312808D01*
X0126511Y0313209D02*
X0128865Y0313209D01*
X0087928Y0302739D02*
X0087928Y0300779D01*
X0087928Y0302739D02*
X0090282Y0302739D01*
X0090282Y0300779D01*
X0087928Y0300779D01*
X0087928Y0301180D02*
X0090282Y0301180D01*
X0090282Y0301581D02*
X0087928Y0301581D01*
X0087928Y0301982D02*
X0090282Y0301982D01*
X0090282Y0302383D02*
X0087928Y0302383D01*
X0087928Y0298802D02*
X0087928Y0296842D01*
X0087928Y0298802D02*
X0090282Y0298802D01*
X0090282Y0296842D01*
X0087928Y0296842D01*
X0087928Y0297243D02*
X0090282Y0297243D01*
X0090282Y0297644D02*
X0087928Y0297644D01*
X0087928Y0298045D02*
X0090282Y0298045D01*
X0090282Y0298446D02*
X0087928Y0298446D01*
X0077692Y0298802D02*
X0077692Y0296842D01*
X0077692Y0298802D02*
X0080046Y0298802D01*
X0080046Y0296842D01*
X0077692Y0296842D01*
X0077692Y0297243D02*
X0080046Y0297243D01*
X0080046Y0297644D02*
X0077692Y0297644D01*
X0077692Y0298045D02*
X0080046Y0298045D01*
X0080046Y0298446D02*
X0077692Y0298446D01*
X0077692Y0300779D02*
X0077692Y0302739D01*
X0080046Y0302739D01*
X0080046Y0300779D01*
X0077692Y0300779D01*
X0077692Y0301180D02*
X0080046Y0301180D01*
X0080046Y0301581D02*
X0077692Y0301581D01*
X0077692Y0301982D02*
X0080046Y0301982D01*
X0080046Y0302383D02*
X0077692Y0302383D01*
X0072574Y0302739D02*
X0072574Y0300779D01*
X0072574Y0302739D02*
X0074928Y0302739D01*
X0074928Y0300779D01*
X0072574Y0300779D01*
X0072574Y0301180D02*
X0074928Y0301180D01*
X0074928Y0301581D02*
X0072574Y0301581D01*
X0072574Y0301982D02*
X0074928Y0301982D01*
X0074928Y0302383D02*
X0072574Y0302383D01*
X0067456Y0302739D02*
X0067456Y0300779D01*
X0067456Y0302739D02*
X0069810Y0302739D01*
X0069810Y0300779D01*
X0067456Y0300779D01*
X0067456Y0301180D02*
X0069810Y0301180D01*
X0069810Y0301581D02*
X0067456Y0301581D01*
X0067456Y0301982D02*
X0069810Y0301982D01*
X0069810Y0302383D02*
X0067456Y0302383D01*
X0062338Y0302739D02*
X0062338Y0300779D01*
X0062338Y0302739D02*
X0064692Y0302739D01*
X0064692Y0300779D01*
X0062338Y0300779D01*
X0062338Y0301180D02*
X0064692Y0301180D01*
X0064692Y0301581D02*
X0062338Y0301581D01*
X0062338Y0301982D02*
X0064692Y0301982D01*
X0064692Y0302383D02*
X0062338Y0302383D01*
X0062338Y0298802D02*
X0062338Y0296842D01*
X0062338Y0298802D02*
X0064692Y0298802D01*
X0064692Y0296842D01*
X0062338Y0296842D01*
X0062338Y0297243D02*
X0064692Y0297243D01*
X0064692Y0297644D02*
X0062338Y0297644D01*
X0062338Y0298045D02*
X0064692Y0298045D01*
X0064692Y0298446D02*
X0062338Y0298446D01*
X0067456Y0298802D02*
X0067456Y0296842D01*
X0067456Y0298802D02*
X0069810Y0298802D01*
X0069810Y0296842D01*
X0067456Y0296842D01*
X0067456Y0297243D02*
X0069810Y0297243D01*
X0069810Y0297644D02*
X0067456Y0297644D01*
X0067456Y0298045D02*
X0069810Y0298045D01*
X0069810Y0298446D02*
X0067456Y0298446D01*
X0072574Y0298802D02*
X0072574Y0296842D01*
X0072574Y0298802D02*
X0074928Y0298802D01*
X0074928Y0296842D01*
X0072574Y0296842D01*
X0072574Y0297243D02*
X0074928Y0297243D01*
X0074928Y0297644D02*
X0072574Y0297644D01*
X0072574Y0298045D02*
X0074928Y0298045D01*
X0074928Y0298446D02*
X0072574Y0298446D01*
X0394227Y0372629D02*
X0394227Y0374589D01*
X0396581Y0374589D01*
X0396581Y0372629D01*
X0394227Y0372629D01*
X0394227Y0373030D02*
X0396581Y0373030D01*
X0396581Y0373431D02*
X0394227Y0373431D01*
X0394227Y0373832D02*
X0396581Y0373832D01*
X0396581Y0374233D02*
X0394227Y0374233D01*
X0394227Y0376566D02*
X0394227Y0378526D01*
X0396581Y0378526D01*
X0396581Y0376566D01*
X0394227Y0376566D01*
X0394227Y0376967D02*
X0396581Y0376967D01*
X0396581Y0377368D02*
X0394227Y0377368D01*
X0394227Y0377769D02*
X0396581Y0377769D01*
X0396581Y0378170D02*
X0394227Y0378170D01*
X0398952Y0378526D02*
X0398952Y0376566D01*
X0398952Y0378526D02*
X0401306Y0378526D01*
X0401306Y0376566D01*
X0398952Y0376566D01*
X0398952Y0376967D02*
X0401306Y0376967D01*
X0401306Y0377368D02*
X0398952Y0377368D01*
X0398952Y0377769D02*
X0401306Y0377769D01*
X0401306Y0378170D02*
X0398952Y0378170D01*
X0398952Y0374589D02*
X0398952Y0372629D01*
X0398952Y0374589D02*
X0401306Y0374589D01*
X0401306Y0372629D01*
X0398952Y0372629D01*
X0398952Y0373030D02*
X0401306Y0373030D01*
X0401306Y0373431D02*
X0398952Y0373431D01*
X0398952Y0373832D02*
X0401306Y0373832D01*
X0401306Y0374233D02*
X0398952Y0374233D01*
X0403676Y0374589D02*
X0403676Y0372629D01*
X0403676Y0374589D02*
X0406030Y0374589D01*
X0406030Y0372629D01*
X0403676Y0372629D01*
X0403676Y0373030D02*
X0406030Y0373030D01*
X0406030Y0373431D02*
X0403676Y0373431D01*
X0403676Y0373832D02*
X0406030Y0373832D01*
X0406030Y0374233D02*
X0403676Y0374233D01*
X0403676Y0376566D02*
X0403676Y0378526D01*
X0406030Y0378526D01*
X0406030Y0376566D01*
X0403676Y0376566D01*
X0403676Y0376967D02*
X0406030Y0376967D01*
X0406030Y0377368D02*
X0403676Y0377368D01*
X0403676Y0377769D02*
X0406030Y0377769D01*
X0406030Y0378170D02*
X0403676Y0378170D01*
X0458007Y0312581D02*
X0458007Y0310621D01*
X0458007Y0312581D02*
X0460361Y0312581D01*
X0460361Y0310621D01*
X0458007Y0310621D01*
X0458007Y0311022D02*
X0460361Y0311022D01*
X0460361Y0311423D02*
X0458007Y0311423D01*
X0458007Y0311824D02*
X0460361Y0311824D01*
X0460361Y0312225D02*
X0458007Y0312225D01*
X0458007Y0308644D02*
X0458007Y0306684D01*
X0458007Y0308644D02*
X0460361Y0308644D01*
X0460361Y0306684D01*
X0458007Y0306684D01*
X0458007Y0307085D02*
X0460361Y0307085D01*
X0460361Y0307486D02*
X0458007Y0307486D01*
X0458007Y0307887D02*
X0460361Y0307887D01*
X0460361Y0308288D02*
X0458007Y0308288D01*
X0544227Y0342708D02*
X0544227Y0344668D01*
X0546581Y0344668D01*
X0546581Y0342708D01*
X0544227Y0342708D01*
X0544227Y0343109D02*
X0546581Y0343109D01*
X0546581Y0343510D02*
X0544227Y0343510D01*
X0544227Y0343911D02*
X0546581Y0343911D01*
X0546581Y0344312D02*
X0544227Y0344312D01*
X0544227Y0346645D02*
X0544227Y0348605D01*
X0546581Y0348605D01*
X0546581Y0346645D01*
X0544227Y0346645D01*
X0544227Y0347046D02*
X0546581Y0347046D01*
X0546581Y0347447D02*
X0544227Y0347447D01*
X0544227Y0347848D02*
X0546581Y0347848D01*
X0546581Y0348249D02*
X0544227Y0348249D01*
X0503471Y0182668D02*
X0501511Y0182668D01*
X0501511Y0185022D01*
X0503471Y0185022D01*
X0503471Y0182668D01*
X0503471Y0183069D02*
X0501511Y0183069D01*
X0501511Y0183470D02*
X0503471Y0183470D01*
X0503471Y0183871D02*
X0501511Y0183871D01*
X0501511Y0184272D02*
X0503471Y0184272D01*
X0503471Y0184673D02*
X0501511Y0184673D01*
X0499534Y0182668D02*
X0497574Y0182668D01*
X0497574Y0185022D01*
X0499534Y0185022D01*
X0499534Y0182668D01*
X0499534Y0183069D02*
X0497574Y0183069D01*
X0497574Y0183470D02*
X0499534Y0183470D01*
X0499534Y0183871D02*
X0497574Y0183871D01*
X0497574Y0184272D02*
X0499534Y0184272D01*
X0499534Y0184673D02*
X0497574Y0184673D01*
D11*
X0364593Y0161695D02*
X0361649Y0161695D01*
X0364593Y0161695D02*
X0364593Y0157571D01*
X0361649Y0157571D01*
X0361649Y0161695D01*
X0361649Y0159155D02*
X0364593Y0159155D01*
X0364593Y0160739D02*
X0361649Y0160739D01*
X0357506Y0161695D02*
X0354562Y0161695D01*
X0357506Y0161695D02*
X0357506Y0157571D01*
X0354562Y0157571D01*
X0354562Y0161695D01*
X0354562Y0159155D02*
X0357506Y0159155D01*
X0357506Y0160739D02*
X0354562Y0160739D01*
X0322663Y0193200D02*
X0322663Y0196144D01*
X0322663Y0193200D02*
X0318539Y0193200D01*
X0318539Y0196144D01*
X0322663Y0196144D01*
X0322663Y0194784D02*
X0318539Y0194784D01*
X0322663Y0200287D02*
X0322663Y0203231D01*
X0322663Y0200287D02*
X0318539Y0200287D01*
X0318539Y0203231D01*
X0322663Y0203231D01*
X0322663Y0201871D02*
X0318539Y0201871D01*
X0287230Y0201468D02*
X0287230Y0204412D01*
X0287230Y0201468D02*
X0283106Y0201468D01*
X0283106Y0204412D01*
X0287230Y0204412D01*
X0287230Y0203052D02*
X0283106Y0203052D01*
X0287230Y0197325D02*
X0287230Y0194381D01*
X0283106Y0194381D01*
X0283106Y0197325D01*
X0287230Y0197325D01*
X0287230Y0195965D02*
X0283106Y0195965D01*
X0260250Y0175501D02*
X0258169Y0173420D01*
X0255254Y0176335D01*
X0257335Y0178416D01*
X0260250Y0175501D01*
X0259753Y0175004D02*
X0256585Y0175004D01*
X0255507Y0176588D02*
X0259163Y0176588D01*
X0257579Y0178172D02*
X0257091Y0178172D01*
X0255239Y0170490D02*
X0253158Y0168409D01*
X0250243Y0171324D01*
X0252324Y0173405D01*
X0255239Y0170490D01*
X0254742Y0169993D02*
X0251574Y0169993D01*
X0250496Y0171577D02*
X0254152Y0171577D01*
X0252568Y0173161D02*
X0252080Y0173161D01*
X0312427Y0236704D02*
X0312427Y0239648D01*
X0312427Y0236704D02*
X0308303Y0236704D01*
X0308303Y0239648D01*
X0312427Y0239648D01*
X0312427Y0238288D02*
X0308303Y0238288D01*
X0312427Y0243790D02*
X0312427Y0246734D01*
X0312427Y0243790D02*
X0308303Y0243790D01*
X0308303Y0246734D01*
X0312427Y0246734D01*
X0312427Y0245374D02*
X0308303Y0245374D01*
X0320301Y0246734D02*
X0320301Y0243790D01*
X0316177Y0243790D01*
X0316177Y0246734D01*
X0320301Y0246734D01*
X0320301Y0245374D02*
X0316177Y0245374D01*
X0320301Y0239648D02*
X0320301Y0236704D01*
X0316177Y0236704D01*
X0316177Y0239648D01*
X0320301Y0239648D01*
X0320301Y0238288D02*
X0316177Y0238288D01*
X0271482Y0247137D02*
X0271482Y0250081D01*
X0271482Y0247137D02*
X0267358Y0247137D01*
X0267358Y0250081D01*
X0271482Y0250081D01*
X0271482Y0248721D02*
X0267358Y0248721D01*
X0264789Y0250081D02*
X0264789Y0247137D01*
X0260665Y0247137D01*
X0260665Y0250081D01*
X0264789Y0250081D01*
X0264789Y0248721D02*
X0260665Y0248721D01*
X0264789Y0254224D02*
X0264789Y0257168D01*
X0264789Y0254224D02*
X0260665Y0254224D01*
X0260665Y0257168D01*
X0264789Y0257168D01*
X0264789Y0255808D02*
X0260665Y0255808D01*
X0271482Y0257168D02*
X0271482Y0254224D01*
X0267358Y0254224D01*
X0267358Y0257168D01*
X0271482Y0257168D01*
X0271482Y0255808D02*
X0267358Y0255808D01*
X0301010Y0279027D02*
X0301010Y0281971D01*
X0301010Y0279027D02*
X0296886Y0279027D01*
X0296886Y0281971D01*
X0301010Y0281971D01*
X0301010Y0280611D02*
X0296886Y0280611D01*
X0301010Y0286113D02*
X0301010Y0289057D01*
X0301010Y0286113D02*
X0296886Y0286113D01*
X0296886Y0289057D01*
X0301010Y0289057D01*
X0301010Y0287697D02*
X0296886Y0287697D01*
X0309277Y0289057D02*
X0309277Y0286113D01*
X0305153Y0286113D01*
X0305153Y0289057D01*
X0309277Y0289057D01*
X0309277Y0287697D02*
X0305153Y0287697D01*
X0309277Y0281971D02*
X0309277Y0279027D01*
X0305153Y0279027D01*
X0305153Y0281971D01*
X0309277Y0281971D01*
X0309277Y0280611D02*
X0305153Y0280611D01*
X0344710Y0281389D02*
X0344710Y0284333D01*
X0344710Y0281389D02*
X0340586Y0281389D01*
X0340586Y0284333D01*
X0344710Y0284333D01*
X0344710Y0282973D02*
X0340586Y0282973D01*
X0344710Y0288476D02*
X0344710Y0291420D01*
X0344710Y0288476D02*
X0340586Y0288476D01*
X0340586Y0291420D01*
X0344710Y0291420D01*
X0344710Y0290060D02*
X0340586Y0290060D01*
X0352584Y0291420D02*
X0352584Y0288476D01*
X0348460Y0288476D01*
X0348460Y0291420D01*
X0352584Y0291420D01*
X0352584Y0290060D02*
X0348460Y0290060D01*
X0352584Y0284333D02*
X0352584Y0281389D01*
X0348460Y0281389D01*
X0348460Y0284333D01*
X0352584Y0284333D01*
X0352584Y0282973D02*
X0348460Y0282973D01*
X0211837Y0262689D02*
X0208893Y0262689D01*
X0208893Y0266813D01*
X0211837Y0266813D01*
X0211837Y0262689D01*
X0211837Y0264273D02*
X0208893Y0264273D01*
X0208893Y0265857D02*
X0211837Y0265857D01*
X0204750Y0262689D02*
X0201806Y0262689D01*
X0201806Y0266813D01*
X0204750Y0266813D01*
X0204750Y0262689D01*
X0204750Y0264273D02*
X0201806Y0264273D01*
X0201806Y0265857D02*
X0204750Y0265857D01*
X0151994Y0326458D02*
X0149050Y0326458D01*
X0151994Y0326458D02*
X0151994Y0322334D01*
X0149050Y0322334D01*
X0149050Y0326458D01*
X0149050Y0323918D02*
X0151994Y0323918D01*
X0151994Y0325502D02*
X0149050Y0325502D01*
X0144908Y0326458D02*
X0141964Y0326458D01*
X0144908Y0326458D02*
X0144908Y0322334D01*
X0141964Y0322334D01*
X0141964Y0326458D01*
X0141964Y0323918D02*
X0144908Y0323918D01*
X0144908Y0325502D02*
X0141964Y0325502D01*
X0118530Y0347521D02*
X0115586Y0347521D01*
X0118530Y0347521D02*
X0118530Y0343397D01*
X0115586Y0343397D01*
X0115586Y0347521D01*
X0115586Y0344981D02*
X0118530Y0344981D01*
X0118530Y0346565D02*
X0115586Y0346565D01*
X0111443Y0347521D02*
X0108499Y0347521D01*
X0111443Y0347521D02*
X0111443Y0343397D01*
X0108499Y0343397D01*
X0108499Y0347521D01*
X0108499Y0344981D02*
X0111443Y0344981D01*
X0111443Y0346565D02*
X0108499Y0346565D01*
X0107122Y0355798D02*
X0107122Y0358742D01*
X0111246Y0358742D01*
X0111246Y0355798D01*
X0107122Y0355798D01*
X0107122Y0357382D02*
X0111246Y0357382D01*
X0115586Y0358742D02*
X0115586Y0355798D01*
X0115586Y0358742D02*
X0119710Y0358742D01*
X0119710Y0355798D01*
X0115586Y0355798D01*
X0115586Y0357382D02*
X0119710Y0357382D01*
X0115586Y0362885D02*
X0115586Y0365829D01*
X0119710Y0365829D01*
X0119710Y0362885D01*
X0115586Y0362885D01*
X0115586Y0364469D02*
X0119710Y0364469D01*
X0107122Y0365829D02*
X0107122Y0362885D01*
X0107122Y0365829D02*
X0111246Y0365829D01*
X0111246Y0362885D01*
X0107122Y0362885D01*
X0107122Y0364469D02*
X0111246Y0364469D01*
X0096492Y0224490D02*
X0096492Y0221546D01*
X0096492Y0224490D02*
X0100616Y0224490D01*
X0100616Y0221546D01*
X0096492Y0221546D01*
X0096492Y0223130D02*
X0100616Y0223130D01*
X0096492Y0217404D02*
X0096492Y0214460D01*
X0096492Y0217404D02*
X0100616Y0217404D01*
X0100616Y0214460D01*
X0096492Y0214460D01*
X0096492Y0216044D02*
X0100616Y0216044D01*
X0149444Y0122226D02*
X0152388Y0122226D01*
X0152388Y0118102D01*
X0149444Y0118102D01*
X0149444Y0122226D01*
X0149444Y0119686D02*
X0152388Y0119686D01*
X0152388Y0121270D02*
X0149444Y0121270D01*
X0156531Y0122226D02*
X0159475Y0122226D01*
X0159475Y0118102D01*
X0156531Y0118102D01*
X0156531Y0122226D01*
X0156531Y0119686D02*
X0159475Y0119686D01*
X0159475Y0121270D02*
X0156531Y0121270D01*
X0352200Y0123112D02*
X0355144Y0123112D01*
X0355144Y0118988D01*
X0352200Y0118988D01*
X0352200Y0123112D01*
X0352200Y0120572D02*
X0355144Y0120572D01*
X0355144Y0122156D02*
X0352200Y0122156D01*
X0359287Y0123112D02*
X0362231Y0123112D01*
X0362231Y0118988D01*
X0359287Y0118988D01*
X0359287Y0123112D01*
X0359287Y0120572D02*
X0362231Y0120572D01*
X0362231Y0122156D02*
X0359287Y0122156D01*
X0359287Y0114844D02*
X0362231Y0114844D01*
X0362231Y0110720D01*
X0359287Y0110720D01*
X0359287Y0114844D01*
X0359287Y0112304D02*
X0362231Y0112304D01*
X0362231Y0113888D02*
X0359287Y0113888D01*
X0355144Y0114844D02*
X0352200Y0114844D01*
X0355144Y0114844D02*
X0355144Y0110720D01*
X0352200Y0110720D01*
X0352200Y0114844D01*
X0352200Y0112304D02*
X0355144Y0112304D01*
X0355144Y0113888D02*
X0352200Y0113888D01*
D12*
X0200719Y0120066D03*
X0192845Y0123806D03*
X0200719Y0127546D03*
X0321389Y0259239D03*
X0321389Y0266719D03*
X0329263Y0262979D03*
X0369814Y0292113D03*
X0377688Y0295853D03*
X0369814Y0299593D03*
X0385956Y0299593D03*
X0393830Y0295853D03*
X0385956Y0292113D03*
X0402097Y0292113D03*
X0402097Y0299593D03*
X0409971Y0295853D03*
X0459184Y0297428D03*
X0467058Y0301168D03*
X0467058Y0293688D03*
D13*
X0056893Y0349534D03*
D14*
X0101678Y0349534D03*
D15*
X0102562Y0319613D03*
D16*
X0055515Y0317054D03*
D17*
X0066538Y0350026D03*
X0070869Y0350026D03*
X0075200Y0350026D03*
X0079530Y0350026D03*
X0083861Y0350026D03*
X0088192Y0350026D03*
X0092522Y0350026D03*
X0096853Y0350026D03*
D18*
X0101184Y0313707D03*
D19*
X0057089Y0307507D03*
D20*
X0158790Y0373904D03*
X0161349Y0373904D03*
X0163908Y0373904D03*
X0166467Y0373904D03*
X0169026Y0373904D03*
D21*
X0111152Y0116345D03*
X0111152Y0111345D03*
X0111152Y0106345D03*
X0111152Y0101345D03*
X0090680Y0101345D03*
X0090680Y0106345D03*
X0090680Y0111345D03*
X0090680Y0116345D03*
D22*
G36*
X0215899Y0124725D02*
X0213116Y0121942D01*
X0208107Y0126951D01*
X0210890Y0129734D01*
X0215899Y0124725D01*
G37*
G36*
X0222859Y0131684D02*
X0220076Y0128901D01*
X0215067Y0133910D01*
X0217850Y0136693D01*
X0222859Y0131684D01*
G37*
D23*
X0423357Y0129475D03*
X0423357Y0124475D03*
X0423357Y0119475D03*
X0423357Y0114475D03*
X0423357Y0109475D03*
X0423357Y0104475D03*
X0444617Y0104475D03*
X0444617Y0109475D03*
X0444617Y0114475D03*
X0444617Y0119475D03*
X0444617Y0124475D03*
X0444617Y0129475D03*
X0444617Y0134475D03*
X0423357Y0134475D03*
X0423357Y0148570D03*
X0423357Y0153570D03*
X0423357Y0158570D03*
X0423357Y0163570D03*
X0423357Y0168570D03*
X0423357Y0173570D03*
X0423357Y0178570D03*
X0444617Y0178570D03*
X0444617Y0173570D03*
X0444617Y0168570D03*
X0444617Y0163570D03*
X0444617Y0158570D03*
X0444617Y0153570D03*
X0444617Y0148570D03*
X0490286Y0148570D03*
X0490286Y0153570D03*
X0490286Y0158570D03*
X0490286Y0163570D03*
X0490286Y0168570D03*
X0490286Y0173570D03*
X0490286Y0178570D03*
X0511546Y0178570D03*
X0511546Y0173570D03*
X0511546Y0168570D03*
X0511546Y0163570D03*
X0511546Y0158570D03*
X0511546Y0153570D03*
X0511546Y0148570D03*
X0511546Y0134475D03*
X0511546Y0129475D03*
X0511546Y0124475D03*
X0511546Y0119475D03*
X0511546Y0114475D03*
X0511546Y0109475D03*
X0511546Y0104475D03*
X0490286Y0104475D03*
X0490286Y0109475D03*
X0490286Y0114475D03*
X0490286Y0119475D03*
X0490286Y0124475D03*
X0490286Y0129475D03*
X0490286Y0134475D03*
D24*
X0171585Y0336207D02*
X0169617Y0336207D01*
X0169617Y0338176D02*
X0171585Y0338176D01*
X0171585Y0340144D02*
X0169617Y0340144D01*
X0169617Y0342113D02*
X0171585Y0342113D01*
X0171585Y0344081D02*
X0169617Y0344081D01*
X0169617Y0346050D02*
X0171585Y0346050D01*
X0171585Y0348018D02*
X0169617Y0348018D01*
X0169617Y0349987D02*
X0171585Y0349987D01*
X0168042Y0351562D02*
X0168042Y0353530D01*
X0166074Y0353530D02*
X0166074Y0351562D01*
X0164105Y0351562D02*
X0164105Y0353530D01*
X0162137Y0353530D02*
X0162137Y0351562D01*
X0160168Y0351562D02*
X0160168Y0353530D01*
X0158200Y0353530D02*
X0158200Y0351562D01*
X0156231Y0351562D02*
X0156231Y0353530D01*
X0154263Y0353530D02*
X0154263Y0351562D01*
X0152688Y0349987D02*
X0150719Y0349987D01*
X0150719Y0348018D02*
X0152688Y0348018D01*
X0152688Y0346050D02*
X0150719Y0346050D01*
X0150719Y0344081D02*
X0152688Y0344081D01*
X0152688Y0342113D02*
X0150719Y0342113D01*
X0150719Y0340144D02*
X0152688Y0340144D01*
X0152688Y0338176D02*
X0150719Y0338176D01*
X0150719Y0336207D02*
X0152688Y0336207D01*
X0154263Y0334633D02*
X0154263Y0332664D01*
X0156231Y0332664D02*
X0156231Y0334633D01*
X0158200Y0334633D02*
X0158200Y0332664D01*
X0160168Y0332664D02*
X0160168Y0334633D01*
X0162137Y0334633D02*
X0162137Y0332664D01*
X0164105Y0332664D02*
X0164105Y0334633D01*
X0166074Y0334633D02*
X0166074Y0332664D01*
X0168042Y0332664D02*
X0168042Y0334633D01*
D25*
X0166074Y0339160D03*
X0164105Y0339160D03*
X0162137Y0339160D03*
X0160168Y0339160D03*
X0158200Y0339160D03*
X0156231Y0339160D03*
X0156231Y0343097D03*
X0158200Y0343097D03*
X0160168Y0343097D03*
X0162137Y0343097D03*
X0164105Y0343097D03*
X0166074Y0343097D03*
X0166074Y0347034D03*
X0164105Y0347034D03*
X0162137Y0347034D03*
X0160168Y0347034D03*
X0158200Y0347034D03*
X0156231Y0347034D03*
D26*
X0156231Y0353825D03*
X0154263Y0353825D03*
X0158200Y0353825D03*
X0160168Y0353825D03*
X0162137Y0353825D03*
X0164105Y0353825D03*
X0166074Y0353825D03*
X0168042Y0353825D03*
X0168042Y0332369D03*
X0166074Y0332369D03*
X0164105Y0332369D03*
X0162137Y0332369D03*
X0160168Y0332369D03*
X0158200Y0332369D03*
X0156231Y0332369D03*
X0154263Y0332369D03*
D27*
X0150424Y0336207D03*
X0150424Y0338176D03*
X0150424Y0340144D03*
X0150424Y0342113D03*
X0150424Y0344081D03*
X0150424Y0346050D03*
X0150424Y0348018D03*
X0150424Y0349987D03*
X0171881Y0349987D03*
X0171881Y0348018D03*
X0171881Y0346050D03*
X0171881Y0344081D03*
X0171881Y0342113D03*
X0171881Y0340144D03*
X0171881Y0338176D03*
X0171881Y0336207D03*
D28*
G36*
X0171404Y0258794D02*
X0168065Y0262133D01*
X0168900Y0262968D01*
X0172239Y0259629D01*
X0171404Y0258794D01*
G37*
G36*
X0170012Y0257402D02*
X0166673Y0260741D01*
X0167508Y0261576D01*
X0170847Y0258237D01*
X0170012Y0257402D01*
G37*
G36*
X0168620Y0256010D02*
X0165281Y0259349D01*
X0166116Y0260184D01*
X0169455Y0256845D01*
X0168620Y0256010D01*
G37*
G36*
X0167228Y0254618D02*
X0163889Y0257957D01*
X0164724Y0258792D01*
X0168063Y0255453D01*
X0167228Y0254618D01*
G37*
G36*
X0165836Y0253226D02*
X0162497Y0256565D01*
X0163332Y0257400D01*
X0166671Y0254061D01*
X0165836Y0253226D01*
G37*
G36*
X0164444Y0251834D02*
X0161105Y0255173D01*
X0161940Y0256008D01*
X0165279Y0252669D01*
X0164444Y0251834D01*
G37*
G36*
X0163052Y0250442D02*
X0159713Y0253781D01*
X0160548Y0254616D01*
X0163887Y0251277D01*
X0163052Y0250442D01*
G37*
G36*
X0161660Y0249050D02*
X0158321Y0252389D01*
X0159156Y0253224D01*
X0162495Y0249885D01*
X0161660Y0249050D01*
G37*
G36*
X0160268Y0247658D02*
X0156929Y0250997D01*
X0157764Y0251832D01*
X0161103Y0248493D01*
X0160268Y0247658D01*
G37*
G36*
X0158876Y0246266D02*
X0155537Y0249605D01*
X0156372Y0250440D01*
X0159711Y0247101D01*
X0158876Y0246266D01*
G37*
G36*
X0157484Y0244874D02*
X0154145Y0248213D01*
X0154980Y0249048D01*
X0158319Y0245709D01*
X0157484Y0244874D01*
G37*
G36*
X0156092Y0243482D02*
X0152753Y0246821D01*
X0153588Y0247656D01*
X0156927Y0244317D01*
X0156092Y0243482D01*
G37*
G36*
X0154700Y0242090D02*
X0151361Y0245429D01*
X0152196Y0246264D01*
X0155535Y0242925D01*
X0154700Y0242090D01*
G37*
G36*
X0153308Y0240698D02*
X0149969Y0244037D01*
X0150804Y0244872D01*
X0154143Y0241533D01*
X0153308Y0240698D01*
G37*
G36*
X0151916Y0239306D02*
X0148577Y0242645D01*
X0149412Y0243480D01*
X0152751Y0240141D01*
X0151916Y0239306D01*
G37*
G36*
X0150524Y0237914D02*
X0147185Y0241253D01*
X0148020Y0242088D01*
X0151359Y0238749D01*
X0150524Y0237914D01*
G37*
G36*
X0149132Y0236523D02*
X0145793Y0239862D01*
X0146628Y0240697D01*
X0149967Y0237358D01*
X0149132Y0236523D01*
G37*
G36*
X0147740Y0235131D02*
X0144401Y0238470D01*
X0145236Y0239305D01*
X0148575Y0235966D01*
X0147740Y0235131D01*
G37*
G36*
X0146349Y0233739D02*
X0143010Y0237078D01*
X0143845Y0237913D01*
X0147184Y0234574D01*
X0146349Y0233739D01*
G37*
G36*
X0144957Y0232347D02*
X0141618Y0235686D01*
X0142453Y0236521D01*
X0145792Y0233182D01*
X0144957Y0232347D01*
G37*
G36*
X0143565Y0230955D02*
X0140226Y0234294D01*
X0141061Y0235129D01*
X0144400Y0231790D01*
X0143565Y0230955D01*
G37*
G36*
X0142173Y0229563D02*
X0138834Y0232902D01*
X0139669Y0233737D01*
X0143008Y0230398D01*
X0142173Y0229563D01*
G37*
G36*
X0140781Y0228171D02*
X0137442Y0231510D01*
X0138277Y0232345D01*
X0141616Y0229006D01*
X0140781Y0228171D01*
G37*
G36*
X0139389Y0226779D02*
X0136050Y0230118D01*
X0136885Y0230953D01*
X0140224Y0227614D01*
X0139389Y0226779D01*
G37*
G36*
X0137997Y0225387D02*
X0134658Y0228726D01*
X0135493Y0229561D01*
X0138832Y0226222D01*
X0137997Y0225387D01*
G37*
G36*
X0136605Y0223995D02*
X0133266Y0227334D01*
X0134101Y0228169D01*
X0137440Y0224830D01*
X0136605Y0223995D01*
G37*
G36*
X0135213Y0222603D02*
X0131874Y0225942D01*
X0132709Y0226777D01*
X0136048Y0223438D01*
X0135213Y0222603D01*
G37*
G36*
X0133821Y0221211D02*
X0130482Y0224550D01*
X0131317Y0225385D01*
X0134656Y0222046D01*
X0133821Y0221211D01*
G37*
G36*
X0132429Y0219819D02*
X0129090Y0223158D01*
X0129925Y0223993D01*
X0133264Y0220654D01*
X0132429Y0219819D01*
G37*
G36*
X0131037Y0218427D02*
X0127698Y0221766D01*
X0128533Y0222601D01*
X0131872Y0219262D01*
X0131037Y0218427D01*
G37*
G36*
X0129645Y0217035D02*
X0126306Y0220374D01*
X0127141Y0221209D01*
X0130480Y0217870D01*
X0129645Y0217035D01*
G37*
G36*
X0128253Y0215643D02*
X0124914Y0218982D01*
X0125749Y0219817D01*
X0129088Y0216478D01*
X0128253Y0215643D01*
G37*
G36*
X0126861Y0214251D02*
X0123522Y0217590D01*
X0124357Y0218425D01*
X0127696Y0215086D01*
X0126861Y0214251D01*
G37*
G36*
X0125469Y0212860D02*
X0122130Y0216199D01*
X0122965Y0217034D01*
X0126304Y0213695D01*
X0125469Y0212860D01*
G37*
G36*
X0124077Y0211468D02*
X0120738Y0214807D01*
X0121573Y0215642D01*
X0124912Y0212303D01*
X0124077Y0211468D01*
G37*
G36*
X0122686Y0210076D02*
X0119347Y0213415D01*
X0120182Y0214250D01*
X0123521Y0210911D01*
X0122686Y0210076D01*
G37*
G36*
X0121294Y0208684D02*
X0117955Y0212023D01*
X0118790Y0212858D01*
X0122129Y0209519D01*
X0121294Y0208684D01*
G37*
G36*
X0119902Y0207292D02*
X0116563Y0210631D01*
X0117398Y0211466D01*
X0120737Y0208127D01*
X0119902Y0207292D01*
G37*
G36*
X0118510Y0205900D02*
X0115171Y0209239D01*
X0116006Y0210074D01*
X0119345Y0206735D01*
X0118510Y0205900D01*
G37*
G36*
X0117118Y0204508D02*
X0113779Y0207847D01*
X0114614Y0208682D01*
X0117953Y0205343D01*
X0117118Y0204508D01*
G37*
G36*
X0115726Y0203116D02*
X0112387Y0206455D01*
X0113222Y0207290D01*
X0116561Y0203951D01*
X0115726Y0203116D01*
G37*
G36*
X0114334Y0201724D02*
X0110995Y0205063D01*
X0111830Y0205898D01*
X0115169Y0202559D01*
X0114334Y0201724D01*
G37*
G36*
X0112942Y0200332D02*
X0109603Y0203671D01*
X0110438Y0204506D01*
X0113777Y0201167D01*
X0112942Y0200332D01*
G37*
G36*
X0111550Y0198940D02*
X0108211Y0202279D01*
X0109046Y0203114D01*
X0112385Y0199775D01*
X0111550Y0198940D01*
G37*
G36*
X0112385Y0191144D02*
X0109046Y0187805D01*
X0108211Y0188640D01*
X0111550Y0191979D01*
X0112385Y0191144D01*
G37*
G36*
X0113777Y0189752D02*
X0110438Y0186413D01*
X0109603Y0187248D01*
X0112942Y0190587D01*
X0113777Y0189752D01*
G37*
G36*
X0115169Y0188360D02*
X0111830Y0185021D01*
X0110995Y0185856D01*
X0114334Y0189195D01*
X0115169Y0188360D01*
G37*
G36*
X0116561Y0186968D02*
X0113222Y0183629D01*
X0112387Y0184464D01*
X0115726Y0187803D01*
X0116561Y0186968D01*
G37*
G36*
X0117953Y0185576D02*
X0114614Y0182237D01*
X0113779Y0183072D01*
X0117118Y0186411D01*
X0117953Y0185576D01*
G37*
G36*
X0119345Y0184184D02*
X0116006Y0180845D01*
X0115171Y0181680D01*
X0118510Y0185019D01*
X0119345Y0184184D01*
G37*
G36*
X0120737Y0182792D02*
X0117398Y0179453D01*
X0116563Y0180288D01*
X0119902Y0183627D01*
X0120737Y0182792D01*
G37*
G36*
X0122129Y0181400D02*
X0118790Y0178061D01*
X0117955Y0178896D01*
X0121294Y0182235D01*
X0122129Y0181400D01*
G37*
G36*
X0123521Y0180008D02*
X0120182Y0176669D01*
X0119347Y0177504D01*
X0122686Y0180843D01*
X0123521Y0180008D01*
G37*
G36*
X0124912Y0178616D02*
X0121573Y0175277D01*
X0120738Y0176112D01*
X0124077Y0179451D01*
X0124912Y0178616D01*
G37*
G36*
X0126304Y0177224D02*
X0122965Y0173885D01*
X0122130Y0174720D01*
X0125469Y0178059D01*
X0126304Y0177224D01*
G37*
G36*
X0127696Y0175832D02*
X0124357Y0172493D01*
X0123522Y0173328D01*
X0126861Y0176667D01*
X0127696Y0175832D01*
G37*
G36*
X0129088Y0174440D02*
X0125749Y0171101D01*
X0124914Y0171936D01*
X0128253Y0175275D01*
X0129088Y0174440D01*
G37*
G36*
X0130480Y0173048D02*
X0127141Y0169709D01*
X0126306Y0170544D01*
X0129645Y0173883D01*
X0130480Y0173048D01*
G37*
G36*
X0131872Y0171656D02*
X0128533Y0168317D01*
X0127698Y0169152D01*
X0131037Y0172491D01*
X0131872Y0171656D01*
G37*
G36*
X0133264Y0170264D02*
X0129925Y0166925D01*
X0129090Y0167760D01*
X0132429Y0171099D01*
X0133264Y0170264D01*
G37*
G36*
X0134656Y0168872D02*
X0131317Y0165533D01*
X0130482Y0166368D01*
X0133821Y0169707D01*
X0134656Y0168872D01*
G37*
G36*
X0136048Y0167481D02*
X0132709Y0164142D01*
X0131874Y0164977D01*
X0135213Y0168316D01*
X0136048Y0167481D01*
G37*
G36*
X0137440Y0166089D02*
X0134101Y0162750D01*
X0133266Y0163585D01*
X0136605Y0166924D01*
X0137440Y0166089D01*
G37*
G36*
X0138832Y0164697D02*
X0135493Y0161358D01*
X0134658Y0162193D01*
X0137997Y0165532D01*
X0138832Y0164697D01*
G37*
G36*
X0140224Y0163305D02*
X0136885Y0159966D01*
X0136050Y0160801D01*
X0139389Y0164140D01*
X0140224Y0163305D01*
G37*
G36*
X0141616Y0161913D02*
X0138277Y0158574D01*
X0137442Y0159409D01*
X0140781Y0162748D01*
X0141616Y0161913D01*
G37*
G36*
X0143008Y0160521D02*
X0139669Y0157182D01*
X0138834Y0158017D01*
X0142173Y0161356D01*
X0143008Y0160521D01*
G37*
G36*
X0144400Y0159129D02*
X0141061Y0155790D01*
X0140226Y0156625D01*
X0143565Y0159964D01*
X0144400Y0159129D01*
G37*
G36*
X0145792Y0157737D02*
X0142453Y0154398D01*
X0141618Y0155233D01*
X0144957Y0158572D01*
X0145792Y0157737D01*
G37*
G36*
X0147184Y0156345D02*
X0143845Y0153006D01*
X0143010Y0153841D01*
X0146349Y0157180D01*
X0147184Y0156345D01*
G37*
G36*
X0148575Y0154953D02*
X0145236Y0151614D01*
X0144401Y0152449D01*
X0147740Y0155788D01*
X0148575Y0154953D01*
G37*
G36*
X0149967Y0153561D02*
X0146628Y0150222D01*
X0145793Y0151057D01*
X0149132Y0154396D01*
X0149967Y0153561D01*
G37*
G36*
X0151359Y0152169D02*
X0148020Y0148830D01*
X0147185Y0149665D01*
X0150524Y0153004D01*
X0151359Y0152169D01*
G37*
G36*
X0152751Y0150777D02*
X0149412Y0147438D01*
X0148577Y0148273D01*
X0151916Y0151612D01*
X0152751Y0150777D01*
G37*
G36*
X0154143Y0149385D02*
X0150804Y0146046D01*
X0149969Y0146881D01*
X0153308Y0150220D01*
X0154143Y0149385D01*
G37*
G36*
X0155535Y0147993D02*
X0152196Y0144654D01*
X0151361Y0145489D01*
X0154700Y0148828D01*
X0155535Y0147993D01*
G37*
G36*
X0156927Y0146601D02*
X0153588Y0143262D01*
X0152753Y0144097D01*
X0156092Y0147436D01*
X0156927Y0146601D01*
G37*
G36*
X0158319Y0145209D02*
X0154980Y0141870D01*
X0154145Y0142705D01*
X0157484Y0146044D01*
X0158319Y0145209D01*
G37*
G36*
X0159711Y0143817D02*
X0156372Y0140478D01*
X0155537Y0141313D01*
X0158876Y0144652D01*
X0159711Y0143817D01*
G37*
G36*
X0161103Y0142426D02*
X0157764Y0139087D01*
X0156929Y0139922D01*
X0160268Y0143261D01*
X0161103Y0142426D01*
G37*
G36*
X0162495Y0141034D02*
X0159156Y0137695D01*
X0158321Y0138530D01*
X0161660Y0141869D01*
X0162495Y0141034D01*
G37*
G36*
X0163887Y0139642D02*
X0160548Y0136303D01*
X0159713Y0137138D01*
X0163052Y0140477D01*
X0163887Y0139642D01*
G37*
G36*
X0165279Y0138250D02*
X0161940Y0134911D01*
X0161105Y0135746D01*
X0164444Y0139085D01*
X0165279Y0138250D01*
G37*
G36*
X0166671Y0136858D02*
X0163332Y0133519D01*
X0162497Y0134354D01*
X0165836Y0137693D01*
X0166671Y0136858D01*
G37*
G36*
X0168063Y0135466D02*
X0164724Y0132127D01*
X0163889Y0132962D01*
X0167228Y0136301D01*
X0168063Y0135466D01*
G37*
G36*
X0169455Y0134074D02*
X0166116Y0130735D01*
X0165281Y0131570D01*
X0168620Y0134909D01*
X0169455Y0134074D01*
G37*
G36*
X0170847Y0132682D02*
X0167508Y0129343D01*
X0166673Y0130178D01*
X0170012Y0133517D01*
X0170847Y0132682D01*
G37*
G36*
X0172239Y0131290D02*
X0168900Y0127951D01*
X0168065Y0128786D01*
X0171404Y0132125D01*
X0172239Y0131290D01*
G37*
G36*
X0180035Y0132125D02*
X0183374Y0128786D01*
X0182539Y0127951D01*
X0179200Y0131290D01*
X0180035Y0132125D01*
G37*
G36*
X0181427Y0133517D02*
X0184766Y0130178D01*
X0183931Y0129343D01*
X0180592Y0132682D01*
X0181427Y0133517D01*
G37*
G36*
X0182819Y0134909D02*
X0186158Y0131570D01*
X0185323Y0130735D01*
X0181984Y0134074D01*
X0182819Y0134909D01*
G37*
G36*
X0184211Y0136301D02*
X0187550Y0132962D01*
X0186715Y0132127D01*
X0183376Y0135466D01*
X0184211Y0136301D01*
G37*
G36*
X0185603Y0137693D02*
X0188942Y0134354D01*
X0188107Y0133519D01*
X0184768Y0136858D01*
X0185603Y0137693D01*
G37*
G36*
X0186995Y0139085D02*
X0190334Y0135746D01*
X0189499Y0134911D01*
X0186160Y0138250D01*
X0186995Y0139085D01*
G37*
G36*
X0188387Y0140477D02*
X0191726Y0137138D01*
X0190891Y0136303D01*
X0187552Y0139642D01*
X0188387Y0140477D01*
G37*
G36*
X0189779Y0141869D02*
X0193118Y0138530D01*
X0192283Y0137695D01*
X0188944Y0141034D01*
X0189779Y0141869D01*
G37*
G36*
X0191171Y0143261D02*
X0194510Y0139922D01*
X0193675Y0139087D01*
X0190336Y0142426D01*
X0191171Y0143261D01*
G37*
G36*
X0192563Y0144652D02*
X0195902Y0141313D01*
X0195067Y0140478D01*
X0191728Y0143817D01*
X0192563Y0144652D01*
G37*
G36*
X0193954Y0146044D02*
X0197293Y0142705D01*
X0196458Y0141870D01*
X0193119Y0145209D01*
X0193954Y0146044D01*
G37*
G36*
X0195346Y0147436D02*
X0198685Y0144097D01*
X0197850Y0143262D01*
X0194511Y0146601D01*
X0195346Y0147436D01*
G37*
G36*
X0196738Y0148828D02*
X0200077Y0145489D01*
X0199242Y0144654D01*
X0195903Y0147993D01*
X0196738Y0148828D01*
G37*
G36*
X0198130Y0150220D02*
X0201469Y0146881D01*
X0200634Y0146046D01*
X0197295Y0149385D01*
X0198130Y0150220D01*
G37*
G36*
X0199522Y0151612D02*
X0202861Y0148273D01*
X0202026Y0147438D01*
X0198687Y0150777D01*
X0199522Y0151612D01*
G37*
G36*
X0200914Y0153004D02*
X0204253Y0149665D01*
X0203418Y0148830D01*
X0200079Y0152169D01*
X0200914Y0153004D01*
G37*
G36*
X0202306Y0154396D02*
X0205645Y0151057D01*
X0204810Y0150222D01*
X0201471Y0153561D01*
X0202306Y0154396D01*
G37*
G36*
X0203698Y0155788D02*
X0207037Y0152449D01*
X0206202Y0151614D01*
X0202863Y0154953D01*
X0203698Y0155788D01*
G37*
G36*
X0205090Y0157180D02*
X0208429Y0153841D01*
X0207594Y0153006D01*
X0204255Y0156345D01*
X0205090Y0157180D01*
G37*
G36*
X0206482Y0158572D02*
X0209821Y0155233D01*
X0208986Y0154398D01*
X0205647Y0157737D01*
X0206482Y0158572D01*
G37*
G36*
X0207874Y0159964D02*
X0211213Y0156625D01*
X0210378Y0155790D01*
X0207039Y0159129D01*
X0207874Y0159964D01*
G37*
G36*
X0209266Y0161356D02*
X0212605Y0158017D01*
X0211770Y0157182D01*
X0208431Y0160521D01*
X0209266Y0161356D01*
G37*
G36*
X0210658Y0162748D02*
X0213997Y0159409D01*
X0213162Y0158574D01*
X0209823Y0161913D01*
X0210658Y0162748D01*
G37*
G36*
X0212050Y0164140D02*
X0215389Y0160801D01*
X0214554Y0159966D01*
X0211215Y0163305D01*
X0212050Y0164140D01*
G37*
G36*
X0213442Y0165532D02*
X0216781Y0162193D01*
X0215946Y0161358D01*
X0212607Y0164697D01*
X0213442Y0165532D01*
G37*
G36*
X0214834Y0166924D02*
X0218173Y0163585D01*
X0217338Y0162750D01*
X0213999Y0166089D01*
X0214834Y0166924D01*
G37*
G36*
X0216226Y0168316D02*
X0219565Y0164977D01*
X0218730Y0164142D01*
X0215391Y0167481D01*
X0216226Y0168316D01*
G37*
G36*
X0217618Y0169707D02*
X0220957Y0166368D01*
X0220122Y0165533D01*
X0216783Y0168872D01*
X0217618Y0169707D01*
G37*
G36*
X0219009Y0171099D02*
X0222348Y0167760D01*
X0221513Y0166925D01*
X0218174Y0170264D01*
X0219009Y0171099D01*
G37*
G36*
X0220401Y0172491D02*
X0223740Y0169152D01*
X0222905Y0168317D01*
X0219566Y0171656D01*
X0220401Y0172491D01*
G37*
G36*
X0221793Y0173883D02*
X0225132Y0170544D01*
X0224297Y0169709D01*
X0220958Y0173048D01*
X0221793Y0173883D01*
G37*
G36*
X0223185Y0175275D02*
X0226524Y0171936D01*
X0225689Y0171101D01*
X0222350Y0174440D01*
X0223185Y0175275D01*
G37*
G36*
X0224577Y0176667D02*
X0227916Y0173328D01*
X0227081Y0172493D01*
X0223742Y0175832D01*
X0224577Y0176667D01*
G37*
G36*
X0225969Y0178059D02*
X0229308Y0174720D01*
X0228473Y0173885D01*
X0225134Y0177224D01*
X0225969Y0178059D01*
G37*
G36*
X0227361Y0179451D02*
X0230700Y0176112D01*
X0229865Y0175277D01*
X0226526Y0178616D01*
X0227361Y0179451D01*
G37*
G36*
X0228753Y0180843D02*
X0232092Y0177504D01*
X0231257Y0176669D01*
X0227918Y0180008D01*
X0228753Y0180843D01*
G37*
G36*
X0230145Y0182235D02*
X0233484Y0178896D01*
X0232649Y0178061D01*
X0229310Y0181400D01*
X0230145Y0182235D01*
G37*
G36*
X0231537Y0183627D02*
X0234876Y0180288D01*
X0234041Y0179453D01*
X0230702Y0182792D01*
X0231537Y0183627D01*
G37*
G36*
X0232929Y0185019D02*
X0236268Y0181680D01*
X0235433Y0180845D01*
X0232094Y0184184D01*
X0232929Y0185019D01*
G37*
G36*
X0234321Y0186411D02*
X0237660Y0183072D01*
X0236825Y0182237D01*
X0233486Y0185576D01*
X0234321Y0186411D01*
G37*
G36*
X0235713Y0187803D02*
X0239052Y0184464D01*
X0238217Y0183629D01*
X0234878Y0186968D01*
X0235713Y0187803D01*
G37*
G36*
X0237105Y0189195D02*
X0240444Y0185856D01*
X0239609Y0185021D01*
X0236270Y0188360D01*
X0237105Y0189195D01*
G37*
G36*
X0238497Y0190587D02*
X0241836Y0187248D01*
X0241001Y0186413D01*
X0237662Y0189752D01*
X0238497Y0190587D01*
G37*
G36*
X0239889Y0191979D02*
X0243228Y0188640D01*
X0242393Y0187805D01*
X0239054Y0191144D01*
X0239889Y0191979D01*
G37*
G36*
X0239054Y0199775D02*
X0242393Y0203114D01*
X0243228Y0202279D01*
X0239889Y0198940D01*
X0239054Y0199775D01*
G37*
G36*
X0237662Y0201167D02*
X0241001Y0204506D01*
X0241836Y0203671D01*
X0238497Y0200332D01*
X0237662Y0201167D01*
G37*
G36*
X0236270Y0202559D02*
X0239609Y0205898D01*
X0240444Y0205063D01*
X0237105Y0201724D01*
X0236270Y0202559D01*
G37*
G36*
X0234878Y0203951D02*
X0238217Y0207290D01*
X0239052Y0206455D01*
X0235713Y0203116D01*
X0234878Y0203951D01*
G37*
G36*
X0233486Y0205343D02*
X0236825Y0208682D01*
X0237660Y0207847D01*
X0234321Y0204508D01*
X0233486Y0205343D01*
G37*
G36*
X0232094Y0206735D02*
X0235433Y0210074D01*
X0236268Y0209239D01*
X0232929Y0205900D01*
X0232094Y0206735D01*
G37*
G36*
X0230702Y0208127D02*
X0234041Y0211466D01*
X0234876Y0210631D01*
X0231537Y0207292D01*
X0230702Y0208127D01*
G37*
G36*
X0229310Y0209519D02*
X0232649Y0212858D01*
X0233484Y0212023D01*
X0230145Y0208684D01*
X0229310Y0209519D01*
G37*
G36*
X0227918Y0210911D02*
X0231257Y0214250D01*
X0232092Y0213415D01*
X0228753Y0210076D01*
X0227918Y0210911D01*
G37*
G36*
X0226526Y0212303D02*
X0229865Y0215642D01*
X0230700Y0214807D01*
X0227361Y0211468D01*
X0226526Y0212303D01*
G37*
G36*
X0225134Y0213695D02*
X0228473Y0217034D01*
X0229308Y0216199D01*
X0225969Y0212860D01*
X0225134Y0213695D01*
G37*
G36*
X0223742Y0215086D02*
X0227081Y0218425D01*
X0227916Y0217590D01*
X0224577Y0214251D01*
X0223742Y0215086D01*
G37*
G36*
X0222350Y0216478D02*
X0225689Y0219817D01*
X0226524Y0218982D01*
X0223185Y0215643D01*
X0222350Y0216478D01*
G37*
G36*
X0220958Y0217870D02*
X0224297Y0221209D01*
X0225132Y0220374D01*
X0221793Y0217035D01*
X0220958Y0217870D01*
G37*
G36*
X0219566Y0219262D02*
X0222905Y0222601D01*
X0223740Y0221766D01*
X0220401Y0218427D01*
X0219566Y0219262D01*
G37*
G36*
X0218174Y0220654D02*
X0221513Y0223993D01*
X0222348Y0223158D01*
X0219009Y0219819D01*
X0218174Y0220654D01*
G37*
G36*
X0216783Y0222046D02*
X0220122Y0225385D01*
X0220957Y0224550D01*
X0217618Y0221211D01*
X0216783Y0222046D01*
G37*
G36*
X0215391Y0223438D02*
X0218730Y0226777D01*
X0219565Y0225942D01*
X0216226Y0222603D01*
X0215391Y0223438D01*
G37*
G36*
X0213999Y0224830D02*
X0217338Y0228169D01*
X0218173Y0227334D01*
X0214834Y0223995D01*
X0213999Y0224830D01*
G37*
G36*
X0212607Y0226222D02*
X0215946Y0229561D01*
X0216781Y0228726D01*
X0213442Y0225387D01*
X0212607Y0226222D01*
G37*
G36*
X0211215Y0227614D02*
X0214554Y0230953D01*
X0215389Y0230118D01*
X0212050Y0226779D01*
X0211215Y0227614D01*
G37*
G36*
X0209823Y0229006D02*
X0213162Y0232345D01*
X0213997Y0231510D01*
X0210658Y0228171D01*
X0209823Y0229006D01*
G37*
G36*
X0208431Y0230398D02*
X0211770Y0233737D01*
X0212605Y0232902D01*
X0209266Y0229563D01*
X0208431Y0230398D01*
G37*
G36*
X0207039Y0231790D02*
X0210378Y0235129D01*
X0211213Y0234294D01*
X0207874Y0230955D01*
X0207039Y0231790D01*
G37*
G36*
X0205647Y0233182D02*
X0208986Y0236521D01*
X0209821Y0235686D01*
X0206482Y0232347D01*
X0205647Y0233182D01*
G37*
G36*
X0204255Y0234574D02*
X0207594Y0237913D01*
X0208429Y0237078D01*
X0205090Y0233739D01*
X0204255Y0234574D01*
G37*
G36*
X0202863Y0235966D02*
X0206202Y0239305D01*
X0207037Y0238470D01*
X0203698Y0235131D01*
X0202863Y0235966D01*
G37*
G36*
X0201471Y0237358D02*
X0204810Y0240697D01*
X0205645Y0239862D01*
X0202306Y0236523D01*
X0201471Y0237358D01*
G37*
G36*
X0200079Y0238749D02*
X0203418Y0242088D01*
X0204253Y0241253D01*
X0200914Y0237914D01*
X0200079Y0238749D01*
G37*
G36*
X0198687Y0240141D02*
X0202026Y0243480D01*
X0202861Y0242645D01*
X0199522Y0239306D01*
X0198687Y0240141D01*
G37*
G36*
X0197295Y0241533D02*
X0200634Y0244872D01*
X0201469Y0244037D01*
X0198130Y0240698D01*
X0197295Y0241533D01*
G37*
G36*
X0195903Y0242925D02*
X0199242Y0246264D01*
X0200077Y0245429D01*
X0196738Y0242090D01*
X0195903Y0242925D01*
G37*
G36*
X0194511Y0244317D02*
X0197850Y0247656D01*
X0198685Y0246821D01*
X0195346Y0243482D01*
X0194511Y0244317D01*
G37*
G36*
X0193119Y0245709D02*
X0196458Y0249048D01*
X0197293Y0248213D01*
X0193954Y0244874D01*
X0193119Y0245709D01*
G37*
G36*
X0191728Y0247101D02*
X0195067Y0250440D01*
X0195902Y0249605D01*
X0192563Y0246266D01*
X0191728Y0247101D01*
G37*
G36*
X0190336Y0248493D02*
X0193675Y0251832D01*
X0194510Y0250997D01*
X0191171Y0247658D01*
X0190336Y0248493D01*
G37*
G36*
X0188944Y0249885D02*
X0192283Y0253224D01*
X0193118Y0252389D01*
X0189779Y0249050D01*
X0188944Y0249885D01*
G37*
G36*
X0187552Y0251277D02*
X0190891Y0254616D01*
X0191726Y0253781D01*
X0188387Y0250442D01*
X0187552Y0251277D01*
G37*
G36*
X0186160Y0252669D02*
X0189499Y0256008D01*
X0190334Y0255173D01*
X0186995Y0251834D01*
X0186160Y0252669D01*
G37*
G36*
X0184768Y0254061D02*
X0188107Y0257400D01*
X0188942Y0256565D01*
X0185603Y0253226D01*
X0184768Y0254061D01*
G37*
G36*
X0183376Y0255453D02*
X0186715Y0258792D01*
X0187550Y0257957D01*
X0184211Y0254618D01*
X0183376Y0255453D01*
G37*
G36*
X0181984Y0256845D02*
X0185323Y0260184D01*
X0186158Y0259349D01*
X0182819Y0256010D01*
X0181984Y0256845D01*
G37*
G36*
X0180592Y0258237D02*
X0183931Y0261576D01*
X0184766Y0260741D01*
X0181427Y0257402D01*
X0180592Y0258237D01*
G37*
G36*
X0179200Y0259629D02*
X0182539Y0262968D01*
X0183374Y0262133D01*
X0180035Y0258794D01*
X0179200Y0259629D01*
G37*
D29*
X0263475Y0108058D03*
X0268475Y0108058D03*
X0273475Y0108058D03*
X0278475Y0108058D03*
X0283475Y0108058D03*
X0288475Y0108058D03*
X0293475Y0108058D03*
X0308751Y0108058D03*
X0313751Y0108058D03*
X0318751Y0108058D03*
X0323751Y0108058D03*
X0328751Y0108058D03*
X0333751Y0108058D03*
X0338751Y0108058D03*
X0338751Y0087585D03*
X0333751Y0087585D03*
X0328751Y0087585D03*
X0323751Y0087585D03*
X0318751Y0087585D03*
X0313751Y0087585D03*
X0308751Y0087585D03*
X0293475Y0087585D03*
X0288475Y0087585D03*
X0283475Y0087585D03*
X0278475Y0087585D03*
X0273475Y0087585D03*
X0268475Y0087585D03*
X0263475Y0087585D03*
D30*
X0262137Y0024003D03*
X0232215Y0024003D03*
X0202294Y0024003D03*
X0172570Y0024199D03*
X0142255Y0024003D03*
X0107215Y0024003D03*
X0359381Y0024003D03*
X0399341Y0024003D03*
X0434184Y0024003D03*
X0469223Y0024003D03*
X0504263Y0024003D03*
D31*
X0096192Y0024199D03*
X0097767Y0024199D03*
X0099341Y0024199D03*
X0100916Y0024199D03*
X0102491Y0024199D03*
X0104066Y0024199D03*
X0105641Y0024199D03*
X0131231Y0024199D03*
X0132806Y0024199D03*
X0134381Y0024199D03*
X0135956Y0024199D03*
X0137530Y0024199D03*
X0139105Y0024199D03*
X0140680Y0024199D03*
X0161546Y0024396D03*
X0163121Y0024396D03*
X0164696Y0024396D03*
X0166270Y0024396D03*
X0167845Y0024396D03*
X0169420Y0024396D03*
X0170995Y0024396D03*
X0191270Y0024199D03*
X0192845Y0024199D03*
X0194420Y0024199D03*
X0195995Y0024199D03*
X0197570Y0024199D03*
X0199144Y0024199D03*
X0200719Y0024199D03*
X0221192Y0024199D03*
X0222767Y0024199D03*
X0224341Y0024199D03*
X0225916Y0024199D03*
X0227491Y0024199D03*
X0229066Y0024199D03*
X0230641Y0024199D03*
X0251113Y0024199D03*
X0252688Y0024199D03*
X0254263Y0024199D03*
X0255837Y0024199D03*
X0257412Y0024199D03*
X0258987Y0024199D03*
X0260562Y0024199D03*
X0348357Y0024199D03*
X0349932Y0024199D03*
X0351507Y0024199D03*
X0353081Y0024199D03*
X0354656Y0024199D03*
X0356231Y0024199D03*
X0357806Y0024199D03*
X0388318Y0024199D03*
X0389893Y0024199D03*
X0391467Y0024199D03*
X0393042Y0024199D03*
X0394617Y0024199D03*
X0396192Y0024199D03*
X0397767Y0024199D03*
X0423160Y0024199D03*
X0424735Y0024199D03*
X0426310Y0024199D03*
X0427885Y0024199D03*
X0429459Y0024199D03*
X0431034Y0024199D03*
X0432609Y0024199D03*
X0458200Y0024199D03*
X0459774Y0024199D03*
X0461349Y0024199D03*
X0462924Y0024199D03*
X0464499Y0024199D03*
X0466074Y0024199D03*
X0467648Y0024199D03*
X0493239Y0024199D03*
X0494814Y0024199D03*
X0496389Y0024199D03*
X0497963Y0024199D03*
X0499538Y0024199D03*
X0501113Y0024199D03*
X0502688Y0024199D03*
D32*
X0501093Y0021542D03*
X0496408Y0021542D03*
X0466054Y0021542D03*
X0461369Y0021542D03*
X0431015Y0021542D03*
X0426330Y0021542D03*
X0396172Y0021542D03*
X0391487Y0021542D03*
X0356211Y0021542D03*
X0351526Y0021542D03*
X0258967Y0021542D03*
X0254282Y0021542D03*
X0229046Y0021542D03*
X0224361Y0021542D03*
X0199125Y0021542D03*
X0194440Y0021542D03*
X0169400Y0021739D03*
X0164715Y0021739D03*
X0139085Y0021542D03*
X0134400Y0021542D03*
X0104046Y0021542D03*
X0099361Y0021542D03*
D33*
X0358790Y0252940D03*
X0370601Y0252940D03*
X0370601Y0262388D03*
X0370601Y0271837D03*
X0358790Y0271837D03*
X0358790Y0262388D03*
X0300522Y0296247D03*
X0300522Y0305696D03*
X0288711Y0305696D03*
X0288711Y0296247D03*
X0244617Y0309633D03*
X0232806Y0309633D03*
D34*
X0320995Y0295066D03*
X0329656Y0295066D03*
X0281428Y0238766D03*
X0272767Y0238766D03*
D35*
X0287530Y0238963D03*
X0297767Y0238963D03*
X0297767Y0242703D03*
X0297767Y0246444D03*
X0287530Y0246444D03*
D36*
X0262117Y0307310D03*
X0258574Y0307310D03*
X0258574Y0312034D03*
X0262117Y0312034D03*
D37*
X0267845Y0310912D03*
X0267845Y0308353D03*
X0267845Y0305794D03*
X0267845Y0313471D03*
D38*
X0256310Y0313471D03*
X0256310Y0310912D03*
X0256310Y0308353D03*
X0256310Y0305794D03*
D39*
X0372176Y0122625D03*
X0374144Y0122625D03*
X0376113Y0122625D03*
X0378081Y0122625D03*
X0380050Y0122625D03*
X0380050Y0105302D03*
X0378081Y0105302D03*
X0376113Y0105302D03*
X0374144Y0105302D03*
X0372176Y0105302D03*
D40*
G36*
X0251342Y0144051D02*
X0255238Y0140155D01*
X0251898Y0136815D01*
X0248002Y0140711D01*
X0251342Y0144051D01*
G37*
G36*
X0245774Y0142939D02*
X0241878Y0146835D01*
X0245218Y0150175D01*
X0249114Y0146279D01*
X0245774Y0142939D01*
G37*
G36*
X0241041Y0138207D02*
X0237145Y0142103D01*
X0240485Y0145443D01*
X0244381Y0141547D01*
X0241041Y0138207D01*
G37*
G36*
X0246610Y0139318D02*
X0250506Y0135422D01*
X0247166Y0132082D01*
X0243270Y0135978D01*
X0246610Y0139318D01*
G37*
G36*
X0233224Y0152704D02*
X0237120Y0148808D01*
X0233780Y0145468D01*
X0229884Y0149364D01*
X0233224Y0152704D01*
G37*
G36*
X0237956Y0157436D02*
X0241852Y0153540D01*
X0238512Y0150200D01*
X0234616Y0154096D01*
X0237956Y0157436D01*
G37*
G36*
X0232388Y0156325D02*
X0228492Y0160221D01*
X0231832Y0163561D01*
X0235728Y0159665D01*
X0232388Y0156325D01*
G37*
G36*
X0227655Y0151592D02*
X0223759Y0155488D01*
X0227099Y0158828D01*
X0230995Y0154932D01*
X0227655Y0151592D01*
G37*
D41*
X0298160Y0196050D03*
X0298160Y0203530D03*
X0308396Y0203530D03*
X0308396Y0199790D03*
X0308396Y0196050D03*
X0126113Y0329908D03*
X0126113Y0337388D03*
X0115877Y0337388D03*
X0115877Y0333648D03*
X0115877Y0329908D03*
D42*
X0353475Y0146247D03*
X0357215Y0146247D03*
X0360956Y0146247D03*
X0360956Y0136010D03*
X0353475Y0136010D03*
D43*
X0008200Y0127152D03*
X0008200Y0157073D03*
X0008200Y0187192D03*
X0008200Y0217113D03*
X0008200Y0251759D03*
X0008200Y0097034D03*
D44*
X0008396Y0098609D03*
X0008396Y0100184D03*
X0008396Y0101759D03*
X0008396Y0103333D03*
X0008396Y0104908D03*
X0008396Y0106483D03*
X0008396Y0108058D03*
X0008396Y0128727D03*
X0008396Y0130302D03*
X0008396Y0131877D03*
X0008396Y0133451D03*
X0008396Y0135026D03*
X0008396Y0136601D03*
X0008396Y0138176D03*
X0008396Y0158648D03*
X0008396Y0160223D03*
X0008396Y0161798D03*
X0008396Y0163373D03*
X0008396Y0164948D03*
X0008396Y0166522D03*
X0008396Y0168097D03*
X0008396Y0188766D03*
X0008396Y0190341D03*
X0008396Y0191916D03*
X0008396Y0193491D03*
X0008396Y0195066D03*
X0008396Y0196640D03*
X0008396Y0198215D03*
X0008396Y0218688D03*
X0008396Y0220262D03*
X0008396Y0221837D03*
X0008396Y0223412D03*
X0008396Y0224987D03*
X0008396Y0226562D03*
X0008396Y0228136D03*
X0008396Y0253333D03*
X0008396Y0254908D03*
X0008396Y0256483D03*
X0008396Y0258058D03*
X0008396Y0259633D03*
X0008396Y0261207D03*
X0008396Y0262782D03*
D45*
X0005739Y0259613D03*
X0005739Y0254928D03*
X0005739Y0224967D03*
X0005739Y0220282D03*
X0005739Y0195046D03*
X0005739Y0190361D03*
X0005739Y0164928D03*
X0005739Y0160243D03*
X0005739Y0135007D03*
X0005739Y0130322D03*
X0005739Y0104888D03*
X0005739Y0100203D03*
D46*
X0485739Y0221089D03*
X0490739Y0221089D03*
X0495739Y0221089D03*
X0500739Y0221089D03*
X0500739Y0241089D03*
X0495739Y0241089D03*
X0490739Y0241089D03*
X0485739Y0241089D03*
D47*
X0486152Y0249199D03*
X0482412Y0257073D03*
X0489893Y0257073D03*
X0474144Y0257073D03*
X0466664Y0257073D03*
X0458396Y0257073D03*
X0450916Y0257073D03*
X0454656Y0249199D03*
X0470404Y0249199D03*
X0116467Y0380499D03*
X0108987Y0380499D03*
X0112727Y0372625D03*
D48*
X0263908Y0211404D03*
X0266467Y0211404D03*
X0269026Y0211404D03*
X0269026Y0203924D03*
X0266467Y0203924D03*
X0263908Y0203924D03*
D49*
X0457215Y0237388D03*
X0468239Y0237388D03*
D50*
X0489302Y0286404D03*
X0505837Y0286404D03*
X0505837Y0303333D03*
X0489302Y0303333D03*
D51*
X0169426Y0359976D02*
X0168312Y0361090D01*
X0169426Y0359976D02*
X0167896Y0358446D01*
X0166782Y0359560D01*
X0168312Y0361090D01*
X0169382Y0360020D02*
X0167242Y0360020D01*
X0164972Y0364430D02*
X0163858Y0365544D01*
X0164972Y0364430D02*
X0163442Y0362900D01*
X0162328Y0364014D01*
X0163858Y0365544D01*
X0164928Y0364474D02*
X0162788Y0364474D01*
D52*
X0549932Y0259790D03*
X0549932Y0254790D03*
X0549932Y0249790D03*
X0549932Y0244790D03*
X0549932Y0239790D03*
X0565286Y0239790D03*
X0565286Y0244790D03*
X0565286Y0249790D03*
X0565286Y0254790D03*
X0565286Y0259790D03*
D53*
X0332294Y0274593D02*
X0330011Y0274593D01*
X0330011Y0276562D02*
X0332294Y0276562D01*
X0332294Y0278530D02*
X0330011Y0278530D01*
X0330011Y0280499D02*
X0332294Y0280499D01*
X0332294Y0282467D02*
X0330011Y0282467D01*
X0320641Y0282467D02*
X0318357Y0282467D01*
X0318357Y0280499D02*
X0320641Y0280499D01*
X0320641Y0278530D02*
X0318357Y0278530D01*
X0318357Y0276562D02*
X0320641Y0276562D01*
X0320641Y0274593D02*
X0318357Y0274593D01*
D54*
X0323652Y0276365D03*
X0326999Y0276365D03*
X0326999Y0280696D03*
X0323652Y0280696D03*
D55*
X0322963Y0284278D03*
X0324538Y0284278D03*
X0326113Y0284278D03*
X0327688Y0284278D03*
X0327688Y0272782D03*
X0326113Y0272782D03*
X0324538Y0272782D03*
X0322963Y0272782D03*
D56*
X0380444Y0319672D03*
X0380444Y0325577D03*
X0396192Y0325577D03*
X0396192Y0319672D03*
X0411940Y0319672D03*
X0411940Y0325577D03*
X0427688Y0325577D03*
X0427688Y0319672D03*
X0443436Y0319672D03*
X0443436Y0325577D03*
X0459184Y0325577D03*
X0459184Y0319672D03*
D57*
X0404263Y0354810D03*
X0395995Y0354810D03*
X0395995Y0366818D03*
X0404263Y0366818D03*
D58*
X0400129Y0366818D03*
X0400129Y0354810D03*
M02*
