%
M48
M72
T01C0.0098
T02C0.0100
T03C0.0236
T04C0.0315
T05C0.0330
T06C0.0394
T07C0.0400
T08C0.0600
T09C0.0876
T10C0.0935
T11C0.0945
T12C0.1250
%
T01
X19285Y20579
X18911Y23099
X18773Y24398
X18044Y24634
X18084Y25402
X18694Y25736
X21036Y24536
X23005Y25461
X18655Y27843
X14796Y26721
X14245Y27272
X13615Y27272
X12946Y27862
X12592Y27882
X10800Y26406
X12867Y24024
X13418Y24004
X13989Y24004
X14186Y24536
X14639Y24555
X15918Y23670
X16450Y23355
X7513Y30362
X7710Y32548
X8891Y34457
X12710Y32252
X13330Y31258
X15033Y33374
X18261Y31898
X18635Y32685
X19599Y34122
X20662Y34162
X13596Y37902
X19383Y40796
X22848Y39378
X29383Y38315
X32926Y42725
X31214Y43000
X31371Y43630
X31292Y44221
X32355Y44398
X32533Y44654
X32710Y44910
X32355Y44910
X32710Y44398
X33950Y44457
X33950Y44221
X35269Y44457
X37651Y44614
X40210Y44536
X43517Y47036
X42769Y47370
X40800Y47725
X41194Y49733
X44344Y49673
X45170Y47567
X45249Y46780
X44422Y46189
X47099Y46937
X47769Y45992
X45446Y52134
X45092Y54260
X37848Y54772
X37178Y54929
X34344Y52252
X33359Y52252
X35485Y50992
X37651Y51583
X37198Y41209
X36942Y37528
X30525Y26268
X6332Y41445
X13044Y52607
T02
X505Y18906
X3911Y18906
X7848Y18906
X10859Y20205
X11194Y20185
X11785Y18906
X13182Y20402
X14088Y20362
X15722Y18906
X16509Y20303
X16863Y20323
X17178Y20441
X18182Y20658
X17139Y21465
X17395Y23492
X17985Y23414
X18458Y23985
X18753Y24004
X19599Y24693
X20033Y24595
X20348Y25028
X20111Y25166
X20662Y25303
X20800Y24654
X21332Y25205
X21942Y25422
X22119Y26071
X21903Y26425
X21411Y26130
X21115Y25855
X20288Y26091
X19895Y26071
X19324Y25855
X19501Y25323
X19088Y25303
X17690Y25540
X17355Y25107
X17119Y25225
X17336Y24713
X17592Y24654
X17159Y24496
X16863Y24536
X16686Y24240
X16529Y25048
X16509Y25697
X16824Y26032
X17533Y26721
X17966Y26366
X16785Y27055
X17119Y27331
X16725Y27764
X15977Y27725
X15800Y27488
X15564Y27292
X16214Y26878
X15170Y26130
X15190Y25855
X15308Y24929
X15584Y24929
X14934Y24555
X15682Y23985
X15111Y23414
X14481Y23453
X13084Y24359
X12355Y23453
X11686Y23453
X10328Y24339
X10052Y24103
X9737Y24437
X9560Y24988
X9777Y25185
X11391Y24654
X12060Y25796
X12336Y25677
X12966Y26327
X11981Y27154
X11725Y27154
X10210Y27036
X9718Y27410
X9718Y27922
X9225Y28709
X9599Y28906
X9462Y29201
X9698Y29516
X11391Y28985
X11391Y30087
X11391Y30855
X12729Y30461
X13162Y31485
X13399Y31740
X13773Y31504
X13930Y31268
X14265Y31170
X14462Y30992
X15367Y30638
X15603Y30520
X15131Y30244
X15840Y29851
X15997Y30048
X16194Y29713
X16233Y29339
X16863Y29378
X17119Y28473
X17651Y28374
X18635Y28177
X19068Y27725
X18497Y29299
X18556Y29654
X18891Y29398
X19127Y29811
X18970Y30048
X19708Y30451
X19727Y30707
X20722Y30579
X20741Y30835
X20741Y30067
X20722Y29221
X21745Y29634
X22159Y29418
X22198Y28925
X21785Y28473
X21233Y27902
X20781Y27095
X22355Y27882
X22729Y27685
X24029Y27922
X24048Y28512
X23418Y28374
X23005Y28985
X23005Y29457
X23143Y30008
X24068Y29851
X24068Y29496
X24914Y28610
X25407Y28118
X25702Y27154
X24855Y27055
X24422Y26701
X25348Y26032
X25564Y25461
X26351Y24870
X26568Y24240
X25151Y23788
X24796Y23729
X24599Y24240
X24225Y24614
X23930Y24969
X23379Y24673
X23281Y25205
X22848Y26051
X22513Y25835
X21745Y24063
X21292Y23985
X20623Y23374
X20033Y23374
X23418Y23296
X24127Y23453
X25151Y23118
X26135Y23158
X25997Y21544
X25151Y21386
X23596Y18906
X27533Y18906
X30485Y21425
X28182Y23099
X28596Y24339
X28930Y24339
X27926Y24614
X27277Y26268
X26844Y26996
X25899Y26425
X30072Y27036
X31627Y27016
X31627Y26268
X32375Y27016
X32985Y26898
X33359Y26189
X34560Y25677
X34737Y25225
X35190Y26091
X35722Y25894
X35977Y26288
X36588Y26229
X36489Y25855
X37454Y25422
X37887Y25796
X38359Y25796
X39245Y25441
X39659Y25481
X39304Y26071
X39127Y26603
X39977Y26225
X40840Y26524
X40840Y27036
X41332Y26898
X40111Y27331
X40111Y27784
X39954Y29181
X40603Y29299
X40879Y30166
X40111Y30973
X38812Y31485
X38517Y31268
X39048Y32095
X39481Y33138
X38812Y33512
X38517Y33394
X37867Y33138
X37651Y33709
X37651Y34024
X37946Y33925
X37257Y33709
X36785Y33158
X36785Y32882
X36785Y32607
X36509Y32095
X36627Y31622
X36627Y31229
X37690Y30422
X37690Y30185
X37414Y29733
X37178Y29595
X37670Y29614
X38123Y29595
X38399Y29595
X38359Y29162
X35170Y29516
X35170Y29870
X34580Y29654
X34934Y29083
X34934Y28748
X34934Y28256
X34934Y27902
X35367Y27528
X35741Y24673
X36076Y24693
X36430Y24654
X36824Y24733
X37099Y24614
X37710Y24673
X37454Y23985
X36962Y23335
X36292Y23374
X34127Y23729
X33458Y23138
X32907Y24240
X31903Y24024
X31391Y23985
X31391Y24929
X31903Y24890
X29993Y25107
X30426Y28177
X31056Y29595
X32985Y29634
X33005Y31386
X31135Y31347
X31096Y32744
X33005Y32764
X33753Y33492
X34245Y33492
X34225Y33059
X34698Y33059
X34934Y33335
X35111Y32764
X35111Y32469
X35348Y32193
X35348Y31878
X34481Y32626
X35603Y33315
X36332Y33276
X39619Y34378
X40151Y35048
X40485Y35422
X40899Y34477
X40859Y33650
X40485Y33709
X40859Y33138
X42887Y32213
X43989Y32154
X45879Y31740
X46312Y32646
X46804Y32213
X47178Y32607
X47592Y33158
X47139Y33670
X46135Y33847
X46351Y35008
X46804Y35028
X47552Y35422
X48123Y35461
X48596Y35048
X49855Y34988
X51155Y34949
X50682Y35914
X52552Y36307
X53005Y36110
X52572Y35520
X52907Y38177
X54599Y38492
X57218Y40756
X59029Y40008
X54993Y43158
X54481Y43315
X53418Y41996
X50328Y42272
X47395Y41721
X47572Y40559
X47513Y39673
X47040Y39457
X45879Y39693
X45111Y40146
X45111Y40540
X45111Y40953
X44639Y38099
X43202Y37666
X42670Y38099
X40702Y38099
X38930Y38099
X37592Y37567
X36745Y36583
X35544Y36603
X34698Y35422
X34363Y35461
X33753Y35461
X33241Y36662
X32355Y37469
X32040Y37469
X31725Y37469
X31529Y37154
X31253Y37154
X31135Y38610
X31411Y38610
X30859Y38610
X30544Y38610
X30269Y38610
X29993Y38610
X29560Y38807
X29836Y39201
X29048Y38453
X29048Y38138
X28812Y37862
X28812Y37587
X28497Y37587
X28497Y37862
X28182Y37862
X28182Y37587
X27788Y37862
X27434Y37862
X26647Y38256
X26666Y39634
X25466Y39418
X25466Y39162
X25151Y39083
X23714Y39457
X23123Y39299
X22336Y39457
X23103Y40166
X22651Y40362
X21922Y40796
X21332Y40736
X19895Y40481
X19442Y40087
X20111Y39870
X20229Y39595
X20367Y39339
X20662Y39536
X19678Y39378
X19718Y38709
X20525Y38315
X20544Y37272
X22099Y37666
X22434Y37843
X22710Y37292
X22513Y37134
X22316Y37134
X22592Y36504
X23241Y35914
X23615Y35973
X24344Y35894
X24718Y35658
X24580Y35362
X24836Y35146
X25210Y34811
X25426Y34772
X25544Y35185
X25820Y34988
X25722Y35638
X25800Y35933
X24914Y35953
X24698Y36760
X25249Y36721
X24521Y37548
X24540Y38079
X24265Y38276
X23517Y38532
X21942Y38355
X22985Y37292
X22513Y35579
X22198Y35579
X21706Y35835
X22848Y35343
X24029Y34851
X23891Y33473
X23655Y33177
X23517Y33532
X23123Y33610
X22907Y33925
X22198Y33059
X21922Y32252
X21765Y31996
X20918Y31780
X19324Y31721
X18753Y31859
X18320Y31425
X18536Y31071
X18222Y30776
X17690Y31681
X17178Y32410
X16686Y32370
X16036Y32488
X15958Y32095
X15466Y32488
X15288Y32252
X14796Y33118
X14836Y33630
X14166Y33650
X13832Y34004
X14009Y34221
X14265Y34398
X13950Y34536
X13517Y34339
X13320Y34181
X12474Y33630
X12316Y33453
X12178Y33650
X11548Y33650
X11430Y33906
X11017Y33807
X10977Y34083
X10722Y34536
X10525Y34772
X10328Y35048
X9383Y35146
X9088Y36209
X8851Y36504
X8556Y36504
X8281Y36504
X8281Y36799
X9029Y36799
X9206Y37410
X9285Y37705
X9718Y37292
X9678Y36642
X10072Y36465
X12237Y37292
X12867Y38138
X13162Y38394
X13615Y38315
X13615Y38847
X14265Y38965
X14324Y38670
X14442Y39614
X13655Y40205
X13497Y40402
X13615Y40658
X14029Y40579
X14344Y40933
X14659Y41248
X14068Y41544
X14481Y42055
X14678Y42292
X13694Y42764
X13477Y42567
X13182Y41977
X13143Y41721
X13025Y41485
X12631Y41622
X12631Y41898
X11076Y41839
X10564Y41957
X10111Y42095
X9875Y42213
X9265Y43079
X9265Y44929
X9245Y45540
X9914Y45067
X10111Y45323
X10564Y45067
X11096Y44870
X12375Y44733
X12729Y44457
X12848Y44221
X13241Y43610
X13930Y43945
X14166Y44162
X13655Y44654
X13477Y45540
X12828Y45638
X12474Y45638
X11981Y46583
X11706Y47016
X10879Y48158
X10623Y48768
X10584Y49792
X10584Y50146
X10977Y49792
X10210Y50559
X10466Y51012
X10722Y52036
X11115Y52055
X11607Y52055
X11962Y52055
X12316Y52548
X13832Y53335
X13635Y53886
X12729Y54260
X12336Y55756
X14206Y55756
X14206Y54949
X14698Y54181
X14934Y53512
X15407Y53512
X15761Y53512
X16076Y53532
X17907Y53158
X17907Y52311
X18162Y51977
X18596Y51583
X17848Y51307
X17611Y51071
X17375Y51189
X17414Y50599
X17710Y50618
X16312Y50914
X16312Y51307
X15918Y51307
X15918Y50914
X14816Y50953
X14816Y50481
X14068Y50205
X14324Y49575
X13832Y49555
X13418Y49555
X13792Y48925
X13241Y48158
X14088Y47626
X15525Y48158
X15840Y48315
X15407Y49536
X17021Y49614
X14678Y51504
X14796Y51957
X15485Y52429
X15820Y52429
X17001Y52390
X18162Y54103
X18694Y54280
X19048Y53965
X19324Y54359
X19757Y54359
X20052Y53158
X19619Y52449
X19147Y52449
X19974Y50441
X20367Y49693
X20918Y49339
X20918Y48748
X21155Y48315
X22237Y46327
X23497Y46327
X25505Y44870
X27001Y45382
X27218Y45599
X27533Y45520
X27828Y45855
X27414Y46051
X27985Y48020
X27670Y48099
X27237Y48256
X27237Y48689
X26765Y48689
X28044Y48414
X28399Y48492
X30092Y47941
X30525Y47626
X30525Y47370
X30525Y47095
X30525Y46740
X30525Y46425
X30525Y46150
X30741Y46012
X31036Y46012
X31233Y45658
X31489Y45658
X33477Y45835
X33753Y45835
X33950Y46268
X34245Y46268
X34540Y46268
X34855Y46268
X35131Y46268
X35426Y46268
X36588Y45992
X36942Y46366
X37848Y45323
X37533Y44280
X37533Y43985
X37533Y43650
X37533Y43276
X37533Y42941
X37533Y42449
X37533Y42134
X37533Y41819
X33733Y38355
X30544Y35618
X30013Y35717
X29816Y35992
X29619Y35717
X29344Y36209
X29107Y36209
X28517Y35835
X27926Y36425
X27946Y37114
X29088Y37272
X29403Y37272
X26588Y36878
X29639Y34004
X29206Y33571
X27611Y32213
X26391Y32292
X26194Y32016
X25958Y31819
X25840Y32370
X25682Y33158
X25603Y33512
X25840Y33709
X24974Y32823
X24836Y32410
X24029Y31740
X23123Y31150
X22966Y31366
X21883Y30638
X25348Y29969
X25722Y30422
X25446Y31425
X26351Y31307
X27513Y30402
X28123Y29319
X29560Y31583
X21765Y34142
X21706Y34516
X21371Y34162
X20977Y34240
X20662Y33847
X20466Y33630
X20958Y33394
X21036Y33670
X20761Y33118
X19639Y33079
X18438Y33847
X18773Y34221
X18182Y34418
X17966Y34595
X17592Y34201
X17788Y34024
X17336Y34969
X17474Y35677
X18379Y35677
X19403Y35559
X18182Y36819
X17474Y37882
X18162Y38453
X18635Y38906
X18812Y39162
X19068Y38059
X19265Y37803
X15761Y36937
X15485Y36662
X15190Y36327
X14540Y35992
X14225Y36248
X14285Y36701
X14147Y36937
X14678Y37114
X14501Y37646
X15288Y37528
X13379Y36701
X13300Y35717
X13359Y35402
X12375Y35638
X12178Y35284
X14659Y34929
X14816Y35166
X14737Y35559
X15052Y34733
X16548Y35717
X16686Y33355
X17493Y33355
X18182Y33079
X16568Y31288
X16135Y31366
X16824Y30855
X15111Y29555
X14639Y29103
X14639Y28591
X14678Y27567
X10544Y26071
X8596Y26544
X8241Y26229
X7710Y26071
X7375Y26091
X6529Y25540
X6529Y24988
X7375Y24595
X7710Y24713
X8517Y23748
X7808Y27488
X7808Y27922
X6214Y29319
X6253Y29910
X4934Y29949
X5052Y29299
X505Y30717
X4599Y32941
X5072Y32272
X6214Y32272
X6214Y32941
X6253Y35107
X6253Y35658
X4442Y36051
X4363Y35264
X505Y34654
X505Y38591
X4875Y38650
X4875Y39359
X6253Y39319
X6253Y38729
X4993Y41327
X4678Y41957
X6214Y41918
X10387Y39260
X10643Y39496
X10997Y39713
X12848Y40362
X12395Y38985
X12099Y38827
X11706Y38745
X10603Y38217
X10387Y38217
X15958Y40894
X16450Y41209
X16706Y41347
X16903Y41622
X17099Y41819
X16863Y41937
X17139Y41465
X17099Y41170
X16411Y41544
X17729Y42075
X17769Y42390
X17375Y42607
X17926Y43040
X17769Y43433
X16903Y43551
X16666Y43551
X15170Y43610
X18182Y44910
X18576Y44693
X18851Y44673
X19068Y45087
X18773Y45402
X17907Y45855
X18596Y46583
X18162Y47055
X19855Y45205
X20859Y43768
X21096Y43768
X21056Y42626
X21509Y42173
X20407Y42252
X20151Y41859
X18497Y41799
X18379Y41406
X18261Y42173
X18871Y43118
X19029Y43276
X18911Y43571
X14540Y46170
X12198Y48689
X11922Y48689
X8911Y46622
X7887Y46622
X6863Y46622
X5702Y47036
X6548Y45579
X7178Y45638
X5111Y48492
X7887Y50284
X8241Y50638
X8399Y51032
X8812Y51170
X7533Y51071
X7060Y51110
X6548Y51071
X5072Y51760
X4974Y52725
X8162Y53433
X8773Y52626
X9166Y52626
X10348Y52528
X8399Y55756
X4462Y55756
X525Y55756
X505Y54339
X505Y50402
X505Y46465
X505Y42528
X9363Y33985
X10525Y33079
X11588Y33197
X11903Y32843
X12021Y32292
X12572Y32725
X13596Y32233
X12021Y31583
X10741Y31721
X9363Y31898
X505Y26780
X505Y22843
X19659Y18906
X31470Y18906
X35407Y18906
X39344Y18906
X43281Y18906
X47218Y18906
X48536Y20402
X48851Y21386
X49639Y23099
X50111Y23374
X50761Y24024
X50407Y24575
X50741Y24792
X49580Y24595
X49285Y24792
X48458Y23886
X46804Y23138
X46056Y23217
X44796Y23374
X43379Y23453
X42788Y23256
X42651Y22941
X41568Y23020
X40190Y23335
X39521Y23335
X38989Y24024
X39265Y24614
X39698Y24654
X39970Y24673
X40367Y24654
X40682Y23985
X41411Y24713
X42139Y25323
X42611Y24575
X42938Y24697
X43241Y24733
X43674Y24693
X44324Y24831
X45485Y24614
X46351Y24713
X46273Y25008
X46312Y25481
X46804Y24792
X47218Y25677
X46981Y26110
X46824Y26504
X46548Y26701
X45997Y26268
X45328Y26859
X44993Y26878
X45899Y27666
X47001Y28296
X46312Y28571
X46253Y29142
X46863Y29693
X47572Y30185
X48635Y30638
X47572Y31386
X49501Y32154
X50662Y32154
X52690Y31150
X53005Y31366
X53517Y32213
X50466Y29260
X50643Y27744
X51036Y26504
X51863Y26150
X52296Y26898
X53005Y26839
X53517Y25874
X53281Y25244
X52257Y25008
X48320Y26937
X47926Y26918
X47454Y26307
X43950Y27744
X43891Y27252
X43674Y26740
X43359Y26544
X43044Y26386
X42887Y27744
X43655Y29752
X44462Y30520
X43970Y30894
X43714Y31465
X42769Y31268
X42867Y30894
X44796Y31091
X41627Y30992
X41981Y35107
X42611Y35736
X43202Y35107
X43733Y34654
X44462Y34969
X44009Y35500
X47237Y37173
X47552Y37055
X47533Y37449
X48064Y37390
X46489Y38256
X50544Y38630
X50662Y38138
X59029Y36071
X59029Y32134
X52749Y28768
X53320Y27803
X59029Y28197
X59029Y24260
X59029Y20323
X59029Y18906
X55092Y18906
X51155Y18906
X42139Y24024
X38576Y23059
X24068Y40225
X25918Y41544
X25485Y41740
X25682Y41957
X27474Y43256
X28694Y43532
X29225Y42784
X28241Y41701
X30288Y41445
X30584Y41445
X30781Y41130
X32119Y42193
X30879Y50796
X30485Y50796
X30092Y50796
X32533Y51425
X32533Y52055
X32533Y52646
X34659Y51898
X29403Y53374
X27946Y52902
X27631Y52902
X27021Y54457
X28084Y55756
X24147Y55756
X20210Y55756
X18812Y55776
X21725Y51799
X21725Y51563
X35958Y55756
X39895Y55756
X43832Y55756
X45544Y53847
X47769Y55756
X51706Y55756
X55643Y55756
X59029Y55756
X59029Y51819
X59029Y47882
X53458Y46170
X50977Y45422
X48359Y44752
X59029Y43945
X53418Y51839
X53025Y53020
X17533Y40441
T03
X14324Y43217
X11096Y38591
X8655Y36819
X7336Y36740
X14186Y28748
X18911Y28670
X18596Y26642
X30367Y25559
X32375Y24614
X35210Y23650
X34875Y19437
X40092Y28315
X40662Y28315
X36509Y29772
X34580Y31878
X33812Y31071
X39914Y31740
X39914Y32272
X46135Y31032
X46863Y31130
X49914Y24792
X32060Y35717
X33812Y36918
X33832Y37528
X34186Y36189
X31292Y37784
X28399Y39772
X27769Y41485
X24659Y40677
X24659Y42843
X23576Y46878
X29580Y48276
X29934Y48630
X34895Y41859
X35288Y39103
X27808Y35835
X48064Y37902
X48044Y38630
X50466Y40028
X53989Y39181
X54521Y37548
X14383Y48236
X14422Y50008
X13458Y51012
X14344Y52764
X11430Y48571
X6155Y54063
T04
X3505Y45059
X2505Y45059
X2505Y44059
X2505Y43059
X3505Y43059
X3505Y44059
X3505Y42059
X3505Y41059
X2505Y41059
X2505Y42059
X2505Y40059
X2505Y39059
X3505Y39059
X3505Y40059
X3505Y38059
X2505Y38059
X2505Y37059
X2505Y36059
X3505Y36059
X3505Y37059
X3505Y35059
X3505Y34059
X2505Y34059
X2505Y35059
X2505Y33059
X3505Y33059
X3505Y32059
X3505Y31059
X2505Y31059
X2505Y32059
X2505Y30059
X2505Y29059
X3505Y29059
X3505Y30059
X3505Y28059
X2505Y28059
X2505Y27059
X2505Y26059
X3505Y26059
X3505Y27059
X7678Y21886
X7678Y20886
X8678Y20886
X8678Y21886
X9678Y21886
X9678Y20886
X10678Y20886
X10678Y21886
X11678Y21886
X11678Y20886
X12678Y20886
X12678Y21886
X13678Y21886
X13678Y20886
X14678Y20886
X14678Y21886
X15678Y21886
X15678Y20886
X16678Y20886
X16678Y21886
X17678Y21886
X17678Y20886
X18678Y20886
X18678Y21886
X19678Y21886
X19678Y20886
X20678Y20886
X20678Y21886
X21678Y21886
X21678Y20886
X22678Y20886
X22678Y21886
X23678Y21886
X23678Y20886
X24678Y20886
X24678Y21886
X25678Y21886
X25678Y20886
X26678Y20886
X26678Y21886
X32875Y21886
X32875Y20886
X33875Y20886
X34875Y20886
X35875Y20886
X36875Y20886
X37875Y20886
X38875Y20886
X39875Y20886
X40875Y20886
X41875Y20886
X42875Y20886
X43875Y20886
X44875Y20886
X45875Y20886
X46875Y20886
X47875Y20886
X48875Y20886
X49875Y20886
X50875Y20886
X51875Y20886
X51875Y21886
X50875Y21886
X49875Y21886
X48875Y21886
X47875Y21886
X46875Y21886
X45875Y21886
X44875Y21886
X43875Y21886
X42875Y21886
X41875Y21886
X40875Y21886
X39875Y21886
X38875Y21886
X37875Y21886
X36875Y21886
X35875Y21886
X34875Y21886
X33875Y21886
X56048Y27910
X56048Y28910
X57048Y28910
X57048Y27910
X57048Y29910
X56048Y29910
X56048Y30910
X56048Y31910
X57048Y31910
X57048Y30910
X57048Y32910
X56048Y32910
X56048Y33910
X57048Y33910
X57048Y34910
X56048Y34910
X56048Y35910
X56048Y36910
X57048Y36910
X57048Y35910
T05
X17346Y54063
X15436Y54063
T06
X55387Y51406
X55387Y49634
X57946Y49634
X57946Y51406
X57946Y47075
X57946Y45303
X55387Y45303
X55387Y47075
T07
X27914Y33158
X26914Y33158
X39186Y28697
X39186Y27697
X24044Y49733
X23044Y49733
X22044Y49733
X22044Y50733
X23044Y50733
X24044Y50733
X23584Y53957
X22584Y53957
X22584Y54957
X23584Y54957
T08
X17773Y55244
X15009Y55244
T09
X29068Y52055
X30367Y52961
X31666Y52055
T10
X31824Y54969
X28911Y54969
T11
X30367Y54536
T12
X56942Y53670
X2611Y53670
X2611Y20992
X56942Y20992
M30
