G75*
%MOIN*%
%OFA0B0*%
%FSLAX25Y25*%
%IPPOS*%
%LPD*%
%AMOC8*
5,1,8,0,0,1.08239X$1,22.5*
%
%ADD10C,0.00000*%
D10*
X0002491Y0018294D02*
X0593042Y0018294D01*
X0593042Y0392310D01*
X0002491Y0392349D01*
X0002491Y0018294D01*
X0019863Y0041916D02*
X0019865Y0042074D01*
X0019871Y0042231D01*
X0019881Y0042389D01*
X0019895Y0042546D01*
X0019913Y0042702D01*
X0019934Y0042859D01*
X0019960Y0043014D01*
X0019990Y0043169D01*
X0020023Y0043323D01*
X0020061Y0043476D01*
X0020102Y0043629D01*
X0020147Y0043780D01*
X0020196Y0043930D01*
X0020249Y0044078D01*
X0020305Y0044226D01*
X0020366Y0044371D01*
X0020429Y0044516D01*
X0020497Y0044658D01*
X0020568Y0044799D01*
X0020642Y0044938D01*
X0020720Y0045075D01*
X0020802Y0045210D01*
X0020886Y0045343D01*
X0020975Y0045474D01*
X0021066Y0045602D01*
X0021161Y0045729D01*
X0021258Y0045852D01*
X0021359Y0045974D01*
X0021463Y0046092D01*
X0021570Y0046208D01*
X0021680Y0046321D01*
X0021792Y0046432D01*
X0021908Y0046539D01*
X0022026Y0046644D01*
X0022146Y0046746D01*
X0022269Y0046844D01*
X0022395Y0046940D01*
X0022523Y0047032D01*
X0022653Y0047121D01*
X0022785Y0047207D01*
X0022920Y0047289D01*
X0023057Y0047368D01*
X0023195Y0047443D01*
X0023335Y0047515D01*
X0023478Y0047583D01*
X0023621Y0047648D01*
X0023767Y0047709D01*
X0023914Y0047766D01*
X0024062Y0047820D01*
X0024212Y0047870D01*
X0024362Y0047916D01*
X0024514Y0047958D01*
X0024667Y0047997D01*
X0024821Y0048031D01*
X0024976Y0048062D01*
X0025131Y0048088D01*
X0025287Y0048111D01*
X0025444Y0048130D01*
X0025601Y0048145D01*
X0025758Y0048156D01*
X0025916Y0048163D01*
X0026074Y0048166D01*
X0026231Y0048165D01*
X0026389Y0048160D01*
X0026546Y0048151D01*
X0026704Y0048138D01*
X0026860Y0048121D01*
X0027017Y0048100D01*
X0027172Y0048076D01*
X0027327Y0048047D01*
X0027482Y0048014D01*
X0027635Y0047978D01*
X0027788Y0047937D01*
X0027939Y0047893D01*
X0028089Y0047845D01*
X0028238Y0047794D01*
X0028386Y0047738D01*
X0028532Y0047679D01*
X0028677Y0047616D01*
X0028820Y0047549D01*
X0028961Y0047479D01*
X0029100Y0047406D01*
X0029238Y0047329D01*
X0029374Y0047248D01*
X0029507Y0047164D01*
X0029638Y0047077D01*
X0029767Y0046986D01*
X0029894Y0046892D01*
X0030019Y0046795D01*
X0030140Y0046695D01*
X0030260Y0046592D01*
X0030376Y0046486D01*
X0030490Y0046377D01*
X0030602Y0046265D01*
X0030710Y0046151D01*
X0030815Y0046033D01*
X0030918Y0045913D01*
X0031017Y0045791D01*
X0031113Y0045666D01*
X0031206Y0045538D01*
X0031296Y0045409D01*
X0031382Y0045277D01*
X0031466Y0045143D01*
X0031545Y0045007D01*
X0031622Y0044869D01*
X0031694Y0044729D01*
X0031763Y0044587D01*
X0031829Y0044444D01*
X0031891Y0044299D01*
X0031949Y0044152D01*
X0032004Y0044004D01*
X0032055Y0043855D01*
X0032102Y0043704D01*
X0032145Y0043553D01*
X0032184Y0043400D01*
X0032220Y0043246D01*
X0032251Y0043092D01*
X0032279Y0042937D01*
X0032303Y0042781D01*
X0032323Y0042624D01*
X0032339Y0042467D01*
X0032351Y0042310D01*
X0032359Y0042153D01*
X0032363Y0041995D01*
X0032363Y0041837D01*
X0032359Y0041679D01*
X0032351Y0041522D01*
X0032339Y0041365D01*
X0032323Y0041208D01*
X0032303Y0041051D01*
X0032279Y0040895D01*
X0032251Y0040740D01*
X0032220Y0040586D01*
X0032184Y0040432D01*
X0032145Y0040279D01*
X0032102Y0040128D01*
X0032055Y0039977D01*
X0032004Y0039828D01*
X0031949Y0039680D01*
X0031891Y0039533D01*
X0031829Y0039388D01*
X0031763Y0039245D01*
X0031694Y0039103D01*
X0031622Y0038963D01*
X0031545Y0038825D01*
X0031466Y0038689D01*
X0031382Y0038555D01*
X0031296Y0038423D01*
X0031206Y0038294D01*
X0031113Y0038166D01*
X0031017Y0038041D01*
X0030918Y0037919D01*
X0030815Y0037799D01*
X0030710Y0037681D01*
X0030602Y0037567D01*
X0030490Y0037455D01*
X0030376Y0037346D01*
X0030260Y0037240D01*
X0030140Y0037137D01*
X0030019Y0037037D01*
X0029894Y0036940D01*
X0029767Y0036846D01*
X0029638Y0036755D01*
X0029507Y0036668D01*
X0029374Y0036584D01*
X0029238Y0036503D01*
X0029100Y0036426D01*
X0028961Y0036353D01*
X0028820Y0036283D01*
X0028677Y0036216D01*
X0028532Y0036153D01*
X0028386Y0036094D01*
X0028238Y0036038D01*
X0028089Y0035987D01*
X0027939Y0035939D01*
X0027788Y0035895D01*
X0027635Y0035854D01*
X0027482Y0035818D01*
X0027327Y0035785D01*
X0027172Y0035756D01*
X0027017Y0035732D01*
X0026860Y0035711D01*
X0026704Y0035694D01*
X0026546Y0035681D01*
X0026389Y0035672D01*
X0026231Y0035667D01*
X0026074Y0035666D01*
X0025916Y0035669D01*
X0025758Y0035676D01*
X0025601Y0035687D01*
X0025444Y0035702D01*
X0025287Y0035721D01*
X0025131Y0035744D01*
X0024976Y0035770D01*
X0024821Y0035801D01*
X0024667Y0035835D01*
X0024514Y0035874D01*
X0024362Y0035916D01*
X0024212Y0035962D01*
X0024062Y0036012D01*
X0023914Y0036066D01*
X0023767Y0036123D01*
X0023621Y0036184D01*
X0023478Y0036249D01*
X0023335Y0036317D01*
X0023195Y0036389D01*
X0023057Y0036464D01*
X0022920Y0036543D01*
X0022785Y0036625D01*
X0022653Y0036711D01*
X0022523Y0036800D01*
X0022395Y0036892D01*
X0022269Y0036988D01*
X0022146Y0037086D01*
X0022026Y0037188D01*
X0021908Y0037293D01*
X0021792Y0037400D01*
X0021680Y0037511D01*
X0021570Y0037624D01*
X0021463Y0037740D01*
X0021359Y0037858D01*
X0021258Y0037980D01*
X0021161Y0038103D01*
X0021066Y0038230D01*
X0020975Y0038358D01*
X0020886Y0038489D01*
X0020802Y0038622D01*
X0020720Y0038757D01*
X0020642Y0038894D01*
X0020568Y0039033D01*
X0020497Y0039174D01*
X0020429Y0039316D01*
X0020366Y0039461D01*
X0020305Y0039606D01*
X0020249Y0039754D01*
X0020196Y0039902D01*
X0020147Y0040052D01*
X0020102Y0040203D01*
X0020061Y0040356D01*
X0020023Y0040509D01*
X0019990Y0040663D01*
X0019960Y0040818D01*
X0019934Y0040973D01*
X0019913Y0041130D01*
X0019895Y0041286D01*
X0019881Y0041443D01*
X0019871Y0041601D01*
X0019865Y0041758D01*
X0019863Y0041916D01*
X0019863Y0368688D02*
X0019865Y0368846D01*
X0019871Y0369003D01*
X0019881Y0369161D01*
X0019895Y0369318D01*
X0019913Y0369474D01*
X0019934Y0369631D01*
X0019960Y0369786D01*
X0019990Y0369941D01*
X0020023Y0370095D01*
X0020061Y0370248D01*
X0020102Y0370401D01*
X0020147Y0370552D01*
X0020196Y0370702D01*
X0020249Y0370850D01*
X0020305Y0370998D01*
X0020366Y0371143D01*
X0020429Y0371288D01*
X0020497Y0371430D01*
X0020568Y0371571D01*
X0020642Y0371710D01*
X0020720Y0371847D01*
X0020802Y0371982D01*
X0020886Y0372115D01*
X0020975Y0372246D01*
X0021066Y0372374D01*
X0021161Y0372501D01*
X0021258Y0372624D01*
X0021359Y0372746D01*
X0021463Y0372864D01*
X0021570Y0372980D01*
X0021680Y0373093D01*
X0021792Y0373204D01*
X0021908Y0373311D01*
X0022026Y0373416D01*
X0022146Y0373518D01*
X0022269Y0373616D01*
X0022395Y0373712D01*
X0022523Y0373804D01*
X0022653Y0373893D01*
X0022785Y0373979D01*
X0022920Y0374061D01*
X0023057Y0374140D01*
X0023195Y0374215D01*
X0023335Y0374287D01*
X0023478Y0374355D01*
X0023621Y0374420D01*
X0023767Y0374481D01*
X0023914Y0374538D01*
X0024062Y0374592D01*
X0024212Y0374642D01*
X0024362Y0374688D01*
X0024514Y0374730D01*
X0024667Y0374769D01*
X0024821Y0374803D01*
X0024976Y0374834D01*
X0025131Y0374860D01*
X0025287Y0374883D01*
X0025444Y0374902D01*
X0025601Y0374917D01*
X0025758Y0374928D01*
X0025916Y0374935D01*
X0026074Y0374938D01*
X0026231Y0374937D01*
X0026389Y0374932D01*
X0026546Y0374923D01*
X0026704Y0374910D01*
X0026860Y0374893D01*
X0027017Y0374872D01*
X0027172Y0374848D01*
X0027327Y0374819D01*
X0027482Y0374786D01*
X0027635Y0374750D01*
X0027788Y0374709D01*
X0027939Y0374665D01*
X0028089Y0374617D01*
X0028238Y0374566D01*
X0028386Y0374510D01*
X0028532Y0374451D01*
X0028677Y0374388D01*
X0028820Y0374321D01*
X0028961Y0374251D01*
X0029100Y0374178D01*
X0029238Y0374101D01*
X0029374Y0374020D01*
X0029507Y0373936D01*
X0029638Y0373849D01*
X0029767Y0373758D01*
X0029894Y0373664D01*
X0030019Y0373567D01*
X0030140Y0373467D01*
X0030260Y0373364D01*
X0030376Y0373258D01*
X0030490Y0373149D01*
X0030602Y0373037D01*
X0030710Y0372923D01*
X0030815Y0372805D01*
X0030918Y0372685D01*
X0031017Y0372563D01*
X0031113Y0372438D01*
X0031206Y0372310D01*
X0031296Y0372181D01*
X0031382Y0372049D01*
X0031466Y0371915D01*
X0031545Y0371779D01*
X0031622Y0371641D01*
X0031694Y0371501D01*
X0031763Y0371359D01*
X0031829Y0371216D01*
X0031891Y0371071D01*
X0031949Y0370924D01*
X0032004Y0370776D01*
X0032055Y0370627D01*
X0032102Y0370476D01*
X0032145Y0370325D01*
X0032184Y0370172D01*
X0032220Y0370018D01*
X0032251Y0369864D01*
X0032279Y0369709D01*
X0032303Y0369553D01*
X0032323Y0369396D01*
X0032339Y0369239D01*
X0032351Y0369082D01*
X0032359Y0368925D01*
X0032363Y0368767D01*
X0032363Y0368609D01*
X0032359Y0368451D01*
X0032351Y0368294D01*
X0032339Y0368137D01*
X0032323Y0367980D01*
X0032303Y0367823D01*
X0032279Y0367667D01*
X0032251Y0367512D01*
X0032220Y0367358D01*
X0032184Y0367204D01*
X0032145Y0367051D01*
X0032102Y0366900D01*
X0032055Y0366749D01*
X0032004Y0366600D01*
X0031949Y0366452D01*
X0031891Y0366305D01*
X0031829Y0366160D01*
X0031763Y0366017D01*
X0031694Y0365875D01*
X0031622Y0365735D01*
X0031545Y0365597D01*
X0031466Y0365461D01*
X0031382Y0365327D01*
X0031296Y0365195D01*
X0031206Y0365066D01*
X0031113Y0364938D01*
X0031017Y0364813D01*
X0030918Y0364691D01*
X0030815Y0364571D01*
X0030710Y0364453D01*
X0030602Y0364339D01*
X0030490Y0364227D01*
X0030376Y0364118D01*
X0030260Y0364012D01*
X0030140Y0363909D01*
X0030019Y0363809D01*
X0029894Y0363712D01*
X0029767Y0363618D01*
X0029638Y0363527D01*
X0029507Y0363440D01*
X0029374Y0363356D01*
X0029238Y0363275D01*
X0029100Y0363198D01*
X0028961Y0363125D01*
X0028820Y0363055D01*
X0028677Y0362988D01*
X0028532Y0362925D01*
X0028386Y0362866D01*
X0028238Y0362810D01*
X0028089Y0362759D01*
X0027939Y0362711D01*
X0027788Y0362667D01*
X0027635Y0362626D01*
X0027482Y0362590D01*
X0027327Y0362557D01*
X0027172Y0362528D01*
X0027017Y0362504D01*
X0026860Y0362483D01*
X0026704Y0362466D01*
X0026546Y0362453D01*
X0026389Y0362444D01*
X0026231Y0362439D01*
X0026074Y0362438D01*
X0025916Y0362441D01*
X0025758Y0362448D01*
X0025601Y0362459D01*
X0025444Y0362474D01*
X0025287Y0362493D01*
X0025131Y0362516D01*
X0024976Y0362542D01*
X0024821Y0362573D01*
X0024667Y0362607D01*
X0024514Y0362646D01*
X0024362Y0362688D01*
X0024212Y0362734D01*
X0024062Y0362784D01*
X0023914Y0362838D01*
X0023767Y0362895D01*
X0023621Y0362956D01*
X0023478Y0363021D01*
X0023335Y0363089D01*
X0023195Y0363161D01*
X0023057Y0363236D01*
X0022920Y0363315D01*
X0022785Y0363397D01*
X0022653Y0363483D01*
X0022523Y0363572D01*
X0022395Y0363664D01*
X0022269Y0363760D01*
X0022146Y0363858D01*
X0022026Y0363960D01*
X0021908Y0364065D01*
X0021792Y0364172D01*
X0021680Y0364283D01*
X0021570Y0364396D01*
X0021463Y0364512D01*
X0021359Y0364630D01*
X0021258Y0364752D01*
X0021161Y0364875D01*
X0021066Y0365002D01*
X0020975Y0365130D01*
X0020886Y0365261D01*
X0020802Y0365394D01*
X0020720Y0365529D01*
X0020642Y0365666D01*
X0020568Y0365805D01*
X0020497Y0365946D01*
X0020429Y0366088D01*
X0020366Y0366233D01*
X0020305Y0366378D01*
X0020249Y0366526D01*
X0020196Y0366674D01*
X0020147Y0366824D01*
X0020102Y0366975D01*
X0020061Y0367128D01*
X0020023Y0367281D01*
X0019990Y0367435D01*
X0019960Y0367590D01*
X0019934Y0367745D01*
X0019913Y0367902D01*
X0019895Y0368058D01*
X0019881Y0368215D01*
X0019871Y0368373D01*
X0019865Y0368530D01*
X0019863Y0368688D01*
X0298948Y0377349D02*
X0298950Y0377486D01*
X0298956Y0377624D01*
X0298966Y0377761D01*
X0298980Y0377897D01*
X0298998Y0378034D01*
X0299020Y0378169D01*
X0299046Y0378304D01*
X0299075Y0378438D01*
X0299109Y0378572D01*
X0299146Y0378704D01*
X0299188Y0378835D01*
X0299233Y0378965D01*
X0299282Y0379093D01*
X0299334Y0379220D01*
X0299391Y0379345D01*
X0299450Y0379469D01*
X0299514Y0379591D01*
X0299581Y0379711D01*
X0299651Y0379829D01*
X0299725Y0379945D01*
X0299802Y0380059D01*
X0299883Y0380170D01*
X0299966Y0380279D01*
X0300053Y0380386D01*
X0300143Y0380489D01*
X0300236Y0380591D01*
X0300332Y0380689D01*
X0300430Y0380785D01*
X0300532Y0380878D01*
X0300635Y0380968D01*
X0300742Y0381055D01*
X0300851Y0381138D01*
X0300962Y0381219D01*
X0301076Y0381296D01*
X0301192Y0381370D01*
X0301310Y0381440D01*
X0301430Y0381507D01*
X0301552Y0381571D01*
X0301676Y0381630D01*
X0301801Y0381687D01*
X0301928Y0381739D01*
X0302056Y0381788D01*
X0302186Y0381833D01*
X0302317Y0381875D01*
X0302449Y0381912D01*
X0302583Y0381946D01*
X0302717Y0381975D01*
X0302852Y0382001D01*
X0302987Y0382023D01*
X0303124Y0382041D01*
X0303260Y0382055D01*
X0303397Y0382065D01*
X0303535Y0382071D01*
X0303672Y0382073D01*
X0303809Y0382071D01*
X0303947Y0382065D01*
X0304084Y0382055D01*
X0304220Y0382041D01*
X0304357Y0382023D01*
X0304492Y0382001D01*
X0304627Y0381975D01*
X0304761Y0381946D01*
X0304895Y0381912D01*
X0305027Y0381875D01*
X0305158Y0381833D01*
X0305288Y0381788D01*
X0305416Y0381739D01*
X0305543Y0381687D01*
X0305668Y0381630D01*
X0305792Y0381571D01*
X0305914Y0381507D01*
X0306034Y0381440D01*
X0306152Y0381370D01*
X0306268Y0381296D01*
X0306382Y0381219D01*
X0306493Y0381138D01*
X0306602Y0381055D01*
X0306709Y0380968D01*
X0306812Y0380878D01*
X0306914Y0380785D01*
X0307012Y0380689D01*
X0307108Y0380591D01*
X0307201Y0380489D01*
X0307291Y0380386D01*
X0307378Y0380279D01*
X0307461Y0380170D01*
X0307542Y0380059D01*
X0307619Y0379945D01*
X0307693Y0379829D01*
X0307763Y0379711D01*
X0307830Y0379591D01*
X0307894Y0379469D01*
X0307953Y0379345D01*
X0308010Y0379220D01*
X0308062Y0379093D01*
X0308111Y0378965D01*
X0308156Y0378835D01*
X0308198Y0378704D01*
X0308235Y0378572D01*
X0308269Y0378438D01*
X0308298Y0378304D01*
X0308324Y0378169D01*
X0308346Y0378034D01*
X0308364Y0377897D01*
X0308378Y0377761D01*
X0308388Y0377624D01*
X0308394Y0377486D01*
X0308396Y0377349D01*
X0308394Y0377212D01*
X0308388Y0377074D01*
X0308378Y0376937D01*
X0308364Y0376801D01*
X0308346Y0376664D01*
X0308324Y0376529D01*
X0308298Y0376394D01*
X0308269Y0376260D01*
X0308235Y0376126D01*
X0308198Y0375994D01*
X0308156Y0375863D01*
X0308111Y0375733D01*
X0308062Y0375605D01*
X0308010Y0375478D01*
X0307953Y0375353D01*
X0307894Y0375229D01*
X0307830Y0375107D01*
X0307763Y0374987D01*
X0307693Y0374869D01*
X0307619Y0374753D01*
X0307542Y0374639D01*
X0307461Y0374528D01*
X0307378Y0374419D01*
X0307291Y0374312D01*
X0307201Y0374209D01*
X0307108Y0374107D01*
X0307012Y0374009D01*
X0306914Y0373913D01*
X0306812Y0373820D01*
X0306709Y0373730D01*
X0306602Y0373643D01*
X0306493Y0373560D01*
X0306382Y0373479D01*
X0306268Y0373402D01*
X0306152Y0373328D01*
X0306034Y0373258D01*
X0305914Y0373191D01*
X0305792Y0373127D01*
X0305668Y0373068D01*
X0305543Y0373011D01*
X0305416Y0372959D01*
X0305288Y0372910D01*
X0305158Y0372865D01*
X0305027Y0372823D01*
X0304895Y0372786D01*
X0304761Y0372752D01*
X0304627Y0372723D01*
X0304492Y0372697D01*
X0304357Y0372675D01*
X0304220Y0372657D01*
X0304084Y0372643D01*
X0303947Y0372633D01*
X0303809Y0372627D01*
X0303672Y0372625D01*
X0303535Y0372627D01*
X0303397Y0372633D01*
X0303260Y0372643D01*
X0303124Y0372657D01*
X0302987Y0372675D01*
X0302852Y0372697D01*
X0302717Y0372723D01*
X0302583Y0372752D01*
X0302449Y0372786D01*
X0302317Y0372823D01*
X0302186Y0372865D01*
X0302056Y0372910D01*
X0301928Y0372959D01*
X0301801Y0373011D01*
X0301676Y0373068D01*
X0301552Y0373127D01*
X0301430Y0373191D01*
X0301310Y0373258D01*
X0301192Y0373328D01*
X0301076Y0373402D01*
X0300962Y0373479D01*
X0300851Y0373560D01*
X0300742Y0373643D01*
X0300635Y0373730D01*
X0300532Y0373820D01*
X0300430Y0373913D01*
X0300332Y0374009D01*
X0300236Y0374107D01*
X0300143Y0374209D01*
X0300053Y0374312D01*
X0299966Y0374419D01*
X0299883Y0374528D01*
X0299802Y0374639D01*
X0299725Y0374753D01*
X0299651Y0374869D01*
X0299581Y0374987D01*
X0299514Y0375107D01*
X0299450Y0375229D01*
X0299391Y0375353D01*
X0299334Y0375478D01*
X0299282Y0375605D01*
X0299233Y0375733D01*
X0299188Y0375863D01*
X0299146Y0375994D01*
X0299109Y0376126D01*
X0299075Y0376260D01*
X0299046Y0376394D01*
X0299020Y0376529D01*
X0298998Y0376664D01*
X0298980Y0376801D01*
X0298966Y0376937D01*
X0298956Y0377074D01*
X0298950Y0377212D01*
X0298948Y0377349D01*
X0563170Y0368688D02*
X0563172Y0368846D01*
X0563178Y0369003D01*
X0563188Y0369161D01*
X0563202Y0369318D01*
X0563220Y0369474D01*
X0563241Y0369631D01*
X0563267Y0369786D01*
X0563297Y0369941D01*
X0563330Y0370095D01*
X0563368Y0370248D01*
X0563409Y0370401D01*
X0563454Y0370552D01*
X0563503Y0370702D01*
X0563556Y0370850D01*
X0563612Y0370998D01*
X0563673Y0371143D01*
X0563736Y0371288D01*
X0563804Y0371430D01*
X0563875Y0371571D01*
X0563949Y0371710D01*
X0564027Y0371847D01*
X0564109Y0371982D01*
X0564193Y0372115D01*
X0564282Y0372246D01*
X0564373Y0372374D01*
X0564468Y0372501D01*
X0564565Y0372624D01*
X0564666Y0372746D01*
X0564770Y0372864D01*
X0564877Y0372980D01*
X0564987Y0373093D01*
X0565099Y0373204D01*
X0565215Y0373311D01*
X0565333Y0373416D01*
X0565453Y0373518D01*
X0565576Y0373616D01*
X0565702Y0373712D01*
X0565830Y0373804D01*
X0565960Y0373893D01*
X0566092Y0373979D01*
X0566227Y0374061D01*
X0566364Y0374140D01*
X0566502Y0374215D01*
X0566642Y0374287D01*
X0566785Y0374355D01*
X0566928Y0374420D01*
X0567074Y0374481D01*
X0567221Y0374538D01*
X0567369Y0374592D01*
X0567519Y0374642D01*
X0567669Y0374688D01*
X0567821Y0374730D01*
X0567974Y0374769D01*
X0568128Y0374803D01*
X0568283Y0374834D01*
X0568438Y0374860D01*
X0568594Y0374883D01*
X0568751Y0374902D01*
X0568908Y0374917D01*
X0569065Y0374928D01*
X0569223Y0374935D01*
X0569381Y0374938D01*
X0569538Y0374937D01*
X0569696Y0374932D01*
X0569853Y0374923D01*
X0570011Y0374910D01*
X0570167Y0374893D01*
X0570324Y0374872D01*
X0570479Y0374848D01*
X0570634Y0374819D01*
X0570789Y0374786D01*
X0570942Y0374750D01*
X0571095Y0374709D01*
X0571246Y0374665D01*
X0571396Y0374617D01*
X0571545Y0374566D01*
X0571693Y0374510D01*
X0571839Y0374451D01*
X0571984Y0374388D01*
X0572127Y0374321D01*
X0572268Y0374251D01*
X0572407Y0374178D01*
X0572545Y0374101D01*
X0572681Y0374020D01*
X0572814Y0373936D01*
X0572945Y0373849D01*
X0573074Y0373758D01*
X0573201Y0373664D01*
X0573326Y0373567D01*
X0573447Y0373467D01*
X0573567Y0373364D01*
X0573683Y0373258D01*
X0573797Y0373149D01*
X0573909Y0373037D01*
X0574017Y0372923D01*
X0574122Y0372805D01*
X0574225Y0372685D01*
X0574324Y0372563D01*
X0574420Y0372438D01*
X0574513Y0372310D01*
X0574603Y0372181D01*
X0574689Y0372049D01*
X0574773Y0371915D01*
X0574852Y0371779D01*
X0574929Y0371641D01*
X0575001Y0371501D01*
X0575070Y0371359D01*
X0575136Y0371216D01*
X0575198Y0371071D01*
X0575256Y0370924D01*
X0575311Y0370776D01*
X0575362Y0370627D01*
X0575409Y0370476D01*
X0575452Y0370325D01*
X0575491Y0370172D01*
X0575527Y0370018D01*
X0575558Y0369864D01*
X0575586Y0369709D01*
X0575610Y0369553D01*
X0575630Y0369396D01*
X0575646Y0369239D01*
X0575658Y0369082D01*
X0575666Y0368925D01*
X0575670Y0368767D01*
X0575670Y0368609D01*
X0575666Y0368451D01*
X0575658Y0368294D01*
X0575646Y0368137D01*
X0575630Y0367980D01*
X0575610Y0367823D01*
X0575586Y0367667D01*
X0575558Y0367512D01*
X0575527Y0367358D01*
X0575491Y0367204D01*
X0575452Y0367051D01*
X0575409Y0366900D01*
X0575362Y0366749D01*
X0575311Y0366600D01*
X0575256Y0366452D01*
X0575198Y0366305D01*
X0575136Y0366160D01*
X0575070Y0366017D01*
X0575001Y0365875D01*
X0574929Y0365735D01*
X0574852Y0365597D01*
X0574773Y0365461D01*
X0574689Y0365327D01*
X0574603Y0365195D01*
X0574513Y0365066D01*
X0574420Y0364938D01*
X0574324Y0364813D01*
X0574225Y0364691D01*
X0574122Y0364571D01*
X0574017Y0364453D01*
X0573909Y0364339D01*
X0573797Y0364227D01*
X0573683Y0364118D01*
X0573567Y0364012D01*
X0573447Y0363909D01*
X0573326Y0363809D01*
X0573201Y0363712D01*
X0573074Y0363618D01*
X0572945Y0363527D01*
X0572814Y0363440D01*
X0572681Y0363356D01*
X0572545Y0363275D01*
X0572407Y0363198D01*
X0572268Y0363125D01*
X0572127Y0363055D01*
X0571984Y0362988D01*
X0571839Y0362925D01*
X0571693Y0362866D01*
X0571545Y0362810D01*
X0571396Y0362759D01*
X0571246Y0362711D01*
X0571095Y0362667D01*
X0570942Y0362626D01*
X0570789Y0362590D01*
X0570634Y0362557D01*
X0570479Y0362528D01*
X0570324Y0362504D01*
X0570167Y0362483D01*
X0570011Y0362466D01*
X0569853Y0362453D01*
X0569696Y0362444D01*
X0569538Y0362439D01*
X0569381Y0362438D01*
X0569223Y0362441D01*
X0569065Y0362448D01*
X0568908Y0362459D01*
X0568751Y0362474D01*
X0568594Y0362493D01*
X0568438Y0362516D01*
X0568283Y0362542D01*
X0568128Y0362573D01*
X0567974Y0362607D01*
X0567821Y0362646D01*
X0567669Y0362688D01*
X0567519Y0362734D01*
X0567369Y0362784D01*
X0567221Y0362838D01*
X0567074Y0362895D01*
X0566928Y0362956D01*
X0566785Y0363021D01*
X0566642Y0363089D01*
X0566502Y0363161D01*
X0566364Y0363236D01*
X0566227Y0363315D01*
X0566092Y0363397D01*
X0565960Y0363483D01*
X0565830Y0363572D01*
X0565702Y0363664D01*
X0565576Y0363760D01*
X0565453Y0363858D01*
X0565333Y0363960D01*
X0565215Y0364065D01*
X0565099Y0364172D01*
X0564987Y0364283D01*
X0564877Y0364396D01*
X0564770Y0364512D01*
X0564666Y0364630D01*
X0564565Y0364752D01*
X0564468Y0364875D01*
X0564373Y0365002D01*
X0564282Y0365130D01*
X0564193Y0365261D01*
X0564109Y0365394D01*
X0564027Y0365529D01*
X0563949Y0365666D01*
X0563875Y0365805D01*
X0563804Y0365946D01*
X0563736Y0366088D01*
X0563673Y0366233D01*
X0563612Y0366378D01*
X0563556Y0366526D01*
X0563503Y0366674D01*
X0563454Y0366824D01*
X0563409Y0366975D01*
X0563368Y0367128D01*
X0563330Y0367281D01*
X0563297Y0367435D01*
X0563267Y0367590D01*
X0563241Y0367745D01*
X0563220Y0367902D01*
X0563202Y0368058D01*
X0563188Y0368215D01*
X0563178Y0368373D01*
X0563172Y0368530D01*
X0563170Y0368688D01*
X0563170Y0041916D02*
X0563172Y0042074D01*
X0563178Y0042231D01*
X0563188Y0042389D01*
X0563202Y0042546D01*
X0563220Y0042702D01*
X0563241Y0042859D01*
X0563267Y0043014D01*
X0563297Y0043169D01*
X0563330Y0043323D01*
X0563368Y0043476D01*
X0563409Y0043629D01*
X0563454Y0043780D01*
X0563503Y0043930D01*
X0563556Y0044078D01*
X0563612Y0044226D01*
X0563673Y0044371D01*
X0563736Y0044516D01*
X0563804Y0044658D01*
X0563875Y0044799D01*
X0563949Y0044938D01*
X0564027Y0045075D01*
X0564109Y0045210D01*
X0564193Y0045343D01*
X0564282Y0045474D01*
X0564373Y0045602D01*
X0564468Y0045729D01*
X0564565Y0045852D01*
X0564666Y0045974D01*
X0564770Y0046092D01*
X0564877Y0046208D01*
X0564987Y0046321D01*
X0565099Y0046432D01*
X0565215Y0046539D01*
X0565333Y0046644D01*
X0565453Y0046746D01*
X0565576Y0046844D01*
X0565702Y0046940D01*
X0565830Y0047032D01*
X0565960Y0047121D01*
X0566092Y0047207D01*
X0566227Y0047289D01*
X0566364Y0047368D01*
X0566502Y0047443D01*
X0566642Y0047515D01*
X0566785Y0047583D01*
X0566928Y0047648D01*
X0567074Y0047709D01*
X0567221Y0047766D01*
X0567369Y0047820D01*
X0567519Y0047870D01*
X0567669Y0047916D01*
X0567821Y0047958D01*
X0567974Y0047997D01*
X0568128Y0048031D01*
X0568283Y0048062D01*
X0568438Y0048088D01*
X0568594Y0048111D01*
X0568751Y0048130D01*
X0568908Y0048145D01*
X0569065Y0048156D01*
X0569223Y0048163D01*
X0569381Y0048166D01*
X0569538Y0048165D01*
X0569696Y0048160D01*
X0569853Y0048151D01*
X0570011Y0048138D01*
X0570167Y0048121D01*
X0570324Y0048100D01*
X0570479Y0048076D01*
X0570634Y0048047D01*
X0570789Y0048014D01*
X0570942Y0047978D01*
X0571095Y0047937D01*
X0571246Y0047893D01*
X0571396Y0047845D01*
X0571545Y0047794D01*
X0571693Y0047738D01*
X0571839Y0047679D01*
X0571984Y0047616D01*
X0572127Y0047549D01*
X0572268Y0047479D01*
X0572407Y0047406D01*
X0572545Y0047329D01*
X0572681Y0047248D01*
X0572814Y0047164D01*
X0572945Y0047077D01*
X0573074Y0046986D01*
X0573201Y0046892D01*
X0573326Y0046795D01*
X0573447Y0046695D01*
X0573567Y0046592D01*
X0573683Y0046486D01*
X0573797Y0046377D01*
X0573909Y0046265D01*
X0574017Y0046151D01*
X0574122Y0046033D01*
X0574225Y0045913D01*
X0574324Y0045791D01*
X0574420Y0045666D01*
X0574513Y0045538D01*
X0574603Y0045409D01*
X0574689Y0045277D01*
X0574773Y0045143D01*
X0574852Y0045007D01*
X0574929Y0044869D01*
X0575001Y0044729D01*
X0575070Y0044587D01*
X0575136Y0044444D01*
X0575198Y0044299D01*
X0575256Y0044152D01*
X0575311Y0044004D01*
X0575362Y0043855D01*
X0575409Y0043704D01*
X0575452Y0043553D01*
X0575491Y0043400D01*
X0575527Y0043246D01*
X0575558Y0043092D01*
X0575586Y0042937D01*
X0575610Y0042781D01*
X0575630Y0042624D01*
X0575646Y0042467D01*
X0575658Y0042310D01*
X0575666Y0042153D01*
X0575670Y0041995D01*
X0575670Y0041837D01*
X0575666Y0041679D01*
X0575658Y0041522D01*
X0575646Y0041365D01*
X0575630Y0041208D01*
X0575610Y0041051D01*
X0575586Y0040895D01*
X0575558Y0040740D01*
X0575527Y0040586D01*
X0575491Y0040432D01*
X0575452Y0040279D01*
X0575409Y0040128D01*
X0575362Y0039977D01*
X0575311Y0039828D01*
X0575256Y0039680D01*
X0575198Y0039533D01*
X0575136Y0039388D01*
X0575070Y0039245D01*
X0575001Y0039103D01*
X0574929Y0038963D01*
X0574852Y0038825D01*
X0574773Y0038689D01*
X0574689Y0038555D01*
X0574603Y0038423D01*
X0574513Y0038294D01*
X0574420Y0038166D01*
X0574324Y0038041D01*
X0574225Y0037919D01*
X0574122Y0037799D01*
X0574017Y0037681D01*
X0573909Y0037567D01*
X0573797Y0037455D01*
X0573683Y0037346D01*
X0573567Y0037240D01*
X0573447Y0037137D01*
X0573326Y0037037D01*
X0573201Y0036940D01*
X0573074Y0036846D01*
X0572945Y0036755D01*
X0572814Y0036668D01*
X0572681Y0036584D01*
X0572545Y0036503D01*
X0572407Y0036426D01*
X0572268Y0036353D01*
X0572127Y0036283D01*
X0571984Y0036216D01*
X0571839Y0036153D01*
X0571693Y0036094D01*
X0571545Y0036038D01*
X0571396Y0035987D01*
X0571246Y0035939D01*
X0571095Y0035895D01*
X0570942Y0035854D01*
X0570789Y0035818D01*
X0570634Y0035785D01*
X0570479Y0035756D01*
X0570324Y0035732D01*
X0570167Y0035711D01*
X0570011Y0035694D01*
X0569853Y0035681D01*
X0569696Y0035672D01*
X0569538Y0035667D01*
X0569381Y0035666D01*
X0569223Y0035669D01*
X0569065Y0035676D01*
X0568908Y0035687D01*
X0568751Y0035702D01*
X0568594Y0035721D01*
X0568438Y0035744D01*
X0568283Y0035770D01*
X0568128Y0035801D01*
X0567974Y0035835D01*
X0567821Y0035874D01*
X0567669Y0035916D01*
X0567519Y0035962D01*
X0567369Y0036012D01*
X0567221Y0036066D01*
X0567074Y0036123D01*
X0566928Y0036184D01*
X0566785Y0036249D01*
X0566642Y0036317D01*
X0566502Y0036389D01*
X0566364Y0036464D01*
X0566227Y0036543D01*
X0566092Y0036625D01*
X0565960Y0036711D01*
X0565830Y0036800D01*
X0565702Y0036892D01*
X0565576Y0036988D01*
X0565453Y0037086D01*
X0565333Y0037188D01*
X0565215Y0037293D01*
X0565099Y0037400D01*
X0564987Y0037511D01*
X0564877Y0037624D01*
X0564770Y0037740D01*
X0564666Y0037858D01*
X0564565Y0037980D01*
X0564468Y0038103D01*
X0564373Y0038230D01*
X0564282Y0038358D01*
X0564193Y0038489D01*
X0564109Y0038622D01*
X0564027Y0038757D01*
X0563949Y0038894D01*
X0563875Y0039033D01*
X0563804Y0039174D01*
X0563736Y0039316D01*
X0563673Y0039461D01*
X0563612Y0039606D01*
X0563556Y0039754D01*
X0563503Y0039902D01*
X0563454Y0040052D01*
X0563409Y0040203D01*
X0563368Y0040356D01*
X0563330Y0040509D01*
X0563297Y0040663D01*
X0563267Y0040818D01*
X0563241Y0040973D01*
X0563220Y0041130D01*
X0563202Y0041286D01*
X0563188Y0041443D01*
X0563178Y0041601D01*
X0563172Y0041758D01*
X0563170Y0041916D01*
M02*
