G75*
%MOIN*%
%OFA0B0*%
%FSLAX25Y25*%
%IPPOS*%
%LPD*%
%AMOC8*
5,1,8,0,0,1.08239X$1,22.5*
%
%ADD10C,0.01600*%
%ADD11C,0.09800*%
%ADD12C,0.05750*%
%ADD13C,0.13300*%
%ADD14C,0.02584*%
%ADD15R,0.05524X0.05524*%
%ADD16C,0.05524*%
%ADD17C,0.04737*%
%ADD18C,0.03556*%
%ADD19OC8,0.06800*%
%ADD20C,0.06800*%
%ADD21C,0.06800*%
%ADD22C,0.04343*%
%ADD23C,0.06706*%
%ADD24C,0.13560*%
%ADD25C,0.14150*%
%ADD26C,0.10249*%
D10*
X0323357Y0275971D02*
X0323359Y0275998D01*
X0323365Y0276025D01*
X0323374Y0276051D01*
X0323387Y0276075D01*
X0323403Y0276098D01*
X0323422Y0276117D01*
X0323444Y0276134D01*
X0323468Y0276148D01*
X0323493Y0276158D01*
X0323520Y0276165D01*
X0323547Y0276168D01*
X0323575Y0276167D01*
X0323602Y0276162D01*
X0323628Y0276154D01*
X0323652Y0276142D01*
X0323675Y0276126D01*
X0323696Y0276108D01*
X0323713Y0276087D01*
X0323728Y0276063D01*
X0323739Y0276038D01*
X0323747Y0276012D01*
X0323751Y0275985D01*
X0323751Y0275957D01*
X0323747Y0275930D01*
X0323739Y0275904D01*
X0323728Y0275879D01*
X0323713Y0275855D01*
X0323696Y0275834D01*
X0323675Y0275816D01*
X0323653Y0275800D01*
X0323628Y0275788D01*
X0323602Y0275780D01*
X0323575Y0275775D01*
X0323547Y0275774D01*
X0323520Y0275777D01*
X0323493Y0275784D01*
X0323468Y0275794D01*
X0323444Y0275808D01*
X0323422Y0275825D01*
X0323403Y0275844D01*
X0323387Y0275867D01*
X0323374Y0275891D01*
X0323365Y0275917D01*
X0323359Y0275944D01*
X0323357Y0275971D01*
X0325129Y0278530D02*
X0325131Y0278557D01*
X0325137Y0278584D01*
X0325146Y0278610D01*
X0325159Y0278634D01*
X0325175Y0278657D01*
X0325194Y0278676D01*
X0325216Y0278693D01*
X0325240Y0278707D01*
X0325265Y0278717D01*
X0325292Y0278724D01*
X0325319Y0278727D01*
X0325347Y0278726D01*
X0325374Y0278721D01*
X0325400Y0278713D01*
X0325424Y0278701D01*
X0325447Y0278685D01*
X0325468Y0278667D01*
X0325485Y0278646D01*
X0325500Y0278622D01*
X0325511Y0278597D01*
X0325519Y0278571D01*
X0325523Y0278544D01*
X0325523Y0278516D01*
X0325519Y0278489D01*
X0325511Y0278463D01*
X0325500Y0278438D01*
X0325485Y0278414D01*
X0325468Y0278393D01*
X0325447Y0278375D01*
X0325425Y0278359D01*
X0325400Y0278347D01*
X0325374Y0278339D01*
X0325347Y0278334D01*
X0325319Y0278333D01*
X0325292Y0278336D01*
X0325265Y0278343D01*
X0325240Y0278353D01*
X0325216Y0278367D01*
X0325194Y0278384D01*
X0325175Y0278403D01*
X0325159Y0278426D01*
X0325146Y0278450D01*
X0325137Y0278476D01*
X0325131Y0278503D01*
X0325129Y0278530D01*
X0323357Y0281089D02*
X0323359Y0281116D01*
X0323365Y0281143D01*
X0323374Y0281169D01*
X0323387Y0281193D01*
X0323403Y0281216D01*
X0323422Y0281235D01*
X0323444Y0281252D01*
X0323468Y0281266D01*
X0323493Y0281276D01*
X0323520Y0281283D01*
X0323547Y0281286D01*
X0323575Y0281285D01*
X0323602Y0281280D01*
X0323628Y0281272D01*
X0323652Y0281260D01*
X0323675Y0281244D01*
X0323696Y0281226D01*
X0323713Y0281205D01*
X0323728Y0281181D01*
X0323739Y0281156D01*
X0323747Y0281130D01*
X0323751Y0281103D01*
X0323751Y0281075D01*
X0323747Y0281048D01*
X0323739Y0281022D01*
X0323728Y0280997D01*
X0323713Y0280973D01*
X0323696Y0280952D01*
X0323675Y0280934D01*
X0323653Y0280918D01*
X0323628Y0280906D01*
X0323602Y0280898D01*
X0323575Y0280893D01*
X0323547Y0280892D01*
X0323520Y0280895D01*
X0323493Y0280902D01*
X0323468Y0280912D01*
X0323444Y0280926D01*
X0323422Y0280943D01*
X0323403Y0280962D01*
X0323387Y0280985D01*
X0323374Y0281009D01*
X0323365Y0281035D01*
X0323359Y0281062D01*
X0323357Y0281089D01*
X0326900Y0281089D02*
X0326902Y0281116D01*
X0326908Y0281143D01*
X0326917Y0281169D01*
X0326930Y0281193D01*
X0326946Y0281216D01*
X0326965Y0281235D01*
X0326987Y0281252D01*
X0327011Y0281266D01*
X0327036Y0281276D01*
X0327063Y0281283D01*
X0327090Y0281286D01*
X0327118Y0281285D01*
X0327145Y0281280D01*
X0327171Y0281272D01*
X0327195Y0281260D01*
X0327218Y0281244D01*
X0327239Y0281226D01*
X0327256Y0281205D01*
X0327271Y0281181D01*
X0327282Y0281156D01*
X0327290Y0281130D01*
X0327294Y0281103D01*
X0327294Y0281075D01*
X0327290Y0281048D01*
X0327282Y0281022D01*
X0327271Y0280997D01*
X0327256Y0280973D01*
X0327239Y0280952D01*
X0327218Y0280934D01*
X0327196Y0280918D01*
X0327171Y0280906D01*
X0327145Y0280898D01*
X0327118Y0280893D01*
X0327090Y0280892D01*
X0327063Y0280895D01*
X0327036Y0280902D01*
X0327011Y0280912D01*
X0326987Y0280926D01*
X0326965Y0280943D01*
X0326946Y0280962D01*
X0326930Y0280985D01*
X0326917Y0281009D01*
X0326908Y0281035D01*
X0326902Y0281062D01*
X0326900Y0281089D01*
X0326900Y0275971D02*
X0326902Y0275998D01*
X0326908Y0276025D01*
X0326917Y0276051D01*
X0326930Y0276075D01*
X0326946Y0276098D01*
X0326965Y0276117D01*
X0326987Y0276134D01*
X0327011Y0276148D01*
X0327036Y0276158D01*
X0327063Y0276165D01*
X0327090Y0276168D01*
X0327118Y0276167D01*
X0327145Y0276162D01*
X0327171Y0276154D01*
X0327195Y0276142D01*
X0327218Y0276126D01*
X0327239Y0276108D01*
X0327256Y0276087D01*
X0327271Y0276063D01*
X0327282Y0276038D01*
X0327290Y0276012D01*
X0327294Y0275985D01*
X0327294Y0275957D01*
X0327290Y0275930D01*
X0327282Y0275904D01*
X0327271Y0275879D01*
X0327256Y0275855D01*
X0327239Y0275834D01*
X0327218Y0275816D01*
X0327196Y0275800D01*
X0327171Y0275788D01*
X0327145Y0275780D01*
X0327118Y0275775D01*
X0327090Y0275774D01*
X0327063Y0275777D01*
X0327036Y0275784D01*
X0327011Y0275794D01*
X0326987Y0275808D01*
X0326965Y0275825D01*
X0326946Y0275844D01*
X0326930Y0275867D01*
X0326917Y0275891D01*
X0326908Y0275917D01*
X0326902Y0275944D01*
X0326900Y0275971D01*
X0162924Y0341129D02*
X0162926Y0341156D01*
X0162932Y0341183D01*
X0162941Y0341209D01*
X0162954Y0341233D01*
X0162970Y0341256D01*
X0162989Y0341275D01*
X0163011Y0341292D01*
X0163035Y0341306D01*
X0163060Y0341316D01*
X0163087Y0341323D01*
X0163114Y0341326D01*
X0163142Y0341325D01*
X0163169Y0341320D01*
X0163195Y0341312D01*
X0163219Y0341300D01*
X0163242Y0341284D01*
X0163263Y0341266D01*
X0163280Y0341245D01*
X0163295Y0341221D01*
X0163306Y0341196D01*
X0163314Y0341170D01*
X0163318Y0341143D01*
X0163318Y0341115D01*
X0163314Y0341088D01*
X0163306Y0341062D01*
X0163295Y0341037D01*
X0163280Y0341013D01*
X0163263Y0340992D01*
X0163242Y0340974D01*
X0163220Y0340958D01*
X0163195Y0340946D01*
X0163169Y0340938D01*
X0163142Y0340933D01*
X0163114Y0340932D01*
X0163087Y0340935D01*
X0163060Y0340942D01*
X0163035Y0340952D01*
X0163011Y0340966D01*
X0162989Y0340983D01*
X0162970Y0341002D01*
X0162954Y0341025D01*
X0162941Y0341049D01*
X0162932Y0341075D01*
X0162926Y0341102D01*
X0162924Y0341129D01*
X0158987Y0341129D02*
X0158989Y0341156D01*
X0158995Y0341183D01*
X0159004Y0341209D01*
X0159017Y0341233D01*
X0159033Y0341256D01*
X0159052Y0341275D01*
X0159074Y0341292D01*
X0159098Y0341306D01*
X0159123Y0341316D01*
X0159150Y0341323D01*
X0159177Y0341326D01*
X0159205Y0341325D01*
X0159232Y0341320D01*
X0159258Y0341312D01*
X0159282Y0341300D01*
X0159305Y0341284D01*
X0159326Y0341266D01*
X0159343Y0341245D01*
X0159358Y0341221D01*
X0159369Y0341196D01*
X0159377Y0341170D01*
X0159381Y0341143D01*
X0159381Y0341115D01*
X0159377Y0341088D01*
X0159369Y0341062D01*
X0159358Y0341037D01*
X0159343Y0341013D01*
X0159326Y0340992D01*
X0159305Y0340974D01*
X0159283Y0340958D01*
X0159258Y0340946D01*
X0159232Y0340938D01*
X0159205Y0340933D01*
X0159177Y0340932D01*
X0159150Y0340935D01*
X0159123Y0340942D01*
X0159098Y0340952D01*
X0159074Y0340966D01*
X0159052Y0340983D01*
X0159033Y0341002D01*
X0159017Y0341025D01*
X0159004Y0341049D01*
X0158995Y0341075D01*
X0158989Y0341102D01*
X0158987Y0341129D01*
X0158987Y0345066D02*
X0158989Y0345093D01*
X0158995Y0345120D01*
X0159004Y0345146D01*
X0159017Y0345170D01*
X0159033Y0345193D01*
X0159052Y0345212D01*
X0159074Y0345229D01*
X0159098Y0345243D01*
X0159123Y0345253D01*
X0159150Y0345260D01*
X0159177Y0345263D01*
X0159205Y0345262D01*
X0159232Y0345257D01*
X0159258Y0345249D01*
X0159282Y0345237D01*
X0159305Y0345221D01*
X0159326Y0345203D01*
X0159343Y0345182D01*
X0159358Y0345158D01*
X0159369Y0345133D01*
X0159377Y0345107D01*
X0159381Y0345080D01*
X0159381Y0345052D01*
X0159377Y0345025D01*
X0159369Y0344999D01*
X0159358Y0344974D01*
X0159343Y0344950D01*
X0159326Y0344929D01*
X0159305Y0344911D01*
X0159283Y0344895D01*
X0159258Y0344883D01*
X0159232Y0344875D01*
X0159205Y0344870D01*
X0159177Y0344869D01*
X0159150Y0344872D01*
X0159123Y0344879D01*
X0159098Y0344889D01*
X0159074Y0344903D01*
X0159052Y0344920D01*
X0159033Y0344939D01*
X0159017Y0344962D01*
X0159004Y0344986D01*
X0158995Y0345012D01*
X0158989Y0345039D01*
X0158987Y0345066D01*
X0162924Y0345066D02*
X0162926Y0345093D01*
X0162932Y0345120D01*
X0162941Y0345146D01*
X0162954Y0345170D01*
X0162970Y0345193D01*
X0162989Y0345212D01*
X0163011Y0345229D01*
X0163035Y0345243D01*
X0163060Y0345253D01*
X0163087Y0345260D01*
X0163114Y0345263D01*
X0163142Y0345262D01*
X0163169Y0345257D01*
X0163195Y0345249D01*
X0163219Y0345237D01*
X0163242Y0345221D01*
X0163263Y0345203D01*
X0163280Y0345182D01*
X0163295Y0345158D01*
X0163306Y0345133D01*
X0163314Y0345107D01*
X0163318Y0345080D01*
X0163318Y0345052D01*
X0163314Y0345025D01*
X0163306Y0344999D01*
X0163295Y0344974D01*
X0163280Y0344950D01*
X0163263Y0344929D01*
X0163242Y0344911D01*
X0163220Y0344895D01*
X0163195Y0344883D01*
X0163169Y0344875D01*
X0163142Y0344870D01*
X0163114Y0344869D01*
X0163087Y0344872D01*
X0163060Y0344879D01*
X0163035Y0344889D01*
X0163011Y0344903D01*
X0162989Y0344920D01*
X0162970Y0344939D01*
X0162954Y0344962D01*
X0162941Y0344986D01*
X0162932Y0345012D01*
X0162926Y0345039D01*
X0162924Y0345066D01*
D11*
X0150089Y0384436D03*
X0177727Y0384436D03*
D12*
X0173456Y0372625D03*
X0154361Y0372625D03*
D13*
X0026113Y0041916D03*
X0026113Y0368688D03*
X0569420Y0368688D03*
X0569420Y0041916D03*
D14*
X0293830Y0215144D03*
X0228475Y0225774D03*
X0313711Y0268294D03*
X0312924Y0274199D03*
X0376507Y0278136D03*
X0385168Y0267113D03*
X0376507Y0347822D03*
X0130444Y0358058D03*
D15*
X0025050Y0282585D03*
X0076782Y0040853D03*
X0328751Y0040853D03*
X0570483Y0111089D03*
D16*
X0560483Y0111089D03*
X0560483Y0121089D03*
X0570483Y0121089D03*
X0570483Y0131089D03*
X0560483Y0131089D03*
X0560483Y0141089D03*
X0570483Y0141089D03*
X0570483Y0151089D03*
X0560483Y0151089D03*
X0560483Y0161089D03*
X0570483Y0161089D03*
X0570483Y0171089D03*
X0560483Y0171089D03*
X0560483Y0181089D03*
X0570483Y0181089D03*
X0570483Y0191089D03*
X0560483Y0191089D03*
X0560483Y0201089D03*
X0570483Y0201089D03*
X0518751Y0050853D03*
X0518751Y0040853D03*
X0508751Y0040853D03*
X0508751Y0050853D03*
X0498751Y0050853D03*
X0488751Y0050853D03*
X0488751Y0040853D03*
X0498751Y0040853D03*
X0478751Y0040853D03*
X0478751Y0050853D03*
X0468751Y0050853D03*
X0458751Y0050853D03*
X0458751Y0040853D03*
X0468751Y0040853D03*
X0448751Y0040853D03*
X0448751Y0050853D03*
X0438751Y0050853D03*
X0428751Y0050853D03*
X0428751Y0040853D03*
X0438751Y0040853D03*
X0418751Y0040853D03*
X0408751Y0040853D03*
X0408751Y0050853D03*
X0418751Y0050853D03*
X0398751Y0050853D03*
X0398751Y0040853D03*
X0388751Y0040853D03*
X0378751Y0040853D03*
X0378751Y0050853D03*
X0388751Y0050853D03*
X0368751Y0050853D03*
X0368751Y0040853D03*
X0358751Y0040853D03*
X0348751Y0040853D03*
X0348751Y0050853D03*
X0358751Y0050853D03*
X0338751Y0050853D03*
X0338751Y0040853D03*
X0328751Y0050853D03*
X0266782Y0050853D03*
X0256782Y0050853D03*
X0246782Y0050853D03*
X0236782Y0050853D03*
X0226782Y0050853D03*
X0216782Y0050853D03*
X0206782Y0050853D03*
X0196782Y0050853D03*
X0186782Y0050853D03*
X0176782Y0050853D03*
X0166782Y0050853D03*
X0156782Y0050853D03*
X0146782Y0050853D03*
X0136782Y0050853D03*
X0126782Y0050853D03*
X0116782Y0050853D03*
X0106782Y0050853D03*
X0096782Y0050853D03*
X0086782Y0050853D03*
X0076782Y0050853D03*
X0086782Y0040853D03*
X0096782Y0040853D03*
X0106782Y0040853D03*
X0116782Y0040853D03*
X0126782Y0040853D03*
X0136782Y0040853D03*
X0146782Y0040853D03*
X0156782Y0040853D03*
X0166782Y0040853D03*
X0176782Y0040853D03*
X0186782Y0040853D03*
X0196782Y0040853D03*
X0206782Y0040853D03*
X0216782Y0040853D03*
X0226782Y0040853D03*
X0236782Y0040853D03*
X0246782Y0040853D03*
X0256782Y0040853D03*
X0266782Y0040853D03*
X0035050Y0092585D03*
X0025050Y0092585D03*
X0025050Y0102585D03*
X0035050Y0102585D03*
X0035050Y0112585D03*
X0025050Y0112585D03*
X0025050Y0122585D03*
X0035050Y0122585D03*
X0035050Y0132585D03*
X0025050Y0132585D03*
X0025050Y0142585D03*
X0035050Y0142585D03*
X0035050Y0152585D03*
X0025050Y0152585D03*
X0025050Y0162585D03*
X0035050Y0162585D03*
X0035050Y0172585D03*
X0025050Y0172585D03*
X0025050Y0182585D03*
X0035050Y0182585D03*
X0035050Y0192585D03*
X0025050Y0192585D03*
X0025050Y0202585D03*
X0035050Y0202585D03*
X0035050Y0212585D03*
X0025050Y0212585D03*
X0025050Y0222585D03*
X0035050Y0222585D03*
X0035050Y0232585D03*
X0025050Y0232585D03*
X0025050Y0242585D03*
X0035050Y0242585D03*
X0035050Y0252585D03*
X0025050Y0252585D03*
X0025050Y0262585D03*
X0035050Y0262585D03*
X0035050Y0272585D03*
X0025050Y0272585D03*
X0035050Y0282585D03*
D17*
X0229853Y0303530D03*
X0268042Y0329908D03*
X0256822Y0370853D03*
X0309578Y0259633D03*
D18*
X0292255Y0243491D03*
X0251310Y0202546D03*
X0233987Y0202152D03*
X0256822Y0159633D03*
X0239499Y0152743D03*
X0196389Y0142113D03*
X0196585Y0132861D03*
X0160365Y0137585D03*
X0161349Y0149003D03*
X0089105Y0118294D03*
X0167058Y0061404D03*
X0161546Y0046247D03*
X0419814Y0141916D03*
X0432412Y0154121D03*
X0445601Y0153727D03*
X0443830Y0140932D03*
X0439499Y0113373D03*
X0432609Y0110026D03*
X0485759Y0098412D03*
X0502491Y0109436D03*
X0484971Y0144081D03*
X0490877Y0153530D03*
X0511349Y0153530D03*
X0491270Y0182467D03*
X0511546Y0185420D03*
X0444617Y0185420D03*
X0419814Y0187192D03*
X0213121Y0329711D03*
X0173160Y0355892D03*
X0151704Y0351955D03*
X0151704Y0345656D03*
X0135562Y0363373D03*
X0086349Y0338373D03*
X0118830Y0314357D03*
X0125916Y0324790D03*
X0081625Y0370066D03*
X0119814Y0237979D03*
X0115483Y0234436D03*
D19*
X0225837Y0371562D03*
X0235837Y0371562D03*
X0235837Y0381562D03*
X0225837Y0381562D03*
D20*
X0230444Y0345318D02*
X0230444Y0339318D01*
X0230444Y0329318D02*
X0230444Y0323318D01*
X0220444Y0323318D02*
X0220444Y0329318D01*
X0240444Y0329318D02*
X0240444Y0323318D01*
X0044774Y0315388D02*
X0044774Y0309388D01*
X0034774Y0309388D02*
X0034774Y0315388D01*
X0024774Y0315388D02*
X0024774Y0309388D01*
X0269144Y0166570D02*
X0269144Y0160570D01*
X0279144Y0160570D02*
X0279144Y0166570D01*
X0388861Y0118963D02*
X0394861Y0118963D01*
X0394861Y0108963D02*
X0388861Y0108963D01*
D21*
X0240444Y0339318D03*
X0220444Y0339318D03*
D22*
X0197963Y0346837D03*
X0134578Y0342113D03*
X0114302Y0317703D03*
X0044617Y0334436D03*
X0235759Y0300774D03*
X0285562Y0284436D03*
X0295798Y0314751D03*
X0299341Y0318294D03*
X0348948Y0250577D03*
X0349144Y0232861D03*
X0312924Y0209829D03*
X0292648Y0228924D03*
X0263908Y0237192D03*
X0246585Y0238766D03*
X0280247Y0190735D03*
X0345798Y0150774D03*
X0338121Y0142703D03*
X0365089Y0129711D03*
X0393830Y0149593D03*
X0399144Y0149396D03*
X0399144Y0154711D03*
X0303672Y0087585D03*
X0323751Y0079908D03*
X0190680Y0119081D03*
X0127688Y0121640D03*
X0075522Y0078924D03*
X0085168Y0189357D03*
X0504656Y0232270D03*
D23*
X0553869Y0285026D03*
X0553869Y0302743D03*
X0579459Y0302743D03*
X0579459Y0285026D03*
X0579459Y0328333D03*
X0579459Y0346050D03*
X0553869Y0346050D03*
X0553869Y0328333D03*
D24*
X0316664Y0352546D03*
X0303672Y0361601D03*
X0290680Y0352546D03*
D25*
X0289105Y0381680D03*
X0318239Y0381680D03*
D26*
X0303672Y0377349D03*
M02*
