%
M48
M72
T01C0.0100
T02C0.0236
T03C0.0315
T04C0.0330
T05C0.0394
T06C0.0400
T07C0.0512
T08C0.0600
T09C0.0876
T10C0.0935
T11C0.0945
T12C0.1250
%
T01
X2980Y1926
X1012Y2083
X815Y5843
X776Y7910
X795Y9563
X795Y10587
X815Y11552
X795Y12575
X795Y13599
X756Y14583
X795Y15567
X795Y16591
X756Y17674
X795Y18579
X795Y19603
X795Y21571
X795Y22595
X795Y23737
X795Y25036
X795Y26060
X4713Y25508
X6445Y25941
X6504Y26552
X6524Y27162
X6012Y27241
X6209Y27634
X5618Y27634
X5421Y27241
X5028Y27634
X4831Y27241
X8118Y26571
X8748Y27123
X9831Y26945
X10362Y25508
X8807Y24780
X10815Y23126
X10677Y22733
X10638Y22280
X11228Y22752
X11465Y23166
X12843Y22772
X12941Y23205
X13630Y23363
X13768Y22989
X14791Y22713
X14634Y22398
X14083Y22142
X14181Y21276
X14752Y21552
X14752Y20666
X15539Y20548
X16012Y19957
X15736Y19682
X15441Y19347
X14791Y19012
X14516Y19308
X14988Y18579
X15067Y18186
X14909Y17949
X15303Y17752
X14516Y17418
X14260Y17241
X14083Y17024
X13768Y17359
X13571Y17201
X14201Y17556
X14417Y16670
X14378Y16374
X15047Y16138
X15087Y16650
X15933Y16532
X16937Y16374
X17744Y16374
X18433Y16099
X18866Y15705
X19260Y15705
X19890Y16099
X20402Y15705
X21012Y16138
X20717Y16650
X20913Y16867
X21287Y16689
X21622Y17182
X22016Y17162
X21957Y17536
X21228Y17260
X20933Y17595
X19870Y17300
X19004Y17241
X18866Y16867
X18433Y17437
X18217Y17615
X17843Y17221
X18039Y17044
X17528Y17989
X17744Y18737
X16799Y18737
X15972Y18638
X13925Y18619
X13610Y18422
X13551Y18737
X13315Y18186
X12626Y18658
X12429Y18304
X11819Y17516
X11228Y17103
X11268Y16827
X10776Y16099
X12016Y16296
X12154Y15863
X12803Y15764
X12961Y15252
X13413Y14504
X13581Y14278
X13650Y14760
X14024Y14524
X14161Y14268
X14555Y14229
X14713Y14012
X14358Y13697
X16091Y12871
X16248Y13067
X16445Y12733
X16445Y12457
X16957Y12044
X16976Y11689
X17429Y11493
X18020Y12123
X18020Y12457
X18335Y13638
X18512Y13973
X18866Y14288
X19083Y14878
X19260Y15115
X19516Y15134
X19850Y14957
X21169Y14800
X22016Y15016
X22173Y15272
X22449Y16079
X23374Y16630
X23157Y16945
X23768Y16552
X24142Y16493
X23906Y16197
X25224Y15843
X25087Y15430
X25500Y15449
X26445Y15036
X26209Y14839
X25756Y14426
X25972Y13441
X25598Y12989
X26366Y12398
X26366Y11748
X27606Y11394
X28591Y11374
X29594Y11374
X30323Y11000
X30323Y10056
X30618Y9386
X29909Y8579
X30028Y7969
X29181Y7477
X28846Y7477
X28748Y7930
X28098Y7693
X29535Y6847
X31642Y7949
X32154Y7910
X33157Y7260
X34988Y8245
X33610Y9209
X33236Y9918
X32626Y10036
X31878Y10036
X31878Y9288
X35185Y10922
X35185Y11276
X35185Y11768
X35185Y12103
X35421Y12536
X35421Y12890
X34831Y12674
X33236Y12654
X31307Y12615
X31386Y14367
X33256Y14406
X34732Y15646
X35362Y15784
X35362Y15489
X35598Y15213
X35598Y14898
X36878Y14248
X37035Y14406
X37055Y15115
X37035Y15626
X37035Y15902
X36583Y16296
X37508Y16729
X37902Y16729
X37902Y17044
X38197Y16945
X38768Y16414
X38118Y16158
X39299Y15115
X38768Y14288
X37941Y13422
X37941Y13166
X37665Y12752
X37429Y12615
X37921Y12634
X38512Y12083
X38295Y11552
X40205Y12201
X40854Y12319
X41071Y12123
X41071Y11768
X40441Y11237
X40421Y10351
X41051Y9662
X41976Y9229
X41602Y8225
X42705Y8264
X43551Y9012
X43846Y8796
X44240Y8363
X45146Y8579
X45559Y8363
X46130Y8540
X46583Y8796
X47469Y9012
X47724Y9229
X47882Y9465
X48177Y9937
X48571Y9957
X50106Y10410
X50894Y10764
X52547Y9918
X53276Y9957
X53768Y9682
X53571Y10823
X52547Y12123
X53276Y12752
X50913Y11768
X50717Y12280
X49949Y11768
X49752Y11768
X49831Y12752
X50146Y13599
X50992Y13973
X50913Y15174
X50283Y14977
X49752Y15174
X49752Y16178
X49949Y16178
X50894Y16158
X50638Y17300
X50106Y18008
X50815Y18205
X51406Y17969
X49752Y18776
X48846Y18067
X48374Y18481
X47803Y18441
X47055Y18048
X46602Y18028
X46169Y16650
X46169Y16138
X46563Y15666
X47429Y15626
X47055Y15233
X46130Y14760
X46268Y13894
X47114Y13658
X47114Y12989
X47114Y12713
X46268Y12516
X46307Y12123
X46150Y11768
X46563Y11591
X47252Y11315
X46150Y10686
X46937Y10351
X46780Y9662
X44870Y9878
X44535Y9878
X44280Y9662
X43768Y9662
X43098Y9406
X43138Y10764
X44201Y10764
X44201Y11748
X43256Y11768
X43059Y11768
X43906Y12772
X43453Y13579
X43118Y13914
X43020Y14288
X43965Y14485
X44240Y15174
X43138Y15233
X43079Y16178
X43276Y16178
X44220Y16158
X43984Y17674
X44161Y18205
X44713Y17989
X43453Y18008
X42232Y18126
X41150Y17497
X41110Y16670
X40736Y16729
X41110Y16158
X40362Y16079
X39732Y16158
X39870Y17398
X40402Y18067
X40736Y18441
X36996Y19603
X35795Y19623
X34614Y18481
X34949Y18441
X34339Y18284
X34004Y18481
X33965Y19229
X34181Y19229
X33748Y19229
X32370Y18894
X32016Y18894
X31642Y18894
X30795Y18638
X30264Y18737
X30067Y19012
X29870Y18737
X29594Y19229
X29358Y19229
X28768Y18855
X28177Y19445
X28098Y20154
X28433Y20607
X28748Y20607
X29063Y20607
X29339Y20292
X29654Y20292
X28256Y20882
X27508Y21630
X27508Y22241
X27508Y22713
X27154Y22713
X26819Y22713
X25717Y22437
X25717Y22182
X25402Y22103
X24732Y21768
X24516Y21296
X24791Y21099
X24772Y20567
X24949Y19780
X25500Y19741
X25165Y18973
X24969Y18678
X24831Y18382
X25067Y18225
X25736Y18205
X25776Y17910
X25539Y17713
X26071Y18008
X25913Y18717
X26051Y18953
X24594Y18914
X23866Y18993
X23098Y18363
X22764Y18599
X22449Y18599
X21957Y18855
X21228Y18737
X19969Y18697
X19693Y18638
X19437Y18874
X18768Y18638
X18650Y18402
X18630Y18874
X18433Y19839
X17744Y20252
X18413Y20823
X18413Y21473
X18886Y21926
X19063Y22182
X19752Y23225
X20224Y23422
X20461Y23186
X20283Y22969
X19634Y23815
X18630Y24426
X18748Y24819
X18492Y25134
X17980Y25095
X18020Y25410
X17626Y25626
X18177Y26060
X19122Y26138
X19280Y26296
X19161Y26591
X19949Y25961
X19476Y25449
X20657Y25272
X21307Y25646
X21760Y25193
X21248Y24504
X21583Y23756
X22173Y23815
X23354Y23186
X23098Y22398
X23374Y22319
X23965Y22477
X24417Y23225
X26248Y23835
X26878Y24367
X27606Y24563
X28276Y23874
X28669Y23304
X29870Y22969
X30953Y22851
X31189Y22851
X31720Y23186
X32528Y23186
X33000Y22792
X32980Y23953
X33591Y23953
X34122Y24209
X35933Y22182
X35539Y20961
X33059Y20154
X32606Y20489
X32291Y20489
X31976Y20489
X31780Y20174
X31504Y20174
X29890Y17024
X29457Y16591
X31346Y15764
X33256Y15784
X34004Y16512
X34496Y16512
X34476Y16079
X34949Y16079
X35185Y16355
X35854Y16335
X40362Y13993
X41130Y13186
X41878Y14012
X44181Y13796
X44713Y13540
X45047Y14111
X47823Y14406
X48886Y13658
X47823Y13205
X47843Y16178
X47843Y16670
X47390Y16689
X50933Y18934
X52803Y19327
X53256Y19130
X52823Y18540
X52902Y16630
X52921Y16178
X53768Y15233
X53256Y14386
X53512Y14268
X52941Y14170
X59280Y15154
X59280Y11217
X59280Y7280
X53531Y8126
X53256Y7556
X52508Y7595
X52094Y7378
X51583Y7831
X51130Y7871
X49713Y8540
X51287Y9445
X47154Y8028
X47902Y6670
X48217Y6670
X48276Y6374
X48807Y6296
X49339Y6217
X49339Y5882
X49693Y5804
X45854Y6571
X41287Y6689
X39417Y7201
X40657Y8579
X38394Y8973
X38118Y8973
X37843Y8973
X37567Y8973
X35992Y9308
X35618Y10548
X27980Y12811
X25382Y10449
X25953Y10193
X27094Y10016
X27094Y9229
X26248Y8008
X25933Y7556
X26130Y7300
X25362Y6689
X25067Y6571
X24535Y7536
X24122Y7575
X23000Y6886
X22862Y7083
X22724Y6689
X22626Y6453
X22390Y6335
X21543Y6217
X20776Y7359
X20972Y7575
X20441Y7319
X19988Y7556
X19575Y7123
X18925Y6689
X19142Y6414
X19398Y6099
X19791Y6414
X18295Y5686
X17547Y6315
X17882Y6591
X17961Y7280
X18039Y7556
X16957Y7477
X16602Y6886
X16051Y7083
X15815Y6256
X15500Y6138
X16268Y5902
X17016Y5804
X13020Y5902
X12528Y6020
X11976Y5823
X11543Y5567
X10382Y7103
X9929Y7989
X9614Y7772
X11091Y8284
X11780Y9052
X12035Y9130
X12449Y8087
X12744Y8205
X13433Y8382
X14122Y8441
X14693Y8560
X15067Y8776
X13925Y9583
X15244Y9741
X15972Y10528
X16563Y10823
X16819Y10410
X17154Y10626
X16287Y10016
X16996Y8678
X18217Y9347
X18354Y9130
X18531Y8914
X18138Y9878
X18945Y11217
X19220Y11020
X19476Y11020
X19752Y10961
X20913Y10233
X21346Y10567
X21543Y11178
X22193Y10587
X22646Y11158
X22961Y10705
X23669Y11158
X24713Y10489
X23256Y12004
X22449Y11945
X22409Y12437
X21996Y12654
X20953Y12339
X20992Y13087
X20854Y13540
X20972Y13855
X19978Y13727
X19959Y13471
X19594Y13402
X18512Y14918
X17429Y15430
X16937Y15390
X16327Y15508
X15717Y15508
X15539Y15272
X17114Y14682
X16386Y14386
X16937Y13993
X15362Y12575
X14890Y12123
X14496Y12201
X13689Y12201
X14890Y11611
X13256Y11020
X12783Y10902
X12232Y10174
X11976Y10174
X10835Y9583
X10500Y9997
X9929Y10449
X9929Y10941
X9476Y11729
X8807Y12103
X7902Y11945
X6346Y12733
X6543Y13028
X7370Y13540
X7213Y13737
X7449Y12851
X6130Y12083
X5933Y11729
X5205Y11493
X5500Y11079
X5736Y10469
X4929Y10075
X6130Y9485
X6346Y9189
X6543Y9012
X5933Y8894
X8492Y9248
X8945Y9170
X9142Y9386
X8846Y9563
X9358Y9052
X12823Y7182
X8138Y6571
X7803Y6374
X8020Y6178
X7764Y5981
X7980Y5784
X6957Y5843
X11819Y2260
X13020Y1945
X14043Y1945
X15028Y2280
X16051Y1965
X17075Y1965
X18059Y2280
X19024Y1945
X20047Y1945
X21071Y2260
X22016Y1965
X23039Y1945
X24024Y2260
X25008Y1945
X26031Y1945
X27783Y1926
X32311Y1926
X35913Y1945
X36937Y1945
X38492Y1965
X39909Y1945
X40933Y1945
X42213Y2004
X43394Y1945
X44417Y1945
X45638Y2004
X46898Y1945
X47921Y1945
X49280Y1985
X50402Y1945
X51425Y1945
X53354Y2004
X55343Y1926
X58984Y2182
X59280Y3343
X59280Y19091
X54850Y21512
X53256Y20941
X50657Y21985
X49319Y20941
X49024Y20311
X48531Y20351
X47803Y20075
X47488Y20193
X47350Y20941
X46130Y22713
X45362Y23166
X45362Y23560
X44339Y25213
X40657Y25666
X40441Y25882
X40264Y25528
X38610Y25508
X38610Y25764
X38610Y26079
X38768Y26532
X41091Y29091
X41445Y29111
X41681Y29308
X43217Y30193
X40657Y31158
X39063Y31552
X38571Y31119
X37094Y31138
X36760Y31138
X36031Y31138
X35579Y31138
X34555Y30252
X34339Y30528
X34909Y29760
X35224Y29071
X35087Y28363
X32882Y28028
X32783Y29997
X32783Y30390
X32390Y30390
X32390Y29997
X33177Y29997
X33177Y30390
X33177Y30784
X32783Y30784
X32390Y30784
X32350Y31532
X32823Y31532
X33295Y31552
X33827Y31552
X33846Y32693
X34240Y32674
X34732Y32674
X35500Y32398
X36642Y32398
X37114Y32516
X36780Y33304
X35559Y34485
X36602Y35115
X36602Y35548
X33807Y34977
X32783Y35075
X32783Y35666
X32862Y36709
X33394Y37989
X36287Y37792
X36209Y38776
X40146Y38776
X44083Y38776
X45795Y36867
X47744Y34937
X45402Y33245
X45441Y32241
X46169Y31040
X46346Y30213
X47744Y31000
X49319Y31040
X50894Y31000
X50362Y29760
X48531Y29189
X49713Y28028
X53138Y28028
X54181Y28087
X55244Y28697
X55244Y26178
X54122Y26079
X53650Y24445
X57469Y23796
X57764Y24012
X57764Y24268
X57764Y24544
X57764Y24819
X57764Y25095
X59280Y26965
X59280Y30902
X57587Y31630
X54732Y33343
X54398Y34997
X53276Y36040
X52075Y34859
X51917Y32221
X45835Y28461
X43020Y28028
X37626Y29367
X32764Y32516
X32665Y32752
X31740Y32556
X30638Y32693
X30264Y32418
X30264Y32024
X30657Y31394
X31248Y31532
X30913Y30784
X30736Y30508
X31130Y30272
X31287Y30528
X30382Y30823
X29929Y30961
X29988Y30528
X29673Y30489
X29299Y30489
X28945Y30489
X28610Y30489
X28276Y30489
X30362Y29071
X29594Y27182
X28354Y26571
X28709Y26119
X28669Y25764
X28689Y25508
X30224Y24288
X30559Y23756
X25323Y24563
X25067Y24800
X25283Y24997
X24831Y24977
X24634Y24760
X23866Y26000
X22921Y25331
X22646Y25233
X21346Y26788
X21110Y26788
X21602Y27930
X22528Y28402
X22724Y28619
X24122Y27300
X24909Y27004
X25539Y27575
X20106Y28225
X19319Y27969
X19102Y27693
X18827Y27713
X18433Y27930
X19024Y28382
X18138Y28894
X19024Y29406
X18827Y30036
X18413Y30311
X16091Y31335
X15776Y31020
X14280Y31178
X13669Y31611
X14043Y31945
X14201Y32260
X14083Y32575
X13669Y32575
X14319Y33225
X14673Y32871
X15283Y33225
X15067Y33500
X15067Y33973
X16031Y33796
X16366Y34130
X16031Y34465
X16720Y34465
X16720Y33796
X17665Y33619
X17921Y34071
X17626Y34209
X18413Y34997
X18157Y35331
X17252Y35410
X16445Y35390
X16445Y35607
X16287Y35745
X16071Y35449
X15736Y35449
X15047Y34977
X14929Y34524
X13295Y35626
X12567Y35567
X12213Y35075
X11858Y35075
X11366Y35075
X10972Y35056
X10598Y35548
X9417Y35646
X9024Y35646
X8413Y36453
X10520Y37930
X11484Y37871
X12587Y38776
X13335Y38756
X13354Y37969
X12980Y37280
X13886Y36906
X14083Y36355
X15185Y36532
X15657Y36532
X16012Y36532
X16327Y36552
X14949Y37201
X14417Y37418
X18413Y37123
X18945Y37300
X19299Y36985
X19575Y37378
X20008Y37378
X20421Y36886
X19378Y35134
X18827Y34603
X20224Y33461
X20618Y32713
X21169Y32359
X21169Y31768
X21406Y31335
X17272Y32595
X15657Y32634
X13059Y31867
X12705Y31867
X12173Y31709
X12567Y31079
X11799Y30311
X12232Y30036
X11484Y29209
X11228Y28953
X9516Y29603
X8138Y30272
X9161Y30607
X10362Y30686
X10874Y31788
X11051Y32536
X11228Y32811
X10835Y32811
X10461Y33579
X10717Y34032
X9063Y34189
X8630Y34189
X7783Y34091
X7311Y34130
X6799Y34091
X5323Y34780
X5224Y35745
X8571Y33658
X8177Y33264
X5362Y31512
X6602Y30272
X7055Y30272
X7429Y30626
X5953Y30056
X756Y29485
X756Y33422
X756Y37359
X1091Y38540
X4713Y38776
X8650Y38776
X19063Y38796
X20461Y38776
X24398Y38776
X26878Y37477
X28335Y38776
X29654Y36394
X28197Y35922
X27882Y35922
X32783Y34445
X43846Y34918
X48020Y38776
X51957Y38776
X55894Y38776
X59043Y38520
X59280Y34839
X49378Y24150
X47823Y23579
X50028Y22949
X44988Y20941
X41839Y20941
X41898Y22378
X39083Y20941
X37547Y22949
X26091Y16729
X25854Y16532
X25933Y16178
X26642Y15311
X27862Y15233
X24280Y14760
X23374Y14170
X23217Y14386
X22134Y13658
X23394Y13028
X23256Y12477
X24299Y12477
X24122Y13343
X21524Y9308
X21228Y9367
X20618Y8796
X20283Y8796
X20028Y8993
X20126Y9229
X23197Y8697
X23394Y8894
X23650Y8697
X23906Y8638
X23787Y8245
X24181Y8166
X24772Y9091
X31681Y4997
X13846Y15252
X12567Y16473
X12724Y16650
X12429Y16670
X10972Y17556
X10776Y17792
X10933Y18422
X9988Y18304
X10677Y18894
X10421Y19347
X10402Y19937
X10126Y20311
X9929Y19937
X9496Y19544
X9732Y20646
X8846Y21237
X9516Y21414
X10776Y21237
X11071Y20804
X11228Y20646
X12291Y20311
X12823Y20469
X13630Y19721
X13138Y21138
X13413Y21414
X12646Y22004
X12350Y21847
X11957Y21765
X14024Y24465
X14319Y24563
X13827Y24721
X14732Y25075
X14929Y25311
X16622Y25922
X16917Y26571
X17154Y26571
X17567Y26591
X17114Y24957
X17350Y24839
X17154Y24642
X16957Y24386
X16799Y24150
X16661Y24563
X17350Y24189
X16209Y23914
X14909Y24268
X17783Y23461
X17744Y22752
X19260Y21079
X19516Y20823
X19811Y20174
X20795Y20292
X21327Y20686
X20992Y21453
X21701Y21985
X22587Y22477
X23768Y21552
X22685Y20863
X22350Y20686
X22961Y20311
X23236Y20311
X22843Y19524
X24280Y17871
X11720Y15134
X10913Y14819
X9496Y15095
X7094Y15311
X6996Y15646
X6307Y15469
X6307Y14623
X5736Y13855
X5500Y14071
X5205Y14288
X7488Y16748
X5717Y17123
X7449Y18225
X6248Y19130
X7390Y20075
X6780Y20843
X6248Y21079
X7173Y22083
X4772Y21965
X13492Y26630
X14319Y27004
X15421Y26630
X14791Y29189
X13984Y29248
X9732Y13048
X11760Y12398
X10539Y1945
X9516Y1945
X7980Y1906
X59280Y23028
T02
X40657Y33835
X40657Y34308
X38551Y35489
X35146Y34721
X40067Y31473
X39654Y29209
X37606Y26552
X34417Y23560
X30815Y23323
X27094Y21965
X24909Y23697
X31543Y20804
X28276Y18894
X34831Y14898
X34063Y14091
X32390Y13048
X32390Y12654
X36760Y12792
X39634Y14780
X40165Y14760
X40165Y15292
X30618Y8579
X32626Y7811
X19319Y11729
X13020Y11985
X7803Y7713
X8768Y18756
X23945Y29327
X24634Y29327
X27626Y31119
X27626Y31611
X27921Y34012
X29634Y28422
X19791Y34406
X13709Y34032
X11681Y31591
X4713Y33264
X42232Y36689
T03
X38689Y37477
X37902Y37477
T04
X17596Y37083
X15687Y37083
T05
X3795Y28079
X2795Y28079
X2756Y27079
X3756Y27079
X3756Y26079
X3756Y25079
X2756Y25079
X2756Y26079
X2756Y24079
X2756Y23079
X2756Y22079
X3756Y22079
X3756Y23079
X3756Y24079
X3756Y21079
X3756Y20079
X2756Y20079
X2756Y21079
X2756Y19079
X2756Y18079
X3756Y18079
X3756Y19079
X3756Y17079
X3756Y16079
X2756Y16079
X2756Y17079
X2756Y15079
X2756Y14079
X3756Y14079
X3756Y15079
X3756Y13079
X3756Y12079
X2756Y12079
X2756Y13079
X2756Y11079
X2756Y10079
X3756Y10079
X3756Y11079
X3795Y9079
X2795Y9079
X7535Y4945
X8535Y4906
X9535Y4906
X10535Y4906
X11535Y4906
X12535Y4906
X13535Y4906
X14535Y4906
X15535Y4906
X16535Y4906
X17535Y4906
X18535Y4906
X19535Y4906
X20535Y4906
X21535Y4906
X22535Y4906
X23535Y4906
X24535Y4906
X25535Y4906
X26535Y4945
X26535Y3945
X25535Y3906
X24535Y3906
X23535Y3906
X22535Y3906
X21535Y3906
X20535Y3906
X19535Y3906
X18535Y3906
X17535Y3906
X16535Y3906
X15535Y3906
X14535Y3906
X13535Y3906
X12535Y3906
X11535Y3906
X10535Y3906
X9535Y3906
X8535Y3906
X7535Y3945
X33913Y3945
X34913Y3906
X35913Y3906
X36913Y3906
X37913Y3906
X38913Y3906
X39913Y3906
X40913Y3906
X41913Y3906
X42913Y3906
X43913Y3906
X44913Y3906
X45913Y3906
X46913Y3906
X47913Y3906
X48913Y3906
X49913Y3906
X50913Y3906
X51913Y3906
X52913Y3945
X52913Y4945
X51913Y4906
X50913Y4906
X49913Y4906
X48913Y4906
X47913Y4906
X46913Y4906
X45913Y4906
X44913Y4906
X43913Y4906
X42913Y4906
X41913Y4906
X40913Y4906
X39913Y4906
X38913Y4906
X37913Y4906
X36913Y4906
X35913Y4906
X34913Y4906
X33913Y4945
X56280Y10930
X57280Y10930
X57299Y11930
X56299Y11930
X56299Y12930
X56319Y13930
X57319Y13930
X57299Y12930
X57299Y14930
X57299Y15930
X56299Y15930
X56299Y14930
X56319Y16930
X56299Y17930
X57299Y17930
X57319Y16930
X57299Y18930
X57280Y19930
X56280Y19930
X56299Y18930
T06
X51669Y23615
X50669Y23615
X50669Y24615
X50669Y25615
X51669Y25615
X51669Y24615
X51669Y26615
X50669Y26615
X28165Y16178
X27165Y16178
X39437Y11717
X39437Y10717
X4728Y31060
X3728Y31060
X2728Y31060
X23622Y33434
X24622Y33434
X24622Y34434
X23622Y34434
T07
X24335Y37477
X22335Y37477
T08
X18024Y38264
X15260Y38264
T09
X29319Y35075
X30618Y35981
X31917Y35075
T10
X32075Y37989
X29161Y37989
T11
X30618Y37556
T12
X34752Y36689
X57193Y36689
X57193Y4012
X30224Y4012
X2862Y4012
X2862Y36689
M30
