G75*
%MOIN*%
%OFA0B0*%
%FSLAX25Y25*%
%IPPOS*%
%LPD*%
%AMOC8*
5,1,8,0,0,1.08239X$1,22.5*
%
%ADD10C,0.09800*%
%ADD11C,0.05750*%
%ADD12C,0.13300*%
%ADD13C,0.02584*%
%ADD14R,0.05524X0.05524*%
%ADD15C,0.05524*%
%ADD16C,0.04737*%
%ADD17C,0.03556*%
%ADD18C,0.03937*%
%ADD19OC8,0.06800*%
%ADD20C,0.06800*%
%ADD21C,0.06800*%
%ADD22C,0.04343*%
%ADD23C,0.06706*%
%ADD24C,0.13560*%
%ADD25C,0.14150*%
%ADD26C,0.10249*%
D10*
X0150089Y0552444D03*
X0177727Y0552444D03*
D11*
X0173456Y0540633D03*
X0154361Y0540633D03*
D12*
X0026113Y0536696D03*
X0569420Y0536696D03*
X0569420Y0209924D03*
X0026113Y0209924D03*
D13*
X0293830Y0383152D03*
X0228475Y0393782D03*
X0313711Y0436302D03*
X0312924Y0442207D03*
X0352688Y0444570D03*
X0376507Y0446144D03*
X0371979Y0412089D03*
X0376507Y0515829D03*
X0130444Y0526066D03*
D14*
X0025050Y0450593D03*
X0076782Y0208861D03*
X0328751Y0208861D03*
X0570483Y0279097D03*
D15*
X0560483Y0279097D03*
X0560483Y0289097D03*
X0570483Y0289097D03*
X0570483Y0299097D03*
X0560483Y0299097D03*
X0560483Y0309097D03*
X0570483Y0309097D03*
X0570483Y0319097D03*
X0560483Y0319097D03*
X0560483Y0329097D03*
X0570483Y0329097D03*
X0570483Y0339097D03*
X0560483Y0339097D03*
X0560483Y0349097D03*
X0570483Y0349097D03*
X0570483Y0359097D03*
X0560483Y0359097D03*
X0560483Y0369097D03*
X0570483Y0369097D03*
X0518751Y0218861D03*
X0518751Y0208861D03*
X0508751Y0208861D03*
X0508751Y0218861D03*
X0498751Y0218861D03*
X0498751Y0208861D03*
X0488751Y0208861D03*
X0488751Y0218861D03*
X0478751Y0218861D03*
X0478751Y0208861D03*
X0468751Y0208861D03*
X0468751Y0218861D03*
X0458751Y0218861D03*
X0458751Y0208861D03*
X0448751Y0208861D03*
X0448751Y0218861D03*
X0438751Y0218861D03*
X0438751Y0208861D03*
X0428751Y0208861D03*
X0428751Y0218861D03*
X0418751Y0218861D03*
X0418751Y0208861D03*
X0408751Y0208861D03*
X0408751Y0218861D03*
X0398751Y0218861D03*
X0398751Y0208861D03*
X0388751Y0208861D03*
X0388751Y0218861D03*
X0378751Y0218861D03*
X0378751Y0208861D03*
X0368751Y0208861D03*
X0368751Y0218861D03*
X0358751Y0218861D03*
X0358751Y0208861D03*
X0348751Y0208861D03*
X0348751Y0218861D03*
X0338751Y0218861D03*
X0338751Y0208861D03*
X0328751Y0218861D03*
X0266782Y0218861D03*
X0256782Y0218861D03*
X0246782Y0218861D03*
X0236782Y0218861D03*
X0226782Y0218861D03*
X0216782Y0218861D03*
X0206782Y0218861D03*
X0196782Y0218861D03*
X0186782Y0218861D03*
X0176782Y0218861D03*
X0166782Y0218861D03*
X0156782Y0218861D03*
X0146782Y0218861D03*
X0136782Y0218861D03*
X0126782Y0218861D03*
X0116782Y0218861D03*
X0106782Y0218861D03*
X0096782Y0218861D03*
X0086782Y0218861D03*
X0076782Y0218861D03*
X0086782Y0208861D03*
X0096782Y0208861D03*
X0106782Y0208861D03*
X0116782Y0208861D03*
X0126782Y0208861D03*
X0136782Y0208861D03*
X0146782Y0208861D03*
X0156782Y0208861D03*
X0166782Y0208861D03*
X0176782Y0208861D03*
X0186782Y0208861D03*
X0196782Y0208861D03*
X0206782Y0208861D03*
X0216782Y0208861D03*
X0226782Y0208861D03*
X0236782Y0208861D03*
X0246782Y0208861D03*
X0256782Y0208861D03*
X0266782Y0208861D03*
X0035050Y0260593D03*
X0025050Y0260593D03*
X0025050Y0270593D03*
X0035050Y0270593D03*
X0035050Y0280593D03*
X0025050Y0280593D03*
X0025050Y0290593D03*
X0035050Y0290593D03*
X0035050Y0300593D03*
X0025050Y0300593D03*
X0025050Y0310593D03*
X0035050Y0310593D03*
X0035050Y0320593D03*
X0025050Y0320593D03*
X0025050Y0330593D03*
X0035050Y0330593D03*
X0035050Y0340593D03*
X0025050Y0340593D03*
X0025050Y0350593D03*
X0035050Y0350593D03*
X0035050Y0360593D03*
X0025050Y0360593D03*
X0025050Y0370593D03*
X0035050Y0370593D03*
X0035050Y0380593D03*
X0025050Y0380593D03*
X0025050Y0390593D03*
X0035050Y0390593D03*
X0035050Y0400593D03*
X0025050Y0400593D03*
X0025050Y0410593D03*
X0035050Y0410593D03*
X0035050Y0420593D03*
X0025050Y0420593D03*
X0025050Y0430593D03*
X0035050Y0430593D03*
X0035050Y0440593D03*
X0025050Y0440593D03*
X0035050Y0450593D03*
D16*
X0069420Y0532759D03*
X0229853Y0471538D03*
X0268042Y0497916D03*
X0256822Y0538861D03*
X0257019Y0552050D03*
X0308200Y0441617D03*
X0309578Y0427640D03*
X0475326Y0501262D03*
X0303278Y0317010D03*
X0311940Y0266223D03*
X0329656Y0264648D03*
X0274932Y0266223D03*
X0087530Y0255593D03*
X0502491Y0259924D03*
D17*
X0485759Y0266420D03*
X0502491Y0277444D03*
X0484971Y0312089D03*
X0490877Y0321538D03*
X0511349Y0321538D03*
X0491270Y0350475D03*
X0511546Y0353428D03*
X0444617Y0353428D03*
X0419814Y0355199D03*
X0432412Y0322129D03*
X0445601Y0321735D03*
X0443830Y0308940D03*
X0419814Y0309924D03*
X0432609Y0278034D03*
X0439499Y0281381D03*
X0365089Y0303428D03*
X0339499Y0318782D03*
X0282412Y0361696D03*
X0308396Y0374294D03*
X0251310Y0370554D03*
X0233987Y0370160D03*
X0223357Y0387483D03*
X0277688Y0420554D03*
X0292255Y0423113D03*
X0357215Y0446144D03*
X0202885Y0514451D03*
X0172570Y0524097D03*
X0151704Y0519963D03*
X0151704Y0513664D03*
X0134578Y0515829D03*
X0135562Y0531381D03*
X0081625Y0538073D03*
X0084971Y0506381D03*
X0118830Y0482365D03*
X0126113Y0460711D03*
X0119814Y0405987D03*
X0115483Y0402444D03*
X0106034Y0402837D03*
X0134971Y0391223D03*
X0133200Y0381577D03*
X0161349Y0317010D03*
X0160365Y0305593D03*
X0196389Y0310514D03*
X0196585Y0301656D03*
X0239499Y0319766D03*
X0256822Y0327640D03*
X0258396Y0249294D03*
X0283593Y0247719D03*
X0230444Y0248310D03*
X0219420Y0250081D03*
X0089105Y0286302D03*
D18*
X0047766Y0233546D02*
X0047768Y0233634D01*
X0047774Y0233722D01*
X0047784Y0233810D01*
X0047798Y0233898D01*
X0047815Y0233984D01*
X0047837Y0234070D01*
X0047862Y0234154D01*
X0047892Y0234238D01*
X0047924Y0234320D01*
X0047961Y0234400D01*
X0048001Y0234479D01*
X0048045Y0234556D01*
X0048092Y0234631D01*
X0048142Y0234703D01*
X0048196Y0234774D01*
X0048252Y0234841D01*
X0048312Y0234907D01*
X0048374Y0234969D01*
X0048440Y0235029D01*
X0048507Y0235085D01*
X0048578Y0235139D01*
X0048650Y0235189D01*
X0048725Y0235236D01*
X0048802Y0235280D01*
X0048881Y0235320D01*
X0048961Y0235357D01*
X0049043Y0235389D01*
X0049127Y0235419D01*
X0049211Y0235444D01*
X0049297Y0235466D01*
X0049383Y0235483D01*
X0049471Y0235497D01*
X0049559Y0235507D01*
X0049647Y0235513D01*
X0049735Y0235515D01*
X0049823Y0235513D01*
X0049911Y0235507D01*
X0049999Y0235497D01*
X0050087Y0235483D01*
X0050173Y0235466D01*
X0050259Y0235444D01*
X0050343Y0235419D01*
X0050427Y0235389D01*
X0050509Y0235357D01*
X0050589Y0235320D01*
X0050668Y0235280D01*
X0050745Y0235236D01*
X0050820Y0235189D01*
X0050892Y0235139D01*
X0050963Y0235085D01*
X0051030Y0235029D01*
X0051096Y0234969D01*
X0051158Y0234907D01*
X0051218Y0234841D01*
X0051274Y0234774D01*
X0051328Y0234703D01*
X0051378Y0234631D01*
X0051425Y0234556D01*
X0051469Y0234479D01*
X0051509Y0234400D01*
X0051546Y0234320D01*
X0051578Y0234238D01*
X0051608Y0234154D01*
X0051633Y0234070D01*
X0051655Y0233984D01*
X0051672Y0233898D01*
X0051686Y0233810D01*
X0051696Y0233722D01*
X0051702Y0233634D01*
X0051704Y0233546D01*
X0051702Y0233458D01*
X0051696Y0233370D01*
X0051686Y0233282D01*
X0051672Y0233194D01*
X0051655Y0233108D01*
X0051633Y0233022D01*
X0051608Y0232938D01*
X0051578Y0232854D01*
X0051546Y0232772D01*
X0051509Y0232692D01*
X0051469Y0232613D01*
X0051425Y0232536D01*
X0051378Y0232461D01*
X0051328Y0232389D01*
X0051274Y0232318D01*
X0051218Y0232251D01*
X0051158Y0232185D01*
X0051096Y0232123D01*
X0051030Y0232063D01*
X0050963Y0232007D01*
X0050892Y0231953D01*
X0050820Y0231903D01*
X0050745Y0231856D01*
X0050668Y0231812D01*
X0050589Y0231772D01*
X0050509Y0231735D01*
X0050427Y0231703D01*
X0050343Y0231673D01*
X0050259Y0231648D01*
X0050173Y0231626D01*
X0050087Y0231609D01*
X0049999Y0231595D01*
X0049911Y0231585D01*
X0049823Y0231579D01*
X0049735Y0231577D01*
X0049647Y0231579D01*
X0049559Y0231585D01*
X0049471Y0231595D01*
X0049383Y0231609D01*
X0049297Y0231626D01*
X0049211Y0231648D01*
X0049127Y0231673D01*
X0049043Y0231703D01*
X0048961Y0231735D01*
X0048881Y0231772D01*
X0048802Y0231812D01*
X0048725Y0231856D01*
X0048650Y0231903D01*
X0048578Y0231953D01*
X0048507Y0232007D01*
X0048440Y0232063D01*
X0048374Y0232123D01*
X0048312Y0232185D01*
X0048252Y0232251D01*
X0048196Y0232318D01*
X0048142Y0232389D01*
X0048092Y0232461D01*
X0048045Y0232536D01*
X0048001Y0232613D01*
X0047961Y0232692D01*
X0047924Y0232772D01*
X0047892Y0232854D01*
X0047862Y0232938D01*
X0047837Y0233022D01*
X0047815Y0233108D01*
X0047798Y0233194D01*
X0047784Y0233282D01*
X0047774Y0233370D01*
X0047768Y0233458D01*
X0047766Y0233546D01*
X0020207Y0505199D02*
X0020209Y0505287D01*
X0020215Y0505375D01*
X0020225Y0505463D01*
X0020239Y0505551D01*
X0020256Y0505637D01*
X0020278Y0505723D01*
X0020303Y0505807D01*
X0020333Y0505891D01*
X0020365Y0505973D01*
X0020402Y0506053D01*
X0020442Y0506132D01*
X0020486Y0506209D01*
X0020533Y0506284D01*
X0020583Y0506356D01*
X0020637Y0506427D01*
X0020693Y0506494D01*
X0020753Y0506560D01*
X0020815Y0506622D01*
X0020881Y0506682D01*
X0020948Y0506738D01*
X0021019Y0506792D01*
X0021091Y0506842D01*
X0021166Y0506889D01*
X0021243Y0506933D01*
X0021322Y0506973D01*
X0021402Y0507010D01*
X0021484Y0507042D01*
X0021568Y0507072D01*
X0021652Y0507097D01*
X0021738Y0507119D01*
X0021824Y0507136D01*
X0021912Y0507150D01*
X0022000Y0507160D01*
X0022088Y0507166D01*
X0022176Y0507168D01*
X0022264Y0507166D01*
X0022352Y0507160D01*
X0022440Y0507150D01*
X0022528Y0507136D01*
X0022614Y0507119D01*
X0022700Y0507097D01*
X0022784Y0507072D01*
X0022868Y0507042D01*
X0022950Y0507010D01*
X0023030Y0506973D01*
X0023109Y0506933D01*
X0023186Y0506889D01*
X0023261Y0506842D01*
X0023333Y0506792D01*
X0023404Y0506738D01*
X0023471Y0506682D01*
X0023537Y0506622D01*
X0023599Y0506560D01*
X0023659Y0506494D01*
X0023715Y0506427D01*
X0023769Y0506356D01*
X0023819Y0506284D01*
X0023866Y0506209D01*
X0023910Y0506132D01*
X0023950Y0506053D01*
X0023987Y0505973D01*
X0024019Y0505891D01*
X0024049Y0505807D01*
X0024074Y0505723D01*
X0024096Y0505637D01*
X0024113Y0505551D01*
X0024127Y0505463D01*
X0024137Y0505375D01*
X0024143Y0505287D01*
X0024145Y0505199D01*
X0024143Y0505111D01*
X0024137Y0505023D01*
X0024127Y0504935D01*
X0024113Y0504847D01*
X0024096Y0504761D01*
X0024074Y0504675D01*
X0024049Y0504591D01*
X0024019Y0504507D01*
X0023987Y0504425D01*
X0023950Y0504345D01*
X0023910Y0504266D01*
X0023866Y0504189D01*
X0023819Y0504114D01*
X0023769Y0504042D01*
X0023715Y0503971D01*
X0023659Y0503904D01*
X0023599Y0503838D01*
X0023537Y0503776D01*
X0023471Y0503716D01*
X0023404Y0503660D01*
X0023333Y0503606D01*
X0023261Y0503556D01*
X0023186Y0503509D01*
X0023109Y0503465D01*
X0023030Y0503425D01*
X0022950Y0503388D01*
X0022868Y0503356D01*
X0022784Y0503326D01*
X0022700Y0503301D01*
X0022614Y0503279D01*
X0022528Y0503262D01*
X0022440Y0503248D01*
X0022352Y0503238D01*
X0022264Y0503232D01*
X0022176Y0503230D01*
X0022088Y0503232D01*
X0022000Y0503238D01*
X0021912Y0503248D01*
X0021824Y0503262D01*
X0021738Y0503279D01*
X0021652Y0503301D01*
X0021568Y0503326D01*
X0021484Y0503356D01*
X0021402Y0503388D01*
X0021322Y0503425D01*
X0021243Y0503465D01*
X0021166Y0503509D01*
X0021091Y0503556D01*
X0021019Y0503606D01*
X0020948Y0503660D01*
X0020881Y0503716D01*
X0020815Y0503776D01*
X0020753Y0503838D01*
X0020693Y0503904D01*
X0020637Y0503971D01*
X0020583Y0504042D01*
X0020533Y0504114D01*
X0020486Y0504189D01*
X0020442Y0504266D01*
X0020402Y0504345D01*
X0020365Y0504425D01*
X0020333Y0504507D01*
X0020303Y0504591D01*
X0020278Y0504675D01*
X0020256Y0504761D01*
X0020239Y0504847D01*
X0020225Y0504935D01*
X0020215Y0505023D01*
X0020209Y0505111D01*
X0020207Y0505199D01*
X0543829Y0524885D02*
X0543831Y0524973D01*
X0543837Y0525061D01*
X0543847Y0525149D01*
X0543861Y0525237D01*
X0543878Y0525323D01*
X0543900Y0525409D01*
X0543925Y0525493D01*
X0543955Y0525577D01*
X0543987Y0525659D01*
X0544024Y0525739D01*
X0544064Y0525818D01*
X0544108Y0525895D01*
X0544155Y0525970D01*
X0544205Y0526042D01*
X0544259Y0526113D01*
X0544315Y0526180D01*
X0544375Y0526246D01*
X0544437Y0526308D01*
X0544503Y0526368D01*
X0544570Y0526424D01*
X0544641Y0526478D01*
X0544713Y0526528D01*
X0544788Y0526575D01*
X0544865Y0526619D01*
X0544944Y0526659D01*
X0545024Y0526696D01*
X0545106Y0526728D01*
X0545190Y0526758D01*
X0545274Y0526783D01*
X0545360Y0526805D01*
X0545446Y0526822D01*
X0545534Y0526836D01*
X0545622Y0526846D01*
X0545710Y0526852D01*
X0545798Y0526854D01*
X0545886Y0526852D01*
X0545974Y0526846D01*
X0546062Y0526836D01*
X0546150Y0526822D01*
X0546236Y0526805D01*
X0546322Y0526783D01*
X0546406Y0526758D01*
X0546490Y0526728D01*
X0546572Y0526696D01*
X0546652Y0526659D01*
X0546731Y0526619D01*
X0546808Y0526575D01*
X0546883Y0526528D01*
X0546955Y0526478D01*
X0547026Y0526424D01*
X0547093Y0526368D01*
X0547159Y0526308D01*
X0547221Y0526246D01*
X0547281Y0526180D01*
X0547337Y0526113D01*
X0547391Y0526042D01*
X0547441Y0525970D01*
X0547488Y0525895D01*
X0547532Y0525818D01*
X0547572Y0525739D01*
X0547609Y0525659D01*
X0547641Y0525577D01*
X0547671Y0525493D01*
X0547696Y0525409D01*
X0547718Y0525323D01*
X0547735Y0525237D01*
X0547749Y0525149D01*
X0547759Y0525061D01*
X0547765Y0524973D01*
X0547767Y0524885D01*
X0547765Y0524797D01*
X0547759Y0524709D01*
X0547749Y0524621D01*
X0547735Y0524533D01*
X0547718Y0524447D01*
X0547696Y0524361D01*
X0547671Y0524277D01*
X0547641Y0524193D01*
X0547609Y0524111D01*
X0547572Y0524031D01*
X0547532Y0523952D01*
X0547488Y0523875D01*
X0547441Y0523800D01*
X0547391Y0523728D01*
X0547337Y0523657D01*
X0547281Y0523590D01*
X0547221Y0523524D01*
X0547159Y0523462D01*
X0547093Y0523402D01*
X0547026Y0523346D01*
X0546955Y0523292D01*
X0546883Y0523242D01*
X0546808Y0523195D01*
X0546731Y0523151D01*
X0546652Y0523111D01*
X0546572Y0523074D01*
X0546490Y0523042D01*
X0546406Y0523012D01*
X0546322Y0522987D01*
X0546236Y0522965D01*
X0546150Y0522948D01*
X0546062Y0522934D01*
X0545974Y0522924D01*
X0545886Y0522918D01*
X0545798Y0522916D01*
X0545710Y0522918D01*
X0545622Y0522924D01*
X0545534Y0522934D01*
X0545446Y0522948D01*
X0545360Y0522965D01*
X0545274Y0522987D01*
X0545190Y0523012D01*
X0545106Y0523042D01*
X0545024Y0523074D01*
X0544944Y0523111D01*
X0544865Y0523151D01*
X0544788Y0523195D01*
X0544713Y0523242D01*
X0544641Y0523292D01*
X0544570Y0523346D01*
X0544503Y0523402D01*
X0544437Y0523462D01*
X0544375Y0523524D01*
X0544315Y0523590D01*
X0544259Y0523657D01*
X0544205Y0523728D01*
X0544155Y0523800D01*
X0544108Y0523875D01*
X0544064Y0523952D01*
X0544024Y0524031D01*
X0543987Y0524111D01*
X0543955Y0524193D01*
X0543925Y0524277D01*
X0543900Y0524361D01*
X0543878Y0524447D01*
X0543861Y0524533D01*
X0543847Y0524621D01*
X0543837Y0524709D01*
X0543831Y0524797D01*
X0543829Y0524885D01*
D19*
X0235837Y0539570D03*
X0225837Y0539570D03*
X0225837Y0549570D03*
X0235837Y0549570D03*
D20*
X0230444Y0513325D02*
X0230444Y0507325D01*
X0230444Y0497325D02*
X0230444Y0491325D01*
X0240444Y0491325D02*
X0240444Y0497325D01*
X0220444Y0497325D02*
X0220444Y0491325D01*
X0269144Y0334577D02*
X0269144Y0328577D01*
X0279144Y0328577D02*
X0279144Y0334577D01*
X0388861Y0286971D02*
X0394861Y0286971D01*
X0394861Y0276971D02*
X0388861Y0276971D01*
D21*
X0240444Y0507325D03*
X0220444Y0507325D03*
D22*
X0348751Y0194373D03*
X0352097Y0236499D03*
X0323751Y0246144D03*
X0303672Y0255593D03*
X0365089Y0297719D03*
X0345798Y0318782D03*
X0338121Y0310711D03*
X0399144Y0317404D03*
X0399144Y0322719D03*
X0461349Y0310318D03*
X0468633Y0311302D03*
X0406625Y0283152D03*
X0400916Y0283152D03*
X0499144Y0247916D03*
X0320601Y0357168D03*
X0338121Y0369176D03*
X0338318Y0375278D03*
X0341861Y0361892D03*
X0312924Y0377837D03*
X0283987Y0397719D03*
X0277688Y0414845D03*
X0246585Y0406774D03*
X0246585Y0428428D03*
X0235759Y0468782D03*
X0295798Y0482759D03*
X0299341Y0486302D03*
X0348948Y0418585D03*
X0352885Y0391026D03*
X0278081Y0358349D03*
X0189105Y0286696D03*
X0185956Y0266420D03*
X0141861Y0287483D03*
X0086546Y0368192D03*
X0073357Y0367404D03*
X0110956Y0385908D03*
X0143239Y0432168D03*
X0143830Y0482365D03*
X0144223Y0500081D03*
X0134578Y0510121D03*
X0143436Y0527640D03*
X0114302Y0485711D03*
X0061546Y0540633D03*
X0480444Y0386302D03*
X0480641Y0379018D03*
X0504656Y0400278D03*
X0539893Y0391814D03*
X0545207Y0375475D03*
D23*
X0553869Y0453034D03*
X0553869Y0470751D03*
X0579459Y0470751D03*
X0579459Y0453034D03*
X0579459Y0496341D03*
X0579459Y0514058D03*
X0553869Y0514058D03*
X0553869Y0496341D03*
D24*
X0316664Y0520554D03*
X0303672Y0529609D03*
X0290680Y0520554D03*
D25*
X0289105Y0549688D03*
X0318239Y0549688D03*
D26*
X0303672Y0545357D03*
M02*
