G75*
%MOIN*%
%OFA0B0*%
%FSLAX25Y25*%
%IPPOS*%
%LPD*%
%AMOC8*
5,1,8,0,0,1.08239X$1,22.5*
%
%ADD10R,0.02835X0.03228*%
%ADD11C,0.02047*%
%ADD12R,0.03228X0.02835*%
%ADD13R,0.03950X0.03950*%
%ADD14R,0.04291X0.03917*%
%ADD15R,0.04331X0.03937*%
%ADD16R,0.04311X0.03937*%
%ADD17R,0.03917X0.04291*%
%ADD18R,0.03937X0.04331*%
%ADD19R,0.03937X0.04311*%
%ADD20R,0.05630X0.06693*%
%ADD21R,0.06706X0.06706*%
%ADD22R,0.03950X0.06706*%
%ADD23R,0.03950X0.06312*%
%ADD24R,0.03556X0.07690*%
%ADD25R,0.06706X0.04737*%
%ADD26R,0.04737X0.06706*%
%ADD27C,0.09800*%
%ADD28C,0.05750*%
%ADD29R,0.02375X0.06115*%
%ADD30C,0.13300*%
%ADD31R,0.09461X0.03162*%
%ADD32R,0.04737X0.07887*%
%ADD33R,0.06902X0.03162*%
%ADD34C,0.01575*%
%ADD35R,0.01575X0.00787*%
%ADD36R,0.00787X0.01575*%
%ADD37C,0.00394*%
%ADD38C,0.02584*%
%ADD39R,0.05524X0.05524*%
%ADD40C,0.05524*%
%ADD41R,0.05524X0.01981*%
%ADD42C,0.04737*%
%ADD43C,0.03937*%
%ADD44R,0.03162X0.09461*%
%ADD45R,0.03800X0.05300*%
%ADD46R,0.14186X0.05524*%
%ADD47R,0.14186X0.03162*%
%ADD48R,0.01457X0.02756*%
%ADD49R,0.01457X0.02362*%
%ADD50R,0.01181X0.02067*%
%ADD51R,0.00886X0.00335*%
%ADD52R,0.00728X0.00354*%
%ADD53R,0.02559X0.02480*%
%ADD54R,0.05328X0.07887*%
%ADD55R,0.02700X0.02000*%
%ADD56R,0.02000X0.02700*%
%ADD57OC8,0.06800*%
%ADD58R,0.18517X0.09265*%
%ADD59R,0.07099X0.11430*%
%ADD60R,0.09855X0.10643*%
%ADD61R,0.11430X0.07099*%
%ADD62R,0.11430X0.04737*%
%ADD63R,0.05524X0.02965*%
%ADD64R,0.02244X0.02323*%
%ADD65R,0.02244X0.02165*%
%ADD66R,0.03543X0.02323*%
%ADD67R,0.03543X0.02165*%
%ADD68R,0.07493X0.10131*%
%ADD69R,0.01772X0.07087*%
%ADD70R,0.01575X0.07087*%
%ADD71C,0.06800*%
%ADD72R,0.06299X0.05512*%
%ADD73C,0.06800*%
%ADD74C,0.04343*%
%ADD75R,0.12611X0.07099*%
%ADD76R,0.27178X0.27178*%
%ADD77R,0.04528X0.03346*%
%ADD78R,0.03346X0.04528*%
%ADD79R,0.02756X0.01457*%
%ADD80R,0.02362X0.01457*%
%ADD81R,0.02067X0.01181*%
%ADD82R,0.00335X0.00886*%
%ADD83R,0.00354X0.00728*%
%ADD84R,0.02480X0.02559*%
%ADD85C,0.06706*%
%ADD86C,0.13560*%
%ADD87C,0.14150*%
%ADD88C,0.10249*%
%ADD89R,0.02283X0.03150*%
%ADD90R,0.02126X0.03150*%
%ADD91R,0.10643X0.09855*%
%ADD92R,0.02572X0.02572*%
%ADD93R,0.10249X0.03792*%
%ADD94C,0.02600*%
D10*
X0069420Y0122800D03*
X0073357Y0122800D03*
X0073357Y0128312D03*
X0069420Y0128312D03*
X0069420Y0133824D03*
X0073357Y0133824D03*
X0073357Y0139335D03*
X0069420Y0139335D03*
X0069420Y0144847D03*
X0073357Y0144847D03*
X0073357Y0150359D03*
X0069420Y0150359D03*
X0069420Y0155871D03*
X0073357Y0155871D03*
X0073357Y0161383D03*
X0069420Y0161383D03*
G36*
X0107242Y0183028D02*
X0109246Y0181024D01*
X0106964Y0178742D01*
X0104960Y0180746D01*
X0107242Y0183028D01*
G37*
G36*
X0110026Y0180244D02*
X0112030Y0178240D01*
X0109748Y0175958D01*
X0107744Y0177962D01*
X0110026Y0180244D01*
G37*
G36*
X0125254Y0164918D02*
X0127258Y0162914D01*
X0124976Y0160632D01*
X0122972Y0162636D01*
X0125254Y0164918D01*
G37*
G36*
X0128038Y0162134D02*
X0130042Y0160130D01*
X0127760Y0157848D01*
X0125756Y0159852D01*
X0128038Y0162134D01*
G37*
G36*
X0139525Y0150547D02*
X0141529Y0148543D01*
X0139247Y0146261D01*
X0137243Y0148265D01*
X0139525Y0150547D01*
G37*
G36*
X0142309Y0147764D02*
X0144313Y0145760D01*
X0142031Y0143478D01*
X0140027Y0145482D01*
X0142309Y0147764D01*
G37*
G36*
X0142291Y0136142D02*
X0144295Y0138146D01*
X0146577Y0135864D01*
X0144573Y0133860D01*
X0142291Y0136142D01*
G37*
G36*
X0139507Y0133358D02*
X0141511Y0135362D01*
X0143793Y0133080D01*
X0141789Y0131076D01*
X0139507Y0133358D01*
G37*
G36*
X0143050Y0129815D02*
X0145054Y0131819D01*
X0147336Y0129537D01*
X0145332Y0127533D01*
X0143050Y0129815D01*
G37*
G36*
X0145834Y0132599D02*
X0147838Y0134603D01*
X0150120Y0132321D01*
X0148116Y0130317D01*
X0145834Y0132599D01*
G37*
X0154066Y0125162D03*
X0158003Y0125162D03*
G36*
X0200531Y0138082D02*
X0202535Y0140086D01*
X0204817Y0137804D01*
X0202813Y0135800D01*
X0200531Y0138082D01*
G37*
G36*
X0203315Y0140866D02*
X0205319Y0142870D01*
X0207601Y0140588D01*
X0205597Y0138584D01*
X0203315Y0140866D01*
G37*
G36*
X0213872Y0133080D02*
X0211868Y0131076D01*
X0209586Y0133358D01*
X0211590Y0135362D01*
X0213872Y0133080D01*
G37*
G36*
X0216656Y0135864D02*
X0214652Y0133860D01*
X0212370Y0136142D01*
X0214374Y0138146D01*
X0216656Y0135864D01*
G37*
G36*
X0222920Y0145992D02*
X0224924Y0143988D01*
X0222642Y0141706D01*
X0220638Y0143710D01*
X0222920Y0145992D01*
G37*
G36*
X0220136Y0148776D02*
X0222140Y0146772D01*
X0219858Y0144490D01*
X0217854Y0146494D01*
X0220136Y0148776D01*
G37*
G36*
X0223007Y0147639D02*
X0221003Y0149643D01*
X0223285Y0151925D01*
X0225289Y0149921D01*
X0223007Y0147639D01*
G37*
G36*
X0225791Y0144855D02*
X0223787Y0146859D01*
X0226069Y0149141D01*
X0228073Y0147137D01*
X0225791Y0144855D01*
G37*
G36*
X0225369Y0138978D02*
X0223365Y0140982D01*
X0225647Y0143264D01*
X0227651Y0141260D01*
X0225369Y0138978D01*
G37*
G36*
X0228153Y0136194D02*
X0226149Y0138198D01*
X0228431Y0140480D01*
X0230435Y0138476D01*
X0228153Y0136194D01*
G37*
G36*
X0231159Y0137752D02*
X0233163Y0135748D01*
X0230881Y0133466D01*
X0228877Y0135470D01*
X0231159Y0137752D01*
G37*
G36*
X0234309Y0140902D02*
X0236313Y0138898D01*
X0234031Y0136616D01*
X0232027Y0138620D01*
X0234309Y0140902D01*
G37*
G36*
X0237093Y0138118D02*
X0239097Y0136114D01*
X0236815Y0133832D01*
X0234811Y0135836D01*
X0237093Y0138118D01*
G37*
G36*
X0233943Y0134968D02*
X0235947Y0132964D01*
X0233665Y0130682D01*
X0231661Y0132686D01*
X0233943Y0134968D01*
G37*
X0232806Y0124768D03*
X0236743Y0124768D03*
X0236743Y0120044D03*
X0232806Y0120044D03*
G36*
X0221380Y0121691D02*
X0219376Y0119687D01*
X0217094Y0121969D01*
X0219098Y0123973D01*
X0221380Y0121691D01*
G37*
G36*
X0218596Y0118907D02*
X0216592Y0116903D01*
X0214310Y0119185D01*
X0216314Y0121189D01*
X0218596Y0118907D01*
G37*
X0210562Y0116304D03*
X0206625Y0116304D03*
X0246585Y0085792D03*
X0250522Y0085792D03*
X0250522Y0079887D03*
X0246585Y0079887D03*
X0355247Y0126343D03*
X0359184Y0126343D03*
X0369026Y0131658D03*
X0372963Y0131658D03*
X0372963Y0136383D03*
X0369026Y0136383D03*
X0360759Y0151146D03*
X0356822Y0151146D03*
X0404853Y0152327D03*
X0408790Y0152327D03*
X0412333Y0152327D03*
X0416270Y0152327D03*
X0416270Y0147603D03*
X0412333Y0147603D03*
X0408790Y0147603D03*
X0404853Y0147603D03*
X0412333Y0157052D03*
X0416270Y0157052D03*
X0416270Y0161776D03*
X0412333Y0161776D03*
X0412333Y0166501D03*
X0416270Y0166501D03*
X0416270Y0171225D03*
X0412333Y0171225D03*
X0408790Y0171225D03*
X0404853Y0171225D03*
X0412333Y0175949D03*
X0416270Y0175949D03*
X0416270Y0180674D03*
X0412333Y0180674D03*
X0408790Y0180674D03*
X0404853Y0180674D03*
X0432019Y0185005D03*
X0435956Y0185005D03*
X0451704Y0185398D03*
X0455641Y0185398D03*
X0455641Y0180674D03*
X0451704Y0180674D03*
X0451704Y0175949D03*
X0455641Y0175949D03*
X0455641Y0171225D03*
X0451704Y0171225D03*
X0451704Y0166501D03*
X0455641Y0166501D03*
X0455641Y0161776D03*
X0451704Y0161776D03*
X0451704Y0157052D03*
X0455641Y0157052D03*
X0455641Y0152327D03*
X0459184Y0152327D03*
X0463121Y0152327D03*
X0462137Y0147603D03*
X0466074Y0147603D03*
X0471782Y0147603D03*
X0475719Y0147603D03*
X0479263Y0147603D03*
X0483200Y0147603D03*
X0483200Y0152327D03*
X0479263Y0152327D03*
X0475719Y0152327D03*
X0471782Y0152327D03*
X0479263Y0157052D03*
X0483200Y0157052D03*
X0483200Y0161776D03*
X0479263Y0161776D03*
X0479263Y0166501D03*
X0483200Y0166501D03*
X0483200Y0171225D03*
X0479263Y0171225D03*
X0475719Y0171225D03*
X0471782Y0171225D03*
X0479263Y0175949D03*
X0483200Y0175949D03*
X0483200Y0180674D03*
X0479263Y0180674D03*
X0475719Y0180674D03*
X0471782Y0180674D03*
X0498554Y0184611D03*
X0502491Y0184611D03*
X0519026Y0185398D03*
X0522963Y0185398D03*
X0522963Y0180674D03*
X0519026Y0180674D03*
X0519026Y0175949D03*
X0522963Y0175949D03*
X0522963Y0171225D03*
X0519026Y0171225D03*
X0519026Y0166501D03*
X0522963Y0166501D03*
X0522963Y0161776D03*
X0519026Y0161776D03*
X0519026Y0157052D03*
X0522963Y0157052D03*
X0522963Y0152327D03*
X0526507Y0152327D03*
X0530444Y0152327D03*
X0530444Y0147603D03*
X0526507Y0147603D03*
X0522963Y0147603D03*
X0519026Y0147603D03*
X0519026Y0152327D03*
X0519420Y0141698D03*
X0523357Y0141698D03*
X0523357Y0136973D03*
X0519420Y0136973D03*
X0519420Y0132249D03*
X0523357Y0132249D03*
X0523357Y0127524D03*
X0527294Y0127524D03*
X0522963Y0117682D03*
X0519026Y0117682D03*
X0519026Y0112957D03*
X0522963Y0112957D03*
X0522963Y0108233D03*
X0526507Y0108233D03*
X0530444Y0108233D03*
X0530444Y0103509D03*
X0526507Y0103509D03*
X0522963Y0103509D03*
X0519026Y0103509D03*
X0519026Y0108233D03*
X0483200Y0108233D03*
X0479263Y0108233D03*
X0475719Y0108233D03*
X0471782Y0108233D03*
X0471782Y0103509D03*
X0475719Y0103509D03*
X0479263Y0103509D03*
X0483200Y0103509D03*
X0483200Y0112957D03*
X0479263Y0112957D03*
X0479263Y0117682D03*
X0483200Y0117682D03*
X0483200Y0122406D03*
X0479263Y0122406D03*
X0479263Y0127131D03*
X0475719Y0127131D03*
X0471782Y0127131D03*
X0479263Y0131855D03*
X0483200Y0131855D03*
X0483200Y0127131D03*
X0483200Y0136579D03*
X0479263Y0136579D03*
X0475719Y0136579D03*
X0471782Y0136579D03*
X0455641Y0136579D03*
X0451704Y0136579D03*
X0451704Y0131855D03*
X0455641Y0131855D03*
X0455641Y0127131D03*
X0451704Y0127131D03*
X0451704Y0122406D03*
X0455641Y0122406D03*
X0455641Y0117682D03*
X0451704Y0117682D03*
X0451704Y0112957D03*
X0455641Y0112957D03*
X0459184Y0112957D03*
X0463121Y0112957D03*
X0455641Y0108233D03*
X0451704Y0108233D03*
X0451704Y0103509D03*
X0455641Y0103509D03*
X0459184Y0103509D03*
X0463121Y0103509D03*
X0416270Y0103509D03*
X0412333Y0103509D03*
X0408396Y0103509D03*
X0404459Y0103509D03*
X0404459Y0108233D03*
X0408396Y0108233D03*
X0412333Y0108233D03*
X0416270Y0108233D03*
X0416270Y0112957D03*
X0412333Y0112957D03*
X0412333Y0117682D03*
X0416270Y0117682D03*
X0416270Y0122406D03*
X0412333Y0122406D03*
X0412333Y0127131D03*
X0408790Y0127131D03*
X0404853Y0127131D03*
X0412333Y0131855D03*
X0416270Y0131855D03*
X0416270Y0127131D03*
X0416270Y0136579D03*
X0412333Y0136579D03*
X0408790Y0136579D03*
X0404853Y0136579D03*
X0432019Y0139729D03*
X0435956Y0139729D03*
X0451704Y0142091D03*
X0455641Y0142091D03*
X0455641Y0147603D03*
X0451704Y0147603D03*
X0451704Y0152327D03*
X0498948Y0139729D03*
X0502885Y0139729D03*
X0499932Y0208036D03*
X0495995Y0208036D03*
X0495995Y0212761D03*
X0499932Y0212761D03*
X0490877Y0212761D03*
X0486940Y0212761D03*
X0486940Y0208036D03*
X0490877Y0208036D03*
X0496389Y0252918D03*
X0500326Y0252918D03*
X0453672Y0301540D03*
X0449735Y0301540D03*
X0412727Y0336579D03*
X0408790Y0336579D03*
X0408790Y0341304D03*
X0412727Y0341304D03*
X0390286Y0358233D03*
X0386349Y0358233D03*
X0386349Y0362957D03*
X0390286Y0362957D03*
X0336389Y0261540D03*
X0332452Y0261540D03*
X0300129Y0254690D03*
X0296192Y0254690D03*
X0292255Y0254690D03*
X0288318Y0254690D03*
X0288318Y0249965D03*
X0292255Y0249965D03*
X0296192Y0249965D03*
X0300129Y0249965D03*
X0296585Y0230280D03*
X0292648Y0230280D03*
X0291467Y0222012D03*
X0295404Y0222012D03*
X0294223Y0208036D03*
X0298160Y0208036D03*
X0304459Y0208036D03*
X0308396Y0208036D03*
X0252491Y0208627D03*
X0248554Y0208627D03*
X0248554Y0213351D03*
X0252491Y0213351D03*
X0252491Y0203902D03*
X0248554Y0203902D03*
G36*
X0242917Y0205879D02*
X0240913Y0207883D01*
X0243195Y0210165D01*
X0245199Y0208161D01*
X0242917Y0205879D01*
G37*
G36*
X0240133Y0208663D02*
X0238129Y0210667D01*
X0240411Y0212949D01*
X0242415Y0210945D01*
X0240133Y0208663D01*
G37*
G36*
X0231239Y0227846D02*
X0233243Y0229850D01*
X0235525Y0227568D01*
X0233521Y0225564D01*
X0231239Y0227846D01*
G37*
G36*
X0227071Y0225564D02*
X0225067Y0227568D01*
X0227349Y0229850D01*
X0229353Y0227846D01*
X0227071Y0225564D01*
G37*
G36*
X0224287Y0228348D02*
X0222283Y0230352D01*
X0224565Y0232634D01*
X0226569Y0230630D01*
X0224287Y0228348D01*
G37*
G36*
X0234023Y0230630D02*
X0236027Y0232634D01*
X0238309Y0230352D01*
X0236305Y0228348D01*
X0234023Y0230630D01*
G37*
G36*
X0210535Y0237966D02*
X0208531Y0239970D01*
X0210813Y0242252D01*
X0212817Y0240248D01*
X0210535Y0237966D01*
G37*
G36*
X0207751Y0240750D02*
X0205747Y0242754D01*
X0208029Y0245036D01*
X0210033Y0243032D01*
X0207751Y0240750D01*
G37*
X0207215Y0256658D03*
X0203278Y0256658D03*
G36*
X0194573Y0259181D02*
X0196577Y0257177D01*
X0194295Y0254895D01*
X0192291Y0256899D01*
X0194573Y0259181D01*
G37*
G36*
X0191789Y0261965D02*
X0193793Y0259961D01*
X0191511Y0257679D01*
X0189507Y0259683D01*
X0191789Y0261965D01*
G37*
G36*
X0166262Y0263817D02*
X0164258Y0261813D01*
X0161976Y0264095D01*
X0163980Y0266099D01*
X0166262Y0263817D01*
G37*
G36*
X0163478Y0261033D02*
X0161474Y0259029D01*
X0159192Y0261311D01*
X0161196Y0263315D01*
X0163478Y0261033D01*
G37*
G36*
X0149333Y0247970D02*
X0147329Y0245966D01*
X0145047Y0248248D01*
X0147051Y0250252D01*
X0149333Y0247970D01*
G37*
G36*
X0146549Y0245186D02*
X0144545Y0243182D01*
X0142263Y0245464D01*
X0144267Y0247468D01*
X0146549Y0245186D01*
G37*
G36*
X0133979Y0231336D02*
X0131975Y0229332D01*
X0129693Y0231614D01*
X0131697Y0233618D01*
X0133979Y0231336D01*
G37*
G36*
X0131195Y0228552D02*
X0129191Y0226548D01*
X0126909Y0228830D01*
X0128913Y0230834D01*
X0131195Y0228552D01*
G37*
G36*
X0115967Y0211750D02*
X0113963Y0209746D01*
X0111681Y0212028D01*
X0113685Y0214032D01*
X0115967Y0211750D01*
G37*
G36*
X0113183Y0208966D02*
X0111179Y0206962D01*
X0108897Y0209244D01*
X0110901Y0211248D01*
X0113183Y0208966D01*
G37*
G36*
X0212342Y0152256D02*
X0214346Y0154260D01*
X0216628Y0151978D01*
X0214624Y0149974D01*
X0212342Y0152256D01*
G37*
G36*
X0215126Y0155039D02*
X0217130Y0157043D01*
X0219412Y0154761D01*
X0217408Y0152757D01*
X0215126Y0155039D01*
G37*
G36*
X0236116Y0168907D02*
X0234112Y0166903D01*
X0231830Y0169185D01*
X0233834Y0171189D01*
X0236116Y0168907D01*
G37*
G36*
X0238900Y0171691D02*
X0236896Y0169687D01*
X0234614Y0171969D01*
X0236618Y0173973D01*
X0238900Y0171691D01*
G37*
G36*
X0237932Y0168397D02*
X0239936Y0170401D01*
X0242218Y0168119D01*
X0240214Y0166115D01*
X0237932Y0168397D01*
G37*
G36*
X0240716Y0171181D02*
X0242720Y0173185D01*
X0245002Y0170903D01*
X0242998Y0168899D01*
X0240716Y0171181D01*
G37*
G36*
X0245368Y0176387D02*
X0243364Y0174383D01*
X0241082Y0176665D01*
X0243086Y0178669D01*
X0245368Y0176387D01*
G37*
G36*
X0248152Y0179171D02*
X0246148Y0177167D01*
X0243866Y0179449D01*
X0245870Y0181453D01*
X0248152Y0179171D01*
G37*
G36*
X0251695Y0175628D02*
X0249691Y0173624D01*
X0247409Y0175906D01*
X0249413Y0177910D01*
X0251695Y0175628D01*
G37*
G36*
X0248911Y0172844D02*
X0246907Y0170840D01*
X0244625Y0173122D01*
X0246629Y0175126D01*
X0248911Y0172844D01*
G37*
G36*
X0244260Y0167638D02*
X0246264Y0169642D01*
X0248546Y0167360D01*
X0246542Y0165356D01*
X0244260Y0167638D01*
G37*
G36*
X0241476Y0164854D02*
X0243480Y0166858D01*
X0245762Y0164576D01*
X0243758Y0162572D01*
X0241476Y0164854D01*
G37*
G36*
X0239821Y0161374D02*
X0241825Y0159370D01*
X0239543Y0157088D01*
X0237539Y0159092D01*
X0239821Y0161374D01*
G37*
G36*
X0242605Y0158590D02*
X0244609Y0156586D01*
X0242327Y0154304D01*
X0240323Y0156308D01*
X0242605Y0158590D01*
G37*
G36*
X0245019Y0161311D02*
X0247023Y0163315D01*
X0249305Y0161033D01*
X0247301Y0159029D01*
X0245019Y0161311D01*
G37*
G36*
X0247803Y0164095D02*
X0249807Y0166099D01*
X0252089Y0163817D01*
X0250085Y0161813D01*
X0247803Y0164095D01*
G37*
G36*
X0253206Y0155075D02*
X0255210Y0153071D01*
X0252928Y0150789D01*
X0250924Y0152793D01*
X0253206Y0155075D01*
G37*
G36*
X0255990Y0152291D02*
X0257994Y0150287D01*
X0255712Y0148005D01*
X0253708Y0150009D01*
X0255990Y0152291D01*
G37*
G36*
X0252447Y0148748D02*
X0254451Y0146744D01*
X0252169Y0144462D01*
X0250165Y0146466D01*
X0252447Y0148748D01*
G37*
G36*
X0249663Y0151532D02*
X0251667Y0149528D01*
X0249385Y0147246D01*
X0247381Y0149250D01*
X0249663Y0151532D01*
G37*
X0269026Y0152327D03*
X0272963Y0152327D03*
X0123554Y0273587D03*
X0119617Y0273587D03*
X0115483Y0273587D03*
X0111546Y0273587D03*
X0124341Y0290516D03*
X0128278Y0290516D03*
X0126113Y0321225D03*
X0122176Y0321225D03*
X0118239Y0321225D03*
X0114302Y0321225D03*
X0146979Y0325949D03*
X0150916Y0325949D03*
X0138121Y0352131D03*
X0134184Y0352131D03*
X0134184Y0356855D03*
X0138121Y0356855D03*
X0083593Y0356264D03*
X0079656Y0356264D03*
D11*
X0108475Y0345753D02*
X0108475Y0341579D01*
X0111467Y0341579D01*
X0111467Y0345753D01*
X0108475Y0345753D01*
X0108475Y0343822D02*
X0111467Y0343822D01*
X0111467Y0341776D02*
X0108475Y0341776D01*
X0115562Y0341776D02*
X0118554Y0341776D01*
X0118554Y0341579D02*
X0118554Y0345753D01*
X0115562Y0345753D01*
X0115562Y0341579D01*
X0118554Y0341579D01*
X0118554Y0343822D02*
X0115562Y0343822D01*
X0113790Y0353981D02*
X0117963Y0353981D01*
X0117963Y0356973D01*
X0113790Y0356973D01*
X0113790Y0353981D01*
X0113790Y0354050D02*
X0117963Y0354050D01*
X0117963Y0356096D02*
X0113790Y0356096D01*
X0113790Y0361068D02*
X0117963Y0361068D01*
X0117963Y0364060D01*
X0113790Y0364060D01*
X0113790Y0361068D01*
X0113790Y0362233D02*
X0117963Y0362233D01*
X0121664Y0362233D02*
X0125837Y0362233D01*
X0125837Y0361068D02*
X0121664Y0361068D01*
X0121664Y0364060D01*
X0125837Y0364060D01*
X0125837Y0361068D01*
X0125837Y0356973D02*
X0121664Y0356973D01*
X0121664Y0353981D01*
X0125837Y0353981D01*
X0125837Y0356973D01*
X0125837Y0356096D02*
X0121664Y0356096D01*
X0121664Y0354050D02*
X0125837Y0354050D01*
X0162313Y0362206D02*
X0163872Y0363765D01*
X0164986Y0362651D01*
X0163427Y0361092D01*
X0162313Y0362206D01*
X0162341Y0362233D02*
X0164568Y0362233D01*
X0168327Y0359311D02*
X0166768Y0357752D01*
X0167881Y0356638D01*
X0169440Y0358197D01*
X0168327Y0359311D01*
X0169385Y0358142D02*
X0167158Y0358142D01*
X0152019Y0321343D02*
X0149026Y0321343D01*
X0149026Y0317170D01*
X0152019Y0317170D01*
X0152019Y0321343D01*
X0152019Y0321318D02*
X0149026Y0321318D01*
X0149026Y0319272D02*
X0152019Y0319272D01*
X0152019Y0317227D02*
X0149026Y0317227D01*
X0144932Y0317227D02*
X0141940Y0317227D01*
X0141940Y0317170D02*
X0141940Y0321343D01*
X0144932Y0321343D01*
X0144932Y0317170D01*
X0141940Y0317170D01*
X0141940Y0319272D02*
X0144932Y0319272D01*
X0144932Y0321318D02*
X0141940Y0321318D01*
X0201782Y0265044D02*
X0201782Y0260871D01*
X0204774Y0260871D01*
X0204774Y0265044D01*
X0201782Y0265044D01*
X0201782Y0264037D02*
X0204774Y0264037D01*
X0204774Y0261991D02*
X0201782Y0261991D01*
X0208869Y0261991D02*
X0211861Y0261991D01*
X0211861Y0260871D02*
X0208869Y0260871D01*
X0208869Y0265044D01*
X0211861Y0265044D01*
X0211861Y0260871D01*
X0211861Y0264037D02*
X0208869Y0264037D01*
X0274420Y0222327D02*
X0274420Y0219335D01*
X0278593Y0219335D01*
X0278593Y0222327D01*
X0274420Y0222327D01*
X0274420Y0221076D02*
X0278593Y0221076D01*
X0282688Y0221076D02*
X0286861Y0221076D01*
X0286861Y0222327D02*
X0286861Y0219335D01*
X0282688Y0219335D01*
X0282688Y0222327D01*
X0286861Y0222327D01*
X0286861Y0215241D02*
X0282688Y0215241D01*
X0282688Y0212249D01*
X0286861Y0212249D01*
X0286861Y0215241D01*
X0286861Y0214939D02*
X0282688Y0214939D01*
X0282688Y0212893D02*
X0286861Y0212893D01*
X0278593Y0212893D02*
X0274420Y0212893D01*
X0274420Y0212249D02*
X0278593Y0212249D01*
X0278593Y0215241D01*
X0274420Y0215241D01*
X0274420Y0212249D01*
X0274420Y0214939D02*
X0278593Y0214939D01*
X0283081Y0202642D02*
X0287255Y0202642D01*
X0287255Y0199650D01*
X0283081Y0199650D01*
X0283081Y0202642D01*
X0283081Y0200619D02*
X0287255Y0200619D01*
X0287255Y0195556D02*
X0283081Y0195556D01*
X0283081Y0192564D01*
X0287255Y0192564D01*
X0287255Y0195556D01*
X0287255Y0194481D02*
X0283081Y0194481D01*
X0260286Y0173707D02*
X0257335Y0176658D01*
X0255219Y0174542D01*
X0258170Y0171591D01*
X0260286Y0173707D01*
X0259969Y0174024D02*
X0255737Y0174024D01*
X0256747Y0176070D02*
X0257923Y0176070D01*
X0257783Y0171978D02*
X0258557Y0171978D01*
X0255275Y0168696D02*
X0252324Y0171647D01*
X0250208Y0169531D01*
X0253159Y0166580D01*
X0255275Y0168696D01*
X0254466Y0167887D02*
X0251852Y0167887D01*
X0250609Y0169932D02*
X0254038Y0169932D01*
X0318515Y0191383D02*
X0322688Y0191383D01*
X0322688Y0194375D01*
X0318515Y0194375D01*
X0318515Y0191383D01*
X0318515Y0192436D02*
X0322688Y0192436D01*
X0322688Y0198469D02*
X0322688Y0201461D01*
X0318515Y0201461D01*
X0318515Y0198469D01*
X0322688Y0198469D01*
X0322688Y0198573D02*
X0318515Y0198573D01*
X0318515Y0200619D02*
X0322688Y0200619D01*
X0313239Y0220123D02*
X0309066Y0220123D01*
X0309066Y0223115D01*
X0313239Y0223115D01*
X0313239Y0220123D01*
X0313239Y0221076D02*
X0309066Y0221076D01*
X0304971Y0221076D02*
X0300798Y0221076D01*
X0300798Y0220123D02*
X0304971Y0220123D01*
X0304971Y0223115D01*
X0300798Y0223115D01*
X0300798Y0220123D01*
X0300798Y0227209D02*
X0304971Y0227209D01*
X0304971Y0230201D01*
X0300798Y0230201D01*
X0300798Y0227209D01*
X0300798Y0227213D02*
X0304971Y0227213D01*
X0304971Y0229259D02*
X0300798Y0229259D01*
X0309066Y0229259D02*
X0313239Y0229259D01*
X0313239Y0230201D02*
X0313239Y0227209D01*
X0309066Y0227209D01*
X0309066Y0230201D01*
X0313239Y0230201D01*
X0313239Y0227213D02*
X0309066Y0227213D01*
X0354538Y0159926D02*
X0354538Y0155753D01*
X0357530Y0155753D01*
X0357530Y0159926D01*
X0354538Y0159926D01*
X0354538Y0159704D02*
X0357530Y0159704D01*
X0357530Y0157658D02*
X0354538Y0157658D01*
X0361625Y0157658D02*
X0364617Y0157658D01*
X0364617Y0155753D02*
X0364617Y0159926D01*
X0361625Y0159926D01*
X0361625Y0155753D01*
X0364617Y0155753D01*
X0364617Y0159704D02*
X0361625Y0159704D01*
X0362255Y0121343D02*
X0359263Y0121343D01*
X0359263Y0117170D01*
X0362255Y0117170D01*
X0362255Y0121343D01*
X0362255Y0120834D02*
X0359263Y0120834D01*
X0359263Y0118788D02*
X0362255Y0118788D01*
X0355168Y0118788D02*
X0352176Y0118788D01*
X0352176Y0117170D02*
X0352176Y0121343D01*
X0355168Y0121343D01*
X0355168Y0117170D01*
X0352176Y0117170D01*
X0352176Y0120834D02*
X0355168Y0120834D01*
X0355168Y0113075D02*
X0352176Y0113075D01*
X0352176Y0108902D01*
X0355168Y0108902D01*
X0355168Y0113075D01*
X0355168Y0112651D02*
X0352176Y0112651D01*
X0352176Y0110605D02*
X0355168Y0110605D01*
X0359263Y0110605D02*
X0362255Y0110605D01*
X0362255Y0108902D02*
X0362255Y0113075D01*
X0359263Y0113075D01*
X0359263Y0108902D01*
X0362255Y0108902D01*
X0362255Y0112651D02*
X0359263Y0112651D01*
X0159499Y0116284D02*
X0159499Y0120457D01*
X0156507Y0120457D01*
X0156507Y0116284D01*
X0159499Y0116284D01*
X0159499Y0116743D02*
X0156507Y0116743D01*
X0156507Y0118788D02*
X0159499Y0118788D01*
X0152412Y0118788D02*
X0149420Y0118788D01*
X0149420Y0120457D02*
X0149420Y0116284D01*
X0152412Y0116284D01*
X0152412Y0120457D01*
X0149420Y0120457D01*
X0149420Y0116743D02*
X0152412Y0116743D01*
X0100641Y0212642D02*
X0096467Y0212642D01*
X0096467Y0215635D01*
X0100641Y0215635D01*
X0100641Y0212642D01*
X0100641Y0212893D02*
X0096467Y0212893D01*
X0096467Y0214939D02*
X0100641Y0214939D01*
X0100641Y0219729D02*
X0096467Y0219729D01*
X0096467Y0222721D01*
X0100641Y0222721D01*
X0100641Y0219729D01*
X0100641Y0221076D02*
X0096467Y0221076D01*
X0422452Y0270910D02*
X0426625Y0270910D01*
X0426625Y0273902D01*
X0422452Y0273902D01*
X0422452Y0270910D01*
X0422452Y0272220D02*
X0426625Y0272220D01*
X0426625Y0277997D02*
X0422452Y0277997D01*
X0422452Y0280989D01*
X0426625Y0280989D01*
X0426625Y0277997D01*
X0426625Y0278357D02*
X0422452Y0278357D01*
X0422452Y0280403D02*
X0426625Y0280403D01*
D12*
X0418239Y0277918D03*
X0418239Y0273981D03*
X0441074Y0294060D03*
X0441074Y0297997D03*
X0400522Y0323981D03*
X0400522Y0327918D03*
X0395404Y0327918D03*
X0395404Y0323981D03*
X0378869Y0335005D03*
X0378869Y0338942D03*
X0373357Y0338942D03*
X0373357Y0342485D03*
X0373357Y0346422D03*
X0378869Y0346422D03*
X0378869Y0350359D03*
X0381979Y0358469D03*
X0381979Y0362406D03*
X0394617Y0362170D03*
X0394617Y0358233D03*
X0401310Y0358233D03*
X0401310Y0362170D03*
X0406034Y0362170D03*
X0406034Y0358233D03*
X0373357Y0335005D03*
X0348160Y0365123D03*
X0348160Y0369060D03*
X0343436Y0369060D03*
X0343436Y0365123D03*
X0338711Y0365123D03*
X0338711Y0369060D03*
X0231231Y0297603D03*
X0231231Y0293666D03*
X0225719Y0293666D03*
X0225719Y0297603D03*
X0142452Y0335595D03*
X0142452Y0339532D03*
X0138121Y0344060D03*
X0138121Y0347997D03*
X0147767Y0357839D03*
X0147767Y0361776D03*
X0152491Y0361776D03*
X0152491Y0357839D03*
X0157215Y0357839D03*
X0157215Y0361776D03*
X0134381Y0361776D03*
X0134381Y0365713D03*
X0131034Y0372997D03*
X0131034Y0376934D03*
X0123160Y0376934D03*
X0123160Y0372997D03*
X0102491Y0371619D03*
X0102491Y0375556D03*
X0109971Y0335792D03*
X0109971Y0331855D03*
X0131625Y0333430D03*
X0131625Y0329493D03*
X0136349Y0329493D03*
X0136349Y0333430D03*
X0135365Y0311579D03*
X0135365Y0307642D03*
X0089105Y0293272D03*
X0089105Y0289335D03*
X0078869Y0289335D03*
X0078869Y0293272D03*
X0068633Y0293272D03*
X0068633Y0289335D03*
X0071782Y0283036D03*
X0071782Y0279099D03*
X0065483Y0279099D03*
X0065483Y0283036D03*
X0105247Y0219257D03*
X0105247Y0215320D03*
X0082412Y0116698D03*
X0082412Y0112761D03*
X0082412Y0109020D03*
X0082412Y0105083D03*
X0082412Y0099572D03*
X0082412Y0095635D03*
X0120601Y0105083D03*
X0120601Y0109020D03*
X0257019Y0108824D03*
X0257019Y0104887D03*
X0300719Y0103312D03*
X0300719Y0107249D03*
X0345798Y0130280D03*
X0345798Y0134217D03*
X0345798Y0140516D03*
X0345798Y0144453D03*
X0369420Y0096422D03*
X0369420Y0092485D03*
X0374144Y0094060D03*
X0374144Y0090123D03*
X0378869Y0091107D03*
X0378869Y0095044D03*
X0383593Y0096422D03*
X0383593Y0092485D03*
X0459971Y0132249D03*
X0459971Y0136186D03*
X0459971Y0176343D03*
X0459971Y0180280D03*
X0527294Y0180280D03*
X0527294Y0176343D03*
X0478869Y0226737D03*
X0478869Y0230674D03*
X0479066Y0235595D03*
X0479066Y0239532D03*
X0495995Y0244257D03*
X0495995Y0248194D03*
X0500719Y0248194D03*
X0500719Y0244257D03*
X0549735Y0344257D03*
X0549735Y0348194D03*
X0303278Y0240910D03*
X0303278Y0236973D03*
X0291074Y0199572D03*
X0291074Y0195635D03*
X0314499Y0194453D03*
X0314499Y0198390D03*
X0196192Y0360989D03*
X0196192Y0364926D03*
X0191467Y0364926D03*
X0191467Y0360989D03*
X0193042Y0377524D03*
X0193042Y0381461D03*
X0197767Y0381461D03*
X0197767Y0377524D03*
D13*
X0086152Y0161383D03*
X0086152Y0155871D03*
X0086152Y0150359D03*
X0080247Y0150359D03*
X0080247Y0155871D03*
X0080247Y0161383D03*
X0080247Y0144847D03*
X0080247Y0139335D03*
X0086152Y0139335D03*
X0086152Y0144847D03*
X0086152Y0133824D03*
X0086152Y0128312D03*
X0086152Y0122800D03*
X0080247Y0122800D03*
X0080247Y0128312D03*
X0080247Y0133824D03*
D14*
X0200719Y0118262D03*
D15*
X0200700Y0125772D03*
D16*
X0192835Y0122012D03*
D17*
X0458406Y0255280D03*
X0474154Y0255280D03*
X0489902Y0255280D03*
X0117068Y0379690D03*
D18*
X0109558Y0379670D03*
X0450896Y0255261D03*
X0466644Y0255261D03*
X0482393Y0255261D03*
D19*
X0486152Y0247396D03*
X0470404Y0247396D03*
X0454656Y0247396D03*
X0113318Y0371806D03*
D20*
X0065365Y0308725D03*
D21*
X0056893Y0347741D03*
D22*
X0102562Y0317820D03*
D23*
X0055515Y0315261D03*
D24*
X0066538Y0348233D03*
X0070869Y0348233D03*
X0075200Y0348233D03*
X0079530Y0348233D03*
X0083861Y0348233D03*
X0088192Y0348233D03*
X0092522Y0348233D03*
X0096853Y0348233D03*
D25*
X0101184Y0311914D03*
D26*
X0057089Y0305713D03*
D27*
X0150089Y0382642D03*
X0177727Y0382642D03*
D28*
X0173456Y0370831D03*
X0154361Y0370831D03*
D29*
X0158790Y0372111D03*
X0161349Y0372111D03*
X0163908Y0372111D03*
X0166467Y0372111D03*
X0169026Y0372111D03*
D30*
X0026113Y0366894D03*
X0026113Y0040123D03*
X0569420Y0040123D03*
X0569420Y0366894D03*
D31*
X0111152Y0114552D03*
X0111152Y0109552D03*
X0111152Y0104552D03*
X0111152Y0099552D03*
X0090680Y0099552D03*
X0090680Y0104552D03*
X0090680Y0109552D03*
X0090680Y0114552D03*
D32*
G36*
X0216465Y0122931D02*
X0213116Y0119582D01*
X0207541Y0125157D01*
X0210890Y0128506D01*
X0216465Y0122931D01*
G37*
G36*
X0223425Y0129891D02*
X0220076Y0126542D01*
X0214501Y0132117D01*
X0217850Y0135466D01*
X0223425Y0129891D01*
G37*
D33*
X0423357Y0127682D03*
X0423357Y0132682D03*
X0423357Y0122682D03*
X0423357Y0117682D03*
X0423357Y0112682D03*
X0423357Y0107682D03*
X0423357Y0102682D03*
X0444617Y0102682D03*
X0444617Y0107682D03*
X0444617Y0112682D03*
X0444617Y0117682D03*
X0444617Y0122682D03*
X0444617Y0127682D03*
X0444617Y0132682D03*
X0444617Y0146776D03*
X0444617Y0151776D03*
X0444617Y0156776D03*
X0444617Y0161776D03*
X0444617Y0166776D03*
X0444617Y0171776D03*
X0444617Y0176776D03*
X0423357Y0176776D03*
X0423357Y0171776D03*
X0423357Y0166776D03*
X0423357Y0161776D03*
X0423357Y0156776D03*
X0423357Y0151776D03*
X0423357Y0146776D03*
X0490286Y0146776D03*
X0490286Y0151776D03*
X0490286Y0156776D03*
X0490286Y0161776D03*
X0490286Y0166776D03*
X0490286Y0171776D03*
X0490286Y0176776D03*
X0511546Y0176776D03*
X0511546Y0171776D03*
X0511546Y0166776D03*
X0511546Y0161776D03*
X0511546Y0156776D03*
X0511546Y0151776D03*
X0511546Y0146776D03*
X0511546Y0132682D03*
X0511546Y0127682D03*
X0511546Y0122682D03*
X0511546Y0117682D03*
X0511546Y0112682D03*
X0511546Y0107682D03*
X0511546Y0102682D03*
X0490286Y0102682D03*
X0490286Y0107682D03*
X0490286Y0112682D03*
X0490286Y0117682D03*
X0490286Y0122682D03*
X0490286Y0127682D03*
X0490286Y0132682D03*
D34*
X0168042Y0330871D02*
X0168042Y0332839D01*
X0166074Y0332839D02*
X0166074Y0330871D01*
X0164105Y0330871D02*
X0164105Y0332839D01*
X0162137Y0332839D02*
X0162137Y0330871D01*
X0160168Y0330871D02*
X0160168Y0332839D01*
X0158200Y0332839D02*
X0158200Y0330871D01*
X0156231Y0330871D02*
X0156231Y0332839D01*
X0154263Y0332839D02*
X0154263Y0330871D01*
X0152688Y0334414D02*
X0150719Y0334414D01*
X0150719Y0336383D02*
X0152688Y0336383D01*
X0152688Y0338351D02*
X0150719Y0338351D01*
X0150719Y0340320D02*
X0152688Y0340320D01*
X0152688Y0342288D02*
X0150719Y0342288D01*
X0150719Y0344257D02*
X0152688Y0344257D01*
X0152688Y0346225D02*
X0150719Y0346225D01*
X0150719Y0348194D02*
X0152688Y0348194D01*
X0154263Y0349768D02*
X0154263Y0351737D01*
X0156231Y0351737D02*
X0156231Y0349768D01*
X0158200Y0349768D02*
X0158200Y0351737D01*
X0160168Y0351737D02*
X0160168Y0349768D01*
X0162137Y0349768D02*
X0162137Y0351737D01*
X0164105Y0351737D02*
X0164105Y0349768D01*
X0166074Y0349768D02*
X0166074Y0351737D01*
X0168042Y0351737D02*
X0168042Y0349768D01*
X0169617Y0348194D02*
X0171585Y0348194D01*
X0171585Y0346225D02*
X0169617Y0346225D01*
X0169617Y0344257D02*
X0171585Y0344257D01*
X0171585Y0342288D02*
X0169617Y0342288D01*
X0169617Y0340320D02*
X0171585Y0340320D01*
X0171585Y0338351D02*
X0169617Y0338351D01*
X0169617Y0336383D02*
X0171585Y0336383D01*
X0171585Y0334414D02*
X0169617Y0334414D01*
D35*
X0168042Y0330477D03*
X0166074Y0330477D03*
X0164105Y0330477D03*
X0162137Y0330477D03*
X0160168Y0330477D03*
X0158200Y0330477D03*
X0156231Y0330477D03*
X0154263Y0330477D03*
X0154263Y0352131D03*
X0156231Y0352131D03*
X0158200Y0352131D03*
X0160168Y0352131D03*
X0162137Y0352131D03*
X0164105Y0352131D03*
X0166074Y0352131D03*
X0168042Y0352131D03*
D36*
X0171979Y0348194D03*
X0171979Y0346225D03*
X0171979Y0344257D03*
X0171979Y0342288D03*
X0171979Y0340320D03*
X0171979Y0338351D03*
X0171979Y0336383D03*
X0171979Y0334414D03*
X0150326Y0334414D03*
X0150326Y0336383D03*
X0150326Y0338351D03*
X0150326Y0340320D03*
X0150326Y0342288D03*
X0150326Y0344257D03*
X0150326Y0346225D03*
X0150326Y0348194D03*
D37*
X0154573Y0346847D02*
X0154538Y0346540D01*
X0154538Y0336068D01*
X0154573Y0335761D01*
X0154675Y0335470D01*
X0154839Y0335208D01*
X0155057Y0334990D01*
X0155318Y0334826D01*
X0155610Y0334724D01*
X0155916Y0334690D01*
X0166389Y0334690D01*
X0166695Y0334724D01*
X0166986Y0334826D01*
X0167248Y0334990D01*
X0167466Y0335208D01*
X0167630Y0335470D01*
X0167732Y0335761D01*
X0167767Y0336068D01*
X0167767Y0346540D01*
X0167732Y0346847D01*
X0167630Y0347138D01*
X0167466Y0347399D01*
X0167248Y0347617D01*
X0166986Y0347782D01*
X0166695Y0347883D01*
X0166389Y0347918D01*
X0155916Y0347918D01*
X0155610Y0347883D01*
X0155318Y0347782D01*
X0155057Y0347617D01*
X0154839Y0347399D01*
X0154675Y0347138D01*
X0154573Y0346847D01*
X0154561Y0346743D02*
X0167744Y0346743D01*
X0167767Y0346351D02*
X0154538Y0346351D01*
X0154538Y0345959D02*
X0167767Y0345959D01*
X0167767Y0345567D02*
X0154538Y0345567D01*
X0154538Y0345174D02*
X0167767Y0345174D01*
X0167767Y0344782D02*
X0154538Y0344782D01*
X0154538Y0344390D02*
X0167767Y0344390D01*
X0167767Y0343998D02*
X0154538Y0343998D01*
X0154538Y0343606D02*
X0167767Y0343606D01*
X0167767Y0343213D02*
X0154538Y0343213D01*
X0154538Y0342821D02*
X0167767Y0342821D01*
X0167767Y0342429D02*
X0154538Y0342429D01*
X0154538Y0342037D02*
X0167767Y0342037D01*
X0167767Y0341645D02*
X0154538Y0341645D01*
X0154538Y0341252D02*
X0167767Y0341252D01*
X0167767Y0340860D02*
X0154538Y0340860D01*
X0154538Y0340468D02*
X0167767Y0340468D01*
X0167767Y0340076D02*
X0154538Y0340076D01*
X0154538Y0339683D02*
X0167767Y0339683D01*
X0167767Y0339291D02*
X0154538Y0339291D01*
X0154538Y0338899D02*
X0167767Y0338899D01*
X0167767Y0338507D02*
X0154538Y0338507D01*
X0154538Y0338115D02*
X0167767Y0338115D01*
X0167767Y0337722D02*
X0154538Y0337722D01*
X0154538Y0337330D02*
X0167767Y0337330D01*
X0167767Y0336938D02*
X0154538Y0336938D01*
X0154538Y0336546D02*
X0167767Y0336546D01*
X0167767Y0336154D02*
X0154538Y0336154D01*
X0154573Y0335761D02*
X0167732Y0335761D01*
X0167567Y0335369D02*
X0154738Y0335369D01*
X0155078Y0334977D02*
X0167226Y0334977D01*
X0167631Y0347135D02*
X0154674Y0347135D01*
X0154967Y0347528D02*
X0167337Y0347528D01*
X0057885Y0249887D02*
X0057511Y0249512D01*
X0057511Y0247879D01*
X0057668Y0247721D01*
X0057648Y0247721D02*
X0057963Y0247721D01*
X0057806Y0247918D02*
X0057806Y0249729D01*
X0057019Y0250142D02*
X0056841Y0249965D01*
X0056743Y0247524D02*
X0057019Y0247249D01*
X0057019Y0245595D02*
X0056743Y0245320D01*
X0057511Y0244965D02*
X0057511Y0243331D01*
X0057885Y0242957D01*
X0057806Y0243233D02*
X0057806Y0245044D01*
X0057904Y0245123D02*
X0057688Y0245123D01*
X0057511Y0244965D01*
X0056841Y0242879D02*
X0057019Y0242701D01*
X0057019Y0224158D02*
X0056841Y0223981D01*
X0057511Y0223528D02*
X0057885Y0223902D01*
X0057806Y0223745D02*
X0057806Y0221934D01*
X0057668Y0221737D02*
X0057511Y0221894D01*
X0057511Y0223528D01*
X0057648Y0221737D02*
X0057963Y0221737D01*
X0057019Y0221264D02*
X0056743Y0221540D01*
X0057019Y0219611D02*
X0056743Y0219335D01*
X0057511Y0218981D02*
X0057511Y0217347D01*
X0057885Y0216973D01*
X0057806Y0217249D02*
X0057806Y0219060D01*
X0057904Y0219138D02*
X0057688Y0219138D01*
X0057511Y0218981D01*
X0056841Y0216894D02*
X0057019Y0216717D01*
X0057019Y0187938D02*
X0056841Y0187761D01*
X0057511Y0187308D02*
X0057885Y0187682D01*
X0057806Y0187524D02*
X0057806Y0185713D01*
X0057668Y0185516D02*
X0057511Y0185674D01*
X0057511Y0187308D01*
X0057648Y0185516D02*
X0057963Y0185516D01*
X0057019Y0185044D02*
X0056743Y0185320D01*
X0057019Y0183390D02*
X0056743Y0183115D01*
X0057511Y0182761D02*
X0057511Y0181127D01*
X0057885Y0180753D01*
X0057806Y0181028D02*
X0057806Y0182839D01*
X0057904Y0182918D02*
X0057688Y0182918D01*
X0057511Y0182761D01*
X0056841Y0180674D02*
X0057019Y0180497D01*
X0057019Y0159591D02*
X0056841Y0159414D01*
X0057511Y0158961D02*
X0057885Y0159335D01*
X0057806Y0159178D02*
X0057806Y0157367D01*
X0057668Y0157170D02*
X0057511Y0157327D01*
X0057511Y0158961D01*
X0057648Y0157170D02*
X0057963Y0157170D01*
X0057019Y0156698D02*
X0056743Y0156973D01*
X0057019Y0155044D02*
X0056743Y0154768D01*
X0057511Y0154414D02*
X0057511Y0152780D01*
X0057885Y0152406D01*
X0057806Y0152682D02*
X0057806Y0154493D01*
X0057904Y0154572D02*
X0057688Y0154572D01*
X0057511Y0154414D01*
X0056841Y0152327D02*
X0057019Y0152150D01*
X0057019Y0130064D02*
X0056841Y0129887D01*
X0057511Y0129434D02*
X0057885Y0129808D01*
X0057806Y0129650D02*
X0057806Y0127839D01*
X0057668Y0127642D02*
X0057511Y0127800D01*
X0057511Y0129434D01*
X0057648Y0127642D02*
X0057963Y0127642D01*
X0057019Y0127170D02*
X0056743Y0127446D01*
X0057019Y0125516D02*
X0056743Y0125241D01*
X0057511Y0124887D02*
X0057511Y0123253D01*
X0057885Y0122879D01*
X0057806Y0123154D02*
X0057806Y0124965D01*
X0057904Y0125044D02*
X0057688Y0125044D01*
X0057511Y0124887D01*
X0056841Y0122800D02*
X0057019Y0122623D01*
X0060168Y0086363D02*
X0059991Y0086186D01*
X0060660Y0085733D02*
X0061034Y0086107D01*
X0060956Y0085949D02*
X0060956Y0084138D01*
X0060818Y0083942D02*
X0060660Y0084099D01*
X0060660Y0085733D01*
X0060798Y0083942D02*
X0061113Y0083942D01*
X0060168Y0083469D02*
X0059893Y0083745D01*
X0060168Y0081816D02*
X0059893Y0081540D01*
X0060660Y0081186D02*
X0060660Y0079552D01*
X0061034Y0079178D01*
X0060956Y0079453D02*
X0060956Y0081264D01*
X0061054Y0081343D02*
X0060837Y0081343D01*
X0060660Y0081186D01*
X0059991Y0079099D02*
X0060168Y0078922D01*
X0116487Y0071028D02*
X0116664Y0070851D01*
X0117117Y0071520D02*
X0116743Y0071894D01*
X0116900Y0071816D02*
X0118711Y0071816D01*
X0118908Y0071678D02*
X0118751Y0071520D01*
X0117117Y0071520D01*
X0118908Y0071658D02*
X0118908Y0071973D01*
X0119381Y0071028D02*
X0119105Y0070753D01*
X0121034Y0071028D02*
X0121310Y0070753D01*
X0121664Y0071520D02*
X0123298Y0071520D01*
X0123672Y0071894D01*
X0123396Y0071816D02*
X0121585Y0071816D01*
X0121507Y0071914D02*
X0121507Y0071698D01*
X0121664Y0071520D01*
X0123751Y0070851D02*
X0123928Y0071028D01*
X0144440Y0071028D02*
X0144617Y0070851D01*
X0145070Y0071520D02*
X0144696Y0071894D01*
X0144853Y0071816D02*
X0146664Y0071816D01*
X0146861Y0071678D02*
X0146704Y0071520D01*
X0145070Y0071520D01*
X0146861Y0071658D02*
X0146861Y0071973D01*
X0147333Y0071028D02*
X0147058Y0070753D01*
X0148987Y0071028D02*
X0149263Y0070753D01*
X0149617Y0071520D02*
X0151251Y0071520D01*
X0151625Y0071894D01*
X0151349Y0071816D02*
X0149538Y0071816D01*
X0149459Y0071914D02*
X0149459Y0071698D01*
X0149617Y0071520D01*
X0151704Y0070851D02*
X0151881Y0071028D01*
X0173180Y0071028D02*
X0173357Y0070851D01*
X0173810Y0071520D02*
X0173436Y0071894D01*
X0173593Y0071816D02*
X0175404Y0071816D01*
X0175601Y0071678D02*
X0175444Y0071520D01*
X0173810Y0071520D01*
X0175601Y0071658D02*
X0175601Y0071973D01*
X0176074Y0071028D02*
X0175798Y0070753D01*
X0177727Y0071028D02*
X0178003Y0070753D01*
X0178357Y0071520D02*
X0178200Y0071698D01*
X0178200Y0071914D01*
X0178278Y0071816D02*
X0180089Y0071816D01*
X0180365Y0071894D02*
X0179991Y0071520D01*
X0178357Y0071520D01*
X0180444Y0070851D02*
X0180621Y0071028D01*
X0199558Y0071028D02*
X0199735Y0070851D01*
X0200188Y0071520D02*
X0199814Y0071894D01*
X0199971Y0071816D02*
X0201782Y0071816D01*
X0201979Y0071678D02*
X0201822Y0071520D01*
X0200188Y0071520D01*
X0201979Y0071658D02*
X0201979Y0071973D01*
X0202452Y0071028D02*
X0202176Y0070753D01*
X0204105Y0071028D02*
X0204381Y0070753D01*
X0204735Y0071520D02*
X0204578Y0071698D01*
X0204578Y0071914D01*
X0204656Y0071816D02*
X0206467Y0071816D01*
X0206743Y0071894D02*
X0206369Y0071520D01*
X0204735Y0071520D01*
X0206822Y0070851D02*
X0206999Y0071028D01*
X0233416Y0071028D02*
X0233593Y0070851D01*
X0234046Y0071520D02*
X0233672Y0071894D01*
X0233830Y0071816D02*
X0235641Y0071816D01*
X0235837Y0071678D02*
X0235680Y0071520D01*
X0234046Y0071520D01*
X0235837Y0071658D02*
X0235837Y0071973D01*
X0236310Y0071028D02*
X0236034Y0070753D01*
X0237963Y0071028D02*
X0238239Y0070753D01*
X0238593Y0071520D02*
X0240227Y0071520D01*
X0240601Y0071894D01*
X0240326Y0071816D02*
X0238515Y0071816D01*
X0238436Y0071914D02*
X0238436Y0071698D01*
X0238593Y0071520D01*
X0240680Y0070851D02*
X0240857Y0071028D01*
X0362550Y0071028D02*
X0362727Y0070851D01*
X0363180Y0071520D02*
X0362806Y0071894D01*
X0362963Y0071816D02*
X0364774Y0071816D01*
X0364971Y0071678D02*
X0364814Y0071520D01*
X0363180Y0071520D01*
X0364971Y0071658D02*
X0364971Y0071973D01*
X0365444Y0071028D02*
X0365168Y0070753D01*
X0367097Y0071028D02*
X0367373Y0070753D01*
X0367727Y0071520D02*
X0369361Y0071520D01*
X0369735Y0071894D01*
X0369459Y0071816D02*
X0367648Y0071816D01*
X0367570Y0071914D02*
X0367570Y0071698D01*
X0367727Y0071520D01*
X0369814Y0070851D02*
X0369991Y0071028D01*
X0394440Y0071028D02*
X0394617Y0070851D01*
X0395070Y0071520D02*
X0394696Y0071894D01*
X0394853Y0071816D02*
X0396664Y0071816D01*
X0396861Y0071678D02*
X0396704Y0071520D01*
X0395070Y0071520D01*
X0396861Y0071658D02*
X0396861Y0071973D01*
X0397333Y0071028D02*
X0397058Y0070753D01*
X0398987Y0071028D02*
X0399263Y0070753D01*
X0399617Y0071520D02*
X0401251Y0071520D01*
X0401625Y0071894D01*
X0401349Y0071816D02*
X0399538Y0071816D01*
X0399459Y0071914D02*
X0399459Y0071698D01*
X0399617Y0071520D01*
X0401704Y0070851D02*
X0401881Y0071028D01*
X0427117Y0071028D02*
X0427294Y0070851D01*
X0427747Y0071520D02*
X0427373Y0071894D01*
X0427530Y0071816D02*
X0429341Y0071816D01*
X0429538Y0071678D02*
X0429381Y0071520D01*
X0427747Y0071520D01*
X0429538Y0071658D02*
X0429538Y0071973D01*
X0430011Y0071028D02*
X0429735Y0070753D01*
X0431664Y0071028D02*
X0431940Y0070753D01*
X0432294Y0071520D02*
X0433928Y0071520D01*
X0434302Y0071894D01*
X0434026Y0071816D02*
X0432215Y0071816D01*
X0432137Y0071914D02*
X0432137Y0071698D01*
X0432294Y0071520D01*
X0434381Y0070851D02*
X0434558Y0071028D01*
X0459400Y0071028D02*
X0459578Y0070851D01*
X0460030Y0071520D02*
X0459656Y0071894D01*
X0459814Y0071816D02*
X0461625Y0071816D01*
X0461822Y0071678D02*
X0461664Y0071520D01*
X0460030Y0071520D01*
X0461822Y0071658D02*
X0461822Y0071973D01*
X0462294Y0071028D02*
X0462019Y0070753D01*
X0463948Y0071028D02*
X0464223Y0070753D01*
X0464578Y0071520D02*
X0466211Y0071520D01*
X0466585Y0071894D01*
X0466310Y0071816D02*
X0464499Y0071816D01*
X0464420Y0071914D02*
X0464420Y0071698D01*
X0464578Y0071520D01*
X0466664Y0070851D02*
X0466841Y0071028D01*
X0494833Y0071028D02*
X0495011Y0070851D01*
X0495463Y0071520D02*
X0495089Y0071894D01*
X0495247Y0071816D02*
X0497058Y0071816D01*
X0497255Y0071678D02*
X0497097Y0071520D01*
X0495463Y0071520D01*
X0497255Y0071658D02*
X0497255Y0071973D01*
X0497727Y0071028D02*
X0497452Y0070753D01*
X0499381Y0071028D02*
X0499656Y0070753D01*
X0500011Y0071520D02*
X0501644Y0071520D01*
X0502019Y0071894D01*
X0501743Y0071816D02*
X0499932Y0071816D01*
X0499853Y0071914D02*
X0499853Y0071698D01*
X0500011Y0071520D01*
X0502097Y0070851D02*
X0502274Y0071028D01*
D38*
X0305247Y0092879D03*
X0293830Y0213351D03*
X0350522Y0240516D03*
X0350522Y0251737D03*
X0418042Y0254296D03*
X0431034Y0254296D03*
X0301704Y0294453D03*
X0228475Y0223981D03*
X0130444Y0356264D03*
D39*
X0025050Y0280792D03*
X0076782Y0039060D03*
X0328751Y0039060D03*
X0570483Y0109296D03*
D40*
X0560483Y0109296D03*
X0560483Y0119296D03*
X0560483Y0129296D03*
X0570483Y0129296D03*
X0570483Y0119296D03*
X0570483Y0139296D03*
X0560483Y0139296D03*
X0560483Y0149296D03*
X0570483Y0149296D03*
X0570483Y0159296D03*
X0560483Y0159296D03*
X0560483Y0169296D03*
X0570483Y0169296D03*
X0570483Y0179296D03*
X0560483Y0179296D03*
X0560483Y0189296D03*
X0570483Y0189296D03*
X0570483Y0199296D03*
X0560483Y0199296D03*
X0518751Y0049060D03*
X0508751Y0049060D03*
X0498751Y0049060D03*
X0488751Y0049060D03*
X0478751Y0049060D03*
X0468751Y0049060D03*
X0458751Y0049060D03*
X0448751Y0049060D03*
X0438751Y0049060D03*
X0428751Y0049060D03*
X0418751Y0049060D03*
X0408751Y0049060D03*
X0398751Y0049060D03*
X0388751Y0049060D03*
X0378751Y0049060D03*
X0368751Y0049060D03*
X0358751Y0049060D03*
X0348751Y0049060D03*
X0338751Y0049060D03*
X0328751Y0049060D03*
X0338751Y0039060D03*
X0348751Y0039060D03*
X0358751Y0039060D03*
X0368751Y0039060D03*
X0378751Y0039060D03*
X0388751Y0039060D03*
X0398751Y0039060D03*
X0408751Y0039060D03*
X0418751Y0039060D03*
X0428751Y0039060D03*
X0438751Y0039060D03*
X0448751Y0039060D03*
X0458751Y0039060D03*
X0468751Y0039060D03*
X0478751Y0039060D03*
X0488751Y0039060D03*
X0498751Y0039060D03*
X0508751Y0039060D03*
X0518751Y0039060D03*
X0266782Y0039060D03*
X0256782Y0039060D03*
X0246782Y0039060D03*
X0236782Y0039060D03*
X0226782Y0039060D03*
X0216782Y0039060D03*
X0206782Y0039060D03*
X0196782Y0039060D03*
X0186782Y0039060D03*
X0176782Y0039060D03*
X0166782Y0039060D03*
X0156782Y0039060D03*
X0146782Y0039060D03*
X0136782Y0039060D03*
X0126782Y0039060D03*
X0116782Y0039060D03*
X0106782Y0039060D03*
X0096782Y0039060D03*
X0086782Y0039060D03*
X0086782Y0049060D03*
X0096782Y0049060D03*
X0106782Y0049060D03*
X0116782Y0049060D03*
X0126782Y0049060D03*
X0136782Y0049060D03*
X0146782Y0049060D03*
X0156782Y0049060D03*
X0166782Y0049060D03*
X0176782Y0049060D03*
X0186782Y0049060D03*
X0196782Y0049060D03*
X0206782Y0049060D03*
X0216782Y0049060D03*
X0226782Y0049060D03*
X0236782Y0049060D03*
X0246782Y0049060D03*
X0256782Y0049060D03*
X0266782Y0049060D03*
X0076782Y0049060D03*
X0035050Y0090792D03*
X0025050Y0090792D03*
X0025050Y0100792D03*
X0035050Y0100792D03*
X0035050Y0110792D03*
X0025050Y0110792D03*
X0025050Y0120792D03*
X0035050Y0120792D03*
X0035050Y0130792D03*
X0025050Y0130792D03*
X0025050Y0140792D03*
X0035050Y0140792D03*
X0035050Y0150792D03*
X0025050Y0150792D03*
X0025050Y0160792D03*
X0035050Y0160792D03*
X0035050Y0170792D03*
X0025050Y0170792D03*
X0025050Y0180792D03*
X0035050Y0180792D03*
X0035050Y0190792D03*
X0025050Y0190792D03*
X0025050Y0200792D03*
X0035050Y0200792D03*
X0035050Y0210792D03*
X0025050Y0210792D03*
X0025050Y0220792D03*
X0035050Y0220792D03*
X0035050Y0230792D03*
X0025050Y0230792D03*
X0025050Y0240792D03*
X0035050Y0240792D03*
X0035050Y0250792D03*
X0025050Y0250792D03*
X0025050Y0260792D03*
X0035050Y0260792D03*
X0035050Y0270792D03*
X0025050Y0270792D03*
X0035050Y0280792D03*
D41*
G36*
X0131037Y0216068D02*
X0127132Y0219973D01*
X0128533Y0221374D01*
X0132438Y0217469D01*
X0131037Y0216068D01*
G37*
G36*
X0129645Y0214676D02*
X0125740Y0218581D01*
X0127141Y0219982D01*
X0131046Y0216077D01*
X0129645Y0214676D01*
G37*
G36*
X0128253Y0213284D02*
X0124348Y0217189D01*
X0125749Y0218590D01*
X0129654Y0214685D01*
X0128253Y0213284D01*
G37*
G36*
X0126861Y0211892D02*
X0122956Y0215797D01*
X0124357Y0217198D01*
X0128262Y0213293D01*
X0126861Y0211892D01*
G37*
G36*
X0125469Y0210500D02*
X0121564Y0214405D01*
X0122965Y0215806D01*
X0126870Y0211901D01*
X0125469Y0210500D01*
G37*
G36*
X0124077Y0209108D02*
X0120172Y0213013D01*
X0121573Y0214414D01*
X0125478Y0210509D01*
X0124077Y0209108D01*
G37*
G36*
X0122686Y0207716D02*
X0118781Y0211621D01*
X0120182Y0213022D01*
X0124087Y0209117D01*
X0122686Y0207716D01*
G37*
G36*
X0121294Y0206324D02*
X0117389Y0210229D01*
X0118790Y0211630D01*
X0122695Y0207725D01*
X0121294Y0206324D01*
G37*
G36*
X0119902Y0204932D02*
X0115997Y0208837D01*
X0117398Y0210238D01*
X0121303Y0206333D01*
X0119902Y0204932D01*
G37*
G36*
X0118510Y0203541D02*
X0114605Y0207446D01*
X0116006Y0208847D01*
X0119911Y0204942D01*
X0118510Y0203541D01*
G37*
G36*
X0117118Y0202149D02*
X0113213Y0206054D01*
X0114614Y0207455D01*
X0118519Y0203550D01*
X0117118Y0202149D01*
G37*
G36*
X0115726Y0200757D02*
X0111821Y0204662D01*
X0113222Y0206063D01*
X0117127Y0202158D01*
X0115726Y0200757D01*
G37*
G36*
X0114334Y0199365D02*
X0110429Y0203270D01*
X0111830Y0204671D01*
X0115735Y0200766D01*
X0114334Y0199365D01*
G37*
G36*
X0112942Y0197973D02*
X0109037Y0201878D01*
X0110438Y0203279D01*
X0114343Y0199374D01*
X0112942Y0197973D01*
G37*
G36*
X0111550Y0196581D02*
X0107645Y0200486D01*
X0109046Y0201887D01*
X0112951Y0197982D01*
X0111550Y0196581D01*
G37*
G36*
X0112951Y0189350D02*
X0109046Y0185445D01*
X0107645Y0186846D01*
X0111550Y0190751D01*
X0112951Y0189350D01*
G37*
G36*
X0114343Y0187958D02*
X0110438Y0184053D01*
X0109037Y0185454D01*
X0112942Y0189359D01*
X0114343Y0187958D01*
G37*
G36*
X0115735Y0186566D02*
X0111830Y0182661D01*
X0110429Y0184062D01*
X0114334Y0187967D01*
X0115735Y0186566D01*
G37*
G36*
X0117127Y0185174D02*
X0113222Y0181269D01*
X0111821Y0182670D01*
X0115726Y0186575D01*
X0117127Y0185174D01*
G37*
G36*
X0118519Y0183782D02*
X0114614Y0179877D01*
X0113213Y0181278D01*
X0117118Y0185183D01*
X0118519Y0183782D01*
G37*
G36*
X0119911Y0182391D02*
X0116006Y0178486D01*
X0114605Y0179887D01*
X0118510Y0183792D01*
X0119911Y0182391D01*
G37*
G36*
X0121303Y0180999D02*
X0117398Y0177094D01*
X0115997Y0178495D01*
X0119902Y0182400D01*
X0121303Y0180999D01*
G37*
G36*
X0122695Y0179607D02*
X0118790Y0175702D01*
X0117389Y0177103D01*
X0121294Y0181008D01*
X0122695Y0179607D01*
G37*
G36*
X0124087Y0178215D02*
X0120182Y0174310D01*
X0118781Y0175711D01*
X0122686Y0179616D01*
X0124087Y0178215D01*
G37*
G36*
X0125478Y0176823D02*
X0121573Y0172918D01*
X0120172Y0174319D01*
X0124077Y0178224D01*
X0125478Y0176823D01*
G37*
G36*
X0126870Y0175431D02*
X0122965Y0171526D01*
X0121564Y0172927D01*
X0125469Y0176832D01*
X0126870Y0175431D01*
G37*
G36*
X0128262Y0174039D02*
X0124357Y0170134D01*
X0122956Y0171535D01*
X0126861Y0175440D01*
X0128262Y0174039D01*
G37*
G36*
X0129654Y0172647D02*
X0125749Y0168742D01*
X0124348Y0170143D01*
X0128253Y0174048D01*
X0129654Y0172647D01*
G37*
G36*
X0131046Y0171255D02*
X0127141Y0167350D01*
X0125740Y0168751D01*
X0129645Y0172656D01*
X0131046Y0171255D01*
G37*
G36*
X0132438Y0169863D02*
X0128533Y0165958D01*
X0127132Y0167359D01*
X0131037Y0171264D01*
X0132438Y0169863D01*
G37*
G36*
X0133830Y0168471D02*
X0129925Y0164566D01*
X0128524Y0165967D01*
X0132429Y0169872D01*
X0133830Y0168471D01*
G37*
G36*
X0135222Y0167079D02*
X0131317Y0163174D01*
X0129916Y0164575D01*
X0133821Y0168480D01*
X0135222Y0167079D01*
G37*
G36*
X0136614Y0165687D02*
X0132709Y0161782D01*
X0131308Y0163183D01*
X0135213Y0167088D01*
X0136614Y0165687D01*
G37*
G36*
X0138006Y0164295D02*
X0134101Y0160390D01*
X0132700Y0161791D01*
X0136605Y0165696D01*
X0138006Y0164295D01*
G37*
G36*
X0139398Y0162903D02*
X0135493Y0158998D01*
X0134092Y0160399D01*
X0137997Y0164304D01*
X0139398Y0162903D01*
G37*
G36*
X0140790Y0161511D02*
X0136885Y0157606D01*
X0135484Y0159007D01*
X0139389Y0162912D01*
X0140790Y0161511D01*
G37*
G36*
X0142182Y0160119D02*
X0138277Y0156214D01*
X0136876Y0157615D01*
X0140781Y0161520D01*
X0142182Y0160119D01*
G37*
G36*
X0143574Y0158728D02*
X0139669Y0154823D01*
X0138268Y0156224D01*
X0142173Y0160129D01*
X0143574Y0158728D01*
G37*
G36*
X0144966Y0157336D02*
X0141061Y0153431D01*
X0139660Y0154832D01*
X0143565Y0158737D01*
X0144966Y0157336D01*
G37*
G36*
X0146358Y0155944D02*
X0142453Y0152039D01*
X0141052Y0153440D01*
X0144957Y0157345D01*
X0146358Y0155944D01*
G37*
G36*
X0147750Y0154552D02*
X0143845Y0150647D01*
X0142444Y0152048D01*
X0146349Y0155953D01*
X0147750Y0154552D01*
G37*
G36*
X0149141Y0153160D02*
X0145236Y0149255D01*
X0143835Y0150656D01*
X0147740Y0154561D01*
X0149141Y0153160D01*
G37*
G36*
X0150533Y0151768D02*
X0146628Y0147863D01*
X0145227Y0149264D01*
X0149132Y0153169D01*
X0150533Y0151768D01*
G37*
G36*
X0151925Y0150376D02*
X0148020Y0146471D01*
X0146619Y0147872D01*
X0150524Y0151777D01*
X0151925Y0150376D01*
G37*
G36*
X0153317Y0148984D02*
X0149412Y0145079D01*
X0148011Y0146480D01*
X0151916Y0150385D01*
X0153317Y0148984D01*
G37*
G36*
X0154709Y0147592D02*
X0150804Y0143687D01*
X0149403Y0145088D01*
X0153308Y0148993D01*
X0154709Y0147592D01*
G37*
G36*
X0156101Y0146200D02*
X0152196Y0142295D01*
X0150795Y0143696D01*
X0154700Y0147601D01*
X0156101Y0146200D01*
G37*
G36*
X0157493Y0144808D02*
X0153588Y0140903D01*
X0152187Y0142304D01*
X0156092Y0146209D01*
X0157493Y0144808D01*
G37*
G36*
X0158885Y0143416D02*
X0154980Y0139511D01*
X0153579Y0140912D01*
X0157484Y0144817D01*
X0158885Y0143416D01*
G37*
G36*
X0160277Y0142024D02*
X0156372Y0138119D01*
X0154971Y0139520D01*
X0158876Y0143425D01*
X0160277Y0142024D01*
G37*
G36*
X0161669Y0140632D02*
X0157764Y0136727D01*
X0156363Y0138128D01*
X0160268Y0142033D01*
X0161669Y0140632D01*
G37*
G36*
X0163061Y0139240D02*
X0159156Y0135335D01*
X0157755Y0136736D01*
X0161660Y0140641D01*
X0163061Y0139240D01*
G37*
G36*
X0164453Y0137848D02*
X0160548Y0133943D01*
X0159147Y0135344D01*
X0163052Y0139249D01*
X0164453Y0137848D01*
G37*
G36*
X0165845Y0136456D02*
X0161940Y0132551D01*
X0160539Y0133952D01*
X0164444Y0137857D01*
X0165845Y0136456D01*
G37*
G36*
X0167237Y0135065D02*
X0163332Y0131160D01*
X0161931Y0132561D01*
X0165836Y0136466D01*
X0167237Y0135065D01*
G37*
G36*
X0168629Y0133673D02*
X0164724Y0129768D01*
X0163323Y0131169D01*
X0167228Y0135074D01*
X0168629Y0133673D01*
G37*
G36*
X0170021Y0132281D02*
X0166116Y0128376D01*
X0164715Y0129777D01*
X0168620Y0133682D01*
X0170021Y0132281D01*
G37*
G36*
X0171413Y0130889D02*
X0167508Y0126984D01*
X0166107Y0128385D01*
X0170012Y0132290D01*
X0171413Y0130889D01*
G37*
G36*
X0172805Y0129497D02*
X0168900Y0125592D01*
X0167499Y0126993D01*
X0171404Y0130898D01*
X0172805Y0129497D01*
G37*
G36*
X0180035Y0130898D02*
X0183940Y0126993D01*
X0182539Y0125592D01*
X0178634Y0129497D01*
X0180035Y0130898D01*
G37*
G36*
X0181427Y0132290D02*
X0185332Y0128385D01*
X0183931Y0126984D01*
X0180026Y0130889D01*
X0181427Y0132290D01*
G37*
G36*
X0182819Y0133682D02*
X0186724Y0129777D01*
X0185323Y0128376D01*
X0181418Y0132281D01*
X0182819Y0133682D01*
G37*
G36*
X0184211Y0135074D02*
X0188116Y0131169D01*
X0186715Y0129768D01*
X0182810Y0133673D01*
X0184211Y0135074D01*
G37*
G36*
X0185603Y0136466D02*
X0189508Y0132561D01*
X0188107Y0131160D01*
X0184202Y0135065D01*
X0185603Y0136466D01*
G37*
G36*
X0186995Y0137857D02*
X0190900Y0133952D01*
X0189499Y0132551D01*
X0185594Y0136456D01*
X0186995Y0137857D01*
G37*
G36*
X0188387Y0139249D02*
X0192292Y0135344D01*
X0190891Y0133943D01*
X0186986Y0137848D01*
X0188387Y0139249D01*
G37*
G36*
X0189779Y0140641D02*
X0193684Y0136736D01*
X0192283Y0135335D01*
X0188378Y0139240D01*
X0189779Y0140641D01*
G37*
G36*
X0191171Y0142033D02*
X0195076Y0138128D01*
X0193675Y0136727D01*
X0189770Y0140632D01*
X0191171Y0142033D01*
G37*
G36*
X0192563Y0143425D02*
X0196468Y0139520D01*
X0195067Y0138119D01*
X0191162Y0142024D01*
X0192563Y0143425D01*
G37*
G36*
X0193954Y0144817D02*
X0197859Y0140912D01*
X0196458Y0139511D01*
X0192553Y0143416D01*
X0193954Y0144817D01*
G37*
G36*
X0195346Y0146209D02*
X0199251Y0142304D01*
X0197850Y0140903D01*
X0193945Y0144808D01*
X0195346Y0146209D01*
G37*
G36*
X0196738Y0147601D02*
X0200643Y0143696D01*
X0199242Y0142295D01*
X0195337Y0146200D01*
X0196738Y0147601D01*
G37*
G36*
X0198130Y0148993D02*
X0202035Y0145088D01*
X0200634Y0143687D01*
X0196729Y0147592D01*
X0198130Y0148993D01*
G37*
G36*
X0199522Y0150385D02*
X0203427Y0146480D01*
X0202026Y0145079D01*
X0198121Y0148984D01*
X0199522Y0150385D01*
G37*
G36*
X0200914Y0151777D02*
X0204819Y0147872D01*
X0203418Y0146471D01*
X0199513Y0150376D01*
X0200914Y0151777D01*
G37*
G36*
X0202306Y0153169D02*
X0206211Y0149264D01*
X0204810Y0147863D01*
X0200905Y0151768D01*
X0202306Y0153169D01*
G37*
G36*
X0203698Y0154561D02*
X0207603Y0150656D01*
X0206202Y0149255D01*
X0202297Y0153160D01*
X0203698Y0154561D01*
G37*
G36*
X0205090Y0155953D02*
X0208995Y0152048D01*
X0207594Y0150647D01*
X0203689Y0154552D01*
X0205090Y0155953D01*
G37*
G36*
X0206482Y0157345D02*
X0210387Y0153440D01*
X0208986Y0152039D01*
X0205081Y0155944D01*
X0206482Y0157345D01*
G37*
G36*
X0207874Y0158737D02*
X0211779Y0154832D01*
X0210378Y0153431D01*
X0206473Y0157336D01*
X0207874Y0158737D01*
G37*
G36*
X0209266Y0160129D02*
X0213171Y0156224D01*
X0211770Y0154823D01*
X0207865Y0158728D01*
X0209266Y0160129D01*
G37*
G36*
X0210658Y0161520D02*
X0214563Y0157615D01*
X0213162Y0156214D01*
X0209257Y0160119D01*
X0210658Y0161520D01*
G37*
G36*
X0212050Y0162912D02*
X0215955Y0159007D01*
X0214554Y0157606D01*
X0210649Y0161511D01*
X0212050Y0162912D01*
G37*
G36*
X0213442Y0164304D02*
X0217347Y0160399D01*
X0215946Y0158998D01*
X0212041Y0162903D01*
X0213442Y0164304D01*
G37*
G36*
X0214834Y0165696D02*
X0218739Y0161791D01*
X0217338Y0160390D01*
X0213433Y0164295D01*
X0214834Y0165696D01*
G37*
G36*
X0216226Y0167088D02*
X0220131Y0163183D01*
X0218730Y0161782D01*
X0214825Y0165687D01*
X0216226Y0167088D01*
G37*
G36*
X0217618Y0168480D02*
X0221523Y0164575D01*
X0220122Y0163174D01*
X0216217Y0167079D01*
X0217618Y0168480D01*
G37*
G36*
X0219009Y0169872D02*
X0222914Y0165967D01*
X0221513Y0164566D01*
X0217608Y0168471D01*
X0219009Y0169872D01*
G37*
G36*
X0220401Y0171264D02*
X0224306Y0167359D01*
X0222905Y0165958D01*
X0219000Y0169863D01*
X0220401Y0171264D01*
G37*
G36*
X0221793Y0172656D02*
X0225698Y0168751D01*
X0224297Y0167350D01*
X0220392Y0171255D01*
X0221793Y0172656D01*
G37*
G36*
X0223185Y0174048D02*
X0227090Y0170143D01*
X0225689Y0168742D01*
X0221784Y0172647D01*
X0223185Y0174048D01*
G37*
G36*
X0224577Y0175440D02*
X0228482Y0171535D01*
X0227081Y0170134D01*
X0223176Y0174039D01*
X0224577Y0175440D01*
G37*
G36*
X0225969Y0176832D02*
X0229874Y0172927D01*
X0228473Y0171526D01*
X0224568Y0175431D01*
X0225969Y0176832D01*
G37*
G36*
X0227361Y0178224D02*
X0231266Y0174319D01*
X0229865Y0172918D01*
X0225960Y0176823D01*
X0227361Y0178224D01*
G37*
G36*
X0228753Y0179616D02*
X0232658Y0175711D01*
X0231257Y0174310D01*
X0227352Y0178215D01*
X0228753Y0179616D01*
G37*
G36*
X0230145Y0181008D02*
X0234050Y0177103D01*
X0232649Y0175702D01*
X0228744Y0179607D01*
X0230145Y0181008D01*
G37*
G36*
X0231537Y0182400D02*
X0235442Y0178495D01*
X0234041Y0177094D01*
X0230136Y0180999D01*
X0231537Y0182400D01*
G37*
G36*
X0232929Y0183792D02*
X0236834Y0179887D01*
X0235433Y0178486D01*
X0231528Y0182391D01*
X0232929Y0183792D01*
G37*
G36*
X0234321Y0185183D02*
X0238226Y0181278D01*
X0236825Y0179877D01*
X0232920Y0183782D01*
X0234321Y0185183D01*
G37*
G36*
X0235713Y0186575D02*
X0239618Y0182670D01*
X0238217Y0181269D01*
X0234312Y0185174D01*
X0235713Y0186575D01*
G37*
G36*
X0237105Y0187967D02*
X0241010Y0184062D01*
X0239609Y0182661D01*
X0235704Y0186566D01*
X0237105Y0187967D01*
G37*
G36*
X0238497Y0189359D02*
X0242402Y0185454D01*
X0241001Y0184053D01*
X0237096Y0187958D01*
X0238497Y0189359D01*
G37*
G36*
X0239889Y0190751D02*
X0243794Y0186846D01*
X0242393Y0185445D01*
X0238488Y0189350D01*
X0239889Y0190751D01*
G37*
G36*
X0238488Y0197982D02*
X0242393Y0201887D01*
X0243794Y0200486D01*
X0239889Y0196581D01*
X0238488Y0197982D01*
G37*
G36*
X0237096Y0199374D02*
X0241001Y0203279D01*
X0242402Y0201878D01*
X0238497Y0197973D01*
X0237096Y0199374D01*
G37*
G36*
X0235704Y0200766D02*
X0239609Y0204671D01*
X0241010Y0203270D01*
X0237105Y0199365D01*
X0235704Y0200766D01*
G37*
G36*
X0234312Y0202158D02*
X0238217Y0206063D01*
X0239618Y0204662D01*
X0235713Y0200757D01*
X0234312Y0202158D01*
G37*
G36*
X0232920Y0203550D02*
X0236825Y0207455D01*
X0238226Y0206054D01*
X0234321Y0202149D01*
X0232920Y0203550D01*
G37*
G36*
X0231528Y0204942D02*
X0235433Y0208847D01*
X0236834Y0207446D01*
X0232929Y0203541D01*
X0231528Y0204942D01*
G37*
G36*
X0230136Y0206333D02*
X0234041Y0210238D01*
X0235442Y0208837D01*
X0231537Y0204932D01*
X0230136Y0206333D01*
G37*
G36*
X0228744Y0207725D02*
X0232649Y0211630D01*
X0234050Y0210229D01*
X0230145Y0206324D01*
X0228744Y0207725D01*
G37*
G36*
X0227352Y0209117D02*
X0231257Y0213022D01*
X0232658Y0211621D01*
X0228753Y0207716D01*
X0227352Y0209117D01*
G37*
G36*
X0225960Y0210509D02*
X0229865Y0214414D01*
X0231266Y0213013D01*
X0227361Y0209108D01*
X0225960Y0210509D01*
G37*
G36*
X0224568Y0211901D02*
X0228473Y0215806D01*
X0229874Y0214405D01*
X0225969Y0210500D01*
X0224568Y0211901D01*
G37*
G36*
X0223176Y0213293D02*
X0227081Y0217198D01*
X0228482Y0215797D01*
X0224577Y0211892D01*
X0223176Y0213293D01*
G37*
G36*
X0221784Y0214685D02*
X0225689Y0218590D01*
X0227090Y0217189D01*
X0223185Y0213284D01*
X0221784Y0214685D01*
G37*
G36*
X0220392Y0216077D02*
X0224297Y0219982D01*
X0225698Y0218581D01*
X0221793Y0214676D01*
X0220392Y0216077D01*
G37*
G36*
X0219000Y0217469D02*
X0222905Y0221374D01*
X0224306Y0219973D01*
X0220401Y0216068D01*
X0219000Y0217469D01*
G37*
G36*
X0217608Y0218861D02*
X0221513Y0222766D01*
X0222914Y0221365D01*
X0219009Y0217460D01*
X0217608Y0218861D01*
G37*
G36*
X0216217Y0220253D02*
X0220122Y0224158D01*
X0221523Y0222757D01*
X0217618Y0218852D01*
X0216217Y0220253D01*
G37*
G36*
X0214825Y0221645D02*
X0218730Y0225550D01*
X0220131Y0224149D01*
X0216226Y0220244D01*
X0214825Y0221645D01*
G37*
G36*
X0213433Y0223037D02*
X0217338Y0226942D01*
X0218739Y0225541D01*
X0214834Y0221636D01*
X0213433Y0223037D01*
G37*
G36*
X0212041Y0224429D02*
X0215946Y0228334D01*
X0217347Y0226933D01*
X0213442Y0223028D01*
X0212041Y0224429D01*
G37*
G36*
X0210649Y0225821D02*
X0214554Y0229726D01*
X0215955Y0228325D01*
X0212050Y0224420D01*
X0210649Y0225821D01*
G37*
G36*
X0209257Y0227213D02*
X0213162Y0231118D01*
X0214563Y0229717D01*
X0210658Y0225812D01*
X0209257Y0227213D01*
G37*
G36*
X0207865Y0228605D02*
X0211770Y0232510D01*
X0213171Y0231109D01*
X0209266Y0227204D01*
X0207865Y0228605D01*
G37*
G36*
X0206473Y0229996D02*
X0210378Y0233901D01*
X0211779Y0232500D01*
X0207874Y0228595D01*
X0206473Y0229996D01*
G37*
G36*
X0205081Y0231388D02*
X0208986Y0235293D01*
X0210387Y0233892D01*
X0206482Y0229987D01*
X0205081Y0231388D01*
G37*
G36*
X0203689Y0232780D02*
X0207594Y0236685D01*
X0208995Y0235284D01*
X0205090Y0231379D01*
X0203689Y0232780D01*
G37*
G36*
X0202297Y0234172D02*
X0206202Y0238077D01*
X0207603Y0236676D01*
X0203698Y0232771D01*
X0202297Y0234172D01*
G37*
G36*
X0200905Y0235564D02*
X0204810Y0239469D01*
X0206211Y0238068D01*
X0202306Y0234163D01*
X0200905Y0235564D01*
G37*
G36*
X0199513Y0236956D02*
X0203418Y0240861D01*
X0204819Y0239460D01*
X0200914Y0235555D01*
X0199513Y0236956D01*
G37*
G36*
X0198121Y0238348D02*
X0202026Y0242253D01*
X0203427Y0240852D01*
X0199522Y0236947D01*
X0198121Y0238348D01*
G37*
G36*
X0196729Y0239740D02*
X0200634Y0243645D01*
X0202035Y0242244D01*
X0198130Y0238339D01*
X0196729Y0239740D01*
G37*
G36*
X0195337Y0241132D02*
X0199242Y0245037D01*
X0200643Y0243636D01*
X0196738Y0239731D01*
X0195337Y0241132D01*
G37*
G36*
X0193945Y0242524D02*
X0197850Y0246429D01*
X0199251Y0245028D01*
X0195346Y0241123D01*
X0193945Y0242524D01*
G37*
G36*
X0192553Y0243916D02*
X0196458Y0247821D01*
X0197859Y0246420D01*
X0193954Y0242515D01*
X0192553Y0243916D01*
G37*
G36*
X0191162Y0245308D02*
X0195067Y0249213D01*
X0196468Y0247812D01*
X0192563Y0243907D01*
X0191162Y0245308D01*
G37*
G36*
X0189770Y0246700D02*
X0193675Y0250605D01*
X0195076Y0249204D01*
X0191171Y0245299D01*
X0189770Y0246700D01*
G37*
G36*
X0188378Y0248092D02*
X0192283Y0251997D01*
X0193684Y0250596D01*
X0189779Y0246691D01*
X0188378Y0248092D01*
G37*
G36*
X0186986Y0249484D02*
X0190891Y0253389D01*
X0192292Y0251988D01*
X0188387Y0248083D01*
X0186986Y0249484D01*
G37*
G36*
X0185594Y0250876D02*
X0189499Y0254781D01*
X0190900Y0253380D01*
X0186995Y0249475D01*
X0185594Y0250876D01*
G37*
G36*
X0184202Y0252268D02*
X0188107Y0256173D01*
X0189508Y0254772D01*
X0185603Y0250867D01*
X0184202Y0252268D01*
G37*
G36*
X0182810Y0253659D02*
X0186715Y0257564D01*
X0188116Y0256163D01*
X0184211Y0252258D01*
X0182810Y0253659D01*
G37*
G36*
X0181418Y0255051D02*
X0185323Y0258956D01*
X0186724Y0257555D01*
X0182819Y0253650D01*
X0181418Y0255051D01*
G37*
G36*
X0180026Y0256443D02*
X0183931Y0260348D01*
X0185332Y0258947D01*
X0181427Y0255042D01*
X0180026Y0256443D01*
G37*
G36*
X0178634Y0257835D02*
X0182539Y0261740D01*
X0183940Y0260339D01*
X0180035Y0256434D01*
X0178634Y0257835D01*
G37*
G36*
X0171404Y0256434D02*
X0167499Y0260339D01*
X0168900Y0261740D01*
X0172805Y0257835D01*
X0171404Y0256434D01*
G37*
G36*
X0170012Y0255042D02*
X0166107Y0258947D01*
X0167508Y0260348D01*
X0171413Y0256443D01*
X0170012Y0255042D01*
G37*
G36*
X0168620Y0253650D02*
X0164715Y0257555D01*
X0166116Y0258956D01*
X0170021Y0255051D01*
X0168620Y0253650D01*
G37*
G36*
X0167228Y0252258D02*
X0163323Y0256163D01*
X0164724Y0257564D01*
X0168629Y0253659D01*
X0167228Y0252258D01*
G37*
G36*
X0165836Y0250867D02*
X0161931Y0254772D01*
X0163332Y0256173D01*
X0167237Y0252268D01*
X0165836Y0250867D01*
G37*
G36*
X0164444Y0249475D02*
X0160539Y0253380D01*
X0161940Y0254781D01*
X0165845Y0250876D01*
X0164444Y0249475D01*
G37*
G36*
X0163052Y0248083D02*
X0159147Y0251988D01*
X0160548Y0253389D01*
X0164453Y0249484D01*
X0163052Y0248083D01*
G37*
G36*
X0161660Y0246691D02*
X0157755Y0250596D01*
X0159156Y0251997D01*
X0163061Y0248092D01*
X0161660Y0246691D01*
G37*
G36*
X0160268Y0245299D02*
X0156363Y0249204D01*
X0157764Y0250605D01*
X0161669Y0246700D01*
X0160268Y0245299D01*
G37*
G36*
X0158876Y0243907D02*
X0154971Y0247812D01*
X0156372Y0249213D01*
X0160277Y0245308D01*
X0158876Y0243907D01*
G37*
G36*
X0157484Y0242515D02*
X0153579Y0246420D01*
X0154980Y0247821D01*
X0158885Y0243916D01*
X0157484Y0242515D01*
G37*
G36*
X0156092Y0241123D02*
X0152187Y0245028D01*
X0153588Y0246429D01*
X0157493Y0242524D01*
X0156092Y0241123D01*
G37*
G36*
X0154700Y0239731D02*
X0150795Y0243636D01*
X0152196Y0245037D01*
X0156101Y0241132D01*
X0154700Y0239731D01*
G37*
G36*
X0153308Y0238339D02*
X0149403Y0242244D01*
X0150804Y0243645D01*
X0154709Y0239740D01*
X0153308Y0238339D01*
G37*
G36*
X0151916Y0236947D02*
X0148011Y0240852D01*
X0149412Y0242253D01*
X0153317Y0238348D01*
X0151916Y0236947D01*
G37*
G36*
X0150524Y0235555D02*
X0146619Y0239460D01*
X0148020Y0240861D01*
X0151925Y0236956D01*
X0150524Y0235555D01*
G37*
G36*
X0149132Y0234163D02*
X0145227Y0238068D01*
X0146628Y0239469D01*
X0150533Y0235564D01*
X0149132Y0234163D01*
G37*
G36*
X0147740Y0232771D02*
X0143835Y0236676D01*
X0145236Y0238077D01*
X0149141Y0234172D01*
X0147740Y0232771D01*
G37*
G36*
X0146349Y0231379D02*
X0142444Y0235284D01*
X0143845Y0236685D01*
X0147750Y0232780D01*
X0146349Y0231379D01*
G37*
G36*
X0144957Y0229987D02*
X0141052Y0233892D01*
X0142453Y0235293D01*
X0146358Y0231388D01*
X0144957Y0229987D01*
G37*
G36*
X0143565Y0228595D02*
X0139660Y0232500D01*
X0141061Y0233901D01*
X0144966Y0229996D01*
X0143565Y0228595D01*
G37*
G36*
X0142173Y0227204D02*
X0138268Y0231109D01*
X0139669Y0232510D01*
X0143574Y0228605D01*
X0142173Y0227204D01*
G37*
G36*
X0140781Y0225812D02*
X0136876Y0229717D01*
X0138277Y0231118D01*
X0142182Y0227213D01*
X0140781Y0225812D01*
G37*
G36*
X0139389Y0224420D02*
X0135484Y0228325D01*
X0136885Y0229726D01*
X0140790Y0225821D01*
X0139389Y0224420D01*
G37*
G36*
X0137997Y0223028D02*
X0134092Y0226933D01*
X0135493Y0228334D01*
X0139398Y0224429D01*
X0137997Y0223028D01*
G37*
G36*
X0136605Y0221636D02*
X0132700Y0225541D01*
X0134101Y0226942D01*
X0138006Y0223037D01*
X0136605Y0221636D01*
G37*
G36*
X0135213Y0220244D02*
X0131308Y0224149D01*
X0132709Y0225550D01*
X0136614Y0221645D01*
X0135213Y0220244D01*
G37*
G36*
X0133821Y0218852D02*
X0129916Y0222757D01*
X0131317Y0224158D01*
X0135222Y0220253D01*
X0133821Y0218852D01*
G37*
G36*
X0132429Y0217460D02*
X0128524Y0221365D01*
X0129925Y0222766D01*
X0133830Y0218861D01*
X0132429Y0217460D01*
G37*
D42*
X0207609Y0367879D03*
X0443436Y0374965D03*
D43*
X0543829Y0355083D02*
X0543831Y0355171D01*
X0543837Y0355259D01*
X0543847Y0355347D01*
X0543861Y0355435D01*
X0543878Y0355521D01*
X0543900Y0355607D01*
X0543925Y0355691D01*
X0543955Y0355775D01*
X0543987Y0355857D01*
X0544024Y0355937D01*
X0544064Y0356016D01*
X0544108Y0356093D01*
X0544155Y0356168D01*
X0544205Y0356240D01*
X0544259Y0356311D01*
X0544315Y0356378D01*
X0544375Y0356444D01*
X0544437Y0356506D01*
X0544503Y0356566D01*
X0544570Y0356622D01*
X0544641Y0356676D01*
X0544713Y0356726D01*
X0544788Y0356773D01*
X0544865Y0356817D01*
X0544944Y0356857D01*
X0545024Y0356894D01*
X0545106Y0356926D01*
X0545190Y0356956D01*
X0545274Y0356981D01*
X0545360Y0357003D01*
X0545446Y0357020D01*
X0545534Y0357034D01*
X0545622Y0357044D01*
X0545710Y0357050D01*
X0545798Y0357052D01*
X0545886Y0357050D01*
X0545974Y0357044D01*
X0546062Y0357034D01*
X0546150Y0357020D01*
X0546236Y0357003D01*
X0546322Y0356981D01*
X0546406Y0356956D01*
X0546490Y0356926D01*
X0546572Y0356894D01*
X0546652Y0356857D01*
X0546731Y0356817D01*
X0546808Y0356773D01*
X0546883Y0356726D01*
X0546955Y0356676D01*
X0547026Y0356622D01*
X0547093Y0356566D01*
X0547159Y0356506D01*
X0547221Y0356444D01*
X0547281Y0356378D01*
X0547337Y0356311D01*
X0547391Y0356240D01*
X0547441Y0356168D01*
X0547488Y0356093D01*
X0547532Y0356016D01*
X0547572Y0355937D01*
X0547609Y0355857D01*
X0547641Y0355775D01*
X0547671Y0355691D01*
X0547696Y0355607D01*
X0547718Y0355521D01*
X0547735Y0355435D01*
X0547749Y0355347D01*
X0547759Y0355259D01*
X0547765Y0355171D01*
X0547767Y0355083D01*
X0547765Y0354995D01*
X0547759Y0354907D01*
X0547749Y0354819D01*
X0547735Y0354731D01*
X0547718Y0354645D01*
X0547696Y0354559D01*
X0547671Y0354475D01*
X0547641Y0354391D01*
X0547609Y0354309D01*
X0547572Y0354229D01*
X0547532Y0354150D01*
X0547488Y0354073D01*
X0547441Y0353998D01*
X0547391Y0353926D01*
X0547337Y0353855D01*
X0547281Y0353788D01*
X0547221Y0353722D01*
X0547159Y0353660D01*
X0547093Y0353600D01*
X0547026Y0353544D01*
X0546955Y0353490D01*
X0546883Y0353440D01*
X0546808Y0353393D01*
X0546731Y0353349D01*
X0546652Y0353309D01*
X0546572Y0353272D01*
X0546490Y0353240D01*
X0546406Y0353210D01*
X0546322Y0353185D01*
X0546236Y0353163D01*
X0546150Y0353146D01*
X0546062Y0353132D01*
X0545974Y0353122D01*
X0545886Y0353116D01*
X0545798Y0353114D01*
X0545710Y0353116D01*
X0545622Y0353122D01*
X0545534Y0353132D01*
X0545446Y0353146D01*
X0545360Y0353163D01*
X0545274Y0353185D01*
X0545190Y0353210D01*
X0545106Y0353240D01*
X0545024Y0353272D01*
X0544944Y0353309D01*
X0544865Y0353349D01*
X0544788Y0353393D01*
X0544713Y0353440D01*
X0544641Y0353490D01*
X0544570Y0353544D01*
X0544503Y0353600D01*
X0544437Y0353660D01*
X0544375Y0353722D01*
X0544315Y0353788D01*
X0544259Y0353855D01*
X0544205Y0353926D01*
X0544155Y0353998D01*
X0544108Y0354073D01*
X0544064Y0354150D01*
X0544024Y0354229D01*
X0543987Y0354309D01*
X0543955Y0354391D01*
X0543925Y0354475D01*
X0543900Y0354559D01*
X0543878Y0354645D01*
X0543861Y0354731D01*
X0543847Y0354819D01*
X0543837Y0354907D01*
X0543831Y0354995D01*
X0543829Y0355083D01*
X0047766Y0063745D02*
X0047768Y0063833D01*
X0047774Y0063921D01*
X0047784Y0064009D01*
X0047798Y0064097D01*
X0047815Y0064183D01*
X0047837Y0064269D01*
X0047862Y0064353D01*
X0047892Y0064437D01*
X0047924Y0064519D01*
X0047961Y0064599D01*
X0048001Y0064678D01*
X0048045Y0064755D01*
X0048092Y0064830D01*
X0048142Y0064902D01*
X0048196Y0064973D01*
X0048252Y0065040D01*
X0048312Y0065106D01*
X0048374Y0065168D01*
X0048440Y0065228D01*
X0048507Y0065284D01*
X0048578Y0065338D01*
X0048650Y0065388D01*
X0048725Y0065435D01*
X0048802Y0065479D01*
X0048881Y0065519D01*
X0048961Y0065556D01*
X0049043Y0065588D01*
X0049127Y0065618D01*
X0049211Y0065643D01*
X0049297Y0065665D01*
X0049383Y0065682D01*
X0049471Y0065696D01*
X0049559Y0065706D01*
X0049647Y0065712D01*
X0049735Y0065714D01*
X0049823Y0065712D01*
X0049911Y0065706D01*
X0049999Y0065696D01*
X0050087Y0065682D01*
X0050173Y0065665D01*
X0050259Y0065643D01*
X0050343Y0065618D01*
X0050427Y0065588D01*
X0050509Y0065556D01*
X0050589Y0065519D01*
X0050668Y0065479D01*
X0050745Y0065435D01*
X0050820Y0065388D01*
X0050892Y0065338D01*
X0050963Y0065284D01*
X0051030Y0065228D01*
X0051096Y0065168D01*
X0051158Y0065106D01*
X0051218Y0065040D01*
X0051274Y0064973D01*
X0051328Y0064902D01*
X0051378Y0064830D01*
X0051425Y0064755D01*
X0051469Y0064678D01*
X0051509Y0064599D01*
X0051546Y0064519D01*
X0051578Y0064437D01*
X0051608Y0064353D01*
X0051633Y0064269D01*
X0051655Y0064183D01*
X0051672Y0064097D01*
X0051686Y0064009D01*
X0051696Y0063921D01*
X0051702Y0063833D01*
X0051704Y0063745D01*
X0051702Y0063657D01*
X0051696Y0063569D01*
X0051686Y0063481D01*
X0051672Y0063393D01*
X0051655Y0063307D01*
X0051633Y0063221D01*
X0051608Y0063137D01*
X0051578Y0063053D01*
X0051546Y0062971D01*
X0051509Y0062891D01*
X0051469Y0062812D01*
X0051425Y0062735D01*
X0051378Y0062660D01*
X0051328Y0062588D01*
X0051274Y0062517D01*
X0051218Y0062450D01*
X0051158Y0062384D01*
X0051096Y0062322D01*
X0051030Y0062262D01*
X0050963Y0062206D01*
X0050892Y0062152D01*
X0050820Y0062102D01*
X0050745Y0062055D01*
X0050668Y0062011D01*
X0050589Y0061971D01*
X0050509Y0061934D01*
X0050427Y0061902D01*
X0050343Y0061872D01*
X0050259Y0061847D01*
X0050173Y0061825D01*
X0050087Y0061808D01*
X0049999Y0061794D01*
X0049911Y0061784D01*
X0049823Y0061778D01*
X0049735Y0061776D01*
X0049647Y0061778D01*
X0049559Y0061784D01*
X0049471Y0061794D01*
X0049383Y0061808D01*
X0049297Y0061825D01*
X0049211Y0061847D01*
X0049127Y0061872D01*
X0049043Y0061902D01*
X0048961Y0061934D01*
X0048881Y0061971D01*
X0048802Y0062011D01*
X0048725Y0062055D01*
X0048650Y0062102D01*
X0048578Y0062152D01*
X0048507Y0062206D01*
X0048440Y0062262D01*
X0048374Y0062322D01*
X0048312Y0062384D01*
X0048252Y0062450D01*
X0048196Y0062517D01*
X0048142Y0062588D01*
X0048092Y0062660D01*
X0048045Y0062735D01*
X0048001Y0062812D01*
X0047961Y0062891D01*
X0047924Y0062971D01*
X0047892Y0063053D01*
X0047862Y0063137D01*
X0047837Y0063221D01*
X0047815Y0063307D01*
X0047798Y0063393D01*
X0047784Y0063481D01*
X0047774Y0063569D01*
X0047768Y0063657D01*
X0047766Y0063745D01*
X0020207Y0335398D02*
X0020209Y0335486D01*
X0020215Y0335574D01*
X0020225Y0335662D01*
X0020239Y0335750D01*
X0020256Y0335836D01*
X0020278Y0335922D01*
X0020303Y0336006D01*
X0020333Y0336090D01*
X0020365Y0336172D01*
X0020402Y0336252D01*
X0020442Y0336331D01*
X0020486Y0336408D01*
X0020533Y0336483D01*
X0020583Y0336555D01*
X0020637Y0336626D01*
X0020693Y0336693D01*
X0020753Y0336759D01*
X0020815Y0336821D01*
X0020881Y0336881D01*
X0020948Y0336937D01*
X0021019Y0336991D01*
X0021091Y0337041D01*
X0021166Y0337088D01*
X0021243Y0337132D01*
X0021322Y0337172D01*
X0021402Y0337209D01*
X0021484Y0337241D01*
X0021568Y0337271D01*
X0021652Y0337296D01*
X0021738Y0337318D01*
X0021824Y0337335D01*
X0021912Y0337349D01*
X0022000Y0337359D01*
X0022088Y0337365D01*
X0022176Y0337367D01*
X0022264Y0337365D01*
X0022352Y0337359D01*
X0022440Y0337349D01*
X0022528Y0337335D01*
X0022614Y0337318D01*
X0022700Y0337296D01*
X0022784Y0337271D01*
X0022868Y0337241D01*
X0022950Y0337209D01*
X0023030Y0337172D01*
X0023109Y0337132D01*
X0023186Y0337088D01*
X0023261Y0337041D01*
X0023333Y0336991D01*
X0023404Y0336937D01*
X0023471Y0336881D01*
X0023537Y0336821D01*
X0023599Y0336759D01*
X0023659Y0336693D01*
X0023715Y0336626D01*
X0023769Y0336555D01*
X0023819Y0336483D01*
X0023866Y0336408D01*
X0023910Y0336331D01*
X0023950Y0336252D01*
X0023987Y0336172D01*
X0024019Y0336090D01*
X0024049Y0336006D01*
X0024074Y0335922D01*
X0024096Y0335836D01*
X0024113Y0335750D01*
X0024127Y0335662D01*
X0024137Y0335574D01*
X0024143Y0335486D01*
X0024145Y0335398D01*
X0024143Y0335310D01*
X0024137Y0335222D01*
X0024127Y0335134D01*
X0024113Y0335046D01*
X0024096Y0334960D01*
X0024074Y0334874D01*
X0024049Y0334790D01*
X0024019Y0334706D01*
X0023987Y0334624D01*
X0023950Y0334544D01*
X0023910Y0334465D01*
X0023866Y0334388D01*
X0023819Y0334313D01*
X0023769Y0334241D01*
X0023715Y0334170D01*
X0023659Y0334103D01*
X0023599Y0334037D01*
X0023537Y0333975D01*
X0023471Y0333915D01*
X0023404Y0333859D01*
X0023333Y0333805D01*
X0023261Y0333755D01*
X0023186Y0333708D01*
X0023109Y0333664D01*
X0023030Y0333624D01*
X0022950Y0333587D01*
X0022868Y0333555D01*
X0022784Y0333525D01*
X0022700Y0333500D01*
X0022614Y0333478D01*
X0022528Y0333461D01*
X0022440Y0333447D01*
X0022352Y0333437D01*
X0022264Y0333431D01*
X0022176Y0333429D01*
X0022088Y0333431D01*
X0022000Y0333437D01*
X0021912Y0333447D01*
X0021824Y0333461D01*
X0021738Y0333478D01*
X0021652Y0333500D01*
X0021568Y0333525D01*
X0021484Y0333555D01*
X0021402Y0333587D01*
X0021322Y0333624D01*
X0021243Y0333664D01*
X0021166Y0333708D01*
X0021091Y0333755D01*
X0021019Y0333805D01*
X0020948Y0333859D01*
X0020881Y0333915D01*
X0020815Y0333975D01*
X0020753Y0334037D01*
X0020693Y0334103D01*
X0020637Y0334170D01*
X0020583Y0334241D01*
X0020533Y0334313D01*
X0020486Y0334388D01*
X0020442Y0334465D01*
X0020402Y0334544D01*
X0020365Y0334624D01*
X0020333Y0334706D01*
X0020303Y0334790D01*
X0020278Y0334874D01*
X0020256Y0334960D01*
X0020239Y0335046D01*
X0020225Y0335134D01*
X0020215Y0335222D01*
X0020209Y0335310D01*
X0020207Y0335398D01*
D44*
X0263475Y0106264D03*
X0268475Y0106264D03*
X0273475Y0106264D03*
X0278475Y0106264D03*
X0283475Y0106264D03*
X0288475Y0106264D03*
X0293475Y0106264D03*
X0308751Y0106264D03*
X0313751Y0106264D03*
X0318751Y0106264D03*
X0323751Y0106264D03*
X0328751Y0106264D03*
X0333751Y0106264D03*
X0338751Y0106264D03*
X0338751Y0085792D03*
X0333751Y0085792D03*
X0328751Y0085792D03*
X0323751Y0085792D03*
X0318751Y0085792D03*
X0313751Y0085792D03*
X0308751Y0085792D03*
X0293475Y0085792D03*
X0288475Y0085792D03*
X0283475Y0085792D03*
X0278475Y0085792D03*
X0273475Y0085792D03*
X0268475Y0085792D03*
X0263475Y0085792D03*
D45*
X0485739Y0219296D03*
X0490739Y0219296D03*
X0495739Y0219296D03*
X0500739Y0219296D03*
X0500739Y0239296D03*
X0495739Y0239296D03*
X0490739Y0239296D03*
X0485739Y0239296D03*
X0400542Y0332485D03*
X0395542Y0332485D03*
X0390542Y0332485D03*
X0385542Y0332485D03*
X0385542Y0352485D03*
X0390542Y0352485D03*
X0395542Y0352485D03*
X0400542Y0352485D03*
D46*
X0415483Y0316107D03*
X0415483Y0305083D03*
X0435168Y0305083D03*
X0435168Y0316107D03*
D47*
X0435168Y0310595D03*
X0415483Y0310595D03*
D48*
X0425188Y0070241D03*
X0457471Y0070241D03*
X0492904Y0070241D03*
X0392511Y0070241D03*
X0360621Y0070241D03*
X0231487Y0070241D03*
X0197629Y0070241D03*
X0171251Y0070241D03*
X0142511Y0070241D03*
X0114558Y0070241D03*
D49*
X0125857Y0070044D03*
X0153810Y0070044D03*
X0182550Y0070044D03*
X0208928Y0070044D03*
X0242786Y0070044D03*
X0371920Y0070044D03*
X0403810Y0070044D03*
X0436487Y0070044D03*
X0468770Y0070044D03*
X0504204Y0070044D03*
D50*
X0502491Y0069896D03*
X0500916Y0069896D03*
X0499341Y0069896D03*
X0497767Y0069896D03*
X0496192Y0069896D03*
X0494617Y0069896D03*
X0467058Y0069896D03*
X0465483Y0069896D03*
X0463908Y0069896D03*
X0462333Y0069896D03*
X0460759Y0069896D03*
X0459184Y0069896D03*
X0434774Y0069896D03*
X0433200Y0069896D03*
X0431625Y0069896D03*
X0430050Y0069896D03*
X0428475Y0069896D03*
X0426900Y0069896D03*
X0402097Y0069896D03*
X0400522Y0069896D03*
X0398948Y0069896D03*
X0397373Y0069896D03*
X0395798Y0069896D03*
X0394223Y0069896D03*
X0370207Y0069896D03*
X0368633Y0069896D03*
X0367058Y0069896D03*
X0365483Y0069896D03*
X0363908Y0069896D03*
X0362333Y0069896D03*
X0241074Y0069896D03*
X0239499Y0069896D03*
X0237924Y0069896D03*
X0236349Y0069896D03*
X0234774Y0069896D03*
X0233200Y0069896D03*
X0207215Y0069896D03*
X0205641Y0069896D03*
X0204066Y0069896D03*
X0202491Y0069896D03*
X0200916Y0069896D03*
X0199341Y0069896D03*
X0180837Y0069896D03*
X0179263Y0069896D03*
X0177688Y0069896D03*
X0176113Y0069896D03*
X0174538Y0069896D03*
X0172963Y0069896D03*
X0152097Y0069896D03*
X0150522Y0069896D03*
X0148948Y0069896D03*
X0147373Y0069896D03*
X0145798Y0069896D03*
X0144223Y0069896D03*
X0124144Y0069896D03*
X0122570Y0069896D03*
X0120995Y0069896D03*
X0119420Y0069896D03*
X0117845Y0069896D03*
X0116270Y0069896D03*
D51*
X0116123Y0071058D03*
X0124292Y0071058D03*
X0144076Y0071058D03*
X0152245Y0071058D03*
X0172816Y0071058D03*
X0180985Y0071058D03*
X0199194Y0071058D03*
X0207363Y0071058D03*
X0233052Y0071058D03*
X0241221Y0071058D03*
X0362186Y0071058D03*
X0370355Y0071058D03*
X0394076Y0071058D03*
X0402245Y0071058D03*
X0426753Y0071058D03*
X0434922Y0071058D03*
X0459036Y0071058D03*
X0467206Y0071058D03*
X0494469Y0071058D03*
X0502639Y0071058D03*
D52*
X0499115Y0071048D03*
X0497993Y0071048D03*
X0463682Y0071048D03*
X0462560Y0071048D03*
X0431398Y0071048D03*
X0430276Y0071048D03*
X0398721Y0071048D03*
X0397599Y0071048D03*
X0366831Y0071048D03*
X0365709Y0071048D03*
X0237698Y0071048D03*
X0236576Y0071048D03*
X0203839Y0071048D03*
X0202717Y0071048D03*
X0177461Y0071048D03*
X0176339Y0071048D03*
X0148721Y0071048D03*
X0147599Y0071048D03*
X0120769Y0071048D03*
X0119646Y0071048D03*
D53*
X0117826Y0073135D03*
X0122589Y0073135D03*
X0145778Y0073135D03*
X0150542Y0073135D03*
X0174519Y0073135D03*
X0179282Y0073135D03*
X0200896Y0073135D03*
X0205660Y0073135D03*
X0234755Y0073135D03*
X0239519Y0073135D03*
X0363889Y0073135D03*
X0368652Y0073135D03*
X0395778Y0073135D03*
X0400542Y0073135D03*
X0428456Y0073135D03*
X0433219Y0073135D03*
X0460739Y0073135D03*
X0465503Y0073135D03*
X0496172Y0073135D03*
X0500936Y0073135D03*
D54*
X0244617Y0307839D03*
X0232806Y0307839D03*
D55*
X0222963Y0345635D03*
D56*
X0186743Y0367682D03*
X0186546Y0379690D03*
X0278081Y0354296D03*
D57*
X0235837Y0369768D03*
X0225837Y0369768D03*
X0225837Y0379768D03*
X0235837Y0379768D03*
D58*
X0365916Y0261028D03*
X0365916Y0247642D03*
X0399381Y0247642D03*
X0399381Y0261028D03*
D59*
X0341507Y0271776D03*
X0330483Y0271776D03*
X0330483Y0283587D03*
X0341507Y0283587D03*
X0341507Y0295398D03*
X0330483Y0295398D03*
X0330483Y0307209D03*
X0341507Y0307209D03*
X0447373Y0313351D03*
X0458396Y0313351D03*
X0458396Y0325556D03*
X0447373Y0325556D03*
X0447373Y0337761D03*
X0458396Y0337761D03*
X0458396Y0349965D03*
X0447373Y0349965D03*
X0457215Y0235595D03*
X0468239Y0235595D03*
D60*
X0336192Y0230516D03*
X0336192Y0247446D03*
D61*
X0434774Y0270438D03*
X0446979Y0270438D03*
X0460365Y0270438D03*
X0460365Y0281461D03*
X0446979Y0281461D03*
X0434774Y0281461D03*
D62*
X0274932Y0236973D03*
X0274932Y0228312D03*
D63*
X0287530Y0237170D03*
X0287530Y0244650D03*
X0297767Y0244650D03*
X0297767Y0240910D03*
X0297767Y0237170D03*
D64*
X0256133Y0303922D03*
X0256133Y0311757D03*
D65*
X0256133Y0309119D03*
X0256133Y0306560D03*
D66*
X0267845Y0303922D03*
X0267845Y0311757D03*
D67*
X0267845Y0309119D03*
X0267845Y0306560D03*
D68*
X0260562Y0307839D03*
D69*
X0372078Y0120831D03*
X0380148Y0120831D03*
X0380148Y0103509D03*
X0372078Y0103509D03*
D70*
X0374144Y0103509D03*
X0376113Y0103509D03*
X0378081Y0103509D03*
X0378081Y0120831D03*
X0376113Y0120831D03*
X0374144Y0120831D03*
D71*
X0388861Y0117170D02*
X0394861Y0117170D01*
X0394861Y0107170D02*
X0388861Y0107170D01*
X0279144Y0158776D02*
X0279144Y0164776D01*
X0269144Y0164776D02*
X0269144Y0158776D01*
X0240444Y0321524D02*
X0240444Y0327524D01*
X0230444Y0327524D02*
X0230444Y0321524D01*
X0220444Y0321524D02*
X0220444Y0327524D01*
X0230444Y0337524D02*
X0230444Y0343524D01*
D72*
G36*
X0231833Y0162325D02*
X0236285Y0157873D01*
X0232387Y0153975D01*
X0227935Y0158427D01*
X0231833Y0162325D01*
G37*
G36*
X0227100Y0157592D02*
X0231552Y0153140D01*
X0227654Y0149242D01*
X0223202Y0153694D01*
X0227100Y0157592D01*
G37*
G36*
X0233225Y0151468D02*
X0237677Y0147016D01*
X0233779Y0143118D01*
X0229327Y0147570D01*
X0233225Y0151468D01*
G37*
G36*
X0237957Y0156200D02*
X0242409Y0151748D01*
X0238511Y0147850D01*
X0234059Y0152302D01*
X0237957Y0156200D01*
G37*
G36*
X0245219Y0148939D02*
X0249671Y0144487D01*
X0245773Y0140589D01*
X0241321Y0145041D01*
X0245219Y0148939D01*
G37*
G36*
X0240486Y0144206D02*
X0244938Y0139754D01*
X0241040Y0135856D01*
X0236588Y0140308D01*
X0240486Y0144206D01*
G37*
G36*
X0251343Y0142814D02*
X0255795Y0138362D01*
X0251897Y0134464D01*
X0247445Y0138916D01*
X0251343Y0142814D01*
G37*
G36*
X0246611Y0138082D02*
X0251063Y0133630D01*
X0247165Y0129732D01*
X0242713Y0134184D01*
X0246611Y0138082D01*
G37*
D73*
X0240444Y0337524D03*
X0220444Y0337524D03*
D74*
X0235759Y0298981D03*
X0227097Y0276343D03*
X0277688Y0245044D03*
X0283987Y0227918D03*
X0312924Y0208036D03*
X0338908Y0200949D03*
X0341861Y0192091D03*
X0320601Y0187367D03*
X0278081Y0188548D03*
X0345798Y0148981D03*
X0365089Y0127918D03*
X0400916Y0113351D03*
X0406625Y0113351D03*
X0461349Y0140516D03*
X0468633Y0141501D03*
X0399144Y0147603D03*
X0399144Y0152918D03*
X0480641Y0209217D03*
X0480444Y0216501D03*
X0504656Y0230477D03*
X0539893Y0222012D03*
X0545207Y0205674D03*
X0418239Y0265713D03*
X0399341Y0272012D03*
X0402097Y0292485D03*
X0390286Y0326343D03*
X0378869Y0330280D03*
X0407412Y0346619D03*
X0406822Y0352721D03*
X0433593Y0350753D03*
X0433593Y0346028D03*
X0246585Y0236973D03*
X0143239Y0262367D03*
X0110956Y0216107D03*
X0086546Y0198390D03*
X0073357Y0197603D03*
X0141861Y0117682D03*
X0189105Y0116894D03*
X0186349Y0096619D03*
X0303672Y0085792D03*
X0323751Y0076343D03*
X0352097Y0066698D03*
X0300522Y0047209D03*
X0300522Y0040910D03*
X0348751Y0024572D03*
X0474932Y0076146D03*
X0499144Y0078115D03*
X0143830Y0312564D03*
X0144223Y0330280D03*
X0134578Y0340320D03*
X0143436Y0357839D03*
X0114302Y0315910D03*
X0061546Y0370831D03*
D75*
X0393278Y0310635D03*
X0393278Y0292524D03*
D76*
X0364144Y0301579D03*
D77*
X0308396Y0201737D03*
X0308396Y0197997D03*
X0308396Y0194257D03*
X0298160Y0194257D03*
X0298160Y0201737D03*
X0126113Y0328115D03*
X0126113Y0335595D03*
X0115877Y0335595D03*
X0115877Y0331855D03*
X0115877Y0328115D03*
D78*
X0353475Y0144453D03*
X0357215Y0144453D03*
X0360956Y0144453D03*
X0360956Y0134217D03*
X0353475Y0134217D03*
D79*
X0056231Y0131993D03*
X0056231Y0161520D03*
X0056231Y0189867D03*
X0056231Y0226087D03*
X0056231Y0252072D03*
X0059381Y0088292D03*
D80*
X0059184Y0076993D03*
X0056034Y0120694D03*
X0056034Y0150221D03*
X0056034Y0178568D03*
X0056034Y0214788D03*
X0056034Y0240772D03*
D81*
X0055887Y0242485D03*
X0055887Y0244060D03*
X0055887Y0245635D03*
X0055887Y0247209D03*
X0055887Y0248784D03*
X0055887Y0250359D03*
X0055887Y0224375D03*
X0055887Y0222800D03*
X0055887Y0221225D03*
X0055887Y0219650D03*
X0055887Y0218075D03*
X0055887Y0216501D03*
X0055887Y0188154D03*
X0055887Y0186579D03*
X0055887Y0185005D03*
X0055887Y0183430D03*
X0055887Y0181855D03*
X0055887Y0180280D03*
X0055887Y0159808D03*
X0055887Y0158233D03*
X0055887Y0156658D03*
X0055887Y0155083D03*
X0055887Y0153509D03*
X0055887Y0151934D03*
X0055887Y0130280D03*
X0055887Y0128705D03*
X0055887Y0127131D03*
X0055887Y0125556D03*
X0055887Y0123981D03*
X0055887Y0122406D03*
X0059036Y0086579D03*
X0059036Y0085005D03*
X0059036Y0083430D03*
X0059036Y0081855D03*
X0059036Y0080280D03*
X0059036Y0078705D03*
D82*
X0060198Y0078558D03*
X0060198Y0086727D03*
X0057048Y0122259D03*
X0057048Y0130428D03*
X0057048Y0151786D03*
X0057048Y0159955D03*
X0057048Y0180133D03*
X0057048Y0188302D03*
X0057048Y0216353D03*
X0057048Y0224522D03*
X0057048Y0242337D03*
X0057048Y0250507D03*
D83*
X0057038Y0246983D03*
X0057038Y0245861D03*
X0057038Y0220999D03*
X0057038Y0219877D03*
X0057038Y0184778D03*
X0057038Y0183656D03*
X0057038Y0156432D03*
X0057038Y0155310D03*
X0057038Y0126904D03*
X0057038Y0125782D03*
X0060188Y0083203D03*
X0060188Y0082081D03*
D84*
X0062274Y0080261D03*
X0062274Y0085024D03*
X0059125Y0123961D03*
X0059125Y0128725D03*
X0059125Y0153489D03*
X0059125Y0158253D03*
X0059125Y0181835D03*
X0059125Y0186599D03*
X0059125Y0218056D03*
X0059125Y0222820D03*
X0059125Y0244040D03*
X0059125Y0248804D03*
D85*
X0555837Y0287170D03*
X0581428Y0287170D03*
X0581428Y0304887D03*
X0581428Y0318272D03*
X0581428Y0335989D03*
X0555837Y0335989D03*
X0555837Y0318272D03*
X0555837Y0304887D03*
D86*
X0316664Y0350753D03*
X0303672Y0359808D03*
X0290680Y0350753D03*
D87*
X0289105Y0379887D03*
X0318239Y0379887D03*
D88*
X0303672Y0375556D03*
D89*
X0269105Y0209611D03*
X0263830Y0209611D03*
X0263830Y0202131D03*
X0269105Y0202131D03*
D90*
X0266467Y0202131D03*
X0266467Y0209611D03*
D91*
X0485168Y0284414D03*
X0502097Y0284414D03*
X0502097Y0300949D03*
X0485168Y0300949D03*
D92*
X0345109Y0376638D03*
X0341763Y0376638D03*
X0341763Y0379985D03*
X0345109Y0379985D03*
D93*
X0549932Y0257997D03*
X0549932Y0252997D03*
X0549932Y0247997D03*
X0549932Y0242997D03*
X0549932Y0237997D03*
X0565286Y0237997D03*
X0565286Y0242997D03*
X0565286Y0247997D03*
X0565286Y0252997D03*
X0565286Y0257997D03*
D94*
X0005050Y0019257D03*
X0039105Y0019257D03*
X0078475Y0019257D03*
X0108593Y0032249D03*
X0111743Y0032052D03*
X0131822Y0034217D03*
X0140877Y0033824D03*
X0157215Y0019257D03*
X0165089Y0033627D03*
X0168633Y0033430D03*
X0172176Y0034217D03*
X0181822Y0035398D03*
X0171389Y0044847D03*
X0173948Y0065123D03*
X0179853Y0064335D03*
X0184381Y0070044D03*
X0187530Y0070241D03*
X0181231Y0075949D03*
X0178672Y0075949D03*
X0175916Y0076737D03*
X0173357Y0077524D03*
X0171585Y0075359D03*
X0168633Y0075556D03*
X0167058Y0072603D03*
X0165680Y0080674D03*
X0171192Y0082446D03*
X0173554Y0081264D03*
X0178672Y0085005D03*
X0180837Y0086579D03*
X0176900Y0087367D03*
X0180247Y0094847D03*
X0175522Y0097406D03*
X0167845Y0100753D03*
X0171192Y0103509D03*
X0167058Y0107839D03*
X0159971Y0107052D03*
X0158003Y0105083D03*
X0155641Y0103115D03*
X0162137Y0098981D03*
X0151704Y0091698D03*
X0151900Y0088942D03*
X0153081Y0079296D03*
X0155837Y0079296D03*
X0149341Y0075753D03*
X0146979Y0075753D03*
X0142452Y0074965D03*
X0139302Y0071816D03*
X0130837Y0073784D03*
X0129263Y0071619D03*
X0123554Y0064729D03*
X0116861Y0064729D03*
X0103278Y0073587D03*
X0100522Y0071225D03*
X0097373Y0074572D03*
X0095601Y0080083D03*
X0097767Y0082249D03*
X0105444Y0090713D03*
X0085956Y0095635D03*
X0082412Y0092485D03*
X0077097Y0090910D03*
X0073751Y0091107D03*
X0065286Y0085595D03*
X0065286Y0080083D03*
X0073751Y0076146D03*
X0077097Y0077327D03*
X0085168Y0067682D03*
X0113908Y0076737D03*
X0123357Y0086973D03*
X0120601Y0088154D03*
X0129263Y0084217D03*
X0129656Y0093469D03*
X0119814Y0101737D03*
X0117255Y0101737D03*
X0102097Y0100556D03*
X0097176Y0104296D03*
X0097373Y0109414D03*
X0092255Y0117288D03*
X0095995Y0119257D03*
X0094617Y0122209D03*
X0096979Y0125359D03*
X0091074Y0128312D03*
X0076900Y0128312D03*
X0076900Y0133824D03*
X0066467Y0133824D03*
X0066467Y0128312D03*
X0062530Y0129296D03*
X0062137Y0123390D03*
X0066467Y0122800D03*
X0076900Y0122800D03*
X0077294Y0116698D03*
X0078081Y0109414D03*
X0078081Y0105083D03*
X0050522Y0123194D03*
X0049341Y0129690D03*
X0066467Y0139335D03*
X0066467Y0144847D03*
X0076900Y0144847D03*
X0076900Y0139335D03*
X0091270Y0141501D03*
X0093633Y0145044D03*
X0093633Y0148587D03*
X0107412Y0147406D03*
X0107412Y0139335D03*
X0109578Y0135005D03*
X0106428Y0133824D03*
X0113908Y0131068D03*
X0116664Y0126737D03*
X0106625Y0124572D03*
X0113711Y0120044D03*
X0127294Y0134808D03*
X0131428Y0144453D03*
X0133987Y0147603D03*
X0137727Y0145241D03*
X0139302Y0142879D03*
X0142648Y0141894D03*
X0144617Y0140123D03*
X0148357Y0143075D03*
X0153672Y0136579D03*
X0156034Y0135398D03*
X0159971Y0130674D03*
X0158396Y0128705D03*
X0162137Y0127524D03*
X0162530Y0123587D03*
X0168633Y0123981D03*
X0171782Y0114926D03*
X0176704Y0113942D03*
X0186349Y0111973D03*
X0190680Y0107249D03*
X0195404Y0107446D03*
X0208003Y0100753D03*
X0212530Y0109414D03*
X0223751Y0109414D03*
X0227491Y0107052D03*
X0234184Y0114138D03*
X0240286Y0115320D03*
X0249144Y0116304D03*
X0254066Y0111383D03*
X0240286Y0109414D03*
X0248554Y0100753D03*
X0244223Y0097012D03*
X0253475Y0090516D03*
X0255641Y0084808D03*
X0263515Y0078902D03*
X0265680Y0072603D03*
X0279263Y0076343D03*
X0285956Y0073587D03*
X0289302Y0073587D03*
X0299932Y0081264D03*
X0313908Y0079493D03*
X0319026Y0079099D03*
X0329066Y0072603D03*
X0319026Y0070438D03*
X0313908Y0070044D03*
X0334578Y0061579D03*
X0341270Y0067485D03*
X0347373Y0082446D03*
X0345601Y0086973D03*
X0351900Y0091107D03*
X0357215Y0089138D03*
X0359774Y0093075D03*
X0365877Y0092485D03*
X0364893Y0088745D03*
X0374538Y0084611D03*
X0378869Y0088154D03*
X0383593Y0088154D03*
X0392452Y0084611D03*
X0396585Y0085005D03*
X0393042Y0090910D03*
X0399774Y0092446D03*
X0408396Y0095241D03*
X0408396Y0100556D03*
X0413318Y0099178D03*
X0401113Y0103509D03*
X0401113Y0108036D03*
X0399538Y0122012D03*
X0406034Y0123194D03*
X0408790Y0131855D03*
X0401113Y0139926D03*
X0388121Y0145044D03*
X0385168Y0142879D03*
X0390483Y0151146D03*
X0394814Y0161579D03*
X0388121Y0165320D03*
X0385168Y0164138D03*
X0378672Y0161579D03*
X0376507Y0167288D03*
X0376507Y0170438D03*
X0379459Y0169453D03*
X0372570Y0167288D03*
X0363121Y0162957D03*
X0356034Y0163351D03*
X0349341Y0163548D03*
X0346979Y0160792D03*
X0342255Y0160792D03*
X0342452Y0164926D03*
X0337530Y0164926D03*
X0330050Y0157839D03*
X0310956Y0157642D03*
X0311349Y0143666D03*
X0330050Y0144060D03*
X0344814Y0156461D03*
X0351113Y0157839D03*
X0351113Y0154887D03*
X0353475Y0152131D03*
X0353475Y0148981D03*
X0365089Y0151146D03*
X0366270Y0146422D03*
X0366270Y0142485D03*
X0376900Y0134414D03*
X0376900Y0132052D03*
X0374144Y0127524D03*
X0371782Y0126146D03*
X0376704Y0126343D03*
X0381231Y0126146D03*
X0383987Y0126146D03*
X0383593Y0121816D03*
X0351704Y0125359D03*
X0351704Y0128902D03*
X0345798Y0126737D03*
X0349341Y0121028D03*
X0349341Y0117682D03*
X0349341Y0112761D03*
X0349341Y0109217D03*
X0353672Y0105477D03*
X0333593Y0092091D03*
X0329853Y0099178D03*
X0323751Y0100359D03*
X0316270Y0100359D03*
X0316270Y0092879D03*
X0300719Y0100556D03*
X0304263Y0111973D03*
X0310562Y0126146D03*
X0329853Y0126540D03*
X0295601Y0146028D03*
X0276113Y0152327D03*
X0263908Y0152721D03*
X0261940Y0150359D03*
X0259578Y0148390D03*
X0258396Y0153902D03*
X0256822Y0161776D03*
X0256034Y0165320D03*
X0258396Y0167288D03*
X0254263Y0177918D03*
X0252097Y0178312D03*
X0248357Y0181658D03*
X0245798Y0183824D03*
X0247176Y0186776D03*
X0249144Y0189729D03*
X0243436Y0189138D03*
X0236349Y0190123D03*
X0232412Y0189335D03*
X0228475Y0183627D03*
X0225326Y0185989D03*
X0221979Y0185989D03*
X0217058Y0188548D03*
X0225916Y0195241D03*
X0225129Y0201343D03*
X0223160Y0201343D03*
X0227097Y0203115D03*
X0229853Y0203115D03*
X0224341Y0208627D03*
X0220995Y0206855D03*
X0219420Y0213745D03*
X0223357Y0224768D03*
X0231231Y0223194D03*
X0237137Y0224768D03*
X0240680Y0232446D03*
X0231034Y0231855D03*
X0226507Y0233824D03*
X0219223Y0238154D03*
X0213318Y0237564D03*
X0198948Y0235005D03*
X0194420Y0231068D03*
X0201113Y0228902D03*
X0202294Y0226146D03*
X0203672Y0223587D03*
X0206625Y0225556D03*
X0197176Y0224375D03*
X0188121Y0221816D03*
X0186349Y0219257D03*
X0181625Y0214729D03*
X0190680Y0210792D03*
X0192648Y0208233D03*
X0204656Y0213351D03*
X0197176Y0217288D03*
X0205641Y0203312D03*
X0182019Y0198194D03*
X0174735Y0209020D03*
X0157609Y0199572D03*
X0154853Y0196816D03*
X0152097Y0193272D03*
X0145404Y0190123D03*
X0142255Y0192288D03*
X0142845Y0197209D03*
X0141467Y0199572D03*
X0146782Y0201343D03*
X0152885Y0205477D03*
X0145011Y0206658D03*
X0136152Y0213351D03*
X0131625Y0214138D03*
X0128672Y0211579D03*
X0123948Y0220044D03*
X0120995Y0218469D03*
X0117062Y0217647D03*
X0106428Y0225162D03*
X0103869Y0222800D03*
X0109971Y0227327D03*
X0128475Y0233824D03*
X0134971Y0234020D03*
X0136546Y0232249D03*
X0140286Y0235989D03*
X0136349Y0237957D03*
X0143436Y0239532D03*
X0146585Y0242682D03*
X0139893Y0246422D03*
X0144814Y0250753D03*
X0147176Y0252721D03*
X0136940Y0257839D03*
X0134774Y0255871D03*
X0131822Y0249965D03*
X0131034Y0247406D03*
X0130247Y0245044D03*
X0126310Y0246422D03*
X0126310Y0249178D03*
X0110759Y0248587D03*
X0105641Y0249768D03*
X0101113Y0251146D03*
X0098751Y0252327D03*
X0092648Y0260989D03*
X0092648Y0279493D03*
X0099144Y0280871D03*
X0101113Y0283430D03*
X0105641Y0281068D03*
X0110956Y0278902D03*
X0123751Y0277524D03*
X0127294Y0274768D03*
X0128475Y0272406D03*
X0132412Y0266304D03*
X0139302Y0269650D03*
X0141664Y0271816D03*
X0136546Y0276737D03*
X0151704Y0266304D03*
X0166664Y0265713D03*
X0169026Y0265713D03*
X0177688Y0264532D03*
X0179263Y0260595D03*
X0177885Y0254099D03*
X0177885Y0250949D03*
X0182609Y0251934D03*
X0185168Y0248194D03*
X0183987Y0244257D03*
X0171389Y0244847D03*
X0169026Y0246422D03*
X0170995Y0248390D03*
X0168633Y0249572D03*
X0164105Y0245635D03*
X0164499Y0242288D03*
X0167058Y0243666D03*
X0170995Y0241894D03*
X0159578Y0239138D03*
X0156625Y0232642D03*
X0144420Y0226343D03*
X0142255Y0222997D03*
X0142648Y0219847D03*
X0143436Y0217288D03*
X0136152Y0218666D03*
X0122373Y0203115D03*
X0133790Y0197209D03*
X0133003Y0187564D03*
X0133593Y0181855D03*
X0139499Y0174768D03*
X0140089Y0172209D03*
X0138121Y0170438D03*
X0141270Y0168075D03*
X0148357Y0166501D03*
X0147963Y0161383D03*
X0154656Y0155083D03*
X0152885Y0152721D03*
X0159578Y0151146D03*
X0160365Y0154690D03*
X0166861Y0153902D03*
X0171782Y0154296D03*
X0181822Y0160989D03*
X0174932Y0163745D03*
X0166861Y0163745D03*
X0175916Y0172209D03*
X0177885Y0170438D03*
X0181822Y0174375D03*
X0179656Y0176146D03*
X0173357Y0179887D03*
X0174538Y0186973D03*
X0165483Y0187564D03*
X0183790Y0186973D03*
X0194026Y0185792D03*
X0186152Y0172406D03*
X0184381Y0168666D03*
X0196389Y0160989D03*
X0204656Y0166501D03*
X0206625Y0168666D03*
X0209578Y0166698D03*
X0209578Y0164138D03*
X0207609Y0161383D03*
X0219223Y0152721D03*
X0217648Y0150162D03*
X0209184Y0147997D03*
X0193239Y0147406D03*
X0187530Y0148784D03*
X0183200Y0144453D03*
X0185365Y0140910D03*
X0182215Y0137957D03*
X0189696Y0130674D03*
X0191270Y0128312D03*
X0188908Y0124178D03*
X0184971Y0123194D03*
X0185562Y0126737D03*
X0197078Y0134709D03*
X0197274Y0137268D03*
X0206231Y0135595D03*
X0207215Y0138154D03*
X0207609Y0131068D03*
X0217452Y0126540D03*
X0221585Y0124375D03*
X0221979Y0119453D03*
X0217845Y0114926D03*
X0207215Y0122406D03*
X0230050Y0120044D03*
X0230050Y0124768D03*
X0231428Y0130280D03*
X0240680Y0128705D03*
X0240680Y0125162D03*
X0253475Y0129690D03*
X0257215Y0134414D03*
X0262137Y0126540D03*
X0259971Y0124768D03*
X0265286Y0122406D03*
X0281231Y0123390D03*
X0275129Y0134217D03*
X0263515Y0143272D03*
X0254459Y0144453D03*
X0240286Y0147603D03*
X0248357Y0154296D03*
X0249735Y0158430D03*
X0238908Y0164926D03*
X0236546Y0161973D03*
X0235168Y0165516D03*
X0231231Y0166304D03*
X0229066Y0169453D03*
X0222176Y0160792D03*
X0217648Y0171619D03*
X0217058Y0175359D03*
X0213711Y0171422D03*
X0209774Y0172603D03*
X0240286Y0178705D03*
X0255444Y0182052D03*
X0258200Y0180083D03*
X0257215Y0186579D03*
X0258003Y0189532D03*
X0252491Y0197406D03*
X0246979Y0197800D03*
X0245207Y0205674D03*
X0245404Y0210989D03*
X0242648Y0212957D03*
X0235168Y0215516D03*
X0251507Y0221028D03*
X0254656Y0221816D03*
X0254656Y0224375D03*
X0266664Y0226540D03*
X0290483Y0214729D03*
X0290483Y0211579D03*
X0288121Y0208824D03*
X0288121Y0206068D03*
X0284971Y0206068D03*
X0284971Y0208824D03*
X0281822Y0208824D03*
X0281822Y0206068D03*
X0277885Y0208824D03*
X0274341Y0208824D03*
X0266467Y0212761D03*
X0265877Y0198981D03*
X0279459Y0201343D03*
X0279263Y0194453D03*
X0285168Y0188548D03*
X0291074Y0192288D03*
X0293436Y0192288D03*
X0298160Y0190123D03*
X0296192Y0187367D03*
X0300129Y0187367D03*
X0305444Y0186383D03*
X0312530Y0201737D03*
X0315286Y0201737D03*
X0317255Y0204887D03*
X0320404Y0204887D03*
X0323554Y0204887D03*
X0337333Y0207052D03*
X0356231Y0204887D03*
X0355444Y0196225D03*
X0367452Y0196028D03*
X0375916Y0205871D03*
X0369814Y0213351D03*
X0366664Y0213351D03*
X0363515Y0213351D03*
X0360365Y0213351D03*
X0372963Y0215910D03*
X0389302Y0211186D03*
X0407019Y0211186D03*
X0426704Y0211186D03*
X0432019Y0206855D03*
X0446389Y0211186D03*
X0464893Y0212761D03*
X0475326Y0204690D03*
X0475522Y0200556D03*
X0472373Y0201737D03*
X0480641Y0204099D03*
X0506625Y0211579D03*
X0505444Y0216501D03*
X0529066Y0211973D03*
X0545995Y0215123D03*
X0530050Y0191304D03*
X0525522Y0193272D03*
X0525719Y0185398D03*
X0511546Y0179690D03*
X0506822Y0189532D03*
X0498554Y0180083D03*
X0485956Y0180674D03*
X0481231Y0184808D03*
X0475522Y0184414D03*
X0468042Y0180477D03*
X0463515Y0180280D03*
X0461349Y0168666D03*
X0471389Y0166894D03*
X0475916Y0161776D03*
X0471782Y0156264D03*
X0468042Y0152327D03*
X0463121Y0156658D03*
X0458790Y0147603D03*
X0447963Y0141107D03*
X0444617Y0135398D03*
X0439696Y0139138D03*
X0437137Y0144847D03*
X0439893Y0151737D03*
X0428869Y0152327D03*
X0427688Y0142879D03*
X0428672Y0139138D03*
X0416270Y0140123D03*
X0436546Y0127721D03*
X0462530Y0121619D03*
X0463121Y0115910D03*
X0470011Y0113154D03*
X0458987Y0106855D03*
X0449932Y0098981D03*
X0453278Y0098784D03*
X0459971Y0092879D03*
X0465483Y0097209D03*
X0468239Y0095241D03*
X0469814Y0091304D03*
X0474538Y0093272D03*
X0472176Y0086973D03*
X0463121Y0085005D03*
X0462727Y0080280D03*
X0463515Y0077327D03*
X0467648Y0078115D03*
X0454853Y0076343D03*
X0443239Y0078509D03*
X0436743Y0077131D03*
X0432412Y0077524D03*
X0429381Y0077170D03*
X0426113Y0075949D03*
X0421389Y0070438D03*
X0414105Y0077327D03*
X0403672Y0076737D03*
X0399696Y0076934D03*
X0396979Y0076737D03*
X0392648Y0076343D03*
X0389893Y0070438D03*
X0395207Y0063548D03*
X0401900Y0063548D03*
X0406822Y0070044D03*
X0415680Y0060398D03*
X0426507Y0059611D03*
X0427885Y0062761D03*
X0433790Y0064729D03*
X0447963Y0063942D03*
X0460562Y0062367D03*
X0468042Y0061579D03*
X0470011Y0059217D03*
X0484578Y0069060D03*
X0492845Y0078115D03*
X0495798Y0076146D03*
X0504066Y0075949D03*
X0507412Y0078115D03*
X0507609Y0070438D03*
X0501113Y0063942D03*
X0496389Y0061186D03*
X0488515Y0044060D03*
X0485365Y0034217D03*
X0472176Y0019257D03*
X0511546Y0019257D03*
X0550916Y0019257D03*
X0590286Y0019257D03*
X0590286Y0033430D03*
X0590286Y0072800D03*
X0535168Y0088942D03*
X0532806Y0082642D03*
X0522570Y0080280D03*
X0518633Y0091698D03*
X0510365Y0095241D03*
X0522963Y0099178D03*
X0530050Y0098587D03*
X0533200Y0108233D03*
X0527491Y0117879D03*
X0504656Y0122800D03*
X0486349Y0136579D03*
X0475719Y0132052D03*
X0468633Y0127131D03*
X0475719Y0144060D03*
X0495011Y0151737D03*
X0506625Y0151737D03*
X0526900Y0141698D03*
X0530050Y0143863D03*
X0535168Y0152327D03*
X0590286Y0151540D03*
X0590286Y0112170D03*
X0506428Y0107642D03*
X0483200Y0099572D03*
X0479263Y0099375D03*
X0438908Y0102721D03*
X0436743Y0097603D03*
X0433593Y0095635D03*
X0430444Y0094060D03*
X0421389Y0083627D03*
X0391270Y0096225D03*
X0377097Y0076934D03*
X0370995Y0076343D03*
X0368239Y0077524D03*
X0364302Y0076737D03*
X0360759Y0077131D03*
X0357412Y0076934D03*
X0374538Y0070044D03*
X0369617Y0063548D03*
X0362924Y0063942D03*
X0385759Y0060792D03*
X0393436Y0019257D03*
X0432806Y0019257D03*
X0354066Y0019257D03*
X0314696Y0019257D03*
X0275326Y0019257D03*
X0235956Y0019257D03*
X0196585Y0019257D03*
X0251507Y0044060D03*
X0259971Y0045635D03*
X0261349Y0061776D03*
X0251507Y0061383D03*
X0251507Y0068075D03*
X0247963Y0067485D03*
X0245995Y0072603D03*
X0242255Y0076343D03*
X0239302Y0079887D03*
X0233790Y0076934D03*
X0232806Y0082249D03*
X0230444Y0084414D03*
X0225129Y0088548D03*
X0228475Y0090910D03*
X0221389Y0091304D03*
X0219026Y0094650D03*
X0214105Y0091501D03*
X0211152Y0088942D03*
X0203081Y0091304D03*
X0199341Y0090910D03*
X0195601Y0093469D03*
X0193042Y0088942D03*
X0195011Y0083430D03*
X0201113Y0081855D03*
X0203475Y0080477D03*
X0207215Y0083036D03*
X0213318Y0082249D03*
X0219420Y0084414D03*
X0208003Y0076737D03*
X0200326Y0076146D03*
X0195995Y0077131D03*
X0188121Y0083233D03*
X0168830Y0089335D03*
X0165089Y0087367D03*
X0146782Y0105871D03*
X0142648Y0110201D03*
X0139105Y0110201D03*
X0146389Y0116107D03*
X0146389Y0121225D03*
X0143436Y0123981D03*
X0141664Y0121816D03*
X0151113Y0125753D03*
X0151704Y0128312D03*
X0142255Y0127918D03*
X0161349Y0143863D03*
X0165680Y0143075D03*
X0168239Y0138745D03*
X0176704Y0147012D03*
X0136152Y0152721D03*
X0125719Y0157446D03*
X0119026Y0158627D03*
X0115877Y0162170D03*
X0117058Y0164532D03*
X0115483Y0166698D03*
X0114302Y0169257D03*
X0110168Y0168272D03*
X0109774Y0171028D03*
X0107215Y0175556D03*
X0105247Y0177918D03*
X0103278Y0180674D03*
X0094026Y0181855D03*
X0090877Y0192288D03*
X0088515Y0195241D03*
X0085562Y0195241D03*
X0082806Y0195241D03*
X0082806Y0198194D03*
X0090286Y0198194D03*
X0092058Y0204296D03*
X0092845Y0207249D03*
X0097176Y0203115D03*
X0096782Y0196619D03*
X0100719Y0194847D03*
X0121782Y0183036D03*
X0123751Y0186579D03*
X0142058Y0174178D03*
X0135168Y0173587D03*
X0133200Y0172012D03*
X0124735Y0166501D03*
X0123160Y0164729D03*
X0121782Y0166698D03*
X0105050Y0160989D03*
X0093633Y0170044D03*
X0076507Y0161383D03*
X0076900Y0155871D03*
X0076900Y0150359D03*
X0066467Y0150359D03*
X0062137Y0152918D03*
X0066467Y0155871D03*
X0066467Y0161383D03*
X0062137Y0159611D03*
X0050719Y0152918D03*
X0045995Y0159611D03*
X0062530Y0181264D03*
X0062530Y0186776D03*
X0044420Y0190713D03*
X0043633Y0182839D03*
X0005050Y0176737D03*
X0005050Y0216107D03*
X0048751Y0216698D03*
X0048751Y0223784D03*
X0062530Y0223390D03*
X0062530Y0217485D03*
X0067452Y0233824D03*
X0062727Y0244650D03*
X0062137Y0249375D03*
X0049932Y0243469D03*
X0046782Y0249768D03*
X0005050Y0255477D03*
X0065483Y0285989D03*
X0071782Y0286579D03*
X0068633Y0296422D03*
X0078869Y0296422D03*
X0089105Y0296422D03*
X0092452Y0285595D03*
X0117058Y0300359D03*
X0119814Y0296028D03*
X0124735Y0286579D03*
X0128278Y0286579D03*
X0134774Y0285595D03*
X0145404Y0291894D03*
X0140877Y0306461D03*
X0132412Y0311776D03*
X0137924Y0319453D03*
X0138318Y0325753D03*
X0134184Y0325753D03*
X0143239Y0325949D03*
X0140680Y0332249D03*
X0148160Y0335005D03*
X0148160Y0339729D03*
X0146782Y0345241D03*
X0147963Y0349768D03*
X0154853Y0354493D03*
X0158200Y0354493D03*
X0170011Y0354099D03*
X0179066Y0353312D03*
X0181625Y0349965D03*
X0185956Y0346028D03*
X0178475Y0343272D03*
X0176113Y0340910D03*
X0173751Y0342091D03*
X0174144Y0336186D03*
X0177097Y0336383D03*
X0163121Y0339335D03*
X0159184Y0339335D03*
X0159184Y0343272D03*
X0163121Y0343272D03*
X0170207Y0326343D03*
X0154066Y0325556D03*
X0158396Y0313351D03*
X0155247Y0311776D03*
X0181625Y0300753D03*
X0185956Y0296028D03*
X0179066Y0288745D03*
X0187727Y0284020D03*
X0190680Y0281068D03*
X0181822Y0279296D03*
X0185365Y0276540D03*
X0188121Y0276540D03*
X0189105Y0265910D03*
X0190286Y0262957D03*
X0188711Y0261383D03*
X0173751Y0256264D03*
X0201507Y0248784D03*
X0204066Y0252721D03*
X0210562Y0256461D03*
X0215089Y0251540D03*
X0210956Y0267879D03*
X0208593Y0267879D03*
X0198554Y0282249D03*
X0222373Y0293469D03*
X0234971Y0293469D03*
X0211546Y0313351D03*
X0209184Y0317682D03*
X0209184Y0323587D03*
X0203672Y0327131D03*
X0199735Y0334611D03*
X0217255Y0345831D03*
X0217255Y0348194D03*
X0200522Y0361776D03*
X0196192Y0354690D03*
X0191467Y0354690D03*
X0179066Y0361776D03*
X0181625Y0371225D03*
X0186940Y0372997D03*
X0190483Y0369847D03*
X0193239Y0373784D03*
X0197570Y0373784D03*
X0202097Y0387761D03*
X0188121Y0387957D03*
X0160759Y0365516D03*
X0157609Y0365320D03*
X0154066Y0365320D03*
X0149341Y0365320D03*
X0146979Y0372012D03*
X0142058Y0379690D03*
X0142058Y0387761D03*
X0123357Y0387761D03*
X0127294Y0372800D03*
X0136349Y0369060D03*
X0138318Y0363548D03*
X0126310Y0350556D03*
X0121979Y0350556D03*
X0118436Y0350556D03*
X0113711Y0350556D03*
X0109774Y0349375D03*
X0108987Y0355674D03*
X0104656Y0340320D03*
X0102097Y0335792D03*
X0105837Y0331658D03*
X0105837Y0328115D03*
X0109774Y0328115D03*
X0106231Y0317879D03*
X0108790Y0311776D03*
X0119223Y0317091D03*
X0121979Y0317091D03*
X0088121Y0341894D03*
X0083987Y0340516D03*
X0082412Y0336579D03*
X0078869Y0333036D03*
X0075326Y0340910D03*
X0070601Y0341304D03*
X0065483Y0340910D03*
X0050719Y0347800D03*
X0049735Y0357446D03*
X0081625Y0364532D03*
X0087727Y0356461D03*
X0091664Y0356461D03*
X0083987Y0387761D03*
X0044617Y0387761D03*
X0005247Y0387761D03*
X0005050Y0373587D03*
X0005050Y0334217D03*
X0051113Y0315123D03*
X0057019Y0300556D03*
X0005050Y0294847D03*
X0103869Y0212367D03*
X0106034Y0212367D03*
X0147373Y0185792D03*
X0148160Y0181855D03*
X0146585Y0179493D03*
X0150522Y0177524D03*
X0120207Y0153115D03*
X0120207Y0146225D03*
X0113908Y0138745D03*
X0218830Y0136579D03*
X0229656Y0143863D03*
X0231231Y0141698D03*
X0292058Y0165910D03*
X0296389Y0170241D03*
X0337530Y0184808D03*
X0343633Y0184808D03*
X0346979Y0184611D03*
X0337333Y0196619D03*
X0314105Y0216304D03*
X0311349Y0216304D03*
X0308593Y0216304D03*
X0305444Y0216304D03*
X0302688Y0216304D03*
X0299932Y0216304D03*
X0295601Y0218272D03*
X0298357Y0222209D03*
X0326310Y0226146D03*
X0329066Y0226146D03*
X0329066Y0228902D03*
X0326310Y0228902D03*
X0326310Y0231658D03*
X0329066Y0231658D03*
X0329066Y0234414D03*
X0326310Y0234414D03*
X0343239Y0234414D03*
X0343239Y0231658D03*
X0343239Y0228902D03*
X0343239Y0226146D03*
X0345995Y0226146D03*
X0345995Y0228902D03*
X0345995Y0231658D03*
X0345995Y0234414D03*
X0340089Y0222603D03*
X0337333Y0222603D03*
X0334578Y0222603D03*
X0334578Y0219847D03*
X0337333Y0219847D03*
X0340089Y0219847D03*
X0331822Y0219847D03*
X0331822Y0222603D03*
X0307806Y0241501D03*
X0303475Y0244650D03*
X0282412Y0247209D03*
X0292255Y0258036D03*
X0305444Y0268666D03*
X0274735Y0262761D03*
X0256822Y0249768D03*
X0254853Y0247603D03*
X0259184Y0245635D03*
X0270011Y0284020D03*
X0272176Y0286186D03*
X0276507Y0285398D03*
X0278278Y0288745D03*
X0274144Y0290713D03*
X0279853Y0310398D03*
X0276704Y0311186D03*
X0276507Y0314335D03*
X0272373Y0312761D03*
X0272373Y0317091D03*
X0267648Y0317091D03*
X0283987Y0315123D03*
X0300916Y0338154D03*
X0304853Y0338154D03*
X0308790Y0338154D03*
X0325326Y0344453D03*
X0325326Y0350753D03*
X0325326Y0356658D03*
X0341861Y0345241D03*
X0352688Y0331658D03*
X0371585Y0321028D03*
X0382215Y0332052D03*
X0385365Y0328115D03*
X0395404Y0321225D03*
X0400326Y0321028D03*
X0404263Y0324178D03*
X0407019Y0310595D03*
X0419814Y0292091D03*
X0421585Y0284808D03*
X0424341Y0284808D03*
X0427097Y0284808D03*
X0429853Y0287564D03*
X0434578Y0287564D03*
X0440877Y0287564D03*
X0440877Y0290713D03*
X0445995Y0293863D03*
X0453869Y0297012D03*
X0458593Y0301737D03*
X0458593Y0304493D03*
X0464499Y0305674D03*
X0464499Y0310005D03*
X0464499Y0313548D03*
X0464499Y0318863D03*
X0464499Y0322603D03*
X0464499Y0326146D03*
X0464499Y0330083D03*
X0464499Y0334414D03*
X0464499Y0338351D03*
X0464499Y0342682D03*
X0464499Y0346619D03*
X0464499Y0350162D03*
X0464499Y0353705D03*
X0455444Y0368666D03*
X0438318Y0387761D03*
X0477688Y0387761D03*
X0517058Y0387761D03*
X0556428Y0387761D03*
X0590286Y0387761D03*
X0530247Y0360398D03*
X0534184Y0348587D03*
X0590286Y0348390D03*
X0590286Y0309020D03*
X0534578Y0291894D03*
X0509774Y0284414D03*
X0483593Y0277721D03*
X0469223Y0280477D03*
X0469223Y0284414D03*
X0464499Y0287564D03*
X0460168Y0287564D03*
X0455837Y0287564D03*
X0451507Y0287564D03*
X0446782Y0287564D03*
X0462924Y0294257D03*
X0418042Y0281264D03*
X0414105Y0278509D03*
X0413908Y0285398D03*
X0387924Y0284414D03*
X0350326Y0278902D03*
X0384971Y0251737D03*
X0384971Y0248981D03*
X0384971Y0246225D03*
X0384971Y0243469D03*
X0387727Y0243469D03*
X0387727Y0246225D03*
X0387727Y0248981D03*
X0387727Y0251737D03*
X0389302Y0240713D03*
X0389302Y0237957D03*
X0392058Y0237957D03*
X0394814Y0237957D03*
X0397570Y0237957D03*
X0400326Y0237957D03*
X0403081Y0237957D03*
X0403081Y0240713D03*
X0400326Y0240713D03*
X0397570Y0240713D03*
X0394814Y0240713D03*
X0392058Y0240713D03*
X0405837Y0240713D03*
X0405837Y0237957D03*
X0408593Y0237957D03*
X0408593Y0240713D03*
X0411349Y0243469D03*
X0411349Y0246225D03*
X0411349Y0248981D03*
X0411349Y0251737D03*
X0414105Y0251737D03*
X0414105Y0248981D03*
X0414105Y0246225D03*
X0414105Y0243469D03*
X0451113Y0239729D03*
X0451113Y0235595D03*
X0451113Y0231658D03*
X0458790Y0227131D03*
X0470404Y0224768D03*
X0475129Y0226934D03*
X0475719Y0235792D03*
X0473948Y0247406D03*
X0462727Y0249965D03*
X0474538Y0261383D03*
X0503278Y0252918D03*
X0528081Y0260989D03*
X0534184Y0250162D03*
X0544814Y0263351D03*
X0549932Y0261776D03*
X0572176Y0237761D03*
X0590286Y0230280D03*
X0590286Y0190910D03*
X0590286Y0269650D03*
X0444617Y0179887D03*
X0440089Y0185201D03*
X0432019Y0181264D03*
X0437333Y0176737D03*
X0426113Y0187564D03*
X0419814Y0181264D03*
X0408987Y0174965D03*
X0401507Y0180674D03*
X0404853Y0184414D03*
X0396192Y0173981D03*
X0404853Y0167288D03*
X0408593Y0166698D03*
X0408593Y0161579D03*
X0368633Y0157839D03*
X0428869Y0107642D03*
X0439499Y0107642D03*
X0304853Y0044453D03*
X0281822Y0061186D03*
X0241270Y0064729D03*
X0234184Y0063154D03*
X0219026Y0071816D03*
X0211152Y0070044D03*
X0206231Y0063942D03*
X0200326Y0063942D03*
X0156822Y0070044D03*
X0151113Y0064335D03*
X0144814Y0064729D03*
X0117845Y0019257D03*
X0005050Y0058627D03*
X0005050Y0097997D03*
X0005050Y0137367D03*
X0175326Y0234611D03*
X0290877Y0202918D03*
X0294026Y0202918D03*
X0270995Y0099965D03*
X0270995Y0092879D03*
X0258987Y0094453D03*
X0257019Y0101737D03*
X0385759Y0336776D03*
X0373357Y0349178D03*
X0377491Y0353705D03*
X0379853Y0353705D03*
X0397963Y0358430D03*
X0397963Y0361973D03*
X0398948Y0387761D03*
X0359578Y0387761D03*
X0340286Y0384217D03*
X0338711Y0372012D03*
X0343436Y0372209D03*
X0347767Y0372012D03*
X0294026Y0363942D03*
X0279459Y0359217D03*
X0276310Y0359217D03*
X0270207Y0374768D03*
X0280837Y0387761D03*
X0241467Y0387761D03*
M02*
