G75*
%MOIN*%
%OFA0B0*%
%FSLAX25Y25*%
%IPPOS*%
%LPD*%
%AMOC8*
5,1,8,0,0,1.08239X$1,22.5*
%
%ADD10C,0.00000*%
D10*
X0012874Y0016501D02*
X0587677Y0016501D01*
X0587867Y0016503D01*
X0588057Y0016510D01*
X0588247Y0016522D01*
X0588437Y0016538D01*
X0588626Y0016558D01*
X0588815Y0016584D01*
X0589003Y0016613D01*
X0589190Y0016648D01*
X0589376Y0016687D01*
X0589561Y0016730D01*
X0589746Y0016778D01*
X0589929Y0016830D01*
X0590110Y0016886D01*
X0590290Y0016947D01*
X0590469Y0017013D01*
X0590646Y0017082D01*
X0590822Y0017156D01*
X0590995Y0017234D01*
X0591167Y0017317D01*
X0591336Y0017403D01*
X0591504Y0017493D01*
X0591669Y0017588D01*
X0591832Y0017686D01*
X0591992Y0017789D01*
X0592150Y0017895D01*
X0592305Y0018005D01*
X0592458Y0018118D01*
X0592608Y0018236D01*
X0592754Y0018357D01*
X0592898Y0018481D01*
X0593039Y0018609D01*
X0593177Y0018740D01*
X0593312Y0018875D01*
X0593443Y0019013D01*
X0593571Y0019154D01*
X0593695Y0019298D01*
X0593816Y0019444D01*
X0593934Y0019594D01*
X0594047Y0019747D01*
X0594157Y0019902D01*
X0594263Y0020060D01*
X0594366Y0020220D01*
X0594464Y0020383D01*
X0594559Y0020548D01*
X0594649Y0020716D01*
X0594735Y0020885D01*
X0594818Y0021057D01*
X0594896Y0021230D01*
X0594970Y0021406D01*
X0595039Y0021583D01*
X0595105Y0021762D01*
X0595166Y0021942D01*
X0595222Y0022123D01*
X0595274Y0022306D01*
X0595322Y0022491D01*
X0595365Y0022676D01*
X0595404Y0022862D01*
X0595439Y0023049D01*
X0595468Y0023237D01*
X0595494Y0023426D01*
X0595514Y0023615D01*
X0595530Y0023805D01*
X0595542Y0023995D01*
X0595549Y0024185D01*
X0595551Y0024375D01*
X0595551Y0382643D01*
X0595549Y0382836D01*
X0595542Y0383029D01*
X0595530Y0383222D01*
X0595513Y0383415D01*
X0595492Y0383607D01*
X0595466Y0383798D01*
X0595435Y0383989D01*
X0595400Y0384179D01*
X0595360Y0384368D01*
X0595315Y0384556D01*
X0595266Y0384743D01*
X0595212Y0384929D01*
X0595154Y0385113D01*
X0595091Y0385296D01*
X0595023Y0385477D01*
X0594952Y0385656D01*
X0594876Y0385834D01*
X0594795Y0386009D01*
X0594710Y0386183D01*
X0594621Y0386355D01*
X0594528Y0386524D01*
X0594431Y0386691D01*
X0594329Y0386855D01*
X0594224Y0387017D01*
X0594115Y0387177D01*
X0594002Y0387333D01*
X0593885Y0387487D01*
X0593764Y0387638D01*
X0593639Y0387786D01*
X0593511Y0387931D01*
X0593380Y0388072D01*
X0593245Y0388211D01*
X0593107Y0388346D01*
X0592965Y0388477D01*
X0592820Y0388605D01*
X0592672Y0388729D01*
X0592522Y0388850D01*
X0592368Y0388967D01*
X0592211Y0389080D01*
X0592052Y0389190D01*
X0591890Y0389295D01*
X0591725Y0389397D01*
X0591558Y0389494D01*
X0591389Y0389587D01*
X0591218Y0389676D01*
X0591044Y0389761D01*
X0590868Y0389841D01*
X0590691Y0389917D01*
X0590511Y0389989D01*
X0590330Y0390057D01*
X0590147Y0390119D01*
X0589963Y0390178D01*
X0589778Y0390232D01*
X0589591Y0390281D01*
X0589403Y0390326D01*
X0589214Y0390366D01*
X0589024Y0390401D01*
X0588833Y0390432D01*
X0588641Y0390458D01*
X0588449Y0390479D01*
X0588257Y0390496D01*
X0588064Y0390507D01*
X0587871Y0390515D01*
X0587678Y0390517D01*
X0012875Y0390555D01*
X0012874Y0390555D02*
X0012681Y0390552D01*
X0012488Y0390544D01*
X0012296Y0390531D01*
X0012103Y0390514D01*
X0011912Y0390492D01*
X0011720Y0390466D01*
X0011530Y0390434D01*
X0011340Y0390399D01*
X0011152Y0390358D01*
X0010964Y0390313D01*
X0010777Y0390263D01*
X0010592Y0390209D01*
X0010408Y0390150D01*
X0010226Y0390087D01*
X0010045Y0390019D01*
X0009866Y0389947D01*
X0009689Y0389871D01*
X0009513Y0389790D01*
X0009340Y0389705D01*
X0009169Y0389616D01*
X0009000Y0389523D01*
X0008833Y0389425D01*
X0008669Y0389324D01*
X0008507Y0389219D01*
X0008348Y0389109D01*
X0008192Y0388996D01*
X0008038Y0388879D01*
X0007887Y0388758D01*
X0007740Y0388634D01*
X0007595Y0388506D01*
X0007454Y0388375D01*
X0007316Y0388240D01*
X0007181Y0388102D01*
X0007049Y0387960D01*
X0006921Y0387816D01*
X0006797Y0387668D01*
X0006676Y0387517D01*
X0006559Y0387364D01*
X0006446Y0387208D01*
X0006337Y0387048D01*
X0006231Y0386887D01*
X0006130Y0386723D01*
X0006032Y0386556D01*
X0005939Y0386387D01*
X0005850Y0386216D01*
X0005765Y0386042D01*
X0005684Y0385867D01*
X0005608Y0385690D01*
X0005536Y0385511D01*
X0005468Y0385330D01*
X0005405Y0385147D01*
X0005346Y0384964D01*
X0005292Y0384778D01*
X0005242Y0384592D01*
X0005197Y0384404D01*
X0005157Y0384215D01*
X0005121Y0384026D01*
X0005089Y0383835D01*
X0005063Y0383644D01*
X0005041Y0383452D01*
X0005024Y0383260D01*
X0005011Y0383067D01*
X0005003Y0382874D01*
X0005000Y0382681D01*
X0005000Y0024375D01*
X0005002Y0024185D01*
X0005009Y0023995D01*
X0005021Y0023805D01*
X0005037Y0023615D01*
X0005057Y0023426D01*
X0005083Y0023237D01*
X0005112Y0023049D01*
X0005147Y0022862D01*
X0005186Y0022676D01*
X0005229Y0022491D01*
X0005277Y0022306D01*
X0005329Y0022123D01*
X0005385Y0021942D01*
X0005446Y0021762D01*
X0005512Y0021583D01*
X0005581Y0021406D01*
X0005655Y0021230D01*
X0005733Y0021057D01*
X0005816Y0020885D01*
X0005902Y0020716D01*
X0005992Y0020548D01*
X0006087Y0020383D01*
X0006185Y0020220D01*
X0006288Y0020060D01*
X0006394Y0019902D01*
X0006504Y0019747D01*
X0006617Y0019594D01*
X0006735Y0019444D01*
X0006856Y0019298D01*
X0006980Y0019154D01*
X0007108Y0019013D01*
X0007239Y0018875D01*
X0007374Y0018740D01*
X0007512Y0018609D01*
X0007653Y0018481D01*
X0007797Y0018357D01*
X0007943Y0018236D01*
X0008093Y0018118D01*
X0008246Y0018005D01*
X0008401Y0017895D01*
X0008559Y0017789D01*
X0008719Y0017686D01*
X0008882Y0017588D01*
X0009047Y0017493D01*
X0009215Y0017403D01*
X0009384Y0017317D01*
X0009556Y0017234D01*
X0009729Y0017156D01*
X0009905Y0017082D01*
X0010082Y0017013D01*
X0010261Y0016947D01*
X0010441Y0016886D01*
X0010622Y0016830D01*
X0010805Y0016778D01*
X0010990Y0016730D01*
X0011175Y0016687D01*
X0011361Y0016648D01*
X0011548Y0016613D01*
X0011736Y0016584D01*
X0011925Y0016558D01*
X0012114Y0016538D01*
X0012304Y0016522D01*
X0012494Y0016510D01*
X0012684Y0016503D01*
X0012874Y0016501D01*
X0022372Y0040123D02*
X0022374Y0040281D01*
X0022380Y0040438D01*
X0022390Y0040596D01*
X0022404Y0040753D01*
X0022422Y0040909D01*
X0022443Y0041066D01*
X0022469Y0041221D01*
X0022499Y0041376D01*
X0022532Y0041530D01*
X0022570Y0041683D01*
X0022611Y0041836D01*
X0022656Y0041987D01*
X0022705Y0042137D01*
X0022758Y0042285D01*
X0022814Y0042433D01*
X0022875Y0042578D01*
X0022938Y0042723D01*
X0023006Y0042865D01*
X0023077Y0043006D01*
X0023151Y0043145D01*
X0023229Y0043282D01*
X0023311Y0043417D01*
X0023395Y0043550D01*
X0023484Y0043681D01*
X0023575Y0043809D01*
X0023670Y0043936D01*
X0023767Y0044059D01*
X0023868Y0044181D01*
X0023972Y0044299D01*
X0024079Y0044415D01*
X0024189Y0044528D01*
X0024301Y0044639D01*
X0024417Y0044746D01*
X0024535Y0044851D01*
X0024655Y0044953D01*
X0024778Y0045051D01*
X0024904Y0045147D01*
X0025032Y0045239D01*
X0025162Y0045328D01*
X0025294Y0045414D01*
X0025429Y0045496D01*
X0025566Y0045575D01*
X0025704Y0045650D01*
X0025844Y0045722D01*
X0025987Y0045790D01*
X0026130Y0045855D01*
X0026276Y0045916D01*
X0026423Y0045973D01*
X0026571Y0046027D01*
X0026721Y0046077D01*
X0026871Y0046123D01*
X0027023Y0046165D01*
X0027176Y0046204D01*
X0027330Y0046238D01*
X0027485Y0046269D01*
X0027640Y0046295D01*
X0027796Y0046318D01*
X0027953Y0046337D01*
X0028110Y0046352D01*
X0028267Y0046363D01*
X0028425Y0046370D01*
X0028583Y0046373D01*
X0028740Y0046372D01*
X0028898Y0046367D01*
X0029055Y0046358D01*
X0029213Y0046345D01*
X0029369Y0046328D01*
X0029526Y0046307D01*
X0029681Y0046283D01*
X0029836Y0046254D01*
X0029991Y0046221D01*
X0030144Y0046185D01*
X0030297Y0046144D01*
X0030448Y0046100D01*
X0030598Y0046052D01*
X0030747Y0046001D01*
X0030895Y0045945D01*
X0031041Y0045886D01*
X0031186Y0045823D01*
X0031329Y0045756D01*
X0031470Y0045686D01*
X0031609Y0045613D01*
X0031747Y0045536D01*
X0031883Y0045455D01*
X0032016Y0045371D01*
X0032147Y0045284D01*
X0032276Y0045193D01*
X0032403Y0045099D01*
X0032528Y0045002D01*
X0032649Y0044902D01*
X0032769Y0044799D01*
X0032885Y0044693D01*
X0032999Y0044584D01*
X0033111Y0044472D01*
X0033219Y0044358D01*
X0033324Y0044240D01*
X0033427Y0044120D01*
X0033526Y0043998D01*
X0033622Y0043873D01*
X0033715Y0043745D01*
X0033805Y0043616D01*
X0033891Y0043484D01*
X0033975Y0043350D01*
X0034054Y0043214D01*
X0034131Y0043076D01*
X0034203Y0042936D01*
X0034272Y0042794D01*
X0034338Y0042651D01*
X0034400Y0042506D01*
X0034458Y0042359D01*
X0034513Y0042211D01*
X0034564Y0042062D01*
X0034611Y0041911D01*
X0034654Y0041760D01*
X0034693Y0041607D01*
X0034729Y0041453D01*
X0034760Y0041299D01*
X0034788Y0041144D01*
X0034812Y0040988D01*
X0034832Y0040831D01*
X0034848Y0040674D01*
X0034860Y0040517D01*
X0034868Y0040360D01*
X0034872Y0040202D01*
X0034872Y0040044D01*
X0034868Y0039886D01*
X0034860Y0039729D01*
X0034848Y0039572D01*
X0034832Y0039415D01*
X0034812Y0039258D01*
X0034788Y0039102D01*
X0034760Y0038947D01*
X0034729Y0038793D01*
X0034693Y0038639D01*
X0034654Y0038486D01*
X0034611Y0038335D01*
X0034564Y0038184D01*
X0034513Y0038035D01*
X0034458Y0037887D01*
X0034400Y0037740D01*
X0034338Y0037595D01*
X0034272Y0037452D01*
X0034203Y0037310D01*
X0034131Y0037170D01*
X0034054Y0037032D01*
X0033975Y0036896D01*
X0033891Y0036762D01*
X0033805Y0036630D01*
X0033715Y0036501D01*
X0033622Y0036373D01*
X0033526Y0036248D01*
X0033427Y0036126D01*
X0033324Y0036006D01*
X0033219Y0035888D01*
X0033111Y0035774D01*
X0032999Y0035662D01*
X0032885Y0035553D01*
X0032769Y0035447D01*
X0032649Y0035344D01*
X0032528Y0035244D01*
X0032403Y0035147D01*
X0032276Y0035053D01*
X0032147Y0034962D01*
X0032016Y0034875D01*
X0031883Y0034791D01*
X0031747Y0034710D01*
X0031609Y0034633D01*
X0031470Y0034560D01*
X0031329Y0034490D01*
X0031186Y0034423D01*
X0031041Y0034360D01*
X0030895Y0034301D01*
X0030747Y0034245D01*
X0030598Y0034194D01*
X0030448Y0034146D01*
X0030297Y0034102D01*
X0030144Y0034061D01*
X0029991Y0034025D01*
X0029836Y0033992D01*
X0029681Y0033963D01*
X0029526Y0033939D01*
X0029369Y0033918D01*
X0029213Y0033901D01*
X0029055Y0033888D01*
X0028898Y0033879D01*
X0028740Y0033874D01*
X0028583Y0033873D01*
X0028425Y0033876D01*
X0028267Y0033883D01*
X0028110Y0033894D01*
X0027953Y0033909D01*
X0027796Y0033928D01*
X0027640Y0033951D01*
X0027485Y0033977D01*
X0027330Y0034008D01*
X0027176Y0034042D01*
X0027023Y0034081D01*
X0026871Y0034123D01*
X0026721Y0034169D01*
X0026571Y0034219D01*
X0026423Y0034273D01*
X0026276Y0034330D01*
X0026130Y0034391D01*
X0025987Y0034456D01*
X0025844Y0034524D01*
X0025704Y0034596D01*
X0025566Y0034671D01*
X0025429Y0034750D01*
X0025294Y0034832D01*
X0025162Y0034918D01*
X0025032Y0035007D01*
X0024904Y0035099D01*
X0024778Y0035195D01*
X0024655Y0035293D01*
X0024535Y0035395D01*
X0024417Y0035500D01*
X0024301Y0035607D01*
X0024189Y0035718D01*
X0024079Y0035831D01*
X0023972Y0035947D01*
X0023868Y0036065D01*
X0023767Y0036187D01*
X0023670Y0036310D01*
X0023575Y0036437D01*
X0023484Y0036565D01*
X0023395Y0036696D01*
X0023311Y0036829D01*
X0023229Y0036964D01*
X0023151Y0037101D01*
X0023077Y0037240D01*
X0023006Y0037381D01*
X0022938Y0037523D01*
X0022875Y0037668D01*
X0022814Y0037813D01*
X0022758Y0037961D01*
X0022705Y0038109D01*
X0022656Y0038259D01*
X0022611Y0038410D01*
X0022570Y0038563D01*
X0022532Y0038716D01*
X0022499Y0038870D01*
X0022469Y0039025D01*
X0022443Y0039180D01*
X0022422Y0039337D01*
X0022404Y0039493D01*
X0022390Y0039650D01*
X0022380Y0039808D01*
X0022374Y0039965D01*
X0022372Y0040123D01*
X0295994Y0040123D02*
X0295996Y0040281D01*
X0296002Y0040438D01*
X0296012Y0040596D01*
X0296026Y0040753D01*
X0296044Y0040909D01*
X0296065Y0041066D01*
X0296091Y0041221D01*
X0296121Y0041376D01*
X0296154Y0041530D01*
X0296192Y0041683D01*
X0296233Y0041836D01*
X0296278Y0041987D01*
X0296327Y0042137D01*
X0296380Y0042285D01*
X0296436Y0042433D01*
X0296497Y0042578D01*
X0296560Y0042723D01*
X0296628Y0042865D01*
X0296699Y0043006D01*
X0296773Y0043145D01*
X0296851Y0043282D01*
X0296933Y0043417D01*
X0297017Y0043550D01*
X0297106Y0043681D01*
X0297197Y0043809D01*
X0297292Y0043936D01*
X0297389Y0044059D01*
X0297490Y0044181D01*
X0297594Y0044299D01*
X0297701Y0044415D01*
X0297811Y0044528D01*
X0297923Y0044639D01*
X0298039Y0044746D01*
X0298157Y0044851D01*
X0298277Y0044953D01*
X0298400Y0045051D01*
X0298526Y0045147D01*
X0298654Y0045239D01*
X0298784Y0045328D01*
X0298916Y0045414D01*
X0299051Y0045496D01*
X0299188Y0045575D01*
X0299326Y0045650D01*
X0299466Y0045722D01*
X0299609Y0045790D01*
X0299752Y0045855D01*
X0299898Y0045916D01*
X0300045Y0045973D01*
X0300193Y0046027D01*
X0300343Y0046077D01*
X0300493Y0046123D01*
X0300645Y0046165D01*
X0300798Y0046204D01*
X0300952Y0046238D01*
X0301107Y0046269D01*
X0301262Y0046295D01*
X0301418Y0046318D01*
X0301575Y0046337D01*
X0301732Y0046352D01*
X0301889Y0046363D01*
X0302047Y0046370D01*
X0302205Y0046373D01*
X0302362Y0046372D01*
X0302520Y0046367D01*
X0302677Y0046358D01*
X0302835Y0046345D01*
X0302991Y0046328D01*
X0303148Y0046307D01*
X0303303Y0046283D01*
X0303458Y0046254D01*
X0303613Y0046221D01*
X0303766Y0046185D01*
X0303919Y0046144D01*
X0304070Y0046100D01*
X0304220Y0046052D01*
X0304369Y0046001D01*
X0304517Y0045945D01*
X0304663Y0045886D01*
X0304808Y0045823D01*
X0304951Y0045756D01*
X0305092Y0045686D01*
X0305231Y0045613D01*
X0305369Y0045536D01*
X0305505Y0045455D01*
X0305638Y0045371D01*
X0305769Y0045284D01*
X0305898Y0045193D01*
X0306025Y0045099D01*
X0306150Y0045002D01*
X0306271Y0044902D01*
X0306391Y0044799D01*
X0306507Y0044693D01*
X0306621Y0044584D01*
X0306733Y0044472D01*
X0306841Y0044358D01*
X0306946Y0044240D01*
X0307049Y0044120D01*
X0307148Y0043998D01*
X0307244Y0043873D01*
X0307337Y0043745D01*
X0307427Y0043616D01*
X0307513Y0043484D01*
X0307597Y0043350D01*
X0307676Y0043214D01*
X0307753Y0043076D01*
X0307825Y0042936D01*
X0307894Y0042794D01*
X0307960Y0042651D01*
X0308022Y0042506D01*
X0308080Y0042359D01*
X0308135Y0042211D01*
X0308186Y0042062D01*
X0308233Y0041911D01*
X0308276Y0041760D01*
X0308315Y0041607D01*
X0308351Y0041453D01*
X0308382Y0041299D01*
X0308410Y0041144D01*
X0308434Y0040988D01*
X0308454Y0040831D01*
X0308470Y0040674D01*
X0308482Y0040517D01*
X0308490Y0040360D01*
X0308494Y0040202D01*
X0308494Y0040044D01*
X0308490Y0039886D01*
X0308482Y0039729D01*
X0308470Y0039572D01*
X0308454Y0039415D01*
X0308434Y0039258D01*
X0308410Y0039102D01*
X0308382Y0038947D01*
X0308351Y0038793D01*
X0308315Y0038639D01*
X0308276Y0038486D01*
X0308233Y0038335D01*
X0308186Y0038184D01*
X0308135Y0038035D01*
X0308080Y0037887D01*
X0308022Y0037740D01*
X0307960Y0037595D01*
X0307894Y0037452D01*
X0307825Y0037310D01*
X0307753Y0037170D01*
X0307676Y0037032D01*
X0307597Y0036896D01*
X0307513Y0036762D01*
X0307427Y0036630D01*
X0307337Y0036501D01*
X0307244Y0036373D01*
X0307148Y0036248D01*
X0307049Y0036126D01*
X0306946Y0036006D01*
X0306841Y0035888D01*
X0306733Y0035774D01*
X0306621Y0035662D01*
X0306507Y0035553D01*
X0306391Y0035447D01*
X0306271Y0035344D01*
X0306150Y0035244D01*
X0306025Y0035147D01*
X0305898Y0035053D01*
X0305769Y0034962D01*
X0305638Y0034875D01*
X0305505Y0034791D01*
X0305369Y0034710D01*
X0305231Y0034633D01*
X0305092Y0034560D01*
X0304951Y0034490D01*
X0304808Y0034423D01*
X0304663Y0034360D01*
X0304517Y0034301D01*
X0304369Y0034245D01*
X0304220Y0034194D01*
X0304070Y0034146D01*
X0303919Y0034102D01*
X0303766Y0034061D01*
X0303613Y0034025D01*
X0303458Y0033992D01*
X0303303Y0033963D01*
X0303148Y0033939D01*
X0302991Y0033918D01*
X0302835Y0033901D01*
X0302677Y0033888D01*
X0302520Y0033879D01*
X0302362Y0033874D01*
X0302205Y0033873D01*
X0302047Y0033876D01*
X0301889Y0033883D01*
X0301732Y0033894D01*
X0301575Y0033909D01*
X0301418Y0033928D01*
X0301262Y0033951D01*
X0301107Y0033977D01*
X0300952Y0034008D01*
X0300798Y0034042D01*
X0300645Y0034081D01*
X0300493Y0034123D01*
X0300343Y0034169D01*
X0300193Y0034219D01*
X0300045Y0034273D01*
X0299898Y0034330D01*
X0299752Y0034391D01*
X0299609Y0034456D01*
X0299466Y0034524D01*
X0299326Y0034596D01*
X0299188Y0034671D01*
X0299051Y0034750D01*
X0298916Y0034832D01*
X0298784Y0034918D01*
X0298654Y0035007D01*
X0298526Y0035099D01*
X0298400Y0035195D01*
X0298277Y0035293D01*
X0298157Y0035395D01*
X0298039Y0035500D01*
X0297923Y0035607D01*
X0297811Y0035718D01*
X0297701Y0035831D01*
X0297594Y0035947D01*
X0297490Y0036065D01*
X0297389Y0036187D01*
X0297292Y0036310D01*
X0297197Y0036437D01*
X0297106Y0036565D01*
X0297017Y0036696D01*
X0296933Y0036829D01*
X0296851Y0036964D01*
X0296773Y0037101D01*
X0296699Y0037240D01*
X0296628Y0037381D01*
X0296560Y0037523D01*
X0296497Y0037668D01*
X0296436Y0037813D01*
X0296380Y0037961D01*
X0296327Y0038109D01*
X0296278Y0038259D01*
X0296233Y0038410D01*
X0296192Y0038563D01*
X0296154Y0038716D01*
X0296121Y0038870D01*
X0296091Y0039025D01*
X0296065Y0039180D01*
X0296044Y0039337D01*
X0296026Y0039493D01*
X0296012Y0039650D01*
X0296002Y0039808D01*
X0295996Y0039965D01*
X0295994Y0040123D01*
X0565679Y0040123D02*
X0565681Y0040281D01*
X0565687Y0040438D01*
X0565697Y0040596D01*
X0565711Y0040753D01*
X0565729Y0040909D01*
X0565750Y0041066D01*
X0565776Y0041221D01*
X0565806Y0041376D01*
X0565839Y0041530D01*
X0565877Y0041683D01*
X0565918Y0041836D01*
X0565963Y0041987D01*
X0566012Y0042137D01*
X0566065Y0042285D01*
X0566121Y0042433D01*
X0566182Y0042578D01*
X0566245Y0042723D01*
X0566313Y0042865D01*
X0566384Y0043006D01*
X0566458Y0043145D01*
X0566536Y0043282D01*
X0566618Y0043417D01*
X0566702Y0043550D01*
X0566791Y0043681D01*
X0566882Y0043809D01*
X0566977Y0043936D01*
X0567074Y0044059D01*
X0567175Y0044181D01*
X0567279Y0044299D01*
X0567386Y0044415D01*
X0567496Y0044528D01*
X0567608Y0044639D01*
X0567724Y0044746D01*
X0567842Y0044851D01*
X0567962Y0044953D01*
X0568085Y0045051D01*
X0568211Y0045147D01*
X0568339Y0045239D01*
X0568469Y0045328D01*
X0568601Y0045414D01*
X0568736Y0045496D01*
X0568873Y0045575D01*
X0569011Y0045650D01*
X0569151Y0045722D01*
X0569294Y0045790D01*
X0569437Y0045855D01*
X0569583Y0045916D01*
X0569730Y0045973D01*
X0569878Y0046027D01*
X0570028Y0046077D01*
X0570178Y0046123D01*
X0570330Y0046165D01*
X0570483Y0046204D01*
X0570637Y0046238D01*
X0570792Y0046269D01*
X0570947Y0046295D01*
X0571103Y0046318D01*
X0571260Y0046337D01*
X0571417Y0046352D01*
X0571574Y0046363D01*
X0571732Y0046370D01*
X0571890Y0046373D01*
X0572047Y0046372D01*
X0572205Y0046367D01*
X0572362Y0046358D01*
X0572520Y0046345D01*
X0572676Y0046328D01*
X0572833Y0046307D01*
X0572988Y0046283D01*
X0573143Y0046254D01*
X0573298Y0046221D01*
X0573451Y0046185D01*
X0573604Y0046144D01*
X0573755Y0046100D01*
X0573905Y0046052D01*
X0574054Y0046001D01*
X0574202Y0045945D01*
X0574348Y0045886D01*
X0574493Y0045823D01*
X0574636Y0045756D01*
X0574777Y0045686D01*
X0574916Y0045613D01*
X0575054Y0045536D01*
X0575190Y0045455D01*
X0575323Y0045371D01*
X0575454Y0045284D01*
X0575583Y0045193D01*
X0575710Y0045099D01*
X0575835Y0045002D01*
X0575956Y0044902D01*
X0576076Y0044799D01*
X0576192Y0044693D01*
X0576306Y0044584D01*
X0576418Y0044472D01*
X0576526Y0044358D01*
X0576631Y0044240D01*
X0576734Y0044120D01*
X0576833Y0043998D01*
X0576929Y0043873D01*
X0577022Y0043745D01*
X0577112Y0043616D01*
X0577198Y0043484D01*
X0577282Y0043350D01*
X0577361Y0043214D01*
X0577438Y0043076D01*
X0577510Y0042936D01*
X0577579Y0042794D01*
X0577645Y0042651D01*
X0577707Y0042506D01*
X0577765Y0042359D01*
X0577820Y0042211D01*
X0577871Y0042062D01*
X0577918Y0041911D01*
X0577961Y0041760D01*
X0578000Y0041607D01*
X0578036Y0041453D01*
X0578067Y0041299D01*
X0578095Y0041144D01*
X0578119Y0040988D01*
X0578139Y0040831D01*
X0578155Y0040674D01*
X0578167Y0040517D01*
X0578175Y0040360D01*
X0578179Y0040202D01*
X0578179Y0040044D01*
X0578175Y0039886D01*
X0578167Y0039729D01*
X0578155Y0039572D01*
X0578139Y0039415D01*
X0578119Y0039258D01*
X0578095Y0039102D01*
X0578067Y0038947D01*
X0578036Y0038793D01*
X0578000Y0038639D01*
X0577961Y0038486D01*
X0577918Y0038335D01*
X0577871Y0038184D01*
X0577820Y0038035D01*
X0577765Y0037887D01*
X0577707Y0037740D01*
X0577645Y0037595D01*
X0577579Y0037452D01*
X0577510Y0037310D01*
X0577438Y0037170D01*
X0577361Y0037032D01*
X0577282Y0036896D01*
X0577198Y0036762D01*
X0577112Y0036630D01*
X0577022Y0036501D01*
X0576929Y0036373D01*
X0576833Y0036248D01*
X0576734Y0036126D01*
X0576631Y0036006D01*
X0576526Y0035888D01*
X0576418Y0035774D01*
X0576306Y0035662D01*
X0576192Y0035553D01*
X0576076Y0035447D01*
X0575956Y0035344D01*
X0575835Y0035244D01*
X0575710Y0035147D01*
X0575583Y0035053D01*
X0575454Y0034962D01*
X0575323Y0034875D01*
X0575190Y0034791D01*
X0575054Y0034710D01*
X0574916Y0034633D01*
X0574777Y0034560D01*
X0574636Y0034490D01*
X0574493Y0034423D01*
X0574348Y0034360D01*
X0574202Y0034301D01*
X0574054Y0034245D01*
X0573905Y0034194D01*
X0573755Y0034146D01*
X0573604Y0034102D01*
X0573451Y0034061D01*
X0573298Y0034025D01*
X0573143Y0033992D01*
X0572988Y0033963D01*
X0572833Y0033939D01*
X0572676Y0033918D01*
X0572520Y0033901D01*
X0572362Y0033888D01*
X0572205Y0033879D01*
X0572047Y0033874D01*
X0571890Y0033873D01*
X0571732Y0033876D01*
X0571574Y0033883D01*
X0571417Y0033894D01*
X0571260Y0033909D01*
X0571103Y0033928D01*
X0570947Y0033951D01*
X0570792Y0033977D01*
X0570637Y0034008D01*
X0570483Y0034042D01*
X0570330Y0034081D01*
X0570178Y0034123D01*
X0570028Y0034169D01*
X0569878Y0034219D01*
X0569730Y0034273D01*
X0569583Y0034330D01*
X0569437Y0034391D01*
X0569294Y0034456D01*
X0569151Y0034524D01*
X0569011Y0034596D01*
X0568873Y0034671D01*
X0568736Y0034750D01*
X0568601Y0034832D01*
X0568469Y0034918D01*
X0568339Y0035007D01*
X0568211Y0035099D01*
X0568085Y0035195D01*
X0567962Y0035293D01*
X0567842Y0035395D01*
X0567724Y0035500D01*
X0567608Y0035607D01*
X0567496Y0035718D01*
X0567386Y0035831D01*
X0567279Y0035947D01*
X0567175Y0036065D01*
X0567074Y0036187D01*
X0566977Y0036310D01*
X0566882Y0036437D01*
X0566791Y0036565D01*
X0566702Y0036696D01*
X0566618Y0036829D01*
X0566536Y0036964D01*
X0566458Y0037101D01*
X0566384Y0037240D01*
X0566313Y0037381D01*
X0566245Y0037523D01*
X0566182Y0037668D01*
X0566121Y0037813D01*
X0566065Y0037961D01*
X0566012Y0038109D01*
X0565963Y0038259D01*
X0565918Y0038410D01*
X0565877Y0038563D01*
X0565839Y0038716D01*
X0565806Y0038870D01*
X0565776Y0039025D01*
X0565750Y0039180D01*
X0565729Y0039337D01*
X0565711Y0039493D01*
X0565697Y0039650D01*
X0565687Y0039808D01*
X0565681Y0039965D01*
X0565679Y0040123D01*
X0565679Y0366894D02*
X0565681Y0367052D01*
X0565687Y0367209D01*
X0565697Y0367367D01*
X0565711Y0367524D01*
X0565729Y0367680D01*
X0565750Y0367837D01*
X0565776Y0367992D01*
X0565806Y0368147D01*
X0565839Y0368301D01*
X0565877Y0368454D01*
X0565918Y0368607D01*
X0565963Y0368758D01*
X0566012Y0368908D01*
X0566065Y0369056D01*
X0566121Y0369204D01*
X0566182Y0369349D01*
X0566245Y0369494D01*
X0566313Y0369636D01*
X0566384Y0369777D01*
X0566458Y0369916D01*
X0566536Y0370053D01*
X0566618Y0370188D01*
X0566702Y0370321D01*
X0566791Y0370452D01*
X0566882Y0370580D01*
X0566977Y0370707D01*
X0567074Y0370830D01*
X0567175Y0370952D01*
X0567279Y0371070D01*
X0567386Y0371186D01*
X0567496Y0371299D01*
X0567608Y0371410D01*
X0567724Y0371517D01*
X0567842Y0371622D01*
X0567962Y0371724D01*
X0568085Y0371822D01*
X0568211Y0371918D01*
X0568339Y0372010D01*
X0568469Y0372099D01*
X0568601Y0372185D01*
X0568736Y0372267D01*
X0568873Y0372346D01*
X0569011Y0372421D01*
X0569151Y0372493D01*
X0569294Y0372561D01*
X0569437Y0372626D01*
X0569583Y0372687D01*
X0569730Y0372744D01*
X0569878Y0372798D01*
X0570028Y0372848D01*
X0570178Y0372894D01*
X0570330Y0372936D01*
X0570483Y0372975D01*
X0570637Y0373009D01*
X0570792Y0373040D01*
X0570947Y0373066D01*
X0571103Y0373089D01*
X0571260Y0373108D01*
X0571417Y0373123D01*
X0571574Y0373134D01*
X0571732Y0373141D01*
X0571890Y0373144D01*
X0572047Y0373143D01*
X0572205Y0373138D01*
X0572362Y0373129D01*
X0572520Y0373116D01*
X0572676Y0373099D01*
X0572833Y0373078D01*
X0572988Y0373054D01*
X0573143Y0373025D01*
X0573298Y0372992D01*
X0573451Y0372956D01*
X0573604Y0372915D01*
X0573755Y0372871D01*
X0573905Y0372823D01*
X0574054Y0372772D01*
X0574202Y0372716D01*
X0574348Y0372657D01*
X0574493Y0372594D01*
X0574636Y0372527D01*
X0574777Y0372457D01*
X0574916Y0372384D01*
X0575054Y0372307D01*
X0575190Y0372226D01*
X0575323Y0372142D01*
X0575454Y0372055D01*
X0575583Y0371964D01*
X0575710Y0371870D01*
X0575835Y0371773D01*
X0575956Y0371673D01*
X0576076Y0371570D01*
X0576192Y0371464D01*
X0576306Y0371355D01*
X0576418Y0371243D01*
X0576526Y0371129D01*
X0576631Y0371011D01*
X0576734Y0370891D01*
X0576833Y0370769D01*
X0576929Y0370644D01*
X0577022Y0370516D01*
X0577112Y0370387D01*
X0577198Y0370255D01*
X0577282Y0370121D01*
X0577361Y0369985D01*
X0577438Y0369847D01*
X0577510Y0369707D01*
X0577579Y0369565D01*
X0577645Y0369422D01*
X0577707Y0369277D01*
X0577765Y0369130D01*
X0577820Y0368982D01*
X0577871Y0368833D01*
X0577918Y0368682D01*
X0577961Y0368531D01*
X0578000Y0368378D01*
X0578036Y0368224D01*
X0578067Y0368070D01*
X0578095Y0367915D01*
X0578119Y0367759D01*
X0578139Y0367602D01*
X0578155Y0367445D01*
X0578167Y0367288D01*
X0578175Y0367131D01*
X0578179Y0366973D01*
X0578179Y0366815D01*
X0578175Y0366657D01*
X0578167Y0366500D01*
X0578155Y0366343D01*
X0578139Y0366186D01*
X0578119Y0366029D01*
X0578095Y0365873D01*
X0578067Y0365718D01*
X0578036Y0365564D01*
X0578000Y0365410D01*
X0577961Y0365257D01*
X0577918Y0365106D01*
X0577871Y0364955D01*
X0577820Y0364806D01*
X0577765Y0364658D01*
X0577707Y0364511D01*
X0577645Y0364366D01*
X0577579Y0364223D01*
X0577510Y0364081D01*
X0577438Y0363941D01*
X0577361Y0363803D01*
X0577282Y0363667D01*
X0577198Y0363533D01*
X0577112Y0363401D01*
X0577022Y0363272D01*
X0576929Y0363144D01*
X0576833Y0363019D01*
X0576734Y0362897D01*
X0576631Y0362777D01*
X0576526Y0362659D01*
X0576418Y0362545D01*
X0576306Y0362433D01*
X0576192Y0362324D01*
X0576076Y0362218D01*
X0575956Y0362115D01*
X0575835Y0362015D01*
X0575710Y0361918D01*
X0575583Y0361824D01*
X0575454Y0361733D01*
X0575323Y0361646D01*
X0575190Y0361562D01*
X0575054Y0361481D01*
X0574916Y0361404D01*
X0574777Y0361331D01*
X0574636Y0361261D01*
X0574493Y0361194D01*
X0574348Y0361131D01*
X0574202Y0361072D01*
X0574054Y0361016D01*
X0573905Y0360965D01*
X0573755Y0360917D01*
X0573604Y0360873D01*
X0573451Y0360832D01*
X0573298Y0360796D01*
X0573143Y0360763D01*
X0572988Y0360734D01*
X0572833Y0360710D01*
X0572676Y0360689D01*
X0572520Y0360672D01*
X0572362Y0360659D01*
X0572205Y0360650D01*
X0572047Y0360645D01*
X0571890Y0360644D01*
X0571732Y0360647D01*
X0571574Y0360654D01*
X0571417Y0360665D01*
X0571260Y0360680D01*
X0571103Y0360699D01*
X0570947Y0360722D01*
X0570792Y0360748D01*
X0570637Y0360779D01*
X0570483Y0360813D01*
X0570330Y0360852D01*
X0570178Y0360894D01*
X0570028Y0360940D01*
X0569878Y0360990D01*
X0569730Y0361044D01*
X0569583Y0361101D01*
X0569437Y0361162D01*
X0569294Y0361227D01*
X0569151Y0361295D01*
X0569011Y0361367D01*
X0568873Y0361442D01*
X0568736Y0361521D01*
X0568601Y0361603D01*
X0568469Y0361689D01*
X0568339Y0361778D01*
X0568211Y0361870D01*
X0568085Y0361966D01*
X0567962Y0362064D01*
X0567842Y0362166D01*
X0567724Y0362271D01*
X0567608Y0362378D01*
X0567496Y0362489D01*
X0567386Y0362602D01*
X0567279Y0362718D01*
X0567175Y0362836D01*
X0567074Y0362958D01*
X0566977Y0363081D01*
X0566882Y0363208D01*
X0566791Y0363336D01*
X0566702Y0363467D01*
X0566618Y0363600D01*
X0566536Y0363735D01*
X0566458Y0363872D01*
X0566384Y0364011D01*
X0566313Y0364152D01*
X0566245Y0364294D01*
X0566182Y0364439D01*
X0566121Y0364584D01*
X0566065Y0364732D01*
X0566012Y0364880D01*
X0565963Y0365030D01*
X0565918Y0365181D01*
X0565877Y0365334D01*
X0565839Y0365487D01*
X0565806Y0365641D01*
X0565776Y0365796D01*
X0565750Y0365951D01*
X0565729Y0366108D01*
X0565711Y0366264D01*
X0565697Y0366421D01*
X0565687Y0366579D01*
X0565681Y0366736D01*
X0565679Y0366894D01*
X0341270Y0366894D02*
X0341272Y0367052D01*
X0341278Y0367209D01*
X0341288Y0367367D01*
X0341302Y0367524D01*
X0341320Y0367680D01*
X0341341Y0367837D01*
X0341367Y0367992D01*
X0341397Y0368147D01*
X0341430Y0368301D01*
X0341468Y0368454D01*
X0341509Y0368607D01*
X0341554Y0368758D01*
X0341603Y0368908D01*
X0341656Y0369056D01*
X0341712Y0369204D01*
X0341773Y0369349D01*
X0341836Y0369494D01*
X0341904Y0369636D01*
X0341975Y0369777D01*
X0342049Y0369916D01*
X0342127Y0370053D01*
X0342209Y0370188D01*
X0342293Y0370321D01*
X0342382Y0370452D01*
X0342473Y0370580D01*
X0342568Y0370707D01*
X0342665Y0370830D01*
X0342766Y0370952D01*
X0342870Y0371070D01*
X0342977Y0371186D01*
X0343087Y0371299D01*
X0343199Y0371410D01*
X0343315Y0371517D01*
X0343433Y0371622D01*
X0343553Y0371724D01*
X0343676Y0371822D01*
X0343802Y0371918D01*
X0343930Y0372010D01*
X0344060Y0372099D01*
X0344192Y0372185D01*
X0344327Y0372267D01*
X0344464Y0372346D01*
X0344602Y0372421D01*
X0344742Y0372493D01*
X0344885Y0372561D01*
X0345028Y0372626D01*
X0345174Y0372687D01*
X0345321Y0372744D01*
X0345469Y0372798D01*
X0345619Y0372848D01*
X0345769Y0372894D01*
X0345921Y0372936D01*
X0346074Y0372975D01*
X0346228Y0373009D01*
X0346383Y0373040D01*
X0346538Y0373066D01*
X0346694Y0373089D01*
X0346851Y0373108D01*
X0347008Y0373123D01*
X0347165Y0373134D01*
X0347323Y0373141D01*
X0347481Y0373144D01*
X0347638Y0373143D01*
X0347796Y0373138D01*
X0347953Y0373129D01*
X0348111Y0373116D01*
X0348267Y0373099D01*
X0348424Y0373078D01*
X0348579Y0373054D01*
X0348734Y0373025D01*
X0348889Y0372992D01*
X0349042Y0372956D01*
X0349195Y0372915D01*
X0349346Y0372871D01*
X0349496Y0372823D01*
X0349645Y0372772D01*
X0349793Y0372716D01*
X0349939Y0372657D01*
X0350084Y0372594D01*
X0350227Y0372527D01*
X0350368Y0372457D01*
X0350507Y0372384D01*
X0350645Y0372307D01*
X0350781Y0372226D01*
X0350914Y0372142D01*
X0351045Y0372055D01*
X0351174Y0371964D01*
X0351301Y0371870D01*
X0351426Y0371773D01*
X0351547Y0371673D01*
X0351667Y0371570D01*
X0351783Y0371464D01*
X0351897Y0371355D01*
X0352009Y0371243D01*
X0352117Y0371129D01*
X0352222Y0371011D01*
X0352325Y0370891D01*
X0352424Y0370769D01*
X0352520Y0370644D01*
X0352613Y0370516D01*
X0352703Y0370387D01*
X0352789Y0370255D01*
X0352873Y0370121D01*
X0352952Y0369985D01*
X0353029Y0369847D01*
X0353101Y0369707D01*
X0353170Y0369565D01*
X0353236Y0369422D01*
X0353298Y0369277D01*
X0353356Y0369130D01*
X0353411Y0368982D01*
X0353462Y0368833D01*
X0353509Y0368682D01*
X0353552Y0368531D01*
X0353591Y0368378D01*
X0353627Y0368224D01*
X0353658Y0368070D01*
X0353686Y0367915D01*
X0353710Y0367759D01*
X0353730Y0367602D01*
X0353746Y0367445D01*
X0353758Y0367288D01*
X0353766Y0367131D01*
X0353770Y0366973D01*
X0353770Y0366815D01*
X0353766Y0366657D01*
X0353758Y0366500D01*
X0353746Y0366343D01*
X0353730Y0366186D01*
X0353710Y0366029D01*
X0353686Y0365873D01*
X0353658Y0365718D01*
X0353627Y0365564D01*
X0353591Y0365410D01*
X0353552Y0365257D01*
X0353509Y0365106D01*
X0353462Y0364955D01*
X0353411Y0364806D01*
X0353356Y0364658D01*
X0353298Y0364511D01*
X0353236Y0364366D01*
X0353170Y0364223D01*
X0353101Y0364081D01*
X0353029Y0363941D01*
X0352952Y0363803D01*
X0352873Y0363667D01*
X0352789Y0363533D01*
X0352703Y0363401D01*
X0352613Y0363272D01*
X0352520Y0363144D01*
X0352424Y0363019D01*
X0352325Y0362897D01*
X0352222Y0362777D01*
X0352117Y0362659D01*
X0352009Y0362545D01*
X0351897Y0362433D01*
X0351783Y0362324D01*
X0351667Y0362218D01*
X0351547Y0362115D01*
X0351426Y0362015D01*
X0351301Y0361918D01*
X0351174Y0361824D01*
X0351045Y0361733D01*
X0350914Y0361646D01*
X0350781Y0361562D01*
X0350645Y0361481D01*
X0350507Y0361404D01*
X0350368Y0361331D01*
X0350227Y0361261D01*
X0350084Y0361194D01*
X0349939Y0361131D01*
X0349793Y0361072D01*
X0349645Y0361016D01*
X0349496Y0360965D01*
X0349346Y0360917D01*
X0349195Y0360873D01*
X0349042Y0360832D01*
X0348889Y0360796D01*
X0348734Y0360763D01*
X0348579Y0360734D01*
X0348424Y0360710D01*
X0348267Y0360689D01*
X0348111Y0360672D01*
X0347953Y0360659D01*
X0347796Y0360650D01*
X0347638Y0360645D01*
X0347481Y0360644D01*
X0347323Y0360647D01*
X0347165Y0360654D01*
X0347008Y0360665D01*
X0346851Y0360680D01*
X0346694Y0360699D01*
X0346538Y0360722D01*
X0346383Y0360748D01*
X0346228Y0360779D01*
X0346074Y0360813D01*
X0345921Y0360852D01*
X0345769Y0360894D01*
X0345619Y0360940D01*
X0345469Y0360990D01*
X0345321Y0361044D01*
X0345174Y0361101D01*
X0345028Y0361162D01*
X0344885Y0361227D01*
X0344742Y0361295D01*
X0344602Y0361367D01*
X0344464Y0361442D01*
X0344327Y0361521D01*
X0344192Y0361603D01*
X0344060Y0361689D01*
X0343930Y0361778D01*
X0343802Y0361870D01*
X0343676Y0361966D01*
X0343553Y0362064D01*
X0343433Y0362166D01*
X0343315Y0362271D01*
X0343199Y0362378D01*
X0343087Y0362489D01*
X0342977Y0362602D01*
X0342870Y0362718D01*
X0342766Y0362836D01*
X0342665Y0362958D01*
X0342568Y0363081D01*
X0342473Y0363208D01*
X0342382Y0363336D01*
X0342293Y0363467D01*
X0342209Y0363600D01*
X0342127Y0363735D01*
X0342049Y0363872D01*
X0341975Y0364011D01*
X0341904Y0364152D01*
X0341836Y0364294D01*
X0341773Y0364439D01*
X0341712Y0364584D01*
X0341656Y0364732D01*
X0341603Y0364880D01*
X0341554Y0365030D01*
X0341509Y0365181D01*
X0341468Y0365334D01*
X0341430Y0365487D01*
X0341397Y0365641D01*
X0341367Y0365796D01*
X0341341Y0365951D01*
X0341320Y0366108D01*
X0341302Y0366264D01*
X0341288Y0366421D01*
X0341278Y0366579D01*
X0341272Y0366736D01*
X0341270Y0366894D01*
X0301457Y0375556D02*
X0301459Y0375693D01*
X0301465Y0375831D01*
X0301475Y0375968D01*
X0301489Y0376104D01*
X0301507Y0376241D01*
X0301529Y0376376D01*
X0301555Y0376511D01*
X0301584Y0376645D01*
X0301618Y0376779D01*
X0301655Y0376911D01*
X0301697Y0377042D01*
X0301742Y0377172D01*
X0301791Y0377300D01*
X0301843Y0377427D01*
X0301900Y0377552D01*
X0301959Y0377676D01*
X0302023Y0377798D01*
X0302090Y0377918D01*
X0302160Y0378036D01*
X0302234Y0378152D01*
X0302311Y0378266D01*
X0302392Y0378377D01*
X0302475Y0378486D01*
X0302562Y0378593D01*
X0302652Y0378696D01*
X0302745Y0378798D01*
X0302841Y0378896D01*
X0302939Y0378992D01*
X0303041Y0379085D01*
X0303144Y0379175D01*
X0303251Y0379262D01*
X0303360Y0379345D01*
X0303471Y0379426D01*
X0303585Y0379503D01*
X0303701Y0379577D01*
X0303819Y0379647D01*
X0303939Y0379714D01*
X0304061Y0379778D01*
X0304185Y0379837D01*
X0304310Y0379894D01*
X0304437Y0379946D01*
X0304565Y0379995D01*
X0304695Y0380040D01*
X0304826Y0380082D01*
X0304958Y0380119D01*
X0305092Y0380153D01*
X0305226Y0380182D01*
X0305361Y0380208D01*
X0305496Y0380230D01*
X0305633Y0380248D01*
X0305769Y0380262D01*
X0305906Y0380272D01*
X0306044Y0380278D01*
X0306181Y0380280D01*
X0306318Y0380278D01*
X0306456Y0380272D01*
X0306593Y0380262D01*
X0306729Y0380248D01*
X0306866Y0380230D01*
X0307001Y0380208D01*
X0307136Y0380182D01*
X0307270Y0380153D01*
X0307404Y0380119D01*
X0307536Y0380082D01*
X0307667Y0380040D01*
X0307797Y0379995D01*
X0307925Y0379946D01*
X0308052Y0379894D01*
X0308177Y0379837D01*
X0308301Y0379778D01*
X0308423Y0379714D01*
X0308543Y0379647D01*
X0308661Y0379577D01*
X0308777Y0379503D01*
X0308891Y0379426D01*
X0309002Y0379345D01*
X0309111Y0379262D01*
X0309218Y0379175D01*
X0309321Y0379085D01*
X0309423Y0378992D01*
X0309521Y0378896D01*
X0309617Y0378798D01*
X0309710Y0378696D01*
X0309800Y0378593D01*
X0309887Y0378486D01*
X0309970Y0378377D01*
X0310051Y0378266D01*
X0310128Y0378152D01*
X0310202Y0378036D01*
X0310272Y0377918D01*
X0310339Y0377798D01*
X0310403Y0377676D01*
X0310462Y0377552D01*
X0310519Y0377427D01*
X0310571Y0377300D01*
X0310620Y0377172D01*
X0310665Y0377042D01*
X0310707Y0376911D01*
X0310744Y0376779D01*
X0310778Y0376645D01*
X0310807Y0376511D01*
X0310833Y0376376D01*
X0310855Y0376241D01*
X0310873Y0376104D01*
X0310887Y0375968D01*
X0310897Y0375831D01*
X0310903Y0375693D01*
X0310905Y0375556D01*
X0310903Y0375419D01*
X0310897Y0375281D01*
X0310887Y0375144D01*
X0310873Y0375008D01*
X0310855Y0374871D01*
X0310833Y0374736D01*
X0310807Y0374601D01*
X0310778Y0374467D01*
X0310744Y0374333D01*
X0310707Y0374201D01*
X0310665Y0374070D01*
X0310620Y0373940D01*
X0310571Y0373812D01*
X0310519Y0373685D01*
X0310462Y0373560D01*
X0310403Y0373436D01*
X0310339Y0373314D01*
X0310272Y0373194D01*
X0310202Y0373076D01*
X0310128Y0372960D01*
X0310051Y0372846D01*
X0309970Y0372735D01*
X0309887Y0372626D01*
X0309800Y0372519D01*
X0309710Y0372416D01*
X0309617Y0372314D01*
X0309521Y0372216D01*
X0309423Y0372120D01*
X0309321Y0372027D01*
X0309218Y0371937D01*
X0309111Y0371850D01*
X0309002Y0371767D01*
X0308891Y0371686D01*
X0308777Y0371609D01*
X0308661Y0371535D01*
X0308543Y0371465D01*
X0308423Y0371398D01*
X0308301Y0371334D01*
X0308177Y0371275D01*
X0308052Y0371218D01*
X0307925Y0371166D01*
X0307797Y0371117D01*
X0307667Y0371072D01*
X0307536Y0371030D01*
X0307404Y0370993D01*
X0307270Y0370959D01*
X0307136Y0370930D01*
X0307001Y0370904D01*
X0306866Y0370882D01*
X0306729Y0370864D01*
X0306593Y0370850D01*
X0306456Y0370840D01*
X0306318Y0370834D01*
X0306181Y0370832D01*
X0306044Y0370834D01*
X0305906Y0370840D01*
X0305769Y0370850D01*
X0305633Y0370864D01*
X0305496Y0370882D01*
X0305361Y0370904D01*
X0305226Y0370930D01*
X0305092Y0370959D01*
X0304958Y0370993D01*
X0304826Y0371030D01*
X0304695Y0371072D01*
X0304565Y0371117D01*
X0304437Y0371166D01*
X0304310Y0371218D01*
X0304185Y0371275D01*
X0304061Y0371334D01*
X0303939Y0371398D01*
X0303819Y0371465D01*
X0303701Y0371535D01*
X0303585Y0371609D01*
X0303471Y0371686D01*
X0303360Y0371767D01*
X0303251Y0371850D01*
X0303144Y0371937D01*
X0303041Y0372027D01*
X0302939Y0372120D01*
X0302841Y0372216D01*
X0302745Y0372314D01*
X0302652Y0372416D01*
X0302562Y0372519D01*
X0302475Y0372626D01*
X0302392Y0372735D01*
X0302311Y0372846D01*
X0302234Y0372960D01*
X0302160Y0373076D01*
X0302090Y0373194D01*
X0302023Y0373314D01*
X0301959Y0373436D01*
X0301900Y0373560D01*
X0301843Y0373685D01*
X0301791Y0373812D01*
X0301742Y0373940D01*
X0301697Y0374070D01*
X0301655Y0374201D01*
X0301618Y0374333D01*
X0301584Y0374467D01*
X0301555Y0374601D01*
X0301529Y0374736D01*
X0301507Y0374871D01*
X0301489Y0375008D01*
X0301475Y0375144D01*
X0301465Y0375281D01*
X0301459Y0375419D01*
X0301457Y0375556D01*
X0022372Y0366894D02*
X0022374Y0367052D01*
X0022380Y0367209D01*
X0022390Y0367367D01*
X0022404Y0367524D01*
X0022422Y0367680D01*
X0022443Y0367837D01*
X0022469Y0367992D01*
X0022499Y0368147D01*
X0022532Y0368301D01*
X0022570Y0368454D01*
X0022611Y0368607D01*
X0022656Y0368758D01*
X0022705Y0368908D01*
X0022758Y0369056D01*
X0022814Y0369204D01*
X0022875Y0369349D01*
X0022938Y0369494D01*
X0023006Y0369636D01*
X0023077Y0369777D01*
X0023151Y0369916D01*
X0023229Y0370053D01*
X0023311Y0370188D01*
X0023395Y0370321D01*
X0023484Y0370452D01*
X0023575Y0370580D01*
X0023670Y0370707D01*
X0023767Y0370830D01*
X0023868Y0370952D01*
X0023972Y0371070D01*
X0024079Y0371186D01*
X0024189Y0371299D01*
X0024301Y0371410D01*
X0024417Y0371517D01*
X0024535Y0371622D01*
X0024655Y0371724D01*
X0024778Y0371822D01*
X0024904Y0371918D01*
X0025032Y0372010D01*
X0025162Y0372099D01*
X0025294Y0372185D01*
X0025429Y0372267D01*
X0025566Y0372346D01*
X0025704Y0372421D01*
X0025844Y0372493D01*
X0025987Y0372561D01*
X0026130Y0372626D01*
X0026276Y0372687D01*
X0026423Y0372744D01*
X0026571Y0372798D01*
X0026721Y0372848D01*
X0026871Y0372894D01*
X0027023Y0372936D01*
X0027176Y0372975D01*
X0027330Y0373009D01*
X0027485Y0373040D01*
X0027640Y0373066D01*
X0027796Y0373089D01*
X0027953Y0373108D01*
X0028110Y0373123D01*
X0028267Y0373134D01*
X0028425Y0373141D01*
X0028583Y0373144D01*
X0028740Y0373143D01*
X0028898Y0373138D01*
X0029055Y0373129D01*
X0029213Y0373116D01*
X0029369Y0373099D01*
X0029526Y0373078D01*
X0029681Y0373054D01*
X0029836Y0373025D01*
X0029991Y0372992D01*
X0030144Y0372956D01*
X0030297Y0372915D01*
X0030448Y0372871D01*
X0030598Y0372823D01*
X0030747Y0372772D01*
X0030895Y0372716D01*
X0031041Y0372657D01*
X0031186Y0372594D01*
X0031329Y0372527D01*
X0031470Y0372457D01*
X0031609Y0372384D01*
X0031747Y0372307D01*
X0031883Y0372226D01*
X0032016Y0372142D01*
X0032147Y0372055D01*
X0032276Y0371964D01*
X0032403Y0371870D01*
X0032528Y0371773D01*
X0032649Y0371673D01*
X0032769Y0371570D01*
X0032885Y0371464D01*
X0032999Y0371355D01*
X0033111Y0371243D01*
X0033219Y0371129D01*
X0033324Y0371011D01*
X0033427Y0370891D01*
X0033526Y0370769D01*
X0033622Y0370644D01*
X0033715Y0370516D01*
X0033805Y0370387D01*
X0033891Y0370255D01*
X0033975Y0370121D01*
X0034054Y0369985D01*
X0034131Y0369847D01*
X0034203Y0369707D01*
X0034272Y0369565D01*
X0034338Y0369422D01*
X0034400Y0369277D01*
X0034458Y0369130D01*
X0034513Y0368982D01*
X0034564Y0368833D01*
X0034611Y0368682D01*
X0034654Y0368531D01*
X0034693Y0368378D01*
X0034729Y0368224D01*
X0034760Y0368070D01*
X0034788Y0367915D01*
X0034812Y0367759D01*
X0034832Y0367602D01*
X0034848Y0367445D01*
X0034860Y0367288D01*
X0034868Y0367131D01*
X0034872Y0366973D01*
X0034872Y0366815D01*
X0034868Y0366657D01*
X0034860Y0366500D01*
X0034848Y0366343D01*
X0034832Y0366186D01*
X0034812Y0366029D01*
X0034788Y0365873D01*
X0034760Y0365718D01*
X0034729Y0365564D01*
X0034693Y0365410D01*
X0034654Y0365257D01*
X0034611Y0365106D01*
X0034564Y0364955D01*
X0034513Y0364806D01*
X0034458Y0364658D01*
X0034400Y0364511D01*
X0034338Y0364366D01*
X0034272Y0364223D01*
X0034203Y0364081D01*
X0034131Y0363941D01*
X0034054Y0363803D01*
X0033975Y0363667D01*
X0033891Y0363533D01*
X0033805Y0363401D01*
X0033715Y0363272D01*
X0033622Y0363144D01*
X0033526Y0363019D01*
X0033427Y0362897D01*
X0033324Y0362777D01*
X0033219Y0362659D01*
X0033111Y0362545D01*
X0032999Y0362433D01*
X0032885Y0362324D01*
X0032769Y0362218D01*
X0032649Y0362115D01*
X0032528Y0362015D01*
X0032403Y0361918D01*
X0032276Y0361824D01*
X0032147Y0361733D01*
X0032016Y0361646D01*
X0031883Y0361562D01*
X0031747Y0361481D01*
X0031609Y0361404D01*
X0031470Y0361331D01*
X0031329Y0361261D01*
X0031186Y0361194D01*
X0031041Y0361131D01*
X0030895Y0361072D01*
X0030747Y0361016D01*
X0030598Y0360965D01*
X0030448Y0360917D01*
X0030297Y0360873D01*
X0030144Y0360832D01*
X0029991Y0360796D01*
X0029836Y0360763D01*
X0029681Y0360734D01*
X0029526Y0360710D01*
X0029369Y0360689D01*
X0029213Y0360672D01*
X0029055Y0360659D01*
X0028898Y0360650D01*
X0028740Y0360645D01*
X0028583Y0360644D01*
X0028425Y0360647D01*
X0028267Y0360654D01*
X0028110Y0360665D01*
X0027953Y0360680D01*
X0027796Y0360699D01*
X0027640Y0360722D01*
X0027485Y0360748D01*
X0027330Y0360779D01*
X0027176Y0360813D01*
X0027023Y0360852D01*
X0026871Y0360894D01*
X0026721Y0360940D01*
X0026571Y0360990D01*
X0026423Y0361044D01*
X0026276Y0361101D01*
X0026130Y0361162D01*
X0025987Y0361227D01*
X0025844Y0361295D01*
X0025704Y0361367D01*
X0025566Y0361442D01*
X0025429Y0361521D01*
X0025294Y0361603D01*
X0025162Y0361689D01*
X0025032Y0361778D01*
X0024904Y0361870D01*
X0024778Y0361966D01*
X0024655Y0362064D01*
X0024535Y0362166D01*
X0024417Y0362271D01*
X0024301Y0362378D01*
X0024189Y0362489D01*
X0024079Y0362602D01*
X0023972Y0362718D01*
X0023868Y0362836D01*
X0023767Y0362958D01*
X0023670Y0363081D01*
X0023575Y0363208D01*
X0023484Y0363336D01*
X0023395Y0363467D01*
X0023311Y0363600D01*
X0023229Y0363735D01*
X0023151Y0363872D01*
X0023077Y0364011D01*
X0023006Y0364152D01*
X0022938Y0364294D01*
X0022875Y0364439D01*
X0022814Y0364584D01*
X0022758Y0364732D01*
X0022705Y0364880D01*
X0022656Y0365030D01*
X0022611Y0365181D01*
X0022570Y0365334D01*
X0022532Y0365487D01*
X0022499Y0365641D01*
X0022469Y0365796D01*
X0022443Y0365951D01*
X0022422Y0366108D01*
X0022404Y0366264D01*
X0022390Y0366421D01*
X0022380Y0366579D01*
X0022374Y0366736D01*
X0022372Y0366894D01*
M02*
